<?xml version="1.0" encoding="UTF-8"?>
<svg id="Layer_1" data-name="Layer 1" xmlns="http://www.w3.org/2000/svg" viewBox="0 0 1480 1600">
  <g id="bg">
    <rect x="-4.67" y="-7.36" width="1487.43" height="1612.8" style="fill: #ececec;"/>
  </g>
  <g id="post-bg">
    <rect x="274.93" y="231.51" width="930.14" height="1140.14" rx="39.1" ry="39.1" style="fill: #fff;"/>
  </g>
  <g id="icons">
    <path d="m388.08,1294.57c-8.42-5.71-16.28,1.35-16.9,1.93-.62-.58-8.48-7.65-16.9-1.93-7.91,5.36-6.06,17.09,3.11,24.56,8.03,6.55,13.06,10.42,13.75,10.94v.07s.02-.02.04-.03c.02.02.04.03.04.03v-.07c.69-.53,5.71-4.4,13.75-10.94,9.17-7.47,11.01-19.2,3.11-24.56Z" style="fill: none; stroke: #010101; stroke-miterlimit: 10; stroke-width: 3px;"/>
    <g>
      <path d="m472.27,1320.96c1.79-2.92,2.83-6.34,2.83-10.02,0-10.64-8.62-19.26-19.26-19.26s-19.26,8.62-19.26,19.26,8.62,19.26,19.26,19.26c3.65,0,7.04-1.03,9.95-2.79" style="fill: none; stroke: #010101; stroke-miterlimit: 10; stroke-width: 3px;"/>
      <path d="m472.27,1320.96l2.58,8.71s-4.87-1.23-9.06-2.26" style="fill: none; stroke: #010101; stroke-miterlimit: 10; stroke-width: 3px;"/>
    </g>
    <g>
      <path d="m532.88,1310.46s3.2,20.24,3.86,21.55c.66,1.32,1.69-.47,1.69-.47,0,0,20.42-32.75,21.46-35.01,1.04-2.26-1.22-2.07-1.22-2.07,0,0-36.89.47-39.72.47s-1.79,2.07-1.79,2.07l15.72,13.46" style="fill: none; stroke: #010101; stroke-miterlimit: 10; stroke-width: 3px;"/>
      <line x1="532.88" y1="1310.46" x2="559.7" y2="1295.41" style="fill: none; stroke: #010101; stroke-miterlimit: 10; stroke-width: 3px;"/>
    </g>
    <g>
      <path d="m1092.07,1331.93v-41.9c0-.76.62-1.38,1.38-1.38h33.51c.76,0,1.38.62,1.38,1.38v41.9" style="fill: none; stroke: #010101; stroke-miterlimit: 10; stroke-width: 3px;"/>
      <path d="m1092.07,1331.93l16.74-14.49c.77-.77,2.04-.77,2.81,0l16.74,14.49" style="fill: none; stroke: #010101; stroke-miterlimit: 10; stroke-width: 3px;"/>
    </g>
  </g>
  <g>
    <circle cx="336.5" cy="284.5" r="35.5"/>
    <g>
      <path d="m315.51,294.78c-.76,0-1.37-.62-1.37-1.37v-11.17c0-.12,0-3.36,2.2-5.58,1.33-1.34,3.13-2.02,5.35-2.02h2.41c.76,0,1.37.62,1.37,1.37s-.62,1.37-1.37,1.37h-2.41c-1.46,0-2.6.41-3.39,1.21-1.39,1.4-1.41,3.61-1.41,3.64v11.18c0,.76-.62,1.37-1.37,1.37Z" style="fill: #fff;"/>
      <path d="m330.39,304.19h-2.41c-.76,0-1.37-.62-1.37-1.37s.62-1.37,1.37-1.37h2.41c1.46,0,2.6-.41,3.39-1.21,1.39-1.4,1.41-3.61,1.41-3.64v-24.49c0-.76.62-1.37,1.37-1.37s1.37.62,1.37,1.37v24.48c0,.12,0,3.36-2.2,5.58-1.33,1.34-3.13,2.02-5.35,2.02Z" style="fill: #fff;"/>
      <path d="m329.8,294.96c-.76,0-1.37-.62-1.37-1.37v-17.64c0-.76.62-1.37,1.37-1.37s1.37.62,1.37,1.37v17.64c0,.76-.62,1.37-1.37,1.37Z" style="fill: #fff;"/>
      <path d="m350.46,294.84c-5.57,0-10.1-4.53-10.1-10.1s4.53-10.1,10.1-10.1,10.1,4.53,10.1,10.1-4.53,10.1-10.1,10.1Zm0-17.46c-4.06,0-7.35,3.3-7.35,7.35s3.3,7.35,7.35,7.35,7.35-3.3,7.35-7.35-3.3-7.35-7.35-7.35Z" style="fill: #fff;"/>
      <path d="m334.95,259.55h0s-.48-.17-1.04.09c-.56.25-1.01.72-1.16,1.2-.15.46.03,1.11.08,1.18.07.07.34.63,1.02,1.49,1.11,1.38.97,1.25,2.09,2.36.72.7,1.26-.05,1.26-.05,0,0,1.45-1.5,1.54-1.66.07-.15,1.11-1.21,1.24-1.52s.37-.74.19-1.55c-.15-.75-1.02-1.23-1.19-1.25-.17-.02-.65-.24-1.55.34-.34.22-1.23.1-1.42.04-.25-.09-.41-.22-.41-.22,0,0-.53-.38-.66-.43Z" style="fill: #ce0e2d;"/>
      <path d="m327.87,265.3h0s-.54-.19-1.19.1c-.64.29-1.15.82-1.32,1.36-.18.53.04,1.27.1,1.34.08.08.39.72,1.17,1.69,1.26,1.57,1.11,1.42,2.39,2.68.82.8,1.44-.06,1.44-.06,0,0,1.65-1.71,1.75-1.89.08-.18,1.26-1.38,1.42-1.73s.43-.84.21-1.77c-.18-.86-1.16-1.4-1.36-1.42-.19-.02-.74-.27-1.77.39-.39.25-1.4.12-1.61.04-.29-.1-.47-.25-.47-.25,0,0-.6-.43-.76-.49Z" style="fill: #ce0e2d;"/>
      <g>
        <path d="m355.46,297.83v-.08c0-.16.03-.27.12-.4l2.13-3.09c.09-.15.21-.21.39-.21h.61c.22,0,.33.12.33.33v2.93h.39c.21,0,.33.11.33.32v.19c0,.21-.09.32-.26.32h-.45v1.09c0,.22-.11.33-.33.33h-.34c-.21,0-.32-.11-.32-.33v-1.09h-2.26c-.21,0-.32-.11-.32-.32Zm2.58-.51v-1.71c0-.27.04-.57.04-.57h-.02s-.12.29-.27.5l-1.27,1.76v.02h1.52Z" style="fill: #c4c4c4;"/>
        <path d="m360.23,299.08c0-1.99,2.58-2.3,2.58-3.4,0-.48-.37-.77-.84-.77-.4,0-.68.24-.81.41-.15.15-.3.2-.46.07l-.21-.16c-.16-.12-.2-.27-.09-.43.24-.32.75-.83,1.65-.83.96,0,1.79.59,1.79,1.63,0,1.77-2.47,2.07-2.51,3.11h2.27c.22,0,.33.11.33.32v.22c0,.22-.11.33-.33.33h-3.03c-.2,0-.35-.11-.35-.33v-.16Z" style="fill: #c4c4c4;"/>
      </g>
    </g>
  </g>
</svg>