<?xml version="1.0" encoding="UTF-8"?>
<svg xmlns="http://www.w3.org/2000/svg" viewBox="0 0 1480 1600">
  <g id="bg">
    <rect x="-4.67" y="-7.36" width="1487.43" height="1612.8" style="fill: #ececec;"/>
  </g>
  <g id="post-bg">
    <rect x="274.93" y="231.51" width="930.14" height="1140.14" rx="39.1" ry="39.1" style="fill: #fff;"/>
  </g>
  <g id="icons">
    <path d="m388.08,1294.57c-8.42-5.71-16.28,1.35-16.9,1.93-.62-.58-8.48-7.65-16.9-1.93-7.91,5.36-6.06,17.09,3.11,24.56,8.03,6.55,13.06,10.42,13.75,10.94v.07s.02-.02.04-.03c.02.02.04.03.04.03v-.07c.69-.53,5.71-4.4,13.75-10.94,9.17-7.47,11.01-19.2,3.11-24.56Z" style="fill: none; stroke: #010101; stroke-miterlimit: 10; stroke-width: 3px;"/>
    <g>
      <path d="m472.27,1320.96c1.79-2.92,2.83-6.34,2.83-10.02,0-10.64-8.62-19.26-19.26-19.26s-19.26,8.62-19.26,19.26,8.62,19.26,19.26,19.26c3.65,0,7.04-1.03,9.95-2.79" style="fill: none; stroke: #010101; stroke-miterlimit: 10; stroke-width: 3px;"/>
      <path d="m472.27,1320.96l2.58,8.71s-4.87-1.23-9.06-2.26" style="fill: none; stroke: #010101; stroke-miterlimit: 10; stroke-width: 3px;"/>
    </g>
    <g>
      <path d="m532.88,1310.46s3.2,20.24,3.86,21.55c.66,1.32,1.69-.47,1.69-.47,0,0,20.42-32.75,21.46-35.01,1.04-2.26-1.22-2.07-1.22-2.07,0,0-36.89.47-39.72.47s-1.79,2.07-1.79,2.07l15.72,13.46" style="fill: none; stroke: #010101; stroke-miterlimit: 10; stroke-width: 3px;"/>
      <line x1="532.88" y1="1310.46" x2="559.7" y2="1295.41" style="fill: none; stroke: #010101; stroke-miterlimit: 10; stroke-width: 3px;"/>
    </g>
    <g>
      <path d="m1092.07,1331.93v-41.9c0-.76.62-1.38,1.38-1.38h33.51c.76,0,1.38.62,1.38,1.38v41.9" style="fill: none; stroke: #010101; stroke-miterlimit: 10; stroke-width: 3px;"/>
      <path d="m1092.07,1331.93l16.74-14.49c.77-.77,2.04-.77,2.81,0l16.74,14.49" style="fill: none; stroke: #010101; stroke-miterlimit: 10; stroke-width: 3px;"/>
    </g>
  </g>
  <g id="brand">
    <circle cx="336.35" cy="283.71" r="32.31" style="fill: none; stroke: #1b365b; stroke-miterlimit: 10; stroke-width: 1.45px;"/>
    <g id="Martini_Glasses" data-name="Martini Glasses">
      <polygon points="342.12 282.47 352.19 270.51 344.64 270.51 344.18 271.06 349.53 271.06 348.44 272.35 343.1 272.35 342.63 272.91 347.98 272.91 340.38 281.94 337.72 278.78 337.36 279.21 340.1 282.47 340.1 298.35 336.24 298.35 336.24 299.64 346.3 299.64 346.3 298.35 342.12 298.35 342.12 282.47" style="fill: #003c4e;"/>
      <path d="m332.8,272.91h15.21l-7.6,9.03-7.6-9.03Zm-1.55-1.84h18.31l-1.09,1.29h-16.14l-1.09-1.29Zm-1.19-.55l10.07,11.96v15.89h-4.14v1.29h10.02v-1.29h-3.86v-15.89l10.07-11.96h-22.15Z" style="fill: #003c4e;"/>
      <path d="m323.01,272.91h15.21l-7.6,9.03-7.6-9.03Zm-1.55-1.84h18.31l-1.09,1.29h-16.14l-1.09-1.29Zm-1.19-.55l10.07,11.96v15.89h-4.14v1.29h10.02v-1.29h-3.86v-15.89l10.07-11.96h-22.15Z" style="fill: #00998f;"/>
    </g>
  </g>
</svg>