<?xml version="1.0" encoding="UTF-8"?>
<svg xmlns="http://www.w3.org/2000/svg" viewBox="0 0 1480 1600">
  <g id="bg">
    <rect x="-4.67" y="-7.36" width="1487.43" height="1612.8" style="fill: #d4ff36;"/>
  </g>
  <g id="post-bg">
    <rect x="274.93" y="231.51" width="930.14" height="1140.14" rx="39.1" ry="39.1" style="fill: #fff;"/>
  </g>
  <g id="icons">
    <path d="m388.08,1294.57c-8.42-5.71-16.28,1.35-16.9,1.93-.62-.58-8.48-7.65-16.9-1.93-7.91,5.36-6.06,17.09,3.11,24.56,8.03,6.55,13.06,10.42,13.75,10.94v.07s.02-.02.04-.03c.02.02.04.03.04.03v-.07c.69-.53,5.71-4.4,13.75-10.94,9.17-7.47,11.01-19.2,3.11-24.56Z" style="fill: none; stroke: #010101; stroke-miterlimit: 10; stroke-width: 3px;"/>
    <g>
      <path d="m472.27,1320.96c1.79-2.92,2.83-6.34,2.83-10.02,0-10.64-8.62-19.26-19.26-19.26s-19.26,8.62-19.26,19.26,8.62,19.26,19.26,19.26c3.65,0,7.04-1.03,9.95-2.79" style="fill: none; stroke: #010101; stroke-miterlimit: 10; stroke-width: 3px;"/>
      <path d="m472.27,1320.96l2.58,8.71s-4.87-1.23-9.06-2.26" style="fill: none; stroke: #010101; stroke-miterlimit: 10; stroke-width: 3px;"/>
    </g>
    <g>
      <path d="m532.88,1310.46s3.2,20.24,3.86,21.55c.66,1.32,1.69-.47,1.69-.47,0,0,20.42-32.75,21.46-35.01,1.04-2.26-1.22-2.07-1.22-2.07,0,0-36.89.47-39.72.47s-1.79,2.07-1.79,2.07l15.72,13.46" style="fill: none; stroke: #010101; stroke-miterlimit: 10; stroke-width: 3px;"/>
      <line x1="532.88" y1="1310.46" x2="559.7" y2="1295.41" style="fill: none; stroke: #010101; stroke-miterlimit: 10; stroke-width: 3px;"/>
    </g>
    <g>
      <path d="m1092.07,1331.93v-41.9c0-.76.62-1.38,1.38-1.38h33.51c.76,0,1.38.62,1.38,1.38v41.9" style="fill: none; stroke: #010101; stroke-miterlimit: 10; stroke-width: 3px;"/>
      <path d="m1092.07,1331.93l16.74-14.49c.77-.77,2.04-.77,2.81,0l16.74,14.49" style="fill: none; stroke: #010101; stroke-miterlimit: 10; stroke-width: 3px;"/>
    </g>
  </g>
  <g id="brand">
    <circle cx="336.5" cy="284.03" r="32.82" style="fill: #283f42;"/>
    <g id="sportvatar-icon">
      <g>
        <path d="m338.55,260.62s-.07.01-.1.03c0,0,.04-.01.1-.03Z" style="fill: #d4ff36;"/>
        <path d="m357.11,277.96c-.2-.34-.21-.23-.44-.56.15-.48-.25-1.63-.42-2.1-.06-.27-.19-.59-.4-.99-.82-1.48-2.35-2.82-2.35-2.82-.06-.02-.12-.03-.18-.04,0-.01.01-.03.02-.04-.39-.1-.78-.19-1.18-.27,2.51-2.71-.94-6.14-.94-6.14.08,2.91-3.02,2.3-3.02,2.3,2.32-3.07-1.08-4.91-1.08-4.91.08,3.6-3.32,2.91-3.32,2.91-.39-4.29-5.64-2.91-5.64-2.91,1.62.54,5.41,4.37-4.02,4.68-8.81.29-11.68,4.12-12.02,4.62-.25.05-.49.09-.71.14.01.02.02.04.03.05-.07.01-.1.02-.1.02-1.06.46-2.71,2.73-3.5,4.03,0,.01-.01.02-.02.03-.77,1.05-1.01,2.03-.95,2.43-.67,1.15-1.05,2.06-1.4,3.33-2.13-.01-3.92,1.81-4.01,4.13-.1,2.37,1.59,4.37,3.78,4.46.17,0,.34,0,.51-.01,0,0,4.39,15.16,28.56,11.9,14.36-1.94,14.91-15.74,14.91-15.74.68-.87,1.12-2.03,1.18-3.31.11-2.51-1.31-4.67-3.28-5.21Zm-39.04.05c.75-1.12,2.95-4.71,3.6-5.07,1.12-.22,9.56-1.82,18.66-1.82,4.88,0,9.13.46,12.64,1.36.4.38,1.38,1.35,1.94,2.36.08.15.71,1.85.75,1.96-1.79-.03-8.34-.1-13.07-.2-1.11-.02-2.24-.02-3.38,0-1.48-.67-4.03-1.28-6.95.33-3.67.25-7.56.59-11.79.87l-2.41.2Zm21.95,9.25c-1.14,1.06-2.49,1.57-4.07,1.54-1.58-.02-2.92-.58-4.02-1.67-1.1-1.09-1.63-2.39-1.61-3.91.03-1.52.61-2.8,1.74-3.86,1.14-1.06,2.49-1.57,4.07-1.54,1.58.02,2.92.58,4.02,1.67,1.1,1.09,1.63,2.39,1.61,3.91-.03,1.52-.61,2.8-1.74,3.86Zm4.62,8.59c-4.09-.32-4.19-3.4-4.19-3.4,0,0,2.75,2.31,7.43,1.84,1.9-.11,3.38-1.02,3.38-1.02,0,0-2.52,2.9-6.61,2.58Zm13.49-9.51c-.82.88-1.79,1.31-2.92,1.29-1.13-.02-2.08-.48-2.87-1.38-.78-.9-1.16-1.99-1.14-3.25s.44-2.33,1.26-3.21c.81-.88,1.79-1.31,2.92-1.29,1.13.02,2.08.48,2.87,1.38.78.9,1.16,1.98,1.14,3.24-.02,1.26-.44,2.33-1.26,3.21Z" style="fill: #d4ff36;"/>
      </g>
    </g>
  </g>
</svg>