<svg xmlns="http://www.w3.org/2000/svg" xmlns:xlink="http://www.w3.org/1999/xlink" viewBox="0 0 3000 3000" width="100%" height="100%"><circle cx="1500" cy="1500" r="1200" style="fill: #4c6164;"/><path d="M2140.31,2662.44c-.83,12.95-3.93,22-4.18,22.72l-.27,.66c-11.07,22.98-29.4,26.99-41.53,29.64-2.73,.6-5.33,1.17-7.19,1.84-12.33,16.36-30.09,24.66-51.48,23.94-8.61-.28-16.2-1.98-21.5-3.55-3.96,13.93-16.47,26.22-36.13,35.23-22.43,10.28-52.58,15.65-87.57,15.65-2.51,0-5.05-.03-7.61-.08-57.68-1.25-106.98-30.51-150.47-56.33-27.04-16.05-52.58-31.21-75.92-36.85-18.72-4.53-34.37-6.65-48.17-8.52-8.86-1.2-16.96-2.3-24.57-3.86,10.57,30.14,9.44,64.79-3.6,91.5-12.16,24.92-33.48,41.31-61.66,47.38-58.57,12.62-92.41-1.11-105.54-8.65-5.99,7.95-20.07,20.1-51.61,24.44-4.01,.55-8.02,.81-11.98,.81-32.83,0-63.03-17.35-75.05-25.22-.75,.79-1.55,1.54-2.41,2.27l-2.5-2.97h-.01s2.5,2.98,2.5,2.98c-9.56,8.01-26.47,11.8-52.91,11.8-2.25,0-4.57-.03-6.96-.08h-.19c-50.38-2.64-74.65-24.98-86.14-43.26-9.4-14.96-11.94-29.54-12.62-36.23-26.78-16.71-42.25-45.99-46-87.08-1.44-15.74-1.08-31.82,.11-47.17-94.42,28.81-151.45,66.2-151.45,107.06,0,91.07,283.17,164.89,632.47,164.89s632.47-73.83,632.47-164.89c0-20.43-14.27-40-40.33-58.06Z" style="opacity: .2;"></path> <g id="Light-Brown-Sleeve-Tattoo" class="body">  <defs>   <style>    .skin-color {     fill: #CCA98B;    }   </style>   <linearGradient id="body-linear-gradient" x1="674.59" y1="1135.33" x2="792" y2="1135.33" gradientUnits="userSpaceOnUse">    <stop offset="0" stop-color="#000" stop-opacity="0"></stop>    <stop offset=".02" stop-color="#000" stop-opacity=".04"></stop>    <stop offset="1" stop-color="#000"></stop>   </linearGradient>   <linearGradient id="body-linear-gradient-2" x1="747" y1="806.16" x2="1137.5" y2="806.16" gradientUnits="userSpaceOnUse">    <stop offset="0" stop-color="#000" stop-opacity="0"></stop>    <stop offset=".1" stop-color="#000" stop-opacity=".24"></stop>    <stop offset="1" stop-color="#000"></stop>   </linearGradient>   <linearGradient id="body-linear-gradient-3" x1="749" y1="1462.04" x2="1887.99" y2="1462.04" xlink:href="#body-linear-gradient-2"></linearGradient>   <linearGradient id="body-linear-gradient-4" x1="2535.16" y1="1528.07" x2="2535.16" y2="1593.23" gradientUnits="userSpaceOnUse">    <stop offset="0" stop-color="#000" stop-opacity="0"></stop>    <stop offset="1" stop-color="#000"></stop>   </linearGradient>   <linearGradient id="body-linear-gradient-5" x1="2511.44" y1="1649.5" x2="2511.44" y2="1693.21" gradientUnits="userSpaceOnUse">    <stop offset="0" stop-color="#000" stop-opacity="0"></stop>    <stop offset=".98" stop-color="#000"></stop>   </linearGradient>   <linearGradient id="body-linear-gradient-6" x1="2479.07" y1="1751.37" x2="2479.07" y2="1784.92" gradientUnits="userSpaceOnUse">    <stop offset="0" stop-color="#000" stop-opacity="0"></stop>    <stop offset=".65" stop-color="#000"></stop>   </linearGradient>   <linearGradient id="body-linear-gradient-7" x1="792.76" y1="2386.35" x2="792.78" y2="2492.64" gradientUnits="userSpaceOnUse">    <stop offset=".07" stop-color="#000" stop-opacity="0"></stop>    <stop offset="1" stop-color="#000"></stop>   </linearGradient>   <linearGradient id="body-linear-gradient-8" x1="979.6" y1="2066.19" x2="859.13" y2="1904.81" gradientUnits="userSpaceOnUse">    <stop offset="0" stop-color="#000"></stop>    <stop offset=".12" stop-color="#000" stop-opacity=".72"></stop>    <stop offset="1" stop-color="#000" stop-opacity="0"></stop>   </linearGradient>   <linearGradient id="body-linear-gradient-9" x1="1206.12" y1="2483.09" x2="1513.72" y2="2071.87" gradientUnits="userSpaceOnUse">    <stop offset=".19" stop-color="#000"></stop>    <stop offset=".77" stop-color="#000" stop-opacity="0"></stop>   </linearGradient>   <linearGradient id="body-linear-gradient-10" x1="1776.9" y1="2464.07" x2="1751.37" y2="2092.81" gradientUnits="userSpaceOnUse">    <stop offset="0" stop-color="#000"></stop>    <stop offset="1" stop-color="#000" stop-opacity="0"></stop>   </linearGradient>   <linearGradient id="body-linear-gradient-11" x1="1904.93" y1="1808.86" x2="1904.98" y2="1807.9" xlink:href="#body-linear-gradient-9"></linearGradient>   <linearGradient id="body-linear-gradient-12" x1="2156.4" y1="2031.09" x2="2171.09" y2="1743.3" xlink:href="#body-linear-gradient-9"></linearGradient>   <linearGradient id="body-linear-gradient-13" x1="1523.71" y1="1848.72" x2="1522.19" y2="1703.37" gradientUnits="userSpaceOnUse">    <stop offset=".58" stop-color="#000" stop-opacity="0"></stop>    <stop offset="1" stop-color="#000"></stop>   </linearGradient>  </defs>  <g id="body-body">   <g>    <path class="skin-color" d="M2412,1481s29-113-32-151-92,5-83,32c9.8,29.41,13,59-7,90-68,74-38,163-38,163,0,0-55.5,121.5-135.5,105.5-74.31-14.86-184.5-144.5-306.47-156.99-123.61,47.19-550.22,13.15-689.34-21.96-.06-.02-.13-.03-.19-.05l-.1-1.96h-.05c-53.59,4.31-337.41,57.15-479.35,367.46-125.5,274.37-35,580,166.07,607.65,0,0,64.68,34.89,114.93-10.65,21.91-19.86,32.58-42.16,30-58,.32-.56,.23,.1,.5-.5,0,0-9.36-58.41-84.5-32.5h1s-.37-2-1,0c-10.99-17.56-31.42-52.58-25.89-87.43,0,0,42.17,79.44,93.91,46.04,51.75-33.41,19.33-132.9-71.38-191.4-30.35-18.2-13.49-65.7,12.04-107.85,27.01-44.6,106.46-118.69,176.82-151.86h2c21.66,31.8,37,86,50.5,234.5,0,0,18.34,176.9,15,247-3.34,70.1-33.34,108.51-41.13,159.71-7.79,51.2-25.46,149.65,38.42,186.14,0,0,.71,72.01,92.85,76.83,32.82,.75,48.04-3.91,55.55-10.2,2.34-1.97,3.94-4.08,5.08-6.25,0,0,43.79,32.98,87.66,26.93,43.87-6.04,50.37-27.2,50.37-27.2,0,0,32.46,27.4,106.3,11.49,69.4-14.95,79.4-92.95,55.64-142.06,21.53,6.98,47.16,6.39,85.26,15.61,62,15,133,91,225,93,79.21,1.72,125-24,126-53,0,0,47,21,74-17,10-5,34-2,47-29,0,0,27.13-77.01-60-104-113-35-127-85-183-147-19.24-21.3-21.8-66.89-18.61-114.19,2.06-30.51,6.51-61.75,10.43-87.64,4.5-25.47,9.11-50.21,13.18-73.17,12.92-72.91,18.05-116.03,22.81-156.03l-.55-.07c1.23-10.57,1.7-21.99,1.73-33.01,.02-6.69-.13-13.24-.37-19.35l.88-.04c363.26,224.21,521.5-145.5,521.5-145.5,176,34,120-70,120-70,86-38,20-102,20-102,20-4,45-14,50-66,5-100-215-88-215-88Zm-872.92,890.86c-.27,4.49-.59,9.03-.97,13.6-1.56,18.7-4.13,37.88-8.11,56.54-4.86,22.76-10.52,42.98-15.29,61.68-6.18,24.2-10.86,45.87-10.41,67.26-4.5-7.73-9.51-15.75-15.3-23.94-15.11-21.36-65.79-121.49-4-300,24.33-63.57,43.12-21.19,50.07-.02l-.07,.02s8.07,57.65,4.08,124.86Z"></path>    <g>     <line x1="2442.42" y1="1606.12" x2="2443.8" y2="1605" style="fill: none; stroke: #000; stroke-linecap: round; stroke-linejoin: round; stroke-width: 13px;"></line>     <line x1="2431.12" y1="1705.51" x2="2431.64" y2="1704.61" style="fill: none; stroke: #000; stroke-linecap: round; stroke-linejoin: round; stroke-width: 13px;"></line>     <path d="M2438,1803c176,34,120-70,120-70" style="fill: none; stroke: #000; stroke-linecap: round; stroke-linejoin: round; stroke-width: 13px;"></path>     <path d="M2578,1631s66,64-20,102" style="fill: none; stroke: #000; stroke-linecap: round; stroke-linejoin: round; stroke-width: 13px;"></path>     <path d="M2578,1631c20-4,45-14,50-66,5-100-215-88-215-88,0,0,29-113-32-151s-92,5-83,32c9.8,29.41,13,59-7,90-68,74-33.5,169.5-33.5,169.5,0,0-60,115-140,99-74.31-14.86-184.5-144.5-306.47-156.99" style="fill: none; stroke: #000; stroke-linecap: round; stroke-linejoin: round; stroke-width: 13px;"></path>     <path d="M1916.5,1948.5c363.26,224.21,521.5-145.5,521.5-145.5" style="fill: none; stroke: #000; stroke-linecap: round; stroke-linejoin: round; stroke-width: 13px;"></path>     <path d="M1916,1991c-.16,1.31-.31,2.63-.47,3.94-.24,2-.48,4.01-.72,6.03-4.76,40-9.89,83.12-22.81,156.03-4.07,22.96-8.68,47.7-13.18,73.17" style="fill: none; stroke: #000; stroke-linecap: round; stroke-linejoin: round; stroke-width: 13px;"></path>     <path d="M1914,2003c.09-.7,.18-1.4,.26-2.1,1.23-10.57,1.7-21.99,1.73-33.01" style="fill: none; stroke: #000; stroke-linecap: round; stroke-linejoin: round; stroke-width: 13px;"></path>     <path d="M1915.99,1967.89c.02-6.69-.13-13.24-.37-19.35" style="fill: none; stroke: #000; stroke-linecap: round; stroke-linejoin: round; stroke-width: 13px;"></path>     <path d="M1811.03,1559.51c-123.61,47.19-550.22,13.15-689.34-21.96-.06-.02-.13-.03-.19-.05" style="fill: none; stroke: #000; stroke-linecap: round; stroke-linejoin: round; stroke-width: 13px;"></path>     <path d="M2540,1527s-98-21-109,45c-2.34,14.05,2.98,24.8,12.8,33" style="fill: none; stroke: #000; stroke-linecap: round; stroke-linejoin: round; stroke-width: 13px;"></path>     <path d="M2578,1631s-97.88,4.34-134.2-26" style="fill: none; stroke: #000; stroke-linecap: round; stroke-linejoin: round; stroke-width: 13px;"></path>     <path d="M2442.42,1606.12s-41.42,6.88-43.42,49.88c-.88,18.85,10.93,35.59,32.64,48.61" style="fill: none; stroke: #000; stroke-linecap: round; stroke-linejoin: round; stroke-width: 13px;"></path>     <path d="M2431.64,1704.61c27.81,16.68,71.88,27.27,126.36,28.39" style="fill: none; stroke: #000; stroke-linecap: round; stroke-linejoin: round; stroke-width: 13px;"></path>     <path d="M2431.12,1705.51s-41.12,5.49-41.12,42.49,48,55,48,55" style="fill: none; stroke: #000; stroke-linecap: round; stroke-linejoin: round; stroke-width: 13px;"></path>     <path d="M1131.38,1535.09c-.11,0-2.5,0-6.89,.24-.71,.04-1.47,.09-2.29,.15-.21,.02-.43,.03-.65,.05-.05,0-.1,.01-.15,.01h-.05c-53.59,4.31-337.41,57.15-479.35,367.46-125.5,274.37-31.5,585.5,166.07,607.65,0,0,62.4,28.98,115.93-12.65,54-42,32-116-55-88,0,0-33.36-41.33-25.89-88.43,0,0,42.17,79.44,93.91,46.04,51.75-33.41,19.33-132.9-71.38-191.4-30.35-18.2-13.49-65.7,12.04-107.85,27.01-44.6,106.46-118.69,176.82-151.86" style="fill: none; stroke: #000; stroke-linecap: round; stroke-linejoin: round; stroke-width: 13px;"></path>     <path d="M2215.5,1675.5c-36.98,41.29-95.77,69.56-95.77,69.56" style="fill: none; stroke: #000; stroke-linecap: round; stroke-linejoin: round; stroke-width: 13px;"></path>     <path d="M1505.3,2566.94c-.45-21.39,4.23-43.06,10.41-67.26,4.77-18.7,10.43-38.92,15.29-61.68,3.98-18.66,6.55-37.84,8.11-56.54,.38-4.57,.7-9.11,.97-13.6,3.99-67.21-4.08-124.86-4.08-124.86" style="fill: none; stroke: #000; stroke-linecap: round; stroke-linejoin: round; stroke-width: 13px;"></path>     <path d="M2083,2712c-27,38-74,17-74,17-1,29-46.79,54.72-126,53-92-2-163-78-225-93-38.1-9.22-63.73-8.63-85.26-15.61" style="fill: none; stroke: #000; stroke-linecap: round; stroke-linejoin: round; stroke-width: 13px;"></path>     <path d="M1878.82,2230.17c-3.92,25.89-8.37,57.13-10.43,87.64-3.19,47.3-.63,92.89,18.61,114.19,56,62,70,112,183,147,87.13,26.99,60,104,60,104-13,27-37,24-47,29" style="fill: none; stroke: #000; stroke-linecap: round; stroke-linejoin: round; stroke-width: 13px;"></path>     <path d="M1486,2243c24.33-63.57,46.5-27.5,50.5,1.5" style="fill: none; stroke: #000; stroke-linecap: round; stroke-linejoin: round; stroke-width: 13px;"></path>     <path d="M1107,2151c-13.5-148.5-28.84-202.7-50.5-234.5" style="fill: none; stroke: #000; stroke-linecap: round; stroke-linejoin: round; stroke-width: 13px;"></path>     <path d="M1505.3,2566.94c-4.5-7.73-9.51-15.75-15.3-23.94-15.11-21.36-65.79-121.49-4-300" style="fill: none; stroke: #000; stroke-linecap: round; stroke-linejoin: round; stroke-width: 13px;"></path>     <path d="M1505.3,2566.94c17.79,30.64,27.36,56.81,44.14,71.56,.19,.18,.37,.34,.56,.5" style="fill: none; stroke: #000; stroke-linecap: round; stroke-linejoin: round; stroke-width: 13px;"></path>     <path d="M1572.74,2673.39c23.76,49.11,13.76,127.11-55.64,142.06-73.84,15.91-106.3-11.49-106.3-11.49,0,0-6.5,21.16-50.37,27.2-43.87,6.05-87.66-26.93-87.66-26.93-1.14,2.17-2.74,4.28-5.08,6.25" style="fill: none; stroke: #000; stroke-linecap: round; stroke-linejoin: round; stroke-width: 13px;"></path>     <path d="M1107,2151s18.34,176.9,15,247-33.34,108.51-41.13,159.71c-7.79,51.2-25.46,149.65,38.42,186.14,0,0,.71,72.01,92.85,76.83,32.82,.75,48.04-3.91,55.55-10.2" style="fill: none; stroke: #000; stroke-linecap: round; stroke-linejoin: round; stroke-width: 13px;"></path>     <path d="M1547,2637c.72,.6,1.43,1.22,2.13,1.85,10.47,9.42,18.3,21.35,23.61,34.54" style="fill: none; stroke: #000; stroke-linecap: round; stroke-linejoin: round; stroke-width: 13px;"></path>     <path d="M2010,2723c17-80-57-98-57-98-32-8-52-25-52-25" style="fill: none; stroke: #000; stroke-linecap: round; stroke-linejoin: round; stroke-width: 13px;"></path>     <path d="M2080.06,2634.52l.94,.48c-.32-.41-.64-.81-.97-1.21" style="fill: none; stroke: #000; stroke-linecap: round; stroke-linejoin: round; stroke-width: 13px;"></path>     <path d="M2018,2603s40.74,4.85,62.03,30.79" style="fill: none; stroke: #000; stroke-linecap: round; stroke-linejoin: round; stroke-width: 13px;"></path>     <path d="M2083,2712c19-49-3-79-3-79l.03,.79" style="fill: none; stroke: #000; stroke-linecap: round; stroke-linejoin: round; stroke-width: 13px;"></path>     <line x1="2080.06" y1="2634.52" x2="2080.03" y2="2633.79" style="fill: none; stroke: #000; stroke-linecap: round; stroke-linejoin: round; stroke-width: 13px;"></line>     <path d="M1410,2804c27-73-17-120-17-120" style="fill: none; stroke: #000; stroke-linecap: round; stroke-linejoin: round; stroke-width: 13px;"></path>     <path d="M1261,2711s21.18,49.78,6.69,99.48" style="fill: none; stroke: #000; stroke-linecap: round; stroke-linejoin: round; stroke-width: 13px;"></path>     <path d="M1267.69,2810.48c-.13,.45-.26,.91-.4,1.37" style="fill: none; stroke: #000; stroke-linecap: round; stroke-linejoin: round; stroke-width: 13px;"></path>    </g>   </g>  </g>  <g id="body-head">   <g>    <g>     <g>      <path class="skin-color" d="M2066.8,878.57c62.55,17.43,107.41,85.87,104.04,165.6-1.71,40.63-15.66,77.27-37.37,105.05,0,0-16.95,440.96-473.47,499.78-653.93,84.25-906.93-377.96-906.93-377.96-5.28,.51-10.66,.65-16.1,.42-69.53-2.94-123.31-66.37-120.12-141.7,3.11-73.79,59.76-131.6,127.44-131.15,71.43-260.79,366.32-451.8,710.66-442.47,271.99,7.37,502.65,137.81,611.85,322.43Z"></path>     </g>     <g>      <path class="skin-color" d="M744.29,998.61c71.43-260.79,366.32-451.8,710.66-442.47,271.99,7.37,502.65,137.81,611.85,322.43" style="stroke: #000; stroke-linecap: round; stroke-linejoin: round; stroke-width: 14px;"></path>      <path class="skin-color" d="M744.29,998.61c-67.68-.45-124.33,57.36-127.44,131.15-3.19,75.33,50.59,138.76,120.12,141.7,5.44,.23,10.82,.09,16.1-.42,0,0,253,462.21,906.93,377.96,456.52-58.82,473.47-499.78,473.47-499.78" style="stroke: #000; stroke-linecap: round; stroke-linejoin: round; stroke-width: 14px;"></path>      <path class="skin-color" d="M2133.47,1149.22c21.71-27.78,35.66-64.42,37.37-105.05,3.37-79.73-41.49-148.17-104.04-165.6" style="stroke: #000; stroke-linecap: round; stroke-linejoin: round; stroke-width: 14px;"></path>     </g>    </g>   </g>   <g>    <path d="M778.67,1065.1s-32.99,37.11-2.29,73.19" style="fill: none; stroke: #000; stroke-linecap: round; stroke-linejoin: round; stroke-width: 13.75px;"></path>    <path d="M696.09,1078.64s-44.77,20.56-5.09,97.36c14.36,27.79,47,44,101,29-4.72-49.47-47-71-10.89-140.43-1.57,0-44.09-19.36-81.87,21.12" style="fill: url(#body-linear-gradient); opacity: .15;"></path>    <path d="M826.77,1083.92c-88.17-65.11-140.13,10.56-140.13,10.56" style="fill: none; stroke: #000; stroke-linecap: round; stroke-linejoin: round; stroke-width: 13.75px;"></path>   </g>   <g>    <path d="M822,1000c31-259,315.5-387.67,315.5-387.67-325.5,107.33-390.5,379.67-390.5,379.67,44-4,75,8,75,8Z" style="fill: url(#body-linear-gradient-2); opacity: .15;"></path>    <path d="M1887.99,1571.76c-773.01,191.76-1043.99-309.76-1043.99-309.76-45,3-95,3-95,3,322.07,451.04,739.18,394.85,739.18,394.85-4.51-1.09-8.98-2.19-13.43-3.31,257.03,6.56,413.24-84.79,413.24-84.79Z" style="fill: url(#body-linear-gradient-3); opacity: .15;"></path>   </g>  </g>  <g id="tattoo-sleeve-right" opacity="0.5">   <g>    <path d="M593.69,2038.77s-3.39,25.41-6.78,47.44c130.45-23.72,262.59,40.66,262.59,40.66,0,0,6.78-13.55,10.16-33.88-110.12-76.24-265.98-54.21-265.98-54.21Z"></path>    <path d="M711.15,2012.23l-48.56-54.21-51.95,49.69c28.8-6.78,100.52,4.52,100.52,4.52Z"></path>    <path d="M802.63,2038.21l-14.68-56.47-51.45,38.14c6.32-1.8,66.14,18.33,66.14,18.33Z"></path>    <path d="M736.5,2019.88c-.22,.06-.39,.15-.5,.26l.5-.26Z"></path>    <path d="M872.66,2077.74l1.13-56.47-53.08,20.89c16.94,0,51.95,35.58,51.95,35.58Z"></path>   </g>   <path d="M758.58,1806.68l1.13-76.8s-19.82,17.02-33.73,35.4l-3.54,56.09,62.12,27.11-62.12,22.66-10.16,47.36-39.53-48.56-36.14,40.66c-9.41,20.97-10.69,30.2-13.55,49.46l45.18-49.46,54.21,74.54,27.11-88.92,94.87-47.88-85.84-41.65Z"></path>   <path d="M769.88,1909.45l-18.07,62.12,45.18-27.11,22.59,70.02,70.02-24.85,6.78,58.73,74.54-75.67s-27.11-76.8-102.78-111.81l-98.26,48.56Z"></path>   <path d="M786.82,1695.99l-1.13,97.13s167.15,40.66,203.29,170.54l25.98-21.46s-9.04-116.33-192-173.93l-3.39-96-32.75,23.72Z"></path>   <path d="M842.6,1682.64l2.63,71.06,84.03,36.4s-41.51-61.03-86.66-107.46Z"></path>  </g>    <g>   <g>    <path d="M2458.71,1612.31s-24.25-43.31,9.66-56.31c33.91-13,115.71,37,149.62-6,0,0,14.62,65.12-35.08,77.56-49.7,12.44-124.2-15.25-124.2-15.25Z" style="fill: url(#body-linear-gradient-4); opacity: .15;"></path>    <path d="M2463.39,1651s-55.86-15-30.92,50c0,0,59.32,44.25,134.39,23.12,3.26-2.12,60.11-49.12,8.24-57.12-51.87-8-111.72-16-111.72-16Z" style="fill: url(#body-linear-gradient-5); opacity: .15;"></path>    <path d="M2560.1,1766.48s-52.82,5.52-97.71-8.48c-44.89-14-78.3-5.86-58.6,24.57,19.7,30.43,101.7,26.31,114.06,22.87,12.36-3.44,43.2-11.49,42.25-38.96Z" style="fill: url(#body-linear-gradient-6); opacity: .15;"></path>    <path d="M643.29,2345.92s26.64,89.29,121.38,80.13c94.74-9.16,57.85,17.04,109.75,35.95,25.5,9.29,39.87,7.28,67.83-13,0,0-36.91,86-121.6,33.98-12.96,2.02-104.82,31.46-177.35-137.05Z" style="fill: url(#body-linear-gradient-7); opacity: .15;"></path>    <g>     <path d="M1053.96,1919s1.99-89-80.04-49c-65.2,31.79-214.21,202-121.45,299-9.97-66,30.92-159,201.49-250Z" style="fill: url(#body-linear-gradient-8); opacity: .5;"></path>     <path d="M1580.68,2753.38c20.87-69.89-9.01-45.18-9.01-45.18,0,0-.13,42.14-115.61,56.7l-49.62,4.06c-33.19,1.46-73.05,1.06-120.92-2.03-7.12-.46-13.94-1.07-20.5-1.84-.37-.2-.73-.39-1.1-.6,0,0-.28,.14-.81,.37-116.39-14.16-144.41-75.3-150.23-123.32,3.75-28.37,14.16-59.38,27.35-92.04,33.15-82.1,45.32-133.65,41.2-219.97-7.27-51.3-46.09-321.43-70.32-411.22-14.23-4.39-32.97-8.64-59.16-13.31,1,7,0,9,6.51,14.56,1.86-.59,3.68-1.13,5.46-1.56,0,0,1.62,8.72,4.31,23.65,1.76,3.18,3.58,6.11,5.49,8.72l-3.92,.07c13.1,73.5,43.86,253.33,47.98,343.56,4.99,109,7.98,121-36.91,258-5.02,15.32-10.25,50.25-9.79,87.37-2.56,4.76-4.13,7.84-4.13,7.84,0,0,11.79,110.19,98.66,163.88,3.72,2.45,7.88,4.78,12.53,6.97,26.36,13.17,38.64,23.93,82.58,23.41,19.26-.23,37.22-.49,53.95-.77,9.61,2.4,20.78,3.52,33.53,2.3,7.9-.76,14.67-1.94,20.46-3.4,122.76-2.95,126.28-4.6,126.28-4.6,0,0,64.38-10.16,85.72-81.62Z" style="fill: url(#body-linear-gradient-9); opacity: .15;"></path>    </g>    <path d="M2123.18,2625s-13.96,45-102.74,67c-88.77,22-220.44,5-333.16-27-49.07-13.93-77.15-28.81-93.22-41.17l-18.43-34.08c-6.81-20.26-7.26-49.84,22.88-82.75,53.98-58.95,74.42-187.01,40.62-274.98,31.53-21.05,72.53-48.26-5.59-40.83-96.63,9.19-205.6,10.81-205.6,10.81-28.37-2.31-1.99,20,20.95,36s17.95,66,17.95,66c0,0,8.39-34.52,18.95-62,10.56-27.48,33.42-36.5,48.61-2.81,15.2,33.69,11.73,110.31,8.24,161.81s-32.66,128.22-35.91,140c-3.25,11.78-12.15,48.34-3.99,53,8.16,4.66,39.4,58.5,51.93,77.76,1.29,1.98,3.06,3.64,5.19,5.02,6.62,10.9,11.71,19.22,11.71,19.22,0,0,107.73,56,255.35,83,147.63,27,232.41-12,281.29-50s14.96-104,14.96-104Z" style="fill: url(#body-linear-gradient-10); opacity: .15;"></path>    <g>     <path d="M1905.15,1808.08c-.12-.03-.23-.05-.34-.08l.06,.82c.1-.25,.19-.49,.28-.74Z" style="fill: url(#body-linear-gradient-11); opacity: .2;"></path>     <path d="M2407.53,1789c-15.24-3.09-34.91-3-58.85,2-24.12,5.04-45.88-38-117.7,61-39.45,54.38-110.72,65-166.58,32-28.87-15.3-27.93-16-46.88-27l-39.9-20s-17.95-8-74.43-28.48c2.9,28.23,9.42,94.91,9.98,144.58,23.38,14.24,172.1,95.84,297.86,52.9,151.51-51.73,221.44-200,221.44-200l-24.94-17Z" style="fill: url(#body-linear-gradient-12); opacity: .2;"></path>    </g>   </g>   <path d="M1761.76,1633.97c-72.7,23.59-149.19,32.93-220.34,34.54-70.6,2.73-135.46-2.2-194.85-12.79-61-9.05-99.82-19.49-99.82-19.49l-22.59-2.32c66.89,74.32,171.03,122.09,288.03,122.09,128.29,0,241.13-57.44,306.34-144.33-16.48,7.85-35.29,15.33-56.76,22.3Z" style="fill: url(#body-linear-gradient-13); opacity: .15;"></path>  </g> </g>  <g id="American-Football-Green-and-Gold" class="clothing">  <defs>   <style>    .vest-color {     fill: #236810;    }    .shorts-color {     fill: #e5b20e;    }    .leggings-color path {     fill: #236810;    }    .af-jersey .stripe-inner,    .af-jersey .stripe-outer {     fill: #236810;    }    .shorts .stripe-inner {     fill: #236810;    }    .shorts .stripe-outer {     fill: #fff;    }    .neck-stripe {     fill: #fff;    }    .stripe1 {     fill: #236810;    }    .stripe2 {     fill: #e5b20e;    }    .stripe3 {     fill: #fff;    }    .stripe4 {     fill: #e5b20e;    }        .shoe-base path {     fill: #fff;    }    .shoelaces path {     fill: #fff;     stroke: #000;     stroke-width: 9px;    }    .number {     opacity: 0;    }    .number {     fill: #fff;     stroke: transparent;    }        .number2 .number._5 {     opacity: 1;     transform: translate(-40px, 0);    }    .af-jersey .numbers-vest {     transform-origin: center;     transform: translate(-100px, -290px) scale(1.9);    }   </style>  </defs>  <g class="leggings-color">   <path d="M1119.5,2351.5l-2,65s203.67,92.01,345.84-13.49c.16-19.51,13.16-183.51,36.16-212.51s-390.8,31.8-390.8,31.8l10.8,129.2Z" style="stroke: #000; stroke-linecap: round; stroke-miterlimit: 10; stroke-width: 13px;"></path>   <path d="M1540.5,2220.5c3,6-19,165-14,176s254.88,76.25,347.94-27.38c0,0,6.06-182.62,13.06-205.62s-347,57-347,57Z" style="stroke: #000; stroke-linecap: round; stroke-miterlimit: 10; stroke-width: 13px;"></path>  </g>  <g class="shorts">    <path class="shorts-color" d="M1919.62,2055.15s-210.02-19.18-766.9,22.18c-14.49,1.07-29.22,2.18-44.19,3.34-6.67,.52-13.39,1.05-20.16,1.58,0,0,6.53,195.76,22.33,221,0,0-13.28,15.93,2.26,22.59,2.11,.9,8.26,1.65,17.6,2.22,7.28,.44,16.51,.76,27.26,.96,77.06,1.43,233.52,8.28,315.55-8.89,0,0,15.91-18.57,4.52-27.1,0,0,16.67-72.93,35.14-70.73s18.07,65.51,18.07,65.51c0,0-14.6,15.69-2.6,22.69s264.4,15.54,348.2-31.73c0,0,15.75-20.46,6.78-29.36-8.98-8.91,50.26-162.62,36.14-194.26Z"></path>   <g class="shorts-stripes">    <path class="stripe-outer" d="M1132.35,2298.41c-.08-.57-.22-1.11-.41-1.63l-5.9-23.38c-7.29-52.7-13.95-185.38-14.32-190.43l-3.01-.15,2.83-2.15c-6.67,.52-16.39,1.05-23.16,1.58,0,0,6.53,195.76,22.33,221,0,0-13.28,15.93,2.26,22.59,2.11,.9,8.26,1.65,17.6,2.22l2.44-4.06c-3.36-2.35-1.44-17.83,0-23l-.65-2.59Z"></path>    <path class="stripe-inner" d="M1108.53,2080.67c14.97-1.16,29.7-2.27,44.19-3.34l.03,.41c-.02,.6,.03,2.89,.13,6.58v.21s4.58,225.46,4.58,225.46c-2.93,4.98-5.45,12.43,.37,18.47v.56c-10.76-.2-19.99-.52-27.27-.96l.17-2.98-1.11-12.24c1.88-6.79,4.86-14.36,.88-18.34-1.28-1.28-2.81-9.12-4.47-21.1l-17.32-190.43v-.15s-.18-2.15-.18-2.15Z"></path>   </g>   <g class="shorts-outline">    <path d="M1108.53,2080.67c-6.67,.52-13.39,1.05-20.16,1.58,0,0,6.53,195.76,22.33,221,0,0-13.28,15.93,2.26,22.59,2.11,.9,8.26,1.65,17.6,2.22,7.28,.44,16.51,.76,27.26,.96,77.06,1.43,233.52,8.28,315.55-8.89,0,0,15.91-18.57,4.52-27.1,0,0,16.67-72.93,35.14-70.73,18.47,2.2,18.07,65.51,18.07,65.51,0,0-14.6,15.69-2.6,22.69s264.4,15.54,348.2-31.73c0,0,15.75-20.46,6.78-29.36-8.98-8.91,50.26-162.62,36.14-194.26,0,0-210.02-19.18-766.9,22.18-14.49,1.07-29.22,2.18-44.19,3.34Z" style="fill: none; stroke: #000; stroke-linecap: round; stroke-miterlimit: 10; stroke-width: 13px;"></path>    <line x1="1108.71" y1="2082.97" x2="1108.7" y2="2082.82" style="fill: none; stroke: #000; stroke-miterlimit: 10; stroke-width: 13px;"></line>    <path d="M1152.75,2077.74c-.02,.6,.03,2.89,.13,6.58" style="fill: none; stroke: #000; stroke-miterlimit: 10; stroke-width: 13px;"></path>    <line x1="1152.89" y1="2084.53" x2="1152.88" y2="2084.32" style="fill: none; stroke: #000; stroke-miterlimit: 10; stroke-width: 13px;"></line>   </g>  </g>  <g class="af-jersey">   <g>    <path class="vest-color" d="M2128.44,1705.28c-6.96-.7-13.85-1.57-19.18-2.65-1.78-.36-3.38-.73-4.76-1.13-.52-.15-1.03-.4-1.54-.75-.5-.34-1-.78-1.5-1.31,0,0-.01-.01-.02-.02-.03-.04-.07-.08-.1-.12-.63-.69-1.25-1.52-1.87-2.48-.19-.29-.37-.59-.56-.91-.14-.24-.28-.47-.42-.73h0c-5.07-9.1-9.6-26.72-13.28-45.82-1.03-5.32-1.98-10.75-2.87-16.15-.08-.46-.15-.92-.22-1.37-.61-3.79-1.19-7.55-1.72-11.23-.85-5.82-1.6-11.45-2.24-16.69-.74-6.02-1.34-11.51-1.78-16.16-.57-6.11-.88-10.77-.88-13.25,0-16-20-38-70-34-19.96,1.6-24.53-12.68-62-5-35.04,24.51-87.5,56.72-144.45,79.32-7.41,2.94-14.89,5.72-22.43,8.29-5.02,1.72-10.06,3.35-15.12,4.87-7.58,2.29-15.19,4.36-22.81,6.16-10.52,12.26-20.92,23.43-31,33.54-.92,.92-1.83,1.83-2.74,2.73-5.46,5.41-10.83,10.5-16.06,15.29-1.74,1.59-3.47,3.16-5.19,4.68-6.85,6.1-13.45,11.66-19.72,16.69-.78,.63-1.56,1.25-2.33,1.86-1.55,1.22-3.07,2.41-4.57,3.57-1.5,1.16-2.98,2.28-4.44,3.37-1.46,1.09-2.89,2.15-4.29,3.17-1.41,1.02-2.79,2.02-4.15,2.97-1.36,.96-2.69,1.88-3.99,2.78-16.28,11.17-28.3,17.28-33.73,18.71-19,5-47,11-68,0l-198.96-97.12c-6.61-1.07-13.16-2.19-19.64-3.37-3.24-.59-6.47-1.2-9.68-1.82-6.42-1.24-12.78-2.54-19.08-3.89-3.88-.83-7.72-1.69-11.55-2.57-4.75-1.08-9.47-2.2-14.15-3.34-.74-.18-1.49-.36-2.23-.54-97.88-24.17-180.11-61.56-248-103.26-15.64-2.22-28.95-3.09-38.7-2.09-68,7-163,7-189,37-10.17,11.74-13.3,30.21-13.94,49.36-.09,2.79-.13,5.6-.14,8.41-.01,14.96,1.09,29.81,1.14,41.68,.01,2.97-.04,5.75-.19,8.31-.04,.64-.08,1.26-.13,1.87-.4,4.87-1.23,8.78-2.75,11.37-.58,.98-1.33,2.16-2.23,3.5-.3,.45-.61,.91-.94,1.39-7.58,11.01-23.36,31.12-37.8,49.14-7.42,9.25-14.48,17.95-19.89,24.59-3.25,3.98-5.9,7.22-7.67,9.38-.39,.48-.75,.91-1.05,1.28-.92,1.11-1.42,1.72-1.42,1.72,0,0-37,10-20,30s272.17,188.22,272.17,188.22c0,0,33.67,6.88,30.25-20.17-.1-.83-.15-1.65-.14-2.46,.02-1.63,.28-3.22,.73-4.79,.23-.78,.5-1.55,.83-2.32,.33-.76,.7-1.52,1.12-2.26s.88-1.47,1.38-2.19c1.01-1.44,2.18-2.83,3.49-4.17,5.11-5.22,12.36-9.64,20.28-12.84h0c1.15-.46,2.3-.9,3.47-1.31,2.34-.82,4.71-1.53,7.09-2.12,1.19-.3,2.38-.56,3.56-.8h0c13.13-2.64,25.82-1.54,32.14,5,16.63,17.21,33.63,188.21,33.63,188.21,0,0,503.69,63.74,816.85-20.13,6.77-19.83,18.27-85.98,21.97-120.42h0c.37-3.45,.66-6.57,.86-9.31,.05-.75,.1-1.47,.15-2.15,.11-1.92,.18-3.59,.18-4.99,0,0,2.15,1.07,5.68,2.69,1.04,.48,2.22,1.01,3.48,1.57,.31,.14,.63,.28,.96,.42,.58,.25,1.17,.51,1.78,.77,.78,.34,1.59,.68,2.43,1.03,1.25,.53,2.56,1.06,3.9,1.6,.77,.31,1.56,.62,2.35,.93,.26,.1,.52,.2,.78,.3,3.14,1.21,6.43,2.41,9.75,3.5h0c13.18,4.34,26.68,7.01,31.9,2.18,11.48-10.62,166-281,166-281,0,0-15.69-.68-31.06-2.22Z"></path>    <path class="stripe-outer" d="M1062.11,1936.28s51.67-11.01,70.31,64.38,20.33,132.99,20.33,132.99l-56.75-3.39s-15.25-164.33-33.88-193.98Z"></path>    <path class="stripe-inner" d="M1084.78,1938.14c14.06,46.22,24.07,141.75,28.68,193.16l39.29,2.35s-1.69-57.6-20.33-132.99c-10.46-42.33-31.34-57.42-47.64-62.51Z"></path>    <path class="stripe1" d="M2128.44,1705.28c15.37,1.54,31.06,2.22,31.06,2.22,0,0-154.52,270.38-166,281-5.22,4.83-18.72,2.16-31.9-2.18l166.84-281.04Z"></path>    <path class="stripe2" d="M2101.46,1699.44c.5,.53,1,.96,1.5,1.31,.51,.35,1.02,.6,1.54,.75,1.38,.4,2.98,.78,4.76,1.13,5.33,1.08,12.22,1.95,19.18,2.65l-166.84,281.04c-3.32-1.09-6.61-2.29-9.75-3.5-.26-.11-.52-.21-.78-.31-.79-.31-1.58-.62-2.35-.93-1.34-.54-2.65-1.08-3.9-1.6-.83-.35-1.64-.7-2.43-1.03-.61-.27-1.2-.52-1.77-.78-.33-.14-.65-.28-.96-.42-1.27-.56-2.44-1.09-3.48-1.56-3.53-1.62-5.68-2.69-5.68-2.69l168.97-276.68c.62,.96,1.24,1.79,1.87,2.48,.03,.04,.07,.08,.1,.12,.01,.01,.02,.01,.02,.02Z"></path>    <path class="stripe3" d="M1930.98,1972.72l168.49-275.9c-.18-.29-.37-.6-.56-.91-.14-.24-.28-.48-.42-.73-5.07-9.1-9.6-26.72-13.28-45.82l-151.9,276.67c-.36,12.34-1.04,29.88-2.33,46.69Z"></path>    <path class="stripe4" d="M2085.21,1649.36l-152.71,278.14,1-43,142.88-296.75c.44,4.65,1.04,10.14,1.78,16.16,.64,5.24,1.39,10.87,2.24,16.69,.53,3.69,1.11,7.45,1.72,11.23,.07,.46,.15,.92,.22,1.38,.89,5.4,1.84,10.83,2.87,16.15Z"></path>    <path class="stripe1" d="M982.78,1970.09c0,.81,.04,1.63,.14,2.46,3.42,27.05-30.25,20.17-30.25,20.17,0,0-255.17-168.22-272.17-188.22s20-30,20-30l282.28,195.59Z"></path>    <path class="stripe2" d="M730.53,1737.53l259.8,216.83c-1.31,1.34-2.48,2.73-3.49,4.17-.5,.72-.97,1.46-1.38,2.2-.42,.74-.79,1.49-1.12,2.26-.32,.76-.6,1.53-.83,2.31-.45,1.57-.7,3.16-.73,4.79l-282.28-195.59s.5-.61,1.42-1.72c.3-.37,.65-.8,1.05-1.28,1.77-2.16,4.43-5.4,7.67-9.38,5.41-6.64,12.47-15.34,19.89-24.59Z"></path>    <path class="stripe3" d="M768.33,1688.39l242.28,253.13c-7.92,3.2-15.17,7.62-20.28,12.84l-259.8-216.83c14.44-18.02,30.22-38.13,37.8-49.14Z"></path>    <path class="stripe4" d="M773.42,1620.27l251.31,317.02c-1.19,.24-2.37,.5-3.56,.8-2.38,.59-4.75,1.3-7.09,2.12-1.17,.41-2.32,.85-3.47,1.31l-242.28-253.13c.33-.48,.65-.95,.94-1.39,.9-1.34,1.65-2.52,2.23-3.5,1.52-2.59,2.35-6.5,2.75-11.37,.05-.61,.09-1.23,.13-1.87,.15-2.55,.2-5.34,.19-8.31-.06-11.87-1.16-26.72-1.15-41.68Z"></path>    <path class="neck-stripe" d="M1279.58,1634.73c3.83,.88,7.67,1.74,11.55,2.57,6.3,1.35,12.66,2.65,19.09,3.89,3.21,.62,6.43,1.23,9.68,1.82,6.48,1.18,13.03,2.3,19.64,3.37l198.96,97.12c21,11,49,5,68,0,5.42-1.43,17.44-7.54,33.73-18.71,1.3-.89,2.63-1.82,3.98-2.77,1.36-.96,2.74-1.95,4.15-2.98,1.41-1.02,2.84-2.08,4.29-3.17,1.46-1.09,2.94-2.21,4.44-3.37,1.5-1.15,3.03-2.34,4.57-3.56,.78-.61,1.55-1.23,2.34-1.86,6.26-5.02,12.86-10.58,19.72-16.69,1.71-1.52,3.44-3.08,5.18-4.68,5.23-4.78,10.6-9.88,16.06-15.29,.91-.9,1.83-1.81,2.74-2.73,10.08-10.11,20.48-21.28,31-33.54,7.61-1.8,15.22-3.87,22.81-6.16,5.05-1.53,10.09-3.16,15.11-4.88,7.54-2.57,15.02-5.35,22.43-8.29,0,0-107.57,115.62-131.29,137.65-23.72,22.02-38.97,32.18-52.52,33.88-13.55,1.69-60.99,10.16-96.56,0-55.91-23.72-253.25-154.96-253.25-154.96,4.68,1.14,9.4,2.26,14.15,3.34Z"></path>   </g>   <g class="numbers-vest">    <g class="number2">      <path class="number _0" d="M1672.05,1824.88l15.94,14.25,3.84,105.44-14.85,15.53-58.69,2.43-15.74-14.08-3.9-105.75,14.71-15.38,58.69-2.43Zm-16.91,29.51l-22.58,.93,2.83,77.68,22.58-.93-2.83-77.68Z" style="stroke-miterlimit: 10; stroke-width: 7.86px;"></path>      <path class="number _1" d="M1643.74,1932.66l8.32-.34,1.05,28.77-50.07,2.07-1.05-28.77,8.32-.34-2.83-77.68-8.32,.34-1.05-28.77,41.72-1.73,3.9,106.45Z" style="stroke-miterlimit: 10; stroke-width: 7.86px;"></path>      <path class="number _2" d="M1599.69,1871.25l-1.04-28.42,14.85-15.53,58.69-2.43,15.79,14.12,1.92,52.52-14.71,15.35-35.48,1.47-5.11,4.27,.74,20.41,22.63-.94-.53-14.54,33.35-1.38,1.58,43.31-89.34,3.7-2.45-67.27,14.72-15.35,35.48-1.47,5.11-4.26-.6-16.37-5.33-3.82-12.32,.51-4.98,4.25,.38,10.51-33.35,1.38Z" style="stroke-miterlimit: 10; stroke-width: 7.86px;"></path>      <path class="number _3" d="M1689.64,1884.49l-7.35,7.67,7.89,7.04,1.66,45.5-14.71,15.38-58.69,2.43-15.94-14.25-1.04-28.42,33.35-1.38,.38,10.51,5.28,3.82,12.32-.51,5.04-4.25-.6-16.37-5.4-3.83-17.38,.72-1.05-28.77,17.38-.72,5.11-4.26-.6-16.38-5.33-3.82-12.32,.51-4.98,4.25,.38,10.51-33.35,1.38-1.04-28.42,14.85-15.53,58.69-2.43,15.79,14.12,1.66,45.5Z" style="stroke-miterlimit: 10; stroke-width: 7.86px;"></path>      <path class="number _4" d="M1690.96,1920.62l-8.32,.34,.37,10.07,8.32-.34,1.05,28.77-50.07,2.07-1.05-28.77,8.32-.34-.37-10.07-47.59,1.97-1.05-28.77,23.58-68.69,54.96-2.28,2.47,67.61,8.33-.34,1.05,28.77Zm-42.79-27.04l-1.11-30.33-10.28,30.8,11.39-.47Z" style="stroke-miterlimit: 10; stroke-width: 7.86px;"></path>      <path class="number _5" d="M1634.81,1918.47l.38,10.51,5.28,3.82,12.32-.51,5.03-4.25-.6-16.37-5.4-3.83-50.73,2.1-2.99-81.99,89.34-3.7,1.58,43.31-33.35,1.38-.53-14.54-22.63,.94,.89,24.45,40.73-1.69,15.79,14.09,1.92,52.52-14.71,15.38-58.69,2.43-15.94-14.25-1.04-28.42,33.35-1.38Z" style="stroke-miterlimit: 10; stroke-width: 7.86px;"></path>      <path class="number _6" d="M1689.03,1867.55l-33.35,1.38-.38-10.51-5.28-3.82-12.32,.51-5.03,4.25,.74,20.41,40.59-1.68,15.94,14.25,1.9,52.22-14.85,15.53-58.69,2.43-15.79-14.12-3.85-105.71,14.71-15.38,58.69-2.43,15.94,14.25,1.04,28.42Zm-54.57,40.99l.74,20.42,5.33,3.82,12.32-.51,4.99-4.25-.6-16.39-5.28-3.82-17.5,.72Z" style="stroke-miterlimit: 10; stroke-width: 7.86px;"></path>      <path class="number _7" d="M1688.5,1853.01l-28.08,78.96,10.37-.43,1.05,28.77-58.41,2.42-1.05-28.77,14.61-.6,28.11-78.96-22.58,.94,.53,14.54-33.35,1.38-1.58-43.31,89.34-3.7,1.05,28.77Z" style="stroke-miterlimit: 10; stroke-width: 7.86px;"></path>      <path class="number _8" d="M1687.98,1838.99l1.66,45.5-7.35,7.67,7.89,7.04,1.65,45.36-14.71,15.52-58.69,2.43-15.94-14.25-1.65-45.36,7.36-7.67-7.89-7.04-1.66-45.5,14.86-15.39,58.69-2.43,15.79,14.12Zm-32.1,35.81l-.6-16.37-5.33-3.82-12.27,.51-5.03,4.25,.6,16.37,5.4,3.83,12.12-.5,5.11-4.26h0Zm1.94,53.23l-.6-16.37-5.4-3.83-12.12,.5-5.11,4.26,.6,16.37,5.33,3.82,12.27-.51,5.03-4.25h0Z" style="stroke-miterlimit: 10; stroke-width: 7.86px;"></path>      <path class="number _9" d="M1634.81,1918.47l.38,10.51,5.28,3.82,12.32-.51,5.03-4.25-.75-20.41-40.59,1.68-15.94-14.25-1.9-52.22,14.85-15.53,58.69-2.43,15.79,14.12,3.85,105.71-14.71,15.38-58.69,2.43-15.94-14.25-1.04-28.42,33.35-1.38Zm21.22-39.62l-.74-20.42-5.33-3.82-12.32,.51-4.98,4.25,.6,16.39,5.28,3.82,17.5-.72Z" style="stroke-miterlimit: 10; stroke-width: 7.86px;"></path>    </g>    <g class="number1">     <path class="number _9" d="M1529.57,1922.83l.38,10.51,5.28,3.82,12.32-.51,5.03-4.25-.75-20.41-40.59,1.68-15.94-14.25-1.9-52.22,14.85-15.53,58.69-2.43,15.79,14.12,3.85,105.71-14.71,15.38-58.69,2.43-15.94-14.25-1.04-28.42,33.35-1.38Zm21.22-39.62l-.74-20.42-5.33-3.82-12.32,.51-4.98,4.25,.6,16.39,5.28,3.82,17.5-.72Z" style="stroke-miterlimit: 10; stroke-width: 7.86px;"></path>     <path class="number _8" d="M1582.74,1843.35l1.66,45.5-7.36,7.67,7.89,7.04,1.65,45.36-14.71,15.52-58.69,2.43-15.94-14.25-1.65-45.36,7.35-7.67-7.89-7.04-1.66-45.5,14.86-15.39,58.69-2.43,15.79,14.12Zm-32.1,35.81l-.6-16.37-5.33-3.82-12.27,.51-5.03,4.25,.6,16.37,5.4,3.83,12.12-.5,5.11-4.26h0Zm1.95,53.23l-.6-16.37-5.4-3.83-12.12,.5-5.11,4.27,.6,16.37,5.33,3.82,12.27-.51,5.03-4.25h0Z" style="stroke-miterlimit: 10; stroke-width: 7.86px;"></path>     <path class="number _7" d="M1583.26,1857.37l-28.08,78.96,10.37-.43,1.05,28.77-58.41,2.42-1.05-28.77,14.61-.6,28.1-78.96-22.58,.94,.53,14.54-33.35,1.38-1.58-43.31,89.34-3.7,1.05,28.77Z" style="stroke-miterlimit: 10; stroke-width: 7.86px;"></path>     <path class="number _6" d="M1583.79,1871.91l-33.35,1.38-.38-10.51-5.28-3.82-12.32,.51-5.03,4.25,.74,20.41,40.59-1.68,15.94,14.25,1.9,52.22-14.85,15.53-58.69,2.43-15.79-14.12-3.85-105.71,14.71-15.38,58.69-2.43,15.94,14.25,1.04,28.42Zm-54.57,40.99l.75,20.42,5.33,3.82,12.32-.51,4.99-4.25-.6-16.39-5.28-3.82-17.5,.72Z" style="stroke-miterlimit: 10; stroke-width: 7.86px;"></path>     <path class="number _5" d="M1529.57,1922.83l.38,10.51,5.28,3.82,12.32-.51,5.03-4.25-.6-16.37-5.4-3.83-50.73,2.1-2.99-81.99,89.34-3.7,1.58,43.31-33.35,1.38-.53-14.54-22.63,.94,.89,24.45,40.73-1.69,15.79,14.09,1.92,52.52-14.71,15.38-58.69,2.43-15.94-14.25-1.04-28.42,33.35-1.38Z" style="stroke-miterlimit: 10; stroke-width: 7.86px;"></path>     <path class="number _4" d="M1585.72,1924.98l-8.32,.34,.37,10.07,8.32-.34,1.05,28.77-50.07,2.07-1.05-28.77,8.32-.34-.37-10.07-47.59,1.97-1.05-28.77,23.58-68.69,54.96-2.28,2.47,67.61,8.33-.34,1.05,28.77Zm-42.79-27.04l-1.11-30.33-10.28,30.8,11.39-.47Z" style="stroke-miterlimit: 10; stroke-width: 7.86px;"></path>     <path class="number _3" d="M1584.4,1888.85l-7.36,7.67,7.89,7.04,1.66,45.5-14.71,15.38-58.69,2.43-15.94-14.25-1.04-28.42,33.35-1.38,.38,10.51,5.28,3.82,12.32-.51,5.04-4.25-.6-16.37-5.4-3.83-17.38,.72-1.05-28.77,17.38-.72,5.11-4.26-.6-16.38-5.33-3.82-12.32,.51-4.98,4.25,.38,10.51-33.35,1.38-1.04-28.42,14.85-15.53,58.69-2.43,15.79,14.12,1.66,45.5Z" style="stroke-miterlimit: 10; stroke-width: 7.86px;"></path>     <path class="number _2" d="M1494.45,1875.61l-1.04-28.42,14.85-15.53,58.69-2.43,15.79,14.12,1.92,52.52-14.71,15.35-35.48,1.47-5.11,4.27,.74,20.41,22.63-.94-.53-14.54,33.35-1.38,1.58,43.31-89.34,3.7-2.45-67.27,14.72-15.35,35.48-1.47,5.11-4.26-.6-16.37-5.33-3.82-12.32,.51-4.98,4.25,.38,10.51-33.35,1.38Z" style="stroke-miterlimit: 10; stroke-width: 7.86px;"></path>     <path class="number _1" d="M1577.64,1935.4l8.32-.34,1.05,28.77-50.07,2.07-1.05-28.77,8.32-.34-2.83-77.68-8.32,.34-1.05-28.77,41.72-1.73,3.9,106.45Z" style="stroke-miterlimit: 10; stroke-width: 7.86px;"></path>     <path class="number _0" d="M1566.81,1829.24l15.94,14.25,3.84,105.44-14.85,15.53-58.69,2.43-15.74-14.08-3.9-105.75,14.71-15.38,58.69-2.43Zm-16.91,29.51l-22.58,.94,2.83,77.68,22.58-.94-2.83-77.68Z" style="stroke-miterlimit: 10; stroke-width: 7.86px;"></path>    </g>   </g>  </g>   <g style="opacity: .2;">   <path d="M1363.95,1655.34s-218.95-45.34-277.83-85.84c0,0,120.42,119.04,359.15,133.27l-81.32-47.44Z"></path>   <path d="M1727.62,1650.82l-60.99,63.25c98.63-22.93,239.43-151.34,239.43-151.34,0,0-94.06,50.28-126.49,60.99-32.43,10.71-51.95,27.11-51.95,27.11Z"></path>   <path d="M1106.16,2107.38c-.66-16.88-10.66-183.88-47.16-208.38,0,0-38-44-63-31s-86.07,96.79-86.07,96.79l24.85,18.07c11.23,7.14,30.27,19.5,39.25,9.32,8.98-10.18,4.16-23.92,9.32-28.8,5.16-4.88,24.87-31.64,52.52-26.26,27.65,5.38,33.2,29.58,36.42,49.98,3.22,20.4,21.83,204.74,22.02,210.07,.2,5.33,8.91,92.19,13.55,98.26,4.65,6.07,.27,12.81-2.54,16.94-2.81,4.13,5.66,18.14,36.42,18.64,0,0-34.92-206.74-35.58-223.62Z"></path>   <path d="M1581,2312s-13-75-3-89,42-22,20-21-140-2-129,5,12.41,55.39,12.41,55.39c0,0,8.09-17.89,22.02-35.58,13.93-17.68,25.07,21.68,26.26,29.65,1.19,7.96,8.81,23.04-3.39,38.96-12.2,15.93,11.01,17.79,11.01,17.79l43.69-1.22Z"></path>   <path d="M1936.28,1877.83s-4.28,67.17-7.62,83.01c-3.35,15.84,6.35,14.16,32.95,25.48,26.6,11.32,38.21-6,38.21-6l32.19-55.06-95.72-47.44Z"></path>   <path d="M1267.95,2334.39c-23.95-.39-142.52-3.69-148.24-2.54l-.85,77.93s14.61,15.66,22.87,16.94c8.26,1.28,13.26-69.72,150.26-74.72s167.38,39.15,167.38,39.15l10.16-63.53s-177.65,7.17-201.6,6.78Z"></path>   <path d="M1595,2319c-40-3-63.62-.7-63.62-.7l-5.08,72.85s3.41,11.25,13.55,13.55c10.15,2.3,38.12,8.47,38.12,8.47,0,0,8.03-66.17,118.03-84.17s178-17,178-17l2.14-27.58s-106.45,23.63-131.29,27.11c-24.84,3.48-109.84,10.48-149.84,7.48Z"></path>  </g>  <g id="af-jersey-outline">   <path d="M2128.44,1705.28c-6.96-.7-13.85-1.57-19.18-2.65-1.78-.36-3.38-.73-4.76-1.13-.52-.15-1.03-.4-1.54-.75-.5-.34-1-.78-1.5-1.31,0,0-.01-.01-.02-.02-.03-.04-.07-.08-.1-.12-.63-.69-1.25-1.52-1.87-2.48-.19-.29-.37-.59-.56-.91-.14-.24-.28-.47-.42-.73h0c-5.07-9.1-9.6-26.72-13.28-45.82-1.03-5.32-1.98-10.75-2.87-16.15-.08-.46-.15-.92-.22-1.37-.61-3.79-1.19-7.55-1.72-11.23-.85-5.82-1.6-11.45-2.24-16.69-.74-6.02-1.34-11.51-1.78-16.16-.57-6.11-.88-10.77-.88-13.25,0-16-20-38-70-34-19.96,1.6-24.53-12.68-62-5-35.04,24.51-87.5,56.72-144.45,79.32-7.41,2.94-14.89,5.72-22.43,8.29-5.02,1.72-10.06,3.35-15.12,4.87-7.58,2.29-15.19,4.36-22.81,6.16-10.52,12.26-20.92,23.43-31,33.54-.92,.92-1.83,1.83-2.74,2.73-5.46,5.41-10.83,10.5-16.06,15.29-1.74,1.59-3.47,3.16-5.19,4.68-6.85,6.1-13.45,11.66-19.72,16.69-.78,.63-1.56,1.25-2.33,1.86-1.55,1.22-3.07,2.41-4.57,3.57-1.5,1.16-2.98,2.28-4.44,3.37-1.46,1.09-2.89,2.15-4.29,3.17-1.41,1.02-2.79,2.02-4.15,2.97-1.36,.96-2.69,1.88-3.99,2.78-16.28,11.17-28.3,17.28-33.73,18.71-19,5-47,11-68,0l-198.96-97.12c-6.61-1.07-13.16-2.19-19.64-3.37-3.24-.59-6.47-1.2-9.68-1.82-6.42-1.24-12.78-2.54-19.08-3.89-3.88-.83-7.72-1.69-11.55-2.57-4.75-1.08-9.47-2.2-14.15-3.34-.74-.18-1.49-.36-2.23-.54-97.88-24.17-180.11-61.56-248-103.26-15.64-2.22-28.95-3.09-38.7-2.09-68,7-163,7-189,37-10.17,11.74-13.3,30.21-13.94,49.36-.09,2.79-.13,5.6-.14,8.41-.01,14.96,1.09,29.81,1.14,41.68,.01,2.97-.04,5.75-.19,8.31-.04,.64-.08,1.26-.13,1.87-.4,4.87-1.23,8.78-2.75,11.37-.58,.98-1.33,2.16-2.23,3.5-.3,.45-.61,.91-.94,1.39-7.58,11.01-23.36,31.12-37.8,49.14-7.42,9.25-14.48,17.95-19.89,24.59-3.25,3.98-5.9,7.22-7.67,9.38-.39,.48-.75,.91-1.05,1.28-.92,1.11-1.42,1.72-1.42,1.72,0,0-37,10-20,30s272.17,188.22,272.17,188.22c0,0,33.67,6.88,30.25-20.17-.1-.83-.15-1.65-.14-2.46,.02-1.63,.28-3.22,.73-4.79,.23-.78,.5-1.55,.83-2.32,.33-.76,.7-1.52,1.12-2.26s.88-1.47,1.38-2.19c1.01-1.44,2.18-2.83,3.49-4.17,5.11-5.22,12.36-9.64,20.28-12.84h0c1.15-.46,2.3-.9,3.47-1.31,2.34-.82,4.71-1.53,7.09-2.12,1.19-.3,2.38-.56,3.56-.8h0c13.13-2.64,25.82-1.54,32.14,5,16.63,17.21,33.63,188.21,33.63,188.21,0,0,503.69,63.74,816.85-20.13,6.77-19.83,18.27-85.98,21.97-120.42h0c.37-3.45,.66-6.57,.86-9.31,.05-.75,.1-1.47,.15-2.15,.11-1.92,.18-3.59,.18-4.99,0,0,2.15,1.07,5.68,2.69,1.04,.48,2.22,1.01,3.48,1.57,.31,.14,.63,.28,.96,.42,.58,.25,1.17,.51,1.78,.77,.78,.34,1.59,.68,2.43,1.03,1.25,.53,2.56,1.06,3.9,1.6,.77,.31,1.56,.62,2.35,.93,.26,.1,.52,.2,.78,.3,3.14,1.21,6.43,2.41,9.75,3.5h0c13.18,4.34,26.68,7.01,31.9,2.18,11.48-10.62,166-281,166-281,0,0-15.69-.68-31.06-2.22Z" style="fill: none; stroke: #000; stroke-miterlimit: 10; stroke-width: 13px;"></path>   <path d="M1932.04,1850.72s1.65,92.89-1.72,127.76" style="fill: none; stroke: #000; stroke-linecap: round; stroke-miterlimit: 10; stroke-width: 13px;"></path>  </g>  <g id="clothing-shoes" class="clothing-shoes">   <g>    <g>     <g>      <g class="shoe-base">       <path d="M2160.73,2623.73c8.55,20.21,5.54,42.46,.37,59.73-6.11,11.87-37.59,56.36-170.52,68.34-153.84,13.88-206.85-20.56-292.09-45.24-.68-.2-1.37-.4-2.06-.59-82.52-23.74-187.59-43.64-193.55-44.76-2.13-6.68-3.92-13.46-5.41-20.19l3.03-.52s196,48,269,39,73-40,132-33,97,46,200,26c55.14-10.71,58.96-44.31,59.23-48.77Z"></path>       <path d="M2160.73,2623.73c-.27,4.46-4.09,38.06-59.23,48.77-103,20-141-19-200-26s-59,24-132,33-269-39-269-39l-3.03,.52c-3.91-17.77-5.65-35.24-5.53-49.97,.27-33.51,20.28-111.08,20.28-111.08-27.53-49.57,14.87-64.03,14.87-64.03,38.46,48.19,128.88,24.73,128.88,24.73,26.59-77.73,95.84-25.84,95.84-25.84,0,0,129.59,124.71,156.69,139.67,0,0,34,34,102,29s36.42-38.67,36.42-38.67l.36-.8c35.76,16.26,72.76,41.5,72.76,41.5,22.1,9.84,34.46,23.48,40.69,38.2Z"></path>       <path d="M2161.1,2683.46c-5.23,17.45-12.7,29.81-12.7,29.81,0,0-17.2,57.39-164.98,71.1-147.78,13.72-198.75-20.75-280.66-45.53-75.25-22.76-171.09-42.18-186.18-45.18-5.58-10.12-10.12-21.14-13.7-32.45,5.96,1.12,111.03,21.02,193.55,44.76,.69,.19,1.38,.39,2.06,.59,85.24,24.68,138.25,59.12,292.09,45.24,132.93-11.98,164.41-56.47,170.52-68.34Z"></path>       <path d="M1869.14,2398.96c.37,.4,.73,.81,1.1,1.22,14.65,16.38,16.81,30.29,34.87,51.06,18.05,20.77,117.17,83.1,117.17,83.1,4.14,1.25,8.44,2.78,12.83,4.51,4,1.58,8.08,3.32,12.17,5.18l-.36,.8s31.58,33.67-36.42,38.67-102-29-102-29c-27.1-14.96-156.69-139.67-156.69-139.67-13.61-18.65,10.9-31.86,45.88-36.08,30.81-3.72,53.38,1.9,67.13,15.69,1.49,1.47,2.92,2.98,4.32,4.52Z"></path>       <path d="M2035.26,2538.48l-.15,.37c-4.39-1.73-8.69-3.26-12.83-4.51,0,0-99.12-62.33-117.17-83.1-18.06-20.77-20.22-34.68-34.87-51.06-.37-.41-.73-.82-1.1-1.22-2.27-8.37-9.4-20.81,9.83-16.86,29.11,5.98,58.64,62.15,58.64,62.15,0,0,92.4,61.97,97.65,94.23Z"></path>      </g>      <g>       <path d="M2148.4,2713.27s7.47-12.36,12.7-29.81c5.17-17.27,8.18-39.52-.37-59.73-6.23-14.72-18.59-28.36-40.69-38.2,0,0-37-25.24-72.76-41.5-4.09-1.86-8.17-3.6-12.17-5.18-4.39-1.73-8.69-3.26-12.83-4.51,0,0-99.12-62.33-117.17-83.1-18.06-20.77-20.22-34.68-34.87-51.06-.37-.41-.73-.82-1.1-1.22-1.4-1.54-2.83-3.05-4.32-4.52-13.75-13.79-36.32-19.41-67.13-15.69-34.98,4.22-59.49,17.43-45.88,36.08,0,0-69.25-51.89-95.84,25.84,0,0-90.42,23.46-128.88-24.73,0,0-42.4,14.46-14.87,64.03,0,0-20.01,77.57-20.28,111.08-.12,14.73,1.62,32.2,5.53,49.97,1.49,6.73,3.28,13.51,5.41,20.19,3.58,11.31,8.12,22.33,13.7,32.45" style="fill: none; stroke: #000; stroke-linecap: round; stroke-linejoin: round; stroke-width: 13.37px;"></path>       <path d="M1869.5,2400.5c-.1-.49-.22-1.01-.36-1.54-2.27-8.37-9.4-20.81,9.83-16.86,29.11,5.98,58.64,62.15,58.64,62.15,0,0,92.4,61.97,97.65,94.23" style="fill: none; stroke: #000; stroke-linecap: round; stroke-linejoin: round; stroke-width: 13.37px;"></path>       <path d="M1514.54,2693.25s.7,.14,2.04,.41c15.09,3,110.93,22.42,186.18,45.18,81.91,24.78,132.88,59.25,280.66,45.53,147.78-13.71,164.98-71.1,164.98-71.1" style="fill: none; stroke: #000; stroke-linecap: round; stroke-linejoin: round; stroke-width: 13.37px;"></path>       <path d="M1502.61,2661.16s.09,.02,.27,.05c5.96,1.12,111.03,21.02,193.55,44.76,.69,.19,1.38,.39,2.06,.59,85.24,24.68,138.25,59.12,292.09,45.24,132.93-11.98,164.41-56.47,170.52-68.34,.96-1.87,1.29-2.93,1.29-2.93" style="fill: none; stroke: #000; stroke-linecap: round; stroke-linejoin: round; stroke-width: 13.37px;"></path>       <path d="M1751.81,2414.83s129.59,124.71,156.69,139.67c0,0,34,34,102,29s36.42-38.67,36.42-38.67" style="fill: none; stroke: #000; stroke-linecap: round; stroke-linejoin: round; stroke-width: 13.37px;"></path>       <path d="M1511.5,2472.5s78,42,163,10" style="fill: none; stroke: #000; stroke-linecap: round; stroke-linejoin: round; stroke-width: 13.37px;"></path>       <path d="M1500.5,2640.5s196,48,269,39,73-40,132-33,97,46,200,26c55.14-10.71,58.96-44.31,59.23-48.77,.02-.32,.02-.49,.02-.49" style="fill: none; stroke: #000; stroke-linecap: round; stroke-linejoin: round; stroke-width: 13.37px;"></path>      </g>     </g>     <g class="shoelaces">      <path d="M1830.57,2532.9c-2.56,0-4.99-.84-7.02-2.42-4.98-3.88-5.88-11.1-2.01-16.1,5.43-6.99,18.25-19.07,38.13-35.94-38.76,2.54-70.35,9.81-70.68,9.88-.85,.2-1.72,.3-2.59,.3-4.28,0-8.17-2.36-10.15-6.17-2.41-4.64-1.39-10.33,2.49-13.83,12.86-11.6,25.69-22.27,38.2-31.77-1.47-.02-2.95-.04-4.45-.06-4.11-.05-8.38-.07-12.7-.07-40.75,0-76.89,2.12-78.41,2.21-.25,.01-.49,.02-.72,.02-6.03,0-11.04-4.74-11.41-10.78-.19-3.06,.83-6.01,2.86-8.3,2.03-2.29,4.82-3.66,7.88-3.84,.36-.02,37.2-2.25,79.69-2.25,4.41,0,8.77,.02,12.97,.07,12.95,.15,24.99,.52,35.82,1.11,23.73-14.85,37.4-19.5,38.89-19.99,1.15-.37,2.34-.56,3.53-.56,4.98,0,9.35,3.19,10.89,7.93,1.94,6-1.35,12.48-7.33,14.44-.1,.03-1.95,.67-5.33,2.16,28.1,4.49,37.11,11.15,41.45,15.89,2.16,2.36,3.24,5.54,2.97,8.73-.27,3.19-1.87,6.14-4.4,8.1-1.95,1.52-4.22,3.29-6.73,5.26,14.79,1.95,28.02,5.15,39.37,9.51,5.89,2.26,8.85,8.91,6.59,14.82-1.69,4.41-5.98,7.37-10.69,7.37-1.4,0-2.78-.26-4.09-.76-15.2-5.84-34.46-9.23-57.23-10.07-30.56,24.89-50.7,42.87-56.75,50.67-2.18,2.81-5.48,4.43-9.04,4.43h0Zm23.99-94.57c-9.16,6.01-18.65,12.81-28.26,20.28,20.34-2.65,39.81-4,57.96-4,1.42,0,2.85,0,4.28,.03,4.08-3.29,8.22-6.6,12.33-9.87-5.8-1.58-13.06-2.94-21.64-4.08-7.24-.96-15.53-1.75-24.66-2.36Z" style="stroke-linecap: round; stroke-linejoin: round; "></path>      <path d="M1851.06,2548.01c-3.48,0-6.73-1.55-8.91-4.26-3.96-4.91-3.2-12.14,1.68-16.11,1.93-1.57,47.94-38.34,116.3-38.34,10.17,0,20.47,.82,30.61,2.45,3.02,.48,5.67,2.12,7.46,4.6,1.79,2.48,2.51,5.51,2.03,8.54-.89,5.6-5.64,9.66-11.28,9.66h0c-.61,0-1.23-.05-1.84-.15-8.73-1.4-17.65-2.11-26.51-2.11-27.97,0-51.31,7.08-65.96,13.02-22.63,9.18-36.28,20.05-36.42,20.16-2.03,1.64-4.58,2.54-7.18,2.54Z" style="stroke-linecap: round; stroke-linejoin: round; "></path>     </g>     <path d="M1542.41,2435.21s-14.54-24.29-27.47-11.34c-12.93,12.96-17.78,53.45,12.93,63.16,0,0-25.85-4.86-24.24,43.73,0,0,27.47,74.5,46.86,100.42,19.39,25.91,16.78,75.13,16.78,75.13,0,0,101.8,17.82,171.29,43.73,69.48,25.91,197.14,59.93,308.64,22.67,111.5-37.25,106.65-64.78,106.65-64.78,0,0-5.46,7.47,2.62-8.73,8.08-16.2,11.31-40.49,9.7-55.07,0,0-116.35,80.98-355.5,29.15-239.16-51.83-263.4-95.56-261.78-152.24,1.62-56.69-6.46-85.84-6.46-85.84Z" style="opacity: .2;"></path>    </g>    <g>     <g>      <g class="shoe-base">       <path d="M1584.44,2725.3h-.05s21.61,131.7-213.31,131.74c-300.61,.05-303.79-187.88-303.79-187.88,0,0,0-57.22,3.23-60.46,0,0,1.02,11.84,6,29.99,17.42,63.63,83.33,204.78,323.48,184.31,129-11,172.79-61.82,182.43-105.71,.36,1.16,1.17,3.95,2.01,8.01Z"></path>       <path d="M1094.13,2468.32c1.08-9.84,.61-19.93-2.06-30.22-6.47-24.84,19.39-29.15,19.39-29.15-3.23,15.12,38.79,37.79,38.79,37.79,16.16-22.67,45.24-23.75,65.71-22.67s24.78,29.36,24.78,29.36c-2.16,11.02,30.18,120.46,59.26,162.57,0,0,27.48,35,87,35,89,0,75-58,75-58-1-15-19.81-147.6-19.81-147.6-3.61-5.95-6.92-11.28-11.19-15.88l4.72-.05,20.47-23.76c15.08,3.24,23.7,23.76,23.7,33.47,0,1.62-.24,6.02-.35,12.41-.52,32.13,2.28,114.43,55.29,144.15,7.24,4.06,13.45,8.77,18.76,13.92,27.05,26.22,30.96,63.96,30.43,86.92l-3.52-.08s-8-28-33-22-22,74-132,79c-129.11,5.87-133-43-180-55-45.17-11.53-68,2-95-2s-61.16-58.58-61.16-58.58l-2.82,.77c-4.98-18.15-6-29.99-6-29.99-12.92-23.75,2.16-78.82,11.85-100.42,5.69-12.65,10.26-26.05,11.76-39.96Z"></path>       <path d="M1580.5,2696.5l3.52,.08c-.27,12.11-1.79,20.1-1.79,20.1,0,0,.07,.21,.2,.61-9.64,43.89-53.43,94.71-182.43,105.71-240.15,20.47-306.06-120.68-323.48-184.31l2.82-.77s34.16,54.58,61.16,58.58,49.83-9.53,95,2c47,12,50.89,60.87,180,55,110-5,107-73,132-79s33,22,33,22Z"></path>       <path d="M1555.3,2609.51l-1.71,.15c-5.31-5.15-11.52-9.86-18.76-13.92-53.01-29.72-55.81-112.02-55.29-144.15h.62c1.62,2.36,68.68,127.29,75.14,157.92Z"></path>       <path d="M1462,2593s14,58-75,58c-59.52,0-87-35-87-35-29.08-42.11-61.42-151.55-59.26-162.57,0,0,21.71-43.12,100.45-43.94,57.54-.61,77.58,6.77,89.81,20.03,4.27,4.6,7.58,9.93,11.19,15.88,0,0,18.81,132.6,19.81,147.6Z"></path>      </g>      <g>       <line x1="1584.44" y1="2725.3" x2="1584.39" y2="2725.31" style="fill: none; stroke: #000; stroke-linecap: round; stroke-linejoin: round; stroke-width: 13.37px;"></line>       <line x1="1435.72" y1="2429.47" x2="1431" y2="2429.52" style="fill: none; stroke: #000; stroke-linecap: round; stroke-linejoin: round; stroke-width: 13.37px;"></line>       <line x1="1094.13" y1="2468.32" x2="1094.23" y2="2468.33" style="fill: none; stroke: #000; stroke-linecap: round; stroke-linejoin: round; stroke-width: 13.37px;"></line>       <line x1="1170.2" y1="2493.42" x2="1168.56" y2="2494.25" style="fill: none; stroke: #000; stroke-linecap: round; stroke-linejoin: round; stroke-width: 13.37px;"></line>       <path d="M1240.74,2453.43s21.71-43.12,100.45-43.94c57.54-.61,77.58,6.77,89.81,20.03" style="fill: none; stroke: #000; stroke-linecap: round; stroke-linejoin: round; stroke-width: 13.37px;"></path>       <path d="M1431,2429.52c4.27,4.6,7.58,9.93,11.19,15.88,0,0,18.81,132.6,19.81,147.6,0,0,14,58-75,58-59.52,0-87-35-87-35-29.08-42.11-61.42-151.55-59.26-162.57" style="fill: none; stroke: #000; stroke-linecap: round; stroke-linejoin: round; stroke-width: 13.37px;"></path>       <path d="M1582.43,2717.29c.36,1.16,1.17,3.95,2.01,8.01" style="fill: none; stroke: #000; stroke-linecap: round; stroke-linejoin: round; stroke-width: 13.37px;"></path>       <path d="M1070.52,2608.7c-3.23,3.24-3.23,60.46-3.23,60.46" style="fill: none; stroke: #000; stroke-linecap: round; stroke-linejoin: round; stroke-width: 13.37px;"></path>       <path d="M1094.13,2468.32c-1.5,13.91-6.07,27.31-11.76,39.96-9.69,21.6-24.77,76.67-11.85,100.42" style="fill: none; stroke: #000; stroke-linecap: round; stroke-linejoin: round; stroke-width: 13.37px;"></path>       <path d="M1582.43,2717.29c-.13-.4-.2-.61-.2-.61,0,0,1.52-7.99,1.79-20.1,.53-22.96-3.38-60.7-30.43-86.92-5.31-5.15-11.52-9.86-18.76-13.92-53.01-29.72-55.81-112.02-55.29-144.15,.11-6.39,.35-10.79,.35-12.41,0-9.71-8.62-30.23-23.7-33.47l-20.47,23.76" style="fill: none; stroke: #000; stroke-linecap: round; stroke-linejoin: round; stroke-width: 13.37px;"></path>       <path d="M1150.25,2446.74c16.16-22.67,45.24-23.75,65.71-22.67s24.78,29.36,24.78,29.36" style="fill: none; stroke: #000; stroke-linecap: round; stroke-linejoin: round; stroke-width: 13.37px;"></path>       <path d="M1094.13,2468.32c1.08-9.84,.61-19.93-2.06-30.22-6.47-24.84,19.39-29.15,19.39-29.15-3.23,15.12,38.79,37.79,38.79,37.79" style="fill: none; stroke: #000; stroke-linecap: round; stroke-linejoin: round; stroke-width: 13.37px;"></path>       <path d="M1584.39,2704.79c-.38,4.04-1.02,8.21-1.96,12.5" style="fill: none; stroke: #000; stroke-linecap: round; stroke-linejoin: round; stroke-width: .48px;"></path>       <path d="M1582.43,2717.29c-9.64,43.89-53.43,94.71-182.43,105.71-240.15,20.47-306.06-120.68-323.48-184.31-4.98-18.15-6-29.99-6-29.99" style="fill: none; stroke: #000; stroke-linecap: round; stroke-linejoin: round; stroke-width: 13.37px;"></path>       <path d="M1067.29,2669.16s3.18,187.93,303.79,187.88c234.92-.04,213.31-131.73,213.31-131.73" style="fill: none; stroke: #000; stroke-linecap: round; stroke-linejoin: round; stroke-width: 13.37px;"></path>       <path d="M1168.56,2494.25c-44.17,6.48-74.33-25.92-74.33-25.92" style="fill: none; stroke: #000; stroke-linecap: round; stroke-linejoin: round; stroke-width: 13.37px;"></path>       <path d="M1480.16,2451.6c1.62,2.35,68.68,127.28,75.14,157.91" style="fill: none; stroke: #000; stroke-linecap: round; stroke-linejoin: round; stroke-width: 13.37px;"></path>       <path d="M1079.34,2637.92s34.16,54.58,61.16,58.58,49.83-9.53,95,2c47,12,50.89,60.87,180,55,110-5,107-73,132-79s33,22,33,22" style="fill: none; stroke: #000; stroke-linecap: round; stroke-linejoin: round; stroke-width: 13.37px;"></path>      </g>     </g>     <g class="shoelaces">      <path d="M1256.95,2560.82c-3.7,0-7.17-1.18-9.77-3.32-2.83-2.33-4.3-5.47-4.16-8.86,.15-3.41,2.01-6.58,5.1-8.7,6.5-4.44,17.01-9.27,31.34-14.4-19.97-.64-35.44-.73-42.02-.73-2.9,0-4.54,.01-4.69,.02h-.21c-5.46,0-10.42-2.68-12.65-6.82-2.61-4.85-1.08-10.59,3.71-13.95,10.09-7.08,29.35-15.37,57.34-24.68-45.3-4.59-78.92-7.87-79.55-7.92-4.24-.34-8-2.24-10.31-5.21-1.8-2.32-2.57-5.13-2.17-7.91,.84-5.88,6.78-10.31,13.81-10.31,.45,0,.91,.02,1.37,.06,1.82,.15,52.83,4.93,113.5,11.42,7.45,.8,14.77,1.6,21.77,2.4,48.44-13.3,93.8-23.44,95.71-23.87,1.18-.27,2.41-.4,3.64-.4,6,0,11.31,3.19,13.2,7.95,1.11,2.79,.96,5.82-.42,8.51-1.68,3.29-5.02,5.71-9.15,6.63-5.93,1.32-20.14,4.55-39.53,9.32,14.61,2.18,26.79,4.29,36.35,6.31,2.01-.89,4.26-1.36,6.55-1.36,1.29,0,2.58,.15,3.83,.44,1.57,.37,3.13,.75,4.69,1.13,.67,.17,1.34,.37,1.96,.62,7.93,3.09,13.17,8.47,14.36,14.78l.07,.36c.03,.15,.04,.3,.05,.45,.05,.43,.07,.87,.07,1.3v.34c-.03,.61-.11,1.2-.23,1.76l-.08,.32c-.09,.37-.24,.85-.44,1.34-.07,.17-.11,.27-.16,.37-.23,.52-.49,.99-.78,1.44l-.17,.24c-.21,.31-.51,.7-.82,1.06l-.24,.27c-.42,.46-.8,.82-1.2,1.15l-.2,.16c-.28,.23-.7,.53-1.15,.82l-.27,.17c-.94,.57-1.93,1.02-2.98,1.37l-.37,.12c-.42,.13-.8,.23-1.2,.32l-.43,.1c-5.35,1.01-22.17,4.22-44.89,9.1,21.94,4.02,40.08,8.9,54.05,14.55,3.77,1.52,6.49,4.38,7.45,7.84,.86,3.07,.27,6.23-1.65,8.89-2.48,3.45-7.05,5.6-11.92,5.6-2.1,0-4.21-.4-6.1-1.17-22.83-9.23-58.89-16.12-107.21-20.5-55.69,14.16-76.43,23.31-84.02,28.49-2.47,1.69-5.6,2.61-8.82,2.61Zm31.17-58.55c20.59,.77,40.75,1.97,59.08,3.54,16.22-4.06,33.94-8.18,52.87-12.31-16.08-2.43-35.49-4.97-57.97-7.58-20.86,5.81-38.95,11.29-53.98,16.34Z" style="stroke-linecap: round; stroke-linejoin: round; "></path>      <path d="M1267.96,2589.73c-6.68,0-12.43-3.99-13.67-9.5-.63-2.8-.07-5.69,1.59-8.14,2.1-3.1,5.74-5.18,9.97-5.72,3.76-.48,92.81-11.68,157.86-11.68,6.11,0,11.74-.15,17.18-.29,4.65-.12,9.05-.24,13.13-.24,6.77,0,11.66,.32,15.84,1.04,4.2,.72,7.7,2.96,9.61,6.16,1.53,2.57,1.9,5.52,1.05,8.33-1.57,5.16-7.12,8.76-13.48,8.76-.95,0-1.91-.08-2.84-.24-2.93-.5-6.47-.73-11.16-.73-3.68,0-7.77,.14-12.1,.29-5.07,.18-10.83,.38-16.93,.38-63.48,0-153.03,11.33-153.93,11.44-.72,.09-1.43,.13-2.13,.13Z" style="stroke-linecap: round; stroke-linejoin: round;"></path>     </g>     <path d="M1135.16,2445.12s-33.93,14.58-24.24,38.87c-1.62,8.1-45.25,97.18-21.01,183.02,24.24,85.84,195.53,110.13,290.87,110.13s174.51-27.37,189.06-70.37c0,0,28.4,37.74,4.16,78.23-24.24,40.49-94,79-271,67-196.39-13.31-226.01-131.55-230.86-144.5s-8.08-66.4-4.85-80.98c3.23-14.58-9.7-50.21,3.23-82.6,12.93-32.39,19.39-45.35,22.62-64.78,3.23-19.44-9.7-55.07,0-59.93,9.7-4.86,25.85,4.86,25.85,4.86l16.16,21.05Z" style="opacity: .2;"></path>    </g>   </g>  </g> </g> <g id="Long-Nose" class="nose">  <defs>   <style>    .facial-hair {     clip-path: url(#nose-mask);    }   </style>   <clipPath id="nose-mask">    <path d="M-9.41-9.41V3006.11H3012.89V-9.41H-9.41ZM1879.67,1192.28c-20.91,27.66-49.33,34.51-72.34,34.51-3.44,0-6.75-.15-9.91-.41-39.74-3.27-77.78-25.25-87.06-42.94h0c-5.79-11.02-4.22-30.4,4.93-60.98,6.79-22.7,17.8-51.29,32.72-84.98,25.31-57.15,53.57-110.08,53.85-110.6l5.53-10.33,5.91,10.12c.29,.49,29.07,49.98,51.62,106.53,30.94,77.59,35.9,131.12,14.75,159.09Z" style="fill: #12ff33;"></path>   </clipPath>  </defs>  <path d="M1807.64,929.96s114.24,195.62,66.8,258.36c-47.44,62.74-151.51,20.58-158.28-7.94" style="fill: none; stroke: #000; stroke-miterlimit: 10; stroke-width: 13.11px;"></path>  <path d="M1725.48,1196.87s.85,80.76,74.54,82.11c58.97,1.09,82.91-63.52,81.32-91.62-1.69-29.86-142.31-28.5-155.86,9.5Z" style="opacity: .1;"></path>   </g> <g id="Pucker" class="mouth">  <g>   <path d="M1769.25,1361.12h35.07l2.79,0" style="fill: none;stroke: #000;stroke-linecap: round;stroke-linejoin: round;stroke-width: 13px"></path>   <path d="M1807.11,1361.14c2.21,0,4.76.06,7.53,0" style="fill: none;stroke: #000;stroke-linecap: round;stroke-linejoin: round;stroke-width: 13px"></path>   <path d="M1814.64,1361.14c17.6-.33,43.75-4,43.75-33.94,0-32.55-65.76-31.1-65.76-31.1l-74.53,1.41" style="fill: none;stroke: #000;stroke-linecap: round;stroke-linejoin: round;stroke-width: 13px"></path>   <path d="M1807.11,1361.14c2.21,0,4.76-.05,7.53,0" style="fill: none;stroke: #000;stroke-linecap: round;stroke-linejoin: round;stroke-width: 13px"></path>   <path d="M1814.64,1361.14c17.6.34,43.75,4,43.75,33.95,0,32.54-65.76,31.1-65.76,31.1l-74.53-1.41" style="fill: none;stroke: #000;stroke-linecap: round;stroke-linejoin: round;stroke-width: 13px"></path>   <path d="M1807.11,1361.14l-2.79,0h-35.07" style="fill: none;stroke: #000;stroke-linecap: round;stroke-linejoin: round;stroke-width: 13px"></path>  </g>  <path d="M1706.94,1426.63c-1.92-49.44,136.68-44.67,143.22-12.87,2.45,11.93-30.14,14.6-43.85,31.25C1792,1462.39,1712.26,1563.4,1706.94,1426.63Z" style="opacity: 0.2"></path>  <path d="M1736,1349.22c13-24.52,110.76-26.42,118.54-9.74S1841,1360,1824.16,1359,1721.88,1375.83,1736,1349.22Z" style="opacity: 0.2"></path> </g> <g id="Full-Beard-Brown" class="facial-hair">  <g class="facial-hair-inner">  <defs>   <style>    .facial-hair-color {     fill: #443318;    }    .hair-inner, .hat-inner {      clip-path: url(#hair-mask-facial-hair);    }    .under-head {       clip-path: url(#beard-mask);     }   </style>   <clipPath id="hair-mask-facial-hair">      <path d="M4.14-2.64V2985.78H2985.78V-2.64H4.14ZM2099.36,1397.83c-49.69,99.39-155.86,223.62-239.43,257.51-71.15,28.84-173.41,56.04-303.98,57.92v-237.92c29.35,13.62,72.99,16.61,137.79-5.22,0,0,85.84,13.55,140.05-9.04,0,0,92.61,40.66,98.62-101.36-.13-.18-.19-.28-.19-.28,30.79-74.43-88.99-74.39-118.36-78.91-20.82-3.2-25.74-22.29-26.84-33.14-4.49,17.17-16.09,31.01-40.92,35.4-91.11,12.53-150.95,30.51-190.14,51.05v-105.55c82.9-15.79,168.22-6.51,201.38-3.02l12.1-.23c47.44,4.52,70,0,70,0,171.18-3.73,191.51,58.85,176.57,102.97,39.89-8.26,71.77-9.75,106-94,0,0,27.05,64.44-22.64,163.83Z" style="fill: #06ff06;"></path>   </clipPath>   <clipPath id="beard-mask">     <path d="M1828.64,1288.69c-6.33-.61-11.8-1.13-15.78-1.74-12.45-1.91-21.87-9.08-27.34-20.35-8.11,11.95-20.93,19.52-38.31,22.58-.08,.01-.16,.03-.24,.04-135.06,18.57-214.83,50.66-243.72,98.08,1.84,14.57,9.95,53.94,44.59,76.19,33.15,21.3,81.54,21.45,143.82,.46,.99-.33,2.05-.43,3.09-.26,.84,.13,84.68,12.99,136.53-8.61,1.64-.68,3.48-.66,5.1,.04h0c.29,.13,29.33,12.41,53.59-2.79,21.62-13.55,33.68-44.35,35.88-91.56-.27-1.26-.15-2.6,.35-3.82,5.92-14.3,6.06-25.8,.43-35.16-15.14-25.18-69.03-30.33-97.98-33.1Z" style="fill: #06ff06;"></path>     <path d="M4.14-2.64V2985.78H2985.78V-2.64H4.14ZM2105.17,1400.74c-48.92,97.83-155.66,225.29-242.81,260.62-68.27,27.68-176.73,58.5-320.95,58.51-18.37,0-37.29-.5-56.81-1.57-168.03-9.21-275.37-40.22-382.85-110.61-102.78-67.31-192.26-128.13-246.44-190.93-50.99-59.1-114.85-142.98-115.48-143.82-2.15-2.83-1.63-6.86,1.17-9.05,1.15-.9,28.55-22.08,54.19-21.38,27.48,.79,53-13.48,75.87-42.37,17.46-22.05,26.54-44.49,26.63-44.72,.99-2.47,3.38-4.09,6.04-4.09h44.05c3.03,0,5.66,2.1,6.34,5.05,.08,.33,7.94,33.99,29.83,75.07,20.08,37.68,56.43,89.54,115.61,122.64,75.29,42.11,169.41,44.92,279.8,8.38,14.17-59.13,70.27-101.6,72.7-103.41,.18-.13,.36-.25,.55-.37,102.15-61.29,254.21-45.28,304.18-40.02l.84,.09,11.7-.23c.25,0,.5,0,.74,.03,45.63,4.35,67.9,.14,68.12,.09,.37-.07,.75-.11,1.12-.12,91.08-1.98,149.87,14.22,174.78,48.17,11.05,15.06,14.8,33.52,10.93,52.86,16.63-3.35,31.21-6.74,45.24-17.45,16.9-12.9,31.43-35.32,45.74-70.55,.99-2.44,3.35-4.04,5.98-4.05h.04c2.62,0,4.98,1.57,5.99,3.98,.3,.7,7.25,17.6,7.82,47.04,.52,26.76-4.38,69.69-30.64,122.22Z" style="fill: #06ff06;"></path>    </clipPath>  </defs>  <g>   <path class="facial-hair-color" d="M2122,1234c-34.23,84.25-66.11,85.74-106,94,14.94-44.12-5.39-106.69-176.57-102.97,0,0-22.56,4.52-70,0l-12.1,.23c-47.23-4.97-200.25-21.69-301.4,39,0,0-58.74,43.88-71.05,103.21-361.39,121.95-437.12-209.64-437.12-209.64h-44.05s-37.27,93.18-108.71,91.17c-23.59-.66-50,20-50,20,0,0,63.78,83.88,115.23,143.51,53.1,61.55,139.88,120.85,245.08,189.74,107.73,70.55,214.75,100.52,379.65,109.55,164.89,9.04,291.39-22.59,374.96-56.47,83.58-33.88,189.74-158.12,239.43-257.51,49.69-99.39,22.64-163.83,22.64-163.83Zm-288.22,227.08c-54.21,22.59-140.05,9.04-140.05,9.04-169.6,57.15-194.23-55.75-197.19-84.25,23.54-40.77,86.47-80.67,249.54-103.09,24.84-4.38,36.44-18.22,40.92-35.4,1.1,10.84,6.02,29.93,26.84,33.14,29.36,4.52,149.15,4.48,118.36,78.91,0,0,.07,.1,.19,.28-6.01,142.02-98.62,101.36-98.62,101.36Z" style="stroke: #000; stroke-linecap: round; stroke-linejoin: round; stroke-width: 13px;"></path>  </g>  <g class="facial-hair-shade">   <path d="M1628.79,1620.32c-475.34,4.09-740.44-268.86-826.99-378.67-2,3.03-4.26,5.53-6.81,7.35-19.2,13.72-50,20-50,20,0,0,63.78,83.88,115.23,143.51,53.1,61.55,139.88,120.85,245.08,189.74,107.73,70.55,214.75,100.52,379.65,109.55,164.89,9.04,291.39-22.59,374.96-56.47,71.68-29.06,159.97-124.58,215.01-213.89-99.4,100.11-242.1,177.12-446.14,178.88Z" style="opacity: .1;"></path>   <path d="M1515.29,1456s-62.81-37.58-25.41-103.34c49.13-86.4,206.68-101.65,277.83-101.65s167.72,8.47,196.52,83.01c28.8,74.54-28.8,94.87-28.8,94.87,0,0,18.64-133.84-164.33-128.75-182.96,5.08-259.2,86.4-255.81,155.86Z" style="opacity: .1;"></path>  </g> </g></g>  <g id="Tall-spiked-Brown" class="hair">  <defs>   <style>    .hair-color {     fill: #443318;     }   </style>   <linearGradient id="hair-linear-gradient" x1="921.03" y1="811.42" x2="1069.53" y2="1010.32" gradientUnits="userSpaceOnUse">    <stop offset="0" stop-color="#443318" stop-opacity=".5"></stop>    <stop offset="1" stop-color="#443318" stop-opacity="0"></stop>   </linearGradient>  </defs>  <path class="hair-color" d="M2030.3,276.89s-83.01,16.94-110.12,37.27l55.91-113.51-72.85,37.27v-59.29l-52.52,28.8-16.94-62.68-49.13,45.74-25.41-57.6-49.13,45.74s-20.33-45.74-23.72-50.82c-3.39-5.08-42.35,50.82-42.35,50.82l-33.88-49.13-42.35,50.82-38.96-49.13-40.66,44.05-33.88-38.96-38.96,42.35-37.27-38.96-37.27,45.74-42.35-50.82-33.88,60.99-33.88-54.21-28.8,67.76-50.82-55.91-28.8,64.38-49.13-49.13-27.11,67.76-52.52-49.13-20.33,64.38-45.74-42.35-6.78,77.93s-16.94-20.33-23.72-25.41c-6.78-5.08,5.08,49.13,6.78,54.21,1.69,5.08-27.11-16.94-35.58-20.33-8.47-3.39,15.25,50.82,15.25,50.82l-47.44,5.08,49.13,32.19-44.05,13.55,37.27,15.25-30.49,11.86,18.64,8.47-13.55,23.72-1.69,332.05s0,0,0,0c0,1.11,0,1.7,0,1.7l369.32-3.39s-76.77-117.2,77.93-98.26c249.03,30.49,611.58,16.94,611.58,16.94,0,0,10.16-113.51,59.29-167.72,0,0-27.11,10.16-50.82,33.88,0,0,67.08-198.56,83.01-150.78-6.78-20.33-44.05-20.33-69.46,8.47,0,0-16.94-77.93,98.26-152.47Z" style="stroke: #000; stroke-linecap: round; stroke-linejoin: round; stroke-width: 13px;"></path>  <path d="M865.62,793.78s-99.61,113.54-113.01,202.64c11.46,2.47,66.25-1.95,151.98,66.25h70.15s95.48-214.33,239.66-268.89c-19.48,0-146.14-7.79-348.78,0Z" style="fill: url(#hair-linear-gradient);"></path>  <path d="M2001.5,420.89c-.93-2.8-2.04-4.74-3.3-5.94,1.42,1.73,2.56,3.7,3.3,5.94Z" style="opacity: .2;"></path>  <path d="M1932.04,429.36s-16.94-77.93,98.26-152.47c0,0-83.01,16.94-110.12,37.27l20.46-41.55-11.16-2.98-35.07,50.66-29.23-54.56-44.82,44.81-17.54-50.66-50.66,44.82-29.23-50.66-46.76,42.87s-29.23-46.76-35.07-52.61c-5.85-5.85-42.87,48.71-42.87,48.71l-44.81-46.76s-38.97,38.97-42.87,44.82c-3.9,5.85-46.76-46.76-46.76-46.76l-44.81,46.76-29.23-40.92-40.92,42.87-37.02-37.02-29.23,40.92-48.71-25.33-3.9,52.61-38.97-15.59,33.12,385.8,15.68-8.49c-.03,1.34-.05,2.41-.06,3.17,14.27-3.08,33.38-3.62,58.69-.53,249.03,30.49,611.58,16.94,611.58,16.94,0,0,10.16-113.51,59.29-167.72,0,0-27.11,10.16-50.82,33.88,0,0,59.46-175.99,79.71-156.71-11.54-14.03-43.54-11.23-66.16,14.41Z" style="opacity: .2;"></path> </g> <g id="Full-Lids" class="eyes">  <g class="eyes-inner">    <defs>    <style>      @keyframes blink-shut {       0% { opacity: 0; }       50% { opacity: 0; }       51% { opacity: 1; }       60% { opacity: 1; }       61% { opacity: 0; }       100% { opacity: 0; }      }      @keyframes blink-open {       0% { opacity: 1; }       50% { opacity: 1; }       51% { opacity: 0; }       60% { opacity: 0; }       61% { opacity: 1; }       100% { opacity: 1; }      }      .eyes-blink {       animation-duration: 2s;       animation-name: blink-shut;       animation-fill-mode: forwards;       animation-iteration-count: infinite;      }      .eye-open,      .eyes-pupils {       animation-duration: 2s;       animation-name: blink-open;       animation-fill-mode: forwards;       animation-iteration-count: infinite;      }    </style>   </defs>   <g>    <g class="eye-open">     <g>      <path d="M1606.07,1004.85c2.24,11.72,3.24,23.9,3.02,36.56-.84,48.5-19.41,89.6-55.71,123.3-36.29,33.7-79.7,50.15-130.21,49.34-50.52-.81-93.32-18.64-128.42-53.49-32.54-32.3-49.63-70.48-51.29-114.51-.13-3.47-.16-6.97-.1-10.51,.04-2.18,.11-4.35,.22-6.5,.75-14.51,3.11-28.35,7.13-41.5,2.26-7.41,5.05-14.61,8.34-21.59,49.63-24.75,105.3-37.51,160.85-41.45,50.4-3.57,100.95-.15,151.11,6.52,14.45,17.53,24.8,36.63,31.02,57.3,1.63,5.4,2.98,10.91,4.04,16.53Z" style="fill: #fff;"></path>      <g>       <path d="M1259.05,965.95c-3.29,6.98-6.08,14.18-8.34,21.59-4.02,13.15-6.38,26.99-7.13,41.5-.11,2.15-.18,4.32-.22,6.5-.06,3.54-.03,7.04,.1,10.51,1.66,44.03,18.75,82.21,51.29,114.51,35.1,34.85,77.9,52.68,128.42,53.49,50.51,.81,93.92-15.64,130.21-49.34,36.3-33.7,54.87-74.8,55.71-123.3,.22-12.66-.78-24.84-3.02-36.56-1.06-5.62-2.41-11.13-4.04-16.53-6.22-20.67-16.57-39.77-31.02-57.3" style="fill: none; stroke: #000; stroke-linecap: round; stroke-linejoin: round; stroke-width: 13px;"></path>       <path d="M1599.4,895.1c14,12.1,25.1,27.5,31.4,45.2-19.84-3.45-39.78-6.62-59.79-9.28" style="fill: none; stroke: #000; stroke-linecap: round; stroke-linejoin: round; stroke-width: 13px;"></path>       <path d="M1259.05,965.95c-13.36,6.67-26.29,14.19-38.65,22.65" style="fill: none; stroke: #000; stroke-linecap: round; stroke-linejoin: round; stroke-width: 13px;"></path>       <path d="M1259.05,965.95c49.63-24.75,105.3-37.51,160.85-41.45,50.4-3.57,100.95-.15,151.11,6.52" style="fill: none; stroke: #000; stroke-linecap: round; stroke-linejoin: round; stroke-width: 13px;"></path>      </g>     </g>    </g>    <g class="eye-open">     <g>      <path d="M2170.6,1019.84c.43,6.1,.59,12.34,.48,18.7-.75,44.08-13.93,81.49-39.56,112.23-25.63,30.72-56.19,45.8-91.7,45.21-35.52-.58-65.56-16.64-90.12-48.21-24.57-31.57-36.48-69.39-35.73-113.47,.09-5.23,.35-10.37,.79-15.42,1.26-14.39,3.94-28.01,8.05-40.86,3.97-12.44,9.29-24.16,15.94-35.17,77.03-9.71,151.19-3.74,217.78,17.78,1.83,4.2,3.49,8.48,4.97,12.84,4.49,13.16,7.4,27.1,8.73,41.81,.14,1.51,.27,3.03,.37,4.56Z" style="fill: #fff;"></path>      <g>       <path d="M1938.75,942.85c-6.65,11.01-11.97,22.73-15.94,35.17-4.11,12.85-6.79,26.47-8.05,40.86-.44,5.05-.7,10.19-.79,15.42-.75,44.08,11.16,81.9,35.73,113.47,24.56,31.57,54.6,47.63,90.12,48.21,35.51,.59,66.07-14.49,91.7-45.21,25.63-30.74,38.81-68.15,39.56-112.23,.11-6.36-.05-12.6-.48-18.7-.1-1.53-.23-3.05-.37-4.56-1.33-14.71-4.24-28.65-8.73-41.81-1.48-4.36-3.14-8.64-4.97-12.84" style="fill: none; stroke: #000; stroke-linecap: round; stroke-linejoin: round; stroke-width: 13px;"></path>       <path d="M1938.75,942.85c77.03-9.71,151.19-3.74,217.78,17.78" style="fill: none; stroke: #000; stroke-linecap: round; stroke-linejoin: round; stroke-width: 13px;"></path>       <path d="M1921.3,912.9c-14,19.3-15.3,26-17.1,34.7,12-1.77,23.48-3.36,34.55-4.75" style="fill: none; stroke: #000; stroke-linecap: round; stroke-linejoin: round; stroke-width: 13px;"></path>      </g>     </g>    </g>    <g class="eyes-pupils">     <ellipse class="eye-pupil" cx="1504.57" cy="1053.32" rx="25.61" ry="26.68"></ellipse>     <ellipse class="eye-pupil" cx="2080.94" cy="1050.65" rx="22.66" ry="23.6"></ellipse>    </g>    <path d="M1518.13,1194c-12.75,2.86-26.01,4.38-39.62,4.38-99.46,0-180.08-80.63-180.08-180.08,0-27.36,6.11-53.29,17.03-76.51-38.12,10.85-69.55,27.56-90.97,41.13-9.47,21.89-14.71,46.03-14.71,71.4,0,99.46,80.63,180.08,180.08,180.08,32.57,0,63.13-8.65,89.49-23.78-.46,.1-.92,.19-1.37,.29,14.17-4.03,27.64-9.73,40.16-16.91Z" style="opacity: .2;"></path>    <path d="M2080.95,1177.93c-74.56,0-135-72.08-135-161,0-27.32,5.72-53.05,15.79-75.59-15.53,1.18-30.69,2.72-44.24,4.28-19.77,27.38-31.72,62.94-31.72,101.82,0,86.53,59.13,156.67,132.07,156.67,18.96,0,36.99-4.76,53.29-13.29,12.61-3.29,24.56-8.67,35.57-15.83-8.34,1.92-16.95,2.94-25.76,2.94Z" style="opacity: .2;"></path>   </g>   <g class="eyes-blink">    <g class="eye-blink">     <path d="M1245.93,1073.13s249.03-35.58,362.54-16.94" style="fill: none; stroke: #000; stroke-linecap: round; stroke-linejoin: round; stroke-width: 13px;"></path>     <path d="M1259.05,965.95c-3.29,6.98-6.08,14.18-8.34,21.59-4.02,13.15-6.38,26.99-7.13,41.5-.11,2.15-.18,4.32-.22,6.5-.06,3.54-.03,7.04,.1,10.51,1.66,44.03,18.75,82.21,51.29,114.51,35.1,34.85,77.9,52.68,128.42,53.49,50.51,.81,93.92-15.64,130.21-49.34,36.3-33.7,54.87-74.8,55.71-123.3,.22-12.66-.78-24.84-3.02-36.56-1.06-5.62-2.41-11.13-4.04-16.53-6.22-20.67-16.57-39.77-31.02-57.3" style="fill: none; stroke: #000; stroke-linecap: round; stroke-linejoin: round; stroke-width: 13px;"></path>    </g>    <g class="eye-blink">     <path d="M1915.71,1049.41s159.25-16.94,254.12,18.64" style="fill: none; stroke: #000; stroke-linecap: round; stroke-linejoin: round; stroke-width: 13px;"></path>     <path d="M1938.75,942.85c-6.65,11.01-11.97,22.73-15.94,35.17-4.11,12.85-6.79,26.47-8.05,40.86-.44,5.05-.7,10.19-.79,15.42-.75,44.08,11.16,81.9,35.73,113.47,24.56,31.57,54.6,47.63,90.12,48.21,35.51,.59,66.07-14.49,91.7-45.21,25.63-30.74,38.81-68.15,39.56-112.23,.11-6.36-.05-12.6-.48-18.7-.1-1.53-.23-3.05-.37-4.56-1.33-14.71-4.24-28.65-8.73-41.81-1.48-4.36-3.14-8.64-4.97-12.84" style="fill: none; stroke: #000; stroke-linecap: round; stroke-linejoin: round; stroke-width: 13px;"></path>    </g>   </g>  </g> </g></svg>