<svg xmlns="http://www.w3.org/2000/svg" xmlns:xlink="http://www.w3.org/1999/xlink" viewBox="0 0 3000 3400" width="100%" height="100%">
    <g id="base">
        <defs>
            <style>
                #base {
                    transform: scale(5) translateY(-105px);
                }
            </style>
        </defs>
    <g>
      <g style="opacity: .2;">
        <g id="platform-shadow">
          <g id="Layer90_0_FILL" data-name="Layer90 0 FILL">
            <path d="m425.54,763.15c30.6-6.49,45.9-14.32,45.9-23.51s-15.3-17.03-45.9-23.52-67.54-9.74-110.82-9.74-80.22,3.25-110.82,9.74-45.9,14.33-45.9,23.52,15.3,17.02,45.9,23.51c30.6,6.5,67.54,9.75,110.82,9.75s80.22-3.25,110.82-9.75Z"/>
          </g>
        </g>
      </g>
      <g id="platform">
        <g id="platform-glow">
          <g id="Layer96_0_FILL" data-name="Layer96 0 FILL">
            <path d="m482.79,659.92c2.3-2.11,3.45-4.25,3.45-6.43,0-4.33-4.45-8.47-13.36-12.43-8.6-3.82-20.73-7.2-36.41-10.15-15.68-2.95-33.68-5.24-54.01-6.85-21.04-1.68-43.09-2.52-66.14-2.52s-45.09.84-66.14,2.52c-20.33,1.61-38.33,3.9-54,6.85-15.68,2.94-27.82,6.33-36.41,10.15-8.9,3.96-13.35,8.1-13.35,12.43,0,2.18,1.15,4.33,3.44,6.43,3.92,3.6,10.96,6.98,21.13,10.13,9.98,3.09,22.39,5.79,37.24,8.09,14.97,2.33,31.52,4.11,49.67,5.37,18.77,1.29,38.24,1.94,58.43,1.94s39.65-.65,58.43-1.94c18.14-1.25,34.7-3.04,49.67-5.37,14.85-2.3,27.25-5,37.23-8.09,10.18-3.15,17.22-6.53,21.14-10.13Z" style="fill: #dcfe60;"/>
          </g>
        </g>
        <g>
          <g id="Layer93_0_FILL" data-name="Layer93 0 FILL">
            <path d="m146.42,653.8c0,.1.01.19.02.29-.01-.13-.02-.26-.02-.39v.1m338.52,3.66c-.54.82-1.26,1.64-2.15,2.45-3.92,3.6-10.96,6.98-21.14,10.13-9.98,3.09-22.38,5.79-37.23,8.09-14.97,2.33-31.53,4.11-49.67,5.37-18.77,1.29-38.25,1.94-58.43,1.94s-39.66-.65-58.43-1.94c-18.15-1.25-34.7-3.04-49.67-5.37-14.85-2.3-27.26-5-37.24-8.09-10.17-3.15-17.22-6.53-21.13-10.13-2.09-1.92-3.23-3.86-3.42-5.83-.01-.1-.02-.19-.02-.29v16.22c0,4.34,4.45,8.48,13.35,12.44,8.6,3.82,20.73,7.21,36.41,10.16,15.68,2.95,33.68,5.23,54,6.85,21.04,1.67,43.09,2.51,66.14,2.51s45.09-.84,66.14-2.51c20.33-1.62,38.33-3.9,54.01-6.85,15.68-2.94,27.81-6.33,36.41-10.16,8.9-3.96,13.36-8.1,13.36-12.44v-16.33s0,.03,0,.04c0,.06,0,.13,0,.19-.09,1.19-.51,2.37-1.29,3.54h0Z" style="fill: #41414b;"/>
          </g>
          <path id="Layer93_0_1_STROKES" data-name="Layer93 0 1 STROKES" d="m146.44,654.09c.19,1.97,1.33,3.91,3.42,5.83,3.92,3.6,10.96,6.98,21.13,10.13,9.98,3.09,22.39,5.79,37.24,8.09,14.97,2.33,31.52,4.11,49.67,5.37,18.77,1.29,38.24,1.94,58.43,1.94s39.65-.65,58.43-1.94c18.14-1.25,34.7-3.04,49.67-5.37,14.85-2.3,27.25-5,37.23-8.09,10.18-3.15,17.22-6.53,21.14-10.13.89-.81,1.61-1.63,2.15-2.45.77-1.17,1.2-2.35,1.29-3.54,0-.06,0-.13.01-.19,0-.03,0-.06,0-.1v-.16c0-4.33-4.45-8.47-13.36-12.43-8.6-3.82-20.73-7.2-36.41-10.15-15.68-2.95-33.68-5.24-54.01-6.85-21.04-1.68-43.09-2.52-66.14-2.52s-45.09.84-66.14,2.52c-20.33,1.61-38.33,3.9-54,6.85-15.68,2.94-27.82,6.33-36.41,10.15-8.9,3.96-13.35,8.1-13.35,12.43,0,.11,0,.21,0,.32,0,.1.01.19.02.29h0Zm-.02-.29v16.22c0,4.34,4.45,8.48,13.35,12.44,8.6,3.82,20.73,7.21,36.41,10.16,15.68,2.95,33.68,5.23,54,6.85,21.04,1.67,43.09,2.51,66.14,2.51s45.09-.84,66.14-2.51c20.33-1.62,38.33-3.9,54.01-6.85,15.68-2.94,27.81-6.33,36.41-10.16,8.9-3.96,13.36-8.1,13.36-12.44v-16.38" style="fill: none; stroke: #000; stroke-miterlimit: 2.04; stroke-width: 2.08px;"/>
        </g>
        <g id="Layer92_0_FILL" data-name="Layer92 0 FILL">
          <path d="m478.15,652.43c0-3.71-4.24-7.26-12.71-10.65-8.19-3.28-19.75-6.18-34.68-8.71-14.93-2.53-32.08-4.48-51.44-5.87-20.05-1.43-41.04-2.15-62.99-2.15s-42.95.72-62.99,2.15c-19.36,1.39-36.51,3.35-51.44,5.87-14.93,2.53-26.5,5.43-34.68,8.71-8.48,3.39-12.72,6.94-12.72,10.65,0,1.87,1.09,3.71,3.28,5.52,3.73,3.09,10.44,5.99,20.13,8.69,9.51,2.65,21.33,4.96,35.47,6.93,14.25,1.99,30.01,3.52,47.3,4.59,17.88,1.11,36.44,1.66,55.66,1.66s37.77-.55,55.66-1.66c17.28-1.07,33.04-2.6,47.3-4.59,14.14-1.97,25.96-4.28,35.47-6.93,9.69-2.7,16.4-5.59,20.13-8.69,2.18-1.81,3.27-3.65,3.27-5.52h0Z" style="fill: #666d89;"/>
        </g>
        <path id="Layer91_0_1_STROKES" data-name="Layer91 0 1 STROKES" d="m478.15,652.43c0,1.87-1.09,3.71-3.27,5.52-3.73,3.09-10.44,5.99-20.13,8.69-9.51,2.65-21.33,4.96-35.47,6.93-14.25,1.99-30.02,3.52-47.3,4.59-17.88,1.11-36.44,1.66-55.66,1.66s-37.77-.55-55.66-1.66c-17.28-1.07-33.05-2.6-47.3-4.59-14.14-1.97-25.96-4.28-35.47-6.93-9.69-2.7-16.4-5.59-20.13-8.69-2.19-1.81-3.28-3.65-3.28-5.52,0-3.71,4.24-7.26,12.72-10.65,8.19-3.28,19.75-6.18,34.68-8.71,14.93-2.52,32.08-4.48,51.44-5.87,20.05-1.43,41.04-2.15,62.99-2.15s42.95.72,62.99,2.15c19.36,1.38,36.51,3.34,51.44,5.87,14.93,2.53,26.49,5.43,34.68,8.71,8.47,3.39,12.71,6.94,12.71,10.65Z" style="fill: none; stroke: #000; stroke-miterlimit: 2.04; stroke-width: 2.08px;"/>
      </g>
    </g>
  </g>
    <path
        d="M2140.31,2662.44c-.83,12.95-3.93,22-4.18,22.72l-.27,.66c-11.07,22.98-29.4,26.99-41.53,29.64-2.73,.6-5.33,1.17-7.19,1.84-12.33,16.36-30.09,24.66-51.48,23.94-8.61-.28-16.2-1.98-21.5-3.55-3.96,13.93-16.47,26.22-36.13,35.23-22.43,10.28-52.58,15.65-87.57,15.65-2.51,0-5.05-.03-7.61-.08-57.68-1.25-106.98-30.51-150.47-56.33-27.04-16.05-52.58-31.21-75.92-36.85-18.72-4.53-34.37-6.65-48.17-8.52-8.86-1.2-16.96-2.3-24.57-3.86,10.57,30.14,9.44,64.79-3.6,91.5-12.16,24.92-33.48,41.31-61.66,47.38-58.57,12.62-92.41-1.11-105.54-8.65-5.99,7.95-20.07,20.1-51.61,24.44-4.01,.55-8.02,.81-11.98,.81-32.83,0-63.03-17.35-75.05-25.22-.75,.79-1.55,1.54-2.41,2.27l-2.5-2.97h-.01s2.5,2.98,2.5,2.98c-9.56,8.01-26.47,11.8-52.91,11.8-2.25,0-4.57-.03-6.96-.08h-.19c-50.38-2.64-74.65-24.98-86.14-43.26-9.4-14.96-11.94-29.54-12.62-36.23-26.78-16.71-42.25-45.99-46-87.08-1.44-15.74-1.08-31.82,.11-47.17-94.42,28.81-151.45,66.2-151.45,107.06,0,91.07,283.17,164.89,632.47,164.89s632.47-73.83,632.47-164.89c0-20.43-14.27-40-40.33-58.06Z"
        style="opacity: 0.2;"
    ></path>
    <path
        d="M2140.31,2662.44c-.83,12.95-3.93,22-4.18,22.72l-.27,.66c-11.07,22.98-29.4,26.99-41.53,29.64-2.73,.6-5.33,1.17-7.19,1.84-12.33,16.36-30.09,24.66-51.48,23.94-8.61-.28-16.2-1.98-21.5-3.55-3.96,13.93-16.47,26.22-36.13,35.23-22.43,10.28-52.58,15.65-87.57,15.65-2.51,0-5.05-.03-7.61-.08-57.68-1.25-106.98-30.51-150.47-56.33-27.04-16.05-52.58-31.21-75.92-36.85-18.72-4.53-34.37-6.65-48.17-8.52-8.86-1.2-16.96-2.3-24.57-3.86,10.57,30.14,9.44,64.79-3.6,91.5-12.16,24.92-33.48,41.31-61.66,47.38-58.57,12.62-92.41-1.11-105.54-8.65-5.99,7.95-20.07,20.1-51.61,24.44-4.01,.55-8.02,.81-11.98,.81-32.83,0-63.03-17.35-75.05-25.22-.75,.79-1.55,1.54-2.41,2.27l-2.5-2.97h-.01s2.5,2.98,2.5,2.98c-9.56,8.01-26.47,11.8-52.91,11.8-2.25,0-4.57-.03-6.96-.08h-.19c-50.38-2.64-74.65-24.98-86.14-43.26-9.4-14.96-11.94-29.54-12.62-36.23-26.78-16.71-42.25-45.99-46-87.08-1.44-15.74-1.08-31.82,.11-47.17-94.42,28.81-151.45,66.2-151.45,107.06,0,91.07,283.17,164.89,632.47,164.89s632.47-73.83,632.47-164.89c0-20.43-14.27-40-40.33-58.06Z"
        style="opacity: 0.2;"
    ></path>
    <g id="White" class="body">
        <defs>
            <style>
                .skin-color {
                    fill: #efd3ca;
                }
            </style>
            <linearGradient id="body-linear-gradient" x1="674.59" y1="1135.33" x2="792" y2="1135.33" gradientUnits="userSpaceOnUse">
                <stop offset="0" stop-color="#000" stop-opacity="0"></stop>
                <stop offset=".02" stop-color="#000" stop-opacity=".04"></stop>
                <stop offset="1" stop-color="#000"></stop>
            </linearGradient>
            <linearGradient id="body-linear-gradient-2" x1="747" y1="806.16" x2="1137.5" y2="806.16" gradientUnits="userSpaceOnUse">
                <stop offset="0" stop-color="#000" stop-opacity="0"></stop>
                <stop offset=".1" stop-color="#000" stop-opacity=".24"></stop>
                <stop offset="1" stop-color="#000"></stop>
            </linearGradient>
            <linearGradient id="body-linear-gradient-3" x1="749" y1="1462.04" x2="1887.99" y2="1462.04" xlink:href="#body-linear-gradient-2"></linearGradient>
            <linearGradient id="body-linear-gradient-4" x1="2535.16" y1="1528.07" x2="2535.16" y2="1593.23" gradientUnits="userSpaceOnUse">
                <stop offset="0" stop-color="#000" stop-opacity="0"></stop>
                <stop offset="1" stop-color="#000"></stop>
            </linearGradient>
            <linearGradient id="body-linear-gradient-5" x1="2511.44" y1="1649.5" x2="2511.44" y2="1693.21" gradientUnits="userSpaceOnUse">
                <stop offset="0" stop-color="#000" stop-opacity="0"></stop>
                <stop offset=".98" stop-color="#000"></stop>
            </linearGradient>
            <linearGradient id="body-linear-gradient-6" x1="2479.07" y1="1751.37" x2="2479.07" y2="1784.92" gradientUnits="userSpaceOnUse">
                <stop offset="0" stop-color="#000" stop-opacity="0"></stop>
                <stop offset=".65" stop-color="#000"></stop>
            </linearGradient>
            <linearGradient id="body-linear-gradient-7" x1="792.76" y1="2386.35" x2="792.78" y2="2492.64" gradientUnits="userSpaceOnUse">
                <stop offset=".07" stop-color="#000" stop-opacity="0"></stop>
                <stop offset="1" stop-color="#000"></stop>
            </linearGradient>
            <linearGradient id="body-linear-gradient-8" x1="979.6" y1="2066.19" x2="859.13" y2="1904.81" gradientUnits="userSpaceOnUse">
                <stop offset="0" stop-color="#000"></stop>
                <stop offset=".12" stop-color="#000" stop-opacity=".72"></stop>
                <stop offset="1" stop-color="#000" stop-opacity="0"></stop>
            </linearGradient>
            <linearGradient id="body-linear-gradient-9" x1="1206.12" y1="2483.09" x2="1513.72" y2="2071.87" gradientUnits="userSpaceOnUse">
                <stop offset=".19" stop-color="#000"></stop>
                <stop offset=".77" stop-color="#000" stop-opacity="0"></stop>
            </linearGradient>
            <linearGradient id="body-linear-gradient-10" x1="1776.9" y1="2464.07" x2="1751.37" y2="2092.81" gradientUnits="userSpaceOnUse">
                <stop offset="0" stop-color="#000"></stop>
                <stop offset="1" stop-color="#000" stop-opacity="0"></stop>
            </linearGradient>
            <linearGradient id="body-linear-gradient-11" x1="1904.93" y1="1808.86" x2="1904.98" y2="1807.9" xlink:href="#body-linear-gradient-9"></linearGradient>
            <linearGradient id="body-linear-gradient-12" x1="2156.4" y1="2031.09" x2="2171.09" y2="1743.3" xlink:href="#body-linear-gradient-9"></linearGradient>
            <linearGradient id="body-linear-gradient-13" x1="1523.71" y1="1848.72" x2="1522.19" y2="1703.37" gradientUnits="userSpaceOnUse">
                <stop offset=".58" stop-color="#000" stop-opacity="0"></stop>
                <stop offset="1" stop-color="#000"></stop>
            </linearGradient>
        </defs>
        <g id="body-body">
            <g>
                <path
                    class="skin-color"
                    d="M2412,1481s29-113-32-151-92,5-83,32c9.8,29.41,13,59-7,90-68,74-38,163-38,163,0,0-55.5,121.5-135.5,105.5-74.31-14.86-184.5-144.5-306.47-156.99-123.61,47.19-550.22,13.15-689.34-21.96-.06-.02-.13-.03-.19-.05l-.1-1.96h-.05c-53.59,4.31-337.41,57.15-479.35,367.46-125.5,274.37-35,580,166.07,607.65,0,0,64.68,34.89,114.93-10.65,21.91-19.86,32.58-42.16,30-58,.32-.56,.23,.1,.5-.5,0,0-9.36-58.41-84.5-32.5h1s-.37-2-1,0c-10.99-17.56-31.42-52.58-25.89-87.43,0,0,42.17,79.44,93.91,46.04,51.75-33.41,19.33-132.9-71.38-191.4-30.35-18.2-13.49-65.7,12.04-107.85,27.01-44.6,106.46-118.69,176.82-151.86h2c21.66,31.8,37,86,50.5,234.5,0,0,18.34,176.9,15,247-3.34,70.1-33.34,108.51-41.13,159.71-7.79,51.2-25.46,149.65,38.42,186.14,0,0,.71,72.01,92.85,76.83,32.82,.75,48.04-3.91,55.55-10.2,2.34-1.97,3.94-4.08,5.08-6.25,0,0,43.79,32.98,87.66,26.93,43.87-6.04,50.37-27.2,50.37-27.2,0,0,32.46,27.4,106.3,11.49,69.4-14.95,79.4-92.95,55.64-142.06,21.53,6.98,47.16,6.39,85.26,15.61,62,15,133,91,225,93,79.21,1.72,125-24,126-53,0,0,47,21,74-17,10-5,34-2,47-29,0,0,27.13-77.01-60-104-113-35-127-85-183-147-19.24-21.3-21.8-66.89-18.61-114.19,2.06-30.51,6.51-61.75,10.43-87.64,4.5-25.47,9.11-50.21,13.18-73.17,12.92-72.91,18.05-116.03,22.81-156.03l-.55-.07c1.23-10.57,1.7-21.99,1.73-33.01,.02-6.69-.13-13.24-.37-19.35l.88-.04c363.26,224.21,521.5-145.5,521.5-145.5,176,34,120-70,120-70,86-38,20-102,20-102,20-4,45-14,50-66,5-100-215-88-215-88Zm-872.92,890.86c-.27,4.49-.59,9.03-.97,13.6-1.56,18.7-4.13,37.88-8.11,56.54-4.86,22.76-10.52,42.98-15.29,61.68-6.18,24.2-10.86,45.87-10.41,67.26-4.5-7.73-9.51-15.75-15.3-23.94-15.11-21.36-65.79-121.49-4-300,24.33-63.57,43.12-21.19,50.07-.02l-.07,.02s8.07,57.65,4.08,124.86Z"
                ></path>
                <g>
                    <line x1="2442.42" y1="1606.12" x2="2443.8" y2="1605" style="fill: none; stroke: #000; stroke-linecap: round; stroke-linejoin: round; stroke-width: 13px;"></line>
                    <line x1="2431.12" y1="1705.51" x2="2431.64" y2="1704.61" style="fill: none; stroke: #000; stroke-linecap: round; stroke-linejoin: round; stroke-width: 13px;"></line>
                    <path d="M2438,1803c176,34,120-70,120-70" style="fill: none; stroke: #000; stroke-linecap: round; stroke-linejoin: round; stroke-width: 13px;"></path>
                    <path d="M2578,1631s66,64-20,102" style="fill: none; stroke: #000; stroke-linecap: round; stroke-linejoin: round; stroke-width: 13px;"></path>
                    <path
                        d="M2578,1631c20-4,45-14,50-66,5-100-215-88-215-88,0,0,29-113-32-151s-92,5-83,32c9.8,29.41,13,59-7,90-68,74-33.5,169.5-33.5,169.5,0,0-60,115-140,99-74.31-14.86-184.5-144.5-306.47-156.99"
                        style="fill: none; stroke: #000; stroke-linecap: round; stroke-linejoin: round; stroke-width: 13px;"
                    ></path>
                    <path d="M1916.5,1948.5c363.26,224.21,521.5-145.5,521.5-145.5" style="fill: none; stroke: #000; stroke-linecap: round; stroke-linejoin: round; stroke-width: 13px;"></path>
                    <path
                        d="M1916,1991c-.16,1.31-.31,2.63-.47,3.94-.24,2-.48,4.01-.72,6.03-4.76,40-9.89,83.12-22.81,156.03-4.07,22.96-8.68,47.7-13.18,73.17"
                        style="fill: none; stroke: #000; stroke-linecap: round; stroke-linejoin: round; stroke-width: 13px;"
                    ></path>
                    <path d="M1914,2003c.09-.7,.18-1.4,.26-2.1,1.23-10.57,1.7-21.99,1.73-33.01" style="fill: none; stroke: #000; stroke-linecap: round; stroke-linejoin: round; stroke-width: 13px;"></path>
                    <path d="M1915.99,1967.89c.02-6.69-.13-13.24-.37-19.35" style="fill: none; stroke: #000; stroke-linecap: round; stroke-linejoin: round; stroke-width: 13px;"></path>
                    <path d="M1811.03,1559.51c-123.61,47.19-550.22,13.15-689.34-21.96-.06-.02-.13-.03-.19-.05" style="fill: none; stroke: #000; stroke-linecap: round; stroke-linejoin: round; stroke-width: 13px;"></path>
                    <path d="M2540,1527s-98-21-109,45c-2.34,14.05,2.98,24.8,12.8,33" style="fill: none; stroke: #000; stroke-linecap: round; stroke-linejoin: round; stroke-width: 13px;"></path>
                    <path d="M2578,1631s-97.88,4.34-134.2-26" style="fill: none; stroke: #000; stroke-linecap: round; stroke-linejoin: round; stroke-width: 13px;"></path>
                    <path d="M2442.42,1606.12s-41.42,6.88-43.42,49.88c-.88,18.85,10.93,35.59,32.64,48.61" style="fill: none; stroke: #000; stroke-linecap: round; stroke-linejoin: round; stroke-width: 13px;"></path>
                    <path d="M2431.64,1704.61c27.81,16.68,71.88,27.27,126.36,28.39" style="fill: none; stroke: #000; stroke-linecap: round; stroke-linejoin: round; stroke-width: 13px;"></path>
                    <path d="M2431.12,1705.51s-41.12,5.49-41.12,42.49,48,55,48,55" style="fill: none; stroke: #000; stroke-linecap: round; stroke-linejoin: round; stroke-width: 13px;"></path>
                    <path
                        d="M1131.38,1535.09c-.11,0-2.5,0-6.89,.24-.71,.04-1.47,.09-2.29,.15-.21,.02-.43,.03-.65,.05-.05,0-.1,.01-.15,.01h-.05c-53.59,4.31-337.41,57.15-479.35,367.46-125.5,274.37-31.5,585.5,166.07,607.65,0,0,62.4,28.98,115.93-12.65,54-42,32-116-55-88,0,0-33.36-41.33-25.89-88.43,0,0,42.17,79.44,93.91,46.04,51.75-33.41,19.33-132.9-71.38-191.4-30.35-18.2-13.49-65.7,12.04-107.85,27.01-44.6,106.46-118.69,176.82-151.86"
                        style="fill: none; stroke: #000; stroke-linecap: round; stroke-linejoin: round; stroke-width: 13px;"
                    ></path>
                    <path d="M2215.5,1675.5c-36.98,41.29-95.77,69.56-95.77,69.56" style="fill: none; stroke: #000; stroke-linecap: round; stroke-linejoin: round; stroke-width: 13px;"></path>
                    <path
                        d="M1505.3,2566.94c-.45-21.39,4.23-43.06,10.41-67.26,4.77-18.7,10.43-38.92,15.29-61.68,3.98-18.66,6.55-37.84,8.11-56.54,.38-4.57,.7-9.11,.97-13.6,3.99-67.21-4.08-124.86-4.08-124.86"
                        style="fill: none; stroke: #000; stroke-linecap: round; stroke-linejoin: round; stroke-width: 13px;"
                    ></path>
                    <path
                        d="M2083,2712c-27,38-74,17-74,17-1,29-46.79,54.72-126,53-92-2-163-78-225-93-38.1-9.22-63.73-8.63-85.26-15.61"
                        style="fill: none; stroke: #000; stroke-linecap: round; stroke-linejoin: round; stroke-width: 13px;"
                    ></path>
                    <path
                        d="M1878.82,2230.17c-3.92,25.89-8.37,57.13-10.43,87.64-3.19,47.3-.63,92.89,18.61,114.19,56,62,70,112,183,147,87.13,26.99,60,104,60,104-13,27-37,24-47,29"
                        style="fill: none; stroke: #000; stroke-linecap: round; stroke-linejoin: round; stroke-width: 13px;"
                    ></path>
                    <path d="M1486,2243c24.33-63.57,46.5-27.5,50.5,1.5" style="fill: none; stroke: #000; stroke-linecap: round; stroke-linejoin: round; stroke-width: 13px;"></path>
                    <path d="M1107,2151c-13.5-148.5-28.84-202.7-50.5-234.5" style="fill: none; stroke: #000; stroke-linecap: round; stroke-linejoin: round; stroke-width: 13px;"></path>
                    <path d="M1505.3,2566.94c-4.5-7.73-9.51-15.75-15.3-23.94-15.11-21.36-65.79-121.49-4-300" style="fill: none; stroke: #000; stroke-linecap: round; stroke-linejoin: round; stroke-width: 13px;"></path>
                    <path d="M1505.3,2566.94c17.79,30.64,27.36,56.81,44.14,71.56,.19,.18,.37,.34,.56,.5" style="fill: none; stroke: #000; stroke-linecap: round; stroke-linejoin: round; stroke-width: 13px;"></path>
                    <path
                        d="M1572.74,2673.39c23.76,49.11,13.76,127.11-55.64,142.06-73.84,15.91-106.3-11.49-106.3-11.49,0,0-6.5,21.16-50.37,27.2-43.87,6.05-87.66-26.93-87.66-26.93-1.14,2.17-2.74,4.28-5.08,6.25"
                        style="fill: none; stroke: #000; stroke-linecap: round; stroke-linejoin: round; stroke-width: 13px;"
                    ></path>
                    <path
                        d="M1107,2151s18.34,176.9,15,247-33.34,108.51-41.13,159.71c-7.79,51.2-25.46,149.65,38.42,186.14,0,0,.71,72.01,92.85,76.83,32.82,.75,48.04-3.91,55.55-10.2"
                        style="fill: none; stroke: #000; stroke-linecap: round; stroke-linejoin: round; stroke-width: 13px;"
                    ></path>
                    <path d="M1547,2637c.72,.6,1.43,1.22,2.13,1.85,10.47,9.42,18.3,21.35,23.61,34.54" style="fill: none; stroke: #000; stroke-linecap: round; stroke-linejoin: round; stroke-width: 13px;"></path>
                    <path d="M2010,2723c17-80-57-98-57-98-32-8-52-25-52-25" style="fill: none; stroke: #000; stroke-linecap: round; stroke-linejoin: round; stroke-width: 13px;"></path>
                    <path d="M2080.06,2634.52l.94,.48c-.32-.41-.64-.81-.97-1.21" style="fill: none; stroke: #000; stroke-linecap: round; stroke-linejoin: round; stroke-width: 13px;"></path>
                    <path d="M2018,2603s40.74,4.85,62.03,30.79" style="fill: none; stroke: #000; stroke-linecap: round; stroke-linejoin: round; stroke-width: 13px;"></path>
                    <path d="M2083,2712c19-49-3-79-3-79l.03,.79" style="fill: none; stroke: #000; stroke-linecap: round; stroke-linejoin: round; stroke-width: 13px;"></path>
                    <line x1="2080.06" y1="2634.52" x2="2080.03" y2="2633.79" style="fill: none; stroke: #000; stroke-linecap: round; stroke-linejoin: round; stroke-width: 13px;"></line>
                    <path d="M1410,2804c27-73-17-120-17-120" style="fill: none; stroke: #000; stroke-linecap: round; stroke-linejoin: round; stroke-width: 13px;"></path>
                    <path d="M1261,2711s21.18,49.78,6.69,99.48" style="fill: none; stroke: #000; stroke-linecap: round; stroke-linejoin: round; stroke-width: 13px;"></path>
                    <path d="M1267.69,2810.48c-.13,.45-.26,.91-.4,1.37" style="fill: none; stroke: #000; stroke-linecap: round; stroke-linejoin: round; stroke-width: 13px;"></path>
                </g>
            </g>
        </g>
        <g id="body-head">
            <g>
                <g>
                    <g>
                        <path
                            class="skin-color"
                            d="M2066.8,878.57c62.55,17.43,107.41,85.87,104.04,165.6-1.71,40.63-15.66,77.27-37.37,105.05,0,0-16.95,440.96-473.47,499.78-653.93,84.25-906.93-377.96-906.93-377.96-5.28,.51-10.66,.65-16.1,.42-69.53-2.94-123.31-66.37-120.12-141.7,3.11-73.79,59.76-131.6,127.44-131.15,71.43-260.79,366.32-451.8,710.66-442.47,271.99,7.37,502.65,137.81,611.85,322.43Z"
                        ></path>
                    </g>
                    <g>
                        <path
                            class="skin-color"
                            d="M744.29,998.61c71.43-260.79,366.32-451.8,710.66-442.47,271.99,7.37,502.65,137.81,611.85,322.43"
                            style="stroke: #000; stroke-linecap: round; stroke-linejoin: round; stroke-width: 14px;"
                        ></path>
                        <path
                            class="skin-color"
                            d="M744.29,998.61c-67.68-.45-124.33,57.36-127.44,131.15-3.19,75.33,50.59,138.76,120.12,141.7,5.44,.23,10.82,.09,16.1-.42,0,0,253,462.21,906.93,377.96,456.52-58.82,473.47-499.78,473.47-499.78"
                            style="stroke: #000; stroke-linecap: round; stroke-linejoin: round; stroke-width: 14px;"
                        ></path>
                        <path class="skin-color" d="M2133.47,1149.22c21.71-27.78,35.66-64.42,37.37-105.05,3.37-79.73-41.49-148.17-104.04-165.6" style="stroke: #000; stroke-linecap: round; stroke-linejoin: round; stroke-width: 14px;"></path>
                    </g>
                </g>
            </g>
            <g>
                <path d="M778.67,1065.1s-32.99,37.11-2.29,73.19" style="fill: none; stroke: #000; stroke-linecap: round; stroke-linejoin: round; stroke-width: 13.75px;"></path>
                <path d="M696.09,1078.64s-44.77,20.56-5.09,97.36c14.36,27.79,47,44,101,29-4.72-49.47-47-71-10.89-140.43-1.57,0-44.09-19.36-81.87,21.12" style="fill: url(#body-linear-gradient); opacity: 0.15;"></path>
                <path d="M826.77,1083.92c-88.17-65.11-140.13,10.56-140.13,10.56" style="fill: none; stroke: #000; stroke-linecap: round; stroke-linejoin: round; stroke-width: 13.75px;"></path>
            </g>
            <g>
                <path d="M822,1000c31-259,315.5-387.67,315.5-387.67-325.5,107.33-390.5,379.67-390.5,379.67,44-4,75,8,75,8Z" style="fill: url(#body-linear-gradient-2); opacity: 0.15;"></path>
                <path
                    d="M1887.99,1571.76c-773.01,191.76-1043.99-309.76-1043.99-309.76-45,3-95,3-95,3,322.07,451.04,739.18,394.85,739.18,394.85-4.51-1.09-8.98-2.19-13.43-3.31,257.03,6.56,413.24-84.79,413.24-84.79Z"
                    style="fill: url(#body-linear-gradient-3); opacity: 0.15;"
                ></path>
            </g>
        </g>
        <g class="body-shading">
            <path d="M2458.71,1612.31s-24.25-43.31,9.66-56.31c33.91-13,115.71,37,149.62-6,0,0,14.62,65.12-35.08,77.56-49.7,12.44-124.2-15.25-124.2-15.25Z" style="fill: url(#body-linear-gradient-4); opacity: 0.15;"></path>
            <path d="M2463.39,1651s-55.86-15-30.92,50c0,0,59.32,44.25,134.39,23.12,3.26-2.12,60.11-49.12,8.24-57.12-51.87-8-111.72-16-111.72-16Z" style="fill: url(#body-linear-gradient-5); opacity: 0.15;"></path>
            <path d="M2560.1,1766.48s-52.82,5.52-97.71-8.48c-44.89-14-78.3-5.86-58.6,24.57,19.7,30.43,101.7,26.31,114.06,22.87,12.36-3.44,43.2-11.49,42.25-38.96Z" style="fill: url(#body-linear-gradient-6); opacity: 0.15;"></path>
            <path
                d="M643.29,2345.92s26.64,89.29,121.38,80.13c94.74-9.16,57.85,17.04,109.75,35.95,25.5,9.29,39.87,7.28,67.83-13,0,0-36.91,86-121.6,33.98-12.96,2.02-104.82,31.46-177.35-137.05Z"
                style="fill: url(#body-linear-gradient-7); opacity: 0.15;"
            ></path>
            <g>
                <path d="M1053.96,1919s1.99-89-80.04-49c-65.2,31.79-214.21,202-121.45,299-9.97-66,30.92-159,201.49-250Z" style="fill: url(#body-linear-gradient-8); opacity: 0.5;"></path>
                <path
                    d="M1580.68,2753.38c20.87-69.89-9.01-45.18-9.01-45.18,0,0-.13,42.14-115.61,56.7l-49.62,4.06c-33.19,1.46-73.05,1.06-120.92-2.03-7.12-.46-13.94-1.07-20.5-1.84-.37-.2-.73-.39-1.1-.6,0,0-.28,.14-.81,.37-116.39-14.16-144.41-75.3-150.23-123.32,3.75-28.37,14.16-59.38,27.35-92.04,33.15-82.1,45.32-133.65,41.2-219.97-7.27-51.3-46.09-321.43-70.32-411.22-14.23-4.39-32.97-8.64-59.16-13.31,1,7,0,9,6.51,14.56,1.86-.59,3.68-1.13,5.46-1.56,0,0,1.62,8.72,4.31,23.65,1.76,3.18,3.58,6.11,5.49,8.72l-3.92,.07c13.1,73.5,43.86,253.33,47.98,343.56,4.99,109,7.98,121-36.91,258-5.02,15.32-10.25,50.25-9.79,87.37-2.56,4.76-4.13,7.84-4.13,7.84,0,0,11.79,110.19,98.66,163.88,3.72,2.45,7.88,4.78,12.53,6.97,26.36,13.17,38.64,23.93,82.58,23.41,19.26-.23,37.22-.49,53.95-.77,9.61,2.4,20.78,3.52,33.53,2.3,7.9-.76,14.67-1.94,20.46-3.4,122.76-2.95,126.28-4.6,126.28-4.6,0,0,64.38-10.16,85.72-81.62Z"
                    style="fill: url(#body-linear-gradient-9); opacity: 0.15;"
                ></path>
            </g>
            <path
                d="M2123.18,2625s-13.96,45-102.74,67c-88.77,22-220.44,5-333.16-27-49.07-13.93-77.15-28.81-93.22-41.17l-18.43-34.08c-6.81-20.26-7.26-49.84,22.88-82.75,53.98-58.95,74.42-187.01,40.62-274.98,31.53-21.05,72.53-48.26-5.59-40.83-96.63,9.19-205.6,10.81-205.6,10.81-28.37-2.31-1.99,20,20.95,36s17.95,66,17.95,66c0,0,8.39-34.52,18.95-62,10.56-27.48,33.42-36.5,48.61-2.81,15.2,33.69,11.73,110.31,8.24,161.81s-32.66,128.22-35.91,140c-3.25,11.78-12.15,48.34-3.99,53,8.16,4.66,39.4,58.5,51.93,77.76,1.29,1.98,3.06,3.64,5.19,5.02,6.62,10.9,11.71,19.22,11.71,19.22,0,0,107.73,56,255.35,83,147.63,27,232.41-12,281.29-50s14.96-104,14.96-104Z"
                style="fill: url(#body-linear-gradient-10); opacity: 0.15;"
            ></path>
            <g>
                <path d="M1905.15,1808.08c-.12-.03-.23-.05-.34-.08l.06,.82c.1-.25,.19-.49,.28-.74Z" style="fill: url(#body-linear-gradient-11); opacity: 0.2;"></path>
                <path
                    d="M2407.53,1789c-15.24-3.09-34.91-3-58.85,2-24.12,5.04-45.88-38-117.7,61-39.45,54.38-110.72,65-166.58,32-28.87-15.3-27.93-16-46.88-27l-39.9-20s-17.95-8-74.43-28.48c2.9,28.23,9.42,94.91,9.98,144.58,23.38,14.24,172.1,95.84,297.86,52.9,151.51-51.73,221.44-200,221.44-200l-24.94-17Z"
                    style="fill: url(#body-linear-gradient-12); opacity: 0.2;"
                ></path>
            </g>
            <path
                d="M1761.76,1633.97c-72.7,23.59-149.19,32.93-220.34,34.54-70.6,2.73-135.46-2.2-194.85-12.79-61-9.05-99.82-19.49-99.82-19.49l-22.59-2.32c66.89,74.32,171.03,122.09,288.03,122.09,128.29,0,241.13-57.44,306.34-144.33-16.48,7.85-35.29,15.33-56.76,22.3Z"
                style="fill: url(#body-linear-gradient-13); opacity: 0.15;"
            ></path>
        </g>
    </g>
    <g id="Alpine-Skiing-Red-and-Blue-Stripes" class="clothing">
        <defs>
            <style>
                .ski-color {
                    fill: #fff;
                }
                .ski-pattern {
                    fill: #185bca;
                }
                .boots-color path {
                    fill: #fff;
                }
                .bib-number {
                    transform: translate(-10px, 0);
                }
                .number {
                    opacity: 0;
                    display: inline;
                    stroke-linecap: round;
                    stroke-linejoin: round;
                    stroke-miterlimit: 10;
                    fill: #111;
                    stroke: transparent;
                    stroke-width: 8px;
                }
                .number1 .number._1,
                .number2 .number._0 {
                    opacity: 1;
                }
            </style>
            <linearGradient id="ski-linear-gradient" x1="1496.18" y1="2104.03" x2="1496.18" y2="1586.29" gradientUnits="userSpaceOnUse">
                <stop offset="0" stop-color="#fff"></stop>
                <stop offset=".07" stop-color="#fefafa"></stop>
                <stop offset=".16" stop-color="#fdecec"></stop>
                <stop offset=".24" stop-color="#fbd5d6"></stop>
                <stop offset=".34" stop-color="#f8b5b6"></stop>
                <stop offset=".43" stop-color="#f58b8e"></stop>
                <stop offset=".53" stop-color="#f0595d"></stop>
                <stop offset=".63" stop-color="#eb1e23"></stop>
                <stop offset=".67" stop-color="#e90006"></stop>
            </linearGradient>
        </defs>
        <path
            class="ski-color"
            d="M2436.5,1837.5c-37-27-169-34-220-190,0,0-34-14-27,27,0,0-31,67-129,3-60.42-39.46-121.22-78.53-172.32-105.28-60.15,36.84-135,64.77-228.18,76.78-276.3,35.6-481.02-26.36-625.33-109.8-71.82,24.5-242.77,96.66-342.72,253.92-74.95,114.88-97.95,189.88-114.95,304.88,0,0-24.5,13.5-.5,30.5s132.72,51,284.86,17c0,0,23.41-27.54,6.78-37.27,0,0,50.36-102.73,182.36-170.73,0,0,18,14,35,117,17.7,107.27,28.48,279.6,25.5,367.5,0,0,301,122,351.5-13.5,12-75,26.6-175.09,47-178,33.26-4.74,13,173,13,173,0,0,30.5,97.5,323.5,33.5,41-30,32.16-27.36,31.83-81.43-.33-54.07,25.09-175.69,33.88-230.4,8.79-54.67,20.79-113.67,16.79-155.67,0,0,84,71,220,64s223-85,271-166c0,0,54-3,17-30Z"
        ></path>
        <g class="ski-pattern">
            <g>
                <path
                    d="M855.91,1640.16c-9.93,37.07-13.81,77.18-11.57,119.25,9.65-9.01,19.45-17.64,29.38-25.78,.22-29.37,3.79-57.46,10.66-83.8,3.99-15.31,8.91-29.03,14.05-40.96-14.45,8.88-28.22,17.9-41.34,27.03-.4,1.41-.8,2.82-1.19,4.26Z"
                ></path>
                <path
                    d="M938.57,1585.58c-3.71,9.66-7.25,20.31-10.38,31.99-7.2,26.86-11.21,55.32-12.03,84.96,10.24-6.59,20.58-12.56,30.98-17.79,1.57-19.9,4.74-39.12,9.53-57.49,6.91-26.49,16.57-48.23,25.43-64.13-15.08,7.34-29.58,14.84-43.52,22.48Z"
                ></path>
                <path
                    d="M776.79,1786.15c.82,13.07,2.23,26.35,4.23,39.79,8.68-10.1,17.56-20.06,26.64-29.77-.32-3.5-.61-6.99-.84-10.45-2.65-40.14,.65-78.26,9.79-113.31,.74-2.83,1.51-5.59,2.3-8.31-13.41,10.54-26.03,21.17-37.91,31.84-4.74,28.72-6.18,58.92-4.22,90.2Z"
                ></path>
                <path
                    d="M743.58,1826.39c-2.35-35.64,0-69.69,6.95-101.42-13.16,13.31-25.23,26.59-36.31,39.77-1.77,20.11-2,40.85-.68,62.08,1.46,23.33,4.82,47.3,10.03,71.76,7.88-10.74,16.05-21.56,24.5-32.36-2.12-13.48-3.63-26.77-4.49-39.82Z"
                ></path>
                <path
                    d="M654.18,1849.54c.14,4.45,.35,8.92,.63,13.41,2.17,34.7,8.54,70.79,18.96,107.84,7.02-10.8,14.48-22.02,22.37-33.52-5.9-25.58-9.69-50.55-11.29-74.75-1.38-20.97-1.13-41.38,.72-61.1-11.89,16.46-22.29,32.57-31.39,48.12Z"
                ></path>
                <path d="M603.93,1964.03c3.89,28.83,10.51,58.48,19.8,88.74,5.81-10.18,12.89-22.29,21.09-35.84-7.58-29.74-12.35-58.71-14.19-86.64-.77-11.62-1.02-23.06-.79-34.31-11.94,25.68-20.2,48.79-25.92,68.06Z"></path>
                <path d="M2045.32,1668.38c-12.26-7.31-29.34-17.42-49.55-29.34,15.34,24.89,29.07,52.82,35.85,80.72,11.34,4.57,22.27,8.51,32.77,11.87-3.06-21.43-10-42.82-19.07-63.25Z"></path>
                <path d="M2124.31,1702.79c-12.59-2.15-25.55-6.45-37.56-11.68,8.01,16.69,14.5,34.04,18.22,51.31,11.07,2.32,21.54,3.99,31.39,5.11-2.33-15.05-6.55-30.07-12.05-44.74Z"></path>
                <path d="M1941.85,1607.3c-21.55-12.67-44.5-26.14-67.68-39.73,20.32,23.69,51.97,64.48,71.73,109.02,13.79,8.27,27.14,15.67,40.05,22.27-9.48-32.73-26.36-64.4-44.1-91.55Z"></path>
                <path d="M2211.38,1746c-9.2-19.72-19.71-39.94-30.53-59.51-6.53,8.76-15.33,13.83-25.4,16.18,9.09,16.49,17.2,32.1,24.25,46.65,12.1-.45,22.67-1.71,31.68-3.31Z"></path>
                <path d="M1777.45,1510.88c-1.54,1.38-2.4,2.15-2.4,2.15,1.19,0,4.35,.63,9.11,1.78-2.25-1.32-4.49-2.63-6.71-3.93Z"></path>
                <path d="M1251.01,2228.63c-61.6-19.51-100.91-45.05-124.66-65.44-8.6-7.38-15.67-14.5-21.44-21.03,2.02,14.39,4.09,30.35,6.01,47.37,29.96,24.72,74.59,51.12,140.09,70.52v-31.43Z"></path>
                <path
                    d="M1439.43,2252.13c-17.97,2.72-39.14,3.1-63.23,1.19-.14,9.64-.29,19.7-.44,30.07,10.09,.76,19.73,1.15,28.91,1.15,29.33,0,53.99-3.88,73.87-11.61,3.24-13.9,6.68-27.44,10.32-40.2-11.26,9.61-27.87,16.14-49.43,19.4Z"
                ></path>
                <path d="M1251.01,2295.68c-43.48-11.69-89.85-28.22-127.78-51.27-2.62-1.59-5.1-3.16-7.46-4.7,.95,11.92,1.77,24.09,2.4,36.36,30.31,16.99,73.14,35.27,132.84,50.68v-31.07Z"></path>
                <path d="M1375.21,2318.79c-.16,9.91-.32,19.95-.49,30.02,10.47,.81,20.46,1.22,29.95,1.22,22.64,0,42.49-2.31,59.52-6.92,2.01-11.12,4.17-22.48,6.48-33.86-18.95,8.16-48.72,13.41-95.46,9.53Z"></path>
                <path d="M1374.12,2382.8c-.19,10.11-.38,20.13-.57,29.97,1.35,.01,2.72,.03,4.05,.03,31.34,0,56.45-3.66,76.6-9.38,1.57-10.36,3.34-21.56,5.3-33.28-18.83,7.32-46.15,13.03-85.37,12.65Z"></path>
                <path d="M1251.01,2368.31c-43.9-8.37-90.77-20.65-128.86-38.56-.86-.41-1.7-.81-2.53-1.21,.01,11-.17,21.94-.6,32.71,35.62,15.49,79.8,28.09,131.99,37.65v-30.59Z"></path>
                <path
                    d="M1688.38,2219.98c-5.33,.86-10.69,1.68-16.11,2.4-46.64,6.23-96.7,7.27-149.57,3.14,2.27,9.64,3.93,19.88,5.08,30.45,19.3,1.34,38.26,2.02,56.83,2.02,32.29,0,63.44-2.03,93.28-6.1,3.4-.46,6.78-.96,10.14-1.48l.34-30.44Z"
                ></path>
                <path d="M1824.87,2177.77c-3.41,1.67-6.87,3.29-10.35,4.88l1.3,32.2c8.26-3.51,16.37-7.21,24.29-11.14,25.28-12.55,46.08-25.88,62.82-38.4,2.47-15.43,4.93-30.72,7.26-45.1-17.69,16.42-45.58,38.09-85.32,57.56Z"></path>
                <path d="M1687.53,2295.34c-5.41,.63-10.85,1.22-16.36,1.73-44.01,4.05-91.27,4-141.23-.11,.05,10.12-.2,20.21-.66,30.04,25.42,2.05,50.19,3.08,74.23,3.08s47.73-1.04,70.42-3.13c4.46-.41,8.87-.87,13.27-1.36l.34-30.24Z"></path>
                <path d="M1822.15,2262.21c-1.43,.58-2.89,1.14-4.34,1.71l1.28,31.61c4.85-1.78,9.65-3.61,14.36-5.53,21.24-8.64,39.21-17.86,54.19-26.81,1.8-11.99,3.88-25.5,6.11-39.81-16.55,11.93-40.01,25.99-71.59,38.82Z"></path>
                <path
                    d="M1686.75,2365.29c-4.56,.4-9.15,.78-13.78,1.09-45.49,3.11-94.51,2.12-146.39-2.87-1.08,10.95-2.31,21.03-3.51,29.81,33.22,3.22,65.34,4.84,96.19,4.84,19.88,0,39.24-.67,58.04-2.01,3.06-.22,6.09-.46,9.12-.72l.34-30.14Z"
                ></path>
                <path d="M1823.16,2337.07c-.78,.28-1.58,.54-2.37,.81l1.26,31.23c4.71-1.54,9.37-3.12,13.95-4.79,16.43-5.96,30.89-12.28,43.51-18.58,.33-11.87,.84-24.13,1.66-34.91-15.72,8.89-35.06,18.08-58.03,26.24Z"></path>
            </g>
        </g>
        <path
            class="ski-outline"
            d="M2436.5,1837.5c-37-27-169-34-220-190,0,0-34-14-27,27,0,0-31,67-129,3-60.42-39.46-121.22-78.53-172.32-105.28-60.15,36.84-135,64.77-228.18,76.78-276.3,35.6-481.02-26.36-625.33-109.8-71.82,24.5-242.77,96.66-342.72,253.92-74.95,114.88-97.95,189.88-114.95,304.88,0,0-24.5,13.5-.5,30.5s132.72,51,284.86,17c0,0,23.41-27.54,6.78-37.27,0,0,50.36-102.73,182.36-170.73,0,0,18,14,35,117,17.7,107.27,28.48,279.6,25.5,367.5,0,0,301,122,351.5-13.5,12-75,26.6-175.09,47-178,33.26-4.74,13,173,13,173,0,0,30.5,97.5,323.5,33.5,41-30,32.16-27.36,31.83-81.43-.33-54.07,25.09-175.69,33.88-230.4,8.79-54.67,20.79-113.67,16.79-155.67,0,0,84,71,220,64s223-85,271-166c0,0,54-3,17-30Z"
            style="fill: none; stroke: #000; stroke-miterlimit: 10; stroke-width: 14px;"
        ></path>
        <path
            class="ski-vest"
            d="M1827.09,1604.06c-19.14,8.39-39.49,15.93-61.1,22.5,2.6,27.56,8.52,169.16-142.83,178.33-152.73,9.26-301.23-27.87-354.7-172.74-50.52-12.17-96.92-27.85-139.36-45.86,34.81,74.58,110.02,302.25-39.1,355.71-5.08,0-37-1-37-1,0,0,22.96,62.1,21.27,85.82-1.69,23.72,8.57,60.24,18.73,77.18,5.08,1.69,468.51-59.56,819-11,2.37,.33,94.03-238.98-71.99-476.16-4.08-5.83-8.44-9.97-12.92-12.78Z"
            style="fill: url(#ski-linear-gradient); stroke: #000; stroke-miterlimit: 10; stroke-width: 14px;"
        ></path>
        <path
            d="M1942.21,1901.55s112.79,121.45,274.79,74.45c127-42,145-118,145-118,0,0-63.12-24.76-55.56-34.38,7.56-9.62,59.56,26.38,76.56,28.38s25.46-20.76,13.23-28.38c-12.23-7.62,77.93,23.32,42.35,42.35s-57.6,57.6-57.6,57.6c0,0-86.11,93.03-188.05,106.73-101.94,13.7-252.42-49.13-252.42-49.13l1.69-79.62"
            style="opacity: 0.2;"
        ></path>
        <path
            d="M1438.5,2209.57s92.33,16.94,187.2-11.01c94.87-27.95-13.55,46.59-27.11,55.06-13.55,8.47-32.65,186.39,23.26,192.32,0,0-81.32-5.08-88.09-32.19-6.78-27.11,13.16-161.82-9.71-177.92-22.87-16.09-38.96-6.78-42.35,26.26-3.39,33.04-20.7,125.91-20.7,125.91,0,0,7.15-147.93-24.19-158.1-31.34-10.16-21.18-27.11,1.69-20.33Z"
            style="opacity: 0.2;"
        ></path>
        <path
            d="M783,2117s21.25,18.33,2.13,38.66l62.68-8.47s47.08-26.96,15.19-37.19c0,0,83.24-125.65,188-168,0,0,7.03,24.88,22,96,12,57,24.01,83.99,24,113s15.48,266.97,15.48,266.97c0,0,41.85,29.05,70.52,19.03,28.67-10.02-44-183-39-239s-21-238-79-278-282,197-282,197Z"
            style="opacity: 0.2;"
        ></path>
        <path d="M1222.16,1628.91s243.33,49.76,385.09,26.43c141.76-23.34,214.18-45.16,248.47-63.25,0,0-58.8,95.38-270.71,117.91-211.91,22.53-362.84-81.09-362.84-81.09Z" style="opacity: 0.2;"></path>
        <path
            d="M1419.17,1851.89l11.67,185.08s218.92-14.41,309.46-2.14l-.34-182.98s-108.83-27.82-320.78,.05Z"
            style="fill: #fff; stroke: #000; stroke-miterlimit: 10; stroke-width: 13px; stroke-linecap: round; stroke-linejoin: round;"
        ></path>
        <g class="bib-number">
            <g class="number2">
                <path class="number _0" d="M1654.03,1875.8l13.69,12.49,2.41,91.41-13.01,13.33-50.89,1.59-13.52-12.34-2.45-91.68,12.89-13.2,50.89-1.59Zm-14.91,25.43l-19.58,.61,1.77,67.34,19.58-.61-1.77-67.34Z"></path>
                <path class="number _1" d="M1628.54,1968.96l7.22-.23,.66,24.94-43.41,1.36-.66-24.94,7.21-.23-1.77-67.34-7.21,.23-.66-24.94,36.17-1.13,2.45,92.28Z"></path>
                <path
                    class="number _2"
                    d="M1590.91,1915.35l-.65-24.64,13.01-13.33,50.89-1.59,13.56,12.38,1.2,45.53-12.89,13.17-30.76,.96-4.46,3.65,.47,17.69,19.62-.61-.33-12.61,28.92-.9,.99,37.55-77.45,2.42-1.54-58.32,12.89-13.18,30.76-.96,4.46-3.65-.37-14.2-4.59-3.36-10.68,.33-4.36,3.64,.24,9.11-28.92,.9Z"
                ></path>
                <path
                    class="number _3"
                    d="M1668.75,1927.61l-6.44,6.59,6.78,6.17,1.04,39.44-12.89,13.2-50.88,1.59-13.69-12.49-.65-24.64,28.92-.9,.24,9.11,4.54,3.36,10.68-.33,4.4-3.64-.37-14.19-4.65-3.37-15.06,.47-.66-24.94,15.06-.47,4.46-3.65-.37-14.2-4.59-3.36-10.68,.33-4.36,3.64,.24,9.11-28.92,.9-.65-24.64,13.01-13.33,50.89-1.59,13.56,12.38,1.04,39.44Z"
                ></path>
                <path
                    class="number _4"
                    d="M1669.57,1958.93l-7.22,.23,.23,8.73,7.22-.23,.66,24.94-43.41,1.36-.66-24.94,7.22-.23-.23-8.73-41.26,1.29-.66-24.94,21.04-59.32,47.65-1.49,1.55,58.61,7.22-.23,.66,24.94Zm-36.85-23.81l-.69-26.3-9.18,26.61,9.87-.31Z"
                ></path>
                <path
                    class="number _5"
                    d="M1620.94,1956.58l.24,9.11,4.54,3.36,10.68-.33,4.4-3.64-.37-14.19-4.65-3.37-43.98,1.38-1.87-71.08,77.45-2.42,.99,37.55-28.92,.9-.33-12.61-19.62,.61,.56,21.2,35.31-1.1,13.56,12.35,1.2,45.53-12.89,13.2-50.88,1.59-13.69-12.49-.65-24.64,28.92-.9Z"
                ></path>
                <path
                    class="number _6"
                    d="M1668.36,1912.93l-28.92,.9-.24-9.11-4.54-3.36-10.68,.33-4.4,3.64,.47,17.7,35.19-1.1,13.69,12.49,1.19,45.27-13.01,13.33-50.89,1.59-13.56-12.38-2.41-91.65,12.89-13.2,50.89-1.59,13.69,12.49,.65,24.64Zm-47.65,35.05l.47,17.71,4.58,3.36,10.68-.33,4.36-3.64-.37-14.21-4.54-3.36-15.17,.47Z"
                ></path>
                <path class="number _7" d="M1668.03,1900.32l-25.03,68.18,8.99-.28,.66,24.94-50.64,1.58-.66-24.94,12.66-.4,25.05-68.18-19.58,.61,.33,12.61-28.92,.9-.99-37.55,77.46-2.42,.66,24.94Z"></path>
                <path
                    class="number _8"
                    d="M1667.71,1888.17l1.04,39.45-6.44,6.59,6.78,6.17,1.04,39.32-12.88,13.32-50.88,1.59-13.69-12.49-1.04-39.32,6.44-6.59-6.78-6.17-1.04-39.44,13.01-13.21,50.89-1.59,13.56,12.38Zm-28.13,30.75l-.37-14.2-4.58-3.36-10.63,.33-4.4,3.64,.37,14.2,4.65,3.36,10.51-.33,4.46-3.65h0Zm1.22,46.15l-.37-14.19-4.65-3.37-10.51,.33-4.46,3.65,.37,14.19,4.58,3.36,10.63-.33,4.4-3.64h0Z"
                ></path>
                <path
                    class="number _9"
                    d="M1620.94,1956.58l.24,9.11,4.54,3.36,10.68-.33,4.4-3.64-.47-17.7-35.19,1.1-13.69-12.49-1.19-45.27,13.01-13.33,50.89-1.59,13.56,12.38,2.41,91.65-12.89,13.2-50.89,1.59-13.69-12.49-.65-24.64,28.92-.9Zm18.73-34.15l-.47-17.71-4.58-3.36-10.68,.33-4.36,3.64,.37,14.21,4.54,3.36,15.17-.47Z"
                ></path>
            </g>
            <g class="number1">
                <path
                    class="number _9"
                    d="M1529.69,1959.43l.24,9.11,4.54,3.36,10.68-.33,4.4-3.64-.47-17.7-35.19,1.1-13.69-12.49-1.19-45.27,13.01-13.33,50.89-1.59,13.56,12.38,2.41,91.65-12.89,13.2-50.89,1.59-13.69-12.49-.65-24.64,28.92-.9Zm18.73-34.15l-.47-17.71-4.58-3.36-10.68,.33-4.36,3.64,.37,14.21,4.54,3.36,15.17-.47Z"
                ></path>
                <path
                    class="number _8"
                    d="M1576.47,1891.03l1.04,39.45-6.44,6.59,6.78,6.17,1.04,39.32-12.88,13.32-50.88,1.59-13.69-12.49-1.04-39.32,6.44-6.59-6.78-6.17-1.04-39.44,13.01-13.21,50.89-1.59,13.56,12.38Zm-28.13,30.75l-.37-14.2-4.58-3.36-10.63,.33-4.4,3.64,.37,14.2,4.65,3.36,10.51-.33,4.46-3.65h0Zm1.22,46.15l-.37-14.19-4.65-3.37-10.51,.33-4.46,3.65,.37,14.19,4.58,3.36,10.63-.33,4.4-3.64h0Z"
                ></path>
                <path class="number _7" d="M1576.79,1903.18l-25.03,68.18,8.99-.28,.66,24.94-50.64,1.58-.66-24.94,12.67-.4,25.05-68.18-19.58,.61,.33,12.61-28.92,.9-.99-37.55,77.46-2.42,.66,24.94Z"></path>
                <path
                    class="number _6"
                    d="M1577.12,1915.78l-28.92,.9-.24-9.11-4.54-3.36-10.68,.33-4.4,3.64,.47,17.7,35.19-1.1,13.69,12.49,1.19,45.27-13.01,13.33-50.89,1.59-13.56-12.38-2.41-91.65,12.89-13.2,50.89-1.59,13.69,12.49,.65,24.64Zm-47.65,35.05l.47,17.71,4.58,3.36,10.68-.33,4.36-3.64-.37-14.21-4.54-3.36-15.17,.47Z"
                ></path>
                <path
                    class="number _5"
                    d="M1529.69,1959.43l.24,9.11,4.54,3.36,10.68-.33,4.4-3.64-.37-14.19-4.65-3.37-43.98,1.38-1.87-71.08,77.45-2.42,.99,37.55-28.92,.9-.33-12.61-19.62,.61,.56,21.2,35.31-1.1,13.56,12.35,1.2,45.53-12.89,13.2-50.88,1.59-13.69-12.49-.65-24.64,28.92-.9Z"
                ></path>
                <path
                    class="number _4"
                    d="M1578.33,1961.79l-7.22,.23,.23,8.73,7.22-.23,.66,24.94-43.41,1.36-.66-24.94,7.22-.23-.23-8.73-41.26,1.29-.66-24.94,21.04-59.32,47.65-1.49,1.55,58.61,7.22-.23,.66,24.94Zm-36.85-23.81l-.69-26.3-9.18,26.61,9.87-.31Z"
                ></path>
                <path
                    class="number _3"
                    d="M1577.51,1930.47l-6.44,6.59,6.78,6.17,1.04,39.44-12.89,13.2-50.88,1.59-13.69-12.49-.65-24.64,28.92-.9,.24,9.11,4.54,3.36,10.68-.33,4.4-3.64-.37-14.19-4.65-3.37-15.06,.47-.66-24.94,15.06-.47,4.46-3.65-.37-14.2-4.59-3.36-10.68,.33-4.36,3.64,.24,9.11-28.92,.9-.65-24.64,13.01-13.33,50.89-1.59,13.56,12.38,1.04,39.44Z"
                ></path>
                <path
                    class="number _2"
                    d="M1499.67,1918.21l-.65-24.64,13.01-13.33,50.89-1.59,13.56,12.38,1.2,45.53-12.89,13.18-30.76,.96-4.46,3.65,.47,17.69,19.62-.61-.33-12.61,28.92-.9,.99,37.55-77.45,2.42-1.54-58.32,12.89-13.18,30.76-.96,4.46-3.65-.37-14.2-4.59-3.36-10.68,.33-4.36,3.64,.24,9.11-28.92,.9Z"
                ></path>
                <path class="number _1" d="M1571.24,1970.75l7.22-.23,.66,24.94-43.41,1.36-.66-24.94,7.21-.23-1.77-67.34-7.21,.23-.66-24.94,36.17-1.13,2.45,92.28Z"></path>
                <path class="number _0" d="M1562.78,1878.65l13.69,12.49,2.41,91.41-13.01,13.33-50.89,1.59-13.52-12.34-2.45-91.68,12.89-13.2,50.89-1.59Zm-14.91,25.43l-19.57,.61,1.77,67.34,19.57-.61-1.77-67.34Z"></path>
            </g>
        </g>
        <g id="clothing-shoes" class="clothing-shoes">
            <g>
                <g>
                    <g class="boots-color">
                        <path
                            d="M2120.04,2585.53c52.46,23.36,50,68.09,41.06,97.93-6.11,11.87-37.59,56.36-170.52,68.34-153.84,13.88-206.85-20.56-292.09-45.24-.68-.2-1.37-.4-2.06-.59-82.52-23.74-187.59-43.64-193.55-44.76-7.74-24.31-11.1-49.85-10.94-70.16,.27-33.51,20.28-111.08,20.28-111.08,0,0-6.72-107.47-3.72-140.47,0,0,.79-30.81,13.02-32.05,7.25,5.82,51.84,34.65,220.98,31.05,112-3,145-8,144-27,0,0,11-9,18,3,12,41-6.79,104.51,33.11,129.75,0,0,92.89,71.25,114.89,84.25l2,3c38.98,15.33,65.54,54.03,65.54,54.03Z"
                        ></path>
                        <path
                            d="M1696.43,2705.97c.69,.19,1.38,.39,2.06,.59,85.24,24.68,138.25,59.12,292.09,45.24,132.93-11.98,164.41-56.47,170.52-68.34,0,0,5.4,33.04,3.4,65.04-63.3,73.82-277.42,82.08-370.25,52.86-58.39-18.39-121.45-40.55-149.06-48.8-27.61-8.25-98.71-14.31-121.44-47.25-2.56-3.71-4.95-7.61-7.17-11.65-5.58-10.12-10.12-21.14-13.7-32.45,5.96,1.12,111.03,21.02,193.55,44.76Z"
                        ></path>
                    </g>
                    <g>
                        <path
                            d="M1520.37,2306.44s.34,.36,1.15,1.01c7.25,5.82,51.84,34.65,220.98,31.05,112-3,145-8,144-27,0,0,11-9,18,3,12,41-6.79,104.51,33.11,129.75,0,0,92.89,71.25,114.89,84.25"
                            style="fill: none; stroke: #000; stroke-linecap: round; stroke-linejoin: round; stroke-width: 13.37px;"
                        ></path>
                        <path d="M2161.1,2683.46c8.94-29.84,11.4-74.57-41.06-97.93,0,0-26.56-38.7-65.54-54.03" style="fill: none; stroke: #000; stroke-linecap: round; stroke-linejoin: round; stroke-width: 13.37px;"></path>
                        <path
                            d="M1512.22,2479.97s-20.01,77.57-20.28,111.08c-.16,20.31,3.2,45.85,10.94,70.16,3.58,11.31,8.12,22.33,13.7,32.45,2.22,4.04,4.61,7.94,7.17,11.65,22.73,32.94,93.83,39,121.44,47.25,27.61,8.25,90.67,30.41,149.06,48.8,92.83,29.22,306.95,20.96,370.25-52.86"
                            style="fill: none; stroke: #000; stroke-linecap: round; stroke-linejoin: round; stroke-width: 13.37px;"
                        ></path>
                        <path
                            d="M1502.61,2661.16s.09,.02,.27,.05c5.96,1.12,111.03,21.02,193.55,44.76,.69,.19,1.38,.39,2.06,.59,85.24,24.68,138.25,59.12,292.09,45.24,132.93-11.98,164.41-56.47,170.52-68.34,.96-1.87,1.29-2.93,1.29-2.93"
                            style="fill: none; stroke: #000; stroke-linecap: round; stroke-linejoin: round; stroke-width: 13.37px;"
                        ></path>
                        <path d="M1512.22,2479.97s-6.72-107.47-3.72-140.47c0,0,.79-30.81,13.02-32.05,.63-.07,1.29-.05,1.98,.05" style="fill: none; stroke: #000; stroke-linecap: round; stroke-linejoin: round; stroke-width: 13.37px;"></path>
                        <path d="M1696.43,2705.97c-.02,.21-.02,.43-.03,.64" style="fill: none; stroke: #000; stroke-linecap: round; stroke-linejoin: round; stroke-width: 13.37px;"></path>
                        <path d="M2161.1,2683.46s5.4,33.04,3.4,65.04" style="fill: none; stroke: #000; stroke-linecap: round; stroke-linejoin: round; stroke-width: 13.37px;"></path>
                    </g>
                </g>
                <g>
                    <g style="opacity: 0.2;">
                        <path
                            d="M1784.09,2515.95l-10.59,4.55,48,54s86.98-56.18,192.99-67.59c0,0,6.92-9.92-9.04-10.16-15.95-.25-61.75,9.9-90.35,20.33-28.6,10.42-81.32,32.75-81.32,32.75,0,0-11.63,5.26-21.46-9.04-9.82-14.29-28.24-24.85-28.24-24.85Z"
                        ></path>
                        <path d="M1895.9,2593.88l-15.9,9.12,62,46s132.46-63.36,166.23-68.68c0,0,2.86-19.52-14.68-12.42s-94.99,37.72-100.52,40.66-39.53,18.07-39.53,18.07c0,0-8.4,3.83-19.2-5.65-10.8-9.48-38.4-27.11-38.4-27.11Z"></path>
                    </g>
                    <path
                        d="M2162,2693c-1.13-18.06,5.77-34.28,4.15-48.86,0,0-111.39,77.49-340.17,32.31-10.23-2.42-21.89-4.96-35.13-7.61-21.71-5.06-41.29-10.23-58.95-15.51-109.78-40.04-129.19-122.67-132.4-157.4,29.31-8.47,72.98-18.28,127.99-22.43,106-8,194.38-40,194.38-40,0,0,1.57-11.07-7.91-9.04-9.47,2.04-185.08,32.83-275.97,14.54-19.02-3.83-35.15-.4-49.43-1.76l2.39-104.26-53.72-11.82c-4.68-8.4-9.37-13.05-13.24-9.16-9.77,9.79-20.09,99.14-11.32,146.44l-.72,35.33c-4.97,5.93-9.01,16.88-8.34,37,0,0,27.47,74.5,46.86,100.42,19.39,25.91,17.78,110.13,17.78,110.13,0,0,101.8,17.82,171.29,43.73,69.48,25.91,197.14,59.93,308.64,22.67,111.5-37.25,118.81-64.72,118.81-64.72,0,0-4-34-5-50Z"
                        style="opacity: 0.2;"
                    ></path>
                </g>
                <g>
                    <g>
                        <g class="boots-color">
                            <path
                                d="M1482.33,2351.92c0,3.57-6.73,22.35-145.83,29.58-122.1,6.34-219.67-15.6-254.86-24.96-.65-12.05-.53-21.32,.86-25.04,6-16,16.88-19.98,16.88-19.98-8.12,24.02,53.12,32.98,121.12,39.98,224,15,258-31,258-31,0,0,8-1,6,13l-.82,18.48-1.35-.06Z"
                            ></path>
                            <path d="M1528.43,2611.88s19.17,28.92,16.55,48.82c0,0-169.62,8.27-226.71,24.82l-18.2-52.95s167.83-33.38,228.36-20.69Z"></path>
                            <path d="M1481.04,2508.52l20.97,47.65c-34.37-1.25-223.55,19.61-223.55,19.61l-15.47-47.95c70.72-23.61,218.05-19.31,218.05-19.31Z"></path>
                            <path
                                d="M1478,2437.92c0,3.56-6.52,22.35-141.42,29.58-114.53,6.14-208.71-18.31-246.39-30.04-11.45-3.57-17.69-5.96-17.69-5.96l-5-79s4.95,1.59,14.14,4.04c35.19,9.36,132.76,31.3,254.86,24.96,139.1-7.23,145.83-26.01,145.83-29.58l1.35,.06-3.79,85.2c0,.2,0,.45-.01,.74h-1.88Z"
                            ></path>
                            <path
                                d="M1478,2437.92h1.88c-.05,2.01-.24,6.08-.34,11.67h.62c1.62,2.36,68.68,127.29,75.14,157.92l-1.71,.15c41.33,40.05,28.64,107.02,28.64,107.02,0,0,.07,.21,.2,.61-9.64,43.89-50.88,101.37-173.64,101.96-192.57,.92-275.52-66.79-311.23-125.66-27.34-45.03-27.04-84.89-27.04-84.89-12.92-23.75,2.16-78.82,11.85-100.42,5.69-12.65,10.26-26.05,11.76-39.96h.1s-1.79-11.99-4.04-28.86c37.68,11.73,131.86,36.18,246.39,30.04,134.9-7.23,141.42-26.02,141.42-29.58Zm66.98,222.78c2.62-19.9-16.55-48.82-16.55-48.82-60.53-12.69-228.36,20.69-228.36,20.69l18.2,52.95c57.09-16.55,226.71-24.82,226.71-24.82Zm-42.97-104.53l-20.97-47.65s-147.33-4.3-218.05,19.31l15.47,47.95s189.18-20.86,223.55-19.61Z"
                            ></path>
                            <path
                                d="M1097.56,2691.59c35.71,58.87,118.66,126.58,311.23,125.66,122.76-.59,164-58.07,173.64-101.96,.36,1.16,1.17,3.95,2.01,8.01,6.66,31.73,9.64,149.01-177.81,158.74-248.82,12.89-305.94-125.25-324.26-154.41-18.31-29.15-15.08-60.47-15.08-60.47,0,0,0-57.22,3.23-60.46,0,0-.3,39.86,27.04,84.89Z"
                            ></path>
                        </g>
                        <g>
                            <line x1="1584.39" y1="2723.31" x2="1584.44" y2="2723.3" style="fill: none; stroke: #000; stroke-linecap: round; stroke-linejoin: round; stroke-width: 13px;"></line>
                            <line x1="1094.13" y1="2466.32" x2="1094.23" y2="2466.33" style="fill: none; stroke: #000; stroke-linecap: round; stroke-linejoin: round; stroke-width: 13px;"></line>
                            <path d="M1582.43,2715.29c-.13-.4-.2-.61-.2-.61,0,0,12.69-66.97-28.64-107.02" style="fill: none; stroke: #000; stroke-linecap: round; stroke-linejoin: round; stroke-width: 13px;"></path>
                            <path
                                d="M1099.38,2311.52c-8.12,24.02,53.12,32.98,121.12,39.98,224,15,258-31,258-31,0,0,8-1,6,13l-.82,18.48-3.79,85.2c0,.2,0,.45-.01,.74-.05,2.01-.24,6.08-.34,11.67"
                                style="fill: none; stroke: #000; stroke-linecap: round; stroke-linejoin: round; stroke-width: 13px;"
                            ></path>
                            <path
                                d="M1067.29,2667.16s-3.23,31.32,15.08,60.47c18.32,29.16,75.44,167.3,324.26,154.41,187.45-9.73,184.47-127.01,177.81-158.74"
                                style="fill: none; stroke: #000; stroke-linecap: round; stroke-linejoin: round; stroke-width: 13px;"
                            ></path>
                            <path d="M1582.43,2715.29c.36,1.16,1.17,3.95,2.01,8.01" style="fill: none; stroke: #000; stroke-linecap: round; stroke-linejoin: round; stroke-width: 13px;"></path>
                            <path d="M1067.29,2667.16s0-57.22,3.23-60.46" style="fill: none; stroke: #000; stroke-linecap: round; stroke-linejoin: round; stroke-width: 13px;"></path>
                            <path d="M1094.13,2466.32c-1.5,13.91-6.07,27.31-11.76,39.96-9.69,21.6-24.77,76.67-11.85,100.42" style="fill: none; stroke: #000; stroke-linecap: round; stroke-linejoin: round; stroke-width: 13px;"></path>
                            <path d="M1582.43,2715.29c.94-4.29,1.58-8.46,1.96-12.5" style="fill: none; stroke: #000; stroke-linecap: round; stroke-linejoin: round; stroke-width: 13px;"></path>
                            <path
                                d="M1582.43,2715.29c-9.64,43.89-50.88,101.37-173.64,101.96-192.57,.92-275.52-66.79-311.23-125.66-27.34-45.03-27.04-84.89-27.04-84.89"
                                style="fill: none; stroke: #000; stroke-linecap: round; stroke-linejoin: round; stroke-width: 13px;"
                            ></path>
                            <path d="M1090.19,2437.46c2.25,16.87,4.04,28.87,4.04,28.87" style="fill: none; stroke: #000; stroke-linecap: round; stroke-linejoin: round; stroke-width: 13px;"></path>
                            <path d="M1081.64,2356.54c-.65-12.05-.53-21.32,.86-25.04,6-16,16.88-19.98,16.88-19.98" style="fill: none; stroke: #000; stroke-linecap: round; stroke-linejoin: round; stroke-width: 13px;"></path>
                            <path d="M1480.16,2449.6c1.62,2.35,68.68,127.28,75.14,157.91" style="fill: none; stroke: #000; stroke-linecap: round; stroke-linejoin: round; stroke-width: 13px;"></path>
                            <path
                                d="M1477.93,2437.33s.07,.21,.07,.59c0,3.56-6.52,22.35-141.42,29.58-114.53,6.14-208.71-18.31-246.39-30.04"
                                style="fill: none; stroke: #000; stroke-linecap: round; stroke-linejoin: round; stroke-width: 13px;"
                            ></path>
                            <path d="M1081.64,2356.54c-9.19-2.45-14.14-4.04-14.14-4.04l5,79s6.24,2.39,17.69,5.96" style="fill: none; stroke: #000; stroke-linecap: round; stroke-linejoin: round; stroke-width: 13px;"></path>
                            <path
                                d="M1482.25,2351.33s.08,.21,.08,.59c0,3.57-6.73,22.35-145.83,29.58-122.1,6.34-219.67-15.6-254.86-24.96"
                                style="fill: none; stroke: #000; stroke-linecap: round; stroke-linejoin: round; stroke-width: 13px;"
                            ></path>
                            <path
                                d="M1481.04,2508.52s-147.33-4.3-218.05,19.31l15.47,47.95s189.18-20.86,223.55-19.61l-20.97-47.65Z"
                                style="fill: none; stroke: #000; stroke-linecap: round; stroke-linejoin: round; stroke-width: 10.57px;"
                            ></path>
                            <path
                                d="M1300.07,2632.57s167.83-33.38,228.36-20.69c0,0,19.17,28.92,16.55,48.82,0,0-169.62,8.27-226.71,24.82l-18.2-52.95Z"
                                style="fill: none; stroke: #000; stroke-linecap: round; stroke-linejoin: round; stroke-width: 10.76px;"
                            ></path>
                        </g>
                    </g>
                </g>
                <path
                    d="M1579.67,2731.66c9.67-47.34-2.67-69.66-2.67-65.66-2,11-6,78-149,94-153.73,16.56-243.48-41.35-291.16-91.45-41.04-50.51-39.97-100.59-31.58-134.13,5.85-16.65,12.25-31.4,16.53-40.75,12.62-2.49,44.88-6.78,120.71-8.17,109-2,208-5,221-20s7.18-20.71,7.18-20.71h-348.98c-2.93-47.89,1.69-107.29,1.69-107.29,0,0-5.38,6.5-15.81-12.42-10.43-18.92-15.81-7.91-15.81-7.91-21.24,17.17-2.76,105.83-1.13,123.11,1.63,17.28,3.39,38.4,3.39,38.4,0,0-21.02,56.32-27.11,75.67-6.09,19.35,2.26,59.86,2.26,59.86-8.83,61.2,5.65,96,5.65,96,57.82,128.2,143.18,159.8,283.48,170.54,140.3,10.75,199.7-41.75,217.98-80.19,18.28-38.44,3.39-68.89,3.39-68.89Z"
                    style="opacity: 0.2;"
                ></path>
                <g style="opacity: 0.2;">
                    <path d="M1160,2558l-13,3,19,55s184-39,340-37l-10.48-21.83s-264.06,19.56-314.54,34.45c0,0-7.33-.31-7.91-6.21s-13.08-27.4-13.08-27.4Z"></path>
                    <path d="M1209,2657l-16,3,19,49s0,12,20,9,184-37,311-36l-8.51-19.23s-185.33,12.19-232.66,21.46c-47.33,9.27-65.51,13.55-65.51,13.55,0,0-5.76,4.47-11.29-7.91-5.53-12.38-16.03-32.88-16.03-32.88Z"></path>
                </g>
                <g class="boots-color">
                    <path d="M1588.5,2360.5s216.81,27.81,324.91-21.09l-3.39-16.94,16.48-6.96s11,24,9,46-5,47-5,47c0,0-91,58-343,24l1-72Z" style="stroke: #000; stroke-linecap: round; stroke-linejoin: round; stroke-width: 13.37px;"></path>
                    <path
                        d="M1780.5,2504.5s95.68-59.18,183.34-57.59c9.66,7.59,47.44,40.66,47.44,40.66,0,0-128.78,29.93-184.78,65.93l-46-49Z"
                        style="stroke: #000; stroke-linecap: round; stroke-linejoin: round; stroke-width: 10.57px;"
                    ></path>
                    <path d="M1886.5,2584.5s106.62-64.03,165-66c0,0,51.29,21.77,49.65,45.39-19.65,6.61-104.65,39.61-155.65,64.61l-59-44Z" style="stroke: #000; stroke-linecap: round; stroke-linejoin: round; stroke-width: 10.57px;"></path>
                </g>
                <path
                    d="M2064.75,2512.12s-62.23,6.51-74.46,26.62l52.21,48.76s59.73-31.6,69.36-21c4.72-5.95,6-21.19,6-21.19l-53.11-33.19Zm-10.25,40.38l-19.31-15.1,41.04-10.16,23.34,13.93-45.07,11.33Z"
                    style="fill: #c6c6c6; stroke: #000; stroke-linecap: round; stroke-linejoin: round; stroke-width: 13px;"
                ></path>
                <path
                    d="M1979.5,2438.5s-62.56-.59-77,18l46,50s63.27-20.25,71.64-8.62c5.36-5.38,8.36-20.38,8.36-20.38l-49-39Zm-18.5,38.5l-18-19c15-7,37-6,37-6l21,19c-16,0-40,6-40,6Z"
                    style="fill: #c6c6c6; stroke: #000; stroke-linecap: round; stroke-linejoin: round; stroke-width: 13px;"
                ></path>
                <path
                    d="M1919.62,2319.08s14.27,23.05-12.42,28.24c-26.69,5.19-70.02,16.94-70.02,16.94v72.28s78.33-12.03,102.33-32.03c3-4,25.24-78.85-19.88-85.42Zm8.38,71.92c-4,6-51,16-51,16l1-34,50-13s3,21,0,31Z"
                    style="fill: #c6c6c6; stroke: #000; stroke-linecap: round; stroke-linejoin: round; stroke-width: 13px;"
                ></path>
                <path
                    d="M1329.27,2516.94s-99.91,4.4-171.36,21.84l18.83,53.39s128.76-18.66,173.76-23.66l-21.23-51.56Zm-120.4,49.12l-5.54-15.82c13.82-5.47,101.29-14.09,101.29-14.09l6.89,17.41c-28.98,.99-102.63,12.5-102.63,12.5Z"
                    style="fill: #c6c6c6; stroke: #000; stroke-linecap: round; stroke-linejoin: round; stroke-width: 13px;"
                ></path>
                <path
                    d="M1221,2380.34s-95.39-23.68-169.33-20.81l-3.73,79.6s128.47,10.03,171.45,24.36l1.61-83.14Zm-132.5,32.18l1.14-23.58c15.14-3.46,100.56,10.67,100.56,10.67l-.51,26.18c-27.56-7.27-101.19-13.27-101.19-13.27Z"
                    style="fill: #c6c6c6; stroke: #000; stroke-linecap: round; stroke-linejoin: round; stroke-width: 13px;"
                ></path>
                <path
                    d="M1379,2618.52s-99.71,7.65-170.55,27.41l20.55,52.75s126.5-19.18,173.68-25.61l-23.68-54.55Zm-118.74,53.02l-6.05-15.63c13.64-5.92,100.77-17.38,100.77-17.38l7.45,17.18c-28.94,1.93-102.17,15.83-102.17,15.83Z"
                    style="fill: #c6c6c6; stroke: #000; stroke-linecap: round; stroke-linejoin: round; stroke-width: 13px;"
                ></path>
            </g>
        </g>
    </g>
    <g id="Small-Nose" class="nose">
        <defs>
            <style>
                .facial-hair {
                    clip-path: url(#nose-mask);
                }
            </style>
            <clipPath id="nose-mask">
                <path
                    d="M-9.41-4.9V3008.37H3012.89V-4.9H-9.41ZM1875.53,1158.9c-1.37,14.07-10.72,27.57-27.06,39.06-24.37,17.15-54.24,26.16-84.13,25.4-1.77,.12-3.56,.18-5.36,.18-24.76,0-51.42-10.67-55.93-12.56-4.99-1.1-33.88-8.25-44.69-27.84-5.05-9.16-5.47-19.41-1.24-30.47,14.77-38.62,134.42-220.73,139.5-228.47,1.52-2.31,4.32-3.42,7.01-2.77,2.69,.65,4.68,2.91,4.98,5.66,7.36,67.77,26.33,133.15,56.37,194.32l.11,.21c5.48,11.07,11.7,23.62,10.44,37.28Z"
                    style="fill: #1fff1f;"
                ></path>
            </clipPath>
        </defs>
        <path d="M1675.67,1205.83s36.14-36.14,111.81-39.53c75.67-3.39,77.93,3.39,73.41,11.29-4.52,7.91-44.05,76.8-102.78,79.06s-109.55-30.49-82.45-50.82Z" style="opacity: 0.2;"></path>
        <path
            d="M1705.03,1204.7s32.5,14.03,59.17,12.1c28.5,.8,57.2-7.8,80.5-24.2,11.8-8.3,22.9-19.9,24.3-34.3,1.1-11.9-4.6-23.3-9.9-34-30.2-61.5-49.6-128.4-57-196.5"
            style="fill: none; stroke: #000; stroke-linecap: round; stroke-linejoin: round; stroke-width: 13.11px;"
        ></path>
    </g>
    <g id="Shouting" class="mouth">
        <defs>
            <style>
                .under-mouth {
                    clip-path: url(#facial-hair-mask);
                }
            </style>
            <clipPath id="facial-hair-mask">
                <path
                    d="M-9.41-9.41V3008.37H3003.85V-9.41H-9.41ZM1937.4,1351.84c-2.14,42.83-20.97,72.2-57.55,89.79-13.75,6.62-29.78,11.59-50.46,15.65-30.58,6.01-76.9,9.75-120.76,9.75-46.96,0-91.11-4.29-110.16-14.67-2.91-1.02-14.46-5.46-25.89-15.18-17.35-14.76-26.19-34.69-25.57-57.61,.32-11.9,3.19-24.8,8.53-38.34,1.62-4.11,3.62-8.11,5.96-11.88,18.94-30.65,61.17-50.31,125.51-58.4,50.68-6.38,102.46-3.85,124.56-2.77l1.04,.05c3.65,.18,7.46,.31,11.5,.46,20.49,.73,43.71,1.56,64.21,8.18,34.48,11.1,50.98,36.33,49.05,74.97Z"
                    style="fill: #ff8622;"
                ></path>
            </clipPath>
        </defs>
        <g>
            <g>
                <path
                    d="M1678.48,1361.84l1.7-.15c144.57-46.31,196.52,73.41,196.52,73.41l.33,.68c-14.76,7.11-31.51,11.72-48.89,15.13-63.25,12.43-193.13,14.69-227.02-4.51,0,0-48.98-15.55-47.6-66.65h.17s63.94-44.41,124.79-17.91Z"
                    style="fill: #c43f6c;"
                ></path>
                <path d="M1564.98,1413.64c1.54,3.22,70.02-64.38,152.47-22.59,0,0,84.71-33.88,129.88,5.65,0,0,57.6-19.2,32.75-80.19s-206.68-38.4-299.29,0c-14.68,32.75-40.66,45.18-15.81,97.13Z" style="opacity: 0.2;"></path>
                <path d="M1886.35,1283.06l-.61,4.09s9.03,28.23-21.46,35.01c-30.5,6.78-293.65,7.91-295.01,11.04l-2.23-.42c42.32-68.51,201.18-60.2,245.28-58.05,21.87,1.06,50.41,.7,74.03,8.33Z" style="fill: #fff;"></path>
                <path
                    d="M1885.74,1287.15l.61-4.09c26.39,8.5,46.63,26.96,44.56,68.46-2.27,45.35-24.01,69.9-53.88,84.26l-.33-.68s-51.95-119.72-196.52-73.41l-1.7,.15c-60.85-26.5-124.79,17.92-124.79,17.92h-.17c.28-10.5,2.69-22.48,8.08-36.14,1.5-3.81,3.32-7.42,5.44-10.84l2.23,.42c1.36-3.13,264.51-4.26,295.01-11.04,30.49-6.78,21.46-35.01,21.46-35.01Z"
                    style="fill: #661240;"
                ></path>
            </g>
            <g>
                <path
                    d="M1877.03,1435.78c-14.76,7.11-31.51,11.72-48.89,15.13-63.25,12.43-193.13,14.69-227.02-4.51,0,0-48.98-15.55-47.6-66.65,.28-10.49,2.69-22.47,8.08-36.13,1.5-3.81,3.32-7.42,5.44-10.84,42.32-68.51,201.18-60.2,245.28-58.05,21.87,1.06,50.41,.7,74.03,8.33,26.39,8.5,46.63,26.96,44.56,68.46-2.27,45.35-24.01,69.9-53.88,84.26Z"
                    style="fill: none; stroke: #000; stroke-linecap: round; stroke-linejoin: round; stroke-width: 13px;"
                ></path>
                <path d="M1569.27,1333.2c1.36-3.13,264.51-4.26,295.01-11.04,30.49-6.78,21.46-35.01,21.46-35.01" style="fill: none; stroke: #000; stroke-linecap: round; stroke-linejoin: round; stroke-width: 13px;"></path>
                <path d="M1553.69,1379.76s63.94-44.42,124.79-17.92c17.98,7.83,35.69,21.85,51.4,45.03" style="fill: none; stroke: #000; stroke-linecap: round; stroke-linejoin: round; stroke-width: 13px;"></path>
                <path d="M1876.7,1435.1s-51.95-119.72-196.52-73.41" style="fill: none; stroke: #000; stroke-linecap: round; stroke-linejoin: round; stroke-width: 13px;"></path>
            </g>
            <path d="M1560.47,1356.04s53.08-64.38,173.93-62.12,178.45,2.26,195.39,36.14c0,0,20.33-54.21-110.68-57.6s-236.05,5.65-258.63,83.58Z" style="opacity: 0.2;"></path>
        </g>
    </g>
    <g id="NoFacialHair" class="facial-hair"></g>
    <g id="Shoulder-Bob-Blonde" class="hair">
        <g class="hair-inner">
            <defs>
                <style>
                    .hair-color path {
                        fill: #f4e8a8;
                    }
                    .eyes {
                        clip-path: url(#eye-mask);
                    }
                </style>
                <clipPath id="eye-mask">
                    <path
                        d="M-9.41-13.93V3008.37H3012.89V-13.93H-9.41ZM1768.89,633.97l-247.05-17.97c-4.85,.01-82.59,.34-134.23,8.95-8.92,1.49-50.58,41.49-106.45,127.21-35.69,54.76-102.11,167.41-145.88,306.52-38.81,123.34-51.41,239.36-37.45,344.85,16.89,127.65,73,238.93,166.77,330.74,2.25,2.21,2.6,5.71,.82,8.31-1.24,1.82-3.28,2.83-5.37,2.83-.9,0-1.81-.19-2.67-.58-5.18-2.34-114.45-52.14-154.68-105.78l-3.31,59.56c-.13,2.36-1.53,4.46-3.66,5.49-2.13,1.03-4.65,.82-6.58-.54-3.01-2.13-69.05-49.28-82.06-101.39-15.71,14.08-34.18,34.5-34.18,46.38,0,2.34-1.26,4.5-3.29,5.65-2.03,1.15-4.53,1.13-6.54-.07-.92-.55-22.08-13.26-52.74-39.2-65.05,42.97-146.61,114.57-147.44,115.3-1.73,1.52-4.13,2.01-6.32,1.29-2.19-.72-3.83-2.54-4.32-4.79-.45-2.08-45.39-209.36-63.31-339.13-28.44-144.17-35.82-275.82-21.95-391.3,11.43-95.17,37.33-180.14,76.97-252.55,30.04-54.88,67.57-102.01,111.52-140.11,34.97-30.31,65.05-46.97,80.33-54.38,38.08-32.44,77.25-58.67,116.42-77.97,48.03-23.66,96.54-37.11,144.19-39.97,69.33-4.16,143.47,1.41,220.39,16.54,71.32-15.24,141.24-21.84,207.81-19.64,59.45,1.97,116.55,10.94,169.72,26.67,87.15,25.78,164.22,70.66,211.44,123.13,34.49,38.32,61.97,103.15,81.7,192.69,14.61,66.3,19.29,122.29,19.33,122.85,.2,2.4-.96,4.72-2.99,6.01-2.04,1.29-4.62,1.36-6.71,.16-24.74-14.14-31.6-16.38-32.69-16.68-2.02-.19-3.88-1.33-4.95-3.12-48.8-81.18-125.38-143.82-181.03-182.07-55.71-38.29-102.14-60.46-109.54-63.91Zm389.69,889.77c-1.76,.88-40.3,19.74-96.28,15.87,16.68,19.09,52.38,54.59,89.4,57.68,3.27,.27,5.82,2.94,5.95,6.21,.13,3.28-2.19,6.14-5.43,6.68-1.67,.28-3.53,.62-5.61,1.01-20.19,3.72-57.72,10.64-129,.99l-6.54,.34c-2.6,.15-9.9,1.5-12.36,5.88-2.43,4.32,.23,11.2,2.89,16.2,1.34,2.52,.88,5.62-1.14,7.64-1.25,1.25-2.92,1.91-4.61,1.91-1.03,0-2.07-.25-3.03-.75l-92.3-48.67c-2.28-.54-6.17-2.06-11.04-6.36-4.26-1.75-6.73-5.05-8.59-8.13-.89-1.48-1.17-3.25-.75-4.92,.41-1.68,1.48-3.12,2.95-4.01,81.37-49.09,144.72-119.89,188.27-210.45,.67-1.4,1.82-2.51,3.23-3.13,2.25-2.03,6.19-12.56,8.48-22.65,.1-.45,.16-.73,.18-.82,.8-3.48,4.27-5.66,7.76-4.88,3.49,.78,5.69,4.24,4.93,7.73,0,.03-.03,.14-.07,.33-1.19,5.44-19.96,94.21,12.64,143.29,11.17,16.81,27.41,27.17,48.27,30.8,2.77,.48,4.91,2.68,5.32,5.46,.41,2.78-1.01,5.5-3.52,6.76Z"
                        style="fill: #1aff2a;"
                    ></path>
                </clipPath>
            </defs>
            <g class="hair-color">
                <path
                    d="M2000.94,582.4c-79.09-87.87-282.1-192.83-584.09-127.88-65.53-12.98-141.42-21.41-220.05-16.69-101.63,6.1-190.46,59.75-257.43,116.94-57.35,27.56-367.24,207.5-244.03,831.77,18.07,131.01,63.25,338.82,63.25,338.82,0,0,85.41-75.16,152.25-118.53,32.62,28.04,55.56,41.73,55.56,41.73,0-22.59,45.18-58.73,45.18-58.73,4.52,54.21,81.32,108.42,81.32,108.42l4.52-81.32c22.59,58.73,162.63,121.98,162.63,121.98-433.69-424.66,72.28-1111.34,126.49-1120.37s135.53-9.04,135.53-9.04l248.47,18.07s198.78,89.79,294.49,249.03c0,0,3.67-.56,35.29,17.51,0,0-18.07-221.36-99.39-311.72Z"
                    style="stroke: #000; stroke-linecap: round; stroke-linejoin: round; stroke-width: 13px;"
                ></path>
                <path
                    d="M2047.24,1531.48c63.25,9.04,108.42-13.55,108.42-13.55-103.91-18.07-66.07-182.21-66.07-182.21,0,0-5.56,25.45-12.37,27.96-36.18,75.22-95.06,155.47-190.77,213.2,1.92,3.17,3.72,5.03,6.44,5.81,6.02,5.65,9.79,5.84,9.79,5.84l93.18,49.13c-16-30.12,14.87-31.62,14.87-31.62l7.15-.38c78.38,10.68,116.05,.99,133.27-1.88-54.21-4.52-103.91-72.28-103.91-72.28Z"
                    style="stroke: #000; stroke-linecap: round; stroke-linejoin: round; stroke-width: 13px;"
                ></path>
            </g>
            <g>
                <path d="M1660.98,549.64s-216.85-20.33-291.39,81.32" style="fill: none; stroke: #000; stroke-linecap: round; stroke-linejoin: round; stroke-width: 13px;"></path>
                <path d="M860.23,1357.17s-15.81,160.38,49.69,250.73" style="fill: none; stroke: #000; stroke-linecap: round; stroke-linejoin: round; stroke-width: 13px;"></path>
            </g>
            <g style="opacity: 0.1;">
                <path
                    d="M2067.02,868.17c-17.91-286.07-351.83-342.25-351.83-342.25,0,0-399.81-149.08-596.33,352.38-196.52,501.46,47.44,769.13,47.44,769.13l6-16.55c-266.82-423.59,164.42-1004.04,214.23-1012.34,54.21-9.04,135.53-9.04,135.53-9.04l248.47,18.07s194.26,94.87,266.54,207.81c0,0,12.65,16.26,29.95,32.79Z"
                ></path>
                <path
                    d="M2047.24,1531.48c63.25,9.04,108.42-13.55,108.42-13.55-103.91-18.07-66.07-182.21-66.07-182.21,0,0-5.56,25.45-12.37,27.96-36.18,75.22-95.06,155.47-190.77,213.2,1.92,3.17,3.72,5.03,6.44,5.81,6.02,5.65,9.79,5.84,9.79,5.84l93.18,49.13c-16-30.12,14.87-31.62,14.87-31.62l7.15-.38c78.38,10.68,116.05,.99,133.27-1.88-54.21-4.52-103.91-72.28-103.91-72.28Z"
                ></path>
                <path
                    d="M736,1603.38c6.78-4.52,90.35-81.32,101.65-309.46s15.81,110.68,15.81,110.68c0,0,13.55,142.31,42.92,180.71,0,0,20.33,20.33-6.78,36.14s-110.68,88.09-117.46,94.87-18.07,13.55-20.33-11.29-15.81-101.65-15.81-101.65Z"
                ></path>
            </g>
        </g>
    </g>
    <g id="Determined-Lashes" class="eyes">
        <defs>
            <style>
                @keyframes blink-shut {
                    0% {
                        opacity: 0;
                    }
                    50% {
                        opacity: 0;
                    }
                    51% {
                        opacity: 1;
                    }
                    60% {
                        opacity: 1;
                    }
                    61% {
                        opacity: 0;
                    }
                    100% {
                        opacity: 0;
                    }
                }
                @keyframes blink-open {
                    0% {
                        opacity: 1;
                    }
                    50% {
                        opacity: 1;
                    }
                    51% {
                        opacity: 0;
                    }
                    60% {
                        opacity: 0;
                    }
                    61% {
                        opacity: 1;
                    }
                    100% {
                        opacity: 1;
                    }
                }
                .eyes-blink {
                    animation-duration: 2s;
                    animation-name: blink-shut;
                    animation-fill-mode: forwards;
                    animation-iteration-count: infinite;
                }
                .eye-line,
                .eye-pupil,
                .eye-white {
                    animation-duration: 2s;
                    animation-name: blink-open;
                    animation-fill-mode: forwards;
                    animation-iteration-count: infinite;
                }
            </style>
        </defs>
        <g class="eyes-inner">
            <g>
                <g class="eye-line">
                    <g>
                        <path
                            d="M2161.5,973.47c6.79,19.91,9.97,41.6,9.58,65.07-.75,44.08-13.93,81.49-39.56,112.23-25.63,30.72-56.19,45.8-91.7,45.21-35.52-.58-65.56-16.64-90.12-48.21-24.57-31.57-36.48-69.39-35.73-113.47,.34-20.16,3.29-38.92,8.84-56.28l.76,.24s118.59-77.93,199.91-62.69l3.6-.25c2.82,3.08,5.57,6.35,8.26,9.8,11.49,14.75,20.21,30.86,26.16,48.35Z"
                            style="fill: #fff;"
                        ></path>
                        <g>
                            <path
                                d="M2127.08,915.32c2.82,3.08,5.57,6.35,8.26,9.8,11.49,14.75,20.21,30.86,26.16,48.35,6.79,19.91,9.97,41.6,9.58,65.07-.75,44.08-13.93,81.49-39.56,112.23-25.63,30.72-56.19,45.8-91.7,45.21-35.52-.58-65.56-16.64-90.12-48.21-24.57-31.57-36.48-69.39-35.73-113.47,.34-20.16,3.29-38.92,8.84-56.28,6.57-20.6,16.82-39.23,30.72-55.9,25.62-30.73,56.19-45.81,91.7-45.23,31.63,.53,58.91,13.33,81.85,38.43Z"
                                style="fill: none; stroke: #000; stroke-linecap: round; stroke-linejoin: round; stroke-width: 13px;"
                            ></path>
                            <path d="M1923.57,978.26s118.59-77.93,199.91-62.69" style="fill: none; stroke: #000; stroke-linecap: round; stroke-linejoin: round; stroke-width: 13px;"></path>
                        </g>
                    </g>
                    <path d="M2172.03,861.87s18.39,51.12-41.31,53.45" style="fill: none; stroke: #000; stroke-linecap: round; stroke-miterlimit: 10; stroke-width: 14px;"></path>
                    <path d="M2142.13,860.13s18.39,51.12-41.31,53.45" style="fill: none; stroke: #000; stroke-linecap: round; stroke-miterlimit: 10; stroke-width: 14px;"></path>
                </g>
                <g class="eye-line">
                    <g>
                        <path
                            d="M1602.03,988.32c5.04,16.68,7.39,34.37,7.06,53.09-.84,48.5-19.41,89.6-55.71,123.3-36.29,33.7-79.7,50.15-130.21,49.34-50.52-.81-93.32-18.64-128.42-53.49-35.1-34.84-52.23-76.52-51.39-125.02,.3-16.9,2.74-32.9,7.35-48,8.59-28.23,24.72-53.32,48.36-75.25,.21-.2,.42-.39,.64-.58l.43,.47s194.82-30.49,301.55,76.24l.34-.1Z"
                            style="fill: #fff;"
                        ></path>
                        <g>
                            <path
                                d="M1299.71,911.71c36.16-33.31,79.36-49.57,129.58-48.76,50.5,.81,93.32,18.64,128.42,53.49,4.39,4.35,8.5,8.82,12.32,13.38,14.97,17.86,25.64,37.36,32,58.5,5.04,16.68,7.39,34.37,7.06,53.09-.84,48.5-19.41,89.6-55.71,123.3-36.29,33.7-79.7,50.15-130.21,49.34-50.52-.81-93.32-18.64-128.42-53.49-35.1-34.84-52.23-76.52-51.39-125.02,.3-16.9,2.74-32.9,7.35-48,8.59-28.23,24.72-53.32,48.36-75.25,.21-.2,.42-.39,.64-.58Z"
                                style="fill: none; stroke: #000; stroke-linecap: round; stroke-linejoin: round; stroke-width: 13px;"
                            ></path>
                            <path d="M1300.14,912.18s194.82-30.49,301.55,76.24" style="fill: none; stroke: #000; stroke-linecap: round; stroke-linejoin: round; stroke-width: 13px;"></path>
                        </g>
                    </g>
                    <path d="M1233.04,858.57s-8.47,64.38,71.15,50.82" style="fill: none; stroke: #000; stroke-linecap: round; stroke-miterlimit: 10; stroke-width: 14px;"></path>
                    <path d="M1276.53,857.44s-8.47,64.38,71.15,50.82" style="fill: none; stroke: #000; stroke-linecap: round; stroke-miterlimit: 10; stroke-width: 14px;"></path>
                </g>
                <g style="opacity: 0.2;">
                    <path
                        d="M1518.13,1194c-12.75,2.86-26.01,4.38-39.62,4.38-99.46,0-180.08-80.63-180.08-180.08,0-66.88,36.46-125.25,90.59-156.3-17.87,4.01-34.73,10.69-50.15,19.57-74.62,21.99-129.1,91-129.1,172.75,0,99.46,80.63,180.08,180.08,180.08,32.57,0,63.13-8.65,89.49-23.78-.46,.1-.92,.19-1.37,.29,14.17-4.03,27.64-9.73,40.16-16.91Z"
                    ></path>
                    <path
                        d="M2106.71,1174.99c-8.34,1.92-16.95,2.94-25.76,2.94-74.56,0-135-72.08-135-161,0-61.04,28.48-114.14,70.46-141.44-21.89,5.04-41.88,16.4-58.62,32.4-42.74,25.94-72.01,78.69-72.01,139.56,0,86.53,59.13,156.67,132.07,156.67,18.96,0,36.99-4.76,53.29-13.29,12.61-3.29,24.56-8.67,35.57-15.83Z"
                    ></path>
                </g>
                <ellipse class="eye-pupil" cx="1504.57" cy="1053.32" rx="25.61" ry="26.68"></ellipse>
                <ellipse class="eye-pupil" cx="2080.94" cy="1050.65" rx="22.66" ry="23.6"></ellipse>
            </g>
            <g class="eyes-blink">
                <path
                    d="M2127.08,915.32c2.82,3.08,5.57,6.35,8.26,9.8,11.49,14.75,20.21,30.86,26.16,48.35,6.79,19.91,9.97,41.6,9.58,65.07-.75,44.08-13.93,81.49-39.56,112.23-25.63,30.72-56.19,45.8-91.7,45.21-35.52-.58-65.56-16.64-90.12-48.21-24.57-31.57-36.48-69.39-35.73-113.47,.34-20.16,3.29-38.92,8.84-56.28,6.57-20.6,16.82-39.23,30.72-55.9,25.62-30.73,56.19-45.81,91.7-45.23,31.63,.53,58.91,13.33,81.85,38.43Z"
                    style="fill: none; stroke: #000; stroke-linecap: round; stroke-linejoin: round; stroke-width: 13px;"
                ></path>
                <path
                    d="M1299.71,911.71c36.16-33.31,79.36-49.57,129.58-48.76,50.5,.81,93.32,18.64,128.42,53.49,4.39,4.35,8.5,8.82,12.32,13.38,14.97,17.86,25.64,37.36,32,58.5,5.04,16.68,7.39,34.37,7.06,53.09-.84,48.5-19.41,89.6-55.71,123.3-36.29,33.7-79.7,50.15-130.21,49.34-50.52-.81-93.32-18.64-128.42-53.49-35.1-34.84-52.23-76.52-51.39-125.02,.3-16.9,2.74-32.9,7.35-48,8.59-28.23,24.72-53.32,48.36-75.25,.21-.2,.42-.39,.64-.58Z"
                    style="fill: none; stroke: #000; stroke-linecap: round; stroke-linejoin: round; stroke-width: 13px;"
                ></path>
                <path d="M1243.1,1044.33s221.36-15.81,364.8,21.46" style="fill: none; stroke: #000; stroke-linecap: round; stroke-miterlimit: 10; stroke-width: 14px;"></path>
                <path d="M1916.23,1065.78s173.93-30.49,256.38-15.81" style="fill: none; stroke: #000; stroke-linecap: round; stroke-miterlimit: 10; stroke-width: 14px;"></path>
                <path d="M2214.93,994.76s18.39,51.12-41.31,53.45" style="fill: none; stroke: #000; stroke-linecap: round; stroke-miterlimit: 10; stroke-width: 14px;"></path>
                <path d="M2185.04,993.01s18.39,51.12-41.31,53.45" style="fill: none; stroke: #000; stroke-linecap: round; stroke-miterlimit: 10; stroke-width: 14px;"></path>
                <path d="M1193.52,991.84s-8.47,64.38,71.15,50.82" style="fill: none; stroke: #000; stroke-linecap: round; stroke-miterlimit: 10; stroke-width: 14px;"></path>
                <path d="M1237,990.71s-8.47,64.38,71.15,50.82" style="fill: none; stroke: #000; stroke-linecap: round; stroke-miterlimit: 10; stroke-width: 14px;"></path>
            </g>
        </g>
    </g>
    <g id="Skis" class="accessory">
        <defs>
            <clipPath id="1032-clip-path">
                <path
                    d="M2475.39-15c-454,0-422.52,1399.68-422.52,1617S2197,2943,2414.41,2943,2840,1819.43,2840,1602.07,2905.7-15,2475.39-15ZM2386,1754c-1.68-17.49,6.71-31.44,15.21-40.79,3.88-4.27,10.1-8,15.79-10.21-28-24-25.44-47.56-18-68,5-13.87,22.63-27.54,33-32-4.77-8.56-8.22-25.26-6-36,7.84-38.07,37.42-46,86-46a133.23,133.23,0,0,1,22,2c14,2,7-10,8-28l1-14,12.89,1.69c5.53,1.34,22.61,9.78,27.11,11.28,15.82,5.27,29.55,15.85,39.72,30.59,9.62,14,13.38,27,12.28,43.44-1,15-7.2,33.73-15,46-6.78,10.65-16.11,14.46-28,21,8.07,11.84,20.84,32.88,16,55-3.75,17.12-16,35-42,46,4.35,11.88,13.66,35,2,53-11,17-30,23-55.26,26.69-4.64.68-9.32.4-13.78.4-25.25,0-54-2.09-82-18.09-18.78-10.73-25-23-30-35"
                    style="fill: none;"
                ></path>
            </clipPath>
        </defs>

        <g style="clip-path: url(#1032-clip-path);">
            <g>
                <path
                    d="M2439.52,2824.37h-97.66a11.88,11.88,0,0,1-11.88-11.79L2300.28,206.9c0-53.91,43.44-86.34,76.93-86.34h25.5c28.23,0,78.39,25.72,78.39,87.79l-29.7,2604.23A11.88,11.88,0,0,1,2439.52,2824.37Z"
                    style="fill: #ea1f1b; stroke: #000; stroke-miterlimit: 10; stroke-width: 13.8097364466298px;"
                ></path>
                <path d="M2387.49,155.79s10.65,61.76-63.89,138.44c0,0,74.54-44.73,134.18,0C2457.78,294.23,2406.66,266.54,2387.49,155.79Z"></path>
                <g>
                    <line x1="2390.69" y1="2062.88" x2="2390.69" y2="2774.05" style="fill: none; stroke: #000; stroke-miterlimit: 10; stroke-width: 13.8610423803329px;"></line>
                    <line x1="2394.04" y1="757.94" x2="2390.69" y2="318.48" style="fill: none; stroke: #000; stroke-miterlimit: 10; stroke-width: 13.8610423803329px;"></line>
                </g>
            </g>
            <g>
                <path
                    d="M2468.76,2842.16l-98.59-2.81a12,12,0,0,1-11.66-12.25l45.16-2631.59c1.56-54.42,46.35-85.91,80.16-84.94l25.75.73c28.5.82,78.4,28.23,76.61,90.89L2481.1,2830.6A12,12,0,0,1,2468.76,2842.16Z"
                    style="fill: #ff3324; stroke: #000; stroke-miterlimit: 10; stroke-width: 13.9481797218323px;"
                ></path>
                <path d="M2493.2,146.42s9,62.67-68.5,137.94c0,0,76.55-43,135.47,3.87C2560.17,288.23,2509.36,258.8,2493.2,146.42Z"></path>
                <g>
                    <line x1="2441.43" y1="2071.94" x2="2420.91" y2="2789.95" style="fill: none; stroke: #000; stroke-miterlimit: 10; stroke-width: 14px;"></line>
                    <line x1="2482.45" y1="754.55" x2="2491.73" y2="310.78" style="fill: none; stroke: #000; stroke-miterlimit: 10; stroke-width: 14px;"></line>
                </g>
            </g>
            <path d="M2455,1556s-63-4-71.19,41.74C2378,1624,2395,1644,2411,1652c0,0-46,8-46,45s43,53,43,53-60,8-42,54,154.46,51.24,154.46,51.24L2534,1560.47Z" style="opacity: 0.2;"></path>
        </g>
    </g>
</svg>
