<?xml version="1.0" encoding="UTF-8"?>
<svg xmlns="http://www.w3.org/2000/svg" viewBox="0 0 128 128">
  <g class="head-icon">
    <path d="m73.2,112.03h.09c.02-.05,0-.09-.05-.09s-.07.04-.05.09Z" />
    <path d="m100.53,46.89c-.71-.35-1.4-.77-1.87-1.38-.82-1.06-2-1.32-3.18-1.62-.26-.07-.41-.26-.5-.46-.09-.2-.09-.44.27-.33.11.03.25.09.27-.06.05-.59.46-1.03.62-1.56.07-.22.05-.42.33-.53-.28-.06-.55,0-.8-.07-.43-.1-.98-.02-1.23-.47-.17-.32-.22-.72-.16-1.12.17-1.08.49-2.14.34-3.24-.13-1.01-.37-2-1.36-2.54-.75-.41-1.46-.9-2.24-1.26-.68-.32-1.38-.62-1.95-1.14-.41-.38-.87-.68-1.41-.87-.35-.12-.63-.35-.86-.68-.34-.52-.51-1.08-.65-1.68-.2-.9-.58-1.73-1.15-2.46-.11.08-.19.18-.22.36-.09.56-.74.83-1.15.45-.46-.43-.86-.92-.8-1.63.05-.58.29-.78.86-.61.17.05.31.3.52.03.19-.23.18-.45.09-.7-.49-1.44-.91-2.91-1.61-4.28-.46-.9-1.02-1.66-1.92-2.15-.22-.12-.37-.12-.54.08-.33.39-.68.76-.9,1.24-.27.59-.58.67-1.13.33-.15-.09-.29-.19-.42-.3-.31-.26-.59-.56-.91-.81-.89-.7-1.98-.9-3.02-1.22-.17-.05-.3.04-.36.26-.11.37-.21.78-.51,1.03-.33.27-.31.41.08.53-.23.26-.43.37-.77.27-.36-.1-.12-.27-.13-.42,0-.05-.06-.11-.11-.13-.95-.54-1.91-.98-3.06-.78-.56.1-1.14.11-1.7,0-1.32-.25-2.66-.37-3.99-.51-.35-.04-.65.15-.97.17-.72.04-1.42.21-2.12.36-.44.1-.79.05-1.08-.24-.16-.15-.3-.18-.5-.17-.98.03-1.97.03-2.94.26-.21.05-.69.56-.61.71.24.49.66.83,1.08,1.14.2.14.51.13.75-.07.5-.41,1-.8,1.65-.99.27-.08.53-.28.74.06.21.34.34.71,0,1.04-.33.31-.65.6-1.1.77-.31.12-.65.1-.95.26-.54.3-1.06.63-1.56,1-.28.21-.56.11-.62-.25-.02-.14-.01-.28-.01-.43,0-.64-.39-1.1-1-1.22-.18-.04-.3-.05-.44.14-.32.45-.7.86-1.02,1.31-.21.3-.43.09-.63.06-.23-.03-.24-.21-.2-.4.12-.56.33-1.08.83-1.38.47-.28.99-.48,1.58-.38.04-.26.06-.53.09-.8.04-.32-.07-.74-.33-.86-.7-.3-1.48-.29-2.21-.08-.31.09-.6.17-.92.16-.83-.01-1.66-.17-2.5-.15-.42,0-.8.19-1.2.19-.69,0-1.39-.03-2.08,0-.74.04-1.48.15-2.15.48-.9.45-1.29,1.29-1.55,2.21-.02.08-.05.17.02.22.08.06.17.01.26-.03.47-.21.81-.58,1.19-.9.71-.61,1.39-1.25,2.4-1.31.17,0,.27-.1.38-.23.25-.3.73-.25.93.06.34.51.36,1.08.29,1.65-.05.37-.19.7-.69.65-.14-.01-.3.08-.45.13-1.12.32-2.15.91-3.3,1.13-.35.07-.72.09-1.06.27-.94.49-1.79,1.11-2.58,1.8-1,.88-1.81,1.86-1.68,3.31.02.24-.05.45-.19.65-.48.68-.8,1.48-1.48,2.05.5-.29,1.02-.46,1.58-.55.61-.1,1.19-.02,1.75.18.52.19.46,1.32-.1,1.68-.22.15-.43.3-.63.48-.57.52-2.16.73-2.81.31-.69-.44-1.41-.87-2-1.46-.21-.21-.46-.19-.65-.09-.21.1-.11.35-.02.51.51.89.98,1.81,1.79,2.49.13.11.26.23.35.38.12.21.12.38-.21.39-.35,0-.67-.06-1-.17-.89-.31-1.81-.5-2.69-.83-.57-.21-1.09-.22-1.64-.02-.45.16-.9.31-1.33.57-.32.2-.78.22-1.14.48.52.55.91,1.15,1.27,1.78.63,1.11,1.29,2.2,1.77,3.39.1.24-.07.69.49.64-.32-.05-.51.18-.75.24-.44.11-.9.23-1.27.59-.62.6-1.04,1.32-1.5,2.04-.37.59-.33,1.07-.08,1.64.29.67.69,1.33.57,2.12-.03.2-.1.39-.13.59-.17,1.2-.23,2.42-.31,3.63-.03.42-.03.86-.16,1.29-.2.69.26,1.27,1.01,1.35,1,.11,1.17.29,1.15,1.3-.02,1.16-.12,2.31-.16,3.47-.03.92,0,1.85-.06,2.76-.03.52-.04,1,.12,1.49.11.35.45.55.54.93.27,1.19.62,2.37.89,3.56.19.81.19,1.61-.24,2.39-.17.31-.19.71-.22,1.07-.16,1.69.22,3.31.78,4.87.5,1.39.67,2.83.94,4.26.09.47.31.9.35,1.38,0,.06.06.24.21.21.14-.03.14-.17.11-.28-.2-.85.12-1.69.03-2.54-.08-.75-.13-1.51-.17-2.26-.01-.25-.25-.42-.17-.71.16-.61.21-1.23.19-1.86,0-.22.04-.42.12-.63.28-.79.42-1.62.42-2.46,0-.36-.15-.73-.24-1.09-.06-.27-.26-.41-.51-.38-.4.06-.73-.28-1.14-.14-.09.03-.18-.11-.18-.23,0-.17.01-.35,0-.52-.03-.26.13-.32.31-.27.38.12.78.05,1.16.1.32.04.68.09.9.37.37.49.37,1.13.64,1.67.03.06.05.17.02.23-.31.72-.11,1.47-.14,2.2-.01.36.21.58.56.65.29.06.59.11.88.16.46.09.9.53.79.83-.19.49-.48.91-1,1.12-.52.21-1.01.48-1.21,1.05-.1.3-.1.64-.18.96-.22.93-.04,1.8.43,2.61.09.16.17.32.18.47.05.79.54,1.36.93,1.98.17.27.43.23.72.13.3-.1.27-.31.26-.53-.02-.62-.32-1.18-.42-1.79-.11-.66-.18-1.33.29-1.89.25-.3.54-.58.82-.85.43-.42.82-.41,1.13.1.67,1.08,1.12,2.23.86,3.55-.15.75.06,1.1.69,1.53.66.45,1.35.86,1.82,1.52.22.3.48.53.77.76.27.21.46.16.63-.1.13-.21.2-.45.23-.71.08-.74-.23-1.32-.69-1.84-.83-.94-1.44-2.03-2.13-3.06-.07-.11-.11-.22-.14-.34-.2-.93-.56-1.75-1.53-2.14-.16-.06-.33-.14-.41-.31-.36-.82-.45-1.66-.15-2.52.2-.59.39-1.19.27-1.79-.14-.68.05-1.25.35-1.81.45-.87.78-1.73.66-2.79-.16-1.39.25-2.78.2-4.19-.01-.42.03-.88.1-1.31.14-.87.28-1.74.32-2.62.08-1.59.61-3.08,1.04-4.58.22-.75.32-1.5.38-2.27.05-.57-.51-.9-1.05-.69-.25.1-.5.18-.75.28-.17.07-.34.2-.52,0-.18-.2-.26-.4-.18-.69.09-.3.25-.58.34-.88.26-.82.16-1.66.17-2.49,0-.62.28-1.13.6-1.6.39-.58.88-1.1,1.29-1.67.48-.69.94-1.4,1.67-1.84.7-.42,1.18-1.17,2.07-1.29.15-.02.29-.13.38-.26.24-.34.47-.21.63.06.2.33.47.42.84.42.73.01,1.22-.47,1.75-.84.27-.19.5-.46.8-.58.99-.38,2.03-.52,3.09-.49.34,0,.65-.09.95-.25.67-.35,1.4-.58,2.14-.3,1.04.39,1.95.01,2.86-.38.45-.2.88-.35,1.35-.13,1.05.5,2.18.46,3.3.42.55-.02,1.11-.07,1.62-.25.68-.23,1.38-.42,2.02-.78.48-.26,1.02-.4,1.59-.4.93,0,1.83-.14,2.72-.43.36-.12.73-.07,1.08.17.28.19.57.37.91.48,1.06.33,2.03.84,2.83,1.64.56.57,1.19,1.07,2.02,1.11.75.03,1.51,0,2.26-.03.55-.02,1.09-.07,1.62-.29.25-.1.53-.28.81-.1.74.47,1.48.94,1.97,1.71.33.53.91.9,1.12,1.52.15.43.36.82.6,1.19.56.84.96,1.77,1.28,2.71.3.89.62,1.8.81,2.74.1.52.37,1,.57,1.5.06.14.14.27.32.13.3-.25.71-.38.92-.73.35-.58.78-1.09.52-1.9-.23-.71-.24-1.48-.34-2.23-.02-.14,0-.26.14-.31.13-.05.25,0,.33.11.07.09.14.18.18.27.39.84,1.04,1.52,1.53,2.3.34.54.73,1.07,1.04,1.63.31.56.43,1.21.85,1.74.41.52.79,1.05,1.45,1.27.19.06.36.4.56.16.18-.22-.11-.46-.15-.7,0-.07-.1-.11-.15-.18-.53-.74-1.13-1.45-1.09-2.45,0-.13-.05-.29-.12-.4-.19-.27-.23-.57-.22-.89.01-.45-.02-.92-.24-1.29-.33-.54-.66-1.09-.91-1.67-.2-.47-.48-.82-.9-1.1-.19-.12-.59-.36-.38-.6.23-.26.58,0,.83.2.07.06.11.15.17.23.43.53.87,1.09,1.5,1.33.7.28,1.08.89,1.65,1.3.1.07.06.2.05.31-.09,1.13.22,2.2.56,3.25.29.9.56,1.76.4,2.73-.18,1.06.06,2.14-.12,3.22-.23,1.4-.27,2.82-.66,4.2-.12.43-.14.9,0,1.31.15.45.19.93.12,1.34-.07.39.03.86-.31,1.19-.27.26-.41.61-.35.95.13.83-.06,1.64-.04,2.45,0,.16-.09.41.15.43.22.02.52,0,.62-.24.19-.46.5-.86.67-1.34.44-1.23.71-2.5,1.02-3.77.18-.73.52-1.43.55-2.18.05-1.31.38-2.57.66-3.84.09-.4.29-.83.3-1.17.03-.52.2-.99.27-1.49.08-.54.05-1.08-.35-1.5-.41-.44-.77-.9-1.03-1.47-.55-1.2-1.17-2.37-1.76-3.55-.08-.15-.12-.33-.17-.49-.07-.23.04-.4.26-.41.36-.02.71-.05,1.07.1.87.38,1.8.55,2.71.77.35.08.35-.25.45-.43.12-.21-.08-.26-.22-.33Zm-72.02-1.44c-.2-.08-.04-.34-.09-.48,0-.09-.01-.15-.01-.22-.01-.4.3-.55.57-.55.39,0,.1.3.1.46,0,.19.15.39-.04.58-.16.15-.36.29-.53.22Zm3.99.77c-.91.63-1.56,1.54-2.36,2.29-.35.33-.7.68-1.05,1.02-.08.08-.17.17-.28.09-.11-.08-.05-.19-.05-.3.04-.51.3-.86.68-1.2.67-.62,1.2-1.37,1.98-1.89.43-.29.92-.44,1.31-.78.14-.12.29-.1.35.1-.1.34-.36.52-.6.68Zm16.9-19.78c-.17.74-.27,1.48-.18,2.24.01.1,0,.19-.11.23-.12.04-.21-.03-.29-.11-.24-.26-.26-.6-.3-.93-.02-.19,0-.38,0-.7-.12-.55.19-1.15.39-1.77.03-.1.08-.18.18-.19.14-.01.21.08.22.2.05.34.17.68.09,1.03Zm33.13,7.76c-.44-.13-.74-.48-.9-.85-.32-.76-.85-1.38-1.27-2.07-.22-.36-.64-.59-.96-.89-.27-.25-.71-.56-.46-.92.24-.34.58.1.83.24.54.3,1.18.49,1.49,1.11.06.13.2.23.22.36.15.85.7,1.53,1,2.32.08.22.23.41.34.6-.04.23-.17.15-.29.11Z" />
    <path d="m60.65,62.38c-.22-.51-.6-.62-1.09-.66-.61-.05-1.21-.08-1.8-.32-.86-.35-1.78-.6-2.7-.73-1.03-.14-2.06-.26-3.11-.21-1.14.05-2.27.02-3.4-.19-1.06-.2-2.02-.01-2.77.85-.25.29-.45.61-.85.78-1.08.49-2.01,1.24-2.27,2.42-.23,1.06-.57,2.09-.78,3.16-.13.63.01,1.22.13,1.82.03.13.07.3.22.34.16.04.17-.16.26-.23.29-.21.35-.61.63-.81.69-.49,1.14-1.22,1.77-1.75.13-.11.16-.27.22-.41.2-.42.32-.88.62-1.26.65-.81,1.56-1.13,2.51-1.39.28-.08.59-.18.89-.08.37.12.75.11,1.13.08.9-.06,1.72.2,2.55.49.11.04.28.06.24.23-.03.11-.17.13-.28.15-.65.11-1.31.2-1.97.21-.4,0-.81.04-1.21.14-1.08.28-2.01.83-2.87,1.52-.27.22-.5.52-.86.64-.37.12-.59.39-.71.76-.22.72-.6,1.34-1.25,1.76-.17.11-.28.25-.38.42-.1.16-.43.25-.15.52.24.23.42.48.84.28.4-.19.78-.41,1.13-.67.57-.43,1.27-.65,1.78-1.15.66-.65,1.43-.74,2.3-.53.71.17,1.38.58,2.15.45.27-.05.53-.06.88-.04.42-.19.8.2,1.25.26.33.05.41.4.27.69-.1.22-.28.43-.47.58-.95.76-2.04.92-3.21.74-.49-.08-.97-.29-1.49-.23-.27.03-.58-.03-.65.32-.07.33-.04.61.29.87.37.3.79.47,1.22.59.27.08.36.4.67.39.46-.01.91-.03,1.35-.21.57-.23,1.16-.4,1.75-.58,1.02-.31,2.06-.57,3.09-.83.16-.04.37-.08.4-.28.04-.21-.17-.27-.3-.38-.61-.47-.55-1.1.14-1.45.41-.21.88-.3,1.19-.71.4-.52.89-.56,1.46-.19.52.34,1.46.04,1.58-.57.11-.56.35-1.07.43-1.64.07-.47,0-.95.16-1.4.21-.6.12-1.14-.25-1.65-.23-.32-.53-.6-.69-.95Z" />
    <path d="m84.18,63.92c-.84-.48-1.33-1.28-1.9-1.99-.87-1.1-2-1.66-3.36-1.58-1.04.06-2.08.02-3.12.15-1.28.16-2.59.06-3.87.27-1.09.17-2.18.44-3.29.3-.85-.11-1.49.23-2.1.74-.52.43-1.21.29-1.51-.31-.08-.15-.17-.3-.25-.45-.13-.24-.31-.45-.58-.4-.33.06-.27.37-.29.62-.04.65.16,1.31-.09,1.96-.1.27.02.49.34.56.66.16,1.25.51,1.86.8.79.39,1.41.9,1.28,1.91-.05.41.14.78.32,1.12.15.3.36.52.76.26.2-.13.48-.15.63.1.26.44.56.89.27,1.45-.25.47-.23.86.2,1.28.88.88,2.03,1.15,3.15,1.44.78.2,1.61.32,2.44.23.41,0,.82,0,1.23,0,.2,0,.4-.04.46-.25.06-.22.1-.48-.1-.67-.11-.11-.25-.2-.38-.27-1.03-.52-2.07-.94-3.25-1-.51-.02-1.03-.17-1.38-.63-.08-.1-.17-.17-.11-.33.3-.77,1.06-.82,1.68-1.09.07-.03.14-.07.21-.09.02,0,.06.03.08.05.52.59,1.2.49,1.88.43,1.46-.13,2.94-.43,4.37.18.43.18.94.13,1.29.54.18.22.23.51.47.69.41.31.77.35.99.02.27-.4-.1-.57-.33-.75-.22-.18-.42-.37-.44-.64-.03-.53-.31-.94-.67-1.24-1.05-.87-2.25-1.52-3.5-2.04-.75-.31-1.56-.41-2.38-.41-1.47,0-2.96-.14-4.39.38-.16.06-.29,0-.34-.15-.06-.17-.02-.32.17-.39.09-.03.19-.01.28-.03.99-.19,2.01-.13,2.98-.45.8-.26,1.65-.36,2.47-.59.93-.27,1.89-.54,2.91-.2.26.09.49.25.76.3.84.18,1.46.77,1.93,1.36.61.75,1.12,1.62,1.51,2.53.14.32.32.3.56.15.3-.18.33-.48.36-.78.06-.7-.09-1.4.14-2.11.09-.27-.01-.79-.33-.97Z" />
    <path d="m97.66,70.63s0-.1-.01-.14c-.09-.28-.24-.45-.55-.28-.15.08-.29.18-.45.24-.31.12-.65.26-.93,0-.38-.35-.8-.69-1.15-1.06-.52-.57-1.06-1.16-1.34-1.92-.08-.22-.23-.41-.35-.61-.48-.75-.67-1.6-.61-2.47.05-.64.09-1.29.12-1.93.06-1.26.09-2.52.22-3.78.07-.67.12-1.44,1.11-1.44.04,0,.1-.06.1-.08-.02-.45.18-.93-.07-1.34-.16-.26-.11-.49-.12-.76-.02-.85.18-1.75-.57-2.46-.23-.22-.39-.27-.65-.15-.51.24-.77.18-1.07-.31-.17-.26-.35-.52-.38-.85,0-.11-.09-.29-.26-.28-.09,0-.17.11-.17.21.08.94-.11,1.92.35,2.8.25.48.18.99.13,1.48-.02.24-.2.45-.06.75-.13.74-.26,1.51-.42,2.28-.09.4-.32.44-.59.13-.25-.29-.47-.59-.47-1.03,0-.35-.12-.73-.3-1.03-.57-.96-.82-1.98-.83-3.08,0-.24-.01-.48-.15-.68-.07-.1-.16-.21-.31-.16-.12.04-.15.16-.14.27.04.62-.02,1.25.02,1.86.05.88.22,1.75.37,2.62.06.36-.06.71.05,1.07.21.69.37,1.4.52,2.11.14.64.08,1.29.09,1.94.01,1.14.08,2.28.43,3.37.21.64.36,1.38,1.04,1.73.72.37,1.33.84,1.83,1.48.29.37.32,1.55.02,1.92-.3.37-.58.75-.88,1.12-.31.38-.27.83-.24,1.27.01.17.13.29.28.35.1.04.21,0,.24-.1.11-.42.51-.68.63-1.08.15-.49.5-.62.95-.59.54.04,1.03.22,1.53.41.6.22.78.66.78,1.23,0,1.37-.01,2.75-.01,4.12,0,.32-.05.62-.13.93-.11.47-.26.97-.05,1.45.23.53.44,1.06.44,1.63,0,.61.32,1.25-.14,1.85-.25.32-.58.54-.88.77-.43.32-.63.69-.54,1.21.02.12-.11.32.12.34.15.01.3-.1.36-.24.18-.39.43-.73.69-1.06.15-.19.25-.41.26-.65,0-.27.1-.5.28-.68.48-.49.48-1.18.26-1.64-.4-.83-.09-1.55.03-2.32.12-.74.48-1.4.77-2.08.42-1.01.77-2.03.88-3.13.11-1.18-.35-2.35-.1-3.54Z" />
    <path d="m75.53,90.23c-.7-.46-1.09-.28-1.49.51-.06.13-.15.2-.27.24-.88.34-1.72.77-2.72.77-1.05,0-2.1.04-3.14.06-.99.02-1.99-.1-2.96.21-1.35.43-2.53-.32-3.78-.57-.22-.05-.42-.13-.68-.13-.98.02-1.95.22-2.93.11-.43-.05-.85-.11-1.27-.06-.82.1-1.34-.19-1.64-.99-.27-.72-.76-.91-1.63-.42-.32.18-.63.35-.99.43-.25-.1-.67,0-.57-.49.15-.79.34-1.58.86-2.22.16-.19.28-.39.11-.58-.19-.22-.43-.06-.58.08-.42.39-.92.59-1.46.74-.45.13-.94.28-1.11.72-.28.72-.7,1.29-1.32,1.74-.31.23-.42.57-.21.92.29.48.58.98.95,1.39.22.24.28.46.21.72-.08.3-.12.61-.23.91-.27.74-.14,1.49.45,2,.79.68,1.68,1.26,2.53,1.88.11.08.24.09.35.02.13-.08.18-.24.1-.33-.28-.35-.42-.86-.86-1.04-.64-.27-.93-.74-1.05-1.39-.11-.57.31-1.32.86-1.42.26-.05.53-.09.8-.09,3.19,0,6.38-.09,9.57-.24.74-.04,1.49.09,2.23-.01,1.39-.2,2.76-.49,4.16-.57,1.18-.07,2.35-.15,3.54-.02,1.12.12,2.26.11,3.39-.02.63-.07,1.26-.35,1.91-.19.25.06.51.15.7-.09.21-.26.09-.54-.05-.8-.42-.77-1.1-1.31-1.8-1.78Z" />
    <path d="m58.29,86.43c-.38,0-.49.25-.43.58.05.32.26.54.55.66.19.08.36.18.51.32.43.37.9.76,1.45.84,1.15.17,2.31.22,3.51.33.47-.12,1-.1,1.52-.11.31,0,.56-.13.71-.39.15-.25,0-.45-.2-.61-.03-.03-.05-.08-.07-.12-.36-.95-.45-1.97-.49-2.96-.02-.59-.14-1.1-.37-1.61-.06-.13-.13-.27-.27-.32-1.01-.3-2.02-.6-3.03-.88-.17-.05-.35-.02-.45.18-.09.18-.14.34,0,.53.13.18.24.37.35.56.09.16.21.34.06.52-.13.17-.29.01-.43,0-.25-.01-.41-.18-.53-.36-.99-1.52-2.52-1.36-4.02-1.31-.16,0-.51.13-.32.42.22.34.33.71.44,1.07.24.81.57,1.44,1.55,1.52.33.03.66.31.64.71-.02.38-.35.43-.67.43Z" />
    <path d="m57.28,99.96c-.28.14-.58.22-.9.23-.52.02-1-.12-1.41-.2-.59-.02-.97.4-.73.74.24.33.42.74.92.82.21.03.4.18.59.29.54.29,1,.71,1.55.99.55.28.97.18,1.38-.27.5-.56,1.04-1.13,1.93-.88.1.03.22-.02.33-.03,1.02-.1,2-.39,3.02-.46.55-.04,1.09-.15,1.62-.26.59-.12,1.34-1.45,1.26-2.05-.1-.79-.74-1.16-1.19-1.69-.51-.61-1.19-.68-1.92-.62-.76.06-1.53.03-2.26-.15-.83-.21-1.54,0-2.18.43-.55.37-1.06.36-1.64.17-.5-.16-1-.42-1.55-.25-.25.07-.49.21-.27.49.42.52.73,1.15,1.45,1.37.29.09.45.34.45.66,0,.31-.19.54-.45.67Zm1.43-1.61c.22-.14.46-.21.72-.17.79.13,1.53.36,2.05,1.04.07.09.14.16.13.29-.04.34-1.04,1.24-1.52,1.25-.24,0-.5-.23-.7-.49-.26-.32-.54-.61-.83-.91-.34-.36-.28-.75.15-1.01Z" />
    <path d="m78.11,86.14c-1.34-1.91-2.85-3.64-4.81-4.95-.53-.35-1.13-.61-1.55-1.13-.09-.12-.25-.17-.39-.09-.2.12-.39.05-.59,0-.06.18.03.26.08.32.38.46.76.92,1.16,1.36.49.52.84,1.15,1.36,1.64.53.51,1,1.07,1.44,1.66.85,1.13,1.1,2.65,2.28,3.58.01,0,.01.03.02.04.54.67,1.03,1.4,1.64,2.02.31.31.5.26.66-.14.16-.38.16-.78.08-1.17-.23-1.15-.72-2.18-1.39-3.15Z" />
    <path d="m92.71,78.82c.03-.15.11-.31.09-.46-.14-1.1-.35-2.19-1-3.13-.1-.15-.12-.42-.35-.4-.2.02-.09.27-.16.4-.05.08-.12.15-.17.23-.15.31-.25.6-.24.98.02,1,.51,1.82.87,2.69.04.11.04.2.01.32-.17.7-.33,1.4-.48,2.02-.04.71.81,1.4,1.43,1.24.09-.02.15-.07.15-.15.02-.46.08-.92.02-1.37-.09-.79-.35-1.57-.18-2.38Z" />
    <path d="m55.76,79.32c-.5.57-1.21.86-1.79,1.33-1.11.89-1.93,2.02-2.87,3.05-.13.15-.23.35-.28.54-.06.22-.05.5.29.44.85-.14,1.55-.61,2.14-1.19.56-.56.94-1.31,1.77-1.56.13-.04.2-.18.25-.32.23-.69.24-1.48.86-2,.03-.03.04-.08.07-.15-.05-.07-.1-.15-.17-.21-.11-.09-.21-.02-.29.06Z" />
    <path d="m39.99,86.34c-.63.31-1.16.74-1.57,1.33-.45.65-1.18.99-1.8,1.45-.11.08-.24.06-.37.05-.41,0-.54.13-.5.53.05.57.52.82.98.53.16-.1.29-.24.44-.34.51-.37.91-.86,1.48-1.17.72-.4,1.41-.87,1.94-1.54.2-.26.22-.56.08-.8-.15-.27-.45-.15-.68-.03Z" />
    <path d="m34.12,83.46c-.4-.36-.73-.79-.94-1.28-.15-.34-.4-.55-.64-.8-.11-.11-.31-.22-.46-.11-.14.1-.11.29-.04.47.39,1.03.75,2.06,1.04,3.12.02.09.07.26.13.21.34-.3.65.07.97,0,.51,0,.85-.37.63-.71-.21-.31-.38-.64-.68-.91Z" />
    <path d="m93.55,63.98c.33.23.42.16.51-.23.17-.77,0-1.58.28-2.33.26-.7.52-1.41.64-2.29,0-.02-.46-.69-.6-.66-.36.07-.3.4-.31.65-.04.68-.06,1.35-.08,2.03,0,.23-.03.44-.18.62-.36.45-.89.83-.57,1.53-.37.44.08.52.31.68Z" />
    <path d="m37.08,84.67c.04.17.17.37.37.23.4-.28.87-.22,1.31-.33.24-.06.59-.02.63-.39.04-.37-.08-.76-.47-.83-.63-.12-1.06-.65-1.68-.77-.1-.02-.17-.17-.29-.05-.09.1-.03.2-.01.31.06.43.1.87.15,1.31,0,0-.01,0-.02,0,0,.17-.03.35,0,.52Z" />
    <path d="m62.08,106.52c-.53-.08-1.11-.07-1.55-.46-.1-.09-.23-.13-.35-.06-.11.07-.1.2-.06.3.14.42.2.9.79.98.17.02.32.12.45.25.2.19.43.25.63.23.42,0,.76-.08,1.07-.25.15-.08.36-.15.33-.35-.03-.21-.16-.38-.38-.44-.3-.08-.6-.15-.92-.2Z" />
    <path d="m43.22,89.86c.54-.19.75-.59.76-1.37,0-.11,0-.22,0-.33.03-.3-.07-.56-.35-.66-.26-.09-.45.12-.59.3-.31.39-.41.88-.6,1.32-.11.26-.09.52.12.7.19.17.45.12.67.04Z" />
    <path d="m67.28,85.03c.11,0,.22.03.34.05.32,0,.6-.23.91-.27.41-.05.55-.3.61-.6.06-.24-.06-.65-.24-.65-.33,0-.66-.23-.96-.05-.39.23-.68.6-.98.94-.12.14-.21.34-.11.53.1.2.27.06.42.05Z" />
    <path d="m88.38,89.15c-.06-.23-.2-.5-.43-.52-.26-.03-.41.26-.56.45-.14.18-.15.41-.16.63,0,.5.29.79.8.77.28-.01.54,0,.77.15.14.09.3.19.39,0,.08-.16.22-.31.02-.55-.26-.33-.71-.47-.84-.93Z" />
    <path d="m67.05,111.41c-.28.03-.57.06-.84-.05-.21-.09-.38-.23-.4-.48-.03-.26.15-.31.34-.37.19-.06.24-.15.13-.35-.51-.94-1.25-1.41-2.25-1.23-.65.11-1.27.16-1.91.08-.47-.06-.93.12-1.39.16-1.31.1-2.63-.26-3.95-.08-.23.03-.5-.14-.74-.05-.26.1-.48.02-.67-.1-.63-.41-1.28-.81-1.79-1.38-.23-.26-.4-.58-.65-.81-.77-.71-1.4-1.46-1.44-2.59-.02-.47-.06-.92.25-1.3.28-.33.19-.56-.1-.84-.33-.33-.79-.54-1.01-.99-.38-.79-.81-1.56-1.13-2.37-.33-.86-.76-1.64-1.48-2.2-.54-.42-1.24-.62-1.9-.8-.47-.13-.65-.4-.76-.84-.15-.61-.01-1.23-.17-1.83-.09-.36-.3-.57-.61-.64-.34-.07-.47.25-.62.49-.08.13-.07.27-.08.41-.03.67.16,1.31.32,1.95.14.56.39,1.1.5,1.67.04.21.03.37-.14.5-.17.13-.3,0-.42-.09-.17-.11-.33-.25-.48-.38-.49-.41-.99-.27-1.17.33-.18.57-.14,1.12.14,1.65.09.17.22.35.2.52-.05.62.3,1.05.65,1.47,1.91,2.38,4.01,4.59,6.05,6.86.85.94,1.74,1.86,2.82,2.57.51.33,1.07.58,1.57.92.81.31,1.76.6,2.86.82h11.84c.78-.1,1.5-.21,2.16-.34-.21-.02-.43-.05-.64-.09-1.03-.21-2.05-.3-3.1-.19Z" />
  </g>
</svg>