<?xml version="1.0" encoding="UTF-8"?>
<svg xmlns="http://www.w3.org/2000/svg" viewBox="0 0 1480 1600">
  <g id="bg">
    <rect x="-4.67" y="-7.36" width="1487.43" height="1612.8" style="fill: #ececec;"/>
  </g>
  <g id="post-bg">
    <rect x="274.93" y="231.51" width="930.14" height="1140.14" rx="39.1" ry="39.1" style="fill: #fff;"/>
  </g>
  <g id="icons">
    <path d="m388.08,1294.57c-8.42-5.71-16.28,1.35-16.9,1.93-.62-.58-8.48-7.65-16.9-1.93-7.91,5.36-6.06,17.09,3.11,24.56,8.03,6.55,13.06,10.42,13.75,10.94v.07s.02-.02.04-.03c.02.02.04.03.04.03v-.07c.69-.53,5.71-4.4,13.75-10.94,9.17-7.47,11.01-19.2,3.11-24.56Z" style="fill: none; stroke: #010101; stroke-miterlimit: 10; stroke-width: 3px;"/>
    <g>
      <path d="m472.27,1320.96c1.79-2.92,2.83-6.34,2.83-10.02,0-10.64-8.62-19.26-19.26-19.26s-19.26,8.62-19.26,19.26,8.62,19.26,19.26,19.26c3.65,0,7.04-1.03,9.95-2.79" style="fill: none; stroke: #010101; stroke-miterlimit: 10; stroke-width: 3px;"/>
      <path d="m472.27,1320.96l2.58,8.71s-4.87-1.23-9.06-2.26" style="fill: none; stroke: #010101; stroke-miterlimit: 10; stroke-width: 3px;"/>
    </g>
    <g>
      <path d="m532.88,1310.46s3.2,20.24,3.86,21.55c.66,1.32,1.69-.47,1.69-.47,0,0,20.42-32.75,21.46-35.01,1.04-2.26-1.22-2.07-1.22-2.07,0,0-36.89.47-39.72.47s-1.79,2.07-1.79,2.07l15.72,13.46" style="fill: none; stroke: #010101; stroke-miterlimit: 10; stroke-width: 3px;"/>
      <line x1="532.88" y1="1310.46" x2="559.7" y2="1295.41" style="fill: none; stroke: #010101; stroke-miterlimit: 10; stroke-width: 3px;"/>
    </g>
    <g>
      <path d="m1092.07,1331.93v-41.9c0-.76.62-1.38,1.38-1.38h33.51c.76,0,1.38.62,1.38,1.38v41.9" style="fill: none; stroke: #010101; stroke-miterlimit: 10; stroke-width: 3px;"/>
      <path d="m1092.07,1331.93l16.74-14.49c.77-.77,2.04-.77,2.81,0l16.74,14.49" style="fill: none; stroke: #010101; stroke-miterlimit: 10; stroke-width: 3px;"/>
    </g>
  </g>
  <g id="post">
    <g>
      <path d="m336.72,249.18c-19.76,0-35.83,16.07-35.83,35.83s16.07,35.83,35.83,35.83,35.83-16.07,35.83-35.83-16.07-35.83-35.83-35.83Zm19.85,53.02c-.23.17-.45.33-.67.49-.2.14-.4.28-.59.43-.15.12-.27.13-.43,0-.44-.37-.88-.72-1.33-1.08-1.37-1.11-2.73-2.21-4.1-3.32-.09-.07-.18-.15-.28-.23.43-.27.82-.53,1.24-.75.18-.09.41-.13.61-.11,1.29.14,2.57.3,3.86.45.08.01.17,0,.32,0-.94-.63-1.82-1.23-2.75-1.86.35-.34.68-.66,1.02-.96.06-.05.24,0,.33.06,1.21.83,2.42,1.67,3.62,2.5.6.41,1.19.83,1.79,1.24.21.14.23.28.05.45-.04.04-.08.07-.11.12-.3.5-.72.56-1.27.47-1.61-.28-3.24-.51-4.86-.75-.09-.01-.18,0-.35,0,1.33.98,2.6,1.91,3.9,2.87Zm-8.42,2.37c.16.73.3,1.47.46,2.21.03.14,0,.22-.14.26-.41.12-.82.24-1.22.37-.18.06-.2-.05-.22-.18-.14-.77-.27-1.53-.42-2.3-.28-1.44-.56-2.88-.84-4.32,0-.02-.01-.03-.01-.05-.1-.52-.1-.51.4-.7.34-.13.68-.25,1.01-.41.2-.1.35-.07.51.07.91.73,1.83,1.45,2.75,2.18,1.03.82,2.06,1.64,3.17,2.52-.08.04-.14.07-.2.1-.43.26-.85.51-1.28.78-.18.12-.32.1-.48-.06-.49-.49-1-.97-1.5-1.46-.11-.11-.19-.13-.35-.05-.48.25-.98.47-1.48.68-.18.08-.21.17-.17.36Zm-8.42,4.45c-.54.03-1.09.05-1.65.08-.05-2.4-.1-4.79-.15-7.19.45-.03.89-.06,1.33-.07.09,0,.19.1.26.17.58.68,1.15,1.36,1.71,2.04.04.05.05.14.08.21.04-.03.08-.05.12-.08.11-.37.22-.73.33-1.1.15-.49.3-.97.43-1.46.06-.24.19-.36.44-.4.26-.04.51-.12.77-.18.14-.04.22-.03.28.15.68,2.06,1.38,4.12,2.07,6.18.18.53.17.53-.37.68-.28.08-.57.13-.84.23-.26.1-.33,0-.39-.23-.2-.79-.42-1.57-.64-2.36-.17-.61-.34-1.21-.52-1.82-.03,0-.05,0-.08-.01-.2.57-.4,1.14-.6,1.71-.09.25-.2.49-.26.74-.1.4-.55.39-.75.16-.17-.19-.34-.38-.5-.57-.4-.46-.8-.92-1.2-1.37-.02-.02-.05-.04-.14-.1.09,1.56.17,3.07.26,4.6Zm-3.32-10.64c-.32.06-.56.27-.82.45-.19.13-.31.04-.3-.2.02-.23.06-.47.11-.7.03-.19.02-.33-.2-.41-.14-.05-.26-.16-.4-.23-.26-.15-.34-.13-.43.16-.04.13-.04.27-.07.4-.02.1-.05.21-.11.29-.14.16-.26.13-.33-.07-.04-.11-.08-.23-.15-.43-.15.27-.26.46-.35.62-.19-.05-.36-.08-.51-.14-.07-.03-.14-.12-.16-.2-.04-.16-.03-.33-.06-.48-.05-.24-.19-.3-.36-.12-.18.19-.32.43-.46.66-.05.07-.06.17-.1.29-.18-.08-.35-.21-.51-.2-.14,0-.26.17-.42.28-.04-.08-.09-.18-.12-.27-.19-.5-.62-.59-.98-.21-.11.12-.24.22-.42.3.01-.09.01-.18.04-.26.11-.43.04-.56-.36-.74-.12-.06-.25-.11-.38-.16-.25-.1-.49-.2-.47-.55-.29.07-.3.25-.3.46,0,.15-.03.3-.05.45-.09-.12-.19-.23-.26-.36-.08-.14-.13-.3-.22-.44-.12-.2-.12-.36.02-.55.21-.28.15-.72-.15-.92-.09-.06-.25-.07-.35-.03-.08.03-.17.17-.17.27,0,.18.05.36.1.53.1.34-.03.59-.34.88-.11-.51-.26-.96-.27-1.41-.01-.45.13-.9.17-1.36-.58.48-.71,1.22-1.08,1.81-.23-.13-.44-.25-.65-.38-.05-.03-.09-.09-.1-.15-.05-.4-.07-.8-.13-1.2-.03-.21,0-.36.14-.51.31-.32.28-.43-.04-.74-.09-.08-.17-.26-.14-.37.14-.53.3-1.06.49-1.58.09-.27.16-.26.38-.08.51.43,1.04.84,1.55,1.27.07.05.1.14.15.22.06.09.09.2.17.27.06.05.17.06.24.04.05-.02.06-.13.08-.2,0-.03,0-.08-.03-.1-.19-.26-.19-.54-.08-.83.16-.41.36-.81.74-1.05.3-.19.64-.11.97.11-.11.04-.21.1-.32.13-.38.09-.89.6-.94.97-.01.08.01.16.04.24.04.11.08.22.13.33.12.25.24.5.37.77.47-.23.93-.06,1.4,0,1.78.21,3.55.31,5.34.04.92-.14,1.78-.39,2.63-.75.61-.27,1.23-.53,1.83-.82.29-.14.54-.36.81-.54.06-.04.11-.1.17-.13.89-.44,1.67-1.05,2.39-1.72.39-.36.67-.83.99-1.26.05-.06.09-.15.16-.18.1-.03.22-.02.33-.03,0,.09.04.2,0,.28-.11.21-.13.4-.03.64.08.19.04.43.07.64.02.16.08.32.16.47.03-.53.22-1.02.13-1.57-.07-.44-.25-.76-.51-1.07-.11-.13-.2-.28-.31-.41-.06-.07-.15-.12-.22-.18-.06.09-.14.18-.18.28-.06.14-.08.29-.12.43-.04,0-.07.02-.08,0-.43-.29-.66-.06-.62.39,0,.08,0,.16.03.24.05.19,0,.28-.22.3-.11,0-.23.1-.31.19-.3.31-.61.62-1.08.79,0-.26.01-.5,0-.73-.02-.23-.07-.45-.1-.7-.26.07-.22.23-.23.38-.01.4-.02.8-.05,1.19,0,.09-.07.18-.13.31-.15-.17-.26-.3-.38-.43-.25.23-.02.67-.49.82,0-.32,0-.63,0-.93.01-.32.05-.63.07-.95,0-.08-.06-.17-.09-.25-.07.07-.19.13-.21.21-.07.26-.12.53-.14.8-.02.28,0,.56,0,.84,0,.24-.1.4-.43.4.01-.12.02-.22.03-.33.02-.22.06-.43.07-.65,0-.07-.09-.15-.13-.22-.07.06-.17.11-.2.18-.04.13-.04.27-.04.4,0,.25,0,.51.02.76,0,.16.04.38-.17.4-.12.01-.26-.14-.39-.22-.02-.02-.03-.06-.05-.12.08-.02.14-.04.21-.05.17-.03.18-.15.16-.29-.02-.14-.08-.22-.24-.19-.46.09-.9.2-1.26.53-.07.06-.19.08-.31.12-.15.28.2.26.3.4-.01.03-.02.05-.03.06-.41.12-.81.27-1.23.33-.25.04-.36.18-.48.34-.22.29-.33.3-.57.03-.12-.13-.11-.23,0-.35.06-.06.13-.14.16-.22.02-.06,0-.15,0-.22-.08.03-.18.03-.23.08-.15.16-.26.35-.41.51-.07.07-.17.13-.27.14-.03,0-.09-.14-.13-.22-.05-.08-.09-.16-.15-.28-.16.23-.29.42-.42.61-.24-.15-.43-.31-.65-.39-.33-.13-.67-.21-1.01-.29-.07-.02-.19.05-.25.12-.14.16-.25.15-.38,0-.06-.06-.12-.11-.18-.17-.1-.11-.19-.11-.31-.01-.11.09-.23.17-.36.25-.26.16-.54.04-.56-.26-.02-.31-.16-.5-.43-.66-.21-.13-.4-.13-.62-.08-.05.01-.12.05-.16.03-.35-.21-.8-.02-1.14-.28-.51-.38-1.02-.74-1.54-1.11-.03-.02-.04-.05-.06-.08.28-.23.35-.24.64-.02.24-.2.52-.37.7-.61.09-.13.08-.44-.01-.57-.22-.29-.25-.57-.16-.89.05-.19.04-.34-.18-.43.15-.28.27-.56.43-.8.08-.11.24-.21.37-.23.22-.03.36-.13.47-.32.04-.06.17-.13.23-.11.36.09.64-.06.9-.26.11-.08.22-.16.32-.25.21-.16.42-.2.64-.03.15.11.29.08.42-.03.2-.17.4-.34.6-.51.07-.06.14-.11.25-.19,0,.21-.02.36-.03.62.19-.12.33-.19.43-.29.23-.22.44-.45.65-.7.07-.08.08-.2.12-.31-.12-.01-.24-.07-.35-.04-.54.16-1.06.35-1.6.5-.73.21-1.47.39-2.2.57-.38.1-.76.17-1.05.47-.02.02-.07.04-.1.03-.43-.05-.68.24-.97.48-.48.39-.98.74-1.48,1.1-.22.16-.38.35-.43.63-.11.69-.34,1.35-.66,1.98-.17.33-.4.58-.74.72-1.01.4-2.04.7-3.12.79-.35.03-.65-.06-.89-.32-.65-.75-1.11-1.59-1.11-2.61,0-.23.07-.47.18-.67.23-.42.51-.81.78-1.21.41-.6.83-1.19,1.25-1.78.07-.1.17-.18.26-.27.37-.34.73-.68,1.1-1.01.4-.36.82-.71,1.22-1.07.16-.14.31-.31.47-.45.08-.07.18-.16.27-.16.34,0,.69.03,1.03.05.03,0,.06.03.16.07-.11.15-.19.31-.31.43-.5.53-1.04,1.02-1.49,1.58-.31.39-.51.87-.76,1.3-.09.16-.18.31-.27.47-.11.17-.21.34-.32.52.03.03.06.06.08.08.09-.07.21-.13.28-.22.53-.72,1.04-1.46,1.57-2.18.13-.17.3-.31.45-.47.42-.4.81-.83,1.26-1.2.23-.19.56-.27.85-.38.12-.05.32-.02.27-.2-.02-.08-.22-.17-.34-.17-.34,0-.68.07-1.03.08-.25,0-.51-.02-.76-.05-.07,0-.16-.11-.17-.18-.02-.14.02-.29,0-.43,0-.08-.05-.19-.11-.22-.05-.02-.17.04-.22.1-.15.18-.27.38-.4.55-.05,0-.08,0-.09,0-.26-.32-.62-.33-.99-.3-.17.02-.26-.04-.3-.22-.06-.26-.16-.28-.37-.11-.28.22-.59.3-.92.17-.36-.14-.7-.32-1.04-.49-.07-.04-.12-.12-.23-.24.2,0,.32,0,.45,0,.53,0,1.07,0,1.6-.04.4-.03.71-.27.93-.6.29-.44.48-.91.45-1.45-.02-.36,0-.72,0-1.11-.06.01-.17.07-.28.07-.13,0-.3,0-.39-.06-.45-.38-.94-.39-1.49-.31-.37.05-.75.03-1.13.01-.1,0-.21-.09-.36-.16.12-.09.2-.15.28-.2.64-.4,1.28-.77,1.99-1.05.75-.29,1.46-.67,2.18-1.02.19-.09.35-.14.55.02.16.14.32.07.3-.15-.04-.38.17-.56.45-.72.12-.07.22-.15.33-.24.26-.21.53-.43.83-.35.16-.16.26-.3.38-.4.55-.47,1.11-.92,1.65-1.4.15-.13.26-.33.38-.49.13-.17.04-.26-.11-.33-.14-.07-.34-.14-.38-.25-.09-.28-.15-.58.03-.87.08-.13.15-.26.24-.4-.59-.1-.75-.28-.79-.87-.01-.16,0-.34-.06-.48-.14-.34-.03-.63.12-.93.2-.4.37-.8.57-1.2.09-.18.21-.34.33-.49.4-.49.82-.97,1.23-1.46.1-.12.21-.26.27-.41.26-.65.57-1.27.68-1.98.09-.6.4-1.17.64-1.75.08-.2.25-.29.47-.21.03.01.07.02.11.02.37,0,.61.14.63.55,0,.07.05.14.1.19.18.18.35.35.32.64,0,.1.12.2.25.39-.16-.02-.27,0-.34-.05-.21-.13-.14-.32-.04-.5-.14-.12-.23-.14-.25.07-.04.5.07.94.45,1.31.29.28.4.66.49,1.04.1.4.22.8.38,1.18.38.93.66,1.86.5,2.88-.03.19-.16.38.02.59.05.05-.05.23-.07.31.11.21.21.39.29.55.36-.15.71-.3,1.06-.46.22-.1.41-.12.59.08.03.04.09.04.18.08,0-.12.02-.22,0-.3-.05-.21.06-.3.23-.24.32.12.61.19.96.05.23-.09.51-.05.77-.07.33-.03.41.05.38.37q-.05.55-.27.83c.17.19.39.19.61.15.05-.01.11-.14.11-.21,0-.15-.05-.3-.05-.46,0-.15.03-.31.02-.46-.02-.18-.07-.35-.13-.6.11.03.22.05.33.07.09.01.18.02.27.03-.02-.1-.02-.2-.06-.29-.04-.12-.11-.23-.17-.34.03-.02.05-.04.08-.06.08.08.15.16.24.22.06.04.17.08.2.06.06-.04.09-.14.09-.22,0-.06-.03-.12-.07-.18-.27-.39-.17-.75.15-1.11.06.08.11.17.18.24.04.05.11.12.16.12.05,0,.13-.09.14-.14.04-.18.07-.37.07-.56,0-.37.07-.7.27-1,.46-.68.91-1.37,1.38-2.05.12-.18.31-.31.46-.46.03.02.07.04.1.06-.02.14-.03.29-.08.42-.1.26-.23.51-.35.77-.03.07-.04.14-.06.21.03.02.05.04.08.05.1-.1.21-.19.29-.31.33-.5.5-1.06.56-1.66.03-.32.15-.55.42-.71.31-.18.61-.39.94-.53.14-.06.35-.02.51.02.13.04.25.15.37.23.33.23.47.53.47.95,0,.82,0,1.65.07,2.47.06.63.25,1.26.38,1.88.13.62.28,1.24.4,1.86.02.1-.04.31-.07.31-.14,0-.29-.03-.41-.09-.06-.03-.09-.13-.13-.2-.14-.23-.27-.28-.48-.13-.39.26-.7.57-.73,1.08-.02.32-.07.63-.1.95,0,.05-.01.11-.03.16-.04.16-.12.31-.31.27-.18-.04-.17-.21-.16-.36.02-.2.05-.41.08-.64-.13,0-.23-.01-.34-.02-.07.49-.22.92-.71,1.25,0-.19-.01-.31,0-.43.02-.15.08-.3.09-.45,0-.08-.08-.16-.12-.25-.08.06-.2.1-.24.17-.07.13-.08.3-.14.44-.04.1-.12.18-.18.27-.04,0-.07-.02-.11-.03,0-.13,0-.25,0-.38.01-.17.05-.34.05-.51,0-.06-.07-.12-.11-.19-.06.05-.16.08-.19.15-.08.17-.1.37-.2.53-.06.09-.21.13-.33.19-.02-.11-.07-.23-.06-.34.02-.21.08-.43.09-.64,0-.07-.09-.14-.14-.21-.08.06-.2.1-.22.17-.07.2-.09.42-.13.63-.03.02-.05.04-.08.06-.02-.05-.04-.1-.06-.15-.34-.79-.56-1.61-.39-2.48.04-.18.13-.36.21-.52.15-.3.25-.6.21-.96-.26,0-.36.16-.43.36-.24.62-.4,1.26-.39,1.93,0,.51-.04,1.02,0,1.52.03.55-.21,1.02-.31,1.54-.03.17-.08.34-.12.5-.06.2.03.28.21.36.47.21.92.46,1.38.69.02.01.06.03.06.05.12.49.59.44.92.59.15.07.23.13.28.28.07.19.17.37.28.6.09-.12.16-.17.18-.24.07-.25.18-.32.4-.15.03.03.17-.02.2-.06.17-.31.17-.32.49-.11.29-.16-.02-.36.02-.53.19.06.36.14.54.17.07.01.18-.04.22-.1.03-.04-.02-.15-.06-.22-.13-.25-.28-.49-.4-.75-.03-.06-.02-.17.02-.23.2-.32.38-.67.63-.95.42-.47.67-.98.69-1.61,0-.25.19-.4.43-.34.24.06.17.25.15.42-.08.68-.43,1.2-.92,1.65-.2.18-.38.39-.55.6-.07.09-.13.2-.16.31-.12.41-.09.46.34.52.5.07.89.31,1.28.63.54.44,1.02.92,1.42,1.48.56.78.89,1.68,1.24,2.56.06.16.21.3.31.45.03.05.07.11.06.16-.08,1.09.55,1.85,1.17,2.63.14.18.26.36.39.55.26.37.54.73.77,1.12.19.3.34.63.5.95.16.33.32.65.45.99.08.2.12.43.13.65,0,.18.05.27.21.35.84.41,1.41,1.07,1.76,1.94.06.16.05.3-.09.41-.1.09-.19.19-.29.3.06.05.1.09.14.11.5.16.52.56.42.95-.09.37-.21.73-.31,1.1-.05.18-.05.38-.09.56-.02.1-.04.21-.1.27-.09.09-.21.15-.32.22-.04-.12-.07-.24-.12-.36-.04-.1-.07-.23-.15-.28-.18-.11-.36-.08-.55.1.35.25.4.75.86.91.05.02.08.14.08.21,0,.09-.07.17-.08.26,0,.21,0,.41.01.64-.01,0-.09-.03-.17-.07-.17-.08-.26-.03-.28.16,0,.11,0,.22-.01.33-.02.27-.08.31-.32.18-.09-.05-.18-.12-.26-.18-.2.29-.09,1.44.18,1.63.3-.3.25-.84.76-1.01-.04.1-.08.2-.14.29-.17.27-.35.55-.54.8-.06.08-.22.18-.27.16-.12-.06-.27-.18-.3-.3-.13-.44-.22-.9-.33-1.34-.02-.1-.03-.2-.07-.29-.04-.09-.11-.16-.16-.25-.03.1-.09.2-.09.3.02.45.06.91.08,1.36,0,.1,0,.2,0,.3-.14.02-.25.03-.37.04-.01.03-.02.07-.03.1.44-.11.58.23.82.45-.43.39-.85.77-1.33,1.2-.11-.14-.2-.26-.3-.37-.1-.12-.17-.21-.06-.38.06-.09.02-.26-.02-.38-.01-.04-.17-.06-.24-.04-.09.04-.19.12-.22.2-.02.05.08.18.15.22.17.09.18.19.17.37-.02.3.02.6.05.89.02.18-.06.27-.22.32-.1.03-.21.07-.29.14-.33.28-.65.57-.96.87-.1.1-.17.15-.32.06-.25-.14-.5-.09-.81.04.09.08.14.14.21.18.13.08.28.14.16.32-.1.15-.37.2-.48.06-.17-.23-.29-.49-.41-.74-.03-.07-.04-.17-.01-.24.17-.51-.13-.9-.31-1.32-.03-.07-.06-.14-.11-.18-.11-.08-.3-.22-.34-.19-.13.11-.22.27-.29.43-.01.03.14.17.23.19.38.1.42.11.39.51-.04.6-.12,1.2-.2,1.8,0,.06-.11.15-.17.15-.15.01-.31,0-.37-.2-.05-.18-.12-.36-.19-.56-.13.1-.22.17-.37.28-.24-.63-.61-1.09-1.27-1.18l-.06.07c.06.07.11.15.17.21.32.34.43.75.33,1.2-.02.1-.18.16-.27.24-.06-.08-.13-.16-.17-.26-.05-.1-.07-.21-.12-.34-.2.16-.15.3-.12.45.02.1,0,.2-.02.3-.09-.04-.21-.05-.27-.12-.18-.23-.36-.48-.51-.73-.11-.18-.18-.22-.3-.05-.13.19-.28.19-.47.13-.24-.07-.49-.12-.76-.18-.02.08-.04.14-.04.2.05.53-.11,1.02-.27,1.52-.1.3-.25.36-.54.22-.1-.05-.2-.12-.31-.17-.18-.09-.23-.22-.2-.42.02-.15-.03-.31-.04-.46-.12.09-.28.15-.37.26-.25.33-.45.7-.69,1.03-.16.22-.34.43-.54.63-.05.05-.22.05-.27,0-.06-.06-.08-.21-.05-.29.11-.24.25-.46.38-.69.13-.23.26-.46.11-.79-.1.14-.18.26-.27.36-.1.11-.22.22-.34.32-.13.1-.26.19-.4.26-.08.04-.19.1-.26.08-.25-.08-.35.05-.45.23-.12.21-.26.41-.43.67-.18-.24-.31-.42-.47-.63-.06.09-.12.15-.17.22-.04.05-.07.14-.11.15Zm.03,3.86c-.02.61-.05,1.21-.07,1.82-.04,1.39-.07,2.77-.11,4.16,0,.3-.03.59-.05.93-.63-.03-1.24-.06-1.86-.09.21-2.39.41-4.73.61-7.11.44,0,.86,0,1.27,0,.2,0,.2.15.2.28Zm-7.97.13c.17-.45.31-.88.49-1.29.03-.07.19-.13.28-.11.96.18,1.92.38,2.88.57.49.1.98.19,1.47.28.18.03.25.08.2.28-.11.43-.19.86-.28,1.28-.5-.08-.96-.16-1.42-.24-.18-.03-.24.03-.28.21-.4,1.69-.81,3.38-1.22,5.07-.04.17-.1.24-.3.18-.52-.14-1.05-.25-1.63-.38.52-1.82,1.04-3.63,1.56-5.46-.59-.14-1.15-.27-1.74-.41Zm.2-4.71c.04-.06.1-.12.16-.14.03-.01.09.05.14.08-.04.07-.09.13-.16.24-.07-.09-.15-.16-.14-.18Zm-10.07,4.03c-.38.36-.73.7-1.12,1.07-1.12-1.07-2.24-2.14-3.38-3.23.19-.16.37-.31.55-.46,1.59-1.23,3.19-2.45,4.79-3.68.15-.11.23-.13.38,0,.82.72,1.64,1.43,2.48,2.12.22.18.2.29,0,.45-.23.19-.44.4-.65.62-.13.13-.23.13-.37,0-.51-.46-1.02-.9-1.53-1.35-.16-.14-.27-.16-.43,0-.23.21-.49.4-.75.62.59.52,1.16,1.04,1.74,1.56.27.24.27.24.01.5-.18.18-.37.35-.54.53-.14.15-.26.15-.41,0-.52-.5-1.05-1-1.57-1.5-.12-.12-.2-.14-.34-.03-.33.27-.66.52-1.01.78.74.7,1.44,1.35,2.13,2.01Zm-1.9-5.97c-.37.22-.71.43-1.06.62-.05.03-.2-.06-.26-.13-.4-.47-.79-.94-1.18-1.43-.12-.16-.21-.19-.4-.08-.73.4-1.47.78-2.21,1.18-.17.09-.27.07-.38-.09-.29-.41-.6-.81-.93-1.25,1.61-.77,3.17-1.51,4.73-2.26.41-.2.82-.39,1.22-.6.14-.07.22-.05.32.07.72.85,1.45,1.69,2.22,2.58-.36.22-.7.44-1.05.64-.05.03-.2-.05-.27-.12-.37-.4-.74-.8-1.09-1.21-.11-.12-.19-.16-.34-.07-.23.14-.48.25-.75.39.46.58.92,1.15,1.41,1.78Zm5.51,4.26c.36-.46.72-.91,1.07-1.38.14-.19.24-.17.44-.08.43.19.59.48.65.95.15,1.21.35,2.42.54,3.63,0,.04.03.08.06.17.15-.31.28-.58.41-.84.36-.76.72-1.52,1.1-2.28.03-.06.16-.14.21-.12.43.17.85.36,1.28.54-1.01,2.16-2.01,4.27-3.01,6.42-.42-.17-.84-.33-1.24-.51-.08-.04-.15-.18-.16-.28-.16-1.54-.31-3.08-.46-4.63,0-.03-.02-.07-.04-.15-.82,1.2-1.61,2.36-2.42,3.54-.53-.33-1.03-.65-1.54-.98,1.06-1.36,2.09-2.68,3.13-4.01Zm3.38-12.84c-.14-.45-.04-.66.37-.86.12-.06.24-.1.37-.16.02.02.04.03.06.05-.06.12-.12.24-.2.34-.08.11-.21.19-.27.3-.04.07,0,.19.03.28.02.07.11.13.11.2.01.17-.51.64-.75.65.05-.09.07-.19.13-.23.25-.15.2-.36.14-.57Zm-.7-.56s-.04-.04-.05-.06c.13-.34.3-.48.64-.41-.22.18-.4.33-.58.48Zm-6.86-9.09c.4-.34.24-.82.34-1.23.03-.01.06-.02.09-.03.09.16.22.31.27.49.05.17.12.27.31.26.19-.02.32.07.42.24.1.18.24.33.35.55-.55-.34-1.15-.31-1.78-.27Zm8.86-7.91s-.07.03-.1.04c-.19-.14-.39-.27-.57-.41-.03-.02-.04-.11-.02-.15.22-.38.49-.71.92-.91-.09.48-.44.9-.23,1.43Zm18.01-3.06c.03-.26.24-.39.48-.28.05.02.09.11.09.17-.02.2-.06.39-.1.58-.03.18-.16.29-.32.25-.07-.02-.11-.2-.15-.31-.02-.04,0-.09,0-.13h0c0-.09,0-.18,0-.27Zm14.04,30c.35-.2.68-.38.99-.59.29-.19.47-.47.54-.82.12-.57-.25-1.04-.83-.97-.29.03-.58.16-.84.29-.3.15-.57.36-.85.53-.52.31-1.1.43-1.7.41-1.13-.04-1.81-1.22-1.31-2.28.34-.72.96-1.15,1.65-1.48.07-.03.21,0,.28.06.26.21.51.44.76.65-.36.25-.71.49-1.05.73-.09.07-.21.15-.25.25-.06.15-.13.34-.09.47.03.11.23.23.35.23.2,0,.41-.07.58-.17.61-.33,1.19-.74,1.81-1.03.59-.27,1.24-.28,1.86-.07,1.16.4,1.72,1.68,1.26,2.84-.33.85-1.01,1.4-1.73,1.91-.2.14-.42.25-.65.34-.06.03-.22-.03-.25-.09-.2-.41-.38-.84-.56-1.24Z"/>
      <path d="m338.81,289.9c.01-.12.02-.22.03-.33.02-.22.06-.43.07-.65,0-.07-.09-.15-.13-.22-.07.06-.17.11-.2.18-.04.13-.04.27-.04.4,0,.25,0,.51.02.76,0,.16.04.38-.17.4-.12.01-.26-.14-.39-.22-.02-.02-.03-.06-.05-.12.08-.02.14-.04.21-.05.17-.03.18-.15.16-.29-.02-.14-.08-.22-.24-.19-.46.09-.9.2-1.26.53-.07.06-.19.08-.31.12-.15.28.2.26.3.4-.01.03-.02.05-.03.06-.41.12-.81.27-1.23.33-.25.04-.36.18-.48.34-.22.29-.33.3-.57.03-.12-.13-.11-.23,0-.35.06-.06.13-.14.16-.22.02-.06,0-.15,0-.22-.08.03-.18.03-.23.08-.15.16-.26.35-.41.51-.07.07-.17.13-.27.14-.03,0-.09-.14-.13-.22-.05-.08-.09-.16-.15-.28-.16.23-.29.42-.42.61-.24-.15-.43-.31-.65-.39-.33-.13-.67-.21-1.01-.29-.07-.02-.19.05-.25.12-.14.16-.25.15-.38,0-.06-.06-.12-.11-.18-.17-.1-.11-.19-.11-.31-.01-.11.09-.23.17-.36.25-.26.16-.54.04-.56-.26-.02-.31-.16-.5-.43-.66-.21-.13-.4-.13-.62-.08-.05.01-.12.05-.16.03-.35-.21-.8-.02-1.14-.28-.51-.38-1.02-.74-1.54-1.11-.03-.02-.04-.05-.06-.08.28-.23.35-.24.64-.02.24-.2.52-.37.7-.61.09-.13.08-.44-.01-.57-.22-.29-.25-.57-.16-.89.05-.19.04-.34-.18-.43.15-.28.27-.56.43-.8.08-.11.24-.21.37-.23.22-.03.36-.13.47-.32.04-.06.17-.13.23-.11.36.09.64-.06.9-.26.11-.08.22-.16.32-.25.21-.16.42-.2.64-.03.15.11.29.08.42-.03.2-.17.4-.34.6-.51.07-.06.14-.11.25-.19,0,.21-.02.36-.03.62.19-.12.33-.19.43-.29.23-.22.44-.45.65-.7.07-.08.08-.2.12-.31-.12-.01-.24-.07-.35-.04-.54.16-1.06.35-1.6.5-.73.21-1.47.39-2.2.57-.38.1-.76.17-1.05.47-.02.02-.07.04-.1.03-.43-.05-.68.24-.97.48-.48.39-.98.74-1.48,1.1-.22.16-.38.35-.43.63-.11.69-.34,1.35-.66,1.98-.17.33-.4.58-.74.72-1.01.4-2.04.7-3.12.79-.35.03-.65-.06-.89-.32-.65-.75-1.11-1.59-1.11-2.61,0-.23.07-.47.18-.67.23-.42.51-.81.78-1.21.41-.6.83-1.19,1.25-1.78.07-.1.17-.18.26-.27.37-.34.73-.68,1.1-1.01.4-.36.82-.71,1.22-1.07.16-.14.31-.31.47-.45.08-.07.18-.16.27-.16.34,0,.69.03,1.03.05.03,0,.06.03.16.07-.11.15-.19.31-.31.43-.5.53-1.04,1.02-1.49,1.58-.31.39-.51.87-.76,1.3-.09.16-.18.31-.27.47-.11.17-.21.34-.32.52.03.03.06.06.08.08.09-.07.21-.13.28-.22.53-.72,1.04-1.46,1.57-2.18.13-.17.3-.31.45-.47.42-.4.81-.83,1.26-1.2.23-.19.56-.27.85-.38.12-.05.32-.02.27-.2-.02-.08-.22-.17-.34-.17-.34,0-.68.07-1.03.08-.25,0-.51-.02-.76-.05-.07,0-.16-.11-.17-.18-.02-.14.02-.29,0-.43,0-.08-.05-.19-.11-.22-.05-.02-.17.04-.22.1-.15.18-.27.38-.4.55-.05,0-.08,0-.09,0-.26-.32-.62-.33-.99-.3-.17.02-.26-.04-.3-.22-.06-.26-.16-.28-.37-.11-.28.22-.59.3-.92.17-.36-.14-.7-.32-1.04-.49-.07-.04-.12-.12-.23-.24.2,0,.32,0,.45,0,.53,0,1.07,0,1.6-.04.4-.03.71-.27.93-.6.29-.44.48-.91.45-1.45-.02-.36,0-.72,0-1.11-.06.01-.17.07-.28.07-.13,0-.3,0-.39-.06-.45-.38-.94-.39-1.49-.31-.37.05-.75.03-1.13.01-.1,0-.21-.09-.36-.16.12-.09.2-.15.28-.2.64-.4,1.28-.77,1.99-1.05.75-.29,1.46-.67,2.18-1.02.19-.09.35-.14.55.02.16.14.32.07.3-.15-.04-.38.17-.56.45-.72.12-.07.22-.15.33-.24.26-.21.53-.43.83-.35.16-.16.26-.3.38-.4.55-.47,1.11-.92,1.65-1.4.15-.13.26-.33.38-.49.13-.17.04-.26-.11-.33-.14-.07-.34-.14-.38-.25-.09-.28-.15-.58.03-.87.08-.13.15-.26.24-.4-.59-.1-.75-.28-.79-.87-.01-.16,0-.34-.06-.48-.14-.34-.03-.63.12-.93.2-.4.37-.8.57-1.2.09-.18.21-.34.33-.49.4-.49.82-.97,1.23-1.46.1-.12.21-.26.27-.41.26-.65.57-1.27.68-1.98.09-.6.4-1.17.64-1.75.08-.2.25-.29.47-.21.03.01.07.02.11.02.37,0,.61.14.63.55,0,.07.05.14.1.19.18.18.35.35.32.64,0,.1.12.2.25.39-.16-.02-.27,0-.34-.05-.21-.13-.14-.32-.04-.5-.14-.12-.23-.14-.25.07-.04.5.07.94.45,1.31.29.28.4.66.49,1.04.1.4.22.8.38,1.18.38.93.66,1.86.5,2.88-.03.19-.16.38.02.59.05.05-.05.23-.07.31.11.21.21.39.29.55.36-.15.71-.3,1.06-.46.22-.1.41-.12.59.08.03.04.09.04.18.08,0-.12.02-.22,0-.3-.05-.21.06-.3.23-.24.32.12.61.19.96.05.23-.09.51-.05.77-.07.33-.03.41.05.38.37q-.05.55-.27.83c.17.19.39.19.61.15.05-.01.11-.14.11-.21,0-.15-.05-.3-.05-.46,0-.15.03-.31.02-.46-.02-.18-.07-.35-.13-.6.11.03.22.05.33.07.09.01.18.02.27.03-.02-.1-.02-.2-.06-.29-.04-.12-.11-.23-.17-.34.03-.02.05-.04.08-.06.08.08.15.16.24.22.06.04.17.08.2.06.06-.04.09-.14.09-.22,0-.06-.03-.12-.07-.18-.27-.39-.17-.75.15-1.11.06.08.11.17.18.24.04.05.11.12.16.12.05,0,.13-.09.14-.14.04-.18.07-.37.07-.56,0-.37.07-.7.27-1,.46-.68.91-1.37,1.38-2.05.12-.18.31-.31.46-.46.03.02.07.04.1.06-.02.14-.03.29-.08.42-.1.26-.23.51-.35.77-.03.07-.04.14-.06.21.03.02.05.04.08.05.1-.1.21-.19.29-.31.33-.5.5-1.06.56-1.66.03-.32.15-.55.42-.71.31-.18.61-.39.94-.53.14-.06.35-.02.51.02.13.04.25.15.37.23.33.23.47.53.47.95,0,.82,0,1.65.07,2.47.06.63.25,1.26.38,1.88.13.62.28,1.24.4,1.86.02.1-.04.31-.07.31-.14,0-.29-.03-.41-.09-.06-.03-.09-.13-.13-.2-.14-.23-.27-.28-.48-.13-.39.26-.7.57-.73,1.08-.02.32-.07.63-.1.95,0,.05-.01.11-.03.16-.04.16-.12.31-.31.27-.18-.04-.17-.21-.16-.36.02-.2.05-.41.08-.64-.13,0-.23-.01-.34-.02-.07.49-.22.92-.71,1.25,0-.19-.01-.31,0-.43.02-.15.08-.3.09-.45,0-.08-.08-.16-.12-.25-.08.06-.2.1-.24.17-.07.13-.08.3-.14.44-.04.1-.12.18-.18.27-.04,0-.07-.02-.11-.03,0-.13,0-.25,0-.38.01-.17.05-.34.05-.51,0-.06-.07-.12-.11-.19-.06.05-.16.08-.19.15-.08.17-.1.37-.2.53-.06.09-.21.13-.33.19-.02-.11-.07-.23-.06-.34.02-.21.08-.43.09-.64,0-.07-.09-.14-.14-.21-.08.06-.2.1-.22.17-.07.2-.09.42-.13.63-.03.02-.05.04-.08.06-.02-.05-.04-.1-.06-.15-.34-.79-.56-1.61-.39-2.48.04-.18.13-.36.21-.52.15-.3.25-.6.21-.96-.26,0-.36.16-.43.36-.24.62-.4,1.26-.39,1.93,0,.51-.04,1.02,0,1.52.03.55-.21,1.02-.31,1.54-.03.17-.08.34-.12.5-.06.2.03.28.21.36.47.21.92.46,1.38.69.02.01.06.03.06.05.12.49.59.44.92.59.15.07.23.13.28.28.07.19.17.37.28.6.09-.12.16-.17.18-.24.07-.25.18-.32.4-.15.03.03.17-.02.2-.06.17-.31.17-.32.49-.11.29-.16-.02-.36.02-.53.19.06.36.14.54.17.07.01.18-.04.22-.1.03-.04-.02-.15-.06-.22-.13-.25-.28-.49-.4-.75-.03-.06-.02-.17.02-.23.2-.32.38-.67.63-.95.42-.47.67-.98.69-1.61,0-.25.19-.4.43-.34.24.06.17.25.15.42-.08.68-.43,1.2-.92,1.65-.2.18-.38.39-.55.6-.07.09-.13.2-.16.31-.12.41-.09.46.34.52.5.07.89.31,1.28.63.54.44,1.02.92,1.42,1.48.56.78.89,1.68,1.24,2.56.06.16.21.3.31.45.03.05.07.11.06.16-.08,1.09.55,1.85,1.17,2.63.14.18.26.36.39.55.26.37.54.73.77,1.12.19.3.34.63.5.95.16.33.32.65.45.99.08.2.12.43.13.65,0,.18.05.27.21.35.84.41,1.41,1.07,1.76,1.94.06.16.05.3-.09.41-.1.09-.19.19-.29.3.06.05.1.09.14.11.5.16.52.56.42.95-.09.37-.21.73-.31,1.1-.05.18-.05.38-.09.56-.02.1-.04.21-.1.27-.09.09-.21.15-.32.22-.04-.12-.07-.24-.12-.36-.04-.1-.07-.23-.15-.28-.18-.11-.36-.08-.55.1.35.25.4.75.86.91.05.02.08.14.08.21,0,.09-.07.17-.08.26,0,.21,0,.41.01.64-.01,0-.09-.03-.17-.07-.17-.08-.26-.03-.28.16,0,.11,0,.22-.01.33-.02.27-.08.31-.32.18-.09-.05-.18-.12-.26-.18-.2.29-.09,1.44.18,1.63.3-.3.25-.84.76-1.01-.04.1-.08.2-.14.29-.17.27-.35.55-.54.8-.06.08-.22.18-.27.16-.12-.06-.27-.18-.3-.3-.13-.44-.22-.9-.33-1.34-.02-.1-.03-.2-.07-.29-.04-.09-.11-.16-.16-.25-.03.1-.09.2-.09.3.02.45.06.91.08,1.36,0,.1,0,.2,0,.3-.14.02-.25.03-.37.04-.01.03-.02.07-.03.1.44-.11.58.23.82.45-.43.39-.85.77-1.33,1.2-.11-.14-.2-.26-.3-.37-.1-.12-.17-.21-.06-.38.06-.09.02-.26-.02-.38-.01-.04-.17-.06-.24-.04-.09.04-.19.12-.22.2-.02.05.08.18.15.22.17.09.18.19.17.37-.02.3.02.6.05.89.02.18-.06.27-.22.32-.1.03-.21.07-.29.14-.33.28-.65.57-.96.87-.1.1-.17.15-.32.06-.25-.14-.5-.09-.81.04.09.08.14.14.21.18.13.08.28.14.16.32-.1.15-.37.2-.48.06-.17-.23-.29-.49-.41-.74-.03-.07-.04-.17-.01-.24.17-.51-.13-.9-.31-1.32-.03-.07-.06-.14-.11-.18-.11-.08-.3-.22-.34-.19-.13.11-.22.27-.29.43-.01.03.14.17.23.19.38.1.42.11.39.51-.04.6-.12,1.2-.2,1.8,0,.06-.11.15-.17.15-.15.01-.31,0-.37-.2-.05-.18-.12-.36-.19-.56-.13.1-.22.17-.37.28-.24-.63-.61-1.09-1.27-1.18-.02.02-.04.04-.06.07.06.07.11.15.17.21.32.34.43.75.33,1.2-.02.1-.18.16-.27.24-.06-.08-.13-.16-.17-.26-.05-.1-.07-.21-.12-.34-.2.16-.15.3-.12.45.02.1,0,.2-.02.3-.09-.04-.21-.05-.27-.12-.18-.23-.36-.48-.51-.73-.11-.18-.18-.22-.3-.05-.13.19-.28.19-.47.13-.24-.07-.49-.12-.76-.18-.02.08-.04.14-.04.2.05.53-.11,1.02-.27,1.52-.1.3-.25.36-.54.22-.1-.05-.2-.12-.31-.17-.18-.09-.23-.22-.2-.42.02-.15-.03-.31-.04-.46-.12.09-.28.15-.37.26-.25.33-.45.7-.69,1.03-.16.22-.34.43-.54.63-.05.05-.22.05-.27,0-.06-.06-.08-.21-.05-.29.11-.24.25-.46.38-.69.13-.23.26-.46.11-.79-.1.14-.18.26-.27.36-.1.11-.22.22-.34.32-.13.1-.26.19-.4.26-.08.04-.19.1-.26.08-.25-.08-.35.05-.45.23-.12.21-.26.41-.43.67-.18-.24-.31-.42-.47-.63-.06.09-.12.15-.17.22-.04.05-.07.14-.11.15-.32.06-.56.27-.82.45-.19.13-.31.04-.3-.2.02-.23.06-.47.11-.7.03-.19.02-.33-.2-.41-.14-.05-.26-.16-.4-.23-.26-.15-.34-.13-.43.16-.04.13-.04.27-.07.4-.02.1-.05.21-.11.29-.14.16-.26.13-.33-.07-.04-.11-.08-.23-.15-.43-.15.27-.26.46-.35.62-.19-.05-.36-.08-.51-.14-.07-.03-.14-.12-.16-.2-.04-.16-.03-.33-.06-.48-.05-.24-.19-.3-.36-.12-.18.19-.32.43-.46.66-.05.07-.06.17-.1.29-.18-.08-.35-.21-.51-.2-.14,0-.26.17-.42.28-.04-.08-.09-.18-.12-.27-.19-.5-.62-.59-.98-.21-.11.12-.24.22-.42.3.01-.09.01-.18.04-.26.11-.43.04-.56-.36-.74-.12-.06-.25-.11-.38-.16-.25-.1-.49-.2-.47-.55-.29.07-.3.25-.3.46,0,.15-.03.3-.05.45-.09-.12-.19-.23-.26-.36-.08-.14-.13-.3-.22-.44-.12-.2-.12-.36.02-.55.21-.28.15-.72-.15-.92-.09-.06-.25-.07-.35-.03-.08.03-.17.17-.17.27,0,.18.05.36.1.53.1.34-.03.59-.34.88-.1-.51-.26-.96-.27-1.41-.01-.45.13-.9.17-1.36-.58.48-.71,1.22-1.08,1.81-.23-.13-.44-.25-.65-.38-.05-.03-.09-.09-.1-.15-.05-.4-.07-.8-.13-1.2-.03-.21,0-.36.14-.51.31-.32.28-.43-.04-.74-.09-.08-.17-.26-.14-.37.14-.53.3-1.06.49-1.58.09-.27.16-.26.38-.08.51.43,1.04.84,1.55,1.27.07.05.1.15.15.22.06.09.09.2.17.27.06.05.17.06.24.04.05-.02.06-.13.08-.2,0-.03,0-.08-.03-.1-.19-.26-.19-.54-.08-.83.16-.41.36-.81.74-1.05.3-.19.64-.11.97.11-.11.04-.21.1-.32.13-.38.09-.89.6-.94.97-.01.08.01.16.04.24.04.11.08.22.13.33.12.25.24.5.37.77.47-.23.93-.06,1.4,0,1.78.21,3.55.31,5.34.04.92-.14,1.78-.39,2.63-.75.61-.27,1.23-.53,1.83-.82.29-.14.54-.36.81-.54.06-.04.11-.1.17-.13.89-.44,1.67-1.05,2.39-1.72.39-.36.67-.83.99-1.26.05-.06.09-.15.16-.18.1-.03.22-.02.33-.03,0,.09.04.2,0,.28-.11.21-.13.4-.03.64.08.19.04.43.07.64.02.16.08.32.16.47.03-.53.22-1.02.13-1.57-.07-.44-.25-.76-.51-1.07-.11-.13-.2-.28-.31-.41-.06-.07-.15-.12-.22-.18-.06.09-.14.18-.18.28-.06.14-.08.29-.12.43-.04,0-.07.02-.08,0-.43-.29-.66-.06-.62.39,0,.08,0,.16.03.24.05.19,0,.28-.22.3-.11,0-.23.1-.31.19-.3.31-.61.62-1.08.79,0-.26.01-.5,0-.73-.02-.23-.07-.45-.1-.7-.26.07-.22.23-.23.38-.01.4-.02.8-.05,1.19,0,.09-.07.18-.13.31-.15-.17-.26-.3-.38-.43-.25.23-.02.67-.49.82,0-.32,0-.63,0-.93.01-.32.05-.63.07-.95,0-.08-.06-.17-.09-.25-.07.07-.19.13-.21.21-.07.26-.12.53-.14.8-.02.28,0,.56,0,.84,0,.24-.1.4-.43.4Zm-5.28-10.16c-.07-.18-.11-.29-.15-.4-.02-.06-.01-.13-.02-.19.07,0,.14-.02.2,0,.25.1.29.28.2.53-.03.09.01.21.03.32.12-.02.25,0,.34-.06.18-.11.33-.25.49-.39.15-.13.1-.21-.06-.27-.14-.05-.28-.08-.41-.14-.14-.06-.17-.18-.04-.27.22-.16.39-.34.46-.62.01-.06.12-.13.18-.13.05,0,.12.1.13.17.02.1.03.22,0,.32-.07.25.01.36.26.38.2.02.25.12.21.32-.05.28-.16.51-.39.69-.16.12-.3.26-.45.39-.35.3-.41.59-.23,1.1.23-.33.59-.33.93-.38.11-.02.21-.05.32-.07.25-.04.31-.19.21-.39-.11-.23-.04-.42.09-.61.08-.12.15-.25.24-.36.51-.65.28-1.47-.12-1.99-.15-.2-.35-.26-.62-.18-.39.11-.8.2-1.19.17-.73-.06-1.36.04-2,.44-.67.42-1.44.74-2.2.95-.52.14-1.02.3-1.51.5-.1.04-.23.04-.29.05-.01-.22-.02-.38-.03-.55-.14.02-.36-.02-.42.06-.18.24.06.37.28.53-.27.06-.49.09-.69.15-.08.03-.16.11-.21.19-.08.14-.09.34-.2.43-.36.27-.59.62-.82,1-.26.45-.64.84-.86,1.31-.17.37-.37.6-.77.68-.2.04-.21.19-.07.32.17.17.19.36.16.58-.02.15-.07.3-.1.45-.04.21-.08.41-.13.62.03.02.06.04.09.06.13-.12.28-.23.4-.36.33-.36.39-.96.97-1.1.03,0,.04-.06.07-.08.12-.08.22-.19.35-.23.39-.14.41-.23.21-.58-.05-.09-.04-.27.02-.36.06-.09.24-.18.32-.15.22.09.36.05.52-.11.05-.05.17-.03.25-.05-.02.1-.02.22-.07.29-.08.09-.22.12-.31.21-.06.05-.06.15-.09.23.07.02.15.07.22.06.18-.04.36-.12.55-.16.24-.05.48-.06.73-.09.21-.03.26-.19.3-.37.04-.18-.03-.29-.18-.38-.13-.08-.25-.19-.39-.31.46-.13.52-.11.69.27.03.06.13.13.19.13.26,0,.42-.25.37-.5-.03-.18-.05-.37-.02-.56,0-.08.14-.2.21-.19.17.01.34.09.51.13-.03.11-.05.22-.1.32-.05.11-.11.2-.17.31.15.03.24,0,.33-.03.45-.18.46-.27.52-.72.03-.22.24-.45.42-.62.11-.1.55.21.64.4.04.08.13.18.19.18.08,0,.19-.1.21-.17.02-.07-.05-.16-.1-.24-.11-.21-.24-.42-.33-.63-.02-.04.1-.2.15-.2.36,0,.67.39.64.75,0,.07,0,.15,0,.26.12-.05.19-.07.26-.11.29-.15.32-.28.1-.52-.09-.09-.19-.18-.25-.29-.04-.09-.06-.23-.02-.32.03-.05.19-.08.27-.06.17.04.33.11.58.2Zm-1.84-8.43c.2-.05.38-.09.55-.15.22-.07.36-.02.34.22-.02.31.13.43.42.47.2.02.4.13.61.14.19.02.39-.02.58-.06.06-.01.14-.08.14-.14.07-.43.12-.86.6-1.18-.32-.14-.57-.3-.84-.36-1-.21-1.68.43-2.4.96,0,0,0,.02,0,.1Zm3.36,22.73c0,.4.02.74,0,1.07-.01.15,0,.41-.26.36-.25-.04-.1-.25-.1-.4,0-.07-.08-.13-.12-.2-.06.04-.15.08-.17.13-.09.25-.17.51-.22.78-.02.13.02.31.11.4.05.05.26.02.35-.03.29-.17.57-.36.83-.57.11-.08.22-.23.23-.35.02-.5,0-1,0-1.49,0-.06-.04-.15-.09-.18-.35-.22-1.03.08-1.12.5-.01.05,0,.14.04.17.03.03.12.01.17,0,.1-.04.19-.1.35-.18Zm12.47-18.66c.06.03.14.06.14.08,0,.08-.02.18-.06.25-.28.51-.28.5.21.79.18.1.28.06.39-.07.28-.33.28-.49.02-.83-.11-.14-.29-.28-.1-.49.01-.02-.02-.08-.04-.12-.11-.21-.21-.41-.34-.61-.06-.1-.16-.17-.24-.26-.08.09-.21.18-.23.28-.05.41-.29.66-.63.85-.05.02-.11.06-.12.11-.02.1-.04.22,0,.3.04.07.18.12.26.11.12-.02.23-.11.34-.17.13-.07.25-.14.39-.21Zm-13.44,6.51c-.04-.05-.1-.19-.21-.26-.06-.04-.2.04-.29.09-.32.18-.65.36-.96.56-.12.08-.24.2-.3.33-.08.19-.11.41-.15.62-.01.09.01.18.02.27.08-.05.18-.07.24-.14.14-.15.26-.33.39-.49.1-.14.21-.2.41-.18.4.06.86-.34.85-.79Zm14.15,4.48c0-.13.02-.25.03-.38.02-.02.04-.03.07-.05.08.09.19.17.23.27.11.31.17.63.29.93.04.1.18.15.28.23.02-.12.08-.25.05-.36-.04-.19-.12-.38-.19-.57-.19-.5-.38-1-.58-1.49-.03-.08-.08-.19-.15-.21-.1-.03-.24-.03-.32.02-.05.03-.06.22-.01.28.19.26.27.47.04.78-.19.26-.06.49.27.55Zm-1.69-13.85c.1-.08.18-.14.23-.22.02-.02-.03-.14-.07-.15-.19-.06-.15-.17-.12-.32.16-.66.13-.72-.44-1.11-.07-.05-.13-.09-.21-.13-.41-.22-.54-.19-.8.25.1.07.2.14.3.21.48.37,1.02.69,1.1,1.45Zm-3.21,19.16s-.04.02-.05.02c.05.1.1.21.14.31.07-.1.16-.19.2-.3.05-.14.04-.3.07-.46.08-.42.16-.84.23-1.25.04-.21-.12-.45-.3-.49-.16-.03-.37.14-.41.36-.02.1-.02.22,0,.32.04.5.08.99.13,1.49Zm5.89,1.5s.05,0,.08.01c.01.13.02.26.05.39.01.05.07.12.11.13.05.01.12-.02.16-.07.24-.28.18-.92-.1-1.16-.14.09-.27.2-.42.26-.12.05-.33-.02-.4.06-.07.09-.03.27-.04.42-.01.15-.04.31-.05.46,0,.25,0,.5,0,.75.28.02.35-.11.33-.3-.03-.36.11-.66.29-.95Zm-18.35,3.71c.1-.04.14-.04.16-.07.23-.27.49-.53.57-.91.04-.21.15-.4.21-.61.02-.07,0-.19-.04-.22-.22-.16-.54-.07-.63.19-.1.28-.2.56-.26.86-.04.23,0,.48,0,.76Zm-.74-25.26s.05.03.07.05c.08-.03.18-.05.25-.1.4-.3.79-.62,1.19-.93.12-.09.13-.19.03-.29-.19-.21-.43-.2-.63-.02-.09.09-.24.11-.36.17-.06.03-.13.05-.16.1-.11.18-.21.37-.29.57-.06.14-.07.3-.11.44Zm15.4-6.73c-.05-.42-.08-.81-.16-1.19-.1-.49-.28-.96-.17-1.47.01-.05-.03-.15-.07-.17-.07-.03-.16-.03-.23,0-.04.02-.06.11-.06.18,0,.77.08,1.53.33,2.27.06.16.08.34.36.39Zm-3.6,28.49c.05-.13.08-.19.08-.24.02-.64.04-1.28.05-1.92,0-.05-.07-.11-.1-.16-.05.04-.14.06-.16.11-.23.6-.35,1.22-.13,1.85.04.11.14.21.25.36Zm12.45-6.53c-.14-.18-.2-.3-.3-.38-.37-.3-.79-.32-1.23-.19-.09.03-.17.12-.25.18.09.08.17.17.27.23.05.03.12.03.18.03.35,0,.7,0,1.01.22.04.03.16-.05.31-.1Zm-23.91,7.65c0-.09,0-.18.01-.27.02-.22-.12-.36-.29-.39-.08-.02-.22.13-.3.24-.07.09-.09.22-.11.33-.04.27.04.49.29.61.08.04.22.04.3,0,.06-.03.08-.16.1-.25.02-.09,0-.18,0-.27Zm9.23-2.24c-.07.16-.12.3-.19.44-.14.29-.05.94.17,1.18.1.11.2.1.26-.02.13-.26.15-1.29-.24-1.59Zm-8.01-10.42s.02.06.02.08c.09,0,.19.04.27.02.27-.08.52-.19.79-.28.23-.08.46-.13.69-.21.08-.02.2-.07.21-.11,0-.14-.03-.28-.05-.42-.09.02-.19.02-.27.06-.44.21-.87.44-1.31.66-.12.06-.24.13-.36.2Zm10.99,10.69c0-.14.01-.28.02-.41.02-.27.06-.54.07-.81.01-.27.03-.54.01-.8,0-.09-.09-.17-.15-.27-.3.32-.29,1.89.04,2.3Zm-5.52,1.54c0-.31-.22-.67-.46-.72-.1-.02-.24.04-.32.11-.03.03.04.19.08.29.02.05.09.08.15.12.17.1.23.25.18.44-.02.09-.05.18-.04.27.01.1.05.25.11.27.16.05.22-.07.24-.22.02-.2.05-.4.07-.54Zm12.57-9.07c.26-.29.18-.67-.08-.87-.3-.23-.65-.32-1.02-.31-.1,0-.19.09-.28.14.08.05.16.13.24.15.42.1.83.22,1.02.66.03.08.07.15.11.23Zm2.93-.04c.1.42.85.81,1.51.78-.04-.47-.87-.9-1.51-.78Zm-8.19,5.47c-.02.47.17.72.62.76.1,0,.2-.05.3-.08-.06-.08-.1-.19-.18-.23-.26-.11-.35-.29-.33-.56,0-.08,0-.18-.04-.23-.05-.07-.15-.1-.22-.15-.04.06-.09.12-.11.19-.02.1-.02.2-.02.3Zm-3.14,1.48c-.02-.14-.02-.33-.07-.51-.02-.07-.14-.1-.22-.15-.04.07-.12.13-.12.2,0,.36.02.72.05,1.08,0,.06.1.12.16.17.05-.06.14-.11.16-.17.03-.19.04-.38.05-.62Zm-9.46-31.74c-.05-.55-.08-1.03-.13-1.51,0-.06-.08-.15-.15-.17-.04-.01-.15.07-.16.12-.09.49-.06.97.23,1.41.04.06.13.09.21.15Zm18.06,22.69c.14-.11.27-.16.29-.24.02-.09-.04-.26-.11-.29-.26-.12-.54-.2-.81-.28-.06-.02-.18.02-.21.07-.03.05-.01.18.03.21.26.18.53.35.82.53Zm-.57-2.54c-.26-.18-.5-.35-.75-.51-.05-.03-.18,0-.23.04-.06.07-.13.2-.11.28.13.45.73.58,1.09.19Zm-2.34-2.81c.48.14.97-.11,1.1-.52.06-.18-.06-.26-.19-.24-.14.02-.3.08-.41.18-.18.16-.32.36-.5.57Zm-16.63,18.77c.2-.38.08-.65-.06-.87-.07-.11-.3-.16-.47-.18-.17-.02-.28.09-.16.25.2.26.43.5.69.8Zm-1.63-1.93c-.34-.01-.67.28-.66.53,0,.07.08.16.14.19.23.11.45,0,.65-.3.06-.08.12-.22.09-.29-.04-.08-.18-.12-.22-.14Zm17.47-5.31s.06-.05.1-.07c-.06-.29-.11-.59-.17-.88-.03,0-.07,0-.1-.01-.2.19-.39.37-.64.61.32.14.57.24.81.35Zm-6.38,5.33c-.06-.09-.1-.16-.15-.23-.06.06-.15.11-.16.18-.05.3-.22.46-.5.54-.08.02-.14.14-.22.21.09.08.16.2.27.23.06.02.18-.07.25-.13.09-.08.17-.19.24-.29.1-.16.18-.33.27-.5Zm-4.23-23.16c-.08.07-.14.1-.15.14,0,.15-.06.37.02.43.15.13.36.19.56.24.04.01.19-.21.18-.22-.19-.2-.4-.39-.62-.59Zm-2.65,22.72c-.03.37-.06.72-.08,1.07,0,.08.03.16.05.24.08-.04.19-.06.25-.13.3-.37.22-.82-.21-1.18Zm7.87-31.24s.05.05.07.08c.1-.08.23-.14.29-.25.16-.3.3-.62.44-.93.02-.04,0-.1,0-.15-.32.06-.78.79-.81,1.25Zm10.46,26.82s-.06.02-.09.02c0,.11-.04.22-.01.32.09.29.19.58.31.86.03.07.15.11.23.16.02-.11.07-.22.04-.32-.06-.21-.14-.42-.23-.63-.07-.15-.17-.28-.26-.42Zm.25-1.73c.05.06.07.12.12.14.27.11.3.32.29.57,0,.13.04.27.09.39.01.04.1.06.16.07.02,0,.07-.06.07-.1-.03-.37-.04-.75-.3-1.05-.1-.12-.24-.19-.42-.03Zm-4.55-.23s-.06.03-.09.04c.05.34.08.68.15,1.01.01.07.16.11.24.16.04-.06.12-.14.11-.19-.07-.3-.16-.59-.26-.88-.02-.06-.09-.09-.14-.14Zm-19.44-21.8c.06.29.09.57.17.84.04.11.19.19.29.28.04-.06.08-.11.13-.17-.27-.2-.21-.5-.24-.77-.03-.23-.14-.26-.35-.19Zm25.25,18.1c.21.28.36.6.75.58.08,0,.2-.14.22-.24.02-.07-.07-.24-.13-.25-.26-.05-.52-.06-.84-.09Zm-13.97,10.2c.07-.02.11-.02.12-.03.12-.12.22-.83.11-.96-.04-.05-.14-.07-.21-.07-.04,0-.13.07-.13.1.03.32.07.63.11.96Zm7.45-4.89c-.29.15-.39.7-.19.89.05.04.14.08.19.06.06-.03.14-.12.14-.17-.03-.26-.08-.51-.13-.78Zm6.81.71c.08-.29-.07-.77-.26-.91-.3.41-.23.7.26.91Zm-4.88,3.73l.11.02c.05-.24.11-.49.15-.73,0-.04-.09-.15-.14-.15-.08,0-.21.05-.23.11-.09.26-.09.53.12.75Zm2.79-2.73s-.04-.1-.1-.14c-.02-.02-.15.04-.16.08-.06.21-.12.42-.14.63,0,.05.11.14.18.17.03.01.14-.09.15-.16.04-.17.04-.34.07-.58Zm-13.01,2.95c-.22.11-.44.7-.31.89.02.03.15.04.19,0,.17-.13.24-.69.11-.9Zm4.44-6.52c-.18-.18-.3-.3-.43-.43-.1.1-.27.21-.28.31,0,.25.24.25.42.28.06.01.14-.08.29-.17Zm3.14-14.08l.12-.05c-.04-.2-.04-.42-.12-.6-.04-.08-.22-.1-.34-.14-.01,0-.09.11-.08.14.13.22.28.43.43.65Zm-21.07,1.73s-.1.12-.09.13c.14.17.29.32.44.48.06-.06.16-.12.17-.19.03-.17-.26-.42-.52-.42Zm16.07,18.31v-.84s-.05-.03-.08-.04c-.07.09-.19.18-.21.28-.04.22.02.42.29.6Zm5.06-3.39c-.01-.15,0-.3-.05-.42-.04-.08-.18-.1-.28-.15-.02.08-.08.17-.07.25.03.18.14.3.39.31Zm-10.88-22.85c.12-.13.24-.2.25-.29,0-.07-.14-.22-.18-.21-.12.04-.22.14-.33.21.07.08.15.16.27.29Zm15.52,24.96c-.17-.58-.2-.61-.5-.54.02.27.22.5.5.54Zm-4.28-10.05c-.03-.34-.34-.53-.52-.41-.03.02-.04.17-.01.19.15.08.32.14.54.23Zm-1.98,13.02c.06.19.09.36.16.51.02.04.15.08.21.05.05-.02.09-.14.07-.2-.04-.18-.13-.33-.43-.36Zm-3.18-1.72c0,.22-.01.42.23.49.04.01.18-.13.18-.19,0-.25-.19-.29-.41-.29Zm-3.83-16.79c-.13-.12-.22-.2-.3-.28-.05.08-.14.17-.13.24.02.12.11.23.17.34.07-.08.14-.16.26-.3Zm9.32-3.44s.07-.03.1-.04c0-.14.03-.29-.01-.41-.03-.07-.17-.11-.27-.15-.01,0-.1.1-.09.12.08.16.18.32.27.48Zm-2.24-8.69c-.13-.12-.21-.26-.26-.24-.1.02-.18.13-.27.2.08.08.15.18.25.22.05.02.15-.08.29-.17Zm5.35,26.47l-.15.05c.02.13,0,.28.07.38.04.07.19.06.29.09.02-.03.04-.06.07-.09l-.28-.43Zm-8.37,6.23c.27-.12.3-.36.34-.59-.3-.05-.42.15-.34.59Zm-12.53-31.05c-.11-.13-.19-.21-.26-.29-.05.07-.16.15-.15.22.01.1.1.19.16.28.07-.06.13-.11.25-.21Zm11.37,14.2c-.09.16-.18.25-.18.33,0,.08.11.16.16.24.07-.1.17-.19.21-.3.02-.04-.09-.13-.19-.27Zm-7.5-17.63l.15-.06c.1-.1.2-.2.3-.29-.06-.05-.14-.14-.17-.13-.13.07-.25.16-.34.26-.03.03.04.14.06.22Zm-2.43,14.95s-.07,0-.1,0c-.04.07-.12.17-.1.21.06.11.17.2.26.3.04-.04.13-.1.12-.13-.05-.13-.12-.26-.18-.39Zm.86-11.69c-.11-.08-.2-.16-.22-.15-.09.06-.18.15-.24.24,0,.01.13.16.14.15.1-.05.18-.13.32-.24Zm6.7.51c-.1.11-.18.2-.26.28.04.04.11.12.13.11.13-.06.24-.13.36-.2-.06-.05-.12-.1-.23-.19Zm-11.48,12.11s-.02.07-.04.1c.06.15.15.28.34.23.04-.01.05-.15.08-.23-.13-.03-.26-.07-.39-.1Zm18.67,6.65c.18-.06.33-.11.49-.16-.02-.04-.05-.12-.06-.12-.15.05-.3.1-.44.16,0,0,0,.02.01.12Zm1.25,10.54c.09-.09.17-.18.26-.27-.06-.04-.12-.13-.17-.12-.16.04-.22.16-.09.39Zm-20.43-20.66c.03-.05.07-.1.1-.16-.11-.07-.22-.14-.33-.21-.04.06-.07.12-.11.18.11.06.23.13.34.19Zm.77,2.34c-.13-.1-.2-.17-.27-.19-.03,0-.13.1-.13.14,0,.07.07.16.13.18.06.01.13-.06.27-.13Zm7.21-11.79c-.29-.11-.39.06-.46.28.25.06.39-.02.46-.28Zm15.32,22.06s-.06-.09-.09-.14c-.1.05-.21.1-.31.15.05.07.1.14.15.22.09-.07.17-.15.26-.22Zm-26.87-12.72c.09-.12.15-.19.2-.26-.08-.04-.15-.11-.23-.12-.03,0-.12.1-.12.15,0,.06.08.12.15.23Zm9.61,19.93c.09-.08.14-.14.2-.19-.07-.05-.15-.13-.22-.14-.06,0-.13.08-.2.12.07.06.13.12.23.2Zm5.91-21.7c-.1-.08-.15-.15-.22-.17-.04,0-.15.1-.14.12.04.08.1.15.16.22.05-.05.11-.09.2-.17Zm-12.08,20.63c-.08.13-.17.21-.16.25.03.07.12.13.19.15.04,0,.15-.09.14-.13-.02-.08-.09-.14-.18-.27Zm9.69-17.44c-.12-.09-.19-.17-.25-.17-.06,0-.12.09-.18.14.06.05.12.13.19.15.05.01.12-.06.24-.12Zm2.62.06c-.1-.06-.17-.14-.22-.13-.06.02-.16.12-.15.16.03.08.11.14.17.2.05-.06.1-.12.2-.23Zm-2.34-2.13s.09,0,.13,0c0-.12.02-.23.03-.35-.07,0-.13.01-.2.02.01.11.03.22.04.33Zm-7.95,5.11c-.14-.08-.22-.16-.29-.16-.05,0-.1.12-.15.19.07.04.13.11.2.12.05,0,.11-.06.24-.14Zm18.78-2.29s.07.02.11.03c.06-.13.11-.25.2-.45-.16.04-.29.04-.3.07-.03.11-.01.23-.01.35Zm-2.19-10.87c-.11-.1-.17-.16-.24-.22-.05.05-.14.11-.13.15,0,.07.07.15.13.18.04.02.12-.05.24-.1Zm-16.6,10.87c-.1-.06-.17-.13-.22-.12-.05,0-.13.1-.12.14.01.07.08.14.12.21.06-.06.12-.13.22-.23Zm-1.91-.18c-.1-.08-.16-.16-.23-.18-.04-.01-.1.07-.15.11.06.07.12.14.19.19.02.01.09-.06.19-.13Zm3.68-.36c.1.07.18.15.19.14.07-.05.14-.12.18-.19,0-.01-.1-.14-.12-.13-.08.03-.14.1-.26.18Zm3.68,19.2c-.1-.06-.17-.14-.2-.12-.07.04-.14.11-.17.19-.01.02.1.14.11.13.08-.04.15-.11.26-.2Zm.34-26.26c-.06-.09-.1-.15-.15-.22-.05.07-.13.14-.13.21,0,.06.08.12.13.19.04-.05.09-.11.15-.18Zm19.19,14.25s-.08-.07-.13-.1c-.07.08-.15.15-.21.24,0,.01.1.1.15.15l.19-.29Zm-6.84-11.55c.04-.34-.17-.31-.39-.29.13.1.26.19.39.29Zm8.08,11.19s-.08-.05-.12-.07c-.06.07-.12.14-.18.22.06.05.11.09.17.14.04-.09.08-.19.13-.28Zm-24.06-4.55c.08-.09.13-.14.18-.19-.06-.05-.11-.13-.17-.14-.04,0-.13.09-.13.14,0,.05.07.11.13.19Zm-8.32-4.63c.07-.1.13-.19.22-.31-.34-.06-.36-.04-.22.31Zm8.63-12.1c-.09-.08-.16-.17-.19-.16-.07.02-.12.11-.17.16.05.05.1.13.16.14.05,0,.11-.07.21-.14Zm19.27,23.01c-.07.12-.13.18-.13.24,0,.06.08.12.12.17.06-.05.16-.09.16-.14,0-.06-.07-.13-.15-.27Zm.65-4.15c-.11-.08-.16-.15-.22-.16-.04,0-.14.08-.14.1.01.07.06.15.12.17.05.02.12-.05.24-.11Zm-3.68-5.05s-.1,0-.15,0c-.01.1-.03.21-.04.31.06,0,.18,0,.19,0,.01-.1,0-.2,0-.3Zm-16.52-.19c-.13-.08-.19-.15-.24-.15-.06,0-.11.08-.17.12.05.04.09.12.14.12.06,0,.13-.04.27-.09Zm-3.33,2.22c-.11-.09-.15-.16-.2-.17-.05,0-.11.06-.16.09.04.05.07.12.12.14.05.02.12-.02.24-.06Zm9.44-11.05c.06-.11.12-.16.11-.21,0-.05-.07-.13-.11-.14-.05,0-.14.07-.14.1,0,.07.07.13.14.24Z" style="fill: #fff;"/>
      <path d="m342.9,303.85c-.2.57-.4,1.14-.6,1.71-.09.25-.2.49-.26.74-.1.4-.55.39-.75.16-.17-.19-.34-.38-.5-.57-.4-.46-.8-.92-1.2-1.37-.02-.02-.05-.04-.14-.1.09,1.56.17,3.07.26,4.6-.54.03-1.09.05-1.65.08-.05-2.4-.1-4.79-.15-7.19.45-.03.89-.06,1.33-.07.09,0,.19.1.26.17.58.68,1.15,1.36,1.71,2.04.04.05.05.14.08.21.04-.03.08-.05.12-.08.11-.37.22-.73.33-1.1.15-.49.3-.97.43-1.46.06-.24.19-.36.44-.4.26-.04.51-.12.77-.18.14-.04.22-.03.28.15.68,2.06,1.38,4.12,2.07,6.18.18.53.17.53-.37.68-.28.08-.57.13-.84.23-.26.1-.33,0-.39-.23-.2-.79-.42-1.57-.64-2.36-.17-.61-.34-1.21-.52-1.82-.03,0-.05,0-.08-.01Z" style="fill: #fff;"/>
      <path d="m349.16,298.49c.43-.27.82-.53,1.24-.75.18-.09.41-.13.61-.11,1.29.14,2.57.3,3.86.45.08.01.17,0,.32,0-.94-.63-1.82-1.23-2.75-1.86.35-.34.68-.66,1.02-.96.06-.05.24,0,.33.06,1.21.83,2.42,1.67,3.62,2.5.6.41,1.19.83,1.79,1.24.21.14.23.28.05.45-.04.04-.08.07-.11.12-.3.5-.72.56-1.27.47-1.61-.28-3.24-.51-4.86-.75-.09-.01-.18,0-.35,0,1.33.98,2.6,1.91,3.9,2.87-.23.17-.45.33-.67.49-.2.14-.4.28-.59.43-.15.12-.27.13-.43,0-.44-.37-.88-.72-1.33-1.08-1.37-1.11-2.73-2.21-4.1-3.32-.09-.07-.18-.15-.28-.23Z" style="fill: #fff;"/>
      <path d="m324.94,303.25c.15-.31.28-.58.41-.84.36-.76.72-1.52,1.1-2.28.03-.06.16-.14.21-.12.43.17.85.36,1.28.54-1.01,2.16-2.01,4.27-3.01,6.42-.42-.17-.84-.33-1.24-.51-.08-.04-.15-.18-.16-.28-.16-1.54-.31-3.08-.46-4.63,0-.03-.02-.07-.04-.15-.82,1.2-1.61,2.36-2.42,3.54-.53-.33-1.03-.65-1.54-.98,1.06-1.36,2.09-2.68,3.13-4.01.36-.46.72-.91,1.07-1.38.14-.19.24-.17.44-.08.43.19.59.48.65.95.15,1.21.35,2.42.54,3.63,0,.04.03.08.06.17Z" style="fill: #fff;"/>
      <path d="m353.59,304.22c-.08.04-.14.07-.2.1-.43.26-.85.51-1.28.78-.18.12-.32.1-.48-.06-.49-.49-1-.97-1.5-1.46-.11-.11-.19-.13-.35-.05-.48.25-.98.47-1.48.68-.18.08-.21.17-.17.36.16.73.3,1.47.46,2.21.03.14,0,.22-.14.26-.41.12-.82.24-1.22.37-.18.06-.2-.05-.22-.18-.14-.77-.27-1.53-.42-2.3-.28-1.44-.56-2.88-.84-4.32,0-.02-.01-.03-.01-.05-.1-.52-.1-.51.4-.7.34-.13.68-.25,1.01-.41.2-.1.35-.07.51.07.91.73,1.83,1.45,2.75,2.18,1.03.82,2.06,1.64,3.17,2.52Zm-5.8-1.23c.43-.21.82-.39,1.22-.59-.59-.52-1.15-1-1.7-1.48-.02.01-.04.03-.05.04.17.66.35,1.32.53,2.03Z" style="fill: #fff;"/>
      <path d="m316.45,299.66c.74.7,1.44,1.35,2.13,2.01-.38.36-.73.7-1.12,1.07-1.12-1.07-2.24-2.14-3.38-3.23.19-.16.37-.31.55-.46,1.59-1.23,3.19-2.45,4.79-3.68.15-.11.23-.13.38,0,.82.72,1.64,1.43,2.48,2.12.22.18.2.29,0,.45-.23.19-.44.4-.65.62-.13.13-.23.13-.37,0-.51-.46-1.02-.9-1.53-1.35-.16-.14-.27-.16-.43,0-.23.21-.49.4-.75.62.59.52,1.16,1.04,1.74,1.56.27.24.27.24.01.5-.18.18-.37.35-.54.53-.14.15-.26.15-.41,0-.52-.5-1.05-1-1.57-1.5-.12-.12-.2-.14-.34-.03-.33.27-.66.52-1.01.78Z" style="fill: #fff;"/>
      <path d="m357.61,292.33c-.36.25-.71.49-1.05.73-.09.07-.21.15-.25.25-.06.15-.13.34-.09.47.03.11.23.23.35.23.2,0,.41-.07.58-.17.61-.33,1.19-.74,1.81-1.03.59-.27,1.24-.28,1.86-.07,1.16.4,1.72,1.68,1.26,2.84-.33.85-1.01,1.4-1.73,1.91-.2.14-.42.25-.65.34-.06.03-.22-.03-.25-.09-.2-.41-.38-.84-.56-1.24.35-.2.68-.38.99-.59.29-.19.47-.47.54-.82.12-.57-.25-1.04-.83-.97-.29.03-.58.16-.84.29-.3.15-.57.36-.85.53-.52.31-1.1.43-1.7.41-1.13-.04-1.81-1.22-1.31-2.28.34-.72.96-1.15,1.65-1.48.07-.03.21,0,.28.06.26.21.51.44.76.65Z" style="fill: #fff;"/>
      <path d="m328.45,302.35c.17-.45.31-.88.49-1.29.03-.07.19-.13.28-.11.96.18,1.92.38,2.88.57.49.1.98.19,1.47.28.18.03.25.08.2.28-.11.43-.19.86-.28,1.28-.5-.08-.96-.16-1.42-.24-.18-.03-.24.03-.28.21-.4,1.69-.81,3.38-1.22,5.07-.04.17-.1.24-.3.18-.52-.14-1.05-.25-1.63-.38.52-1.82,1.04-3.63,1.56-5.46-.59-.14-1.15-.27-1.74-.41Z" style="fill: #fff;"/>
      <path d="m310.27,294.51c1.61-.77,3.17-1.51,4.73-2.26.41-.2.82-.39,1.22-.6.14-.07.22-.05.32.07.72.85,1.45,1.69,2.22,2.58-.36.22-.7.44-1.05.64-.05.03-.2-.05-.27-.12-.37-.4-.74-.8-1.09-1.21-.11-.12-.19-.16-.34-.07-.23.14-.48.25-.75.39.46.58.92,1.15,1.41,1.78-.37.22-.71.43-1.06.62-.05.03-.2-.06-.26-.13-.4-.47-.79-.94-1.18-1.43-.12-.16-.21-.19-.4-.08-.73.4-1.47.78-2.21,1.18-.17.09-.27.07-.38-.09-.29-.41-.6-.81-.93-1.25Z" style="fill: #fff;"/>
      <path d="m334.95,301.94c.44,0,.86,0,1.27,0,.2,0,.2.15.2.28-.02.61-.05,1.21-.07,1.82-.04,1.39-.07,2.77-.11,4.16,0,.3-.03.59-.05.93-.63-.03-1.24-.06-1.86-.09.21-2.39.41-4.73.61-7.11Z" style="fill: #fff;"/>
      <path d="m318.01,277.47c.4-.34.24-.82.34-1.23.03-.01.06-.02.09-.03.09.16.22.31.27.49.05.17.12.27.31.26.19-.02.32.07.42.24.1.18.24.33.35.55-.55-.34-1.15-.31-1.78-.27Z" style="fill: #fff;"/>
      <path d="m326.37,286.15c-.06.12-.12.24-.2.34-.08.11-.21.19-.27.3-.04.07,0,.19.03.28.02.07.11.13.11.2.01.17-.51.64-.75.65.05-.09.07-.19.13-.23.25-.15.2-.36.14-.57-.14-.45-.04-.66.37-.86.12-.06.24-.1.37-.16.02.02.04.03.06.05Z" style="fill: #fff;"/>
      <path d="m326.77,269.61c-.19-.14-.39-.27-.57-.41-.03-.02-.04-.11-.02-.15.22-.38.49-.71.92-.91-.09.48-.44.9-.23,1.43-.03.01-.07.03-.1.04Z" style="fill: #fff;"/>
      <path d="m344.87,266.78c0-.09,0-.18,0-.27.03-.26.24-.39.48-.28.05.02.09.11.09.17-.02.2-.06.39-.1.58-.03.18-.16.29-.32.25-.07-.02-.11-.2-.15-.31-.02-.04,0-.09,0-.13h0Z" style="fill: #fff;"/>
      <path d="m324.81,286.5c.13-.34.3-.48.64-.41-.22.18-.4.33-.58.48-.02-.02-.04-.04-.05-.06Z" style="fill: #fff;"/>
      <path d="m328.79,297.82c-.07-.09-.15-.16-.14-.18.04-.06.1-.12.16-.14.03-.01.09.05.14.08-.04.07-.09.13-.16.24Z" style="fill: #fff;"/>
      <path d="m333.53,279.74c-.24-.09-.41-.16-.58-.2-.09-.02-.25,0-.27.06-.04.09-.03.23.02.32.05.11.16.19.25.29.22.24.19.37-.1.52-.07.04-.15.06-.26.11,0-.11,0-.19,0-.26.04-.36-.27-.74-.64-.75-.05,0-.17.16-.15.2.09.22.22.42.33.63.04.08.12.18.1.24-.02.08-.13.17-.21.17-.06,0-.15-.1-.19-.18-.09-.19-.53-.5-.64-.4-.18.17-.38.39-.42.62-.06.46-.08.55-.52.72-.09.03-.18.05-.33.03.06-.1.12-.2.17-.31.04-.1.07-.21.1-.32-.17-.05-.34-.12-.51-.13-.07,0-.2.11-.21.19-.02.18-.01.37.02.56.05.25-.11.5-.37.5-.07,0-.16-.07-.19-.13-.17-.37-.23-.4-.69-.27.15.12.26.23.39.31.15.09.22.2.18.38-.04.18-.1.34-.3.37-.24.03-.49.05-.73.09-.19.04-.36.12-.55.16-.07.01-.15-.04-.22-.06.03-.08.04-.18.09-.23.09-.08.23-.12.31-.21.06-.07.05-.19.07-.29-.09.01-.2,0-.25.05-.16.16-.31.2-.52.11-.08-.03-.26.06-.32.15-.06.09-.07.27-.02.36.21.35.18.43-.21.58-.13.05-.24.15-.35.23-.03.02-.04.07-.07.08-.58.14-.64.74-.97,1.1-.12.13-.26.24-.4.36-.03-.02-.06-.04-.09-.06.04-.21.08-.41.13-.62.03-.15.07-.3.1-.45.03-.21.02-.41-.16-.58-.14-.13-.13-.28.07-.32.4-.08.59-.31.77-.68.22-.47.6-.86.86-1.31.22-.38.45-.73.82-1,.11-.08.12-.29.2-.43.05-.08.13-.16.21-.19.2-.06.41-.09.69-.15-.22-.17-.46-.29-.28-.53.06-.08.27-.04.42-.06,0,.16.02.33.03.55.07,0,.19,0,.29-.05.49-.21.99-.36,1.51-.5.77-.21,1.53-.53,2.2-.95.65-.4,1.28-.5,2-.44.39.03.81-.06,1.19-.17.28-.08.47-.02.62.18.4.52.63,1.34.12,1.99-.09.11-.16.24-.24.36-.13.19-.2.37-.09.61.09.2.03.35-.21.39-.11.02-.21.05-.32.07-.34.05-.69.05-.93.38-.18-.51-.11-.79.23-1.1.15-.13.3-.27.45-.39.22-.18.34-.41.39-.69.04-.2,0-.3-.21-.32-.25-.02-.33-.13-.26-.38.03-.1.02-.22,0-.32-.01-.07-.08-.17-.13-.17-.06,0-.16.07-.18.13-.07.27-.23.46-.46.62-.13.09-.1.21.04.27.13.06.27.09.41.14.16.06.22.14.06.27-.16.13-.31.28-.49.39-.09.06-.23.04-.34.06-.01-.11-.06-.23-.03-.32.09-.25.05-.43-.2-.53-.06-.02-.13,0-.2,0,0,.06,0,.13.02.19.03.11.08.22.15.4Zm-7.38,3.59c-.17-.1-.27-.17-.38-.22-.02,0-.13.13-.12.15.06.09.14.19.23.24.03.02.12-.08.27-.17Zm9.77-4.42c-.06-.1-.11-.19-.15-.27-.04.07-.12.14-.11.2.01.11.07.21.12.32.05-.08.09-.15.15-.25Z"/>
      <path d="m331.69,271.31c0-.09,0-.1,0-.1.72-.53,1.4-1.17,2.4-.96.27.06.52.22.84.36-.48.32-.53.75-.6,1.18,0,.05-.09.13-.14.14-.19.04-.39.07-.58.06-.2-.02-.4-.12-.61-.14-.29-.03-.44-.15-.42-.47.01-.23-.13-.29-.34-.22-.17.06-.35.1-.55.15Zm1.83.17c.01-.26.02-.53.04-.85-.44.3-.46.56-.04.85Z"/>
      <path d="m335.05,294.04c-.16.09-.26.14-.35.18-.05.02-.14.04-.17,0-.04-.03-.05-.12-.04-.17.08-.42.77-.72,1.12-.5.05.03.09.12.09.18.01.5.03,1,0,1.49,0,.12-.12.27-.23.35-.26.21-.54.4-.83.57-.1.06-.31.09-.35.03-.08-.1-.13-.27-.11-.4.04-.26.13-.52.22-.78.02-.06.11-.09.17-.13.04.07.12.13.12.2,0,.15-.15.36.1.4.25.04.25-.21.26-.36.03-.34,0-.67,0-1.07Z"/>
      <path d="m347.52,275.38c-.13.07-.26.14-.39.21-.11.06-.22.15-.34.17-.08.01-.22-.04-.26-.11-.05-.07-.02-.2,0-.3,0-.04.07-.08.12-.11.35-.18.58-.44.63-.85.01-.1.15-.19.23-.28.08.09.18.16.24.26.12.2.23.41.34.61.02.04.05.1.04.12-.19.21,0,.35.1.49.26.35.26.5-.02.83-.11.13-.22.18-.39.07-.49-.29-.49-.28-.21-.79.04-.07.05-.17.06-.25,0-.02-.08-.05-.14-.08Z"/>
      <path d="m334.08,281.89c0,.45-.45.85-.85.79-.2-.03-.31.04-.41.18-.13.17-.25.34-.39.49-.06.07-.16.09-.24.14,0-.09-.04-.18-.02-.27.04-.21.07-.43.15-.62.05-.13.18-.25.3-.33.31-.2.63-.38.96-.56.09-.05.23-.12.29-.09.11.07.17.21.21.26Z"/>
      <path d="m348.23,286.37c-.32-.06-.46-.29-.27-.55.23-.31.15-.52-.04-.78-.05-.06-.03-.25.01-.28.08-.05.22-.05.32-.02.07.02.12.13.15.21.2.5.39.99.58,1.49.07.19.15.37.19.57.02.11-.03.24-.05.36-.1-.07-.24-.13-.28-.23-.12-.3-.18-.63-.29-.93-.04-.1-.15-.18-.23-.27-.02.02-.04.03-.07.05,0,.12-.02.24-.03.38Z"/>
      <path d="m346.54,272.52c-.08-.76-.62-1.08-1.1-1.45-.1-.08-.2-.14-.3-.21.26-.44.39-.48.8-.25.07.04.14.08.21.13.57.39.6.45.44,1.11-.04.15-.08.26.12.32.04.01.09.12.07.15-.05.08-.14.13-.23.22Z"/>
      <path d="m343.33,291.68c-.04-.5-.09-.99-.13-1.49,0-.11-.01-.22,0-.32.04-.22.26-.39.41-.36.18.04.34.28.3.49-.07.42-.16.84-.23,1.25-.03.15-.02.31-.07.46-.04.11-.13.2-.2.3-.05-.1-.1-.21-.14-.31.02,0,.04-.02.05-.02Z"/>
      <path d="m349.22,293.18c-.18.29-.32.59-.29.95.02.19-.05.32-.33.3,0-.25,0-.5,0-.75,0-.15.03-.31.05-.46.01-.14-.03-.33.04-.42.06-.08.27-.01.4-.06.15-.06.28-.17.42-.26.28.24.34.88.1,1.16-.03.04-.11.08-.16.07-.05-.01-.1-.08-.11-.13-.03-.13-.03-.26-.05-.39-.03,0-.05,0-.08-.01Z"/>
      <path d="m330.87,296.89c0-.28-.03-.53,0-.76.05-.29.15-.58.26-.86.09-.25.41-.35.63-.19.05.03.06.15.04.22-.06.21-.16.4-.21.61-.08.38-.34.63-.57.91-.02.02-.06.03-.16.07Z"/>
      <path d="m330.13,271.63c.03-.15.05-.3.11-.44.08-.2.19-.38.29-.57.03-.05.1-.08.16-.1.12-.06.26-.09.36-.17.2-.18.45-.19.63.02.1.11.09.2-.03.29-.4.31-.79.62-1.19.93-.07.05-.17.07-.25.1-.02-.02-.05-.03-.07-.05Z"/>
      <path d="m345.54,264.9c-.28-.05-.3-.23-.36-.39-.25-.74-.34-1.5-.33-2.27,0-.06.02-.16.06-.18.07-.03.17-.02.23,0,.04.02.08.12.07.17-.11.51.07.98.17,1.47.08.38.1.77.16,1.19Z"/>
      <path d="m341.93,293.39c-.11-.15-.21-.25-.25-.36-.22-.63-.11-1.25.13-1.85.02-.05.1-.08.16-.11.04.05.1.11.1.16-.01.64-.03,1.28-.05,1.92,0,.06-.04.11-.08.24Z"/>
      <path d="m354.38,286.87c-.15.05-.27.13-.31.1-.31-.22-.66-.22-1.01-.22-.06,0-.14,0-.18-.03-.1-.07-.18-.15-.27-.23.08-.06.16-.15.25-.18.44-.14.86-.11,1.23.19.1.08.16.2.3.38Z"/>
      <path d="m330.47,294.51c0,.09.01.18,0,.27-.02.09-.04.22-.1.25-.08.04-.22.04-.3,0-.25-.12-.33-.35-.29-.61.02-.11.04-.24.11-.33.08-.1.22-.25.3-.24.17.04.32.17.29.39,0,.09,0,.18-.01.27Z"/>
      <path d="m339.7,292.27c.39.3.37,1.33.24,1.59-.06.12-.15.14-.26.02-.21-.23-.31-.88-.17-1.18.07-.14.12-.28.19-.44Z"/>
      <path d="m331.69,281.85c.12-.07.24-.14.36-.2.43-.22.87-.45,1.31-.66.08-.04.18-.04.27-.06.02.14.06.28.05.42,0,.04-.13.08-.21.11-.23.07-.46.13-.69.21-.26.09-.52.2-.79.28-.08.03-.18-.01-.27-.02,0-.03-.02-.06-.02-.08Z"/>
      <path d="m342.68,292.55c-.33-.41-.34-1.97-.04-2.3.06.1.14.18.15.27.01.27,0,.54-.01.8-.02.27-.05.54-.07.81-.01.14-.02.28-.02.41Z"/>
      <path d="m337.16,294.08c-.02.15-.05.35-.07.54-.02.14-.08.27-.24.22-.06-.02-.1-.17-.11-.27-.01-.09.02-.18.04-.27.05-.19,0-.34-.18-.44-.05-.03-.12-.07-.15-.12-.04-.09-.11-.25-.08-.29.08-.07.22-.13.32-.11.24.06.47.42.46.72Z"/>
      <path d="m349.72,285.02c-.04-.08-.08-.15-.11-.23-.2-.44-.6-.56-1.02-.66-.09-.02-.16-.1-.24-.15.09-.05.19-.13.28-.14.37-.01.72.07,1.02.31.27.21.34.59.08.87Z"/>
      <path d="m352.65,284.97c.64-.12,1.46.3,1.51.78-.66.03-1.41-.35-1.51-.78Z"/>
      <path d="m344.46,290.44c0-.1,0-.2.02-.3.02-.07.07-.13.11-.19.08.05.17.09.22.15.04.06.05.15.04.23-.01.26.08.45.33.56.08.03.12.15.18.23-.1.03-.2.09-.3.08-.45-.05-.64-.29-.62-.76Z"/>
      <path d="m341.32,291.92c-.02.24-.02.43-.05.62-.01.07-.1.12-.16.17-.05-.06-.15-.11-.16-.17-.03-.36-.04-.72-.05-1.08,0-.07.08-.13.12-.2.08.05.2.09.22.15.05.18.06.37.07.51Z"/>
      <path d="m331.86,260.18c-.09-.06-.17-.09-.21-.15-.28-.43-.32-.91-.23-1.41,0-.05.12-.13.16-.12.06.02.14.1.15.17.05.48.09.96.13,1.51Z"/>
      <path d="m349.91,282.87c-.29-.18-.56-.35-.82-.53-.04-.03-.06-.17-.03-.21.03-.05.15-.09.21-.07.28.08.55.16.81.28.07.03.13.2.11.29-.02.08-.15.13-.29.24Z"/>
      <path d="m349.34,280.33c-.36.39-.96.26-1.09-.19-.02-.08.05-.2.11-.28.04-.05.17-.07.23-.04.25.15.49.33.75.51Z"/>
      <path d="m347.01,277.51c.18-.21.32-.41.5-.57.11-.1.26-.16.41-.18.14-.02.25.06.19.24-.13.41-.62.66-1.1.52Z"/>
      <path d="m330.38,296.28c-.26-.3-.49-.54-.69-.8-.12-.16,0-.27.16-.25.17.02.4.06.47.18.14.22.26.5.06.87Z"/>
      <path d="m328.75,294.35s.18.05.22.14c.03.07-.03.2-.09.29-.2.3-.42.4-.65.3-.07-.03-.14-.12-.14-.19,0-.26.32-.55.66-.53Z"/>
      <path d="m346.22,289.04c-.25-.11-.5-.21-.81-.35.25-.24.45-.43.64-.61.03,0,.07,0,.1.01.06.29.11.59.17.88-.03.02-.06.05-.1.07Z"/>
      <path d="m339.84,294.37c-.09.18-.17.34-.27.5-.07.11-.14.21-.24.29-.07.06-.19.15-.25.13-.1-.03-.18-.15-.27-.23.07-.07.13-.18.22-.21.28-.08.45-.24.5-.54.01-.07.11-.12.16-.18.04.07.09.14.15.23Z"/>
      <path d="m335.61,271.21c.21.2.42.39.62.59,0,.01-.14.23-.18.22-.2-.05-.41-.11-.56-.24-.08-.07-.03-.29-.02-.43,0-.04.07-.07.15-.14Z"/>
      <path d="m332.96,293.93c.43.36.51.81.21,1.18-.05.07-.16.09-.25.13-.02-.08-.05-.16-.05-.24.02-.35.05-.7.08-1.07Z"/>
      <path d="m340.82,262.69c.03-.47.48-1.2.81-1.25,0,.05,0,.11,0,.15-.14.31-.28.63-.44.93-.06.1-.19.17-.29.25-.02-.03-.05-.05-.07-.08Z"/>
      <path d="m351.28,289.52c.09.14.19.27.26.42.09.2.18.41.23.63.02.1-.03.21-.04.32-.08-.05-.2-.09-.23-.16-.12-.28-.22-.57-.31-.86-.03-.1,0-.21.01-.32.03,0,.06-.02.09-.02Z"/>
      <path d="m351.54,287.79c.18-.16.32-.09.42.03.26.3.27.68.3,1.05,0,.03-.05.1-.07.1-.06,0-.14-.03-.16-.07-.05-.12-.09-.26-.09-.39,0-.25-.02-.47-.29-.57-.04-.02-.07-.08-.12-.14Z"/>
      <path d="m346.99,287.56s.12.08.14.14c.1.29.19.59.26.88.01.05-.07.12-.11.19-.08-.05-.23-.09-.24-.16-.07-.33-.1-.67-.15-1.01.03-.01.06-.03.09-.04Z"/>
      <path d="m327.54,265.76c.21-.07.33-.05.35.19.03.27-.03.57.24.77-.04.06-.08.11-.13.17-.1-.09-.26-.17-.29-.28-.09-.27-.12-.56-.17-.84Z"/>
      <path d="m352.8,283.86c.32.03.58.04.84.09.06.01.15.18.13.25-.03.1-.14.23-.22.24-.39.02-.53-.3-.75-.58Z"/>
      <path d="m338.83,294.06c-.04-.33-.08-.64-.11-.96,0-.03.08-.1.13-.1.07,0,.17.02.21.07.1.13,0,.84-.11.96-.02.02-.05.01-.12.03Z"/>
      <path d="m346.28,289.17c.05.27.1.52.13.78,0,.06-.07.15-.14.17-.05.02-.14-.02-.19-.06-.19-.18-.09-.74.19-.89Z"/>
      <path d="m353.08,289.89c-.48-.21-.56-.5-.26-.91.19.14.33.62.26.91Z"/>
      <path d="m348.21,293.62c-.2-.22-.2-.49-.12-.75.02-.06.15-.11.23-.11.05,0,.15.1.14.15-.04.25-.1.49-.15.73l-.11-.02Z"/>
      <path d="m351,290.89c-.02.24-.03.41-.07.58-.01.07-.12.17-.15.16-.08-.03-.19-.12-.18-.17.02-.21.08-.42.14-.63.01-.04.14-.1.16-.08.06.05.09.13.1.14Z"/>
      <path d="m337.99,293.84c.12.2.06.77-.11.9-.04.03-.17.03-.19,0-.13-.18.08-.78.31-.89Z"/>
      <path d="m342.43,287.32c-.15.09-.23.18-.29.17-.17-.04-.43-.03-.42-.28,0-.11.18-.21.28-.31.12.12.25.25.43.43Z"/>
      <path d="m345.57,273.24c-.14-.22-.29-.43-.43-.65-.01-.02.07-.14.08-.14.12.03.31.06.34.14.08.18.09.4.12.6l-.12.05Z"/>
      <path d="m324.5,274.98c.26,0,.55.26.52.42-.01.07-.11.13-.17.19-.15-.16-.3-.32-.44-.48-.01-.01.07-.1.09-.13Z"/>
      <path d="m340.58,293.29c-.27-.18-.33-.39-.29-.6.02-.1.14-.19.21-.28.03.01.05.03.08.04v.84Z"/>
      <path d="m345.64,289.9c-.25,0-.36-.14-.39-.31-.01-.08.04-.17.07-.25.1.05.24.07.28.15.06.11.04.27.05.42Z"/>
      <path d="m334.76,267.06c-.12-.13-.2-.21-.27-.29.11-.08.21-.18.33-.21.04-.01.19.14.18.21,0,.09-.13.16-.25.29Z"/>
      <path d="m350.28,292.01c-.28-.05-.48-.28-.5-.54.3-.07.33-.04.5.54Z"/>
      <path d="m346,281.96c-.22-.09-.38-.15-.54-.23-.02-.01-.02-.16.01-.19.18-.12.49.07.52.41Z"/>
      <path d="m344.02,294.98c.3.02.39.18.43.36.01.06-.03.18-.07.2-.05.03-.19,0-.21-.05-.07-.15-.1-.31-.16-.51Z"/>
      <path d="m340.84,293.26c.23,0,.41.05.41.29,0,.07-.14.21-.18.19-.24-.07-.24-.27-.23-.49Z"/>
      <path d="m337.01,276.47c-.12.13-.19.22-.26.3-.06-.11-.15-.22-.17-.34-.01-.07.08-.16.13-.24.09.08.17.16.3.28Z"/>
      <path d="m346.34,273.03c-.09-.16-.19-.31-.27-.48-.01-.02.07-.13.09-.12.1.04.24.07.27.15.04.12.01.27.01.41-.03.01-.07.03-.1.04Z"/>
      <path d="m344.09,264.34c-.14.09-.24.19-.29.17-.1-.03-.17-.14-.25-.22.09-.07.17-.18.27-.2.05-.01.14.12.26.24Z"/>
      <path d="m349.44,290.81l.28.43s-.04.06-.07.09c-.1-.03-.25-.02-.29-.09-.06-.1-.05-.25-.07-.38l.15-.05Z"/>
      <path d="m341.07,297.04c-.07-.44.04-.64.34-.59-.05.23-.07.47-.34.59Z"/>
      <path d="m328.55,265.99c-.12.1-.18.15-.25.21-.06-.09-.15-.18-.16-.28,0-.07.1-.14.15-.22.07.08.14.16.26.29Z"/>
      <path d="m339.92,280.2c.1.14.21.23.19.27-.04.11-.13.2-.21.3-.06-.08-.16-.16-.16-.24,0-.08.09-.17.18-.33Z"/>
      <path d="m332.41,262.57c-.02-.08-.09-.19-.06-.22.1-.11.22-.19.34-.26.02-.01.11.08.17.13-.1.1-.2.2-.3.29l-.15.06Z"/>
      <path d="m329.98,277.52c.06.13.13.25.18.39,0,.03-.08.09-.12.13-.09-.1-.2-.19-.26-.3-.02-.04.06-.14.1-.21.03,0,.07,0,.1,0Z"/>
      <path d="m330.84,265.83c-.14.11-.22.19-.32.24-.02,0-.15-.14-.14-.15.07-.09.15-.17.24-.24.02-.01.11.07.22.15Z"/>
      <path d="m337.55,266.34c.11.09.17.14.23.19-.12.07-.23.15-.36.2-.02,0-.09-.07-.13-.11.08-.08.15-.17.26-.28Z"/>
      <path d="m326.07,278.45c.13.03.26.07.39.1-.03.08-.04.21-.08.23-.2.05-.28-.08-.34-.23.01-.03.02-.07.04-.1Z"/>
      <path d="m344.74,285.1c-.01-.1-.01-.12-.01-.12.15-.05.29-.11.44-.16,0,0,.04.08.06.12-.16.05-.31.1-.49.16Z"/>
      <path d="m345.99,295.64c-.13-.23-.07-.35.09-.39.04-.01.11.08.17.12-.09.09-.17.18-.26.27Z"/>
      <path d="m325.56,274.98c-.11-.06-.23-.13-.34-.19l.11-.18c.11.07.22.14.33.21-.03.05-.07.1-.1.16Z"/>
      <path d="m326.33,277.32c-.14.07-.22.15-.27.13-.06-.01-.12-.11-.13-.18,0-.05.1-.15.13-.14.08.02.14.09.27.19Z"/>
      <path d="m333.54,265.54c-.07.26-.22.34-.46.28.08-.22.17-.39.46-.28Z"/>
      <path d="m348.86,287.6c-.09.07-.17.15-.26.22-.05-.07-.1-.14-.15-.22.1-.05.21-.1.31-.15.03.05.06.09.09.14Z"/>
      <path d="m321.99,274.89c-.08-.11-.15-.17-.15-.23,0-.05.09-.15.12-.15.08.01.16.08.23.12-.05.07-.11.14-.2.26Z"/>
      <path d="m331.6,294.81c-.1-.09-.16-.15-.23-.2.07-.04.14-.13.2-.12.08,0,.15.09.22.14-.06.05-.11.11-.2.19Z"/>
      <path d="m337.51,273.11c-.09.08-.15.12-.2.17-.06-.07-.12-.14-.16-.22,0-.02.1-.13.14-.12.07.01.12.09.22.17Z"/>
      <path d="m325.43,293.74c.09.13.16.19.18.27,0,.03-.1.14-.14.13-.07-.02-.17-.08-.19-.15-.02-.04.08-.13.16-.25Z"/>
      <path d="m335.12,276.3c-.12.06-.19.13-.24.12-.07-.02-.13-.09-.19-.15.06-.05.12-.14.18-.14.06,0,.13.08.25.17Z"/>
      <path d="m337.73,276.36c-.09.11-.14.17-.2.23-.06-.07-.15-.12-.17-.2-.01-.03.09-.14.15-.16.05-.01.12.07.22.13Z"/>
      <path d="m335.39,274.23c-.01-.11-.03-.22-.04-.33.07,0,.13-.01.2-.02,0,.12-.02.23-.03.35-.04,0-.09,0-.13,0Z"/>
      <path d="m327.45,279.34c-.13.08-.19.15-.24.14-.07,0-.13-.07-.2-.12.05-.07.09-.18.15-.19.07,0,.15.08.29.16Z"/>
      <path d="m346.23,277.06c0-.12-.02-.24.01-.35,0-.03.14-.04.3-.07-.09.2-.15.33-.2.45-.04-.01-.07-.02-.11-.03Z"/>
      <path d="m344.05,266.19c-.12.05-.19.12-.24.1-.06-.03-.13-.11-.13-.18,0-.05.09-.1.13-.15.06.06.13.12.24.22Z"/>
      <path d="m327.44,277.07c-.1.1-.16.17-.22.23-.04-.07-.11-.13-.12-.21,0-.04.07-.14.12-.14.05,0,.12.06.22.12Z"/>
      <path d="m325.53,276.89c-.09.07-.17.14-.19.13-.07-.05-.13-.12-.19-.19.05-.04.11-.12.15-.11.07.02.13.09.23.18Z"/>
      <path d="m329.21,276.53c.12-.09.18-.15.26-.18.02,0,.13.11.12.13-.05.08-.11.14-.18.19-.02.01-.09-.06-.19-.14Z"/>
      <path d="m332.89,295.73c-.11.09-.18.15-.26.2-.01,0-.12-.11-.11-.13.04-.07.1-.14.17-.19.02-.01.1.06.2.12Z"/>
      <path d="m333.23,269.46c-.06.08-.1.13-.15.18-.05-.06-.14-.13-.13-.19,0-.07.09-.14.13-.21.04.07.09.13.15.22Z"/>
      <path d="m352.42,283.71l-.19.29c-.05-.05-.16-.14-.15-.15.06-.09.14-.16.21-.24.04.03.08.07.13.1Z"/>
      <path d="m345.57,272.17c-.13-.1-.26-.19-.39-.29.21-.02.43-.05.39.29Z"/>
      <path d="m353.65,283.35c-.04.09-.08.19-.13.28-.06-.05-.11-.09-.17-.14.06-.07.12-.14.18-.22.04.02.08.05.12.07Z"/>
      <path d="m329.6,278.81c-.07-.09-.14-.15-.13-.19,0-.06.1-.15.13-.14.07.02.12.09.17.14-.05.05-.09.1-.18.19Z"/>
      <path d="m321.28,274.17c-.14-.35-.13-.37.22-.31-.08.12-.15.22-.22.31Z"/>
      <path d="m329.91,262.07c-.09.07-.15.14-.21.14-.05,0-.1-.09-.16-.14.06-.06.1-.14.17-.16.03-.01.1.08.19.16Z"/>
      <path d="m349.18,285.08c.08.13.16.2.15.27,0,.05-.1.1-.16.14-.04-.06-.11-.11-.12-.17,0-.05.06-.11.13-.24Z"/>
      <path d="m349.83,280.93c-.12.06-.19.13-.24.11-.05-.02-.1-.11-.12-.17,0-.03.09-.11.14-.1.06,0,.11.08.22.16Z"/>
      <path d="m346.15,275.88c0,.1,0,.2,0,.3,0,0-.12,0-.19,0,.01-.1.03-.21.04-.31.05,0,.1,0,.15,0Z"/>
      <path d="m329.63,275.69c-.14.05-.21.1-.27.09-.05,0-.09-.08-.14-.12.06-.04.11-.12.17-.12.06,0,.12.07.24.15Z"/>
      <path d="m326.31,277.9c-.13.03-.2.08-.24.06-.05-.02-.08-.09-.12-.14.05-.03.11-.09.16-.09.05,0,.1.08.2.17Z"/>
      <path d="m335.74,266.85c-.07-.12-.13-.18-.14-.24,0-.03.09-.11.14-.1.04,0,.11.09.11.14,0,.05-.05.1-.11.21Z"/>
      <path d="m347.79,302.99c-.19-.71-.36-1.37-.53-2.03.02-.01.04-.03.05-.04.56.48,1.11.97,1.7,1.48-.41.19-.8.38-1.22.59Z"/>
      <path d="m326.15,283.33c-.14.09-.24.19-.27.17-.09-.06-.17-.15-.23-.24-.01-.02.1-.15.12-.15.11.05.21.12.38.22Z" style="fill: #fff;"/>
      <path d="m335.92,278.92c-.06.09-.11.17-.15.25-.04-.1-.11-.21-.12-.32,0-.06.07-.13.11-.2.05.08.1.17.15.27Z" style="fill: #fff;"/>
      <path d="m333.52,271.48c-.42-.29-.4-.55.04-.85-.01.32-.03.58-.04.85Z" style="fill: #fff;"/>
    </g>
  </g>
</svg>