<?xml version="1.0" encoding="UTF-8"?>
<svg id="Layer_1" data-name="Layer 1" xmlns="http://www.w3.org/2000/svg" viewBox="0 0 3000 3000">
  <g id="Jason-Mask">
    <circle cx="1500" cy="1500" r="1200" style="fill: #4c6164;"/>
    <g>
      <g style="opacity: .3;">
        <path d="m2008.17,1501.12c-2.31,25.12-5.81,53.1-11.1,82.7-2.33,13.07-5,26.45-8.11,40-5.89,26.1-13.13,51.88-21.7,77.23-9.97,29.58-22.14,58.37-36.4,86.14-61.11,118.07-167.86,221-354.36,240.27-526.7,54.42-578.19-413.41-562.76-705.26,23-434.2,622.63-363.54,622.63-363.54,34.23,6.77,68,15.69,101.1,26.72,11.04,3.72,21.65,7.6,31.83,11.64,78.24,31,131.69,70.77,168.1,113.46,9.08,10.64,17.44,21.89,25,33.66,30.37,47.3,43.22,96.14,48.33,139-22.12-30.62-53.6-49.76-88.54-49.76-67,0-121.25,70.29-121.25,157s54.29,157,121.25,157c33.62,0,64.02-17.69,85.98-46.26Zm-533.7-105.74c0-96.1-73-174-163-174s-163,77.9-163,174,73,174,163,174,163-77.9,163-174Z"/>
      </g>
      <g>
        <g>
          <path d="m1148.47,1393.38c0,96.1,73,174,163,174s163-77.9,163-174-73-174-163-174-163,77.9-163,174Zm859.7,105.74c-2.31,25.12-5.81,53.1-11.1,82.7-3-8.71-9-14.56-16.18-14.56-10.77,0-20,13.23-20.73,29.56s7.5,29.56,18.26,29.56c3.96-.12,7.72-1.73,10.54-4.52-5.89,26.1-13.13,51.88-21.7,77.23l-2.47-.83c-17.67-86.12-131.32-108.88-131.32-108.88,0,0,95.36,86.43,95.18,194.71l2.21,1.14c-61.11,118.07-167.86,221-354.36,240.27-526.7,54.42-578.19-413.41-562.76-705.26,23-434.2,622.63-363.54,622.63-363.54,34.23,6.75,68,15.66,101.1,26.68-11.17,2.84-16.37,14.37-11.72,28.17,5.36,15.94,21.8,28.85,36.71,28.85s22.65-12.91,17.29-28.85c-2.18-6.23-5.76-11.88-10.45-16.53,78.24,31,131.69,70.77,168.1,113.46-7.28,4.41-12.73,15-13.25,27.36-.68,16.3,7.51,29.54,18.32,29.54,9.33,0,17.55-10,20-23.26,30.37,47.3,43.22,96.14,48.33,139-22.12-30.62-53.6-49.76-88.54-49.76-67,0-121.25,70.29-121.25,157s54.29,157,121.25,157c33.55.02,63.95-17.67,85.91-46.24Zm-125,295.7c.68-16.33-7.49-29.56-18.25-29.56s-20,13.23-20.73,29.56,7.5,29.56,18.26,29.56,20.02-13.24,20.69-29.56h.03Zm-216.7-539.44l181-77c-108,13-416,9-416,9l235,68Zm113-115c14.91,0,25.21-13.06,23-29.17s-16.08-29.17-31-29.17-25.21,13.06-23,29.17,16.09,29.17,31,29.17Zm0,596c14.91,0,25.21-13.06,23-29.17s-16.08-29.17-31-29.17-25.21,13.06-23,29.17,16.09,29.17,31,29.17Zm10.71,76.44c.94-16.33-10.38-29.56-25.29-29.56s-27.77,13.23-28.71,29.56,10.38,29.56,25.29,29.56,27.77-13.24,28.71-29.56Zm-281.71-232.44c253,153,289-18,289-18-18-136-289,18-289,18Zm257.26,334.55c2.91-16.26-6.82-29.45-21.73-29.45s-29.36,13.19-32.27,29.45,6.83,29.45,21.74,29.45,29.36-13.19,32.26-29.45Zm-126.26-774.55c14.91,0,25.21-13.06,23-29.17s-16.08-29.17-31-29.17-25.21,13.06-23,29.17,16.09,29.17,31,29.17Zm-82,605c14.91,0,25.21-13.06,23-29.17s-16.08-29.17-31-29.17-25.21,13.06-23,29.17,16.09,29.17,31,29.17Zm20.71,81.44c.94-16.33-10.38-29.56-25.29-29.56s-27.77,13.23-28.71,29.56,10.38,29.56,25.29,29.56,27.77-13.24,28.71-29.56Zm-19.45,103.11c2.91-16.26-6.82-29.45-21.73-29.45s-29.36,13.19-32.27,29.45,6.83,29.45,21.74,29.45,29.36-13.19,32.26-29.45h0Zm-68.26-785.55c14.91,0,25.21-13.06,23-29.17s-16.08-29.17-31-29.17-25.21,13.06-23,29.17,16.09,29.17,31,29.17Zm-19-95c14.91,0,22.65-12.91,17.29-28.85s-21.8-28.84-36.71-28.84-22.65,12.91-17.29,28.84,21.8,28.85,36.71,28.85Zm-30.29,784.44c.94-16.33-10.38-29.56-25.29-29.56s-27.77,13.23-28.71,29.56,10.38,29.56,25.29,29.56,27.77-13.24,28.71-29.56Zm-194.71,27.56s198-182,185-281c0,0-95,149-235,226l50,55Zm-36.29-714.56c.94-16.33-10.38-29.56-25.29-29.56s-27.77,13.23-28.71,29.56,10.38,29.56,25.29,29.56,27.77-13.24,28.71-29.56Zm-17,511c.94-16.33-10.38-29.56-25.29-29.56s-27.77,13.23-28.71,29.56,10.38,29.56,25.29,29.56,27.77-13.24,28.71-29.56Z" style="fill: #e5d8c1;"/>
          <path d="m1928.65,1784.09c.18-108.28-95.18-194.71-95.18-194.71,0,0,113.65,22.76,131.32,108.88l2.47.83c-9.97,29.58-22.14,58.37-36.4,86.14l-2.21-1.14Z" style="fill: #bf2e16;"/>
          <path d="m1847.47,1178.38l-181,77-235-68s308,4,416-9Z" style="fill: #bf2e16;"/>
          <path d="m1797.47,1562.38s-36,171-289,18c0,0,271-154,289-18Z" style="fill: #c6baa7;"/>
          <path d="m1431.47,1580.38c13,99-185,281-185,281l-50-55c140-77,235-226,235-226Z" style="fill: #bf2e16;"/>
        </g>
        <g>
          <path d="m1737.47,983.38c11.04,3.72,21.65,7.6,31.83,11.64" style="fill: none; stroke: #000; stroke-linecap: round; stroke-linejoin: round; stroke-width: 13px;"/>
          <path d="m1962.47,1142.12c-7.56-11.77-15.92-23.02-25-33.66" style="fill: none; stroke: #000; stroke-linecap: round; stroke-linejoin: round; stroke-width: 13px;"/>
          <path d="m1769.31,995c78.24,31,131.69,70.77,168.1,113.46" style="fill: none; stroke: #000; stroke-linecap: round; stroke-linejoin: round; stroke-width: 13px;"/>
          <path d="m1962.47,1142.12c30.37,47.3,46.43,109.88,51.54,152.76" style="fill: none; stroke: #000; stroke-linecap: round; stroke-linejoin: round; stroke-width: 13px;"/>
          <path d="m2009.97,1488.88c-2.31,25.12-7.61,63.34-12.9,92.94" style="fill: none; stroke: #000; stroke-linecap: round; stroke-linejoin: round; stroke-width: 13px;"/>
          <path d="m1737.47,983.38c-33.11-11.01-66.88-19.91-101.11-26.66,0,0-599.66-70.66-622.63,363.54-15.43,291.85,36.06,759.68,562.76,705.26,186.5-19.27,293.25-122.2,354.36-240.27,14.26-27.77,26.43-56.56,36.4-86.14,8.57-25.35,15.81-51.13,21.7-77.23" style="fill: none; stroke: #000; stroke-linecap: round; stroke-linejoin: round; stroke-width: 13px;"/>
          <path d="m1988.96,1621.86c3.09-13.59,5.78-27,8.11-40" style="fill: none; stroke: #000; stroke-linecap: round; stroke-linejoin: round; stroke-width: 13px;"/>
          <ellipse cx="1309.47" cy="1389.38" rx="160" ry="170.8" style="fill: none; stroke: #000; stroke-linecap: round; stroke-linejoin: round; stroke-width: 12.76px;"/>
          <path d="m2011.97,1294.88c-22.12-30.62-54.81-63.5-89.75-63.5-67,0-121.25,70.29-121.25,157s54.29,157,121.25,157c33.59,0,64.79-27.93,86.75-56.5" style="fill: none; stroke: #000; stroke-linecap: round; stroke-linejoin: round; stroke-width: 13px;"/>
          <path d="m1662.47,1111.21c-2.2-16.11-16.08-29.17-31-29.17s-25.21,13.06-23,29.17,16.09,29.17,31,29.17,25.21-13.06,23-29.17Z" style="fill: none; stroke: #000; stroke-linecap: round; stroke-linejoin: round; stroke-width: 13px;"/>
          <path d="m1580.47,1716.21c-2.2-16.11-16.08-29.17-31-29.17s-25.21,13.06-23,29.17,16.09,29.17,31,29.17,25.21-13.06,23-29.17Z" style="fill: none; stroke: #000; stroke-linecap: round; stroke-linejoin: round; stroke-width: 13px;"/>
          <path d="m1578.18,1826.82c.94-16.33-10.38-29.56-25.29-29.56s-27.77,13.23-28.71,29.56,10.38,29.56,25.29,29.56,27.77-13.24,28.71-29.56Z" style="fill: none; stroke: #000; stroke-linecap: round; stroke-linejoin: round; stroke-width: 13px;"/>
          <path d="m1412.47,1863.38c14.91,0,27.77-13.24,28.71-29.56s-10.38-29.56-25.29-29.56-27.77,13.23-28.71,29.56,10.38,29.56,25.29,29.56Z" style="fill: none; stroke: #000; stroke-linecap: round; stroke-linejoin: round; stroke-width: 13px;"/>
          <path d="m1139.18,1657.82c-.94,16.32,10.38,29.56,25.29,29.56s27.77-13.24,28.71-29.56-10.38-29.56-25.29-29.56-27.77,13.23-28.71,29.56Z" style="fill: none; stroke: #000; stroke-linecap: round; stroke-linejoin: round; stroke-width: 13px;"/>
          <path d="m1184.89,1117.26c-14.91,0-27.77,13.23-28.71,29.56s10.38,29.56,25.29,29.56,27.77-13.24,28.71-29.56-10.38-29.56-25.29-29.56Z" style="fill: none; stroke: #000; stroke-linecap: round; stroke-linejoin: round; stroke-width: 13px;"/>
          <path d="m1526.47,1959.38c14.91,0,29.36-13.19,32.26-29.45s-6.82-29.45-21.73-29.45-29.36,13.19-32.27,29.45,6.83,29.45,21.74,29.45Z" style="fill: none; stroke: #000; stroke-linecap: round; stroke-linejoin: round; stroke-width: 13px;"/>
          <path d="m1733.47,1944.38c14.91,0,29.36-13.19,32.26-29.45s-6.82-29.45-21.73-29.45-29.36,13.19-32.27,29.45,6.83,29.45,21.74,29.45Z" style="fill: none; stroke: #000; stroke-linecap: round; stroke-linejoin: round; stroke-width: 13px;"/>
          <path d="m1790.18,1812.82c.94-16.33-10.38-29.56-25.29-29.56s-27.77,13.23-28.71,29.56,10.38,29.56,25.29,29.56,27.77-13.24,28.71-29.56Z" style="fill: none; stroke: #000; stroke-linecap: round; stroke-linejoin: round; stroke-width: 13px;"/>
          <path d="m1862.47,1824.38c10.76,0,20-13.24,20.72-29.56s-7.49-29.56-18.25-29.56-20,13.23-20.73,29.56,7.45,29.56,18.26,29.56Z" style="fill: none; stroke: #000; stroke-linecap: round; stroke-linejoin: round; stroke-width: 13px;"/>
          <path d="m1997.07,1581.82c-3-8.71-9-14.56-16.18-14.56-10.77,0-20,13.23-20.73,29.56s7.5,29.56,18.26,29.56c3.96-.12,7.72-1.73,10.54-4.52" style="fill: none; stroke: #000; stroke-linecap: round; stroke-linejoin: round; stroke-width: 13px;"/>
          <path d="m1962.47,1142.12c-2.5,13.26-10.72,23.26-20,23.26-10.76,0-18.94-13.24-18.26-29.56.52-12.36,6-23,13.25-27.36" style="fill: none; stroke: #000; stroke-linecap: round; stroke-linejoin: round; stroke-width: 13px;"/>
          <path d="m1802.47,1707.21c-2.2-16.11-16.08-29.17-31-29.17s-25.21,13.06-23,29.17,16.09,29.17,31,29.17,25.21-13.06,23-29.17Z" style="fill: none; stroke: #000; stroke-linecap: round; stroke-linejoin: round; stroke-width: 13px;"/>
          <path d="m1802.47,1111.21c-2.2-16.11-16.08-29.17-31-29.17s-25.21,13.06-23,29.17,16.09,29.17,31,29.17,25.21-13.06,23-29.17Z" style="fill: none; stroke: #000; stroke-linecap: round; stroke-linejoin: round; stroke-width: 13px;"/>
          <path d="m1513.47,1115.21c-2.2-16.11-16.08-29.17-31-29.17s-25.21,13.06-23,29.17,16.09,29.17,31,29.17,25.21-13.06,23-29.17Z" style="fill: none; stroke: #000; stroke-linecap: round; stroke-linejoin: round; stroke-width: 13px;"/>
          <path d="m1488.76,1020.53c-5.36-15.93-21.8-28.84-36.71-28.84s-22.65,12.91-17.29,28.84,21.8,28.85,36.71,28.85,22.65-12.91,17.29-28.85Z" style="fill: none; stroke: #000; stroke-linecap: round; stroke-linejoin: round; stroke-width: 13px;"/>
          <path d="m1737.47,983.38c-11.17,2.84-16.37,14.37-11.72,28.17,5.36,15.94,21.8,28.85,36.71,28.85s22.65-12.91,17.29-28.85c-2.18-6.23-5.76-11.88-10.45-16.53" style="fill: none; stroke: #000; stroke-linecap: round; stroke-linejoin: round; stroke-width: 13px;"/>
        </g>
      </g>
    </g>
  </g>
</svg>