<?xml version="1.0" encoding="UTF-8"?>
<svg id="ACCESSORY" xmlns="http://www.w3.org/2000/svg" xmlns:xlink="http://www.w3.org/1999/xlink" viewBox="0 0 3000 3000">
  <defs>
    <clipPath id="clippath">
      <path d="m2141.75,919.22c-217.37,0-393.57,176.21-393.57,393.57s176.2,393.57,393.57,393.57,393.56-176.21,393.56-393.57-176.2-393.57-393.56-393.57Zm180.71,405.41c-7.01,10.87-16.68,19.77-28.09,25.86,8.07,11.84,19.19,33.09,14.34,55.21-3.74,17.12-16,31-36.51,41.49,4.35,11.88,9.55,33.62-1,52.32-10.16,18-31.74,28.08-64.16,29.9-4.68.26-9.32.4-13.78.4-25.25,0-60.47-4.5-84.86-25.93-15.43-13.55-20.42-28.33-21.13-35.69l-.93-2.76-.1-1c-1.68-17.49,6-24.24,14.55-33.59,3.88-4.27,12.94-8.57,18.63-10.73-23.91-21.57-27.2-50.15-19.76-70.59,5-13.88,24.08-26,34.45-30.5-4.78-8.55-9-20.88-6.78-31.62,7.84-38.07,29.36-52,94-51.36,7.85.04,15.7.6,23.48,1.67,7.49-2.28,8.16-11.88,7.12-27.76l-.81-12.42,12.09,2.93c5.53,1.34,10.61,2.78,15.11,4.28,15.82,5.27,29.55,15.85,39.72,30.59,9.61,13.93,15.05,30.32,15.67,47.23.55,14.83-3.37,29.49-11.25,42.07Z" style="fill: none;"/>
    </clipPath>
    <clipPath id="clippath-1">
      <circle cx="2068.89" cy="1265.89" r="159.6" style="fill: none;"/>
    </clipPath>
    <clipPath id="clippath-2">
      <path d="m917,1560.89l-487.9,112.94-22.59,144.56,153.6,280.1,1603.76,275.57,72.29-596.32-1319.16-216.85Zm131.86,252.42s-27.1,20.33-61,15.25-59-7.91-59-7.91c0,0-15.53,86.12,39.53,129.32,0,0,22.87,6.5,28.8,7.34s36.43,20.33,46.59,33-49.59,74.38-119.43,71.15c-146.54-6.74-193.73-137.47-193.73-137.47,0,0-41.79-48-62.12-155.57l11.86-75.39,299,58.45,69.46,22.87.04,38.96Z" style="fill: none;"/>
    </clipPath>
  </defs>
  <circle cx="1500" cy="1500" r="1200" style="fill: #4c6164;"/>
  <g id="Cricket-Ball">
    <g id="Tennis_Ball" data-name="Tennis Ball">
      <g style="clip-path: url(#clippath);">
        <g id="Tennis_Ball-2" data-name="Tennis Ball-2">
          <circle cx="2067.37" cy="1266.3" r="173.29" style="fill: #aa0e0e; stroke: #020202; stroke-miterlimit: 10; stroke-width: 12.8px;"/>
          <circle cx="2067.37" cy="1266.3" r="173.29" style="fill: none; stroke: #020202; stroke-miterlimit: 10; stroke-width: 12.8px;"/>
          <path d="m2196.83,1381.45c-7.58,3.02-15.33,5.6-23.21,7.74l-18.44-129.08c-70.25-5.17-58.89,63-58.89,63-43,7.94-51.27,39.64-51.64,61.39-76.3-26.87-132.45-95.19-140.23-177.28-32.61,89.98,13.9,189.36,103.88,221.96,51.3,18.59,108.36,11.94,154-17.96l14.57.7-1.46-10.2c7.7-6.14,14.87-12.92,21.42-20.27Z" style="isolation: isolate; opacity: .15;"/>
          <g style="clip-path: url(#clippath-1);">
            <g>
              <g>
                <path d="m2114.99,1100.27c-1.75.9-3.51,1.86-5.27,2.86" style="fill: none; stroke: #f2ebe7; stroke-linecap: round; stroke-miterlimit: 10; stroke-width: 13px;"/>
                <path d="m2092.82,1114.24c-36.21,26.89-72.3,73.47-98.39,131.65-22.64,50.51-33.73,100.83-33.64,142.63" style="fill: none; stroke: #f2ebe7; stroke-dasharray: 0 0 12.14 20.23; stroke-linecap: round; stroke-miterlimit: 10; stroke-width: 13px;"/>
                <path d="m1961.04,1398.64c.1,2,.22,4,.37,6" style="fill: none; stroke: #f2ebe7; stroke-linecap: round; stroke-miterlimit: 10; stroke-width: 13px;"/>
              </g>
              <g>
                <path d="m2146.1,1111.38c-1.76.88-3.53,1.81-5.3,2.8" style="fill: none; stroke: #f2ebe7; stroke-linecap: round; stroke-miterlimit: 10; stroke-width: 13px;"/>
                <path d="m2123.41,1125.4c-36.53,26.78-73,73.66-99.33,132.35-23.77,53-34.81,105.82-33.54,148.78" style="fill: none; stroke: #f2ebe7; stroke-dasharray: 0 0 12.42 20.71; stroke-linecap: round; stroke-miterlimit: 10; stroke-width: 13px;"/>
                <path d="m1991.09,1416.87c.16,2,.35,4,.57,6" style="fill: none; stroke: #f2ebe7; stroke-linecap: round; stroke-miterlimit: 10; stroke-width: 13px;"/>
              </g>
            </g>
          </g>
        </g>
      </g>
    </g>
    <g style="clip-path: url(#clippath-2);">
      <g id="Bat">
        <g>
          <g>
            <path d="m1864.18,2204.6c-235,39.39-755.18-127-755.18-127-22-84.71-110.11-127.06-110.11-127.06l-6.68-1c-16.45-5.06-28.9-28.46-28.9-56.57,0-31.81,15.93-57.6,35.58-57.6,0,0,59.5-2.23,112.76-59.56,0-6.63,5.37-12,12-12h33.56l3.1.42,752.74,102.55v.21s39.65,14.12,43,58.17v232.1c0,34.92-71,45.93-86.4,46.87v-.13c2.8-.48,5.56-1.15,8.27-2-4.46.95-9.05,1.81-13.74,2.6Z" style="fill: #efe3d0;"/>
            <path d="m631.16,1778.76l367.73,56.58c-19.65,0-35.58,25.79-35.58,57.6,0,28.11,12.45,51.51,28.9,56.57l-367.72-56.57c-19.65,0-35.58-25.79-35.58-57.6s15.93-57.6,35.58-57.6l6.67,1.02Z" style="fill: #c41414;"/>
          </g>
          <g>
            <path d="m1157.21,1763.78h-33.59c-6.63,0-12,5.37-12,12" style="fill: none; stroke: #000; stroke-linecap: round; stroke-linejoin: round; stroke-width: 13px;"/>
            <path d="m1160.31,1764.2c-1.01-.28-2.05-.42-3.1-.42" style="fill: none; stroke: #000; stroke-linecap: round; stroke-linejoin: round; stroke-width: 13px;"/>
            <path d="m624.49,1777.74c-19.65,0-35.58,25.79-35.58,57.6s15.93,57.6,35.58,57.6" style="fill: none; stroke: #000; stroke-linecap: round; stroke-linejoin: round; stroke-width: 13px;"/>
            <path d="m624.49,1777.74c2.26,0,4.51.34,6.67,1" style="fill: none; stroke: #000; stroke-linecap: round; stroke-linejoin: round; stroke-width: 13px;"/>
            <path d="m992.21,1949.51c2.16.67,4.42,1.01,6.68,1" style="fill: none; stroke: #000; stroke-linecap: round; stroke-linejoin: round; stroke-width: 13px;"/>
            <path d="m998.89,1835.34c-19.65,0-35.58,25.79-35.58,57.6,0,28.11,12.45,51.51,28.9,56.57" style="fill: none; stroke: #000; stroke-linecap: round; stroke-linejoin: round; stroke-width: 13px;"/>
            <line x1="992.21" y1="1949.51" x2="998.89" y2="1950.54" style="fill: none; stroke: #000; stroke-linecap: round; stroke-linejoin: round; stroke-width: 13px;"/>
            <path d="m1109,2077.6c-22-84.71-110.11-127.06-110.11-127.06" style="fill: none; stroke: #000; stroke-linecap: round; stroke-linejoin: round; stroke-width: 13px;"/>
            <line x1="992.21" y1="1949.51" x2="624.49" y2="1892.94" style="fill: none; stroke: #000; stroke-linecap: round; stroke-linejoin: round; stroke-width: 13px;"/>
            <line x1="631.16" y1="1778.76" x2="998.89" y2="1835.34" style="fill: none; stroke: #000; stroke-linecap: round; stroke-linejoin: round; stroke-width: 13px;"/>
            <line x1="624.49" y1="1777.74" x2="631.16" y2="1778.76" style="fill: none; stroke: #000; stroke-linecap: round; stroke-linejoin: round; stroke-width: 13px;"/>
            <path d="m998.89,1835.34s59.5-2.23,112.76-59.56" style="fill: none; stroke: #000; stroke-linecap: round; stroke-linejoin: round; stroke-width: 13px;"/>
            <polyline points="1918.79 1867.53 1913.05 1866.75 1160.31 1764.2" style="fill: none; stroke: #000; stroke-linecap: round; stroke-linejoin: round; stroke-width: 13px;"/>
            <line x1="1157.21" y1="1763.78" x2="1160.31" y2="1764.2" style="fill: none; stroke: #000; stroke-linecap: round; stroke-linejoin: round; stroke-width: 13px;"/>
            <path d="m1862.88,2204.65h1.3" style="fill: none; stroke: #000; stroke-linecap: round; stroke-linejoin: round; stroke-width: 13px;"/>
            <path d="m1864.18,2204.6c1.83-.12,3.65-.33,5.46-.64,2.8-.48,5.56-1.15,8.27-2" style="fill: none; stroke: #000; stroke-linecap: round; stroke-linejoin: round; stroke-width: 13px;"/>
            <path d="m1913.02,1866.96s39.65,14.12,43,58.17v232.13c0,34.92-71,45.93-86.4,46.87" style="fill: none; stroke: #000; stroke-linecap: round; stroke-linejoin: round; stroke-width: 13px;"/>
            <path d="m1864.18,2204.6c4.69-.79,9.28-1.65,13.73-2.61" style="fill: none; stroke: #000; stroke-linecap: round; stroke-linejoin: round; stroke-width: 13px;"/>
            <path d="m1864.18,2204.6c-235,39.39-755.18-127-755.18-127" style="fill: none; stroke: #000; stroke-linecap: round; stroke-linejoin: round; stroke-width: 13px;"/>
            <path d="m1878.7,2201.83l-.79.16" style="fill: none; stroke: #000; stroke-linecap: round; stroke-linejoin: round; stroke-width: 13px;"/>
          </g>
        </g>
        <path d="m1673.99,2030.72s181.55-122.54,197.37-122.54,12.7,43.49,12.7,90.92,6.78,167.15-6.77,169.41c-6.78-4.52-203.3-137.79-203.3-137.79Z" style="fill: #6b4718; isolation: isolate; opacity: .1;"/>
        <path d="m1669.76,2034.11c-84.83-7.07-450.28-84.64-605.37-118.08v34.57c41.65,47.39,72.29,110.62,72.29,110.62,0,0,207.81,61,429.17,106.16,221.36,45.16,307.2,4.52,307.2,4.52,0,0-192-135.53-203.29-137.79Z" style="fill: #6b4718; isolation: isolate; opacity: .2;"/>
      </g>
    </g>
    <path d="m926.04,1825.17s-18.07,93.18,35,120.28" style="fill: none; stroke: #000; stroke-linecap: round; stroke-linejoin: round; stroke-width: 13px;"/>
    <path d="m977.43,1825.17s-36.14-13-48-13.55-24.28,18.63-26,40.66,13,141.74,79.06,97.13c0,0-60.42-36.14-29.93-117.46,2.28,0,24.87-6.78,24.87-6.78Z" style="isolation: isolate; opacity: .2;"/>
  </g>
</svg>