<?xml version="1.0" encoding="UTF-8"?>
<svg id="CLOTHING" xmlns="http://www.w3.org/2000/svg" xmlns:xlink="http://www.w3.org/1999/xlink" viewBox="0 0 3000 3000">
  <defs>
    <clipPath id="clippath-1">
      <path d="m1784.69,1129.78s43.75-15.72,83.41,4.68c0,0,8.6,65.78-33.15,73.41,0,0-44.7-3.1-50.25-78.09h-.01Z" style="fill: none;"/>
    </clipPath>
    <linearGradient id="linear-gradient" x1="876.28" y1="1833.42" x2="1127.57" y2="2084.72" gradientTransform="translate(0 3000) scale(1 -1)" gradientUnits="userSpaceOnUse">
      <stop offset="0" stop-color="#fff"/>
      <stop offset=".51" stop-color="#3fd1ff"/>
      <stop offset="1" stop-color="#00306a"/>
    </linearGradient>
    <linearGradient id="linear-gradient-2" x1="2064.73" y1="1973.16" x2="1856.92" y2="1973.16" gradientTransform="translate(0 3000) scale(1 -1)" gradientUnits="userSpaceOnUse">
      <stop offset="0" stop-color="#fff"/>
      <stop offset=".51" stop-color="#3fd1ff"/>
      <stop offset="1" stop-color="#00306a"/>
    </linearGradient>
  </defs>
  <g id="Football-England">
    <circle cx="1500" cy="1500" r="1200" style="fill: #4c6164;"/>
    <g>
      <g>
        <path d="m1907.47,953.96c59.61,37.77,148.37,102.58,148.37,102.58v5l-123.06,173.49-1.68.33c.14,1.6.23,2.57.24,2.68v2c3.85,44.93,2.14,108.72-6.3,153.4l-7.2,8.1s-35.79-8.24-143-10c-122-2-382,4-523,16s-161-16-161-16c-3.59-30.51-13.02-70.33-16.37-97.45l-3.63.45c-207-82-258-238-258-238,64.63-57.26,172.27-110.44,238.47-134.05,107.63,61.3,252.67,114.06,430.94,120.28h.75c12.4,10.36,19.58,17.48,26.52,22.8,31.69,24.14,74.81,52.71,97.47,49.14,16-2.52,49.39-38.01,61.9-78.71l-.04-2.29c1.52-.01,4.65.11,5.31.03,94.3-12.15,171.92-43.7,232.43-81.21l.88,1.43h0Z" style="fill: #fff;"/>
        <g>
          <path d="m2055.84,1056.54c62-16,59,23,59,23l-179,240-10,73-.8.9c8.44-44.68,10.15-108.47,6.3-153.4v-2c-.01-.11-.1-1.08-.24-2.68l3.24-.32,121.5-173.5v-5Z" style="fill: #122e6b;"/>
          <path d="m1070.84,1294.54s-18,41-53,35c-143-31-253-216-253-216-7-49,48-57,48-57,0,0,51,156,258,238Z" style="fill: #122e6b;"/>
          <path d="m812.84,1056.54s-21.04,3.07-35.43,16.99c30.88,52.27,129.34,200.38,276.19,244.56,11.43-10.33,17.24-23.56,17.24-23.56-207-82-258-238-258-238h0Z" style="fill: #7dddff;"/>
          <path d="m2055.84,1056.54v5l-121.5,173.5-3.24.32c.14,1.6.23,2.57.24,2.68v2c1.09,12.72,1.73,26.95,1.91,41.84l164.53-226.82c-8.76-3.11-21.97-3.67-41.93,1.48h0Z" style="fill: #7dddff;"/>
        </g>
        <g>
          <g style="clip-path: url(#clippath-1);">
            <g>
              <polygon points="1882.86 1209.66 1784.99 1209.66 1777.39 1122.57 1875.26 1122.57 1882.86 1209.66" style="fill: #fff;"/>
              <polygon points="1826.66 1217.9 1823.42 1168.89 1772.6 1168.89 1771.64 1154.44 1822.47 1154.44 1819.34 1107.04 1834.36 1107.04 1837.49 1154.44 1888.31 1154.44 1889.26 1168.89 1838.44 1168.89 1841.68 1217.9 1826.66 1217.9" style="fill: #f20c0c;"/>
            </g>
          </g>
          <path d="m1784.69,1129.78s43.75-15.72,83.41,4.68c0,0,8.6,65.78-33.15,73.41,0,0-44.7-3.1-50.25-78.09h-.01Z" style="fill: none; stroke: #f2cd33; stroke-linecap: round; stroke-linejoin: round; stroke-width: 6.68px;"/>
        </g>
        <g>
          <path d="m813.34,1060.72s-2.26,25.98,67.76,110.68c0,0,133.27-152.47,330.92-171.67,0,0-122.77-50.8-160.38-75.67,0,0-159.25,54.21-238.31,136.66h0Z" style="fill: url(#linear-gradient);"/>
          <path d="m1856.92,983.92s119.72,70.02,173.93,119.72l33.88-45.18-158.12-108.42-49.69,33.88h0Z" style="fill: url(#linear-gradient-2);"/>
        </g>
        <g>
          <path d="m1699.78,1033.7c-8.48,1.41-17.12,2.69-25.93,3.83-.81.1-1.6.19-2.4.3-8.04,45.86-47.76,81.36-63.76,83.88-22.66,3.57-64.47-24.01-96.17-48.15-6.93-5.32-19.22-16.09-31.61-26.45-11.84-.41-23.5-1.03-35-1.81-14.46-.99-28.67-2.25-42.61-3.78,35.48,43.8,117.01,129.31,209.85,124.89,0,0,87.42-9.73,112.08-137.25-8,1.64-16.15,3.16-24.45,4.54h0Z" style="fill: #fff;"/>
          <path d="m1673.86,1037.53c-.81.1-1.6.19-2.4.3-8.04,45.86-47.76,81.36-63.76,83.88-22.66,3.57-64.47-24.01-96.17-48.15-6.93-5.32-19.22-16.09-31.61-26.45-11.84-.41-23.5-1.03-35-1.81,29.65,38.41,91.06,101.96,169.18,95.61,49.73-5.75,74.12-62.57,85.69-107.21-8.48,1.41-17.12,2.69-25.93,3.83h0Z" style="fill: #fff;"/>
        </g>
        <g>
          <path d="m1931.34,1240.04c3.85,44.93,2.14,108.72-6.3,153.4" style="fill: none; stroke: #000; stroke-linecap: round; stroke-linejoin: round; stroke-width: 14px;"/>
          <line x1="1070.84" y1="1294.54" x2="1074.47" y2="1294.09" style="fill: none; stroke: #000; stroke-linecap: round; stroke-linejoin: round; stroke-width: 14px;"/>
          <line x1="1934.34" y1="1235.04" x2="2055.84" y2="1061.54" style="fill: none; stroke: #000; stroke-linecap: round; stroke-linejoin: round; stroke-width: 14px;"/>
          <line x1="2055.84" y1="1056.54" x2="2055.84" y2="1061.54" style="fill: none; stroke: #000; stroke-linecap: round; stroke-linejoin: round; stroke-width: 14px;"/>
          <path d="m1926.34,1183.04c.06.76,3.77,41.38,4.76,52.32.14,1.6.23,2.57.24,2.68" style="fill: none; stroke: #000; stroke-linecap: round; stroke-linejoin: round; stroke-width: 14px;"/>
          <path d="m1074.47,1294.09c-.05-.35-.09-.7-.13-1.05-2.07-17.36-19-45-19-45" style="fill: none; stroke: #000; stroke-linecap: round; stroke-linejoin: round; stroke-width: 14px;"/>
          <path d="m1925.04,1393.44l-7.2,8.1s-35.79-8.24-143-10c-122-2-382,4-523,16s-161-16-161-16c-3.59-30.51-13.02-70.33-16.37-97.45" style="fill: none; stroke: #000; stroke-linecap: round; stroke-linejoin: round; stroke-width: 14px;"/>
          <path d="m2055.84,1056.54s-88.76-64.81-148.37-102.58" style="fill: none; stroke: #000; stroke-linecap: round; stroke-linejoin: round; stroke-width: 14px;"/>
          <path d="m2055.84,1056.54c62-16,59,23,59,23l-179,240-10,73-.8.9" style="fill: none; stroke: #000; stroke-linecap: round; stroke-linejoin: round; stroke-width: 14px;"/>
          <path d="m1483,1042.77c12.4,10.36,19.58,17.48,26.52,22.8" style="fill: none; stroke: #000; stroke-linecap: round; stroke-linejoin: round; stroke-width: 14px;"/>
          <path d="m812.84,1056.54c64.63-57.26,169.78-107.74,235.98-131.35" style="fill: none; stroke: #000; stroke-linecap: round; stroke-linejoin: round; stroke-width: 14px;"/>
          <path d="m812.84,1056.54s-55,8-48,57c0,0,110,185,253,216,35,6,53-35,53-35" style="fill: none; stroke: #000; stroke-linecap: round; stroke-linejoin: round; stroke-width: 14px;"/>
          <path d="m812.84,1056.54s51,156,258,238" style="fill: none; stroke: #000; stroke-linecap: round; stroke-linejoin: round; stroke-width: 14px;"/>
          <path d="m1509.52,1065.57c31.69,24.14,74.81,52.71,97.47,49.14,16-2.52,49.39-38.01,61.9-78.71" style="fill: none; stroke: #000; stroke-linecap: round; stroke-linejoin: round; stroke-width: 14px;"/>
          <path d="m1668.14,1033.74c.14-.02.39-.03.71-.03,1.52-.01,4.65.11,5.31.03,94.3-12.15,171.92-43.7,232.43-81.21.04-.02.08-.05.12-.07" style="fill: none; stroke: #000; stroke-linecap: round; stroke-linejoin: round; stroke-width: 14px;"/>
          <path d="m1050.52,924.06c107.63,61.3,253.46,112.49,431.73,118.71" style="fill: none; stroke: #000; stroke-linecap: round; stroke-linejoin: round; stroke-width: 14px;"/>
        </g>
      </g>
      <g style="opacity: .2;">
        <path d="m1072.45,1280.96s-7.61-44.42-31.61-41.42-27.12,27.87-27.12,27.87c0,0,7.82,35.22-39.53,45.18,0,0,40.33,24.18,60.99,18.07,20.66-6.11,34.88-34.28,37.27-49.69h0Z"/>
        <path d="m1930.84,1198.54s4,125,2,136l66.85-101.02-69.85-54.98,1,20Z"/>
        <path d="m1670.4,1040.51c-10.16,33.83-31.15,72.35-65.56,73.03-32.53.64-84.24-36.9-120.33-67.76-122.52-6.03-250.51-36.33-250.51-36.33,0,0,152.84,146.09,364.76,123.56,211.91-22.53,268.8-160.38,268.8-160.38-29.86,15.75-88.86,47.93-197.15,67.88h0Z"/>
        <path d="m1072.6,1282.74c-1.71-8.46-2.88-14.21-2.88-14.21-.02,4.22.99,9.03,2.88,14.21Z"/>
        <path d="m1179.84,1376.54c-50.69-16.32-95.65-62.18-107.24-93.8,4.04,20.04,11.04,55.3,12.36,65.41,1.87,14.38-5.6,50.43,18.64,55.91s84.43,13.46,133.84,8.47c49.4-4.99-29.84-27.06-57.6-35.99Z"/>
        <path d="m1928.63,1304.11s4.99,83.37-86.4,86.4c2.61,3.03,62.68,6.78,62.68,6.78,0,0,13.44,5.05,21.18-15.85,7.74-20.9,4.33-65.76,2.53-77.33h0Z"/>
        <path d="m1133.41,1641.3s2.43,46.24,3.43,71.24c0,0,38.12,1.49,157,7s184,17,184,17l1-15s6-38,9-63l-354.43-17.24h0Z"/>
        <path d="m1558.89,1677.97s2.85,32.47.95,48.57c0,0,19-9,121-16s188-24,197-13l7.78-46.14s-71.67,51.99-322.73,24.56"/>
      </g>
    </g>
    <g id="football-shorts">
      <g>
        <path d="m1912,1399.75c-45.05-3.18-111.68-20.04-508.88-.88-125.81,6.07-296.22,35.4-309.79-11.82,0,0-21.92,18.16-1.08,79.14.4,4.35,9.15,19.95,10.47,25.9,10.53,47.22,14.63,158.5,14.63,158.5,0,0,220.2,109.46,387.97,18.46,0,0,6.97-45.23,24-49,11.43-2.53,10,22,10,22v27s223.16,56.05,360.16-22.72c0,0-10.48-106.91,16.34-152.2,23.41-39.52,15.83-89.37,15.83-89.37.73-5.56-15.35-2.41-19.67-5.01h.02Z" style="fill: #052649;"/>
        <g>
          <path d="m1148.84,1659.23l.66.2c.97.29,1.94.63,2.91.99l15.23,4.41-.43-3.07c-2.63-6.58-10.34-115.34-14.04-171.92v-.18l-.08-.16c-.13-.3-13.48-30.8-14.03-70.76v-.67l-20.51-8.26v1.49c.08,8.7.41,16.55,1.01,23.34,1.16,13.39,6.2,27.44,10.25,38.72,2.54,7.08,4.73,13.19,5.58,17.84,1.65,9.02,9.12,108.71,13.43,167.33l.05.69h-.03Z" style="fill: #052649;"/>
          <path d="m1134.81,1654.18l-.03-.67c-.85-17.76-2.38-48.68-3.07-56.23-.22-2.37-.47-5.95-.8-10.48-1.43-19.82-4.09-56.69-10.47-97.74-13.24-29.09-16.86-61.74-17.55-84.03l-.05-1.53,17.7,7.12v.67c.07,8.65.41,16.45.99,23.18,1.14,13.13,6.13,27.04,10.14,38.22,2.57,7.16,4.79,13.34,5.66,18.16,1.66,9.11,9.14,108.88,13.45,167.54l.11,1.53-16.09-5.75h.01Z" style="fill: #052649;"/>
          <path d="m1135.39,1654.38c-7.64-3.21-12.33-5.95-12.53-6.07l-.44-.26-14.15-157.88c-28.56-59.45-17.93-89.17-17.47-90.41l.36-.96,13.7,5.52.02.65c.69,22.13,4.28,54.57,17.43,83.39l.06.12.02.14c6.41,41.19,9.08,78.17,10.51,98.04.33,4.52.58,8.09.8,10.44.65,7.2,2.03,34.6,3.07,56.31l.08,1.58-1.46-.61h0Z" style="fill: #052649;"/>
        </g>
      </g>
      <path d="m1912,1399.75c-45.05-3.18-111.68-20.04-508.88-.88-125.81,6.07-296.22,35.4-309.79-11.82,0,0-21.92,18.16-1.08,79.14.4,4.35,9.15,19.95,10.47,25.9,10.53,47.22,14.63,158.5,14.63,158.5,0,0,220.2,109.46,387.97,18.46,0,0,6.97-45.23,24-49,11.43-2.53,10,22,10,22v27s223.16,56.05,360.16-22.72c0,0-10.48-106.91,16.34-152.2,23.41-39.52,15.83-89.37,15.83-89.37.73-5.56-15.35-2.41-19.67-5.01h.02Z" style="fill: none; stroke: #000; stroke-linecap: round; stroke-linejoin: round; stroke-width: 13px;"/>
      <g style="opacity: .2;">
        <path d="m1451.84,1605.54s140,8,203-7c24-4,10,11-18,17-30.56,6.55-23,14-7,16s-21,30-20,45l-65-13s3-48-13-48c-24.44,0-31,50-31,50l-26,11s5-22-4-27-35.87-9.41-3-17c26-6-75-26-16-27Z"/>
      </g>
    </g>
    <g>
      <path d="m2091.84,1958.54c-50-14-77.92-22.04-107.96-53.02-30.04-30.98-50.04-63.98-73.04-85.98-19.76-18.9-24.4-50.36-24.99-64.54.78-13.32.28-18.54,1.99-21.46,0,0,3-11-1-31-13.3-8.61-145.56,64.24-324,17-3.2-.85-18-1-17-2,2.12-2.12-10.1,16.97,0,29,0,0-6.04,35.55-9.05,62.97-2.74,15.52-10.32,57.49-15.95,80.03-4.71,18.83-14.31,33.82-11.6,55.99-1.64-4.43-3.1-8.22-4.4-10.99-6.33-13.57-28.71-42.06-27.14-98.38,5.84-35.04,12.73-72.73,16.14-77.62,11.25-16.15-9.76-49.06-9.76-49.06l-10.24,27.06c-241,45-340.89-32.47-340.89-32.47-23.11,11.47-9.9,45.24-9.11,55.47.28,3.59-1.61,17.43-4.17,33.89h-.05c-.79,4.1-1.55,8.76-1.79,10.1l-15.74,78.26s-23.87,33.28-24.56,113.51.31,107.23,45.31,137.23c0,0-21,103,240,87,205-6,217.48-18.32,232.24-86.16,6.9-31.71-.04-57.84-11.29-78.16,12.69,3.13,26.29,5.88,38.39,7,35.65,3.31,80.65,24.31,115.65,46.31s101.09,71.5,215.55,50.25,181.42-51.43,191.44-103.34c10.02-51.91-2.98-82.91-52.98-96.91v.02Z" style="fill: #fff; stroke: #000; stroke-linecap: round; stroke-linejoin: round; stroke-width: 13px;"/>
      <path d="m1509.84,1947.54s12,43,32,64c19.99,20.99,45.79,43.86,52.4,72.43" style="fill: none; stroke: #000; stroke-miterlimit: 10; stroke-width: 14px;"/>
      <g>
        <path d="m1546.02,1763.33s24.45,12.29,134.61,14c145.62,2.26,204.43-30,204.43-30l-1.37,17.58s-41.73,26.31-159.39,31.18c-123,5.08-179.43-15.37-179.43-15.37l1.15-17.39Z" style="fill: #fff;"/>
        <path d="m1885.5,1731.59c.04,5.22-.06,10.89-.44,15.74,0,0-58.81,32.26-204.43,30-110.16-1.71-134.61-14-134.61-14l.49-15.24c6.2,1.59,72.46,17.7,182.84,12.87,118.07-5.17,155.48-29.37,155.48-29.37h.67Z" style="fill: #fff;"/>
        <path d="m1546.52,1748.09s37.5,10.39,89.77,13.83c80.55,5.3,194.7.9,249.22-30.33.77-.44-.38-17.95-.38-17.95,0,0-18.47,10.91-81.71,22.28-70.2,12.63-135.93,17.83-255.53-5.2l-1.37,17.37h0Z" style="fill: #fff;"/>
        <path d="m1486.1,1769.39c-.68.25-69.31,24.51-157.45,24.5-16.58,0-33.03-.86-48.88-2.56-56.31-6.03-93.32-18.15-114.45-27.25-22.88-9.86-36.46-18.67-36.56-18.75l-1.4-1.25c1.48,8.86,2.78,16.93,2.46,22.57l1.85.71c.16.1,17.01,10.16,47.69,20.73,28.28,9.75,74.75,21.56,135.5,22.43,3.95.06,7.93.09,11.81.09,108.53,0,155.59-22.55,156.05-22.78l.42-.21,4.75-18.87-1.8.64h.01Z" style="fill: #fff;"/>
        <path d="m1487.38,1756.54l-.23.07c-47.83,14.47-97.5,21.81-147.61,21.81-121.69,0-207.27-43.54-208.12-43.98l-5.6-2.24c.05,1.93.23,3.96.58,6.07.41,2.5.83,4.97,1.23,7.37l3.65,1.43c.4.35,9.95,8.8,33.09,18.78,21.27,9.18,58.53,21.41,115.19,27.47,15.93,1.71,32.45,2.57,49.1,2.57,88.5,0,157.46-24.38,158.15-24.63l.55-.2,2.57-14.09-2.53-.43h-.02Z" style="fill: #fff;"/>
        <path d="m1490.98,1741.5c-9.72,6.36-66.76,18.83-154.58,18.83-14.27,0-28.89-.33-43.45-1-108.39-4.93-159.89-40.45-160.4-40.81l-4.31-2.41c-1.03,2.91-2.87,9.46-2.35,17.73l4.57,2.37c.85.44,86.83,44.21,209.07,44.21,50.24,0,100.03-7.34,147.98-21.83l2.04.35,3.41-18.75-1.99,1.3h.01Z" style="fill: #fff;"/>
      </g>
      <g>
        <path d="m1117.62,1730.46s62.22,40.08,134.22,45.08-12,23-31,32-59,60-63,98-25,39-31,89,12.89,64,36.44,80.5c0,0-6.44,53.5,118.56,66.5s287.79,13.33,317.4-56.34c0,0,3.04,97.33-50.18,112.84-53.22,15.5-166.3,19.67-194.26,22.59-27.96,2.91-143,2.39-187.48-24.85s-44.62-40.18-44.05-54.21-16.74-20.18-22.59-27.11c-5.84-6.92-30.59-66.62-23.72-133.27s28.24-108.42,28.24-108.42l18.07-102.78s2.14-32.61-5.65-39.53h0Z" style="isolation: isolate; opacity: .2;"/>
        <path d="m1598.75,1730.46s-16.91,7.08-.91,25.08c9,2,50,9,78,8s-46,7-70,22-49.8,119.99-22.9,154.99,94.9,52.01,152.9,64.01,84.6,76.41,154.3,86.2c69.7,9.8,235.53-23.4,254.12-76.8,0,0,22.81,66.7-46.31,101.65-69.11,34.95-200.66,79.04-291.39,30.49s-150.13-82.35-173.93-82.45-46.15-4.27-56.47-14.68c-10.32-10.42-49.32-54.08-50.82-63.25s-19.57-54.47-9.04-81.32c10.53-26.85,23.42-101.32,25.98-118.59,2.56-17.26,6.78-31.62,6.78-31.62,0,0-13.22-42.64,14.78-29.64,38.59,17.92,0,0,0,0l34.91,5.92h0Z" style="isolation: isolate; opacity: .2;"/>
      </g>
    </g>
    <g>
      <g>
        <path d="m1683.89,1205.42l15.94,14.25,3.84,105.44-14.85,15.53-58.69,2.43-15.74-14.08-3.9-105.75,14.71-15.38,58.69-2.43h0Zm-16.91,29.51l-22.58.93,2.83,77.68,22.58-.93-2.83-77.68Z" style="fill: rgba(5, 38, 73, 0);"/>
        <path d="m1655.58,1313.2l8.32-.34,1.05,28.77-50.07,2.07-1.05-28.77,8.32-.34-2.83-77.68-8.32.34-1.05-28.77,41.72-1.73,3.9,106.45h.01Z" style="fill: rgba(5, 38, 73, 0);"/>
        <path d="m1611.53,1251.79l-1.04-28.42,14.85-15.53,58.69-2.43,15.79,14.12,1.92,52.52-14.71,15.35-35.48,1.47-5.11,4.27.74,20.41,22.63-.94-.53-14.54,33.35-1.38,1.58,43.31-89.34,3.7-2.45-67.27,14.72-15.35,35.48-1.47,5.11-4.26-.6-16.37-5.33-3.82-12.32.51-4.98,4.25.38,10.51-33.35,1.38v-.02Z" style="fill: rgba(5, 38, 73, 0);"/>
        <path d="m1701.48,1265.03l-7.35,7.67,7.89,7.04,1.66,45.5-14.71,15.38-58.69,2.43-15.94-14.25-1.04-28.42,33.35-1.38.38,10.51,5.28,3.82,12.32-.51,5.04-4.25-.6-16.37-5.4-3.83-17.38.72-1.05-28.77,17.38-.72,5.11-4.26-.6-16.38-5.33-3.82-12.32.51-4.98,4.25.38,10.51-33.35,1.38-1.04-28.42,14.85-15.53,58.69-2.43,15.79,14.12,1.66,45.5h0Z" style="fill: rgba(5, 38, 73, 0);"/>
        <path d="m1702.8,1301.16l-8.32.34.37,10.07,8.32-.34,1.05,28.77-50.07,2.07-1.05-28.77,8.32-.34-.37-10.07-47.59,1.97-1.05-28.77,23.58-68.69,54.96-2.28,2.47,67.61,8.33-.34,1.05,28.77h0Zm-42.79-27.04l-1.11-30.33-10.28,30.8,11.39-.47h0Z" style="fill: rgba(5, 38, 73, 0);"/>
        <path d="m1646.65,1299.01l.38,10.51,5.28,3.82,12.32-.51,5.03-4.25-.6-16.37-5.4-3.83-50.73,2.1-2.99-81.99,89.34-3.7,1.58,43.31-33.35,1.38-.53-14.54-22.63.94.89,24.45,40.73-1.69,15.79,14.09,1.92,52.52-14.71,15.38-58.69,2.43-15.94-14.25-1.04-28.42,33.35-1.38h0Z" style="fill: rgba(5, 38, 73, 0);"/>
        <path d="m1700.87,1248.09l-33.35,1.38-.38-10.51-5.28-3.82-12.32.51-5.03,4.25.74,20.41,40.59-1.68,15.94,14.25,1.9,52.22-14.85,15.53-58.69,2.43-15.79-14.12-3.85-105.71,14.71-15.38,58.69-2.43,15.94,14.25,1.04,28.42h0Zm-54.57,40.99l.74,20.42,5.33,3.82,12.32-.51,4.99-4.25-.6-16.39-5.28-3.82-17.5.72h0Z" style="fill: rgba(5, 38, 73, 0);"/>
        <path d="m1700.34,1233.55l-28.08,78.96,10.37-.43,1.05,28.77-58.41,2.42-1.05-28.77,14.61-.6,28.11-78.96-22.58.94.53,14.54-33.35,1.38-1.58-43.31,89.34-3.7,1.05,28.77h-.01Z" style="fill: rgba(5, 38, 73, 0);"/>
        <path d="m1699.82,1219.53l1.66,45.5-7.35,7.67,7.89,7.04,1.65,45.36-14.71,15.52-58.69,2.43-15.94-14.25-1.65-45.36,7.36-7.67-7.89-7.04-1.66-45.5,14.86-15.39,58.69-2.43,15.79,14.12h-.01Zm-32.1,35.81l-.6-16.37-5.33-3.82-12.27.51-5.03,4.25.6,16.37,5.4,3.83,12.12-.5,5.11-4.26h0Zm1.94,53.23l-.6-16.37-5.4-3.83-12.12.5-5.11,4.26.6,16.37,5.33,3.82,12.27-.51,5.03-4.25h0Z" style="fill: rgba(5, 38, 73, 0);"/>
        <path d="m1646.65,1299.01l.38,10.51,5.28,3.82,12.32-.51,5.03-4.25-.75-20.41-40.59,1.68-15.94-14.25-1.9-52.22,14.85-15.53,58.69-2.43,15.79,14.12,3.85,105.71-14.71,15.38-58.69,2.43-15.94-14.25-1.04-28.42,33.35-1.38h.02Zm21.22-39.62l-.74-20.42-5.33-3.82-12.32.51-4.98,4.25.6,16.39,5.28,3.82,17.5-.72h-.01Z" style="fill: rgba(5, 38, 73, 0);"/>
      </g>
      <g>
        <path d="m1541.41,1303.37l.38,10.51,5.28,3.82,12.32-.51,5.03-4.25-.75-20.41-40.59,1.68-15.94-14.25-1.9-52.22,14.85-15.53,58.69-2.43,15.79,14.12,3.85,105.71-14.71,15.38-58.69,2.43-15.94-14.25-1.04-28.42,33.35-1.38h.02Zm21.22-39.62l-.74-20.42-5.33-3.82-12.32.51-4.98,4.25.6,16.39,5.28,3.82,17.5-.72h-.01Z" style="fill: rgba(5, 38, 73, 0);"/>
        <path d="m1594.58,1223.89l1.66,45.5-7.36,7.67,7.89,7.04,1.65,45.36-14.71,15.52-58.69,2.43-15.94-14.25-1.65-45.36,7.35-7.67-7.89-7.04-1.66-45.5,14.86-15.39,58.69-2.43,15.79,14.12h0Zm-32.1,35.81l-.6-16.37-5.33-3.82-12.27.51-5.03,4.25.6,16.37,5.4,3.83,12.12-.5,5.11-4.26h0Zm1.95,53.23l-.6-16.37-5.4-3.83-12.12.5-5.11,4.27.6,16.37,5.33,3.82,12.27-.51,5.03-4.25h0Z" style="fill: rgba(5, 38, 73, 0);"/>
        <path d="m1595.1,1237.91l-28.08,78.96,10.37-.43,1.05,28.77-58.41,2.42-1.05-28.77,14.61-.6,28.1-78.96-22.58.94.53,14.54-33.35,1.38-1.58-43.31,89.34-3.7,1.05,28.77h0Z" style="fill: rgba(5, 38, 73, 0);"/>
        <path d="m1595.63,1252.45l-33.35,1.38-.38-10.51-5.28-3.82-12.32.51-5.03,4.25.74,20.41,40.59-1.68,15.94,14.25,1.9,52.22-14.85,15.53-58.69,2.43-15.79-14.12-3.85-105.71,14.71-15.38,58.69-2.43,15.94,14.25,1.04,28.42h0Zm-54.57,40.99l.75,20.42,5.33,3.82,12.32-.51,4.99-4.25-.6-16.39-5.28-3.82-17.5.72h0Z" style="fill: rgba(5, 38, 73, 0);"/>
        <path d="m1541.41,1303.37l.38,10.51,5.28,3.82,12.32-.51,5.03-4.25-.6-16.37-5.4-3.83-50.73,2.1-2.99-81.99,89.34-3.7,1.58,43.31-33.35,1.38-.53-14.54-22.63.94.89,24.45,40.73-1.69,15.79,14.09,1.92,52.52-14.71,15.38-58.69,2.43-15.94-14.25-1.04-28.42,33.35-1.38h0Z" style="fill: rgba(5, 38, 73, 0);"/>
        <path d="m1597.56,1305.52l-8.32.34.37,10.07,8.32-.34,1.05,28.77-50.07,2.07-1.05-28.77,8.32-.34-.37-10.07-47.59,1.97-1.05-28.77,23.58-68.69,54.96-2.28,2.47,67.61,8.33-.34,1.05,28.77h0Zm-42.79-27.04l-1.11-30.33-10.28,30.8,11.39-.47h0Z" style="fill: rgba(5, 38, 73, 0);"/>
        <path d="m1596.24,1269.39l-7.36,7.67,7.89,7.04,1.66,45.5-14.71,15.38-58.69,2.43-15.94-14.25-1.04-28.42,33.35-1.38.38,10.51,5.28,3.82,12.32-.51,5.04-4.25-.6-16.37-5.4-3.83-17.38.72-1.05-28.77,17.38-.72,5.11-4.26-.6-16.38-5.33-3.82-12.32.51-4.98,4.25.38,10.51-33.35,1.38-1.04-28.42,14.85-15.53,58.69-2.43,15.79,14.12,1.66,45.5h0Z" style="fill: rgba(5, 38, 73, 0);"/>
        <path d="m1506.29,1256.15l-1.04-28.42,14.85-15.53,58.69-2.43,15.79,14.12,1.92,52.52-14.71,15.35-35.48,1.47-5.11,4.27.74,20.41,22.63-.94-.53-14.54,33.35-1.38,1.58,43.31-89.34,3.7-2.45-67.27,14.72-15.35,35.48-1.47,5.11-4.26-.6-16.37-5.33-3.82-12.32.51-4.98,4.25.38,10.51-33.35,1.38v-.02Z" style="fill: rgba(5, 38, 73, 0);"/>
        <path d="m1589.48,1315.94l8.32-.34,1.05,28.77-50.07,2.07-1.05-28.77,8.32-.34-2.83-77.68-8.32.34-1.05-28.77,41.72-1.73,3.9,106.45h.01Z" style="fill: rgba(5, 38, 73, 0);"/>
        <path d="m1578.65,1209.78l15.94,14.25,3.84,105.44-14.85,15.53-58.69,2.43-15.74-14.08-3.9-105.75,14.71-15.38,58.69-2.43h0Zm-16.91,29.51l-22.58.94,2.83,77.68,22.58-.94-2.83-77.68Z" style="fill: rgba(5, 38, 73, 0);"/>
      </g>
    </g>
    <g>
      <g>
        <path d="m1246.5,1544.5l8.15,9.54,3.34,57.82-7.2,6.79-29.27-5.24-8.05-9.42-3.38-58,7.14-6.73,29.27,5.24h0Zm-8.04,14.17l-11.26-2.01,2.46,42.6,11.26,2.01-2.46-42.6Z" style="fill: rgba(255, 255, 255, 0);"/>
        <path d="m1233.83,1600l4.15.74.91,15.78-24.97-4.47-.91-15.78,4.15.74-2.46-42.6-4.15-.74-.91-15.78,20.81,3.72,3.39,58.38h-.01Z" style="fill: rgba(255, 255, 255, 0);"/>
        <path d="m1211.01,1561.66l-.9-15.59,7.2-6.79,29.27,5.24,8.07,9.45,1.67,28.8-7.14,6.71-17.69-3.16-2.49,1.75.65,11.19,11.28,2.02-.46-7.98,16.63,2.98,1.37,23.75-44.55-7.97-2.13-36.89,7.14-6.71,17.69,3.17,2.49-1.75-.52-8.98-2.71-2.67-6.14-1.1-2.43,1.75.33,5.76-16.63-2.98h0Z" style="fill: rgba(255, 255, 255, 0);"/>
        <path d="m1256.09,1578.92l-3.57,3.36,4.03,4.72,1.44,24.95-7.14,6.73-29.27-5.24-8.15-9.54-.9-15.58,16.63,2.98.33,5.76,2.69,2.67,6.14,1.1,2.46-1.75-.52-8.98-2.75-2.69-8.66-1.55-.91-15.78,8.66,1.55,2.49-1.75-.52-8.98-2.71-2.67-6.14-1.1-2.43,1.75.33,5.76-16.63-2.98-.9-15.59,7.2-6.79,29.27,5.24,8.07,9.45,1.44,24.95h.02Z" style="fill: rgba(255, 255, 255, 0);"/>
        <path d="m1257.24,1598.73l-4.15-.74.32,5.52,4.15.74.91,15.78-24.97-4.47-.91-15.78,4.15.74-.32-5.52-23.73-4.25-.91-15.78,10.84-34.75,27.41,4.9,2.15,37.08,4.15.74.91,15.78h0Zm-21.73-19.5l-.96-16.63-4.72,15.62,5.68,1.02h0Z" style="fill: rgba(255, 255, 255, 0);"/>
        <path d="m1229.18,1591.28l.33,5.76,2.69,2.67,6.14,1.1,2.46-1.75-.52-8.98-2.75-2.69-25.3-4.53-2.6-44.96,44.55,7.97,1.37,23.75-16.63-2.98-.46-7.98-11.28-2.02.78,13.41,20.31,3.63,8.07,9.43,1.67,28.8-7.14,6.73-29.27-5.24-8.15-9.54-.9-15.58,16.63,2.98v.02Z" style="fill: rgba(255, 255, 255, 0);"/>
        <path d="m1255.55,1569.63l-16.63-2.98-.33-5.76-2.69-2.67-6.14-1.1-2.46,1.75.65,11.19,20.24,3.62,8.15,9.54,1.66,28.63-7.2,6.79-29.27-5.24-8.07-9.45-3.35-57.97,7.14-6.73,29.27,5.24,8.15,9.54.9,15.59h-.02Zm-26.69,16.21l.65,11.2,2.71,2.68,6.14,1.1,2.43-1.76-.52-8.99-2.69-2.67-8.72-1.56h0Z" style="fill: rgba(255, 255, 255, 0);"/>
        <path d="m1255.09,1561.65l-12.95,39.84,5.17.93.91,15.78-29.12-5.21-.91-15.78,7.28,1.3,12.96-39.84-11.26-2.01.46,7.98-16.63-2.98-1.37-23.75,44.55,7.97.91,15.78h0Z" style="fill: rgba(255, 255, 255, 0);"/>
        <path d="m1254.65,1553.97l1.44,24.95-3.57,3.36,4.03,4.72,1.44,24.87-7.13,6.8-29.27-5.24-8.15-9.54-1.44-24.87,3.57-3.35-4.03-4.72-1.44-24.95,7.21-6.72,29.27,5.24,8.07,9.45h0Zm-15.54,15.9l-.52-8.98-2.71-2.67-6.12-1.09-2.46,1.75.52,8.98,2.75,2.69,6.04,1.08,2.49-1.75h0Zm1.69,29.19l-.52-8.98-2.75-2.69-6.04-1.08-2.49,1.75.52,8.98,2.71,2.68,6.12,1.09,2.46-1.75h0Z" style="fill: rgba(255, 255, 255, 0);"/>
        <path d="m1229.18,1591.28l.33,5.76,2.69,2.67,6.14,1.1,2.46-1.75-.65-11.19-20.24-3.62-8.15-9.54-1.66-28.63,7.2-6.79,29.27,5.24,8.07,9.45,3.35,57.97-7.14,6.73-29.27-5.24-8.15-9.54-.9-15.59,16.63,2.98h.02Zm10.06-19.19l-.65-11.2-2.71-2.67-6.14-1.1-2.43,1.76.52,8.99,2.69,2.67,8.72,1.56h0Z" style="fill: rgba(255, 255, 255, 0);"/>
      </g>
      <g>
        <path d="m1176.7,1581.89l.33,5.76,2.69,2.67,6.14,1.1,2.46-1.75-.65-11.19-20.24-3.62-8.15-9.54-1.66-28.63,7.2-6.79,29.27,5.24,8.07,9.45,3.35,57.97-7.14,6.73-29.27-5.24-8.15-9.54-.9-15.59,16.63,2.98h.02Zm10.06-19.19l-.65-11.2-2.71-2.67-6.14-1.1-2.43,1.76.52,8.99,2.69,2.67,8.72,1.56h0Z" style="fill: rgba(255, 255, 255, 0);"/>
        <path d="m1202.17,1544.58l1.44,24.95-3.57,3.35,4.03,4.72,1.44,24.87-7.13,6.81-29.27-5.24-8.15-9.54-1.44-24.87,3.57-3.36-4.03-4.72-1.44-24.95,7.21-6.72,29.27,5.24,8.07,9.45h0Zm-15.54,15.9l-.52-8.98-2.71-2.67-6.12-1.09-2.46,1.75.52,8.98,2.75,2.69,6.04,1.08,2.49-1.75h0Zm1.69,29.19l-.52-8.98-2.75-2.69-6.04-1.08-2.49,1.75.52,8.98,2.71,2.67,6.12,1.09,2.46-1.75h0Z" style="fill: rgba(255, 255, 255, 0);"/>
        <path d="m1202.62,1552.26l-12.95,39.84,5.17.93.91,15.78-29.12-5.21-.91-15.78,7.28,1.3,12.96-39.84-11.26-2.01.46,7.98-16.63-2.98-1.37-23.75,44.55,7.97.91,15.78h0Z" style="fill: rgba(255, 255, 255, 0);"/>
        <path d="m1203.08,1560.24l-16.63-2.98-.33-5.76-2.69-2.67-6.14-1.1-2.46,1.75.65,11.19,20.24,3.62,8.15,9.54,1.66,28.63-7.2,6.79-29.27-5.24-8.07-9.45-3.35-57.97,7.14-6.73,29.27,5.24,8.15,9.54.9,15.59h-.02Zm-26.69,16.22l.65,11.2,2.71,2.67,6.14,1.1,2.43-1.76-.52-8.99-2.69-2.67-8.72-1.56h0Z" style="fill: rgba(255, 255, 255, 0);"/>
        <path d="m1176.7,1581.89l.33,5.76,2.69,2.67,6.14,1.1,2.46-1.75-.52-8.98-2.75-2.69-25.3-4.53-2.6-44.96,44.55,7.97,1.37,23.75-16.63-2.98-.46-7.98-11.28-2.02.78,13.41,20.31,3.63,8.07,9.43,1.67,28.8-7.14,6.73-29.27-5.24-8.15-9.54-.9-15.58,16.63,2.98v.02Z" style="fill: rgba(255, 255, 255, 0);"/>
        <path d="m1204.76,1589.34l-4.15-.74.32,5.52,4.15.74.91,15.78-24.97-4.47-.91-15.78,4.15.74-.32-5.52-23.73-4.25-.91-15.78,10.84-34.75,27.41,4.9,2.15,37.08,4.15.74.91,15.78h0Zm-21.73-19.5l-.96-16.63-4.72,15.62,5.68,1.02h0Z" style="fill: rgba(255, 255, 255, 0);"/>
        <path d="m1203.61,1569.53l-3.57,3.35,4.03,4.72,1.44,24.95-7.14,6.73-29.27-5.24-8.15-9.54-.9-15.58,16.63,2.98.33,5.76,2.69,2.67,6.14,1.1,2.46-1.75-.52-8.98-2.75-2.69-8.66-1.55-.91-15.78,8.66,1.55,2.49-1.75-.52-8.98-2.71-2.67-6.14-1.1-2.43,1.75.33,5.76-16.63-2.98-.9-15.59,7.2-6.79,29.27,5.24,8.07,9.45,1.44,24.95h.02Z" style="fill: rgba(255, 255, 255, 0);"/>
        <path d="m1158.53,1552.27l-.9-15.59,7.2-6.79,29.27,5.24,8.07,9.45,1.67,28.8-7.14,6.71-17.69-3.16-2.49,1.75.65,11.19,11.28,2.02-.46-7.98,16.63,2.98,1.37,23.75-44.55-7.97-2.13-36.89,7.14-6.71,17.69,3.16,2.49-1.75-.52-8.98-2.71-2.67-6.14-1.1-2.43,1.75.33,5.76-16.63-2.98h0Z" style="fill: rgba(255, 255, 255, 0);"/>
        <path d="m1200.87,1594.11l4.15.74.91,15.78-24.97-4.47-.91-15.78,4.15.74-2.46-42.6-4.15-.74-.91-15.78,20.8,3.72,3.39,58.38h0Z" style="fill: rgba(255, 255, 255, 0);"/>
        <path d="m1194.03,1535.11l8.15,9.54,3.35,57.82-7.2,6.79-29.27-5.24-8.05-9.42-3.38-58,7.14-6.73,29.27,5.24h-.01Zm-8.04,14.17l-11.26-2.01,2.46,42.6,11.26,2.01-2.46-42.6Z" style="fill: rgba(255, 255, 255, 0);"/>
      </g>
    </g>
    <g id="clothing-shoes">
      <g>
        <g>
          <rect x="1262" y="2228.25" width="49.13" height="45.74" rx="12" ry="12" style="fill: #0a0a0a;"/>
          <rect x="1141.72" y="2165.57" width="49.13" height="45.74" rx="12" ry="12" style="fill: #0a0a0a;"/>
          <rect x="1079.04" y="2087.64" width="49.13" height="45.74" rx="12" ry="12" style="fill: #0a0a0a;"/>
          <rect x="2082.94" y="2130.84" width="49.13" height="45.74" rx="12" ry="12" style="fill: #0a0a0a;"/>
          <rect x="1927.08" y="2171.5" width="49.13" height="45.74" rx="12" ry="12" style="fill: #0a0a0a;"/>
          <rect x="1736.35" y="2141.85" width="49.13" height="45.74" rx="12" ry="12" style="fill: #0a0a0a;"/>
          <rect x="1600.82" y="2099.5" width="49.13" height="45.74" rx="12" ry="12" style="fill: #0a0a0a;"/>
          <rect x="1495.79" y="2213" width="49.13" height="45.74" rx="12" ry="12" style="fill: #0a0a0a;"/>
        </g>
        <g>
          <g>
            <g>
              <g>
                <path id="shoe-color" d="m2115.92,1967.53s-44.37-31.56-82.01-47l.14-.37c-5.06-32.48-94.29-94.88-94.29-94.88,0,0-28.51-56.56-56.62-62.58-19.74-4.23-20.06,9.13-18.49,17.46-13.28-13.88-30.24-24.57-60-20.83-33.78,4.25-57.45,17.56-44.3,36.34,0,0-66.87-52.25-92.55,26.01,0,0-87.32,23.63-124.46-24.9,0,0-40.94,14.56-14.36,64.48,0,0-19.32,78.1-19.58,111.85-.15,20.45,3.09,46.16,10.57,70.65,3.46,11.38,7.85,22.48,13.23,32.67,2.14,4.08,4.46,8,6.92,11.73,21.95,33.17,90.61,39.27,117.27,47.58,26.67,8.3,88.43,27.94,143.94,49.13,66.24,25.27,269.82,30.13,334.75-43.52,0,0,29.88-27.77,7.23-45.18,0,0,7.21-12.44,12.26-30.01,8.64-30.05,11.01-75.09-39.65-98.61v-.02Z" style="fill: #101010;"/>
                <path d="m1718.44,1854.1c-24.94-16.12-50.64-32.44-50.64-32.44,25.67-78.27,92.55-26.01,92.55-26.01,0,0,93.24,87.57,119.41,102.63,26.16,15.07,61.19,41.15-20.09,60.13-86.85,20.27,115.22,90.36,256.25,9.11,50.66,23.52,48.29,68.57,39.65,98.61-5.9,11.95-36.3,56.75-164.66,68.82-148.55,13.97-199.75-20.7-282.05-45.56-.66-.2-1.32-.4-1.99-.6.8-21.89,13.17-104.29,73.04-137.95,54.44-30.59-2.39-55.55-16.64-66.77-5.37-4.23-24.85-17.04-44.82-29.98h-.01Z" style="fill: #101011;"/>
                <path d="m2143.31,2096.15c22.65,17.41-7.23,45.18-7.23,45.18-64.93,73.66-268.51,68.79-334.75,43.52-55.51-21.19-117.28-40.83-143.94-49.13-26.66-8.31-95.31-14.41-117.27-47.58-2.47-3.73-4.78-7.65-6.92-11.73,14.57,3.03,107.12,22.58,179.78,45.5,79.1,24.95,128.31,59.66,271.01,45.85,142.71-13.81,159.32-71.6,159.32-71.6h0Z" style="fill: #4c4c4f;"/>
                <path d="m1706.86,2088.8c.67.19,1.33.39,1.99.6,82.31,24.86,133.5,59.53,282.05,45.56,128.36-12.06,158.76-56.86,164.66-68.82-5.05,17.57-12.26,30.01-12.26,30.01,0,0-16.61,57.79-159.32,71.6-142.7,13.82-191.91-20.9-271.01-45.85-72.66-22.92-165.21-42.47-179.78-45.5-5.38-10.19-9.77-21.29-13.23-32.67,5.76,1.13,107.21,21.17,186.9,45.06h0Z" style="fill: #101011;"/>
                <path d="m1864.64,1780.15c1.82,1.87,3.55,3.81,5.23,5.78,14.15,16.5,21.07,25.47,38.5,46.38,17.43,20.92,113.15,83.68,113.15,83.68,3.99,1.26,8.14,2.8,12.38,4.54,37.64,15.44,82.01,47,82.01,47-141.03,81.25-343.1,11.16-256.25-9.11,81.28-18.98,46.25-45.06,20.09-60.13-26.17-15.07-119.41-102.63-119.41-102.63-13.15-18.78,10.52-32.09,44.3-36.34,29.75-3.74,46.72,6.96,60,20.83Z" style="fill: #101011;"/>
                <path d="m2034.05,1920.15l-.14.37c-4.24-1.74-8.39-3.28-12.38-4.54,0,0-95.71-62.76-113.15-83.68-17.43-20.92-24.35-29.88-38.5-46.38-1.68-1.97-3.42-3.9-5.23-5.78-1.57-8.32-1.26-21.69,18.49-17.46,28.11,6.02,56.62,62.58,56.62,62.58,0,0,89.23,62.4,94.3,94.88h-.01Z" style="fill: #101011;"/>
                <path d="m1763.27,1884.08c14.24,11.21,71.07,36.17,16.64,66.77-59.88,33.66-72.25,116.07-73.04,137.95-79.68-23.9-181.14-43.94-186.9-45.06-7.47-24.48-10.72-50.2-10.57-70.65.27-33.74,19.58-111.85,19.58-111.85,0,0,79.76,37.29,189.46-7.14,19.98,12.94,39.46,25.75,44.82,29.98h.01Z" style="fill: #101011;"/>
                <path d="m1667.8,1821.66s25.71,16.31,50.64,32.44c-109.7,44.43-189.46,7.14-189.46,7.14-26.59-49.92,14.36-64.48,14.36-64.48,37.14,48.53,124.46,24.9,124.46,24.9h0Z" style="fill: #101011;"/>
                <path d="m1810.92,1966.21s319.88,55.45,260.59-27.72" style="fill: none; stroke: #2f3335; stroke-linecap: round; stroke-miterlimit: 10; stroke-width: 13.69px;"/>
                <path d="m1835.89,1997.19s319.88,48.92,262.15-37.51" style="fill: none; stroke: #2f3335; stroke-linecap: round; stroke-miterlimit: 10; stroke-width: 13.69px;"/>
                <path d="m1870.21,2029.81s301.16,39.14,257.47-47.29" style="fill: none; stroke: #2f3335; stroke-linecap: round; stroke-miterlimit: 10; stroke-width: 13.69px;"/>
              </g>
              <g>
                <path d="m1667.8,1821.66s-87.32,23.63-124.46-24.9c0,0-40.94,14.56-14.36,64.48,0,0-19.32,78.1-19.58,111.85-.15,20.45,3.09,46.16,10.57,70.65,3.46,11.38,7.85,22.48,13.23,32.67,2.14,4.08,4.46,8,6.92,11.73,21.95,33.17,90.61,39.27,117.27,47.58,26.67,8.3,88.43,27.94,143.94,49.13,66.24,25.27,269.82,30.13,334.75-43.52,0,0,29.88-27.77,7.23-45.18,0,0,7.21-12.44,12.26-30.01,8.64-30.05,11.01-75.09-39.65-98.61,0,0-44.37-31.56-82.01-47-4.24-1.74-8.39-3.28-12.38-4.54,0,0-95.71-62.76-113.15-83.68-17.43-20.92-24.35-29.88-38.5-46.38-1.68-1.97-3.42-3.9-5.23-5.78-13.28-13.88-30.24-24.57-60-20.83-33.78,4.25-57.45,17.56-44.3,36.34,0,0-66.87-52.25-92.55,26.01h0Z" style="fill: none; stroke: #000; stroke-miterlimit: 10; stroke-width: 13.69px;"/>
                <path d="m2034.05,1920.15c-5.06-32.48-94.3-94.88-94.3-94.88,0,0-28.51-56.56-56.62-62.58-19.74-4.23-20.06,9.13-18.49,17.46.65,3.53,1.65,6.15,1.65,6.15" style="fill: none; stroke: #000; stroke-miterlimit: 10; stroke-width: 13.69px;"/>
                <path d="m1531.22,2076s.68.14,1.97.41c14.57,3.03,107.12,22.58,179.78,45.5,79.1,24.95,128.31,59.66,271.01,45.85,142.71-13.81,159.32-71.6,159.32-71.6" style="fill: none; stroke: #000; stroke-miterlimit: 10; stroke-width: 13.69px;"/>
                <path d="m1519.71,2043.68l.26.05c5.76,1.13,107.21,21.17,186.9,45.06.67.19,1.33.39,1.99.6,82.31,24.86,133.5,59.53,282.05,45.56,128.36-12.06,158.76-56.86,164.66-68.82.93-1.89,1.24-2.95,1.24-2.95" style="fill: none; stroke: #000; stroke-miterlimit: 10; stroke-width: 13.69px;"/>
                <path d="m1528.98,1861.24s79.76,37.29,189.46-7.14c0,0,.02-.01.03-.01" style="fill: none; stroke: #000; stroke-miterlimit: 10; stroke-width: 13.69px;"/>
                <path d="m1718.44,1854.1s75.31,112.1,168.94,97.43c0,0,53.05-4.89,28.09-24.46l-138.88-109.27" style="fill: none; stroke: #000; stroke-linecap: round; stroke-miterlimit: 10; stroke-width: 13.69px;"/>
              </g>
            </g>
            <g>
              <path d="m1836.4,1914.54c-2.47,0-4.82-.84-6.78-2.43-4.81-3.91-5.68-11.18-1.94-16.21,5.24-7.04,17.62-19.21,36.82-36.18-37.43,2.55-67.93,9.88-68.25,9.95-.82.2-1.66.3-2.5.3-4.13,0-7.89-2.38-9.8-6.21-2.33-4.68-1.34-10.4,2.41-13.93,12.42-11.68,24.8-22.42,36.89-31.99-1.42-.02-2.85-.04-4.3-.06-3.97-.05-8.1-.07-12.26-.07-39.35,0-74.25,2.13-75.71,2.22-.24.02-.47.02-.7.02-5.82,0-10.66-4.77-11.01-10.85-.18-3.08.8-6.05,2.76-8.36s4.66-3.68,7.61-3.87c.34-.02,35.92-2.27,76.95-2.27,4.25,0,8.47.02,12.52.07,12.5.15,24.14.52,34.59,1.12,22.92-14.95,36.12-19.64,37.55-20.13,1.11-.38,2.26-.56,3.41-.56,4.81,0,9.03,3.21,10.52,7.99,1.87,6.04-1.3,12.57-7.07,14.54-.09.03-1.88.68-5.15,2.18,27.13,4.52,35.83,11.22,40.03,16,2.08,2.37,3.13,5.58,2.87,8.79s-1.81,6.18-4.24,8.15c-1.89,1.53-4.07,3.31-6.5,5.3,14.29,1.97,27.06,5.18,38.02,9.57,5.69,2.28,8.55,8.97,6.36,14.92-1.63,4.44-5.78,7.42-10.32,7.42-1.35,0-2.68-.26-3.95-.77-14.68-5.88-33.27-9.29-55.27-10.14-29.51,25.06-48.96,43.17-54.8,51.02-2.11,2.83-5.29,4.46-8.73,4.46h-.03Zm23.17-95.23c-8.85,6.05-18.01,12.9-27.29,20.42,19.64-2.67,38.44-4.03,55.97-4.03,1.37,0,2.75,0,4.13.03,3.94-3.32,7.94-6.65,11.91-9.94-5.6-1.59-12.61-2.97-20.9-4.1-6.99-.96-15-1.76-23.81-2.38h0Z" style="fill: #3f3f44; stroke: #000; stroke-miterlimit: 10; stroke-width: 4px;"/>
              <path d="m1856.18,1929.75c-3.36,0-6.49-1.56-8.6-4.29-3.82-4.94-3.09-12.22,1.63-16.22,1.86-1.58,46.3-38.61,112.31-38.61,9.82,0,19.77.83,29.56,2.47,2.91.49,5.47,2.13,7.21,4.63,1.73,2.5,2.43,5.55,1.96,8.6-.86,5.64-5.44,9.73-10.89,9.73h0c-.59,0-1.19-.05-1.77-.15-8.43-1.41-17.05-2.13-25.6-2.13-27.01,0-49.54,7.13-63.7,13.11-21.85,9.24-35.03,20.19-35.17,20.3-1.96,1.65-4.42,2.56-6.93,2.56h0Z" style="fill: #3f3f44; stroke: #000; stroke-miterlimit: 10; stroke-width: 4px;"/>
            </g>
            <polygon points="1523.84 1900.54 1658.84 1919.54 1619.84 1965.54 1746.84 2007.54 1536.94 1988.5 1580.84 1934.54 1523.84 1900.54" style="fill: #fff; stroke: #000; stroke-linecap: round; stroke-linejoin: round; stroke-width: 13px;"/>
            <path d="m1558.13,1816.17s-14.04-24.46-26.53-11.42c-12.48,13.05-17.16,53.82,12.48,63.6,0,0-24.97-4.89-23.41,44.03,0,0,26.53,75.02,45.25,101.11s17.16,110.9,17.16,110.9c0,0,98.31,17.94,165.4,44.03,67.1,26.09,190.37,60.34,298.04,22.83s102.99-65.23,102.99-65.23c0,0-6.24-27.72,1.56-44.03s10.92-40.77,9.36-55.45c0,0-112.35,81.54-343.29,29.35-230.94-52.19-254.35-96.22-252.79-153.3,1.56-57.08-6.24-86.43-6.24-86.43h.02Z" style="isolation: isolate; opacity: .2;"/>
          </g>
          <g>
            <g>
              <g>
                <path d="m1591.68,2100.6c-.84-4-1.65-6.75-2.01-7.9-.12-.4-.19-.6-.19-.6,0,0,12.67-66.01-28.61-105.48l1.71-.15c-6.45-30.19-73.43-153.33-75.04-155.64h-.62c.1-6.3.34-10.65.34-12.24,0-9.57-8.6-29.8-23.66-32.99l-20.44,23.42-4.72.05c-12.21-13.07-32.23-20.34-89.71-19.74-78.64.81-100.33,43.31-100.33,43.31,0,0-4.31-27.87-24.75-28.94-20.44-1.06-49.49,0-65.63,22.35,0,0-41.97-22.35-38.74-37.25,0,0-25.83,4.25-19.37,28.73,2.67,10.14,3.13,20.09,2.06,29.79-1.51,13.71-6.07,26.92-11.75,39.39-9.68,21.29-24.74,75.57-11.83,98.98-3.23,3.19-3.23,59.59-3.23,59.59,0,0-3.23,30.87,15.06,59.6,18.29,28.74,75.35,164.91,323.87,152.2,187.22-9.58,184.24-125.19,177.59-156.46v-.02Z" style="fill: #101010;"/>
                <path d="m1591.68,2100.6c6.65,31.28,9.63,146.88-177.59,156.46-248.52,12.71-305.58-123.45-323.87-152.2-18.29-28.73-15.06-59.6-15.06-59.6,0,0,45.2,175.07,303.42,185.19,231.36,9.06,213.05-129.84,213.05-129.84h.05,0Z" style="fill: #4c4c4f;"/>
                <path d="m1591.68,2100.6h-.05s18.31,138.91-213.05,129.85c-258.23-10.11-303.42-185.19-303.42-185.19,0,0,0-56.4,3.23-59.59,0,0-.3,39.29,27,83.67,35.67,58.03,118.51,124.76,310.85,123.86,122.61-.57,163.81-57.24,173.43-100.5.36,1.15,1.17,3.89,2.01,7.9h0Z" style="fill: #101011;"/>
                <path d="m1560.87,1986.61c41.28,39.47,28.61,105.48,28.61,105.48,0,0,.07.21.19.6-9.62,43.26-50.82,99.92-173.43,100.5-192.34.9-275.19-65.83-310.85-123.86l5.28-.66c-3.23-89.4,96.84-108.56,96.84-108.56,0,0,20.44-26.6-9.69-60.66-8-9.05-14.56-18.47-19.87-27.43-14.71-24.77-19.93-46-19.93-46,16.14-22.35,45.19-23.42,65.63-22.35,20.44,1.06,24.75,28.94,24.75,28.94-2.15,10.87,33.35,58.3,62.4,99.8,29.06,41.5-7.53,52.41-31.2,55.38-23.67,2.96-64.02,25.8,18.29,55.34,63.88,22.92,164.73,20.67,208.2-7.99,48.42-31.93,17.75-59.07-20.98-62.26-33.38-2.74-36.58-14.06-35.51-30.86,1.07-16.79,0-117.32,0-117.32-3.61-5.87-6.92-11.12-11.18-15.66l4.72-.05,20.44-23.42c15.06,3.19,23.66,23.42,23.66,32.99,0,1.59-.24,5.94-.34,12.23-.52,31.67,2.28,112.79,55.22,142.08,7.23,4,13.43,8.64,18.74,13.72v.02Z" style="fill: #101011;"/>
                <path d="m1562.58,1986.46l-1.71.15c-5.31-5.08-11.51-9.72-18.74-13.72-52.94-29.3-55.74-110.41-55.22-142.08h.62c1.61,2.33,68.59,125.46,75.04,155.65h0Z" style="fill: #101011;"/>
                <path d="m1485.11,1972.89c38.73,3.19,69.39,30.33,20.98,62.26-43.47,28.67-144.32,30.91-208.2,7.99-82.31-29.54-41.97-52.38-18.29-55.34,23.67-2.97,60.26-13.88,31.2-55.38-29.05-41.5-64.55-88.94-62.4-99.8,0,0,21.68-42.5,100.33-43.31,57.48-.59,77.49,6.67,89.71,19.74,4.26,4.54,7.56,9.79,11.18,15.66,0,0,1.07,100.53,0,117.32-1.08,16.8,2.12,28.12,35.51,30.86h-.02Z" style="fill: #101011;"/>
                <path d="m1197.82,1899.47c30.13,34.06,9.69,60.66,9.69,60.66,0,0-100.07,19.16-96.84,108.56l-5.28.66c-27.3-44.38-27-83.67-27-83.67-12.91-23.42,2.15-77.69,11.83-98.98,5.68-12.47,10.24-25.68,11.75-39.39h.1s30.12,31.94,74.24,25.56l1.64-.82c5.32,8.96,11.87,18.38,19.87,27.43h0Z" style="fill: #101011;"/>
                <path d="m1177.95,1872.04l-1.64.82c-44.12,6.39-74.24-25.55-74.24-25.55h-.1c1.08-9.71.61-19.66-2.06-29.8-6.46-24.48,19.37-28.73,19.37-28.73-3.23,14.9,38.74,37.25,38.74,37.25,0,0,5.22,21.23,19.93,46h0Z" style="fill: #101011;"/>
                <path d="m1559.35,1997.15s-3.38,31.56-146.87,38.31c-135.57,6.39-179.15-17.56-195.29-31.93" style="fill: none; stroke: #2f3335; stroke-linecap: round; stroke-miterlimit: 10; stroke-width: 13.69px;"/>
                <path d="m1573.88,2021.1s-11.4,42.36-154.94,47.89c-124.28,4.79-177.54-12.77-193.68-27.14" style="fill: none; stroke: #2f3335; stroke-linecap: round; stroke-miterlimit: 10; stroke-width: 13.69px;"/>
                <path d="m1580.34,2056.22s-11.49,40.32-154.94,47.89c-121.05,6.39-177.54-9.58-193.68-22.35" style="fill: none; stroke: #2f3335; stroke-linecap: round; stroke-miterlimit: 10; stroke-width: 13.69px;"/>
              </g>
              <g>
                <line x1="1591.68" y1="2100.6" x2="1591.64" y2="2100.61" style="fill: none; stroke: #000; stroke-linecap: round; stroke-linejoin: round; stroke-width: 14.27px;"/>
                <line x1="1443.15" y1="1809" x2="1438.43" y2="1809.05" style="fill: none; stroke: #000; stroke-linecap: round; stroke-linejoin: round; stroke-width: 14.27px;"/>
                <line x1="1101.97" y1="1847.3" x2="1102.07" y2="1847.31" style="fill: none; stroke: #000; stroke-linecap: round; stroke-linejoin: round; stroke-width: 14.27px;"/>
                <line x1="1177.95" y1="1872.04" x2="1176.31" y2="1872.86" style="fill: none; stroke: #000; stroke-linecap: round; stroke-linejoin: round; stroke-width: 14.27px;"/>
                <path d="m1248.4,1832.62s21.68-42.5,100.33-43.31c57.48-.59,77.49,6.67,89.71,19.74" style="fill: none; stroke: #000; stroke-linecap: round; stroke-linejoin: round; stroke-width: 14.27px;"/>
                <path d="m1438.43,1809.05c4.26,4.54,7.56,9.79,11.18,15.66,0,0,1.07,100.53,0,117.32-1.08,16.8,2.12,28.12,35.51,30.86,0,0,47.87,9.26,57.02,0" style="fill: none; stroke: #000; stroke-linecap: round; stroke-linejoin: round; stroke-width: 14.27px;"/>
                <path d="m1075.16,2045.26s-3.23,30.87,15.06,59.6c18.29,28.74,75.35,164.91,323.87,152.2,187.22-9.58,184.24-125.19,177.59-156.46" style="fill: none; stroke: #000; stroke-linecap: round; stroke-linejoin: round; stroke-width: 14.27px;"/>
                <path d="m1589.67,2092.7c.36,1.15,1.17,3.89,2.01,7.9" style="fill: none; stroke: #000; stroke-linecap: round; stroke-linejoin: round; stroke-width: 14.27px;"/>
                <path d="m1078.39,1985.67c-3.23,3.19-3.23,59.59-3.23,59.59" style="fill: none; stroke: #000; stroke-linecap: round; stroke-linejoin: round; stroke-width: 14.27px;"/>
                <path d="m1101.97,1847.3c-1.51,13.71-6.07,26.92-11.75,39.39-9.68,21.29-24.74,75.57-11.83,98.98" style="fill: none; stroke: #000; stroke-linecap: round; stroke-linejoin: round; stroke-width: 14.27px;"/>
                <path d="m1589.67,2092.7c-.12-.4-.19-.6-.19-.6,0,0,12.67-66.01-28.61-105.48-5.31-5.08-11.51-9.72-18.74-13.72-52.94-29.3-55.74-110.41-55.22-142.08.1-6.29.34-10.64.34-12.23,0-9.57-8.6-29.8-23.66-32.99l-20.44,23.42" style="fill: none; stroke: #000; stroke-linecap: round; stroke-linejoin: round; stroke-width: 14.27px;"/>
                <path d="m1158.02,1826.03c16.14-22.35,45.19-23.42,65.63-22.35,20.44,1.06,24.75,28.94,24.75,28.94" style="fill: none; stroke: #000; stroke-linecap: round; stroke-linejoin: round; stroke-width: 14.27px;"/>
                <path d="m1101.97,1847.3c1.08-9.7.61-19.65-2.06-29.79-6.46-24.48,19.37-28.73,19.37-28.73-3.23,14.9,38.74,37.25,38.74,37.25" style="fill: none; stroke: #000; stroke-linecap: round; stroke-linejoin: round; stroke-width: 14.27px;"/>
                <path d="m1591.64,2080.39c-.38,3.98-1.02,8.09-1.96,12.32" style="fill: none; stroke: #000; stroke-linecap: round; stroke-linejoin: round; stroke-width: 14.27px;"/>
                <path d="m1589.67,2092.7c-9.62,43.26-50.82,99.92-173.43,100.5-192.34.9-275.19-65.83-310.85-123.86-27.3-44.38-27-83.67-27-83.67" style="fill: none; stroke: #000; stroke-linecap: round; stroke-linejoin: round; stroke-width: 14.27px;"/>
                <path d="m1075.16,2045.26s45.2,175.07,303.42,185.19c231.36,9.06,213.05-129.84,213.05-129.84" style="fill: none; stroke: #000; stroke-linecap: round; stroke-linejoin: round; stroke-width: 14.27px;"/>
                <path d="m1177.95,1872.04c-14.71-24.77-19.93-46-19.93-46" style="fill: none; stroke: #000; stroke-linecap: round; stroke-linejoin: round; stroke-width: 14.27px;"/>
                <path d="m1102.07,1847.31s30.12,31.94,74.24,25.55c0,0,47.88,123.15,103.29,114.94,23.6-3.5,60.26-13.88,31.2-55.38-29.05-41.5-64.55-88.94-62.4-99.8" style="fill: none; stroke: #000; stroke-linecap: round; stroke-linejoin: round; stroke-width: 14.27px;"/>
                <path d="m1562.58,1986.46c-6.45-30.19-73.43-153.33-75.04-155.64" style="fill: none; stroke: #000; stroke-linecap: round; stroke-linejoin: round; stroke-width: 14.27px;"/>
              </g>
            </g>
            <g>
              <path d="m1264.59,1938.48c-3.69,0-7.16-1.16-9.76-3.27-2.82-2.29-4.3-5.39-4.15-8.73.15-3.36,2-6.49,5.09-8.57,6.49-4.37,16.99-9.13,31.3-14.19-19.95-.63-35.4-.72-41.97-.72-2.89,0-4.53.01-4.69.02h-.21c-5.45,0-10.41-2.64-12.64-6.72-2.61-4.78-1.08-10.44,3.71-13.75,10.08-6.98,29.31-15.15,57.27-24.32-45.24-4.52-78.83-7.76-79.45-7.81-4.24-.33-7.99-2.21-10.29-5.14-1.79-2.28-2.56-5.05-2.17-7.8.84-5.79,6.77-10.16,13.79-10.16.45,0,.91.02,1.37.05,1.82.15,52.76,4.86,113.37,11.26,7.44.79,14.75,1.58,21.75,2.37,48.39-13.11,93.69-23.1,95.6-23.52,1.18-.26,2.41-.39,3.64-.39,6,0,11.29,3.15,13.18,7.84,1.11,2.75.96,5.73-.42,8.39-1.68,3.24-5.01,5.63-9.14,6.53-5.92,1.3-20.12,4.49-39.48,9.19,14.59,2.15,26.76,4.23,36.31,6.22,2.01-.88,4.25-1.34,6.55-1.34,1.29,0,2.58.15,3.82.44,1.57.37,3.13.74,4.69,1.11.67.16,1.33.37,1.96.61,7.93,3.04,13.15,8.35,14.34,14.56l.07.36c.03.15.04.3.05.44.05.42.07.85.07,1.28v.33c-.03.6-.11,1.18-.23,1.73l-.08.32c-.09.36-.24.84-.44,1.32-.07.16-.11.26-.16.36-.23.51-.49.98-.78,1.42l-.17.24c-.21.31-.51.69-.82,1.05l-.24.26c-.42.45-.8.81-1.2,1.13l-.2.16c-.28.23-.69.52-1.15.81l-.27.16c-.94.56-1.93,1-2.97,1.35l-.36.11c-.42.12-.8.22-1.2.31l-.43.1c-5.34.99-22.14,4.16-44.84,8.97,21.92,3.96,40.03,8.77,53.99,14.34,3.77,1.5,6.48,4.32,7.44,7.72.85,3.02.27,6.14-1.65,8.76-2.48,3.4-7.04,5.52-11.9,5.52-2.1,0-4.21-.4-6.09-1.15-22.8-9.1-58.82-15.89-107.08-20.2-55.63,13.96-76.34,22.97-83.91,28.08-2.46,1.66-5.59,2.58-8.81,2.58v-.02Zm31.14-57.71c20.57.76,40.7,1.94,59.01,3.49,16.2-4,33.9-8.07,52.81-12.13-16.06-2.39-35.45-4.9-57.89-7.47-20.84,5.73-38.9,11.13-53.92,16.1h-.01Z" style="fill: #3f3f44; stroke: #000; stroke-miterlimit: 10; stroke-width: 4px;"/>
              <path d="m1275.58,1966.97c-6.67,0-12.41-3.94-13.66-9.36-.63-2.76-.07-5.61,1.59-8.02,2.1-3.05,5.73-5.11,9.96-5.64,3.76-.47,92.7-11.51,157.67-11.51,6.1,0,11.72-.14,17.16-.28,4.65-.12,9.04-.23,13.12-.23,6.76,0,11.64.31,15.82,1.02,4.19.71,7.69,2.92,9.6,6.07,1.53,2.53,1.9,5.44,1.05,8.21-1.57,5.09-7.11,8.64-13.46,8.64-.95,0-1.9-.08-2.84-.24-2.92-.49-6.47-.72-11.14-.72-3.68,0-7.76.14-12.08.29-5.07.17-10.81.37-16.9.37-63.41,0-152.85,11.17-153.74,11.28-.72.09-1.43.13-2.13.13h-.02Z" style="fill: #3f3f44; stroke: #000; stroke-miterlimit: 10; stroke-width: 4px;"/>
            </g>
            <path d="m1085.84,1900.54l62,27-44,14,61,67-88-34s-8-35,9-74Z" style="fill: #fff; stroke: #000; stroke-linecap: round; stroke-linejoin: round; stroke-width: 13px;"/>
            <path d="m1142.95,1824.43s-33.89,14.37-24.21,38.31c-1.61,7.98-45.19,95.78-20.98,180.39,24.21,84.61,195.29,108.56,290.51,108.56s174.3-26.98,188.83-69.36c0,0,25.83,56.59,1.62,96.5s-61.33,95.78-256.62,73.43-237.25-156.45-242.1-169.22c-4.84-12.77-8.07-65.45-4.84-79.82s-9.68-49.49,3.23-81.42,19.37-44.7,22.6-63.86c3.23-19.16-9.68-54.28,0-59.07s25.82,4.79,25.82,4.79l16.14,20.75v.02Z" style="isolation: isolate; opacity: .2;"/>
          </g>
        </g>
      </g>
    </g>
  </g>
</svg>