<?xml version="1.0" encoding="UTF-8"?>
<svg id="CLOTHING" xmlns="http://www.w3.org/2000/svg" viewBox="0 0 3000 3000">
  <g id="Baseball-Black-Pinstripe">
    <circle cx="1500" cy="1500" r="1200" style="fill: #4c6164;"/>
    <g>
      <path d="m2150.58,1154.44s19.31-7.22,27.31-15.22c0,0,7-29,22-22s62.58,179.42,182.79,242.21c0,0,5.21,16.79-11.79,18.79,0,0-135.35,151.88-315.18,87.94l94.87-311.72h0Z" style="fill: #222; stroke: #000; stroke-linecap: round; stroke-linejoin: round; stroke-width: 13px;"/>
      <path d="m664.39,1277.72s-66,136-74,231c0,0-16.39,6.86,3.3,18.43,19.7,11.57,158.25,73.24,265.98,55.91,0,0,16.22-9.71,8.47-22.02,0,0,25.25-59.31,69.46-101.65l-273.21-181.66h0Z" style="fill: #222; stroke: #000; stroke-linecap: round; stroke-linejoin: round; stroke-width: 13px;"/>
    </g>
    <path d="m2144.65,1142.72c-2.48-3.44-5.55-5.64-9.34-5.26-.62.06-1.26.18-1.92.39-1.59.5-5.44-.52-11.08-2.75-4.49-1.77-10.12-4.31-16.67-7.46-1.7-.82-3.47-1.69-5.29-2.58-6.34-3.14-13.39-6.74-20.97-10.7-53.61-28.01-133.95-73.83-181.67-97.1-25.87,16.38-54.54,31.1-86.3,43.55-8.55,3.36-17.33,6.55-26.34,9.58-10.2,3.43-20.71,6.63-31.51,9.59l-.25-.92c-12.2,3.16-34.73,7.3-56.2,10.79-3.06.5-6.11.99-9.09,1.45-15.3,2.4-29.16,4.33-37.16,5.16-9.41,14.48-22.42,31.73-37.31,43.87-37.27,27.1-82.45,1.13-82.45,1.13l-57.44-37.83c-20.6.43-42.14-.46-62.81-2.01-52.1-3.91-98.69-12.09-110.96-14.35h0c-26.76-5.58-52.44-12.13-77.02-19.52-30.82-9.27-59.95-19.84-87.43-31.38-36.81-15.45-70.66-32.65-101.68-50.83-54.04,16.71-175.79,67.45-334.35,213.68-.4.38-.81.75-1.22,1.13-5.56,5.14-11.19,10.42-16.84,15.81-.39.37-.79.74-1.18,1.12-1.71,1.64-3.42,3.26-5.14,4.91-3.9,3.75-7.81,7.56-11.75,11.43-.53.51-1.05,1.02-1.58,1.54-4.12,4.06-8.26,8.18-12.43,12.37-1.67,1.68-3.34,3.36-5.02,5.06-5.25,5.32-10.54,10.73-15.86,16.26,0,0,133,171,314,204,0,0,3.66-3.53,9.66-9.17,1.1-1.04,2.27-2.13,3.52-3.3,2.38-2.23,5.04-4.7,7.89-7.33.99-.92,2.01-1.86,3.06-2.81,3.13-2.87,6.46-5.9,9.94-9.02.23-.21.46-.42.69-.63,1.61-1.44,3.25-2.91,4.91-4.38,2.74-2.44,5.55-4.92,8.38-7.39,3.34-2.91,6.73-5.83,10.12-8.7,21.52-18.23,43.05-34.57,52.83-36.27,0,0,36.82,156.16,47.41,167.58,6.56,7.08,195.89,23.61,414.66,20.65,7.56-.1,15.17-.24,22.8-.39,7.19-.14,14.41-.31,21.65-.49,18.41-.48,36.95-1.1,55.53-1.88,8.13-.35,16.26-.72,24.4-1.12,7.25-.37,14.49-.75,21.73-1.16,88.68-5.09,176.73-14.21,254.66-29.16,0,0,18.16-85.03,18.16-108.03,0,0,15.54,10.25,32.17,20.29,6.92,4.18,14.03,8.33,20.29,11.68,3.56,1.91,6.84,3.56,9.65,4.81,1.03.46,2,.87,2.89,1.22,2.95,1.15,6.14,2.26,9.41,3.33,5.1,1.67,10.4,3.22,15.31,4.57,2.61.72,5.09,1.38,7.38,1.97,7.53,1.94,12.9,3.13,12.9,3.13,0,0,62-133,109.48-308.97,0,0-2.25-19.5-9.22-29.16h0Z" style="fill: #fff;"/>
    <g>
      <g>
        <path d="m1986.38,1462.7c-5.56-2.97-12.4-6.91-20.33-11.71l-.75-.45.35-.8c40.04-91.73,96.44-280.11,112.78-335.66l.34-1.17,1.08.56c7.69,4.02,14.74,7.62,20.95,10.69l.75.37-.24.81c-63.72,216.38-100.63,307.67-113.54,336.88l-.44.99-.95-.51h0Z" style="fill: #fff;"/>
        <path d="m980.51,1435.96c-75.08-25.61-143.23-63.84-202.57-113.63-54.75-45.94-85.55-88.28-96.3-104.43l-1.7-1.78.72-.69c5.44-5.19,11.1-10.51,16.85-15.82l.42-.38c.27-.25.53-.49.79-.74l.74-.7,1.78,1.94.05.07c7.97,12.25,38.66,56.1,99.14,106.15,59.84,49.51,127.28,87.61,200.46,113.23l1.65.58-1.33,1.13c-3.13,2.65-6.44,5.49-10.11,8.69-2.83,2.47-5.63,4.95-8.37,7.38l-.75.67-1.47-1.67h0Z" style="fill: #fff;"/>
      </g>
      <g>
        <path d="m2008.49,1472.13c-3.66-1.2-6.75-2.29-9.46-3.35-.9-.35-1.88-.77-2.93-1.24-2.68-1.19-5.95-2.82-9.71-4.84l-.82-.44.37-.85c12.9-29.17,49.77-120.37,113.46-336.64l.33-1.14,2.07,1.01c1.47.72,2.9,1.42,4.28,2.09,6.87,3.31,12.3,5.74,16.6,7.43l.85.34-.26.88c-21.29,72.23-74.99,249.58-113.56,336.2l-.37.82-.86-.28h0Z" style="fill: #fff;"/>
        <path d="m964.71,1449.52c-76.67-26.08-145.68-63.91-205.11-112.46-54.9-44.84-85.85-86.47-96.65-102.36l-1.08-1.1.71-.7c4.3-4.22,8.15-7.96,11.76-11.44.85-.82,4.28-4.08,5.14-4.91.27-.26.55-.53.83-.79l1.08-1.02,1.82,1.9.05.07c10.65,16.02,41.33,58.23,95.97,104.07,59.22,49.68,127.24,87.82,202.18,113.35l.25.08,1.82,2.06-.75.66c-1.42,1.26-2.83,2.52-4.22,3.76l-.69.62-.68.62c-3.66,3.28-7.18,6.49-9.83,8.92l-.74.67-1.86-2.03v.03Z" style="fill: #fff;"/>
      </g>
      <g>
        <path d="m2031.24,1478.69c-2.3-.59-4.78-1.25-7.4-1.97-5.62-1.55-10.79-3.09-15.36-4.58l-1.05-.34.45-1.01c38.52-86.51,92.18-263.77,113.46-335.96l.31-1.05,1.02.4c4.71,1.86,7.98,2.8,9.73,2.8.36,0,.57-.04.69-.08.69-.22,1.38-.36,2.12-.43.31-.03.63-.05.94-.05,3.44,0,6.58,1.92,9.31,5.72l.29.4-.14.47c-21.23,71.96-74.75,248.66-113.21,335.12l-.34.77-.82-.21h0Z" style="fill: #fff;"/>
        <path d="m951.73,1464.63c-173.53-57.85-273.39-167.12-308.27-211.42l-.55-.69.62-.63c1.54-1.55,3.06-3.09,4.59-4.62l.43-.44c4.17-4.19,8.35-8.35,12.44-12.38.53-.52,1.06-1.04,1.59-1.55l.71-.69,1.2,1.22.05.07c10.71,15.77,41.53,57.26,96.31,102.01,59.31,48.44,128.19,86.19,204.73,112.2l.24.08,2.28,2.48-.88.66s-.03.03-.06.06c-1.04.94-2.05,1.87-3.03,2.78-2.85,2.63-5.51,5.1-7.89,7.33l-.95.89c-.9.84-1.75,1.64-2.57,2.41l-.44.41-.57-.19h.02Z" style="fill: #fff;"/>
      </g>
      <g>
        <path d="m2044.17,1481.83c-.05-.01-5.47-1.22-12.93-3.14l-1.14-.29.48-1.08c38.41-86.36,91.9-262.96,113.12-334.88l.58-1.96,1.19,1.65c7.04,9.76,9.31,28.82,9.4,29.63l.02.19-.05.19c-46.96,174.04-108.92,307.8-109.54,309.13l-.34.73-.78-.17h0Z" style="fill: #fff;"/>
        <path d="m942.21,1473.83c-41.39-7.55-83.69-22.99-125.72-45.9-33.61-18.32-67.12-41.43-99.62-68.69-55.32-46.41-88.94-89.35-89.27-89.78l-.53-.68.6-.62c4.83-5.02,10.02-10.34,15.87-16.27l.8-.81.7.89c34.77,44.15,134.31,153.08,307.33,210.76l1.59.53-1.22,1.15c-5.93,5.57-9.61,9.13-9.65,9.16l-.37.36-.5-.09h0Z" style="fill: #fff;"/>
      </g>
      <g>
        <path d="m1614.92,1559.44c2.68-55.22,8.26-170.14,6.55-223.35-1.88-58.11,13.92-79.15,29.19-99.5,3.19-4.24,6.48-8.63,9.48-13.24,12.88-19.74,63.03-98.5,91.78-143.69l.21-.33.52-.14c.2-.05.41-.11.61-.17,10.75-2.94,21.33-6.17,31.49-9.58l2.68-.9-1.52,2.39c-31.48,49.5-86.32,135.64-99.89,156.45-3.04,4.66-6.35,9.07-9.56,13.34-15.07,20.07-30.66,40.83-28.8,98.24,1.71,53.06-3.85,167.68-6.52,222.77l-.36,7.43-.91.04c-7.75.38-15.74.75-24.41,1.12l-1.09.05.53-10.92h.02Z" style="fill: #fff;"/>
        <path d="m1535.54,1571.7c1.32-54.23,3.18-154.46.77-216.46-3.31-85.24-45.83-115.31-66.26-129.75l-1.08-.76c-14.88-10.54-151.65-99.65-231.86-151.84l.82-1.8c20.36,5.74,41.27,10.85,62.16,15.2l.8.17v.26c125.72,76.58,201.85,129.88,226.27,158.42,20.35,23.78,31.9,58.6,36.37,109.59,3.97,45.35,1.86,97.88-.38,153.5-.83,20.54-1.68,41.79-2.23,63.01l-.03.95-.95.02c-7.24.18-14.46.35-21.65.49l-2.76.05.03-1.04h-.02Z" style="fill: #fff;"/>
      </g>
      <path d="m1558.91,1571.17c.55-21.23,1.41-42.48,2.24-63.03,2.24-55.55,4.35-108.03.39-153.25-4.43-50.55-15.83-85.01-35.89-108.46-23.98-28.02-102.22-82.76-226.27-158.31l.7-1.84c12.94,2.38,59.16,10.46,110.85,14.34l.24.02.21.13c15.35,9.4,31.74,19.83,46.2,29.04,16.96,10.8,31.61,20.13,39.58,24.61,30.26,17.01,56.92,25.63,79.26,25.63h0c20.35,0,33.87-6.89,43.38-12.89,17.28-10.92,39.05-35.32,66.52-74.61l-2.38-1.66,2.51-.36c.47-.07.94-.14,1.41-.22,2.99-.46,6.04-.95,9.09-1.45,24.79-4.03,45.24-7.96,56.11-10.77l.96-.25.76,2.81-.92.29c-.15.04-.3.09-.45.13-28.79,45.25-78.75,123.7-91.59,143.38-3.04,4.66-6.35,9.08-9.56,13.35-15.07,20.07-30.65,40.83-28.79,98.24,1.71,53.29-3.87,168.26-6.55,223.51l-.52,10.74-.91.04c-18.02.76-36.71,1.39-55.55,1.88l-1.05.03.03-1.05v-.02Z" style="fill: #fff;"/>
      <path d="m1576.41,1182.05c-22.68,0-49.68-8.71-80.24-25.88-8.02-4.51-22.69-13.85-39.67-24.66-14.45-9.21-30.84-19.64-46.17-29.03l.6-1.85c18.72,1.4,36.26,2.12,52.15,2.12,3.58,0,7.13-.04,10.56-.11h.31l57.7,38c.14.08,19.52,11.05,42.92,11.05h0c14.39,0,27.3-4.09,38.39-12.15,15.33-12.5,28.62-30.62,37.06-43.61l.26-.4.48-.05c7.64-.79,20.65-2.59,35.68-4.93l.4-.06,2.27,1.58-.57.82c-27.9,39.99-50.03,64.84-67.67,75.97-8.98,5.67-23.35,13.2-44.46,13.2h0Z" style="fill: #fff;"/>
      <g>
        <path d="m1514.39,1566.86c.16-19.78.67-40.08,1.17-59.7,2.61-104.04,5.08-202.32-39.86-245.59-53.75-51.77-338.94-220.16-341.81-221.86l-.75-.44,1.78-4.2.92.39c28.28,11.87,57.66,22.42,87.33,31.34,4.44,1.34,9.28,2.74,14.77,4.29l.15.04.13.08c80.22,52.19,217.02,141.32,231.92,151.88l1.08.76c20.7,14.63,63.76,45.08,67.11,131.31,2.41,62.06.55,162.34-.77,216.59l-.02.96-.96.02c-7.06.14-14.09.27-21.09.36h-1l-.08-6.22h-.02Z" style="fill: #fff;"/>
        <path d="m1639.16,1561.63c2.67-55.06,8.22-169.63,6.51-222.61-1.88-58.11,13.92-79.16,29.2-99.51,3.18-4.24,6.48-8.63,9.48-13.23,13.56-20.8,68.39-106.94,99.87-156.43l.19-.3.34-.11c9.02-3.03,17.86-6.25,26.29-9.56l.93-.37,2.53,6.44-.27.43c-.94,1.48-94.05,148.01-111.01,174.01-2.68,4.12-5.61,8.01-8.44,11.78-13.29,17.7-27.03,36.01-25.4,86.64,1.51,46.94-3.4,148.28-5.76,196.98-.77,15.88-1.28,26.37-1.24,28.03l.23,4.16-1,.06c-7.24.41-14.48.79-21.74,1.16l-1.1.06.37-7.63h.02Z" style="fill: #fff;"/>
      </g>
    </g>
    <g>
      <path d="m1439.37,1233.7s24.01,170.45,16.8,266.48" style="fill: none; stroke: #222; stroke-linecap: round; stroke-linejoin: round; stroke-width: 8px;"/>
      <path d="m1367.35,1183.29s33.61,196.86,24.01,319.29" style="fill: none; stroke: #222; stroke-linecap: round; stroke-linejoin: round; stroke-width: 8px;"/>
      <path d="m1302.53,1144.88s28.81,170.45,24.01,360.11" style="fill: none; stroke: #222; stroke-linecap: round; stroke-linejoin: round; stroke-width: 8px;"/>
      <path d="m1234.07,1098.54s33.88,159.25,32.75,408.85" style="fill: none; stroke: #222; stroke-linecap: round; stroke-linejoin: round; stroke-width: 8px;"/>
      <path d="m1044.33,994.63c9.6,4.8,80.55,54.22,90.15,219.87s14.4,292.89,14.4,292.89" style="fill: none; stroke: #222; stroke-linecap: round; stroke-linejoin: round; stroke-width: 8px;"/>
      <path d="m1159.53,1055.62s23.72,60.99,30.17,134.87c4.2,48.07,12,225.67,14.4,312.09" style="fill: none; stroke: #222; stroke-linecap: round; stroke-linejoin: round; stroke-width: 8px;"/>
      <path d="m978.44,1017.64s96.03,93.63,96.03,211.26,13.91,281.31,13.91,281.31" style="fill: none; stroke: #222; stroke-linecap: round; stroke-linejoin: round; stroke-width: 8px;"/>
      <path d="m993.5,1036.42s-231.13,127.66-336.76,252.5" style="fill: none; stroke: #222; stroke-linecap: round; stroke-linejoin: round; stroke-width: 8px;"/>
      <path d="m1019.25,1082.46s-228.07,122.44-324.09,244.87" style="fill: none; stroke: #222; stroke-linecap: round; stroke-linejoin: round; stroke-width: 8px;"/>
      <path d="m1048.06,1132.88s-204.06,108.03-307.29,232.87" style="fill: none; stroke: #222; stroke-linecap: round; stroke-linejoin: round; stroke-width: 8px;"/>
      <path d="m1070.3,1191.15s-195.1,104.97-276.72,213" style="fill: none; stroke: #222; stroke-linecap: round; stroke-linejoin: round; stroke-width: 8px;"/>
      <path d="m1069.66,1317.73s-153.64,117.63-168.05,134.44" style="fill: none; stroke: #222; stroke-linecap: round; stroke-linejoin: round; stroke-width: 8px;"/>
      <path d="m1072.06,1260.11s-184.85,117.63-228.07,172.85" style="fill: none; stroke: #222; stroke-linecap: round; stroke-linejoin: round; stroke-width: 8px;"/>
      <path d="m1722.65,1207.3s2.71,218.77-2.4,285.68" style="fill: none; stroke: #222; stroke-linecap: round; stroke-linejoin: round; stroke-width: 8px;"/>
      <path d="m1775.47,1123.88s16.8,246.67,0,366.7" style="fill: none; stroke: #222; stroke-linecap: round; stroke-linejoin: round; stroke-width: 8px;"/>
      <path d="m1821.08,1065.66s33.61,180.05,7.2,429.73" style="fill: none; stroke: #222; stroke-linecap: round; stroke-linejoin: round; stroke-width: 8px;"/>
      <path d="m1869.1,1044.05s43.21,235.27,9.6,451.33" style="fill: none; stroke: #222; stroke-linecap: round; stroke-linejoin: round; stroke-width: 8px;"/>
      <path d="m1902.71,1022.44s74.42,141.64,16.8,480.14" style="fill: none; stroke: #222; stroke-linecap: round; stroke-linejoin: round; stroke-width: 8px;"/>
      <line x1="1919.51" y1="1060.85" x2="2145.18" y2="1178.49" style="fill: none; stroke: #222; stroke-linecap: round; stroke-linejoin: round; stroke-width: 8px;"/>
      <line x1="1933.92" y1="1135.28" x2="2128.37" y2="1226.5" style="fill: none; stroke: #222; stroke-linecap: round; stroke-linejoin: round; stroke-width: 8px;"/>
      <line x1="1943.52" y1="1209.7" x2="2116.37" y2="1281.72" style="fill: none; stroke: #222; stroke-linecap: round; stroke-linejoin: round; stroke-width: 8px;"/>
      <path d="m1945.92,1274.52c7.2,2.4,148.84,60.02,148.84,60.02" style="fill: none; stroke: #222; stroke-linecap: round; stroke-linejoin: round; stroke-width: 8px;"/>
      <line x1="1945.92" y1="1332.13" x2="2077.96" y2="1387.35" style="fill: none; stroke: #222; stroke-linecap: round; stroke-linejoin: round; stroke-width: 8px;"/>
      <line x1="1941.12" y1="1389.75" x2="2058.75" y2="1440.17" style="fill: none; stroke: #222; stroke-linecap: round; stroke-linejoin: round; stroke-width: 8px;"/>
      <path d="m1134.39,1037.72s287.54,169.55,342,222c54,52,40,184,39,306" style="fill: none; stroke: #222; stroke-linecap: round; stroke-linejoin: round; stroke-width: 8px;"/>
      <path d="m1813.39,1064.72c-59.25,93.25-96.25,151.25-111,174-15,23-35.76,66.5-36.89,145.56-.89,62.03-4.29,171.45-4.11,178.44" style="fill: none; stroke: #222; stroke-linecap: round; stroke-linejoin: round; stroke-width: 8px;"/>
      <path d="m1321.03,1089.5s204.87,111.04,231.53,189.74c23.72,70.02,13.55,219.11,13.55,219.11" style="fill: none; stroke: #222; stroke-linecap: round; stroke-linejoin: round; stroke-width: 8px;"/>
      <path d="m1746.82,1084.99s-124.24,158.12-126.49,207.81c-3.44,75.73-5.65,196.52-5.65,196.52" style="fill: none; stroke: #222; stroke-linecap: round; stroke-linejoin: round; stroke-width: 8px;"/>
    </g>
    <g>
      <line x1="1661.57" y1="1567.04" x2="1661.39" y2="1563.85" style="fill: none; stroke: #000; stroke-linecap: round; stroke-linejoin: round; stroke-width: 13px;"/>
      <line x1="1515.39" y1="1566.85" x2="1515.46" y2="1572.08" style="fill: none; stroke: #000; stroke-linecap: round; stroke-linejoin: round; stroke-width: 13px;"/>
      <line x1="1135.44" y1="1036.37" x2="1134.39" y2="1038.85" style="fill: none; stroke: #000; stroke-linecap: round; stroke-linejoin: round; stroke-width: 13px;"/>
      <path d="m1996.5,1466.63c1.03.46,1.99.87,2.89,1.21,2.95,1.15,6.14,2.26,9.41,3.33" style="fill: none; stroke: #000; stroke-linecap: round; stroke-linejoin: round; stroke-width: 13px;"/>
      <path d="m2008.8,1471.18c5.1,1.67,10.41,3.22,15.32,4.57" style="fill: none; stroke: #000; stroke-linecap: round; stroke-linejoin: round; stroke-width: 13px;"/>
      <path d="m1966.56,1450.14c-16.63-10.04-32.17-20.29-32.17-20.29,0,23-18.16,108.03-18.16,108.03-77.93,14.95-165.98,24.07-254.66,29.16" style="fill: none; stroke: #000; stroke-linecap: round; stroke-linejoin: round; stroke-width: 13px;"/>
      <path d="m1966.56,1450.14c6.92,4.18,14.04,8.33,20.3,11.68" style="fill: none; stroke: #000; stroke-linecap: round; stroke-linejoin: round; stroke-width: 13px;"/>
      <path d="m1986.85,1461.82c3.56,1.91,6.84,3.56,9.65,4.81" style="fill: none; stroke: #000; stroke-linecap: round; stroke-linejoin: round; stroke-width: 13px;"/>
      <path d="m2135.31,1137.46c-.62.06-1.26.19-1.92.39-1.59.5-5.44-.52-11.08-2.75" style="fill: none; stroke: #000; stroke-linecap: round; stroke-linejoin: round; stroke-width: 13px;"/>
      <path d="m2122.31,1135.1c-4.49-1.77-10.12-4.31-16.67-7.46" style="fill: none; stroke: #000; stroke-linecap: round; stroke-linejoin: round; stroke-width: 13px;"/>
      <path d="m2024.11,1475.75c2.6.72,5.09,1.37,7.38,1.96" style="fill: none; stroke: #000; stroke-linecap: round; stroke-linejoin: round; stroke-width: 13px;"/>
      <path d="m2031.49,1477.72c7.53,1.94,12.9,3.13,12.9,3.13,0,0,62-133,109.48-308.97,0,0-2.25-19.5-9.22-29.16" style="fill: none; stroke: #000; stroke-linecap: round; stroke-linejoin: round; stroke-width: 13px;"/>
      <path d="m2144.65,1142.72c-2.48-3.44-5.55-5.64-9.34-5.26" style="fill: none; stroke: #000; stroke-linecap: round; stroke-linejoin: round; stroke-width: 13px;"/>
      <path d="m2100.35,1125.06c-6.34-3.13-13.39-6.74-20.97-10.7" style="fill: none; stroke: #000; stroke-linecap: round; stroke-linejoin: round; stroke-width: 13px;"/>
      <path d="m1811.41,1060.81c31.76-12.45,60.43-27.17,86.3-43.55,47.72,23.27,128.06,69.09,181.67,97.1" style="fill: none; stroke: #000; stroke-linecap: round; stroke-linejoin: round; stroke-width: 13px;"/>
      <path d="m2105.64,1127.64c-1.7-.82-3.47-1.68-5.29-2.58" style="fill: none; stroke: #000; stroke-linecap: round; stroke-linejoin: round; stroke-width: 13px;"/>
      <path d="m1515.46,1572.08c7.56-.1,15.17-.24,22.8-.39" style="fill: none; stroke: #000; stroke-linecap: round; stroke-linejoin: round; stroke-width: 13px;"/>
      <path d="m1559.91,1571.2c-7.24.19-14.46.35-21.65.49" style="fill: none; stroke: #000; stroke-linecap: round; stroke-linejoin: round; stroke-width: 13px;"/>
      <path d="m1639.84,1568.2c7.24-.36,14.49-.74,21.73-1.16" style="fill: none; stroke: #000; stroke-linecap: round; stroke-linejoin: round; stroke-width: 13px;"/>
      <path d="m1615.44,1569.32c8.13-.34,16.26-.71,24.4-1.12" style="fill: none; stroke: #000; stroke-linecap: round; stroke-linejoin: round; stroke-width: 13px;"/>
      <path d="m1559.91,1571.2c18.41-.47,36.95-1.1,55.53-1.88" style="fill: none; stroke: #000; stroke-linecap: round; stroke-linejoin: round; stroke-width: 13px;"/>
      <path d="m1222.87,1067.75c24.58,7.39,50.26,13.94,77.02,19.52" style="fill: none; stroke: #000; stroke-linecap: round; stroke-linejoin: round; stroke-width: 13px;"/>
      <path d="m1752.77,1080.2c11.09-3.02,21.85-6.3,32.31-9.81" style="fill: none; stroke: #000; stroke-linecap: round; stroke-linejoin: round; stroke-width: 13px;"/>
      <path d="m1785.07,1070.39c9-3.02,17.79-6.22,26.34-9.58" style="fill: none; stroke: #000; stroke-linecap: round; stroke-linejoin: round; stroke-width: 13px;"/>
      <path d="m1135.44,1036.37c27.48,11.54,56.61,22.11,87.43,31.38" style="fill: none; stroke: #000; stroke-linecap: round; stroke-linejoin: round; stroke-width: 13px;"/>
      <path d="m990.44,1428.82c-4.55,3.97-9.02,7.94-13.29,11.77" style="fill: none; stroke: #000; stroke-linecap: round; stroke-linejoin: round; stroke-width: 13px;"/>
      <path d="m1515.46,1572.08c-218.77,2.96-408.1-13.57-414.66-20.65-10.59-11.42-47.41-167.58-47.41-167.58-11.32,1.97-38.38,23.56-62.95,44.97" style="fill: none; stroke: #000; stroke-linecap: round; stroke-linejoin: round; stroke-width: 13px;"/>
      <path d="m661.7,1235.16c4.47-4.4,8.91-8.72,13.32-12.97" style="fill: none; stroke: #000; stroke-linecap: round; stroke-linejoin: round; stroke-width: 13px;"/>
      <path d="m649.27,1247.53c4.17-4.19,8.31-8.3,12.44-12.36" style="fill: none; stroke: #000; stroke-linecap: round; stroke-linejoin: round; stroke-width: 13px;"/>
      <path d="m963.46,1453.05c3.98-3.67,8.36-7.67,13-11.84" style="fill: none; stroke: #000; stroke-linecap: round; stroke-linejoin: round; stroke-width: 13px;"/>
      <path d="m976.46,1441.22c.23-.21.46-.41.69-.62" style="fill: none; stroke: #000; stroke-linecap: round; stroke-linejoin: round; stroke-width: 13px;"/>
      <path d="m963.46,1453.05c-2.85,2.63-5.51,5.09-7.89,7.32" style="fill: none; stroke: #000; stroke-linecap: round; stroke-linejoin: round; stroke-width: 13px;"/>
      <path d="m644.25,1252.59c1.68-1.7,3.35-3.38,5.02-5.06" style="fill: none; stroke: #000; stroke-linecap: round; stroke-linejoin: round; stroke-width: 13px;"/>
      <path d="m952.05,1463.68c1.1-1.03,2.27-2.13,3.52-3.3" style="fill: none; stroke: #000; stroke-linecap: round; stroke-linejoin: round; stroke-width: 13px;"/>
      <path d="m644.25,1252.59c-5.25,5.32-10.54,10.73-15.86,16.26,0,0,133,171,314,204,0,0,3.66-3.53,9.66-9.17" style="fill: none; stroke: #000; stroke-linecap: round; stroke-linejoin: round; stroke-width: 13px;"/>
      <path d="m680.17,1217.28c6.06-5.78,12.07-11.43,18.03-16.94" style="fill: none; stroke: #000; stroke-linecap: round; stroke-linejoin: round; stroke-width: 13px;"/>
      <path d="m698.19,1200.35c159.15-147.1,281.39-198.05,335.57-214.81,31.02,18.18,64.87,35.38,101.68,50.83" style="fill: none; stroke: #000; stroke-linecap: round; stroke-linejoin: round; stroke-width: 13px;"/>
      <path d="m675.03,1222.19c1.72-1.65,3.43-3.28,5.14-4.91" style="fill: none; stroke: #000; stroke-linecap: round; stroke-linejoin: round; stroke-width: 13px;"/>
      <path d="m1299.89,1087.27c12.26,2.26,58.86,10.44,110.96,14.35" style="fill: none; stroke: #000; stroke-linecap: round; stroke-linejoin: round; stroke-width: 13px;"/>
      <path d="m1299.89,1087.27c-2.05-.38-3.14-.59-3.14-.59" style="fill: none; stroke: #000; stroke-linecap: round; stroke-linejoin: round; stroke-width: 13px;"/>
      <path d="m1410.85,1101.62c20.67,1.55,42.21,2.43,62.81,2.01" style="fill: none; stroke: #000; stroke-linecap: round; stroke-linejoin: round; stroke-width: 13px;"/>
      <path d="m1650.86,1096.46c9.56-1,27.5-3.56,46.25-6.61" style="fill: none; stroke: #000; stroke-linecap: round; stroke-linejoin: round; stroke-width: 13px;"/>
      <path d="m1697.11,1089.85c21.47-3.49,43.99-7.63,56.2-10.8" style="fill: none; stroke: #000; stroke-linecap: round; stroke-linejoin: round; stroke-width: 13px;"/>
      <path d="m1473.66,1103.63l57.44,37.83s45.18,25.98,82.45-1.13c14.89-12.14,27.9-29.39,37.31-43.87" style="fill: none; stroke: #000; stroke-linecap: round; stroke-linejoin: round; stroke-width: 13px;"/>
      <path d="m1299.89,1087.27h0" style="fill: none; stroke: #000; stroke-linecap: round; stroke-linejoin: round; stroke-width: 13px;"/>
    </g>
    <g>
      <g>
        <path d="m1874.89,1844.22c-.22-1.86-.47-4.07-.71-6.59-.52-5.18-1.05-11.65-1.52-18.93-.85-13.4-1.46-29.54-1.18-45.43.11-6.1.35-12.17.75-18.04.72-10.35,1.96-20.06,3.91-28.18l-.7-1.58c-118.58,52.51-279.68,25.18-329.64,14.73v2.1s-.49,7.54-1.2,19.24c-.35,5.79-.76,12.61-1.19,20.05-.81,13.85-1.71,29.84-2.5,45.32-.35,6.81-.68,13.51-.98,19.9-1.01,22.03-1.58,40.25-1.04,45.41,2,19,294,61,334-10,8.57-15.22,4.44-17.75,2-38h0Z" style="fill: #222;"/>
        <path d="m1122.95,1734.62c-4.91-1.81-7.56-2.9-7.56-2.9l1.6,24.43,1.67,25.42,3,45.81,1.62,24.79,3.61,55.05s136.97,78.52,307.4,19.41c17.45-6.06,28.78-23.11,27.3-41.53-.67-8.42-.76-18.67-.24-30.52.3-6.85.8-14.24,1.5-22.12,1.23-13.77,3.07-29.03,5.56-45.59,1.1-7.3,2.32-14.86,3.66-22.64,1.32-7.62,2.76-15.47,4.32-23.51l-3.72-3.09c-134,69.74-311.28,11.15-349.72-3.01h0Z" style="fill: #222;"/>
      </g>
      <path d="m1903.25,1649.27c4.52,5.82,33.68,46.14-9.86,67.45-5.86,3.14-11.84,6.05-17.95,8.75-118.58,52.51-279.68,25.18-329.64,14.73-9.88-2.07-15.41-3.48-15.41-3.48,0,0,0-67-16.79-68.96-16.8-1.96-33.89,66.07-33.89,66.07-2.33,1.31-4.68,2.58-7.04,3.8-134,69.74-311.28,11.15-349.72-3.01-4.49-41.27,18.23-73.61,18.23-73.61-6.71-16.78-13.42-108.68-16.2-150.91,70.63-.43,238.64-2.41,461.41-11.38,298-12,337.18,11.49,337.18,11.49l-20.32,139.06h0Z" style="fill: #fff;"/>
      <g>
        <path d="m1728.99,1922.96c-41.09,0-88-3.92-128.7-10.75-14.4-2.42-61.46-11-62.4-19.88-.49-4.64-.14-19.97,1.04-45.56l.05-1.15,1.13.21c31.37,5.94,84.12,13.02,157.3,13.02,9.62,0,19.47-.12,29.28-.37,74.48-1.87,121.14-12.89,147.16-21.8l1.2-.41.12,1.26c.25,2.65.51,4.9.71,6.57.59,4.94,1.28,8.74,1.88,12.1,1.81,10.1,2.64,14.71-4,26.51-10.34,18.36-43.86,40.25-144.77,40.25h0Z" style="fill: #222;"/>
        <path d="m1304.09,1949.67c-103.97,0-176.98-41.16-177.7-41.58l-.47-.27-3.74-57.1,1.43.5c36.22,12.72,97.4,28.31,183.17,30.27,4.13.09,8.27.14,12.31.14,39.77,0,96.65-4.85,141.8-27.95l1.53-.78-.08,1.72c-.51,11.72-.43,21.95.24,30.4,1.51,18.81-9.99,36.31-27.97,42.55-42.27,14.66-86.18,22.09-130.52,22.09h0Z" style="fill: #222;"/>
      </g>
      <g>
        <path d="m1697.41,1860.85c-73.33,0-126.22-7.1-157.67-13.06l-.85-.16.04-.87c.3-6.39.63-13.09.98-19.9l.06-1.14,1.13.21c31.4,5.96,84.21,13.07,157.5,13.07h0c9.62,0,19.48-.12,29.31-.37,58.26-1.46,106.86-8.49,144.44-20.88l1.23-.41.08,1.29c.45,6.96.97,13.49,1.52,18.89l.08.79-.75.26c-26.16,8.95-73.02,20.02-147.76,21.9-9.83.25-19.7.37-29.33.37h-.01Z" style="fill: #222;"/>
        <path d="m1319.09,1883.64c-4.06,0-8.21-.05-12.35-.14-86.04-1.97-147.43-17.61-183.79-30.39l-.62-.22-1.76-26.98,1.44.53c36.75,13.49,99.2,30,188.07,32.04,4.1.09,8.22.14,12.23.14,39.1,0,95.15-4.69,140.1-27.06l1.6-.8-.16,1.78c-.69,7.81-1.2,15.24-1.5,22.08l-.03.58-.52.27c-45.5,23.29-102.72,28.17-142.71,28.17h0Z" style="fill: #222;"/>
      </g>
      <g>
        <path d="m1698.59,1841c-73.44,0-126.39-7.13-157.87-13.11l-.86-.16.04-.87c.68-13.34,1.52-28.6,2.5-45.33l.07-1.13,1.11.21c31.07,5.75,83.19,12.59,155.03,12.59,9.61,0,19.45-.12,29.25-.37,57.65-1.45,105.86-8.35,143.3-20.51l1.33-.43-.02,1.4c-.31,17.31.47,34.22,1.18,45.35l.05.77-.73.24c-37.77,12.45-86.56,19.51-145.02,20.98-9.84.25-19.72.37-29.36.37h0Z" style="fill: #222;"/>
        <path d="m1322.31,1860.62c-4.03,0-8.16-.05-12.28-.14-89.14-2.05-151.82-18.62-188.71-32.16l-.61-.22-3.14-48.02,1.46.56c30.5,11.74,96.16,31.75,193.24,33.97,4.12.09,8.25.14,12.29.14,40.4,0,98.07-4.99,143.4-28.77l1.75-.92-.29,1.95c-2.43,16.15-4.3,31.47-5.55,45.53l-.05.56-.5.25c-45.29,22.54-101.67,27.27-140.99,27.27h-.02Z" style="fill: #222;"/>
      </g>
      <g>
        <path d="m1698.62,1795.2c-71.99,0-124.24-6.87-155.39-12.63l-.87-.16.05-.88c.43-7.44.84-14.26,1.19-20.05l.07-1.14,1.12.21c31.51,6.06,84.62,13.29,158.69,13.29,9.62,0,19.47-.12,29.29-.37,55.47-1.4,102.29-7.86,139.17-19.21l1.39-.43-.1,1.45c-.38,5.61-.63,11.66-.75,17.99v.71l-.69.22c-37.62,12.22-86.02,19.15-143.86,20.61-9.82.25-19.68.37-29.3.37v.02Z" style="fill: #222;"/>
        <path d="m1324.55,1816.75c-4.05,0-8.2-.05-12.33-.14-97.39-2.23-163.3-22.32-193.92-34.11l-.6-.23-1.82-27.65,1.48.6c30.84,12.58,97.74,34.04,199.27,36.37,4.11.09,8.23.14,12.26.14,40.13,0,97.46-4.92,142.71-28.39l1.79-.93-.34,1.98c-1.31,7.63-2.55,15.24-3.66,22.62l-.08.5-.45.24c-45.69,23.97-103.7,29-144.32,29h0Z" style="fill: #222;"/>
      </g>
      <g>
        <path d="m1545.8,1740.2c49.96,10.45,211.06,37.78,329.64-14.73l.7,1.58c-1.95,8.12-3.19,17.83-3.91,28.18-28.96,8.91-73.54,17.59-139.44,19.25-90.19,2.26-153.53-6.27-188.19-12.94.71-11.7,1.19-19.24,1.19-19.24v-2.1h.01Z" style="fill: #222;"/>
        <path d="m1122.95,1734.62c38.44,14.16,215.72,72.75,349.72,3.01l3.72,3.09c-1.56,8.04-3,15.89-4.32,23.51-27.98,14.51-76.73,30.16-155.45,28.36-102.12-2.34-169.31-24.07-199.63-36.44l-1.6-24.43s2.65,1.09,7.56,2.9h0Z" style="fill: #222;"/>
      </g>
      <path d="m1122.6,1735.56c-4.3-1.59-6.91-2.63-7.48-2.87-6.28-.89-11.73-2.52-16.2-4.85l-.52-.27-.02-.59c-1.11-34.9,16.14-62.31,18.65-66.11-6.77-18.35-13.49-111.25-16.08-150.62l-.07-1.06h4.16c5.39-.03,12.04-.05,19.92-.1h.94l.06.93c2.61,39.69,9.42,133.81,16.13,150.6l.2.5-.31.44c-.23.32-22.45,32.53-18.05,72.93l.17,1.61-1.52-.56.02.02Z" style="fill: #fff;"/>
      <path d="m1098.93,1727.85c-7.38-3.83-12.25-9.61-14.5-17.18-5.8-19.55,7.47-44.98,10.63-50.62-7.59-64.59-7.69-148.99-7.69-149.83v-1h15.53l.06.93c2.61,39.65,9.4,133.68,16.13,150.5l.2.5-.31.44c-.2.28-19.75,28.59-18.59,65.34l.05,1.71-1.51-.79h0Z" style="fill: #fff;"/>
    </g>
    <g>
      <path d="m1265.69,1516.42s-2.26,182.96-3.39,195.39,0,50.82,0,50.82" style="fill: none; stroke: #222; stroke-linecap: round; stroke-linejoin: round; stroke-width: 8px;"/>
      <path d="m1148.23,1515.29s3.39,156.99,2.26,167.15-9.04,48.56-2.26,57.6" style="fill: none; stroke: #222; stroke-linecap: round; stroke-linejoin: round; stroke-width: 8px;"/>
      <path d="m1203.57,1515.29v239.43" style="fill: none; stroke: #222; stroke-linecap: round; stroke-linejoin: round; stroke-width: 8px;"/>
      <path d="m1326.68,1513.03s-2.26,196.52-2.26,214.59v42.92" style="fill: none; stroke: #222; stroke-linecap: round; stroke-linejoin: round; stroke-width: 8px;"/>
      <path d="m1388.8,1511.9s-2.26,185.22-1.13,196.52,1.13,54.21,1.13,54.21" style="fill: none; stroke: #222; stroke-linecap: round; stroke-linejoin: round; stroke-width: 8px;"/>
      <path d="m1455.43,1509.64s-6.78,159.25-4.52,173.93,2.26,53.08,1.13,56.47" style="fill: none; stroke: #222; stroke-linecap: round; stroke-linejoin: round; stroke-width: 8px;"/>
      <path d="m1516.42,1507.38s-5.65,141.18-5.65,145.69,2.83,14.68,2.83,14.68" style="fill: none; stroke: #222; stroke-linecap: round; stroke-linejoin: round; stroke-width: 8px;"/>
      <path d="m1566.11,1506.26s-9.04,159.25-13.55,228.14" style="fill: none; stroke: #222; stroke-linecap: round; stroke-linejoin: round; stroke-width: 8px;"/>
      <path d="m1876.7,1508.51s-14.68,133.27-12.42,147.95,24.48,65.45,11.11,72.25" style="fill: none; stroke: #222; stroke-linecap: round; stroke-linejoin: round; stroke-width: 8px;"/>
      <path d="m1827.01,1505.13s-9.04,151.34-7.91,163.76,1.13,72.28-2.26,79.06" style="fill: none; stroke: #222; stroke-linecap: round; stroke-linejoin: round; stroke-width: 8px;"/>
      <path d="m1772.8,1504s-7.91,199.91-6.78,212.33-3.39,35.01-3.39,35.01" style="fill: none; stroke: #222; stroke-linecap: round; stroke-linejoin: round; stroke-width: 8px;"/>
      <path d="m1719.71,1502.87s-4.52,178.45-4.52,192-4.52,56.47-4.52,56.47" style="fill: none; stroke: #222; stroke-linejoin: round; stroke-width: 8px;"/>
      <path d="m1663.24,1506.26s-7.91,189.74-9.04,204.42-3.39,39.53-7.91,40.66" style="fill: none; stroke: #222; stroke-linecap: round; stroke-linejoin: round; stroke-width: 8px;"/>
      <path d="m1616.94,1548.04s-9.04,120.85-13.55,136.66-6.78,58.73-6.78,58.73" style="fill: none; stroke: #222; stroke-linecap: round; stroke-linejoin: round; stroke-width: 8px;"/>
    </g>
    <g>
      <line x1="1545.8" y1="1740.2" x2="1545.79" y2="1742.3" style="fill: none; stroke: #000; stroke-linecap: round; stroke-linejoin: round; stroke-width: 13px;"/>
      <line x1="1875.44" y1="1725.47" x2="1876.14" y2="1727.05" style="fill: none; stroke: #000; stroke-linecap: round; stroke-linejoin: round; stroke-width: 13px;"/>
      <line x1="1472.67" y1="1737.63" x2="1476.39" y2="1740.72" style="fill: none; stroke: #000; stroke-linecap: round; stroke-linejoin: round; stroke-width: 13px;"/>
      <path d="m1472.67,1737.63c2.36-1.22,4.71-2.49,7.04-3.8,0,0,17.09-68.03,33.89-66.07,16.79,1.96,16.79,68.96,16.79,68.96,0,0,5.53,1.41,15.41,3.48" style="fill: none; stroke: #000; stroke-linecap: round; stroke-linejoin: round; stroke-width: 13px;"/>
      <path d="m1875.44,1725.47c6.11-2.7,12.09-5.61,17.95-8.75" style="fill: none; stroke: #000; stroke-linecap: round; stroke-linejoin: round; stroke-width: 13px;"/>
      <path d="m1096.09,1660.25c-7.71-65.32-7.72-150.04-7.72-150.04,0,0,4.65.01,13.59-.01" style="fill: none; stroke: #000; stroke-linecap: round; stroke-linejoin: round; stroke-width: 13px;"/>
      <path d="m1124.98,1510.1c-9.46.06-17.16.08-23.02.1" style="fill: none; stroke: #000; stroke-linecap: round; stroke-linejoin: round; stroke-width: 13px;"/>
      <path d="m1124.98,1510.1c70.63-.43,238.64-2.41,461.41-11.38,298-12,337.18,11.49,337.18,11.49l-20.32,139.06" style="fill: none; stroke: #000; stroke-linecap: round; stroke-linejoin: round; stroke-width: 13px;"/>
      <path d="m1545.8,1740.2c49.96,10.45,211.06,37.78,329.64-14.73" style="fill: none; stroke: #000; stroke-linecap: round; stroke-linejoin: round; stroke-width: 13px;"/>
      <path d="m1115.39,1731.72s2.65,1.09,7.56,2.9" style="fill: none; stroke: #000; stroke-linecap: round; stroke-linejoin: round; stroke-width: 13px;"/>
      <path d="m1472.67,1737.63c-134,69.74-311.28,11.15-349.72-3.01" style="fill: none; stroke: #000; stroke-linecap: round; stroke-linejoin: round; stroke-width: 13px;"/>
      <path d="m1096.09,1660.25c.19-.34.3-.53.3-.53" style="fill: none; stroke: #000; stroke-linecap: round; stroke-linejoin: round; stroke-width: 13px;"/>
      <path d="m1096.09,1660.25c-3.03,5.35-27.55,50.7,3.3,66.71" style="fill: none; stroke: #000; stroke-linecap: round; stroke-linejoin: round; stroke-width: 13px;"/>
      <path d="m1099.39,1726.96c4.23,2.2,9.49,3.85,16,4.76" style="fill: none; stroke: #000; stroke-linecap: round; stroke-linejoin: round; stroke-width: 13px;"/>
      <path d="m1462.85,1832.46c-.7,7.88-1.2,15.27-1.5,22.12" style="fill: none; stroke: #000; stroke-linecap: round; stroke-linejoin: round; stroke-width: 13px;"/>
      <path d="m1472.07,1764.23c-1.34,7.78-2.56,15.34-3.66,22.64" style="fill: none; stroke: #000; stroke-linecap: round; stroke-linejoin: round; stroke-width: 13px;"/>
      <line x1="1121.66" y1="1827.38" x2="1118.66" y2="1781.57" style="fill: none; stroke: #000; stroke-linecap: round; stroke-linejoin: round; stroke-width: 13px;"/>
      <line x1="1116.99" y1="1756.15" x2="1118.66" y2="1781.57" style="fill: none; stroke: #000; stroke-linecap: round; stroke-linejoin: round; stroke-width: 13px;"/>
      <path d="m1468.41,1786.87c-2.49,16.56-4.33,31.82-5.56,45.59" style="fill: none; stroke: #000; stroke-linecap: round; stroke-linejoin: round; stroke-width: 13px;"/>
      <line x1="1121.66" y1="1827.38" x2="1123.28" y2="1852.17" style="fill: none; stroke: #000; stroke-linecap: round; stroke-linejoin: round; stroke-width: 13px;"/>
      <path d="m1472.07,1764.23c1.32-7.62,2.76-15.47,4.32-23.51" style="fill: none; stroke: #000; stroke-linecap: round; stroke-linejoin: round; stroke-width: 13px;"/>
      <path d="m1461.35,1854.58c-.52,11.85-.43,22.1.24,30.52,1.48,18.42-9.85,35.47-27.3,41.53-170.43,59.11-307.4-19.41-307.4-19.41l-3.61-55.05" style="fill: none; stroke: #000; stroke-linecap: round; stroke-linejoin: round; stroke-width: 13px;"/>
      <line x1="1116.99" y1="1756.15" x2="1115.39" y2="1731.72" style="fill: none; stroke: #000; stroke-linecap: round; stroke-linejoin: round; stroke-width: 13px;"/>
      <path d="m1539.93,1846.81c.3-6.39.63-13.09.98-19.9" style="fill: none; stroke: #000; stroke-linecap: round; stroke-linejoin: round; stroke-width: 13px;"/>
      <path d="m1874.18,1837.63c-.52-5.18-1.05-11.65-1.52-18.93" style="fill: none; stroke: #000; stroke-linecap: round; stroke-linejoin: round; stroke-width: 13px;"/>
      <path d="m1876.14,1727.05c-1.95,8.12-3.19,17.83-3.91,28.18" style="fill: none; stroke: #000; stroke-linecap: round; stroke-linejoin: round; stroke-width: 13px;"/>
      <path d="m1871.48,1773.27c.11-6.1.35-12.17.75-18.04" style="fill: none; stroke: #000; stroke-linecap: round; stroke-linejoin: round; stroke-width: 13px;"/>
      <path d="m1540.91,1826.91c.79-15.48,1.69-31.47,2.5-45.32" style="fill: none; stroke: #000; stroke-linecap: round; stroke-linejoin: round; stroke-width: 13px;"/>
      <path d="m1543.41,1781.59c.43-7.44.84-14.26,1.19-20.05" style="fill: none; stroke: #000; stroke-linecap: round; stroke-linejoin: round; stroke-width: 13px;"/>
      <path d="m1544.6,1761.54c.71-11.7,1.19-19.24,1.19-19.24" style="fill: none; stroke: #000; stroke-linecap: round; stroke-linejoin: round; stroke-width: 13px;"/>
      <path d="m1871.48,1773.27c-.28,15.89.33,32.03,1.18,45.43" style="fill: none; stroke: #000; stroke-linecap: round; stroke-linejoin: round; stroke-width: 13px;"/>
      <path d="m1539.93,1846.81c-1.01,22.03-1.58,40.25-1.04,45.41,2,19,294,61,334-10,8.57-15.22,4.44-17.75,2-38-.22-1.86-.47-4.07-.71-6.59" style="fill: none; stroke: #000; stroke-linecap: round; stroke-linejoin: round; stroke-width: 13px;"/>
      <path d="m1903.25,1649.27c4.52,5.82,33.68,46.14-9.86,67.45" style="fill: none; stroke: #000; stroke-linecap: round; stroke-linejoin: round; stroke-width: 13px;"/>
      <path d="m1903.25,1649.27c-.36-.46-.57-.71-.57-.71" style="fill: none; stroke: #000; stroke-linecap: round; stroke-linejoin: round; stroke-width: 13px;"/>
    </g>
    <g>
      <g>
        <path d="m1820.07,1510.61l-3.46,38.53c36.69.34,68.79,1.07,93.97,2.28l6.78-35.01s-34.68-3.37-97.29-5.81h0Z" style="fill: #444;"/>
        <path d="m1319.52,1517.05c-96.8,2.8-171.29,5.01-171.29,5.01l4.52,38.4s69.77-2.21,168.53-4.7l-1.76-38.71Z" style="fill: #444;"/>
        <path d="m1581.93,1509.64c-52.37,1.42-111.09,3.07-167.99,4.7l2.04,39.19c102.83-2.27,219.78-4.29,319.6-4.59l2.07-40.44c-44.81-.6-97.07-.45-155.71,1.15h-.01Z" style="fill: #444;"/>
      </g>
      <path d="m1621.67,1564.57h-67.62c-15.93,0-28.73-12.53-28.43-27.84l.29-14.92c.29-15.31,13.57-27.84,29.51-27.84h67.62c15.93,0,28.73,12.53,28.43,27.84l-.29,14.92c-.29,15.31-13.57,27.84-29.51,27.84Z" style="fill: #888; stroke: #000; stroke-miterlimit: 10; stroke-width: 13px;"/>
    </g>
    <g style="opacity: .2;">
      <path d="m1035.29,1374.11s-85.85,2.55-160.38,83.58c0,0-178.2-96.3-221.36-162.64l-22.59,67.76s112.43,93.9,241.43,126.9l-33.62,94.46s26.9,13.84,34.12-26.96l47.2-85.98c7.8-.02,20.28,3.51,26.54-2.26,6.26-5.76,65.34-58.25,76.8-65.51s29.96-20.76,29.96-20.76c0,0-8.7-10.71-18.1-8.61v.02Z"/>
      <path d="m1129.39,1694.72s3-78-2-162-66.12-132.63-66.12-132.63c12.38,14.87,28.8,147.39,28.8,147.39l5.82,90.74s-8.5,45.5-10.9,70.2,45.74,27.11,45.74,27.11c-16.66-10.19-1.34-40.81-1.34-40.81Z"/>
      <path d="m1447.53,1750.21c-27.14,9.51-76.48,30.13-175.06,18.07-98.58-12.06-133.27-25.98-133.27-25.98,0,0-21.39-8.92-24.85,0,0,0,10.45,155.33,10.45,164.33s30.49,20.33,41.51,19.76c13.34-.68-12.91-129.68,111.09-134.68s169.86.65,181.43,44.32l14.68-85.83s1.16-9.51-25.98,0h0Z"/>
      <path d="m1561.03,1744.48c-1.96-.15-3.94-.36-5.9-.62-3.48,1.03-12.39-2.43-11.6,15.39l-1.24,142.62,45,9s3.1-122.15,118.1-135.15,165.67,11.76,165.67,11.76l4.33-58.76s-53.56,18.49-86.78,23.75c-31.87,5.04-183.07.11-227.58-7.99Z"/>
      <path d="m1584.19,1744.56s-5.8-64.84,10.2-73.84,41-37,19-33-170.43,6.4-166,7c33.5,4.5,38.54,65.96,38.54,65.96,18.04-59.54,33.96-41.46,41.79-31.62,7.82,9.83-3.44,48.01,8.18,58.17,4.15,3.63,11.5,5.6,19.24,6.63,1.96.26,3.94.47,5.9.62,11.97.94,23.16.09,23.16.09h-.01Z"/>
      <path d="m1938.39,1363.72l3.82,70.25s55.74,44.92,99.18,45.75c5.44-3.17,7-11,13.76-25.42,8.27-17.65,21.46-50.82,21.46-50.82l-138.22-39.76Z"/>
      <path d="m2152.28,1190.02l-96.56,276.14s63.38,18.68,87.53,14.12c-.85-6.56,9.04-290.26,9.04-290.26h-.01Z"/>
      <path d="m1595.48,1164.04c124.44-14.09,195.79-65.39,235.63-111.43-6.43,2.83-12.99,5.56-19.7,8.19-8.55,3.36-17.33,6.55-26.34,9.58-10.2,3.43-20.71,6.63-31.51,9.59l-.25-.92c-12.2,3.16-34.73,7.3-56.2,10.79-3.06.5-6.11.99-9.09,1.45-15.3,2.4-29.16,4.33-37.16,5.16-9.41,14.48-22.42,31.73-37.31,43.87-37.27,27.1-82.45,1.13-82.45,1.13l-57.44-37.83c-20.6.43-42.14-.46-62.81-2.01-52.1-3.91-98.69-12.09-110.96-14.35h0c-26.76-5.58-52.44-12.13-77.02-19.52-18.34-5.52-36.07-11.5-53.22-17.87,96.13,54.2,266.48,132.2,425.83,114.16h0Z"/>
      <path d="m2112.75,1403.48s56.47,40.66,239.43-15.81c0,0-40.66,99.39-239.43,92.61v-76.8h0Z"/>
    </g>
    <g>
      <g>
        <path d="m1870.4,1365.89l10.37,10.32-2.48,72.49-11.07,10.16-40.87-.3-10.24-10.19,2.46-72.71,10.97-10.06,40.87.3h-.01Zm-13.18,19.69l-15.72-.12-1.83,53.4,15.72.12,1.83-53.4Z" style="fill: rgba(34, 34, 34, 0);"/>
        <path d="m1845.47,1438.9l5.8.04-.68,19.78-34.87-.26.68-19.78,5.79.04,1.83-53.4-5.79-.04.68-19.78,29.06.22-2.49,73.18h-.01Z" style="fill: rgba(34, 34, 34, 0);"/>
        <path d="m1817.89,1395.28l.67-19.54,11.07-10.16,40.87.3,10.27,10.22-1.24,36.11-10.97,10.04-24.71-.18-3.75,2.76-.48,14.03,15.76.12.34-10,23.23.17-1.02,29.77-62.22-.46,1.58-46.25,10.97-10.04,24.71.18,3.75-2.75.39-11.26-3.51-2.8-8.58-.06-3.67,2.75-.25,7.22-23.23-.17h.02Z" style="fill: rgba(34, 34, 34, 0);"/>
        <path d="m1879.7,1407.39l-5.48,5.02,5.14,5.1-1.07,31.28-10.97,10.06-40.87-.3-10.37-10.32.67-19.54,23.23.17-.25,7.22,3.48,2.8,8.58.06,3.7-2.75.38-11.26-3.56-2.81-12.1-.09.68-19.78,12.1.09,3.75-2.75.39-11.26-3.51-2.8-8.58-.06-3.67,2.75-.25,7.22-23.23-.17.67-19.54,11.07-10.16,40.87.3,10.27,10.22-1.07,31.28v.02Z" style="fill: rgba(34, 34, 34, 0);"/>
        <path d="m1878.85,1432.22l-5.8-.04-.24,6.92,5.8.04-.68,19.78-34.87-.26.68-19.78,5.8.04.24-6.92-33.14-.25.68-19.78,19.73-46.35,38.28.28-1.59,46.48,5.8.04-.68,19.78v.02Zm-28.4-19.99l.71-20.85-8.65,20.79,7.93.06h.01Z" style="fill: rgba(34, 34, 34, 0);"/>
        <path d="m1839.97,1428.86l-.25,7.22,3.48,2.8,8.58.06,3.7-2.75.38-11.26-3.56-2.81-35.33-.26,1.93-56.37,62.22.46-1.02,29.78-23.23-.17.34-10-15.76-.12-.58,16.81,28.37.21,10.27,10.2-1.24,36.11-10.97,10.06-40.87-.3-10.37-10.32.67-19.54,23.23.17v.02Z" style="fill: rgba(34, 34, 34, 0);"/>
        <path d="m1880.1,1395.74l-23.23-.17.25-7.22-3.48-2.8-8.58-.06-3.7,2.75-.48,14.03,28.27.21,10.37,10.32-1.23,35.9-11.07,10.16-40.87-.3-10.27-10.22,2.49-72.68,10.97-10.06,40.87.3,10.37,10.32-.67,19.54v-.02Zm-39.9,26.3l-.48,14.04,3.51,2.8,8.58.06,3.67-2.75.39-11.27-3.48-2.8-12.18-.09h-.01Z" style="fill: rgba(34, 34, 34, 0);"/>
        <path d="m1880.45,1385.74l-23.36,53.24,7.22.05-.68,19.78-40.67-.3.68-19.78,10.17.08,23.37-53.24-15.73-.12-.34,10-23.23-.17,1.02-29.78,62.22.46-.68,19.78h.01Z" style="fill: rgba(34, 34, 34, 0);"/>
        <path d="m1880.77,1376.11l-1.07,31.28-5.48,5.02,5.14,5.1-1.07,31.18-10.97,10.16-40.87-.3-10.37-10.32,1.07-31.18,5.48-5.02-5.14-5.1,1.07-31.28,11.07-10.06,40.87.3,10.27,10.22Zm-24.04,23.5l.39-11.26-3.51-2.8-8.54-.06-3.7,2.75-.38,11.26,3.56,2.81,8.44.06,3.75-2.75h-.01Zm-1.25,36.6l.39-11.26-3.56-2.81-8.44-.06-3.75,2.76-.39,11.26,3.51,2.8,8.54.06,3.7-2.75h0Z" style="fill: rgba(34, 34, 34, 0);"/>
        <path d="m1839.97,1428.86l-.25,7.22,3.48,2.8,8.58.06,3.7-2.75.48-14.03-28.27-.21-10.37-10.32,1.23-35.9,11.07-10.16,40.87.3,10.28,10.22-2.49,72.68-10.97,10.06-40.87-.3-10.37-10.32.67-19.54,23.23.17v.02Zm16.67-26.47l.48-14.04-3.51-2.8-8.58-.06-3.67,2.75-.39,11.27,3.48,2.8,12.19.09h0Z" style="fill: rgba(34, 34, 34, 0);"/>
      </g>
      <g>
        <path d="m1766.68,1428.32l-.25,7.22,3.48,2.8,8.58.06,3.7-2.75.48-14.03-28.27-.21-10.37-10.32,1.23-35.9,11.07-10.16,40.87.3,10.28,10.22-2.49,72.68-10.97,10.06-40.87-.3-10.37-10.32.67-19.54,23.23.17v.02Zm16.67-26.47l.48-14.04-3.51-2.8-8.58-.06-3.67,2.75-.39,11.27,3.48,2.8,12.18.09h.01Z" style="fill: rgba(34, 34, 34, 0);"/>
        <path d="m1807.48,1375.56l-1.07,31.28-5.48,5.02,5.14,5.1-1.07,31.18-10.97,10.16-40.87-.3-10.37-10.32,1.07-31.18,5.48-5.02-5.14-5.1,1.07-31.28,11.07-10.06,40.87.3,10.27,10.22Zm-24.04,23.5l.39-11.26-3.51-2.8-8.54-.06-3.7,2.75-.39,11.26,3.56,2.81,8.44.06,3.75-2.75h0Zm-1.25,36.6l.38-11.26-3.56-2.81-8.44-.06-3.75,2.76-.38,11.26,3.51,2.8,8.54.06,3.7-2.75h0Z" style="fill: rgba(34, 34, 34, 0);"/>
        <path d="m1807.16,1385.2l-23.36,53.24,7.22.05-.68,19.78-40.67-.3.68-19.78,10.17.08,23.37-53.24-15.73-.12-.34,10-23.23-.17,1.02-29.78,62.22.46-.68,19.78h.01Z" style="fill: rgba(34, 34, 34, 0);"/>
        <path d="m1806.81,1395.2l-23.23-.17.25-7.22-3.48-2.8-8.58-.06-3.7,2.75-.48,14.03,28.27.21,10.37,10.32-1.23,35.9-11.07,10.16-40.87-.3-10.27-10.22,2.49-72.68,10.97-10.06,40.87.3,10.37,10.32-.67,19.54v-.02Zm-39.9,26.3l-.48,14.04,3.51,2.8,8.58.06,3.67-2.75.39-11.27-3.48-2.8-12.18-.09h-.01Z" style="fill: rgba(34, 34, 34, 0);"/>
        <path d="m1766.68,1428.32l-.25,7.22,3.48,2.8,8.58.06,3.7-2.75.38-11.26-3.56-2.81-35.33-.26,1.93-56.37,62.22.46-1.02,29.78-23.23-.17.34-10-15.76-.12-.58,16.81,28.37.21,10.27,10.2-1.24,36.11-10.97,10.06-40.87-.3-10.37-10.32.67-19.54,23.23.17v.02Z" style="fill: rgba(34, 34, 34, 0);"/>
        <path d="m1805.56,1431.68l-5.8-.04-.24,6.92,5.8.04-.68,19.78-34.87-.26.68-19.78,5.8.04.24-6.92-33.14-.25.68-19.78,19.73-46.34,38.28.28-1.59,46.48,5.8.04-.68,19.78h-.01Zm-28.4-19.99l.71-20.85-8.65,20.79,7.93.06h.01Z" style="fill: rgba(34, 34, 34, 0);"/>
        <path d="m1806.41,1406.84l-5.48,5.02,5.14,5.1-1.07,31.28-10.97,10.06-40.87-.3-10.37-10.32.67-19.54,23.23.17-.25,7.22,3.48,2.8,8.58.06,3.7-2.75.38-11.26-3.56-2.81-12.1-.09.68-19.78,12.1.09,3.75-2.75.39-11.26-3.51-2.8-8.58-.06-3.67,2.75-.25,7.22-23.23-.17.67-19.54,11.07-10.16,40.87.3,10.27,10.22-1.07,31.28v.02Z" style="fill: rgba(34, 34, 34, 0);"/>
        <path d="m1744.6,1394.73l.67-19.54,11.07-10.16,40.87.3,10.27,10.22-1.24,36.11-10.97,10.04-24.71-.18-3.75,2.76-.48,14.03,15.76.12.34-10,23.23.17-1.02,29.77-62.22-.46,1.58-46.25,10.97-10.04,24.71.18,3.75-2.75.39-11.26-3.51-2.8-8.58-.06-3.67,2.75-.25,7.22-23.23-.17h.02Z" style="fill: rgba(34, 34, 34, 0);"/>
        <path d="m1799.44,1438.56l5.8.04-.68,19.78-34.87-.26.68-19.78,5.8.04,1.83-53.4-5.8-.04.68-19.78,29.06.22-2.49,73.18h-.01Z" style="fill: rgba(34, 34, 34, 0);"/>
        <path d="m1797.11,1365.34l10.37,10.32-2.48,72.49-11.07,10.16-40.87-.3-10.25-10.19,2.46-72.71,10.97-10.06,40.87.3h0Zm-13.18,19.69l-15.72-.12-1.83,53.4,15.72.12,1.83-53.4Z" style="fill: rgba(34, 34, 34, 0);"/>
      </g>
    </g>
    <g id="clothing-shoes">
      <g>
        <g>
          <g>
            <g>
              <path d="m2164.12,2071.45c8.55,20.21,5.54,42.46.37,59.73-6.11,11.87-37.59,56.36-170.52,68.34-153.84,13.88-206.85-20.56-292.09-45.24-.68-.2-1.37-.4-2.06-.59-82.52-23.74-187.59-43.64-193.55-44.76-2.13-6.68-3.92-13.46-5.41-20.19l3.03-.52s196,48,269,39,73-40,132-33,97,46,200,26c55.14-10.71,58.96-44.31,59.23-48.77Z" style="fill: #fff;"/>
              <path d="m2164.12,2071.45c-.27,4.46-4.09,38.06-59.23,48.77-103,20-141-19-200-26s-59,24-132,33-269-39-269-39l-3.03.52c-3.91-17.77-5.65-35.24-5.53-49.97.27-33.51,20.28-111.08,20.28-111.08-27.53-49.57,14.87-64.03,14.87-64.03,38.46,48.19,128.88,24.73,128.88,24.73,26.59-77.73,95.84-25.84,95.84-25.84,0,0,129.59,124.71,156.69,139.67,0,0,34,34,102,29s36.42-38.67,36.42-38.67l.36-.8c35.76,16.26,72.76,41.5,72.76,41.5,22.1,9.84,34.46,23.48,40.69,38.2h0Z" style="fill: #fff;"/>
              <path d="m2164.49,2131.18c-5.23,17.45-12.7,29.81-12.7,29.81,0,0-17.2,57.39-164.98,71.1-147.78,13.72-198.75-20.75-280.66-45.53-75.25-22.76-171.09-42.18-186.18-45.18-5.58-10.12-10.12-21.14-13.7-32.45,5.96,1.12,111.03,21.02,193.55,44.76.69.19,1.38.39,2.06.59,85.24,24.68,138.25,59.12,292.09,45.24,132.93-11.98,164.41-56.47,170.52-68.34h0Z" style="fill: #fff;"/>
              <path d="m1872.53,1846.68c.37.4.73.81,1.1,1.22,14.65,16.38,16.81,30.29,34.87,51.06,18.05,20.77,117.17,83.1,117.17,83.1,4.14,1.25,8.44,2.78,12.83,4.51,4,1.58,8.08,3.32,12.17,5.18l-.36.8s31.58,33.67-36.42,38.67-102-29-102-29c-27.1-14.96-156.69-139.67-156.69-139.67-13.61-18.65,10.9-31.86,45.88-36.08,30.81-3.72,53.38,1.9,67.13,15.69,1.49,1.47,2.92,2.98,4.32,4.52Z" style="fill: #fff;"/>
              <path d="m2038.65,1986.2l-.15.37c-4.39-1.73-8.69-3.26-12.83-4.51,0,0-99.12-62.33-117.17-83.1-18.06-20.77-20.22-34.68-34.87-51.06-.37-.41-.73-.82-1.1-1.22-2.27-8.37-9.4-20.81,9.83-16.86,29.11,5.98,58.64,62.15,58.64,62.15,0,0,92.4,61.97,97.65,94.23h0Z" style="fill: #fff;"/>
            </g>
            <g>
              <path d="m2151.79,2160.99s7.47-12.36,12.7-29.81c5.17-17.27,8.18-39.52-.37-59.73-6.23-14.72-18.59-28.36-40.69-38.2,0,0-37-25.24-72.76-41.5-4.09-1.86-8.17-3.6-12.17-5.18-4.39-1.73-8.69-3.26-12.83-4.51,0,0-99.12-62.33-117.17-83.1-18.06-20.77-20.22-34.68-34.87-51.06-.37-.41-.73-.82-1.1-1.22-1.4-1.54-2.83-3.05-4.32-4.52-13.75-13.79-36.32-19.41-67.13-15.69-34.98,4.22-59.49,17.43-45.88,36.08,0,0-69.25-51.89-95.84,25.84,0,0-90.42,23.46-128.88-24.73,0,0-42.4,14.46-14.87,64.03,0,0-20.01,77.57-20.28,111.08-.12,14.73,1.62,32.2,5.53,49.97,1.49,6.73,3.28,13.51,5.41,20.19,3.58,11.31,8.12,22.33,13.7,32.45" style="fill: none; stroke: #000; stroke-linecap: round; stroke-linejoin: round; stroke-width: 13.37px;"/>
              <path d="m1872.89,1848.22c-.1-.49-.22-1.01-.36-1.54-2.27-8.37-9.4-20.81,9.83-16.86,29.11,5.98,58.64,62.15,58.64,62.15,0,0,92.4,61.97,97.65,94.23" style="fill: none; stroke: #000; stroke-linecap: round; stroke-linejoin: round; stroke-width: 13.37px;"/>
              <path d="m1517.93,2140.97s.7.14,2.04.41c15.09,3,110.93,22.42,186.18,45.18,81.91,24.78,132.88,59.25,280.66,45.53,147.78-13.71,164.98-71.1,164.98-71.1" style="fill: none; stroke: #000; stroke-linecap: round; stroke-linejoin: round; stroke-width: 13.37px;"/>
              <path d="m1506,2108.88s.09.02.27.05c5.96,1.12,111.03,21.02,193.55,44.76.69.19,1.38.39,2.06.59,85.24,24.68,138.25,59.12,292.09,45.24,132.93-11.98,164.41-56.47,170.52-68.34.96-1.87,1.29-2.93,1.29-2.93" style="fill: none; stroke: #000; stroke-linecap: round; stroke-linejoin: round; stroke-width: 13.37px;"/>
              <path d="m1755.2,1862.55s129.59,124.71,156.69,139.67c0,0,34,34,102,29s36.42-38.67,36.42-38.67" style="fill: none; stroke: #000; stroke-linecap: round; stroke-linejoin: round; stroke-width: 13.37px;"/>
              <path d="m1514.89,1920.22s78,42,163,10" style="fill: none; stroke: #000; stroke-linecap: round; stroke-linejoin: round; stroke-width: 13.37px;"/>
              <path d="m1503.89,2088.22s196,48,269,39,73-40,132-33,97,46,200,26c55.14-10.71,58.96-44.31,59.23-48.77.02-.32.02-.49.02-.49" style="fill: none; stroke: #000; stroke-linecap: round; stroke-linejoin: round; stroke-width: 13.37px;"/>
            </g>
          </g>
          <g>
            <path d="m1833.96,1980.62c-2.56,0-4.99-.84-7.02-2.42-4.98-3.88-5.88-11.1-2.01-16.1,5.43-6.99,18.25-19.07,38.13-35.94-38.76,2.54-70.35,9.81-70.68,9.88-.85.2-1.72.3-2.59.3-4.28,0-8.17-2.36-10.15-6.17-2.41-4.64-1.39-10.33,2.49-13.83,12.86-11.6,25.69-22.27,38.2-31.77-1.47-.02-2.95-.04-4.45-.06-4.11-.05-8.38-.07-12.7-.07-40.75,0-76.89,2.12-78.41,2.21-.25.01-.49.02-.72.02-6.03,0-11.04-4.74-11.41-10.78-.19-3.06.83-6.01,2.86-8.3s4.82-3.66,7.88-3.84c.36-.02,37.2-2.25,79.69-2.25,4.41,0,8.77.02,12.97.07,12.95.15,24.99.52,35.82,1.11,23.73-14.85,37.4-19.5,38.89-19.99,1.15-.37,2.34-.56,3.53-.56,4.98,0,9.35,3.19,10.89,7.93,1.94,6-1.35,12.48-7.33,14.44-.1.03-1.95.67-5.33,2.16,28.1,4.49,37.11,11.15,41.45,15.89,2.16,2.36,3.24,5.54,2.97,8.73s-1.87,6.14-4.4,8.1c-1.95,1.52-4.22,3.29-6.73,5.26,14.79,1.95,28.02,5.15,39.37,9.51,5.89,2.26,8.85,8.91,6.59,14.82-1.69,4.41-5.98,7.37-10.69,7.37-1.4,0-2.78-.26-4.09-.76-15.2-5.84-34.46-9.23-57.23-10.07-30.56,24.89-50.7,42.87-56.75,50.67-2.18,2.81-5.48,4.43-9.04,4.43h0Zm23.99-94.57c-9.16,6.01-18.65,12.81-28.26,20.28,20.34-2.65,39.81-4,57.96-4,1.42,0,2.85,0,4.28.03,4.08-3.29,8.22-6.6,12.33-9.87-5.8-1.58-13.06-2.94-21.64-4.08-7.24-.96-15.53-1.75-24.66-2.36h0Z" style="fill: #fff; stroke: #000; stroke-linecap: round; stroke-linejoin: round; stroke-width: 9px;"/>
            <path d="m1854.45,1995.73c-3.48,0-6.73-1.55-8.91-4.26-3.96-4.91-3.2-12.14,1.68-16.11,1.93-1.57,47.94-38.34,116.3-38.34,10.17,0,20.47.82,30.61,2.45,3.02.48,5.67,2.12,7.46,4.6,1.79,2.48,2.51,5.51,2.03,8.54-.89,5.6-5.64,9.66-11.28,9.66h0c-.61,0-1.23-.05-1.84-.15-8.73-1.4-17.65-2.11-26.51-2.11-27.97,0-51.31,7.08-65.96,13.02-22.63,9.18-36.28,20.05-36.42,20.16-2.03,1.64-4.58,2.54-7.18,2.54h.02Z" style="fill: #fff; stroke: #000; stroke-linecap: round; stroke-linejoin: round; stroke-width: 9px;"/>
          </g>
          <path d="m1545.8,1882.93s-14.54-24.29-27.47-11.34c-12.93,12.96-17.78,53.45,12.93,63.16,0,0-25.85-4.86-24.24,43.73,0,0,27.47,74.5,46.86,100.42,19.39,25.91,16.78,75.13,16.78,75.13,0,0,101.8,17.82,171.29,43.73,69.48,25.91,197.14,59.93,308.64,22.67,111.5-37.25,106.65-64.78,106.65-64.78,0,0-5.46,7.47,2.62-8.73s11.31-40.49,9.7-55.07c0,0-116.35,80.98-355.5,29.15-239.16-51.83-263.4-95.56-261.78-152.24,1.62-56.69-6.46-85.84-6.46-85.84h-.02Z" style="isolation: isolate; opacity: .2;"/>
        </g>
        <g>
          <g>
            <g>
              <path d="m1587.83,2173.02h-.05s21.61,131.7-213.31,131.74c-300.61.05-303.79-187.88-303.79-187.88,0,0,0-57.22,3.23-60.46,0,0,1.02,11.84,6,29.99,17.42,63.63,83.33,204.78,323.48,184.31,129-11,172.79-61.82,182.43-105.71.36,1.16,1.17,3.95,2.01,8.01h0Z" style="fill: #fff;"/>
              <path d="m1097.52,1916.04c1.08-9.84.61-19.93-2.06-30.22-6.47-24.84,19.39-29.15,19.39-29.15-3.23,15.12,38.79,37.79,38.79,37.79,16.16-22.67,45.24-23.75,65.71-22.67s24.78,29.36,24.78,29.36c-2.16,11.02,30.18,120.46,59.26,162.57,0,0,27.48,35,87,35,89,0,75-58,75-58-1-15-19.81-147.6-19.81-147.6-3.61-5.95-6.92-11.28-11.19-15.88l4.72-.05,20.47-23.76c15.08,3.24,23.7,23.76,23.7,33.47,0,1.62-.24,6.02-.35,12.41-.52,32.13,2.28,114.43,55.29,144.15,7.24,4.06,13.45,8.77,18.76,13.92,27.05,26.22,30.96,63.96,30.43,86.92l-3.52-.08s-8-28-33-22-22,74-132,79c-129.11,5.87-133-43-180-55-45.17-11.53-68,2-95-2s-61.16-58.58-61.16-58.58l-2.82.77c-4.98-18.15-6-29.99-6-29.99-12.92-23.75,2.16-78.82,11.85-100.42,5.69-12.65,10.26-26.05,11.76-39.96Z" style="fill: #fff;"/>
              <path d="m1583.89,2144.22l3.52.08c-.27,12.11-1.79,20.1-1.79,20.1,0,0,.07.21.2.61-9.64,43.89-53.43,94.71-182.43,105.71-240.15,20.47-306.06-120.68-323.48-184.31l2.82-.77s34.16,54.58,61.16,58.58,49.83-9.53,95,2c47,12,50.89,60.87,180,55,110-5,107-73,132-79s33,22,33,22h0Z" style="fill: #fff;"/>
              <path d="m1558.69,2057.23l-1.71.15c-5.31-5.15-11.52-9.86-18.76-13.92-53.01-29.72-55.81-112.02-55.29-144.15h.62c1.62,2.36,68.68,127.29,75.14,157.92Z" style="fill: #fff;"/>
              <path d="m1465.39,2040.72s14,58-75,58c-59.52,0-87-35-87-35-29.08-42.11-61.42-151.55-59.26-162.57,0,0,21.71-43.12,100.45-43.94,57.54-.61,77.58,6.77,89.81,20.03,4.27,4.6,7.58,9.93,11.19,15.88,0,0,18.81,132.6,19.81,147.6Z" style="fill: #fff;"/>
            </g>
            <g>
              <line x1="1587.83" y1="2173.02" x2="1587.78" y2="2173.03" style="fill: none; stroke: #000; stroke-linecap: round; stroke-linejoin: round; stroke-width: 13.37px;"/>
              <line x1="1439.11" y1="1877.19" x2="1434.39" y2="1877.24" style="fill: none; stroke: #000; stroke-linecap: round; stroke-linejoin: round; stroke-width: 13.37px;"/>
              <line x1="1097.52" y1="1916.04" x2="1097.62" y2="1916.05" style="fill: none; stroke: #000; stroke-linecap: round; stroke-linejoin: round; stroke-width: 13.37px;"/>
              <line x1="1173.59" y1="1941.14" x2="1171.95" y2="1941.97" style="fill: none; stroke: #000; stroke-linecap: round; stroke-linejoin: round; stroke-width: 13.37px;"/>
              <path d="m1244.13,1901.15s21.71-43.12,100.45-43.94c57.54-.61,77.58,6.77,89.81,20.03" style="fill: none; stroke: #000; stroke-linecap: round; stroke-linejoin: round; stroke-width: 13.37px;"/>
              <path d="m1434.39,1877.24c4.27,4.6,7.58,9.93,11.19,15.88,0,0,18.81,132.6,19.81,147.6,0,0,14,58-75,58-59.52,0-87-35-87-35-29.08-42.11-61.42-151.55-59.26-162.57" style="fill: none; stroke: #000; stroke-linecap: round; stroke-linejoin: round; stroke-width: 13.37px;"/>
              <path d="m1585.82,2165.01c.36,1.16,1.17,3.95,2.01,8.01" style="fill: none; stroke: #000; stroke-linecap: round; stroke-linejoin: round; stroke-width: 13.37px;"/>
              <path d="m1073.91,2056.42c-3.23,3.24-3.23,60.46-3.23,60.46" style="fill: none; stroke: #000; stroke-linecap: round; stroke-linejoin: round; stroke-width: 13.37px;"/>
              <path d="m1097.52,1916.04c-1.5,13.91-6.07,27.31-11.76,39.96-9.69,21.6-24.77,76.67-11.85,100.42" style="fill: none; stroke: #000; stroke-linecap: round; stroke-linejoin: round; stroke-width: 13.37px;"/>
              <path d="m1585.82,2165.01c-.13-.4-.2-.61-.2-.61,0,0,1.52-7.99,1.79-20.1.53-22.96-3.38-60.7-30.43-86.92-5.31-5.15-11.52-9.86-18.76-13.92-53.01-29.72-55.81-112.02-55.29-144.15.11-6.39.35-10.79.35-12.41,0-9.71-8.62-30.23-23.7-33.47l-20.47,23.76" style="fill: none; stroke: #000; stroke-linecap: round; stroke-linejoin: round; stroke-width: 13.37px;"/>
              <path d="m1153.64,1894.46c16.16-22.67,45.24-23.75,65.71-22.67s24.78,29.36,24.78,29.36" style="fill: none; stroke: #000; stroke-linecap: round; stroke-linejoin: round; stroke-width: 13.37px;"/>
              <path d="m1097.52,1916.04c1.08-9.84.61-19.93-2.06-30.22-6.47-24.84,19.39-29.15,19.39-29.15-3.23,15.12,38.79,37.79,38.79,37.79" style="fill: none; stroke: #000; stroke-linecap: round; stroke-linejoin: round; stroke-width: 13.37px;"/>
              <path d="m1587.78,2152.51c-.38,4.04-1.02,8.21-1.96,12.5" style="fill: none; stroke: #000; stroke-linecap: round; stroke-linejoin: round; stroke-width: .48px;"/>
              <path d="m1585.82,2165.01c-9.64,43.89-53.43,94.71-182.43,105.71-240.15,20.47-306.06-120.68-323.48-184.31-4.98-18.15-6-29.99-6-29.99" style="fill: none; stroke: #000; stroke-linecap: round; stroke-linejoin: round; stroke-width: 13.37px;"/>
              <path d="m1070.68,2116.88s3.18,187.93,303.79,187.88c234.92-.04,213.31-131.73,213.31-131.73" style="fill: none; stroke: #000; stroke-linecap: round; stroke-linejoin: round; stroke-width: 13.37px;"/>
              <path d="m1171.95,1941.97c-44.17,6.48-74.33-25.92-74.33-25.92" style="fill: none; stroke: #000; stroke-linecap: round; stroke-linejoin: round; stroke-width: 13.37px;"/>
              <path d="m1483.55,1899.32c1.62,2.35,68.68,127.28,75.14,157.91" style="fill: none; stroke: #000; stroke-linecap: round; stroke-linejoin: round; stroke-width: 13.37px;"/>
              <path d="m1082.73,2085.64s34.16,54.58,61.16,58.58,49.83-9.53,95,2c47,12,50.89,60.87,180,55,110-5,107-73,132-79s33,22,33,22" style="fill: none; stroke: #000; stroke-linecap: round; stroke-linejoin: round; stroke-width: 13.37px;"/>
            </g>
          </g>
          <g>
            <path d="m1260.34,2008.54c-3.7,0-7.17-1.18-9.77-3.32-2.83-2.33-4.3-5.47-4.16-8.86.15-3.41,2.01-6.58,5.1-8.7,6.5-4.44,17.01-9.27,31.34-14.4-19.97-.64-35.44-.73-42.02-.73-2.9,0-4.54.01-4.69.02h-.21c-5.46,0-10.42-2.68-12.65-6.82-2.61-4.85-1.08-10.59,3.71-13.95,10.09-7.08,29.35-15.37,57.34-24.68-45.3-4.59-78.92-7.87-79.55-7.92-4.24-.34-8-2.24-10.31-5.21-1.8-2.32-2.57-5.13-2.17-7.91.84-5.88,6.78-10.31,13.81-10.31.45,0,.91.02,1.37.06,1.82.15,52.83,4.93,113.5,11.42,7.45.8,14.77,1.6,21.77,2.4,48.44-13.3,93.8-23.44,95.71-23.87,1.18-.27,2.41-.4,3.64-.4,6,0,11.31,3.19,13.2,7.95,1.11,2.79.96,5.82-.42,8.51-1.68,3.29-5.02,5.71-9.15,6.63-5.93,1.32-20.14,4.55-39.53,9.32,14.61,2.18,26.79,4.29,36.35,6.31,2.01-.89,4.26-1.36,6.55-1.36,1.29,0,2.58.15,3.83.44,1.57.37,3.13.75,4.69,1.13.67.17,1.34.37,1.96.62,7.93,3.09,13.17,8.47,14.36,14.78l.07.36c.03.15.04.3.05.45.05.43.07.87.07,1.3v.34c-.03.61-.11,1.2-.23,1.76l-.08.32c-.09.37-.24.85-.44,1.34-.07.17-.11.27-.16.37-.23.52-.49.99-.78,1.44l-.17.24c-.21.31-.51.7-.82,1.06l-.24.27c-.42.46-.8.82-1.2,1.15l-.2.16c-.28.23-.7.53-1.15.82l-.27.17c-.94.57-1.93,1.02-2.98,1.37l-.37.12c-.42.13-.8.23-1.2.32l-.43.1c-5.35,1.01-22.17,4.22-44.89,9.1,21.94,4.02,40.08,8.9,54.05,14.55,3.77,1.52,6.49,4.38,7.45,7.84.86,3.07.27,6.23-1.65,8.89-2.48,3.45-7.05,5.6-11.92,5.6-2.1,0-4.21-.4-6.1-1.17-22.83-9.23-58.89-16.12-107.21-20.5-55.69,14.16-76.43,23.31-84.02,28.49-2.47,1.69-5.6,2.61-8.82,2.61l.04-.02Zm31.17-58.55c20.59.77,40.75,1.97,59.08,3.54,16.22-4.06,33.94-8.18,52.87-12.31-16.08-2.43-35.49-4.97-57.97-7.58-20.86,5.81-38.95,11.29-53.98,16.34h0Z" style="fill: #fff; stroke: #000; stroke-linecap: round; stroke-linejoin: round; stroke-width: 9px;"/>
            <path d="m1271.35,2037.45c-6.68,0-12.43-3.99-13.67-9.5-.63-2.8-.07-5.69,1.59-8.14,2.1-3.1,5.74-5.18,9.97-5.72,3.76-.48,92.81-11.68,157.86-11.68,6.11,0,11.74-.15,17.18-.29,4.65-.12,9.05-.24,13.13-.24,6.77,0,11.66.32,15.84,1.04,4.2.72,7.7,2.96,9.61,6.16,1.53,2.57,1.9,5.52,1.05,8.33-1.57,5.16-7.12,8.76-13.48,8.76-.95,0-1.91-.08-2.84-.24-2.93-.5-6.47-.73-11.16-.73-3.68,0-7.77.14-12.1.29-5.07.18-10.83.38-16.93.38-63.48,0-153.03,11.33-153.93,11.44-.72.09-1.43.13-2.13.13h.01Z" style="fill: #fff; stroke: #000; stroke-linecap: round; stroke-linejoin: round; stroke-width: 9px;"/>
          </g>
          <path d="m1138.55,1892.84s-33.93,14.58-24.24,38.87c-1.62,8.1-45.25,97.18-21.01,183.02s195.53,110.13,290.87,110.13,174.51-27.37,189.06-70.37c0,0,28.4,37.74,4.16,78.23s-94,79-271,67c-196.39-13.31-226.01-131.55-230.86-144.5s-8.08-66.4-4.85-80.98-9.7-50.21,3.23-82.6c12.93-32.39,19.39-45.35,22.62-64.78,3.23-19.44-9.7-55.07,0-59.93,9.7-4.86,25.85,4.86,25.85,4.86l16.16,21.05h0Z" style="isolation: isolate; opacity: .2;"/>
        </g>
      </g>
    </g>
  </g>
</svg>