<?xml version="1.0" encoding="UTF-8"?>
<svg id="CLOTHING" xmlns="http://www.w3.org/2000/svg" xmlns:xlink="http://www.w3.org/1999/xlink" viewBox="0 0 3000 3000">
  <defs>
    <clipPath id="clippath">
      <path d="m784.67,1599.6c-29.47,0-76.54-5.04-133.38-29.08-35.19-14.88-61.44-31.73-70.5-39.43-5-4.25-7.29-8.51-6.79-12.66.98-8.21,12.28-13.97,12.39-14.03l.95-.48,9.47-73.17-.64-.69c-18.08-19.46-27.11-36.09-23-42.35,3.48-5.31,7.34-11.99,12.22-20.46,12.25-21.24,30.77-53.34,61.11-92.87,12.28-15.98,25.62-32.06,39.68-47.81,17.13-19.18,35.89-38.54,55.78-57.54,8.83-8.43,17.91-16.83,26.99-24.96,8.87-7.96,18-15.76,27.14-23.2,105.61-86.03,206.46-120.72,236.2-129.64,86.75,50.37,182.58,85.49,284.85,104.4.63.12,3.38.61,3.38.61h2.51c20.64,3.88,56.91,10.36,70.1,10.42l57.66,35.85.41.06c.49.07,49.82,7.43,110.31,7.43,35.55,0,67.97-2.5,96.33-7.43l1.07-.19,18.24-42.71c7.89-1.28,53.52-8.72,60.7-11.11.86-.29,1.63-.83,2.29-1.62,55.97-14.26,107.32-35.84,152.65-64.14,51.75,17.91,104.77,53.66,147.43,82.42,20.47,13.8,38.15,25.72,53.08,34.05,6.78,3.79,12.5,6.55,17.48,8.45.7.27,1.38.51,2.06.75,6.98,2.42,13.45,4.31,19.21,5.62,6.57,1.49,12.35,2.24,17.18,2.24,1.04,0,2.06-.04,3.02-.1,13.54-.97,15.06-8.48,15.23-10.27,1.29-4.04,5.82-13.8,12.37-13.8,3.04,0,6.43,1.99,10.06,5.91l1.36,1.47,1.6-1.48,15.95-13.82-.41-1.26c-2.61-8.11-5.73-22.39-2.96-26.19.37-.5.79-.71,1.45-.71,1.23,0,4.21.78,10.3,6.03,27.88,24.03,207.78,179.45,219.42,189.5.21,2,.2,5.92-1.54,7.98-.83.98-2.02,1.46-3.63,1.46h0c-2.85,0-6.75-1.46-11.6-4.33l-1.34-.79-19.51,19.51,1.89,1.38c3.9,2.84,6.51,4.73,7.52,5.46,1.21,3.26,7.62,24.2-13.53,54.17-5.17,7.33-25.56,33.34-70.72,60.38-42.06,25.18-91.42,42.1-142.76,48.91-9.79,1.3-19.88,2.27-30.01,2.87-3.69.21-7.49.32-11.3.32-.86,0-1.73,0-2.6-.02-22.38-.29-47.51-4.25-74.68-11.77-22.35-6.19-46.01-14.74-70.32-25.41-35.79-15.71-60.7-30.69-60.95-30.84l-4-2.41,1.01,4.56c2.25,10.18,3.76,20.01,4.48,29.23,1.38,17.38,0,33.03-4.09,46.51-10.53,34.75-36.08,44.85-38.81,45.83-11.35.43-321.14,12.08-546.6,12.08-132.26,0-210.28-3.92-231.9-11.67-16.7-5.98-30.22-18.31-40.2-36.64-6.35-11.69-11.31-25.89-14.75-42.2-2.6-12.34-4.32-25.87-5.14-40.21l-.02-.28c-1.24-22.11.07-39.39.35-42.62.05-.56.08-.85.08-.86l.26-2.56-2.55.39c-.81.12-1.76.37-2.88.75-6.56,2.28-17.27,8.88-25.1,14.01-6.16,4.02-12.87,8.66-19.95,13.77-8.77,6.33-17.54,12.99-25.37,19.27l-2.09,1.68h0c-4.95,4-9.38,7.73-13.17,11.1-6.33,5.63-10.43,9.86-12.2,12.58-3.89,5.98-3.2,15.32-2.46,25.21,1.07,14.32,2.28,30.56-10.12,39.57-21.75,15.48-46.7,24.99-74.14,28.26l-1.22.15-8.88,24.08,15.28,7.81c1.46,1.28,3,3.08,2.55,4.64-1.14,3.92-12.46,7.23-20.13,8.32l-.12.02-.12.03c-20.58,5.51-42.41,8.31-64.88,8.31h0Z" style="fill: none;"/>
    </clipPath>
    <clipPath id="clippath-1">
      <path d="m1592,2105.11s118.05,35.27,152.52,46.13c34.48,10.87,115.85,44.97,202.16,42.92,86.31-2.05,146.25-20.46,158.31-27.05s4-104,4-104l113,2,5,167-95,63-240-2-300-154v-34h.01Z" style="fill: none;"/>
    </clipPath>
  </defs>
  <g id="Ice-Hockey-Black-and-Gold">
    <circle cx="1500" cy="1500" r="1200" style="fill: #4c6164;"/>
    <g>
      <path d="m1100,1630.11l16.48,211.53s103.52,31.47,241.52,22.47,113.11-47.31,113.11-47.31c0,0,21.36-122.98,30.62-129.84s-188.74-74.85-401.74-56.85h.01Z" style="fill: #f9ca06;"/>
      <path d="m1527,1725.11s-19-40,24-54,230.54-52.72,343.77-38.36l-15.27,196.86s-139.66,38.42-335,14c-32-4-22-90-17.5-118.5Z" style="fill: #f9ca06;"/>
    </g>
    <g>
      <g>
        <path d="m1297.09,1835.35c-43.02,0-124.16-2.51-184.17-19.32l-.65-.18-2.15-25.48,1.35.32c31.44,7.38,88.32,16.17,180.74,16.17,7.25,0,14.71-.06,22.17-.16,88.69-1.3,135.96-10.62,160-18.21l1.62-.51-.32,1.56c-1.78,8.77-3.2,16.06-4.08,20.62l-.09.48-.48.2c-25.61,10.77-74.77,23.77-163.52,24.48-3.53.03-7,.04-10.43.04h.01Z" style="fill: #111;"/>
        <path d="m1886.43,1781.8c-30.6,8.19-86.08,18.44-176.61,20.83-7.1.19-14.41.32-21.72.41-86.9.99-133.45-7.11-157.2-14.07l-4.02-.93c.29,8.7,1.13,17.66,2.82,26.09,26.09,9.86,80.81,18.89,165.87,17.35,3.46-.06,6.86-.14,10.22-.23,42.14-1.11,121.54-5.71,179.88-24.07l.64-.2,1.43-25.53-1.31.35h0Z" style="fill: #111;"/>
      </g>
      <g>
        <path d="m1292.21,1808.7c-92.63,0-149.69-8.83-181.24-16.23l-.7-.16-2.59-30.73,1.37.35c30.25,7.63,91.89,16.72,213.72,16.72,11.09,0,22.63-.08,34.3-.23,72.75-1.31,106.43-7.14,121.88-11.81l1.62-.49-.33,1.55c-1.51,7.01-3.04,14.37-4.56,21.86l-.11.53-.55.17c-35.17,11.1-89.2,17.26-160.62,18.31-7.47.11-14.95.16-22.21.16h.02Z" style="fill: #111;"/>
        <path d="m1888.03,1752.99c-29.43,8.41-89.56,19.09-208.89,22.23-10.86.29-22.17.51-33.61.65-69.46.56-102.7-4.14-118.46-8.33-.35,7.4-.46,15.62-.04,23.99,35.33,9.38,93.97,14.12,161.09,13.36,7.32-.08,14.64-.22,21.75-.41,90.73-2.39,146.38-12.68,177.09-20.9l.68-.18,1.73-30.79-1.33.38h-.01Z" style="fill: #111;"/>
      </g>
      <g>
        <path d="m1322.78,1780.5c-122.05,0-183.88-9.13-214.25-16.79l-.68-.17-2.25-26.68,1.3.24c42.79,7.92,99.63,12.5,168.94,13.61,17.99.29,35.38.43,51.68.43,89.59,0,134.7-4.24,156.76-7.79l1.46-.24-.31,1.34c-1.65,7.07-3.4,14.88-5.19,23.21l-.11.53-.56.17c-15.57,4.7-49.46,10.59-122.46,11.9-11.69.15-23.24.23-34.34.23h0Z" style="fill: #fff;"/>
        <path d="m1889.49,1728.12c-41.71,9.02-97.26,15.06-165.11,17.96-17.62.75-34.64,1.34-50.61,1.77-77.08,2.03-120.62-.1-144.79-2.67-.7,5.67-1.59,14.29-2,24.26,16.08,4.19,49.54,8.83,118.56,8.28,11.45-.15,22.77-.37,33.64-.65,119.55-3.15,179.86-13.87,209.41-22.31l.66-.19,1.5-26.73-1.26.27h0Z" style="fill: #fff;"/>
      </g>
    </g>
    <g>
      <path d="m1100,1630.11l16.48,211.53s103.52,31.47,241.52,22.47,113.11-47.31,113.11-47.31c0,0,21.36-122.98,30.62-129.84s-188.74-74.85-401.74-56.85h.01Z" style="fill: none; stroke: #000; stroke-miterlimit: 10; stroke-width: 13px;"/>
      <path d="m1527,1725.11s-19-40,24-54,230.54-52.72,343.77-38.36l-15.27,196.86s-139.66,38.42-335,14c-32-4-22-90-17.5-118.5Z" style="fill: none; stroke: #000; stroke-miterlimit: 10; stroke-width: 13px;"/>
    </g>
    <path d="m1084.98,1530.54s289.69-29.65,465.88-29.65,363.39,30.49,363.39,30.49l-13.55,151.62s-11.86,61.84-313.41,37.27c-43.2-2.54-74.54-5.93-74.54-5.93,0,0,9.32-38.96-1.69-40.66-6.9-1.06-11.86,37.27-11.86,37.27,0,0-124.52,29.65-283.76,13.55-93.18-11.01-105.88-13.55-105.88-13.55,0,0-16.09-2.54-16.94-23.72s-4.24-82.16-5.93-98.26-12.71-28.8-8.47-38.96,6.78-19.48,6.78-19.48h-.02Z" style="fill: #111;"/>
    <g>
      <path d="m1113.5,1582.61l8.99,126.93c-5.99-1.23-11.99-2.54-17.99-3.93-15.71-3.64-7-113-21-143-6.97-14.95,9-34,9-34,0,0,8.26-.84,22.76-2.24l.23,2.25c-.31.71-14.85,33.22-1.99,53.99Z" style="fill: #f9ca06;"/>
      <path d="m1160,1717.67c-9.54-1.6-29.02-5.36-37.71-7.15l-.74-.15-9.03-127.44c-12.2-20.06.06-50.12,1.95-54.46l-.31-2.99,1-.1c4.09-.4,10.86-.42,18.02-.45,5.08-.02,10.33-.03,15.27-.18l1.14-.03-.11,1.13c-.2,2.04-4.98,50.06-4.98,57.76s6.93,127.73,7,128.94v.11l-.19,1.19c3.03.5,6.05.98,9.07,1.45l1,.15-.39,2.38-.99-.17h0Z" style="fill: #fff;"/>
    </g>
    <path d="m1115.26,1526.37c-14.5,1.4-22.76,2.24-22.76,2.24,0,0-15.97,19.05-9,34,14,30,5.29,139.36,21,143,6,1.39,12,2.7,17.99,3.93,9.24,1.9,18.47,3.6,27.67,5.14,178.31,29.78,347.06-4.87,347.06-4.87,0,0,4.34-46.12,15.81-40.66,11.47,5.46,4.47,42.46,4.47,42.46,0,0,332,39,379.53-28.91,0,0,13.64-139.1,13.55-153.6-.08-14.49-183.08-30.49-323.08-33.49-105.62-2.26-333.62,17.67-439.23,27.6-13.01,1.22-24.17,2.29-33.01,3.16h0Z" style="fill: none; stroke: #000; stroke-miterlimit: 10; stroke-width: 13px;"/>
    <path d="m2438.5,1290.61s-191-165-220-190c-26.9-23.19-12,23-12,23l-15,13-.13.12c-17.41-18.81-25.87,8.88-25.87,8.88,0,0,0,7.69-13.39,8.65-4.7.34-11.04-.15-19.61-2.09-5.4-1.23-11.69-3.03-19-5.56-.66-.23-1.33-.47-2.01-.73-5.11-1.95-10.88-4.79-17.22-8.33-46.92-26.19-125.24-90.75-201.73-116.93-43.06,27-93.79,49.42-153.57,64.58-.49.74-1.07,1.26-1.75,1.49-7.62,2.54-61.47,11.21-61.47,11.21l-18.25,42.72c-95.81,16.66-206,0-206,0l-57.8-35.94c-12.45.14-48.7-6.32-70.49-10.43h-2.52c-1.06-.18-2.13-.37-3.19-.56-113.48-20.98-207.9-59.75-284.96-104.6-29.25,8.69-130.95,43.27-237.72,130.25-9.05,7.37-18.13,15.12-27.21,23.26-9.48,8.49-18.48,16.83-27.04,25-21.23,20.28-39.72,39.54-55.89,57.65-15.19,17.02-28.33,33.03-39.77,47.92-42.01,54.74-60.91,94.39-73.42,113.45-4.9,7.47,4.31,24.47,23.21,44.81l-9.21,71.19s-26,13-6,30,145.13,94.22,270.57,60.61c0,0,32.43-4.61,18.43-16.61l-13.92-7.11,7.84-21.26c26.32-3.14,51.79-12.06,75.08-28.63,22-16,4.17-51.61,13.08-65.31,1.74-2.68,6-6.97,11.85-12.17,4.32-3.84,9.51-8.18,15.18-12.71.03.01.05.02.08.04l-.07-.05c7.83-6.28,16.59-12.93,25.29-19.21,6.82-4.93,13.61-9.63,19.87-13.72,10.35-6.78,19.28-11.92,24.65-13.79.97-.33,1.82-.56,2.54-.67,0,0-.03.3-.08.89-.34,3.99-1.58,21.06-.35,42.91-.05.01-.06.02,0,.02.7,12.54,2.22,26.65,5.19,40.77,3.13,14.86,7.87,29.71,14.95,42.74,9.23,16.96,22.44,30.82,41.28,37.57,74.54,26.69,779.54-.31,779.54-.31,0,0,28.81-9.15,40.35-47.24,3.77-12.43,5.7-27.95,4.17-47.25-.7-8.99-2.15-18.81-4.52-29.51,0,0,24.84,15.01,61.18,30.96,20.63,9.06,44.98,18.42,70.59,25.51,24.61,6.81,50.4,11.52,75.19,11.84,4.72.06,9.41-.04,14.04-.31,10.35-.61,20.4-1.58,30.15-2.88,118.43-15.71,192.68-78.71,214.85-110.12,24-34,13.54-56.61,13.54-56.61,0,0-2.88-2.08-7.98-5.79l16.76-16.76c23.31,13.83,19.68-7.84,19.68-7.84h.01Z" style="fill: #111;"/>
    <g>
      <path d="m2438.5,1290.61s3.63,21.67-19.68,7.84l-16.76,16.76c-36.06-26.26-182.91-134.35-202.83-167.62-2.79-4.67-5.41-8.22-7.86-10.86l.13-.12,15-13s-14.9-46.19,12-23c29,25,220,190,220,190h0Z" style="fill: #111;"/>
      <path d="m868.5,1576.61c14,12-18.43,16.61-18.43,16.61-125.44,33.61-250.57-43.61-270.57-60.61s6-30,6-30l9.21-71.19c49.4,53.16,165,129.06,267.71,116.82l-7.84,21.26,13.92,7.11h0Z" style="fill: #111;"/>
    </g>
    <g>
      <g>
        <path d="m996.3,1416.39c-31.38-5.59-91.16-27.85-197.76-102.12-59.63-41.55-108.08-81.48-114.45-86.76l-.82.82-1.46-1.37.73-.82c.46-.52.92-1.05,1.4-1.57,9.81-10.98,20.11-21.98,30.6-32.68l.69-.7.71.68c88.87,84.53,179.53,141.9,245.72,183.79,18.07,11.44,33.68,21.32,47.12,30.38l1.18.8-13.25,9.63-.42-.08h.01Z" style="fill: #f9ca06;"/>
        <path d="m2139.72,1491.94c-.76,0-1.52,0-2.28-.02-18.3-.23-38.54-2.91-60.13-7.97l-.58-.14-.16-.58c-7.45-27.37-10.46-80.21-8.04-141.34,2.74-69.36,12.1-141.9,26.37-204.27l.29-1.25,1.14.58c3.88,1.96,7.74,3.76,11.46,5.33l.68.29-.07.73c-8.86,88.85-13.06,275.72,34.43,347.05l1.02,1.53-1.84.03c-.75,0-1.51.02-2.27.02h-.02Z" style="fill: #f9ca06;"/>
      </g>
      <g>
        <path d="m981.36,1427.45c-39.46-2.25-95.27-19.62-153.11-47.67-45.74-22.18-112.99-60.84-173.66-119.1l-.66-.63.57-.71c8.56-10.68,17.75-21.57,27.31-32.37l2.16-2.16.7.59c.51.42,51.4,42.92,115.02,87.25,58.67,40.88,140.46,91.72,196.95,101.78l2.31.41-1.89,1.38c-5.26,3.84-10.53,7.69-15.06,11.04l-.29.21-.36-.02h0Z" style="fill: #f9ca06;"/>
        <path d="m2141.15,1491.47c-47.8-71.79-43.63-259.26-34.75-348.35l.13-1.35,1.25.53c3.87,1.64,7.72,3.11,11.45,4.36l.63.21.05.66c6.55,89.58,21.34,167.1,43.98,230.41,22.94,64.15,46.78,92.9,55.97,102.28l1.25,1.27-1.73.4c-12.25,2.84-24.9,5.13-37.58,6.82-9.86,1.31-20.03,2.29-30.22,2.89-3.1.18-6.32.28-9.57.31h-.54l-.3-.45h-.02Z" style="fill: #f9ca06;"/>
      </g>
      <g>
        <path d="m938.39,1438.75c-126.21,0-251.01-99.55-298-137.03-4.11-3.28-7.66-6.11-10.53-8.33l-.76-.59.56-.78c4.86-6.75,9.59-13.12,14.46-19.46,3.42-4.44,6.91-8.88,10.38-13.22l.68-.85.79.76c78.62,75.5,225.41,160.51,325.49,166.21l2.77.16-2.23,1.65c-6.77,5-10.71,7.99-12.05,9.16l-.23.2-.3.04c-10.07,1.39-20.52,2.1-31.05,2.1l.02-.02Z" style="fill: #f9ca06;"/>
        <path d="m2218.42,1481.63c-9.28-9.48-33.35-38.48-56.42-103.01-22.7-63.48-37.53-141.18-44.09-230.94l-.11-1.5,1.42.48c3.72,1.25,7.41,2.31,10.95,3.15l.59.14.15.59c1.29,5.25,2.7,11.38,4.34,18.48,8.18,35.41,21.86,94.68,45.26,150.86,28.12,67.51,63.37,114.13,104.76,138.56l1.69,1-1.8.78c-20.95,9.13-43.09,16.42-65.81,21.69l-.55.13-.39-.4h.01Z" style="fill: #f9ca06;"/>
      </g>
      <g>
        <path d="m886.85,1465.33c-33.67,0-71.36-9.26-112.01-27.52-51.47-23.12-107.7-60.76-167.12-111.86l-.66-.57.47-.73c7.14-11.15,14.38-21.82,22.14-32.63l.6-.84.82.63c2.88,2.22,6.43,5.06,10.55,8.34,46.84,37.36,171.25,136.6,296.76,136.6,10.44,0,20.8-.7,30.78-2.08l3.32-.46-2.53,2.21c-2.86,2.5-5.09,4.59-6.81,6.4-.09.09-.17.16-.25.23l-.21.18c-2.63,2.26-27.06,22.1-75.85,22.1h0Z" style="fill: #111;"/>
        <path d="m2284.27,1460.16c-41.78-24.66-77.31-71.6-105.59-139.52-23.46-56.33-37.17-115.7-45.36-151.18-1.64-7.09-3.05-13.22-4.33-18.45l-.39-1.59,1.59.38c3.58.85,7.02,1.49,10.22,1.91l.6.08.21.56c23.84,63.87,58.42,123.68,102.76,177.76,45.29,55.24,85.17,85.34,100.22,95.71l1.19.82-1.19.82c-18.03,12.51-37.89,23.53-59.01,32.74l-.47.2-.44-.26v.02Z" style="fill: #111;"/>
      </g>
      <g>
        <path d="m869.47,1500.41c-112.54.01-259.06-102.58-281.38-142.85l-.28-.5.29-.49c4.33-7.45,11.06-18.86,19.42-31.93l.62-.97.87.75c59.27,50.97,115.33,88.5,166.63,111.55,40.4,18.15,77.81,27.35,111.2,27.35,48.06,0,71.97-19.4,74.54-21.62l1.32,1.5c-5.83,5.21-9.73,9.23-11.29,11.63-3.33,5.12-2.66,14.2-2.07,22.21l.09,1.19-3.09-.32c-20.46,14.92-46.32,22.48-76.87,22.48v.02Z" style="fill: #fff;"/>
        <path d="m2343.05,1427.48c-15.12-10.42-55.18-40.65-100.63-96.09-44.48-54.26-79.17-114.26-103.09-178.33l-.58-1.56,1.65.22c3.55.47,7,.71,10.28.71.97,0,1.89-.02,2.76-.06l.57-.02.31.48c23.95,37.21,110.91,164.31,224.38,237.39l.56.36-1.73,9.93-.24.23c-9.67,9.21-20.8,18.21-33.1,26.75l-.57.39-.57-.39h0Z" style="fill: #fff;"/>
      </g>
      <g>
        <path d="m841.7,1548.88c-14.2,0-30.3-.91-47.85-2.7h-.08l-.08-.03c-110.21-29.96-169.43-78.7-199.71-114.31-19.31-22.72-26-39.36-26.07-39.52l-.18-.45,21.26-36.83.86,1.55c22.15,39.97,167.74,141.81,279.63,141.81,30.27,0,55.84-7.51,76-22.33l.31-.23,3.37.35.16.7c8.22,35.61-6.39,42.56-19.27,48.69-1.1.52-2.18,1.04-3.24,1.57-1.74.87-3.56,2.04-5.67,3.38-10.72,6.86-28.66,18.33-79.45,18.33v.02Z" style="fill: #111;"/>
        <path d="m2377.06,1391.54c-113.53-73.36-200.46-200.39-224.42-237.63l-1.54-2.39,2.7.9s2,.66,4.2.66c3.05,0,4.87-1.16,5.55-3.54,1.41-4.92,7.56-18.99,17.07-18.99,4.42,0,8.82,3.11,13.08,9.23,14.6,20.98,82.4,83.53,106.62,100,23.4,15.91,109.84,81.66,110.71,82.32l.22.17.1.26c.49,1.22,11.52,30.49-34.04,78.16l-2.27,2.38,2.01-11.54h0Z" style="fill: #111;"/>
      </g>
    </g>
    <g>
      <path d="m1228.42,1367.21c-106.45,0-164.49-14.74-175.04-17.7l-.85-.24.14-.88c1.78-11.51,3.91-23.01,6.32-34.19l.15-.7.71-.08c.84-.1,1.29-.16,1.29-.16l.16-.02.16.03c46.79,8.91,105.39,9.01,105.97,9.01h582.78c150.97,0,179.72-26.54,180-26.81l.54-.53,1.57.9.09.44c1.56,7.79,3.76,20.14,5.33,34.74l.05.51-1.7,1.53c-27.11,28.93-117.92,32.06-155.7,32.06-8.87,0-14.36-.18-14.41-.18-4.16.02-421.45,2.26-537.57,2.26h0Z" style="fill: #111;"/>
      <path d="m1203.63,1407.87c-.63.07-6.03.61-15.74.61-23.7,0-73.11-3.31-137.98-25.43-.04,0-.36.08-.36.08l-1.33.27.14-1.35c1.14-11.27,2.59-22.6,4.31-33.65l.17-1.11,1.08.3c10.51,2.94,68.31,17.62,174.5,17.62,116.11,0,533.39-2.24,537.59-2.26.09,0,5.56.18,14.38.18,16.68,0,49.33-.66,80.63-5.05,37.35-5.24,62.14-14.14,73.67-26.43l2.84-2.56.21,1.95c1.55,14.45,2.18,28.22,1.88,40.93v.45l-.36.29c-6.8,5.68-35.65,24.5-121.25,28.38" style="fill: #111;"/>
      <path d="m1165.17,1439.49c-66.59,0-108.37-12.73-116.07-15.28l-.65-.22-.03-.68c-1.03-21.25.22-37.45.48-40.49l.19-2.07,1.21.32c64.72,22.11,113.99,25.41,137.59,25.41,10.01,0,15.52-.6,15.57-.6h.11c5.15-.03,516.13-2.32,614.36-6.78,84.97-3.86,113.38-22.34,120.06-27.92l1.74-1.45-.1,2.26-.02.69c-.38,14.1-1.93,26.93-4.6,38.11-.24,1.01-.49,2-.76,3l-.07.26-.19.19-.11.12c-22.85,25.13-119.72,25.13-161.09,25.13h-607.62,0Z" style="fill: #111;"/>
      <path d="m1784.17,1475.78c-4.5,0-9.09-.05-13.65-.15-31.3-.67-98.79-1-200.6-1-173.35,0-389.03.99-391.19,1-.88-.04-83.12-4.44-127.01-22.96l-.52-.22-.08-.56c-1.22-8.39-2.09-17.13-2.58-26-.05-.84-.09-1.67-.13-2.48l-.07-1.56,1.38.46c7.65,2.53,49.16,15.18,115.45,15.18h607.62c41.1,0,137.35,0,159.64-24.51l.14-.15,2.62-2.62-.95,3.59c-.82,3.1-1.73,6.09-2.71,8.89,2.25,10.22,3.76,20.1,4.48,29.37l.06.72-.66.28c-18.52,7.86-73.96,22.74-151.25,22.74v-.02Z" style="fill: #fff;"/>
      <path d="m1208.09,1509.52c-32.78,0-112.73-1.73-146.99-17.74l-.38-.18-.14-.39c-2.7-7.54-5-15.74-6.83-24.39-1-4.75-1.89-9.77-2.63-14.92l-.25-1.75,1.63.69c43.57,18.38,125.46,22.76,126.28,22.8,2.1-.01,217.8-1,391.14-1,101.82,0,169.32.34,200.64,1,4.54.1,9.11.15,13.6.15,76.94,0,132.06-14.77,150.46-22.58l1.28-.54.11,1.38c.89,11.21.65,21.84-.73,31.59l-.1.73-1.52.24c-9.65,10.35-30.86,17.68-63.05,21.8-24.07,3.08-45.65,3.11-45.87,3.11h-616.66,0Z" style="fill: #f9ca06;"/>
      <path d="m1435.99,1558.97c-129.34,0-255.61-2.27-300.25-5.41-33.65-2.36-52.31-19.22-62.03-32.96-10.53-14.87-13.07-28.97-13.17-29.56l-.33-1.89,1.74.81c11.29,5.28,48.14,17.56,146.15,17.56h616.66c.85,0,85.65-.28,107.68-24.52l.24-.26,2.73-.43-.1,1.27c-3.44,43.46-40.03,63.16-56.2,65.47-16.38,2.33-172.52,6.81-315.24,9.04-37.1.58-81.32.89-127.88.89h0Z" style="fill: #f9ca06;"/>
    </g>
    <g>
      <path d="m1543.82,1161.47c-59.9,0-98.59-5.13-98.97-5.19l-.12-.02-.11-.04c-10.91-4.24-49.63-35.09-71.74-53.11l-2.7-2.2,3.46.43c6.77.85,13.56,1.63,20.17,2.33l.23.02,57.81,35.95c3.41.46,47.42,6.18,105.58,6.18,35.23,0,68.7-2.07,99.5-6.16,4.29-6.34,10.31-20.5,17.88-42.12l.2-.57.6-.09c4.23-.64,8.64-1.36,13.89-2.26l1.8-.31-25.38,60.2-.58.07c-40,4.56-80.88,6.88-121.5,6.88h-.02Z" style="fill: #f9ca06;"/>
      <path d="m1551.7,1176.36c-56.96,0-107.96-3.09-108.47-3.12l-.25-.02-.21-.13c-43.69-27.07-76.95-57.48-92.88-73.2l-2.18-2.15,3.03.45c8.37,1.25,15.87,2.28,22.91,3.17l.28.04.22.18c21.95,17.88,60.29,48.44,71.09,52.75,2.41.31,40.47,5.15,98.59,5.15,40.36,0,80.96-2.29,120.7-6.8l24.43-57.94.54-.09c5.35-.92,10.78-1.92,16.12-2.97l1.68-.33-.54,1.62c-12.96,39.25-34.54,75.2-34.75,75.55l-.23.39-.45.08c-27.52,4.89-67.77,7.37-119.62,7.37h-.01Z" style="fill: #f9ca06;"/>
      <path d="m1550.5,1189.61c-54.88,0-106.5-.99-107.02-1h-.23l-.2-.11c-27.78-13.89-125.3-92.66-126.28-93.46l-.46-.38.4-2.16.98.18c10.42,1.93,21.54,3.77,33.04,5.49l.32.05.23.23c15.85,15.63,48.9,45.85,92.32,72.79,3.95.24,53.26,3.11,108.1,3.11,51.46,0,91.43-2.44,118.82-7.26,2.37-3.99,22.17-37.92,34.33-74.76l.18-.55.57-.11c4.84-.95,9.5-1.92,13.87-2.88l.37-.08,5.62,3.12-43.27,92.65-.46.12c-13.35,3.34-57.51,5.03-131.24,5.03v-.02Z" style="fill: #f9ca06;"/>
    </g>
    <g style="clip-path: url(#clippath);">
      <g>
        <g>
          <path d="m962.34,1153.32l-.4,13.38-57.08,50.39-15.72.85-29.19-23.88.4-13.22,57.23-50.56,15.57-.85,29.19,23.88h0Zm-24.51,6.44l-11.23-9.19-42.06,37.13,11.23,9.19,42.06-37.13Z" style="fill: rgba(255, 255, 255, 0);"/>
          <path d="m888.7,1191.09l4.14,3.39-15.58,13.75-24.9-20.37,15.58-13.75,4.14,3.39,42.06-37.13-4.14-3.39,15.58-13.75,20.75,16.98-57.62,50.88h-.01Z" style="fill: rgba(255, 255, 255, 0);"/>
          <path d="m902.11,1143.93l15.39-13.58,15.72-.85,29.19,23.88-.4,13.26-28.43,25.1-15.56.83-17.65-14.43-4.81-.2-11.05,9.75,11.26,9.21,7.87-6.95,16.59,13.57-23.45,20.7-44.44-36.35,36.42-32.15,15.56-.83,17.65,14.43,4.8.2,8.87-7.83-.39-4.04-6.13-5.01-4.74-.16-5.69,5.02-16.59-13.57h.01Z" style="fill: rgba(255, 255, 255, 0);"/>
          <path d="m937.38,1188.38l-7.78.42-.19,6.62-24.63,21.74-15.57.84-29.19-23.88.4-13.38,15.39-13.58,16.59,13.57-5.69,5.02.37,4.02,6.13,5.01,4.76.18,8.86-7.83-.42-4.07-8.64-7.07,15.58-13.75,8.64,7.07,4.8.21,8.87-7.83-.39-4.04-6.13-5.01-4.74-.16-5.69,5.02-16.59-13.57,15.39-13.58,15.72-.85,29.19,23.88-.4,13.26-24.63,21.74h0Z" style="fill: rgba(255, 255, 255, 0);"/>
          <path d="m917.82,1205.64l-4.14-3.39-5.45,4.81,4.14,3.39-15.58,13.75-24.91-20.37,15.58-13.75,4.14,3.39,5.45-4.81-23.67-19.36,15.58-13.75,49.56-21.71,27.34,22.36-36.6,32.31,4.14,3.39-15.58,13.75h0Zm-5.19-30.73l16.42-14.5-22.09,9.86,5.67,4.63h0Z" style="fill: rgba(255, 255, 255, 0);"/>
          <path d="m892.4,1180.73l-5.69,5.02.37,4.02,6.13,5.01,4.76.18,8.86-7.83-.42-4.07-25.23-20.64,44.39-39.19,44.44,36.35-23.45,20.7-16.59-13.57,7.87-6.95-11.26-9.21-13.24,11.69,20.26,16.57-.38,13.24-28.43,25.1-15.57.84-29.19-23.88.4-13.38,15.39-13.58,16.59,13.57h-.01Z" style="fill: rgba(255, 255, 255, 0);"/>
          <path d="m946.55,1180.28l-16.59-13.57,5.69-5.02-.37-4.02-6.13-5.01-4.76-.18-11.05,9.76,20.19,16.51-.4,13.38-28.27,24.96-15.72.85-29.19-23.88.4-13.26,57.23-50.52,15.57-.85,29.19,23.88-.4,13.38-15.39,13.58h0Zm-48.78-4.29l-11.06,9.76.39,4.04,6.13,5.01,4.74.16,8.87-7.83-.37-4.02-8.7-7.12h0Z" style="fill: rgba(255, 255, 255, 0);"/>
          <path d="m954.43,1173.33l-57.43,24.55,5.16,4.22-15.57,13.75-29.05-23.76,15.57-13.75,7.27,5.94,57.45-24.54-11.23-9.19-7.87,6.95-16.59-13.57,23.45-20.7,44.44,36.35-15.58,13.75h-.02Z" style="fill: rgba(255, 255, 255, 0);"/>
          <path d="m962.01,1166.63l-24.63,21.75-7.78.42-.19,6.62-24.56,21.68-15.65.91-29.19-23.88.4-13.38,24.56-21.68,7.78-.41.19-6.62,24.63-21.75,15.64-.79,29.19,23.88-.4,13.26h.01Zm-35.23,2.88l8.87-7.83-.39-4.04-6.1-4.99-4.76-.18-8.86,7.83.42,4.07,6.03,4.93,4.8.2h-.01Zm-28.82,25.44l8.86-7.83-.42-4.07-6.03-4.93-4.8-.2-8.86,7.83.39,4.04,6.1,4.99,4.76.18h0Z" style="fill: rgba(255, 255, 255, 0);"/>
          <path d="m892.4,1180.73l-5.69,5.02.37,4.02,6.13,5.01,4.76.18,11.05-9.76-20.19-16.51.4-13.38,28.27-24.96,15.72-.85,29.19,23.88-.4,13.26-57.23,50.53-15.57.85-29.19-23.88.4-13.38,15.39-13.58,16.59,13.57v-.02Zm32.2-9.28l11.06-9.76-.39-4.04-6.13-5.01-4.74-.16-8.87,7.83.37,4.02,8.7,7.12h0Z" style="fill: rgba(255, 255, 255, 0);"/>
        </g>
        <g>
          <path d="m840.05,1137.91l-5.69,5.02.37,4.02,6.13,5.01,4.76.18,11.05-9.76-20.19-16.51.4-13.38,28.27-24.96,15.72-.85,29.19,23.88-.4,13.26-57.23,50.53-15.57.85-29.19-23.88.4-13.38,15.39-13.58,16.59,13.57v-.02Zm32.2-9.28l11.06-9.76-.39-4.04-6.13-5.01-4.74-.16-8.87,7.83.37,4.02,8.7,7.12h0Z" style="fill: rgba(255, 255, 255, 0);"/>
          <path d="m909.67,1123.81l-24.63,21.75-7.78.41-.19,6.62-24.56,21.68-15.65.91-29.19-23.88.4-13.38,24.56-21.68,7.78-.42.19-6.62,24.63-21.75,15.64-.79,29.19,23.88-.4,13.26h.01Zm-35.23,2.88l8.87-7.83-.39-4.04-6.1-4.99-4.76-.18-8.87,7.83.42,4.07,6.03,4.93,4.8.2h0Zm-28.82,25.44l8.86-7.83-.42-4.07-6.03-4.93-4.81-.2-8.86,7.83.39,4.04,6.1,4.99,4.76.18h.01Z" style="fill: rgba(255, 255, 255, 0);"/>
          <path d="m902.08,1130.51l-57.43,24.55,5.16,4.22-15.57,13.75-29.05-23.76,15.57-13.75,7.27,5.94,57.44-24.54-11.23-9.19-7.87,6.95-16.59-13.57,23.45-20.7,44.44,36.35-15.58,13.75h-.01Z" style="fill: rgba(255, 255, 255, 0);"/>
          <path d="m894.2,1137.46l-16.59-13.57,5.69-5.02-.37-4.02-6.13-5.01-4.76-.18-11.05,9.76,20.19,16.51-.4,13.38-28.27,24.96-15.72.85-29.19-23.88.4-13.26,57.23-50.52,15.57-.85,29.19,23.88-.4,13.38-15.39,13.58h0Zm-48.78-4.29l-11.06,9.76.39,4.04,6.13,5.01,4.74.16,8.87-7.83-.37-4.02-8.7-7.12h0Z" style="fill: rgba(255, 255, 255, 0);"/>
          <path d="m840.05,1137.91l-5.69,5.02.37,4.02,6.13,5.01,4.76.18,8.86-7.83-.42-4.07-25.23-20.64,44.39-39.19,44.44,36.35-23.45,20.7-16.59-13.57,7.87-6.95-11.26-9.21-13.24,11.69,20.26,16.57-.38,13.24-28.43,25.1-15.57.85-29.19-23.88.4-13.38,15.39-13.58,16.59,13.57h-.01Z" style="fill: rgba(255, 255, 255, 0);"/>
          <path d="m865.48,1162.82l-4.14-3.39-5.45,4.81,4.14,3.39-15.58,13.75-24.91-20.37,15.58-13.75,4.14,3.39,5.45-4.81-23.67-19.36,15.58-13.75,49.56-21.71,27.34,22.36-36.6,32.31,4.14,3.39-15.58,13.75h0Zm-5.19-30.73l16.42-14.5-22.09,9.86,5.67,4.63h0Z" style="fill: rgba(255, 255, 255, 0);"/>
          <path d="m885.03,1145.56l-7.78.41-.19,6.62-24.63,21.74-15.57.85-29.19-23.88.4-13.38,15.39-13.58,16.59,13.57-5.69,5.02.37,4.02,6.13,5.01,4.76.18,8.86-7.83-.42-4.07-8.64-7.07,15.58-13.75,8.64,7.07,4.8.21,8.87-7.83-.39-4.04-6.13-5.01-4.74-.16-5.69,5.02-16.59-13.57,15.39-13.58,15.72-.85,29.19,23.88-.4,13.26-24.63,21.75h0Z" style="fill: rgba(255, 255, 255, 0);"/>
          <path d="m849.77,1101.11l15.39-13.58,15.72-.85,29.19,23.88-.4,13.26-28.43,25.1-15.56.83-17.65-14.43-4.81-.2-11.05,9.75,11.26,9.21,7.87-6.95,16.59,13.57-23.45,20.7-44.44-36.35,36.42-32.15,15.56-.83,17.65,14.43,4.8.2,8.87-7.83-.39-4.04-6.13-5.01-4.74-.16-5.69,5.02-16.59-13.57h.01Z" style="fill: rgba(255, 255, 255, 0);"/>
          <path d="m855.82,1164.2l4.14,3.39-15.58,13.75-24.9-20.37,15.58-13.75,4.14,3.39,42.06-37.13-4.14-3.39,15.58-13.75,20.75,16.98-57.62,50.88h-.01Z" style="fill: rgba(255, 255, 255, 0);"/>
          <path d="m910,1110.5l-.4,13.38-57.08,50.39-15.72.85-29.19-23.88.4-13.22,57.23-50.56,15.57-.85,29.19,23.88h0Zm-24.51,6.44l-11.23-9.19-42.06,37.13,11.23,9.19,42.06-37.13Z" style="fill: rgba(255, 255, 255, 0);"/>
        </g>
      </g>
    </g>
    <g>
      <path d="m1042,1368.11s-68-35-155,69c-8,22-2,37-3,60s-12,48-58,48c-3,4-13.2,54.89-13.2,54.89,0,0,43.96-3.7,53.08-11.29s3.34-9.01-4.52-13.55-6.29-27.19,12.42-29.36,48.23-14.74,56.47-21.46c8.24-6.72,20.41-20.08,20.33-38.4-.08-18.32-5.63-32.92,36.14-62.12,41.77-29.2,73.77-44.2,55.27-55.7h.01Z" style="isolation: isolate; opacity: .2;"/>
      <path d="m1053.36,1391.06s43.43,142.37,105.04,150.21c0,0-35.4-1.16-31.4,32.84s14.45,142.22,14.45,142.22c0,0-44.9-5.15-45.18-14.68s-5.27-114.94-6.78-124.24-15.48-27.26,2.26-39.53c0,0-57.54-62.38-38.4-146.82h.01Z" style="isolation: isolate; opacity: .2;"/>
      <path d="m1104.5,1705.61l8.44,136.65s38.12,14.69,56.56,13.35c0,0-47.5-110.49,92.5-114.49s173-6,186,19,31.71-8.49,31.71-8.49l9.32-38.12s-96.49,18.39-203.01,15.25-181.52-23.14-181.52-23.14h0Z" style="isolation: isolate; opacity: .2;"/>
      <path d="m1471,1652.11s105-2,126-6-7.77,18.82-30.89,23.91c-23.11,5.09,6.78,45.18,6.78,45.18l-45.18-1.13s4.42-32.88-5.65-42.92c-10.07-10.04-28.4,8.44-28.24,19.2.17,10.76-5.83-38.24-22.83-38.24h.01Z" style="isolation: isolate; opacity: .2;"/>
      <path d="m1880,1758.11s-17-26-140-21-170,11-170,57c0,0-6.43,8.29-24.22.15-17.78-8.15-26.13-15.69-21.46-42.92,4.68-27.23-8.49-39.93,17.68-37.23,271,28,346-21,346-21l-8,65h0Z" style="isolation: isolate; opacity: .2;"/>
      <path d="m1938.82,1318.78s133.35,152.21,355.76,133.27c0,0-106.05,76.56-273.32,15.81-67.26-33.75-88.26-41.75-88.26-41.75,0,0,16.64-90.67,5.82-107.33h0Z" style="isolation: isolate; opacity: .2;"/>
      <path d="m1892.54,1020.62c-43.06,27-93.79,49.42-153.57,64.58-.49.74-1.07,1.26-1.75,1.49-7.62,2.54-61.47,11.21-61.47,11.21l-18.25,42.72c-95.81,16.66-206,0-206,0l-57.8-35.94c-12.45.14-48.7-6.32-70.49-10.43h-2.52c-1.06-.18-2.13-.37-3.19-.56-96.61-17.86-179.4-48.62-249.43-85.05l-13.66.6s221.36,160.38,505.98,146.82c198.08-9.43,291.82-83.41,333.48-134.96-.45-.15-.89-.33-1.34-.48h.01Z" style="isolation: isolate; opacity: .2;"/>
    </g>
    <g>
      <path d="m2181.65,1487.73c118.43-15.71,192.68-78.71,214.85-110.12,24-34,13.54-56.61,13.54-56.61,0,0-2.88-2.08-7.98-5.79-36.06-26.26-182.91-134.35-202.83-167.62-2.79-4.67-5.41-8.22-7.86-10.86-17.41-18.81-25.87,8.88-25.87,8.88,0,0,0,7.69-13.39,8.65-4.7.34-11.04-.15-19.61-2.09-5.4-1.23-11.69-3.03-19-5.56-.66-.23-1.33-.47-2.01-.73-5.11-1.95-10.88-4.79-17.22-8.33-46.92-26.19-125.24-90.75-201.73-116.93-47.61,29.86-104.61,54.11-172.84,69.14-14.16,3.12-28.8,5.84-43.95,8.13-6.59,18.81-13.3,35.65-18.25,42.72-105,14-206,0-206,0l-57.8-35.94c-26.3-2.76-51.69-6.46-76.19-10.99-113.48-20.98-207.9-59.75-284.96-104.6-29.25,8.69-130.95,43.27-237.72,130.25-9.05,7.37-18.13,15.12-27.21,23.26-9.48,8.49-18.48,16.83-27.04,25-21.23,20.28-39.72,39.54-55.89,57.65-15.19,17.02-28.33,33.03-39.77,47.92-42.01,54.74-60.91,94.39-73.42,113.45-4.9,7.47,4.31,24.47,23.21,44.81,49.4,53.16,165,129.06,267.71,116.82,26.32-3.14,51.79-12.06,75.08-28.63,22-16,4.17-51.61,13.08-65.31,1.74-2.68,6-6.97,11.85-12.17,4.32-3.84,9.51-8.18,15.18-12.71,7.83-6.28,16.6-12.94,25.3-19.22,6.82-4.93,13.61-9.63,19.87-13.72,10.35-6.78,19.28-11.92,24.65-13.79.97-.33,1.82-.56,2.54-.67,0,0-.03.3-.08.89-.34,3.99-1.58,21.07-.35,42.93.7,12.54,2.22,26.65,5.19,40.77,3.13,14.86,7.87,29.71,14.95,42.74,9.23,16.96,22.44,30.82,41.28,37.57,74.54,26.69,779.54-.31,779.54-.31,0,0,28.81-9.15,40.35-47.24,3.77-12.43,5.7-27.95,4.17-47.25-.7-8.99-2.15-18.81-4.52-29.51,0,0,24.84,15.01,61.18,30.96,20.63,9.06,44.98,18.42,70.59,25.51,24.61,6.81,50.4,11.52,75.19,11.84,4.72.06,9.41-.04,14.04-.31,10.35-.61,20.4-1.58,30.15-2.88h0Z" style="fill: none; stroke: #000; stroke-linecap: round; stroke-linejoin: round; stroke-width: 13px;"/>
      <path d="m594.82,1430.59l-.11.83-9.21,71.19s-26,13-6,30,145.13,94.22,270.57,60.61c0,0,32.43-4.61,18.43-16.61l-13.92-7.11,7.84-21.26.07-.19" style="fill: none; stroke: #000; stroke-linecap: round; stroke-linejoin: round; stroke-width: 13px;"/>
      <path d="m2191.5,1136.61l15-13s-14.9-46.19,12-23c29,25,220,190,220,190,0,0,3.63,21.67-19.68,7.84l-16.76,16.76-.18.18" style="fill: none; stroke: #000; stroke-linecap: round; stroke-linejoin: round; stroke-width: 13px;"/>
      <path d="m1929.5,1287.61s10.27,41.58,9.1,85.02c-.35,12.82-1.68,25.8-4.57,37.92-.99,4.14-2.16,8.17-3.53,12.06" style="fill: none; stroke: #000; stroke-linecap: round; stroke-linejoin: round; stroke-width: 13px;"/>
    </g>
    <g id="clothing-shoes">
      <g>
        <g>
          <g>
            <path d="m1902.29,1814.69l-.27.34c28.6,22.95,38.59,53.33,38.59,53.33,0,0,92.4,61.97,97.65,94.23l-.15.37c38.98,15.33,84.93,46.68,84.93,46.68,32.24,14.35,43.73,36.78,45.73,58.87,1.26,13.85-1.22,27.56-4.67,39.06-6.11,11.87-38.14,59.84-171.07,71.82-153.84,13.88-206.3-24.04-291.54-48.72-.68-.2-1.37-.4-2.06-.59-43.83-12.61-94.03-24.14-132.35-32.34-33.83-7.24-58.4-11.89-61.2-12.42-7.74-24.31-11.1-49.85-10.94-70.16.16-19.66,7.12-54.49,12.84-79.92v-.03l.02-.07.03-.14.24-1.05c.26-1.17.52-2.33.78-3.46l.11-.49v-.02h0c3.49-15.18,6.25-25.9,6.25-25.9-.63-.82-1.21-1.64-1.77-2.45,1.08.24,2.2.5,3.36.77-10.31-11.22-10.63-28.85-6.16-41.83,4.47-7.46,10.87-13.04,15.4-16.37,3.19-2.35,5.45-3.59,5.45-3.59-34-32,0-56,0-56,44,34,116,20,116,20l.63.14c.58-2.73,1.36-5.45,2.37-8.14,0,0,37.31-38.99,80.65,8.32l.35-.32c-8.94-17.04,13.12-38.86,46-44,32-5,69.25,7.22,83,21l3.66,1.45c5.55-14.58,21.03-19.67,28.34-18.45,12,2,9.79,50.08,9.79,50.08h.01Zm-147.48,24.25c-.05-.06-.08-.13-.13-.19-.56-.78-1.03-1.55-1.46-2.3.41.72.81,1.48,1.22,2.22.04.03.08.06.11.08.17.12.26.19.26.19Z" style="fill: #2d2d2d;"/>
            <g>
              <path d="m1952.98,1910.67c-20.01-13.96-38.12-27.55-44.87-35.32-1.79-2.05-3.46-3.99-5.05-5.83" style="fill: #fff; stroke: #000; stroke-linecap: round; stroke-linejoin: round; stroke-width: 13px;"/>
              <path d="m1994.2,1938.44c17.76,11.63,31.08,20.01,31.08,20.01,4.14,1.25,8.44,2.78,12.83,4.51,38.98,15.33,84.93,46.68,84.93,46.68" style="fill: #fff; stroke: #000; stroke-linecap: round; stroke-linejoin: round; stroke-width: 13px;"/>
              <path d="m1957.06,1913.51c-1.37-.95-2.73-1.89-4.08-2.84" style="fill: #fff; stroke: #000; stroke-linecap: round; stroke-linejoin: round; stroke-width: 13px;"/>
              <path d="m1731.5,1804.61c-8.94-17.04,17.12-42.86,50-48,32-5,65.25,11.22,79,25" style="fill: none; stroke: #000; stroke-linecap: round; stroke-linejoin: round; stroke-width: 13px;"/>
              <path d="m1903.06,1869.52c-.32-.37-.63-.73-.94-1.09" style="fill: #fff; stroke: #000; stroke-linecap: round; stroke-linejoin: round; stroke-width: 13px;"/>
              <path d="m1507.83,1935c.08-.36.16-.7.24-1.05" style="fill: #fff; stroke: #000; stroke-linecap: round; stroke-linejoin: round; stroke-width: 13px;"/>
              <path d="m1508.97,1929.98s0,.01-.01.02" style="fill: #fff; stroke: #000; stroke-linecap: round; stroke-linejoin: round; stroke-width: 13px;"/>
              <path d="m1508.97,1929.97c3.49-15.17,6.25-25.89,6.25-25.89" style="fill: #fff; stroke: #000; stroke-linecap: round; stroke-linejoin: round; stroke-width: 13px;"/>
              <path d="m1994.2,1938.44c-11.34-7.43-24.49-16.18-37.14-24.93" style="fill: #fff; stroke: #000; stroke-linecap: round; stroke-linejoin: round; stroke-width: 13px;"/>
              <path d="m1869.67,1821.97c12.16,14.16,19.02,30.89,32.45,46.46" style="fill: #fff; stroke: #000; stroke-linecap: round; stroke-linejoin: round; stroke-width: 13px;"/>
              <path d="m1869.67,1821.97c-.39-.45-.77-.91-1.17-1.36" style="fill: #fff; stroke: #000; stroke-linecap: round; stroke-linejoin: round; stroke-width: 13px;"/>
              <path d="m1507.78,1935.24c-5.72,25.43-12.68,60.26-12.84,79.92-.16,20.31,3.2,45.85,10.94,70.16" style="fill: none; stroke: #000; stroke-linecap: round; stroke-linejoin: round; stroke-width: 13px;"/>
              <path d="m2164.1,2107.57c3.45-11.5,5.93-25.21,4.67-39.06" style="fill: #fff; stroke: #000; stroke-linecap: round; stroke-linejoin: round; stroke-width: 13px;"/>
              <path d="m2123.04,2009.64c32.24,14.35,43.73,36.78,45.73,58.87" style="fill: none; stroke: #000; stroke-linecap: round; stroke-linejoin: round; stroke-width: 13px;"/>
              <path d="m1901.5,1814.61c.17.14.35.28.52.42,28.6,22.95,38.59,53.33,38.59,53.33,0,0,92.4,61.97,97.65,94.23" style="fill: #fff; stroke: #000; stroke-linecap: round; stroke-linejoin: round; stroke-width: 13px;"/>
              <path d="m1567.08,2097.74c38.32,8.2,88.52,19.73,132.35,32.34" style="fill: #fff; stroke: #000; stroke-linecap: round; stroke-linejoin: round; stroke-width: 13px;"/>
              <path d="m2164.1,2107.57c.96-1.87,1.29-2.93,1.29-2.93" style="fill: #fff; stroke: #000; stroke-linecap: round; stroke-linejoin: round; stroke-width: 13px;"/>
              <path d="m1567.08,2097.74c-33.83-7.24-58.4-11.89-61.2-12.42" style="fill: #fff; stroke: #000; stroke-linecap: round; stroke-linejoin: round; stroke-width: 13px;"/>
              <path d="m1505.88,2085.32c-.18-.03-.27-.05-.27-.05" style="fill: #fff; stroke: #000; stroke-linecap: round; stroke-linejoin: round; stroke-width: 13px;"/>
              <path d="m1699.43,2130.08c.69.19,1.38.39,2.06.59,85.24,24.68,139.17,67.82,293.01,53.94,132.93-11.98,164-58,169-75" style="fill: none; stroke: #000; stroke-linecap: round; stroke-linejoin: round; stroke-width: 13px;"/>
              <path d="m1508.5,1900.61c1.52.28,3.18.63,4.95,1.02" style="fill: #fff; stroke: #000; stroke-linecap: round; stroke-linejoin: round; stroke-width: 13px;"/>
              <path d="m1516.81,1902.4c-1.16-.27-2.28-.53-3.36-.77" style="fill: #fff; stroke: #000; stroke-linecap: round; stroke-linejoin: round; stroke-width: 13px;"/>
              <path d="m1515.22,1904.08s2.12.95,6.13,2.36" style="fill: #fff; stroke: #000; stroke-linecap: round; stroke-linejoin: round; stroke-width: 13px;"/>
              <path d="m1699.43,2130.08c-.02.21-.02.43-.03.64" style="fill: #fff; stroke: #000; stroke-linecap: round; stroke-linejoin: round; stroke-width: 13px;"/>
              <path d="m1901.5,1981.61c1.59-22.78-170.35-176.68-170.35-176.68-43.34-47.31-80.65-8.32-80.65-8.32-1.01,2.69-1.79,5.41-2.37,8.14-6.33,29.69,26.84,55.03,26.84,55.03,0,0,91.53,98.83,118.53,114.83s105,50,108,7Z" style="fill: none; stroke: #000; stroke-linecap: round; stroke-linejoin: round; stroke-width: 13px;"/>
              <path d="m1508.96,1930c-.43,1.54-.81,3.2-1.13,5" style="fill: #fff; stroke: #000; stroke-linecap: round; stroke-linejoin: round; stroke-width: 13px;"/>
              <path d="m1526.05,1844.2c3.19-2.35,5.45-3.59,5.45-3.59-34-32,0-56,0-56,44,34,116,20,116,20" style="fill: none; stroke: #000; stroke-linecap: round; stroke-linejoin: round; stroke-width: 13px;"/>
              <path d="m1515.22,1904.08c-.63-.82-1.21-1.64-1.77-2.45" style="fill: #fff; stroke: #000; stroke-linecap: round; stroke-linejoin: round; stroke-width: 13px;"/>
              <path d="m1526.05,1844.2c-4.53,3.33-10.93,8.91-15.4,16.37" style="fill: #fff; stroke: #000; stroke-linecap: round; stroke-linejoin: round; stroke-width: 13px;"/>
              <line x1="1508.96" y1="1930" x2="1508.85" y2="1930.49" style="fill: none; stroke: #000; stroke-linecap: round; stroke-linejoin: round; stroke-width: 13px;"/>
              <path d="m1508.85,1930.49c-.26,1.13-.52,2.29-.78,3.46" style="fill: #fff; stroke: #000; stroke-linecap: round; stroke-linejoin: round; stroke-width: 13px;"/>
              <polyline points="1508.07 1933.95 1507.83 1935 1507.8 1935.14" style="fill: #fff; stroke: #000; stroke-linecap: round; stroke-linejoin: round; stroke-width: 13px;"/>
              <line x1="1507.8" y1="1935.14" x2="1507.78" y2="1935.21" style="fill: none; stroke: #000; stroke-linecap: round; stroke-linejoin: round; stroke-width: 13px;"/>
              <line x1="1508.96" y1="1930" x2="1508.97" y2="1929.98" style="fill: none; stroke: #000; stroke-linecap: round; stroke-linejoin: round; stroke-width: 13px;"/>
              <path d="m1526.05,1844.2c-2.67.02-5.43,1.09-8.11,3.78-2.97,2.98-5.51,7.42-7.29,12.59" style="fill: #fff; stroke: #000; stroke-linecap: round; stroke-linejoin: round; stroke-width: 13px;"/>
              <path d="m1510.65,1860.57c-4.47,12.98-4.15,30.61,6.16,41.83" style="fill: #fff; stroke: #000; stroke-linecap: round; stroke-linejoin: round; stroke-width: 13px;"/>
              <path d="m1508.97,1929.97h0" style="fill: #fff; stroke: #000; stroke-linecap: round; stroke-linejoin: round; stroke-width: 13px;"/>
              <path d="m1507.78,1935.24v-.03" style="fill: #fff; stroke: #000; stroke-linecap: round; stroke-linejoin: round; stroke-width: 13px;"/>
              <path d="m1902.29,1814.69s2.21-48.08-9.79-50.08c-7.31-1.22-22.79,3.87-28.34,18.45-3.44,9.05-3.06,21.77,5.51,38.91" style="fill: none; stroke: #000; stroke-linecap: round; stroke-linejoin: round; stroke-width: 13px;"/>
            </g>
          </g>
          <path d="m1572.89,1803.07s-16.39,18.28,1.61,35.95c0,0-28.74,20.03-3.87,56.83,0,0-47.13,99.51,49.87,136.61s287.2,78.98,390.6,58.92,137.84-18.68,145.9-54.28c0,0,33,35.17-6,97,0,0-106,89-301,44-146.37-33.78-315.4-79.23-334-89s-36.58-61.53-21.04-132.4c15.54-70.87,14.68-76.82,14.68-76.82,0,0-15.65-42.31,27.11-46.89,0,0-44.3-27.56-6.78-43.9,0,0,37.31,19.54,42.92,13.97h0Z" style="isolation: isolate; opacity: .2;"/>
        </g>
        <g>
          <g>
            <path d="m1556.59,2031.77l1.71-.15c-6.46-30.63-73.52-155.56-75.14-157.91h-.62c.11-6.4.23-10.81.35-12.42,2.38-34.32-7.39-53.68-7.39-53.68,0,0-9-19-27-13-6.03,2.01-9.12,9.08-10.56,17.58l-3.44-.58c-12.23-13.26-31-39-107.31-37.01-78.72,2.05-100.45,43.94-100.45,43.94l-1.81.1c-.18-2.89-.17-5.75.07-8.53,1.52-17.38-48.67-19.71-67.72-.61l-1.27-1.88s-41.51-7.01-45.51-27.01c0,0-28,10-4,39,0,0-27.54,40.66-9.27,70.83h-.1c-1.5,13.9-6.07,27.3-11.76,39.95-9.69,21.6-24.77,76.67-11.85,100.42,0,0-.3,39.86,27.04,84.89,35.71,58.87,113.9,152.96,306.44,149.41,147.25-2.71,168.79-81.82,178.43-125.71-.13-.4-.2-.61-.2-.61,0,0,12.69-66.97-28.64-107.02Z" style="fill: #2d2d2d;"/>
            <g>
              <line x1="1097.13" y1="1890.43" x2="1097.23" y2="1890.44" style="fill: none; stroke: #000; stroke-linecap: round; stroke-linejoin: round; stroke-width: 13.37px;"/>
              <line x1="1173.2" y1="1915.53" x2="1171.56" y2="1916.36" style="fill: none; stroke: #000; stroke-linecap: round; stroke-linejoin: round; stroke-width: 13.37px;"/>
              <path d="m1226.74,1818.54s21.73-41.89,100.45-43.94c76.31-1.99,95.08,23.75,107.31,37.01" style="fill: none; stroke: #000; stroke-linecap: round; stroke-linejoin: round; stroke-width: 13.37px;"/>
              <path d="m1511.9,1998.61l4.6,42c-45,9-74.39-9.02-73.31-26.07,1.07-17.04-3.69-162.93-3.69-162.93" style="fill: none; stroke: #000; stroke-linecap: round; stroke-linejoin: round; stroke-width: 13.37px;"/>
              <path d="m1243.74,1875.54c5.76,11.07,45.39,88.14,74.48,130.25,29.09,42.1-30.02,57.81-53.72,60.82" style="fill: none; stroke: #000; stroke-linecap: round; stroke-linejoin: round; stroke-width: 13.37px;"/>
              <path d="m1097.13,1890.43c-1.5,13.91-6.07,27.31-11.76,39.96-9.69,21.6-24.77,76.67-11.85,100.42" style="fill: none; stroke: #000; stroke-linecap: round; stroke-linejoin: round; stroke-width: 13.37px;"/>
              <path d="m1438.72,1851.58s-3.63-22.53-.78-39.39c1.44-8.5,4.53-15.57,10.56-17.58,18-6,27,13,27,13,0,0,9.77,19.36,7.39,53.68-.12,1.61-.24,6.02-.35,12.41-.52,32.13,2.28,114.43,55.29,144.15,7.24,4.06,13.45,8.77,18.76,13.92,41.33,40.05,28.64,107.02,28.64,107.02,0,0,.07.21.2.61" style="fill: none; stroke: #000; stroke-linecap: round; stroke-linejoin: round; stroke-width: 13.37px;"/>
              <path d="m1587.39,2126.9c-.38,4.04-1.02,8.21-1.96,12.5" style="fill: none; stroke: #000; stroke-linecap: round; stroke-linejoin: round; stroke-width: .48px;"/>
              <path d="m1585.43,2139.4c-9.64,43.89-24.93,129.21-187.93,127.21-192.56-2.36-261.23-92.04-296.94-150.91-27.34-45.03-27.04-84.89-27.04-84.89" style="fill: none; stroke: #000; stroke-linecap: round; stroke-linejoin: round; stroke-width: 13.37px;"/>
              <path d="m1262.5,2067.61c-8.01-9.18-83.98-142.99-89.3-152.08" style="fill: none; stroke: #000; stroke-linecap: round; stroke-linejoin: round; stroke-width: 13.37px;"/>
              <path d="m1244.5,1875.61s-.08-.13-.22-.38c-2.06-3.56-17.81-31.52-19.35-56.59-.18-2.89-.17-5.75.07-8.53,1.52-17.38-48.67-19.71-67.72-.61-1.69,1.7-3.14,3.57-4.28,5.61-14,25,1.25,61.74,1.25,61.74,0,0,4.22,13.54,18.95,38.68" style="fill: none; stroke: #000; stroke-linecap: round; stroke-linejoin: round; stroke-width: 13.37px;"/>
              <path d="m1156.01,1807.62s-41.51-7.01-45.51-27.01c0,0-28,10-4,39,0,0-27.54,40.66-9.27,70.83,0,0,30.16,32.4,74.33,25.92" style="fill: none; stroke: #000; stroke-linecap: round; stroke-linejoin: round; stroke-width: 13.37px;"/>
              <path d="m1483.16,1873.71c1.62,2.35,68.68,127.28,75.14,157.91" style="fill: none; stroke: #000; stroke-linecap: round; stroke-linejoin: round; stroke-width: 13.37px;"/>
            </g>
          </g>
          <path d="m1142,1835.11s-32,19-28.08,65.41c-1.62,7.41-45.25,88.98-21.01,167.58s195.53,100.84,290.87,100.84,184.67-35.45,199.22-74.83c0,0,11.24,60.93-13,98s-68.53,99.74-250,68c-173.68-30.38-225.15-148.14-230-160s-22.94-55.74-19.71-69.09-9.7-45.97,3.23-75.63c12.93-29.66,19.39-41.52,22.62-59.32s-.84-71.51,8.85-75.96c9.7-4.45,27,11,27,11l10,4h.01Z" style="isolation: isolate; opacity: .2;"/>
        </g>
        <g style="clip-path: url(#clippath-1);">
          <g>
            <g>
              <g>
                <path d="m2122,2198.82c-4.88,10.53-11.76,19.8-21.5,26.29-36,24-158.13-16.06-158.13-16.06l-242.82-86.96-.05-1.12,106-4.86s263.38,82.29,314.19,81.65l2.31,1.06h0Z" style="fill: #9aa3b7;"/>
                <path d="m2110.81,2266.04c-26.95,10.7-61.13,7.87-83.42,5.48-52.1-5.59-439.89-145.41-439.89-145.41l4.5-21,107.5,15.86.05,1.12,242.82,86.96s122.13,40.06,158.13,16.06c9.74-6.49,16.62-15.76,21.5-26.29,12.91-27.84,11.82-64.48,12.46-81.71h.04c35.47,96.12,12.35,134.63-23.69,148.93h0Z" style="fill: #778191;"/>
                <path d="m2165.5,2099.11s42,54,20,116c0,0-10.48,34.93-74.69,50.93,36.04-14.3,59.16-52.81,23.69-148.93,0,0,12-33,31-18Z" style="fill: #9aa3b7;"/>
              </g>
              <g>
                <path d="m2096.5,2269.11c5.04-.92,9.81-1.95,14.31-3.07,64.21-16,74.69-50.93,74.69-50.93,22-62-20-116-20-116-19-15-31,18-31,18,35.47,96.12,12.35,134.63-23.69,148.93-26.95,10.7-61.13,7.87-83.42,5.48-52.1-5.59-439.89-145.41-439.89-145.41l1-22.5,111,17.36,106-4.86s263.38,82.29,314.19,81.65" style="fill: none; stroke: #000; stroke-linecap: round; stroke-linejoin: round; stroke-width: 13px;"/>
                <path d="m2134.5,2116.11c-.01.33-.03.66-.04,1-.64,17.23.45,53.87-12.46,81.71-4.88,10.53-11.76,19.8-21.5,26.29-36,24-158.13-16.06-158.13-16.06l-242.82-86.96" style="fill: none; stroke: #000; stroke-linecap: round; stroke-linejoin: round; stroke-width: 13px;"/>
              </g>
            </g>
            <polygon points="1958.02 2190.68 2035.5 2208.61 2038.5 2172.61 1958.02 2190.68" style="fill: #595f7a; stroke: #000; stroke-linecap: round; stroke-linejoin: round; stroke-width: 13px;"/>
            <polygon points="2035.5 2208.61 2075.5 2198.61 2077.5 2163.61 2038.5 2172.61 2035.5 2208.61" style="fill: #687387; stroke: #000; stroke-linecap: round; stroke-linejoin: round; stroke-width: 13px;"/>
          </g>
        </g>
        <g>
          <g>
            <path d="m1376.11,2269.61h43.8c-17.14,38.96-39.8,6.28-43.8,0Z" style="fill: #778191;"/>
            <path d="m1410.51,2367.61c-25.01-5-91.01-107-91.01-107l56.01,8s.22.37.61,1c4,6.28,26.66,38.96,43.8,0,.13-.27.25-.55.37-.82,4.9-11.44,9.32-28.84,12.73-54.48,17.02,47.06,8.26,148.47-17.79,153.44h-.01c-1.51.29-3.07.25-4.69-.13h-.02Z" style="fill: #778191;"/>
            <path d="m1497.11,2347.48c-11.83,24.19-71.06,21.06-81.9,20.26,26.05-4.97,34.8-106.38,17.79-153.44,0,0,26.5-29.69,52.5-5.69l1,1.99c12.99,39.88,23.48,111.92,11.01,137l-.39-.13h-.01Z" style="fill: #9aa3b7;"/>
          </g>
          <g>
            <path d="m1415.2,2367.74c-1.1-.08-1.7-.13-1.7-.13" style="fill: none; stroke: #000; stroke-linecap: round; stroke-linejoin: round; stroke-width: 13px;"/>
            <path d="m1497.51,2346.61c-.13.29-.27.59-.39.87-11.83,24.19-71.06,21.06-81.9,20.26" style="fill: none; stroke: #000; stroke-linecap: round; stroke-linejoin: round; stroke-width: 13px;"/>
            <path d="m1433,2214.31c17.02,47.06,8.26,148.47-17.79,153.44h-.01c-1.51.29-3.07.25-4.69-.13-25.01-5-91.01-107-91.01-107l56.01,8s.22.37.61,1c4,6.28,26.66,38.96,43.8,0,.13-.27.25-.55.37-.82,4.9-11.44,9.32-28.84,12.73-54.48,0,0,26.5-29.69,52.5-5.69" style="fill: none; stroke: #000; stroke-linecap: round; stroke-linejoin: round; stroke-width: 13px;"/>
            <path d="m1497.51,2347.61c12.47-25.08,1.99-97.13-11.01-137" style="fill: none; stroke: #000; stroke-linecap: round; stroke-linejoin: round; stroke-width: 13px;"/>
            <polyline points="1375.5 2269.61 1376.11 2269.61 1419.91 2269.61 1420.5 2269.61" style="fill: none; stroke: #000; stroke-linecap: round; stroke-linejoin: round; stroke-width: 13px;"/>
          </g>
        </g>
        <path d="m1297.89,2039.86c-3.61,0-5.83-.66-7.43-3.26-1.48-2.4-1.23-5.56.6-7.71,2.19-2.57,6.93-8.14,60.63-25.97-27.6-3.61-56.16-7.28-80.5-10.36-2.37-.3-4.39-1.88-5.25-4.11-.86-2.23-.43-4.75,1.13-6.57,1.74-2.03,3.81-4.45,46.03-15.69-18.87-1.88-37.2-3.63-53.19-5.11-2.51-.23-4.66-1.89-5.52-4.26s-.27-5.02,1.52-6.8c2.13-2.13,5.98-5.98,46.22-15.47-22.1-1.09-43.69-2.11-62.41-2.94-2.61-.12-4.9-1.79-5.81-4.24s-.26-5.21,1.65-7c3.35-3.14,11.15-7.38,43.72-15.07,7.18-1.7,15.27-3.49,24.22-5.36-31.46-2.93-63.13-5.69-89.52-7.85-2.74-.22-5.04-2.15-5.75-4.81-.71-2.66.33-5.47,2.6-7.03,9.88-6.79,35.27-15.03,75.75-24.6-33.47-3.79-65.68-6.94-90.13-9.07-3.58-.31-6.22-3.46-5.91-7.04s3.46-6.21,7.04-5.91c4.74.41,64.95,5.71,127.22,13.53,6.52-1.37,13.29-2.76,20.33-4.18,55.42-11.15,107.61-19.71,108.13-19.8,3.54-.58,6.88,1.82,7.46,5.37.58,3.54-1.82,6.88-5.36,7.46-.47.08-42.54,6.98-91.15,16.45,43.38,6.27,82.02,13.58,96.48,21.06,2.5,1.29,3.88,4.05,3.43,6.83-.46,2.78-2.65,4.95-5.43,5.37-.37.06-28.32,4.34-63.89,10.41,30.64,3.52,54.52,6.95,60.36,9.54,2.62,1.16,4.16,3.9,3.81,6.74s-2.52,5.12-5.35,5.6c-16.7,2.88-33.7,5.93-50.32,9.03,27.92,1.78,49.3,3.52,53.63,4.85,2.81.86,4.69,3.51,4.58,6.44-.1,2.94-2.17,5.44-5.03,6.1-20.41,4.73-44.91,10.53-69.2,16.45,36.26,4.09,67.3,8.21,72.95,10.82,2.47,1.14,3.97,3.7,3.76,6.42-.22,2.71-2.1,5.01-4.73,5.74-.28.08-21.16,5.93-47.67,13.88,31.15,4.24,54.98,7.73,57.58,8.79,2.72,1.1,4.41,3.78,4.2,6.65-.37,5.01-5.2,6.19-7.02,6.64-10.81,2.64-56.32,8.4-92,12.53-20.44,2.36-39.46,4.41-53.55,5.76-7.5.72-13.41,1.22-17.56,1.49-2.07.14-3.83.25-5.35.25h0Zm83.9-32.98c-23.26,7.3-39.85,12.94-51.69,17.29,27.71-2.87,66.99-7.52,95.93-11.33-12.8-1.77-27.97-3.81-44.24-5.97h0Zm-81.48-23.72c24.04,3.08,53.15,6.83,80.38,10.44,17.54-5.48,34.8-10.61,48.33-14.57-19.71-2.64-48.36-5.86-78.59-9.03-19.3,4.86-36.86,9.44-50.12,13.16h0Zm-10.1-32.28c16.68,1.6,37.77,3.68,59.37,5.93,4.6-1.15,9.47-2.37,14.62-3.64,17.93-4.43,35.83-8.75,50.85-12.33-17.57-1.18-39.71-2.46-63.34-3.74-24.46,5-45.95,9.77-61.49,13.78h-.01Zm-16.93-30.75c21.67,1.02,49.84,2.39,77.61,3.88,2.86-.58,5.81-1.17,8.85-1.78,19.85-3.95,39.54-7.64,55.55-10.58-17.91-2.27-41.19-4.8-66.55-7.35-36.27,6.73-59.98,11.91-75.47,15.82h.01Zm-32.01-38.8c26.47,2.26,67.7,5.9,107.03,9.84,1.77-.33,3.57-.66,5.38-.99,28.37-5.18,56.34-9.85,75.97-13.03-25.35-5.91-63.86-11.75-104.18-16.85-42.17,8.92-68.17,15.84-84.2,21.02h0Z" style="fill: #fff; stroke: #000; stroke-miterlimit: 10; stroke-width: 4px;"/>
        <path d="m1868.73,1988.18c-3.63,0-5.4-1.09-6.82-3.19-1.77-2.62-1.54-5.97.6-8.54,4.43-5.32,19.56-14.78,41.54-27.47-6.23.14-12.25.28-17.91.41-68.45,1.59-68.98,1.32-71.55.04-2.67-1.33-4.08-4.31-3.44-7.22.76-3.43,1.61-7.24,35.53-22.28-17.24-.64-34.25-1.27-49.42-1.81-3.09-.11-5.67-2.38-6.18-5.43s1.2-6.03,4.09-7.14l35.53-13.59c-26.98-1.51-53.09-2.95-69.56-3.84-2.64-.14-4.93-1.87-5.79-4.37s-.12-5.27,1.86-7.01c1.38-1.21,3.53-3.08,23.06-9.25-24.32-1.27-42.87-2.24-45.12-2.36-2.73-.14-5.08-1.98-5.88-4.6s.13-5.45,2.32-7.09c4.4-3.3,22.45-10.79,44.55-19.29-27.08-1.98-54.66-3.72-78.01-5.01-3.58-.2-6.33-3.27-6.13-6.85s3.28-6.31,6.85-6.13c9.66.54,58.52,3.31,106.05,7.16,33.67-12.47,67.52-24.38,74.43-26.8,3.39-1.18,7.1.59,8.29,3.98,1.19,3.39-.59,7.1-3.98,8.29-14.28,5.01-31.12,11.01-48.17,17.19,31.61,2.99,58.19,6.37,65.69,9.74,2.52,1.13,4.05,3.74,3.81,6.49s-2.19,5.05-4.86,5.74c-13.44,3.44-27.25,7.05-40.67,10.63,28.79,1.47,51.04,2.57,53.06,2.57,3.13,0,5.82,2.24,6.39,5.32.57,3.08-1.14,6.13-4.07,7.25l-22.81,8.73c23.1,1.35,40.72,2.43,43.29,2.75,2.97.37,5.3,2.72,5.65,5.69s-1.38,5.8-4.18,6.84c-9.96,3.73-20.12,7.61-30.06,11.51,34.35,1.38,61.35,2.59,63.36,3.1,2.67.67,4.62,2.84,4.99,5.54.68,5.02-3,7.19-12.84,12.97-2.14,1.26-4.58,2.67-7.25,4.2,36.4-.49,48.56.05,52.17,1.65,2.46,1.09,3.99,3.59,3.85,6.28s-1.93,5.01-4.49,5.84c-.34.11-33.96,11-67.53,21.17-19.76,5.99-35.66,10.56-47.25,13.6-11.88,3.11-18.72,4.61-22.99,4.61v-.02Zm62.57-39.77c-11.27,6.37-24.64,13.98-35.83,20.71,18.45-5.08,44.21-12.81,71.05-21.22-10.7.08-22.86.28-35.22.51h0Zm-54.12-27.33c-14.71,6.07-27.76,11.72-37.4,16.29,12.7-.2,29.53-.59,46.07-.97,15.92-.37,29.81-.67,41.91-.91,1.41-.79,2.83-1.6,4.27-2.41,5.39-3.04,11.06-6.23,16.11-9.12-16.89-.76-42.95-1.81-70.95-2.88h-.01Zm-47.53-14.8c14.65.54,30.14,1.11,45.27,1.69,10.31-4.22,20.61-8.3,29.58-11.8-11.93-.71-26.55-1.55-42.07-2.43l-32.78,12.54Zm-35.78-29.39c18.75,1.04,43.2,2.39,66.51,3.71l20.76-7.94c-17.33-.87-39.72-2.01-61.76-3.16-9.39,2.64-18.02,5.14-25.51,7.38h0Zm-31.62-23.37c16.65.87,36.26,1.89,55.72,2.9,4.14-1.16,8.57-2.39,13.32-3.69,13.39-3.67,26.68-7.22,37.77-10.15-16.31-2.05-38.31-4.14-62.3-6.09-16.81,6.24-32.47,12.2-44.51,17.03h0Z" style="fill: #fff; stroke: #000; stroke-miterlimit: 10; stroke-width: 4px;"/>
      </g>
    </g>
  </g>
</svg>