<?xml version="1.0" encoding="UTF-8"?>
<svg id="CLOTHING" xmlns="http://www.w3.org/2000/svg" viewBox="0 0 3000 3000">
  <g id="Basketball-Black-and-Red">
    <circle cx="1500" cy="1500" r="1200" style="fill: #4c6164;"/>
    <g>
      <path d="m2111.62,1981.67c-50-14-77.92-22.04-107.96-53.02-30.04-30.98-50.04-63.98-73.04-85.98-19.76-18.9-24.4-50.36-24.99-64.54.78-13.32.28-18.54,1.99-21.46,0,0,3-11-1-31-13.3-8.61-145.56,64.24-324,17-3.2-.85-18-1-17-2,2.12-2.12-10.1,16.97,0,29,0,0-6.04,35.55-9.05,62.97-2.74,15.52-10.32,57.49-15.95,80.03-4.71,18.83-14.31,33.82-11.6,55.99-1.64-4.43-3.1-8.22-4.4-10.99-6.33-13.57-28.71-42.06-27.14-98.38,5.84-35.04,12.73-72.73,16.14-77.62,11.25-16.15-9.76-49.06-9.76-49.06l-10.24,27.06c-241,45-340.89-32.47-340.89-32.47-23.11,11.47-9.9,45.24-9.11,55.47.28,3.59-1.61,17.43-4.17,33.89h-.05c-.79,4.1-1.55,8.76-1.79,10.1l-15.74,78.26s-23.87,33.28-24.56,113.51.31,107.23,45.31,137.23c0,0,12.38,94.86,240,87,204.97-7.08,217.48-18.32,232.24-86.16,6.9-31.71-.04-57.84-11.29-78.16,12.69,3.13,26.29,5.88,38.39,7,35.65,3.31,80.65,24.31,115.65,46.31s101.09,71.5,215.55,50.25,181.42-51.43,191.44-103.34c10.02-51.91-2.98-82.91-52.98-96.91v.02Z" style="fill: #1b1d23; stroke: #000; stroke-miterlimit: 10; stroke-width: 12.93px;"/>
      <path d="m1529.62,1970.67s12,43,32,64c19.99,20.99,45.79,43.86,52.4,72.43" style="fill: none; stroke: #000; stroke-miterlimit: 10; stroke-width: 14px;"/>
      <path d="m1137.4,1753.59s62.22,40.08,134.22,45.08-12,23-31,32-59,60-63,98-25,39-31,89,12.89,64,36.44,80.5c0,0-6.44,53.5,118.56,66.5s287.79,13.33,317.4-56.34c0,0,3.04,97.33-50.18,112.84-53.22,15.5-166.3,19.67-194.26,22.59-27.96,2.91-142.55,4.56-184-27.11-35.48-27.11-48.1-37.92-47.53-51.95s-16.74-20.18-22.59-27.11c-5.84-6.92-30.59-66.62-23.72-133.27s28.24-108.42,28.24-108.42l18.07-102.78s2.14-32.61-5.65-39.53h0Z" style="isolation: isolate; opacity: .2;"/>
      <path d="m1618.53,1753.59s-16.91,7.08-.91,25.08c9,2,50,9,78,8s-46,7-70,22-49.8,119.99-22.9,154.99,94.9,52.01,152.9,64.01,84.6,76.41,154.3,86.2c69.7,9.8,235.53-23.4,254.12-76.8,0,0,22.81,66.7-46.31,101.65-69.11,34.95-200.66,79.04-291.39,30.49s-150.13-82.35-173.93-82.45-46.15-4.27-56.47-14.68c-10.32-10.42-49.32-54.08-50.82-63.25s-19.57-54.47-9.04-81.32c10.53-26.85,23.42-101.32,25.98-118.59,2.56-17.26,6.78-31.62,6.78-31.62,0,0-13.22-42.64,14.78-29.64,38.59,17.92,0,0,0,0l34.91,5.92h0Z" style="isolation: isolate; opacity: .2;"/>
    </g>
    <g>
      <path d="m1153.19,1664.43s2.43,46.24,3.43,71.24c0,0,38.12,1.49,157,7s184,17,184,17l1-15s6-38,9-63l-354.43-17.24h0Z" style="isolation: isolate; opacity: .2;"/>
      <path d="m1578.67,1701.1s2.85,32.47.95,48.57c0,0,19-9,121-16s188-24,197-13l7.78-46.14s-71.67,51.99-322.73,24.56" style="isolation: isolate; opacity: .2;"/>
    </g>
    <path d="m1910.75,1064.61c-13.01-25.3-29.62-44.09-42.97-60.95-30.27,13.96-63.64,25.78-100.38,34.89-3.85,38.62-34.88,79.46-84.22,94.41-97.56,29.55-246.84,1.17-319.31-84.1-60.14-10.15-115.04-25.3-164.98-43.77,6.01,32.38,67.34,449.42-100.97,310.15-17.61-15.76-11.31,11.27-5.12,41.24,6.5,31.46.65,69.44,4.82,125.18,4.17,55.75,865,0,865,0,0,0,50-219-51.87-417.06h0Z" style="fill: #1b1d23;"/>
    <g>
      <path d="m1947.81,1156.93l-1.09.33c-49.77-89.17-88.12-139.32-94.07-146.93,5.13-2.15,10.17-4.38,15.13-6.67,13.34,16.86,29.95,35.65,42.97,60.95,15.72,30.57,27.83,61.64,37.06,92.32h0Z" style="fill: #ce1141;"/>
      <path d="m1789.01,1032.76c3.06,16.71,19.39,123.5-173.49,136.08-196.67,12.83-278.99-112.15-287.04-126.64,11.59,2.41,23.38,4.64,35.38,6.66,72.48,85.27,221.76,113.65,319.31,84.1,49.35-14.95,80.37-55.79,84.22-94.41,7.34-1.82,14.55-3.75,21.62-5.79h0Z" style="fill: #ce1141;"/>
      <path d="m1815.8,1024.36c2.04,8.98,41.69,160.56-207.9,169.89-250.8,9.38-313.98-158.96-313.98-158.96l.23-.92c11.24,2.79,22.68,5.41,34.33,7.83,8.05,14.49,89.96,138.22,285.35,125.79,192.9-12.27,178.24-118.52,175.18-135.23,9.15-2.62,18.08-5.42,26.79-8.4h0Z" style="fill: #1b1d23;"/>
      <path d="m1228.74,1015.53c4.53,24.87,50.12,312.14-46.07,353.22-24.75,10.13-69.05,4.3-91.77-21.43-5.34-25.95-8.77-46.21,7.02-32.08,168.31,139.27,106.97-277.77,100.97-310.15,9.76,3.61,19.71,7.1,29.85,10.44h0Z" style="fill: #ce1141;"/>
      <path d="m1968.93,1256.55l-.75.1c-18.06-73.31-120.07-219.57-134.94-238.54,6.6-2.49,13.07-5.08,19.41-7.78,5.95,7.61,44.3,57.76,94.07,146.93l1.09-.33c10.25,34.09,16.95,67.69,21.12,99.62h0Z" style="fill: #1b1d23;"/>
      <path d="m1262.3,1025.69c1.52,9.83,40.48,281.86-37.27,348.14-60.34,51.44-116.4,19.07-130.45,9.32-.32-11.21.21-17-1.78-26.66-.64-3.1-1.28-6.18-1.9-9.17,22.72,25.73,68,29.33,92.62,18.89,94.96-40.28,49.75-325.81,45.22-350.68,11.7,3.86,21.35,6.69,33.56,10.16h0Z" style="fill: #1b1d23;"/>
    </g>
    <path id="vest-outline" d="m1910.75,1064.61c-13.01-25.3-29.62-44.09-42.97-60.95-30.27,13.96-63.64,25.78-100.38,34.89-3.85,38.62-34.88,79.46-84.22,94.41-97.56,29.55-246.84,1.17-319.31-84.1-60.14-10.15-115.04-25.3-164.98-43.77,6.01,32.38,67.34,449.42-100.97,310.15-17.61-15.76-11.31,11.27-5.12,41.24,6.5,31.46.65,69.44,4.82,125.18,4.17,55.75,865,0,865,0,0,0,50-219-51.87-417.06h0Z" style="fill: none; stroke: #000; stroke-miterlimit: 10; stroke-width: 13px;"/>
    <path d="m1943.18,1610.25c.76-34.44,5.07-74.99,19.37-99.09,24.88-41.94,16.83-94.83,16.83-94.83.77-5.9-16.32-2.55-20.9-5.31-47.88-3.38-118.69-21.27-540.82-.94-95.65,4.61-211.39,20.46-274.8,10.76-11.19-1.7-20.74-4.21-28.27-7.71-9.46-4.39-15.73-10.36-18.01-18.3,0,0-31.45,21.98-9.3,86.68.42,4.62,9.72,21.17,11.13,27.49,11.2,50.1,15.55,168.18,15.55,168.18,0,0,216.12,114.64,394.43,18.07,0,0,2.76-9.57,7.46-20.41,4.85-11.15,11.76-23.66,19.83-28.45,1.39-.82,2.81-1.41,4.26-1.73,3.22-.71,5.07.56,6.05,2.81,2.75,6.27-1.2,20.11-1.2,20.11l-.21,3.57-1.42,24.1s256.43,60.99,402.03-22.59c0,0-1.26-12.88-1.85-31.79-.28-9.07-.41-19.53-.16-30.62h0Z" style="fill: #1b1d23;"/>
    <g>
      <path d="m1943.34,1640.87c.59,18.91,1.85,31.79,1.85,31.79-145.6,83.58-402.03,22.59-402.03,22.59l1.42-24.1h.07s263.59,50.26,398.69-30.28Z" style="fill: #ce1141;"/>
      <path d="m1513.03,1673.4l2.82,1.44c-4.7,10.84-7.46,20.41-7.46,20.41-178.31,96.57-394.43-18.07-394.43-18.07,0,0-4.35-118.08-15.55-168.18-1.41-6.32-10.71-22.87-11.13-27.49-22.15-64.7,9.3-86.68,9.3-86.68,2.28,7.94,8.55,13.91,18.01,18.3l-.24.51s-24.85,37.27,10.16,96c2.26,4.52,15.81,155.86,15.81,155.86,0,0,219.11,73.41,372.71,7.9h0Z" style="fill: #ce1141;"/>
      <path d="m1943.18,1610.25c-.25,11.09-.12,21.55.16,30.62-135.1,80.54-398.69,30.28-398.69,30.28h-.07l.21-3.57s3.95-13.84,1.2-20.11l.92-.04s250.56,49.66,396.27-37.18Z" style="fill: #1b1d23;"/>
      <path d="m1535.62,1646.3l.06.09c-8.07,4.79-14.98,17.3-19.83,28.45l-2.82-1.44c-153.6,65.51-372.71-7.9-372.71-7.9,0,0-13.55-151.34-15.81-155.86-35.01-58.73-10.16-96-10.16-96l.24-.51c7.53,3.5,17.08,6.01,28.27,7.71l-.28,1.84s-16.94,53.08,10.17,88.09l12.42,132.14s190.87,74.54,370.45,3.39h0Z" style="fill: #1b1d23;"/>
    </g>
    <g id="shorts-outline">
      <path d="m1943.18,1610.25c.76-34.44,5.07-74.99,19.37-99.09,24.88-41.94,16.83-94.83,16.83-94.83.77-5.9-16.32-2.55-20.9-5.31-47.88-3.38-118.69-21.27-540.82-.94-95.65,4.61-211.39,20.46-274.8,10.76-11.19-1.7-20.74-4.21-28.27-7.71-9.46-4.39-15.73-10.36-18.01-18.3,0,0-31.45,21.98-9.3,86.68.42,4.62,9.72,21.17,11.13,27.49,11.2,50.1,15.55,168.18,15.55,168.18,0,0,216.12,114.64,394.43,18.07,0,0,2.76-9.57,7.46-20.41,4.85-11.15,11.76-23.66,19.83-28.45,1.39-.82,2.81-1.41,4.26-1.73,3.22-.71,5.07.56,6.05,2.81,2.75,6.27-1.2,20.11-1.2,20.11l-.21,3.57-1.42,24.1s256.43,60.99,402.03-22.59c0,0-1.26-12.88-1.85-31.79-.28-9.07-.41-19.53-.16-30.62h0Z" style="fill: none; stroke: #000; stroke-miterlimit: 10; stroke-width: 13.86px;"/>
    </g>
    <path d="m885.12,1528.17s1,27-8,40c0,0-13.5-14.5-40.5-13.5s-123.78-42.97-216.39,47.02c0,0-23.61-11.02-6.61-29.02,0,0-21.49-196.42,108.26-365.71,0,0-11.26-34.29,9.74-22.29l258.7,201.86-26.2,27.64s-71,61-77,114" style="fill: #fff; stroke: #000; stroke-linecap: round; stroke-linejoin: round; stroke-width: 13px;"/>
    <g style="opacity: .2;">
      <path d="m1377.5,1063.52c-11.12-14.15-171.67-53.08-171.67-53.08,42.21,58.77,246.79,102.23,239.43,99.39-7.36-2.84-56.64-32.16-67.76-46.31h0Z"/>
      <path d="m1860.89,1005.92c-10.27,5.75-82.41,30.5-85.84,31.62s-7.9,9.76-10.16,16.94c-2.27,7.18-16.94,36.14-16.94,36.14,2.68-.96,77.31-36.42,126.49-80.19,0,0-3.29-10.26-13.55-4.52h0Z"/>
      <path d="m843.85,1406.86c-5.08,6.78-93.18-6.78-67.76,1.69,25.41,8.47,77.93,28.8,49.13,25.41s-94.87,0-62.68,6.78,105.04,30.49,66.07,32.19c-38.96,1.69,21.11,43.19,8.02,81.74,0,0,32.64-3.81,39.42,11.44,0,0,10.16-38.96,16.94-55.91,6.78-16.94,71.15-101.65,96.56-121.98l-115.2-94.87s-25.41,106.73-30.49,113.51h-.01Z"/>
      <path d="m1611.29,1616.93c-62.68,10.16-138.92-1.69-138.92-1.69,47.44,64.38-25.41,108.42-25.41,108.42l60.99-23.72s8.47-49.13,28.8-55.91c20.33-6.78,8.47,54.21,8.47,54.21l74.54,10.16s-49.13-57.6-25.41-60.99,79.62-40.66,16.94-30.49h0Z"/>
      <path d="m1142.02,1344.18s-45.74-28.8-52.52-23.72c-6.78,5.08,3.39,69.46,3.39,77.93-37.27,37.27,8.47,110.12,8.47,110.12l13.55,169.41,30.49,15.25s-32.19-215.15-30.49-250.73c1.43-30.06,45.2-23.83,58.74-21.18-44.43-11.43-31.63-77.08-31.63-77.08Z"/>
      <path d="m1177.59,1422.11s-1.47-.37-3.95-.85c1.27.33,2.58.62,3.95.85Z"/>
      <path d="m1208.09,1132.42s-20.44,210.45-99.95,186.35c.49-2.1,47.93,52.88,84.71,3.39s15.25-189.74,15.25-189.74"/>
    </g>
    <g>
      <g>
        <path d="m1703.67,1228.55l15.94,14.25,3.84,105.44-14.85,15.53-58.69,2.43-15.74-14.08-3.9-105.75,14.71-15.38,58.69-2.43h0Zm-16.91,29.51l-22.58.93,2.83,77.68,22.58-.93-2.83-77.68Z" style="fill: rgba(206, 17, 65, 0);"/>
        <path d="m1675.36,1336.33l8.32-.34,1.05,28.77-50.07,2.07-1.05-28.77,8.32-.34-2.83-77.68-8.32.34-1.05-28.77,41.72-1.73,3.9,106.45h.01Z" style="fill: rgba(206, 17, 65, 0);"/>
        <path d="m1631.31,1274.92l-1.04-28.42,14.85-15.53,58.69-2.43,15.79,14.12,1.92,52.52-14.71,15.35-35.48,1.47-5.11,4.27.74,20.41,22.63-.94-.53-14.54,33.35-1.38,1.58,43.31-89.34,3.7-2.45-67.27,14.72-15.35,35.48-1.47,5.11-4.26-.6-16.37-5.33-3.82-12.32.51-4.98,4.25.38,10.51-33.35,1.38v-.02Z" style="fill: rgba(206, 17, 65, 0);"/>
        <path d="m1721.26,1288.16l-7.35,7.67,7.89,7.04,1.66,45.5-14.71,15.38-58.69,2.43-15.94-14.25-1.04-28.42,33.35-1.38.38,10.51,5.28,3.82,12.32-.51,5.04-4.25-.6-16.37-5.4-3.83-17.38.72-1.05-28.77,17.38-.72,5.11-4.26-.6-16.38-5.33-3.82-12.32.51-4.98,4.25.38,10.51-33.35,1.38-1.04-28.42,14.85-15.53,58.69-2.43,15.79,14.12,1.66,45.5h0Z" style="fill: rgba(206, 17, 65, 0);"/>
        <path d="m1722.58,1324.29l-8.32.34.37,10.07,8.32-.34,1.05,28.77-50.07,2.07-1.05-28.77,8.32-.34-.37-10.07-47.59,1.97-1.05-28.77,23.58-68.69,54.96-2.28,2.47,67.61,8.33-.34,1.05,28.77h0Zm-42.79-27.04l-1.11-30.33-10.28,30.8,11.39-.47h0Z" style="fill: rgba(206, 17, 65, 0);"/>
        <path d="m1666.43,1322.14l.38,10.51,5.28,3.82,12.32-.51,5.03-4.25-.6-16.37-5.4-3.83-50.73,2.1-2.99-81.99,89.34-3.7,1.58,43.31-33.35,1.38-.53-14.54-22.63.94.89,24.45,40.73-1.69,15.79,14.09,1.92,52.52-14.71,15.38-58.69,2.43-15.94-14.25-1.04-28.42,33.35-1.38h0Z" style="fill: rgba(206, 17, 65, 0);"/>
        <path d="m1720.65,1271.22l-33.35,1.38-.38-10.51-5.28-3.82-12.32.51-5.03,4.25.74,20.41,40.59-1.68,15.94,14.25,1.9,52.22-14.85,15.53-58.69,2.43-15.79-14.12-3.85-105.71,14.71-15.38,58.69-2.43,15.94,14.25,1.04,28.42h0Zm-54.57,40.99l.74,20.42,5.33,3.82,12.32-.51,4.99-4.25-.6-16.39-5.28-3.82-17.5.72h0Z" style="fill: rgba(206, 17, 65, 0);"/>
        <path d="m1720.12,1256.68l-28.08,78.96,10.37-.43,1.05,28.77-58.41,2.42-1.05-28.77,14.61-.6,28.11-78.96-22.58.94.53,14.54-33.35,1.38-1.58-43.31,89.34-3.7,1.05,28.77h-.01Z" style="fill: rgba(206, 17, 65, 0);"/>
        <path d="m1719.6,1242.66l1.66,45.5-7.35,7.67,7.89,7.04,1.65,45.36-14.71,15.52-58.69,2.43-15.94-14.25-1.65-45.36,7.36-7.67-7.89-7.04-1.66-45.5,14.86-15.39,58.69-2.43,15.79,14.12h-.01Zm-32.1,35.81l-.6-16.37-5.33-3.82-12.27.51-5.03,4.25.6,16.37,5.4,3.83,12.12-.5,5.11-4.26h0Zm1.94,53.23l-.6-16.37-5.4-3.83-12.12.5-5.11,4.26.6,16.37,5.33,3.82,12.27-.51,5.03-4.25h0Z" style="fill: rgba(206, 17, 65, 0);"/>
        <path d="m1666.43,1322.14l.38,10.51,5.28,3.82,12.32-.51,5.03-4.25-.75-20.41-40.59,1.68-15.94-14.25-1.9-52.22,14.85-15.53,58.69-2.43,15.79,14.12,3.85,105.71-14.71,15.38-58.69,2.43-15.94-14.25-1.04-28.42,33.35-1.38h.02Zm21.22-39.62l-.74-20.42-5.33-3.82-12.32.51-4.98,4.25.6,16.39,5.28,3.82,17.5-.72h-.01Z" style="fill: rgba(206, 17, 65, 0);"/>
      </g>
      <g>
        <path d="m1561.19,1326.5l.38,10.51,5.28,3.82,12.32-.51,5.03-4.25-.75-20.41-40.59,1.68-15.94-14.25-1.9-52.22,14.85-15.53,58.69-2.43,15.79,14.12,3.85,105.71-14.71,15.38-58.69,2.43-15.94-14.25-1.04-28.42,33.35-1.38h.02Zm21.22-39.62l-.74-20.42-5.33-3.82-12.32.51-4.98,4.25.6,16.39,5.28,3.82,17.5-.72h-.01Z" style="fill: rgba(206, 17, 65, 0);"/>
        <path d="m1614.36,1247.02l1.66,45.5-7.36,7.67,7.89,7.04,1.65,45.36-14.71,15.52-58.69,2.43-15.94-14.25-1.65-45.36,7.35-7.67-7.89-7.04-1.66-45.5,14.86-15.39,58.69-2.43,15.79,14.12h0Zm-32.1,35.81l-.6-16.37-5.33-3.82-12.27.51-5.03,4.25.6,16.37,5.4,3.83,12.12-.5,5.11-4.26h0Zm1.95,53.23l-.6-16.37-5.4-3.83-12.12.5-5.11,4.27.6,16.37,5.33,3.82,12.27-.51,5.03-4.25h0Z" style="fill: rgba(206, 17, 65, 0);"/>
        <path d="m1614.88,1261.04l-28.08,78.96,10.37-.43,1.05,28.77-58.41,2.42-1.05-28.77,14.61-.6,28.1-78.96-22.58.94.53,14.54-33.35,1.38-1.58-43.31,89.34-3.7,1.05,28.77h0Z" style="fill: rgba(206, 17, 65, 0);"/>
        <path d="m1615.41,1275.58l-33.35,1.38-.38-10.51-5.28-3.82-12.32.51-5.03,4.25.74,20.41,40.59-1.68,15.94,14.25,1.9,52.22-14.85,15.53-58.69,2.43-15.79-14.12-3.85-105.71,14.71-15.38,58.69-2.43,15.94,14.25,1.04,28.42h0Zm-54.57,40.99l.75,20.42,5.33,3.82,12.32-.51,4.99-4.25-.6-16.39-5.28-3.82-17.5.72h0Z" style="fill: rgba(206, 17, 65, 0);"/>
        <path d="m1561.19,1326.5l.38,10.51,5.28,3.82,12.32-.51,5.03-4.25-.6-16.37-5.4-3.83-50.73,2.1-2.99-81.99,89.34-3.7,1.58,43.31-33.35,1.38-.53-14.54-22.63.94.89,24.45,40.73-1.69,15.79,14.09,1.92,52.52-14.71,15.38-58.69,2.43-15.94-14.25-1.04-28.42,33.35-1.38h0Z" style="fill: rgba(206, 17, 65, 0);"/>
        <path d="m1617.34,1328.65l-8.32.34.37,10.07,8.32-.34,1.05,28.77-50.07,2.07-1.05-28.77,8.32-.34-.37-10.07-47.59,1.97-1.05-28.77,23.58-68.69,54.96-2.28,2.47,67.61,8.33-.34,1.05,28.77h0Zm-42.79-27.04l-1.11-30.33-10.28,30.8,11.39-.47h0Z" style="fill: rgba(206, 17, 65, 0);"/>
        <path d="m1616.02,1292.52l-7.36,7.67,7.89,7.04,1.66,45.5-14.71,15.38-58.69,2.43-15.94-14.25-1.04-28.42,33.35-1.38.38,10.51,5.28,3.82,12.32-.51,5.04-4.25-.6-16.37-5.4-3.83-17.38.72-1.05-28.77,17.38-.72,5.11-4.26-.6-16.38-5.33-3.82-12.32.51-4.98,4.25.38,10.51-33.35,1.38-1.04-28.42,14.85-15.53,58.69-2.43,15.79,14.12,1.66,45.5h0Z" style="fill: rgba(206, 17, 65, 0);"/>
        <path d="m1526.07,1279.28l-1.04-28.42,14.85-15.53,58.69-2.43,15.79,14.12,1.92,52.52-14.71,15.35-35.48,1.47-5.11,4.27.74,20.41,22.63-.94-.53-14.54,33.35-1.38,1.58,43.31-89.34,3.7-2.45-67.27,14.72-15.35,35.48-1.47,5.11-4.26-.6-16.37-5.33-3.82-12.32.51-4.98,4.25.38,10.51-33.35,1.38v-.02Z" style="fill: rgba(206, 17, 65, 0);"/>
        <path d="m1609.26,1339.07l8.32-.34,1.05,28.77-50.07,2.07-1.05-28.77,8.32-.34-2.83-77.68-8.32.34-1.05-28.77,41.72-1.73,3.9,106.45h.01Z" style="fill: rgba(206, 17, 65, 0);"/>
        <path d="m1598.43,1232.91l15.94,14.25,3.84,105.44-14.85,15.53-58.69,2.43-15.74-14.08-3.9-105.75,14.71-15.38,58.69-2.43h0Zm-16.91,29.51l-22.58.94,2.83,77.68,22.58-.94-2.83-77.68Z" style="fill: rgba(206, 17, 65, 0);"/>
      </g>
    </g>
    <g>
      <g>
        <path d="m1266.28,1567.63l8.15,9.54,3.34,57.82-7.2,6.79-29.27-5.24-8.05-9.42-3.38-58,7.14-6.73,29.27,5.24h0Zm-8.04,14.17l-11.26-2.01,2.46,42.6,11.26,2.01-2.46-42.6Z" style="fill: rgba(206, 17, 65, 0);"/>
        <path d="m1253.61,1623.13l4.15.74.91,15.78-24.97-4.47-.91-15.78,4.15.74-2.46-42.6-4.15-.74-.91-15.78,20.81,3.72,3.39,58.38h-.01Z" style="fill: rgba(206, 17, 65, 0);"/>
        <path d="m1230.79,1584.79l-.9-15.59,7.2-6.79,29.27,5.24,8.07,9.45,1.67,28.8-7.14,6.71-17.69-3.16-2.49,1.75.65,11.19,11.28,2.02-.46-7.98,16.63,2.98,1.37,23.75-44.55-7.97-2.13-36.89,7.14-6.71,17.69,3.17,2.49-1.75-.52-8.98-2.71-2.67-6.14-1.1-2.43,1.75.33,5.76-16.63-2.98h0Z" style="fill: rgba(206, 17, 65, 0);"/>
        <path d="m1275.87,1602.05l-3.57,3.36,4.03,4.72,1.44,24.95-7.14,6.73-29.27-5.24-8.15-9.54-.9-15.58,16.63,2.98.33,5.76,2.69,2.67,6.14,1.1,2.46-1.75-.52-8.98-2.75-2.69-8.66-1.55-.91-15.78,8.66,1.55,2.49-1.75-.52-8.98-2.71-2.67-6.14-1.1-2.43,1.75.33,5.76-16.63-2.98-.9-15.59,7.2-6.79,29.27,5.24,8.07,9.45,1.44,24.95h.02Z" style="fill: rgba(206, 17, 65, 0);"/>
        <path d="m1277.02,1621.86l-4.15-.74.32,5.52,4.15.74.91,15.78-24.97-4.47-.91-15.78,4.15.74-.32-5.52-23.73-4.25-.91-15.78,10.84-34.75,27.41,4.9,2.15,37.08,4.15.74.91,15.78h0Zm-21.73-19.5l-.96-16.63-4.72,15.62,5.68,1.02h0Z" style="fill: rgba(206, 17, 65, 0);"/>
        <path d="m1248.96,1614.41l.33,5.76,2.69,2.67,6.14,1.1,2.46-1.75-.52-8.98-2.75-2.69-25.3-4.53-2.6-44.96,44.55,7.97,1.37,23.75-16.63-2.98-.46-7.98-11.28-2.02.78,13.41,20.31,3.63,8.07,9.43,1.67,28.8-7.14,6.73-29.27-5.24-8.15-9.54-.9-15.58,16.63,2.98v.02Z" style="fill: rgba(206, 17, 65, 0);"/>
        <path d="m1275.33,1592.76l-16.63-2.98-.33-5.76-2.69-2.67-6.14-1.1-2.46,1.75.65,11.19,20.24,3.62,8.15,9.54,1.66,28.63-7.2,6.79-29.27-5.24-8.07-9.45-3.35-57.97,7.14-6.73,29.27,5.24,8.15,9.54.9,15.59h-.02Zm-26.69,16.21l.65,11.2,2.71,2.68,6.14,1.1,2.43-1.76-.52-8.99-2.69-2.67-8.72-1.56h0Z" style="fill: rgba(206, 17, 65, 0);"/>
        <path d="m1274.87,1584.78l-12.95,39.84,5.17.93.91,15.78-29.12-5.21-.91-15.78,7.28,1.3,12.96-39.84-11.26-2.01.46,7.98-16.63-2.98-1.37-23.75,44.55,7.97.91,15.78h0Z" style="fill: rgba(206, 17, 65, 0);"/>
        <path d="m1274.43,1577.1l1.44,24.95-3.57,3.36,4.03,4.72,1.44,24.87-7.13,6.8-29.27-5.24-8.15-9.54-1.44-24.87,3.57-3.35-4.03-4.72-1.44-24.95,7.21-6.72,29.27,5.24,8.07,9.45h0Zm-15.54,15.9l-.52-8.98-2.71-2.67-6.12-1.09-2.46,1.75.52,8.98,2.75,2.69,6.04,1.08,2.49-1.75h0Zm1.69,29.19l-.52-8.98-2.75-2.69-6.04-1.08-2.49,1.75.52,8.98,2.71,2.68,6.12,1.09,2.46-1.75h0Z" style="fill: rgba(206, 17, 65, 0);"/>
        <path d="m1248.96,1614.41l.33,5.76,2.69,2.67,6.14,1.1,2.46-1.75-.65-11.19-20.24-3.62-8.15-9.54-1.66-28.63,7.2-6.79,29.27,5.24,8.07,9.45,3.35,57.97-7.14,6.73-29.27-5.24-8.15-9.54-.9-15.59,16.63,2.98h.02Zm10.06-19.19l-.65-11.2-2.71-2.67-6.14-1.1-2.43,1.76.52,8.99,2.69,2.67,8.72,1.56h0Z" style="fill: rgba(206, 17, 65, 0);"/>
      </g>
      <g>
        <path d="m1196.48,1605.02l.33,5.76,2.69,2.67,6.14,1.1,2.46-1.75-.65-11.19-20.24-3.62-8.15-9.54-1.66-28.63,7.2-6.79,29.27,5.24,8.07,9.45,3.35,57.97-7.14,6.73-29.27-5.24-8.15-9.54-.9-15.59,16.63,2.98h.02Zm10.06-19.19l-.65-11.2-2.71-2.67-6.14-1.1-2.43,1.76.52,8.99,2.69,2.67,8.72,1.56h0Z" style="fill: rgba(206, 17, 65, 0);"/>
        <path d="m1221.95,1567.71l1.44,24.95-3.57,3.35,4.03,4.72,1.44,24.87-7.13,6.81-29.27-5.24-8.15-9.54-1.44-24.87,3.57-3.36-4.03-4.72-1.44-24.95,7.21-6.72,29.27,5.24,8.07,9.45h0Zm-15.54,15.9l-.52-8.98-2.71-2.67-6.12-1.09-2.46,1.75.52,8.98,2.75,2.69,6.04,1.08,2.49-1.75h0Zm1.69,29.19l-.52-8.98-2.75-2.69-6.04-1.08-2.49,1.75.52,8.98,2.71,2.67,6.12,1.09,2.46-1.75h0Z" style="fill: rgba(206, 17, 65, 0);"/>
        <path d="m1222.4,1575.39l-12.95,39.84,5.17.93.91,15.78-29.12-5.21-.91-15.78,7.28,1.3,12.96-39.84-11.26-2.01.46,7.98-16.63-2.98-1.37-23.75,44.55,7.97.91,15.78h0Z" style="fill: rgba(206, 17, 65, 0);"/>
        <path d="m1222.86,1583.37l-16.63-2.98-.33-5.76-2.69-2.67-6.14-1.1-2.46,1.75.65,11.19,20.24,3.62,8.15,9.54,1.66,28.63-7.2,6.79-29.27-5.24-8.07-9.45-3.35-57.97,7.14-6.73,29.27,5.24,8.15,9.54.9,15.59h-.02Zm-26.69,16.22l.65,11.2,2.71,2.67,6.14,1.1,2.43-1.76-.52-8.99-2.69-2.67-8.72-1.56h0Z" style="fill: rgba(206, 17, 65, 0);"/>
        <path d="m1196.48,1605.02l.33,5.76,2.69,2.67,6.14,1.1,2.46-1.75-.52-8.98-2.75-2.69-25.3-4.53-2.6-44.96,44.55,7.97,1.37,23.75-16.63-2.98-.46-7.98-11.28-2.02.78,13.41,20.31,3.63,8.07,9.43,1.67,28.8-7.14,6.73-29.27-5.24-8.15-9.54-.9-15.58,16.63,2.98v.02Z" style="fill: rgba(206, 17, 65, 0);"/>
        <path d="m1224.54,1612.47l-4.15-.74.32,5.52,4.15.74.91,15.78-24.97-4.47-.91-15.78,4.15.74-.32-5.52-23.73-4.25-.91-15.78,10.84-34.75,27.41,4.9,2.15,37.08,4.15.74.91,15.78h0Zm-21.73-19.5l-.96-16.63-4.72,15.62,5.68,1.02h0Z" style="fill: rgba(206, 17, 65, 0);"/>
        <path d="m1223.39,1592.66l-3.57,3.35,4.03,4.72,1.44,24.95-7.14,6.73-29.27-5.24-8.15-9.54-.9-15.58,16.63,2.98.33,5.76,2.69,2.67,6.14,1.1,2.46-1.75-.52-8.98-2.75-2.69-8.66-1.55-.91-15.78,8.66,1.55,2.49-1.75-.52-8.98-2.71-2.67-6.14-1.1-2.43,1.75.33,5.76-16.63-2.98-.9-15.59,7.2-6.79,29.27,5.24,8.07,9.45,1.44,24.95h.02Z" style="fill: rgba(206, 17, 65, 0);"/>
        <path d="m1178.31,1575.4l-.9-15.59,7.2-6.79,29.27,5.24,8.07,9.45,1.67,28.8-7.14,6.71-17.69-3.16-2.49,1.75.65,11.19,11.28,2.02-.46-7.98,16.63,2.98,1.37,23.75-44.55-7.97-2.13-36.89,7.14-6.71,17.69,3.16,2.49-1.75-.52-8.98-2.71-2.67-6.14-1.1-2.43,1.75.33,5.76-16.63-2.98h0Z" style="fill: rgba(206, 17, 65, 0);"/>
        <path d="m1220.65,1617.24l4.15.74.91,15.78-24.97-4.47-.91-15.78,4.15.74-2.46-42.6-4.15-.74-.91-15.78,20.8,3.72,3.39,58.38h0Z" style="fill: rgba(206, 17, 65, 0);"/>
        <path d="m1213.81,1558.24l8.15,9.54,3.35,57.82-7.2,6.79-29.27-5.24-8.05-9.42-3.38-58,7.14-6.73,29.27,5.24h-.01Zm-8.04,14.17l-11.26-2.01,2.46,42.6,11.26,2.01-2.46-42.6Z" style="fill: rgba(206, 17, 65, 0);"/>
      </g>
    </g>
    <g id="clothing-shoes">
      <g>
        <g>
          <g>
            <g>
              <path d="m1740.04,1876.55c-25.83-16.01-52.45-32.21-52.45-32.21,26.59-77.73,95.84-25.84,95.84-25.84,0,0,96.55,86.97,123.66,101.93,27.09,14.96,63.37,40.86-20.8,59.71-89.94,20.13,119.32,89.74,265.37,9.05,52.46,23.36,50.01,68.09,41.06,97.93-6.11,11.87-37.59,56.36-170.52,68.34-153.84,13.87-206.85-20.56-292.09-45.25-.69-.2-1.37-.4-2.07-.59.82-21.74,13.63-103.57,75.64-137.01,56.37-30.38-2.48-55.17-17.23-66.31-5.56-4.2-25.73-16.93-46.42-29.77v.02Z" style="fill: #444;"/>
              <path d="m2180.02,2116.94c23.45,17.29-7.49,44.87-7.49,44.87-67.24,73.15-278.06,68.32-346.66,43.22-57.48-21.04-121.45-40.55-149.07-48.8-27.61-8.26-98.7-14.31-121.44-47.26-2.56-3.7-4.95-7.6-7.17-11.65,15.09,3.01,110.93,22.43,186.18,45.18,81.91,24.78,132.88,59.25,280.66,45.53,147.79-13.71,164.99-71.1,164.99-71.1h0Z" style="fill: #222;"/>
              <path d="m1728.05,2109.64c.69.19,1.38.39,2.07.59,85.23,24.69,138.25,59.12,292.09,45.25,132.93-11.98,164.41-56.47,170.52-68.34-5.23,17.45-12.69,29.81-12.69,29.81,0,0-17.2,57.39-164.99,71.1-147.78,13.72-198.74-20.75-280.66-45.53-75.25-22.76-171.09-42.18-186.18-45.18-5.57-10.12-10.12-21.14-13.7-32.44,5.96,1.12,111.03,21.02,193.55,44.75h0Z" style="fill: #222;"/>
              <path d="m1891.44,1803.11c1.88,1.86,3.67,3.79,5.42,5.74,14.65,16.39,21.82,25.29,39.87,46.06,18.06,20.77,117.18,83.1,117.18,83.1,4.13,1.25,8.43,2.78,12.82,4.51,38.98,15.33,84.93,46.68,84.93,46.68-146.05,80.69-355.3,11.08-265.37-9.05,84.17-18.85,47.89-44.75,20.8-59.71-27.1-14.96-123.66-101.93-123.66-101.93-13.61-18.65,10.9-31.87,45.88-36.09,30.81-3.71,48.38,6.91,62.13,20.69h0Z" style="fill: #222;"/>
              <path d="m2066.88,1942.15l-.15.37c-4.39-1.73-8.69-3.26-12.82-4.51,0,0-99.12-62.33-117.18-83.1s-25.22-29.68-39.87-46.06c-1.74-1.95-3.54-3.88-5.42-5.74-1.62-8.27-1.3-21.54,19.15-17.34,29.11,5.98,58.64,62.15,58.64,62.15,0,0,92.41,61.97,97.65,94.23h0Z" style="fill: #444;"/>
              <path d="m1786.46,1906.32c14.75,11.14,73.6,35.92,17.23,66.31-62.01,33.43-74.82,115.27-75.64,137.01-82.52-23.73-187.58-43.64-193.55-44.75-7.74-24.31-11.1-49.85-10.94-70.16.28-33.51,20.28-111.08,20.28-111.08,0,0,82.6,37.03,196.2-7.09,20.69,12.85,40.86,25.57,46.42,29.77h0Z" style="fill: #222;"/>
              <path d="m1687.59,1844.34s26.62,16.2,52.45,32.21c-113.6,44.13-196.2,7.09-196.2,7.09-27.53-49.57,14.87-64.04,14.87-64.04,38.46,48.2,128.89,24.73,128.89,24.73h-.01Z" style="fill: #444;"/>
            </g>
            <g>
              <path d="m1687.59,1844.34s-90.42,23.47-128.89-24.73c0,0-42.4,14.46-14.87,64.04,0,0-20,77.56-20.28,111.08-.16,20.31,3.2,45.85,10.94,70.16,3.58,11.3,8.12,22.33,13.7,32.44,2.22,4.05,4.61,7.95,7.17,11.65,22.73,32.94,93.83,39,121.44,47.26,27.62,8.25,91.58,27.75,149.07,48.8,68.6,25.1,279.42,29.93,346.66-43.22,0,0,30.94-27.58,7.49-44.87,0,0,7.47-12.36,12.69-29.81,8.95-29.84,11.4-74.57-41.06-97.93,0,0-45.95-31.35-84.93-46.68-4.39-1.73-8.69-3.26-12.82-4.51,0,0-99.12-62.33-117.18-83.1s-25.22-29.68-39.87-46.06c-1.74-1.95-3.54-3.88-5.42-5.74-13.75-13.78-31.32-24.4-62.13-20.69-34.98,4.22-59.49,17.44-45.88,36.09,0,0-69.25-51.89-95.84,25.84v-.02Z" style="fill: none; stroke: #000; stroke-miterlimit: 10; stroke-width: 13px;"/>
              <path d="m1893.15,1809.21s-1.03-2.61-1.71-6.11c-1.62-8.27-1.3-21.54,19.15-17.34,29.11,5.98,58.64,62.15,58.64,62.15,0,0,92.41,61.97,97.65,94.23" style="fill: none; stroke: #000; stroke-miterlimit: 10; stroke-width: 13px;"/>
              <path d="m1546.16,2096.92s.7.14,2.04.4c15.09,3.01,110.93,22.43,186.18,45.18,81.91,24.78,132.88,59.25,280.66,45.53,147.79-13.71,164.99-71.1,164.99-71.1" style="fill: none; stroke: #000; stroke-miterlimit: 10; stroke-width: 13px;"/>
              <path d="m1534.23,2064.83l.27.05c5.96,1.12,111.03,21.02,193.55,44.75.69.19,1.38.39,2.07.59,85.23,24.69,138.25,59.12,292.09,45.25,132.93-11.98,164.41-56.47,170.52-68.34.96-1.87,1.29-2.93,1.29-2.93" style="fill: none; stroke: #000; stroke-miterlimit: 10; stroke-width: 13px;"/>
              <path d="m1783.43,1818.5s96.55,86.97,123.66,101.93c27.09,14.96,63.37,40.86-20.8,59.71-89.94,20.13,119.32,89.74,265.37,9.05" style="fill: none; stroke: #000; stroke-miterlimit: 10; stroke-width: 13px;"/>
              <path d="m1543.84,1883.64s82.6,37.03,196.2-7.09c0,0,.02-.01.03-.01" style="fill: none; stroke: #000; stroke-miterlimit: 10; stroke-width: 13px;"/>
              <path d="m1687.59,1844.34s26.62,16.2,52.45,32.21c20.69,12.85,40.86,25.57,46.42,29.77,14.75,11.14,73.6,35.92,17.23,66.31-62.01,33.43-74.82,115.27-75.64,137.01-.01.22-.02.44-.02.64" style="fill: none; stroke: #000; stroke-miterlimit: 10; stroke-width: 13px;"/>
            </g>
          </g>
          <g>
            <path d="m1862.19,1936.57c-2.56,0-4.99-.84-7.02-2.42-4.98-3.88-5.88-11.1-2.01-16.1,5.43-6.99,18.25-19.07,38.13-35.94-38.76,2.54-70.35,9.81-70.68,9.88-.85.2-1.72.3-2.59.3-4.28,0-8.17-2.36-10.15-6.17-2.41-4.64-1.39-10.33,2.49-13.83,12.86-11.6,25.69-22.27,38.2-31.77-1.47-.02-2.95-.04-4.45-.06-4.11-.05-8.38-.07-12.7-.07-40.75,0-76.89,2.12-78.41,2.21-.25.01-.49.02-.72.02-6.03,0-11.04-4.74-11.41-10.78-.19-3.06.83-6.01,2.86-8.3s4.82-3.66,7.88-3.84c.36-.02,37.2-2.25,79.69-2.25,4.41,0,8.77.02,12.97.07,12.95.15,24.99.52,35.82,1.11,23.73-14.85,37.4-19.5,38.89-19.99,1.15-.37,2.34-.56,3.53-.56,4.98,0,9.35,3.19,10.89,7.93,1.94,6-1.35,12.48-7.33,14.44-.1.03-1.95.67-5.33,2.16,28.1,4.49,37.11,11.15,41.45,15.89,2.16,2.36,3.24,5.54,2.97,8.73s-1.87,6.14-4.4,8.1c-1.95,1.52-4.22,3.29-6.73,5.26,14.79,1.95,28.02,5.15,39.37,9.51,5.89,2.26,8.85,8.91,6.59,14.82-1.69,4.41-5.98,7.37-10.69,7.37-1.4,0-2.78-.26-4.09-.76-15.2-5.84-34.46-9.23-57.23-10.07-30.56,24.89-50.7,42.87-56.75,50.67-2.18,2.81-5.48,4.43-9.04,4.43h0Zm23.99-94.57c-9.16,6.01-18.65,12.81-28.26,20.28,20.34-2.65,39.81-4,57.96-4,1.42,0,2.85,0,4.28.03,4.08-3.29,8.22-6.6,12.33-9.87-5.8-1.58-13.06-2.94-21.64-4.08-7.24-.96-15.53-1.75-24.66-2.36h0Z" style="fill: #222; stroke: #000; stroke-miterlimit: 10; stroke-width: 13px;"/>
            <path d="m1882.68,1951.68c-3.48,0-6.73-1.55-8.91-4.26-3.96-4.91-3.2-12.14,1.68-16.11,1.93-1.57,47.94-38.34,116.3-38.34,10.17,0,20.47.82,30.61,2.45,3.02.48,5.67,2.12,7.46,4.6,1.79,2.48,2.51,5.51,2.03,8.54-.89,5.6-5.64,9.66-11.28,9.66h0c-.61,0-1.23-.05-1.84-.15-8.73-1.4-17.65-2.11-26.51-2.11-27.97,0-51.31,7.08-65.96,13.02-22.63,9.18-36.28,20.05-36.42,20.16-2.03,1.64-4.58,2.54-7.18,2.54h.02Z" style="fill: #222; stroke: #000; stroke-miterlimit: 10; stroke-width: 13px;"/>
          </g>
          <path d="m1538.34,1915.1s157.78,24.07,162.78,61.07c4.71,34.85-22,54-88,33s-83.81-24.05-83.81-24.05l9.04-70.02h-.01Z" style="fill: #444; stroke: #000; stroke-miterlimit: 10; stroke-width: 13px;"/>
          <path d="m1574.03,1838.88s-14.54-24.29-27.47-11.34c-12.93,12.96-17.78,53.45,12.93,63.16,0,0-25.85-4.86-24.24,43.73,0,0,27.47,74.5,46.86,100.42,19.39,25.91,17.78,110.13,17.78,110.13,0,0,101.8,17.82,171.29,43.73,69.48,25.91,197.14,59.93,308.64,22.67,111.5-37.25,106.65-64.78,106.65-64.78,0,0-6.46-27.53,1.62-43.73s11.31-40.49,9.7-55.07c0,0-116.35,80.98-355.5,29.15-239.16-51.83-263.4-95.56-261.78-152.24,1.62-56.69-6.46-85.84-6.46-85.84h-.02Z" style="isolation: isolate; opacity: .2;"/>
        </g>
        <g>
          <g>
            <g>
              <path d="m1616.06,2126.97c6.66,31.73,9.64,149.01-177.81,158.74-248.82,12.9-305.95-125.25-324.26-154.41-18.31-29.15-15.08-60.47-15.08-60.47,0,0,45.25,177.62,303.79,187.88,231.64,9.19,213.31-131.73,213.31-131.73h.05Z" style="fill: #222;"/>
              <path d="m1616.06,2126.97h-.05s18.33,140.93-213.31,131.74c-258.54-10.26-303.79-187.88-303.79-187.88,0,0,0-57.22,3.23-60.46,0,0-.31,39.86,27.03,84.89,35.71,58.87,118.66,126.58,311.23,125.66,122.76-.58,164-58.07,173.64-101.96.36,1.17,1.17,3.95,2.01,8.01h.01Z" style="fill: #222;"/>
              <path d="m1585.21,2011.33c41.33,40.05,28.64,107.02,28.64,107.02,0,0,.07.21.19.61-9.63,43.89-50.88,101.38-173.64,101.96-192.57.92-275.52-66.79-311.23-125.66l5.28-.67c-3.23-90.7,96.96-110.13,96.96-110.13,0,0,20.47-26.99-9.7-61.54-8.01-9.18-14.57-18.74-19.9-27.83-14.73-25.13-19.95-46.67-19.95-46.67,16.16-22.68,45.24-23.76,65.71-22.68s24.78,29.36,24.78,29.36c-2.16,11.02,33.39,59.15,62.48,101.25s-7.54,53.17-31.24,56.19c-23.7,3-64.1,26.18,18.31,56.15,63.96,23.25,164.93,20.98,208.45-8.11,48.47-32.39,17.77-59.92-21-63.16-33.42-2.78-36.63-14.26-35.55-31.31,1.07-17.04,0-119.02,0-119.02-3.62-5.96-6.92-11.28-11.19-15.89l4.72-.05,20.47-23.76c15.08,3.24,23.69,23.76,23.69,33.47,0,1.62-.24,6.02-.34,12.41-.52,32.13,2.28,114.43,55.28,144.15,7.24,4.06,13.45,8.77,18.76,13.92h.02Z" style="fill: #444;"/>
              <path d="m1586.92,2011.18l-1.71.15c-5.31-5.15-11.52-9.86-18.76-13.92-53.01-29.72-55.81-112.02-55.28-144.15h.62c1.61,2.36,68.68,127.28,75.13,157.92Z" style="fill: #222;"/>
              <path d="m1509.36,1997.41c38.77,3.24,69.48,30.77,21,63.16-43.52,29.08-144.5,31.36-208.45,8.11-82.41-29.97-42.02-53.15-18.31-56.15,23.7-3.01,60.33-14.08,31.24-56.19-29.08-42.1-64.63-90.23-62.48-101.25,0,0,21.71-43.12,100.45-43.94,57.55-.6,77.59,6.77,89.81,20.03,4.26,4.61,7.57,9.93,11.19,15.89,0,0,1.07,101.99,0,119.02-1.08,17.05,2.13,28.53,35.55,31.31h0Z" style="fill: #222;"/>
              <path d="m1221.72,1922.92c30.17,34.55,9.7,61.54,9.7,61.54,0,0-100.19,19.44-96.96,110.13l-5.28.67c-27.34-45.03-27.03-84.89-27.03-84.89-12.92-23.76,2.16-78.82,11.85-100.42,5.68-12.65,10.25-26.05,11.76-39.96h.1s30.16,32.41,74.33,25.93l1.64-.83c5.32,9.09,11.88,18.65,19.9,27.83h0Z" style="fill: #222;"/>
              <path d="m1201.82,1895.09l-1.64.83c-44.17,6.48-74.33-25.92-74.33-25.92h-.1c1.08-9.85.61-19.94-2.06-30.23-6.47-24.84,19.39-29.15,19.39-29.15-3.23,15.11,38.78,37.79,38.78,37.79,0,0,5.23,21.54,19.95,46.67h.01Z" style="fill: #444;"/>
            </g>
            <g>
              <line x1="1616.06" y1="2126.97" x2="1616.01" y2="2126.98" style="fill: none; stroke: #000; stroke-linecap: round; stroke-linejoin: round; stroke-width: 13px;"/>
              <line x1="1467.34" y1="1831.14" x2="1462.62" y2="1831.19" style="fill: none; stroke: #000; stroke-linecap: round; stroke-linejoin: round; stroke-width: 13px;"/>
              <line x1="1125.75" y1="1869.99" x2="1125.85" y2="1870" style="fill: none; stroke: #000; stroke-linecap: round; stroke-linejoin: round; stroke-width: 13px;"/>
              <line x1="1201.82" y1="1895.09" x2="1200.18" y2="1895.92" style="fill: none; stroke: #000; stroke-linecap: round; stroke-linejoin: round; stroke-width: 13px;"/>
              <path d="m1272.36,1855.1s21.71-43.12,100.45-43.94c57.55-.6,77.59,6.77,89.81,20.03" style="fill: none; stroke: #000; stroke-linecap: round; stroke-linejoin: round; stroke-width: 13px;"/>
              <path d="m1272.36,1855.1c-2.16,11.02,33.39,59.15,62.48,101.25s-7.54,53.17-31.24,56.19c-23.7,3-64.1,26.18,18.31,56.15,63.96,23.25,164.93,20.98,208.45-8.11,48.47-32.39,17.77-59.92-21-63.16-33.42-2.78-36.63-14.26-35.55-31.31,1.07-17.04,0-119.02,0-119.02-3.62-5.96-6.92-11.28-11.19-15.89" style="fill: none; stroke: #000; stroke-linecap: round; stroke-linejoin: round; stroke-width: 13px;"/>
              <path d="m1098.91,2070.83s-3.23,31.32,15.08,60.47c18.31,29.16,75.44,167.3,324.26,154.41,187.45-9.72,184.46-127.01,177.81-158.74" style="fill: none; stroke: #000; stroke-linecap: round; stroke-linejoin: round; stroke-width: 13px;"/>
              <path d="m1614.05,2118.96c.36,1.17,1.17,3.95,2.01,8.01" style="fill: none; stroke: #000; stroke-linecap: round; stroke-linejoin: round; stroke-width: 13px;"/>
              <path d="m1102.14,2010.37c-3.23,3.24-3.23,60.46-3.23,60.46" style="fill: none; stroke: #000; stroke-linecap: round; stroke-linejoin: round; stroke-width: 13px;"/>
              <path d="m1125.75,1869.99c-1.51,13.91-6.08,27.31-11.76,39.96-9.69,21.6-24.77,76.66-11.85,100.42" style="fill: none; stroke: #000; stroke-linecap: round; stroke-linejoin: round; stroke-width: 13px;"/>
              <path d="m1614.05,2118.96c-.12-.4-.19-.61-.19-.61,0,0,12.69-66.97-28.64-107.02-5.31-5.15-11.52-9.86-18.76-13.92-53.01-29.72-55.81-112.02-55.28-144.15.1-6.39.34-10.79.34-12.41,0-9.71-8.61-30.23-23.69-33.47l-20.47,23.76" style="fill: none; stroke: #000; stroke-linecap: round; stroke-linejoin: round; stroke-width: 13px;"/>
              <path d="m1181.87,1848.41c16.16-22.68,45.24-23.76,65.71-22.68s24.78,29.36,24.78,29.36" style="fill: none; stroke: #000; stroke-linecap: round; stroke-linejoin: round; stroke-width: 13px;"/>
              <path d="m1125.75,1869.99c1.08-9.84.61-19.93-2.06-30.22-6.47-24.84,19.39-29.15,19.39-29.15-3.23,15.11,38.78,37.79,38.78,37.79" style="fill: none; stroke: #000; stroke-linecap: round; stroke-linejoin: round; stroke-width: 13px;"/>
              <path d="m1616.01,2106.46c-.38,4.03-1.02,8.21-1.96,12.5" style="fill: none; stroke: #000; stroke-linecap: round; stroke-linejoin: round; stroke-width: .48px;"/>
              <path d="m1614.05,2118.96c-9.63,43.89-50.88,101.38-173.64,101.96-192.57.92-275.52-66.79-311.23-125.66-27.34-45.03-27.03-84.89-27.03-84.89" style="fill: none; stroke: #000; stroke-linecap: round; stroke-linejoin: round; stroke-width: 13px;"/>
              <path d="m1098.91,2070.83s45.25,177.62,303.79,187.88c231.64,9.19,213.31-131.73,213.31-131.73" style="fill: none; stroke: #000; stroke-linecap: round; stroke-linejoin: round; stroke-width: 13px;"/>
              <path d="m1134.46,2094.59c-3.23-90.7,96.96-110.13,96.96-110.13,0,0,20.47-26.99-9.7-61.54-8.01-9.18-14.57-18.74-19.9-27.83" style="fill: none; stroke: #000; stroke-linecap: round; stroke-linejoin: round; stroke-width: 13px;"/>
              <path d="m1201.82,1895.09c-14.73-25.13-19.95-46.67-19.95-46.67" style="fill: none; stroke: #000; stroke-linecap: round; stroke-linejoin: round; stroke-width: 13px;"/>
              <path d="m1200.18,1895.92c-44.17,6.48-74.33-25.92-74.33-25.92" style="fill: none; stroke: #000; stroke-linecap: round; stroke-linejoin: round; stroke-width: 13px;"/>
              <path d="m1511.78,1853.27c1.61,2.35,68.68,127.28,75.13,157.91" style="fill: none; stroke: #000; stroke-linecap: round; stroke-linejoin: round; stroke-width: 13px;"/>
            </g>
          </g>
          <g>
            <path d="m1288.57,1962.49c-3.7,0-7.17-1.18-9.77-3.32-2.83-2.33-4.3-5.47-4.16-8.86.15-3.41,2.01-6.58,5.1-8.7,6.5-4.44,17.01-9.27,31.34-14.4-19.97-.64-35.44-.73-42.02-.73-2.9,0-4.54.01-4.69.02h-.21c-5.46,0-10.42-2.68-12.65-6.82-2.61-4.85-1.08-10.59,3.71-13.95,10.09-7.08,29.35-15.37,57.34-24.68-45.3-4.59-78.92-7.87-79.55-7.92-4.24-.34-8-2.24-10.31-5.21-1.8-2.32-2.57-5.13-2.17-7.91.84-5.88,6.78-10.31,13.81-10.31.45,0,.91.02,1.37.06,1.82.15,52.83,4.93,113.5,11.42,7.45.8,14.77,1.6,21.77,2.4,48.44-13.3,93.8-23.44,95.71-23.87,1.18-.27,2.41-.4,3.64-.4,6,0,11.31,3.19,13.2,7.95,1.11,2.79.96,5.82-.42,8.51-1.68,3.29-5.02,5.71-9.15,6.63-5.93,1.32-20.14,4.55-39.53,9.32,14.61,2.18,26.79,4.29,36.35,6.31,2.01-.89,4.26-1.36,6.55-1.36,1.29,0,2.58.15,3.83.44,1.57.37,3.13.75,4.69,1.13.67.17,1.34.37,1.96.62,7.93,3.09,13.17,8.47,14.36,14.78l.07.36c.03.15.04.3.05.45.05.43.07.87.07,1.3v.34c-.03.61-.11,1.2-.23,1.76l-.08.32c-.09.37-.24.85-.44,1.34-.07.17-.11.27-.16.37-.23.52-.49.99-.78,1.44l-.17.24c-.21.31-.51.7-.82,1.06l-.24.27c-.42.46-.8.82-1.2,1.15l-.2.16c-.28.23-.7.53-1.15.82l-.27.17c-.94.57-1.93,1.02-2.98,1.37l-.37.12c-.42.13-.8.23-1.2.32l-.43.1c-5.35,1.01-22.17,4.22-44.89,9.1,21.94,4.02,40.08,8.9,54.05,14.55,3.77,1.52,6.49,4.38,7.45,7.84.86,3.07.27,6.23-1.65,8.89-2.48,3.45-7.05,5.6-11.92,5.6-2.1,0-4.21-.4-6.1-1.17-22.83-9.23-58.89-16.12-107.21-20.5-55.69,14.16-76.43,23.31-84.02,28.49-2.47,1.69-5.6,2.61-8.82,2.61l.04-.02Zm31.17-58.55c20.59.77,40.75,1.97,59.08,3.54,16.22-4.06,33.94-8.18,52.87-12.31-16.08-2.43-35.49-4.97-57.97-7.58-20.86,5.81-38.95,11.29-53.98,16.34h0Z" style="fill: #222; stroke: #000; stroke-miterlimit: 10; stroke-width: 13px;"/>
            <path d="m1299.58,1991.4c-6.68,0-12.43-3.99-13.67-9.5-.63-2.8-.07-5.69,1.59-8.14,2.1-3.1,5.74-5.18,9.97-5.72,3.76-.48,92.81-11.68,157.86-11.68,6.11,0,11.74-.15,17.18-.29,4.65-.12,9.05-.24,13.13-.24,6.77,0,11.66.32,15.84,1.04,4.2.72,7.7,2.96,9.61,6.16,1.53,2.57,1.9,5.52,1.05,8.33-1.57,5.16-7.12,8.76-13.48,8.76-.95,0-1.91-.08-2.84-.24-2.93-.5-6.47-.73-11.16-.73-3.68,0-7.77.14-12.1.29-5.07.18-10.83.38-16.93.38-63.48,0-153.03,11.33-153.93,11.44-.72.09-1.43.13-2.13.13h.01Z" style="fill: #222; stroke: #000; stroke-miterlimit: 10; stroke-width: 13px;"/>
          </g>
          <path d="m1100.13,1955.76s4.99,56.41,20.99,56.41,43-27,23-61-25.05-46.32-22.53-58.66-19.44,46.83-21.46,63.25Z" style="fill: #444; stroke: #000; stroke-miterlimit: 10; stroke-width: 13px;"/>
          <path d="m1166.78,1846.79s-33.93,14.58-24.24,38.87c-1.62,8.1-45.25,97.18-21.01,183.02s195.53,110.13,290.87,110.13,174.51-27.37,189.06-70.37c0,0,25.86,57.41,1.62,97.9s-61.41,97.18-256.93,74.5c-195.53-22.67-237.54-158.72-242.39-171.68s-8.08-66.4-4.85-80.98-9.7-50.21,3.23-82.6c12.93-32.39,19.39-45.35,22.62-64.78,3.23-19.44-9.7-55.07,0-59.93,9.7-4.86,25.85,4.86,25.85,4.86l16.16,21.05h.01Z" style="isolation: isolate; opacity: .2;"/>
        </g>
      </g>
    </g>
  </g>
</svg>