<?xml version="1.0" encoding="UTF-8"?>
<svg id="CLOTHING" xmlns="http://www.w3.org/2000/svg" xmlns:xlink="http://www.w3.org/1999/xlink" viewBox="0 0 3000 3000">
  <defs>
    <clipPath id="clippath">
      <path d="m2047,1072.15s-93.93-67.43-153.54-105.19c-60.54,37.54-136.1,66.03-230.46,78.19-.8.1-1.59.19-2.39.3-12.52,40.7-46.46,82.35-62.46,84.87-22.66,3.57-65.78-25-97.47-49.14-6.94-5.32-19.22-16.09-31.62-26.45-178.27-6.23-318.96-55.33-426.59-116.63-66.2,23.61-173.84,76.79-238.47,134.05,0,0-55,8-48,57,0,0,110,185,253,216,35,6,53-35,53-35l3.63-.45c3.35,27.12,12.78,66.94,16.37,97.45,0,0,20,28,161,16s401-18,523-16c107.21,1.76,143,10,143,10l7.2-8.1.8-.9,10-73,179-240s3-39-59-23h0Z" style="fill: none;"/>
    </clipPath>
  </defs>
  <g id="Cycling-KOM">
    <circle cx="1500" cy="1500" r="1200" style="fill: #4c6164;"/>
    <path d="m2047,1072.15s-93.93-67.43-153.54-105.19c-60.54,37.54-136.1,66.03-230.46,78.19-.8.1-1.59.19-2.39.3-12.52,40.7-46.46,82.35-62.46,84.87-22.66,3.57-65.78-25-97.47-49.14-6.94-5.32-19.22-16.09-31.62-26.45-178.27-6.23-318.96-55.33-426.59-116.63-66.2,23.61-173.84,76.79-238.47,134.05,0,0-55,8-48,57,0,0,110,185,253,216,35,6,53-35,53-35l3.63-.45c3.35,27.12,12.78,66.94,16.37,97.45,0,0,20,28,161,16s401-18,523-16c107.21,1.76,143,10,143,10l7.2-8.1.8-.9,10-73,179-240s3-39-59-23h0Z" style="fill: #fff;"/>
    <g style="clip-path: url(#clippath);">
      <g>
        <ellipse cx="1099.5" cy="989.15" rx="45.5" ry="45" style="fill: #e80a0a;"/>
        <ellipse cx="1214.5" cy="1064.15" rx="45.5" ry="45" style="fill: #e80a0a;"/>
        <ellipse cx="1329.7" cy="1165.8" rx="45.5" ry="45" style="fill: #e80a0a;"/>
        <ellipse cx="1499.5" cy="1164.15" rx="45.5" ry="45" style="fill: #e80a0a;"/>
        <ellipse cx="1629.5" cy="1227.15" rx="45.5" ry="45" style="fill: #e80a0a;"/>
        <ellipse cx="1739.5" cy="1146.15" rx="45.5" ry="45" style="fill: #e80a0a;"/>
        <ellipse cx="1759.5" cy="1280.15" rx="45.5" ry="45" style="fill: #e80a0a;"/>
        <ellipse cx="1986.5" cy="1218.15" rx="45.5" ry="45" style="fill: #e80a0a;"/>
        <ellipse cx="1966.5" cy="1098.15" rx="45.5" ry="45" style="fill: #e80a0a;"/>
        <ellipse cx="1949.5" cy="986.15" rx="45.5" ry="45" style="fill: #e80a0a;"/>
        <ellipse cx="1827.5" cy="1043.15" rx="45.5" ry="45" style="fill: #e80a0a;"/>
        <ellipse cx="1182.5" cy="1205.15" rx="45.5" ry="45" style="fill: #e80a0a;"/>
        <ellipse cx="1405.5" cy="1061.15" rx="45.5" ry="45" style="fill: #e80a0a;"/>
        <ellipse cx="1297.5" cy="1312.15" rx="45.5" ry="45" style="fill: #e80a0a;"/>
        <ellipse cx="1438.5" cy="1270.15" rx="45.5" ry="45" style="fill: #e80a0a;"/>
        <ellipse cx="1568.5" cy="1334.15" rx="45.5" ry="45" style="fill: #e80a0a;"/>
        <ellipse cx="1710.5" cy="1395.15" rx="45.5" ry="45" style="fill: #e80a0a;"/>
        <ellipse cx="1439.5" cy="1398.15" rx="45.5" ry="45" style="fill: #e80a0a;"/>
        <ellipse cx="1234.5" cy="1434.15" rx="45.5" ry="45" style="fill: #e80a0a;"/>
        <ellipse cx="1146.5" cy="1334.15" rx="45.5" ry="45" style="fill: #e80a0a;"/>
        <ellipse cx="960.5" cy="1043.15" rx="45.5" ry="45" style="fill: #e80a0a;"/>
        <ellipse cx="826.5" cy="1069.15" rx="45.5" ry="45" style="fill: #e80a0a;"/>
        <ellipse cx="915.5" cy="1169.15" rx="45.5" ry="45" style="fill: #e80a0a;"/>
        <ellipse cx="1038.5" cy="1244.15" rx="45.5" ry="45" style="fill: #e80a0a;"/>
        <ellipse cx="1069.5" cy="1117.15" rx="45.5" ry="45" style="fill: #e80a0a;"/>
        <path d="m1916.2,1293.89c-8.19-7.88-19.37-12.74-31.7-12.74-25.13,0-45.5,20.15-45.5,45s20.37,45,45.5,45c11.42,0,21.84-4.17,29.83-11.04,1.76-23.3,2.26-45.48,1.87-66.22Z" style="fill: #e80a0a;"/>
        <path d="m1898.53,1150.5c-7.88-6.46-17.99-10.35-29.03-10.35-25.13,0-45.5,20.15-45.5,45s20.37,45,45.5,45c17.09,0,31.97-9.33,39.75-23.11-3.44-24.06-7.52-43.32-10.72-56.55h0Z" style="fill: #e80a0a;"/>
      </g>
    </g>
    <g>
      <g>
        <path d="m1124.57,1656.91s2.43,46.24,3.43,71.24c0,0,38.12,1.49,157,7s184,17,184,17l1-15s6-38,9-63l-354.43-17.24h0Z" style="isolation: isolate; opacity: .2;"/>
        <path d="m1550.05,1693.58s2.85,32.47.95,48.57c0,0,19-9,121-16s188-24,197-13l7.78-46.14s-71.67,51.99-322.73,24.56" style="isolation: isolate; opacity: .2;"/>
      </g>
      <path d="m1903.16,1415.36c-45.05-3.18-111.68-20.04-508.88-.88-125.81,6.07-296.22,35.4-309.79-11.82,0,0-21.92,18.16-1.08,79.14.4,4.35,9.15,19.95,10.47,25.9,10.53,47.22,24.61,158.96,24.61,158.96,0,0,189.22,111,357,20,0,0,27.97-47.23,45-51,11.43-2.53,18,21,18,21l2,30s200,52.76,337-26c0,0,16-92,29.5-150.92,10.26-44.77,15.83-89.37,15.83-89.37.73-5.56-15.35-2.41-19.67-5.01h.01Z" style="fill: #111;"/>
      <g>
        <path d="m1259.59,1424.71c-88.16,6.9-166.09,9.24-175.09-22.06,0,0-21.92,18.16-1.08,79.14.4,4.35,9.15,19.95,10.47,25.9,10.53,47.22,24.61,158.96,24.61,158.96,0,0,60.86,35.7,144.15,50.01-.73-83.32-1.95-213.23-3.06-291.94h0Z" style="fill: #222;"/>
        <path d="m1818.6,1686c20.36-6.32,40.22-14.61,58.9-25.35,0,0,16-92,29.5-150.92,10.26-44.77,15.83-89.37,15.83-89.37.73-5.56-15.35-2.41-19.67-5.01-13.43-.95-28.77-3.11-54.2-5.17l-30.37,275.82h.01Z" style="fill: #222;"/>
      </g>
      <g>
        <path d="m1114.07,1633.03c2.7,19.87,4.43,33.62,4.43,33.62,0,0,189.22,111,357,20,0,0,2.16-3.65,5.65-9.01l5.39-20.1c-208.2,56.32-359.9-18.06-372.47-24.51h0Z" style="fill: #111;"/>
        <path d="m1877.5,1660.65s2.18-12.54,5.61-31.31c-14.76,11.8-100.03,68.01-344.55,28.26l1.94,29.05s200,52.76,337-26Z" style="fill: #111;"/>
      </g>
      <path d="m1903.16,1415.36c-45.05-3.18-111.68-20.04-508.88-.88-125.81,6.07-296.22,35.4-309.79-11.82,0,0-21.92,18.16-1.08,79.14.4,4.35,9.15,19.95,10.47,25.9,10.53,47.22,24.61,158.96,24.61,158.96,0,0,189.22,111,357,20,0,0,27.97-47.23,45-51,11.43-2.53,18,21,18,21l2,30s200,52.76,337-26c0,0,16-92,29.5-150.92,10.26-44.77,15.83-89.37,15.83-89.37.73-5.56-15.35-2.41-19.67-5.01h.01Z" style="fill: none; stroke: #000; stroke-miterlimit: 10; stroke-width: 14px;"/>
      <g>
        <path d="m1136.55,1428.71s-13.55,33.44,4.45,65.44,15.88,189.81,15.88,189.81c-6.88-1.81-37.24-13.42-37.24-13.42,0,0-17.15-122.36-20.89-142.87-3.75-20.51-22.75-55.51-23.75-79.51s2.85-35.12,2.85-35.12c0,0,31.24,16.24,58.69,15.68h.01Z" style="isolation: isolate; opacity: .2;"/>
        <path d="m1443,1621.15s140,8,203-7c24-4,10,11-18,17-30.56,6.55-23,14-7,16s-21,30-20,45l-65-13s3-48-13-48c-24.44,0-31,50-31,50l-26,11s5-22-4-27-35.87-9.41-3-17c26-6-75-26-16-27Z" style="isolation: isolate; opacity: .15;"/>
      </g>
    </g>
    <g>
      <path d="m2083,1974.15c-50-14-77.92-22.04-107.96-53.02-30.04-30.98-50.04-63.98-73.04-85.98-19.76-18.9-24.4-50.36-24.99-64.54.78-13.32.28-18.54,1.99-21.46,0,0,3-11-1-31-13.3-8.61-145.56,64.24-324,17-3.2-.85-18-1-17-2,2.12-2.12-10.1,16.97,0,29,0,0-6.04,35.55-9.05,62.97-2.74,15.52-10.32,57.49-15.95,80.03-4.71,18.83-14.31,33.82-11.6,55.99-1.64-4.43-3.1-8.22-4.4-10.99-6.33-13.57-28.71-42.06-27.14-98.38,5.84-35.04,12.73-72.73,16.14-77.62,11.25-16.15-9.76-49.06-9.76-49.06l-10.24,27.06c-241,45-340.89-32.47-340.89-32.47-23.11,11.47-9.9,45.24-9.11,55.47.28,3.59-1.61,17.43-4.17,33.89h-.05c-.79,4.1-1.55,8.76-1.79,10.1l-15.74,78.26s-23.87,33.28-24.56,113.51.31,107.23,45.31,137.23c0,0-21,103,240,87,205-6,217.48-18.32,232.24-86.16,6.9-31.71-.04-57.84-11.29-78.16,12.69,3.13,26.29,5.88,38.39,7,35.65,3.31,80.65,24.31,115.65,46.31s101.09,71.5,215.55,50.25,181.42-51.43,191.44-103.34c10.02-51.91-2.98-82.91-52.98-96.91v.02Z" style="fill: #fff; stroke: #000; stroke-miterlimit: 10; stroke-width: 12.93px;"/>
      <path d="m1501,1963.15s12,43,32,64c19.99,20.99,45.79,43.86,52.4,72.43" style="fill: none; stroke: #000; stroke-miterlimit: 10; stroke-width: 14px;"/>
      <path d="m1108.78,1746.07s62.22,40.08,134.22,45.08-12,23-31,32-59,60-63,98-25,39-31,89,12.89,64,36.44,80.5c0,0-6.44,53.5,118.56,66.5s287.79,13.33,317.4-56.34c0,0,3.04,97.33-50.18,112.84-53.22,15.5-166.3,19.67-194.26,22.59-27.96,2.91-143,2.39-187.48-24.85s-44.62-40.18-44.05-54.21-16.74-20.18-22.59-27.11c-5.84-6.92-30.59-66.62-23.72-133.27s28.24-108.42,28.24-108.42l18.07-102.78s2.14-32.61-5.65-39.53h0Z" style="isolation: isolate; opacity: .2;"/>
      <path d="m1589.91,1746.07s-16.91,7.08-.91,25.08c9,2,50,9,78,8s-46,7-70,22-49.8,119.99-22.9,154.99,94.9,52.01,152.9,64.01,84.6,76.41,154.3,86.2c69.7,9.8,235.53-23.4,254.12-76.8,0,0,22.81,66.7-46.31,101.65-69.11,34.95-200.66,79.04-291.39,30.49s-150.13-82.35-173.93-82.45-46.15-4.27-56.47-14.68c-10.32-10.42-49.32-54.08-50.82-63.25s-19.57-54.47-9.04-81.32c10.53-26.85,23.42-101.32,25.98-118.59,2.56-17.26,6.78-31.62,6.78-31.62,0,0-13.22-42.64,14.78-29.64,38.59,17.92,0,0,0,0l34.91,5.92h0Z" style="isolation: isolate; opacity: .2;"/>
    </g>
    <path d="m1663,1045.15c-.8.1-1.59.19-2.39.3-12.52,40.7-46.46,82.35-62.46,84.87-22.66,3.57-65.78-25-97.47-49.14-6.94-5.32-19.22-16.09-31.62-26.45-23.71-.83-46.75-2.42-69.14-4.7,40.93,46.28,125.27,129.26,201.95,126.82,58.03-1.85,90.75-74.22,108.49-139.46-15.24,3.05-31.01,5.66-47.36,7.76h0Z" style="fill: #fff;"/>
    <g>
      <path d="m788.44,1076.65c-15.68,6.35-36.95,20.89-32.44,52.5,0,0,110,185,253,216,22.46,3.85,37.92-11.66,46.11-23.26-138.68-86.5-221.95-182-266.68-245.24h.01Z" style="fill: #fff;"/>
      <path d="m2054.83,1070.35l-131.21,204.29c1.06,21.19,2.1,42.34,3.08,62.68l.3-2.16,179-240s2.73-35.63-51.17-24.8h0Z" style="fill: #fff;"/>
    </g>
    <g>
      <path d="m933.82,1057.13l71.15-45.74-39.76-40.59c-24.53,11.78-50.18,25.32-74.86,40.02l43.47,46.31h0Z" style="fill: #fff; stroke: #111; stroke-width: 13px;"/>
      <path d="m1997.98,1037.49c-19.28-13.48-42.03-29.21-63.99-43.96l-12.5,16.18,60.99,45.74,15.51-17.95h-.01Z" style="fill: #fff; stroke: #111; stroke-width: 13px;"/>
    </g>
    <g>
      <path d="m2047,1072.15s-93.93-67.43-153.54-105.19c-60.54,37.54-136.1,66.03-230.46,78.19-.8.1-1.59.19-2.39.3-12.52,40.7-46.46,82.35-62.46,84.87-22.66,3.57-65.78-25-97.47-49.14-6.94-5.32-19.22-16.09-31.62-26.45-178.27-6.23-318.96-55.33-426.59-116.63-66.2,23.61-173.84,76.79-238.47,134.05,0,0-55,8-48,57,0,0,110,185,253,216,35,6,53-35,53-35l3.63-.45c3.35,27.12,12.78,66.94,16.37,97.45,0,0,20,28,161,16s401-18,523-16c107.21,1.76,143,10,143,10l7.2-8.1.8-.9,10-73,179-240s3-39-59-23h0Z" style="fill: none; stroke: #000; stroke-miterlimit: 10; stroke-width: 14px;"/>
      <g>
        <path d="m1922.5,1255.65c3.85,44.93,2.14,108.72-6.3,153.4" style="fill: none; stroke: #000; stroke-linecap: round; stroke-linejoin: round; stroke-width: 14px;"/>
        <line x1="1062" y1="1310.15" x2="1065.63" y2="1309.7" style="fill: none; stroke: #000; stroke-linecap: round; stroke-linejoin: round; stroke-width: 14px;"/>
        <line x1="2047" y1="1072.15" x2="2047" y2="1077.15" style="fill: none; stroke: #000; stroke-linecap: round; stroke-linejoin: round; stroke-width: 14px;"/>
        <path d="m1917.5,1198.65c.06.76,3.77,41.38,4.76,52.32.14,1.6.23,2.57.24,2.68" style="fill: none; stroke: #000; stroke-linecap: round; stroke-linejoin: round; stroke-width: 14px;"/>
        <path d="m1065.63,1309.7c-.05-.35-.09-.7-.13-1.05-2.07-17.36-19-45-19-45" style="fill: none; stroke: #000; stroke-linecap: round; stroke-linejoin: round; stroke-width: 14px;"/>
        <path d="m1916.2,1409.05l-7.2,8.1s-35.79-8.24-143-10c-122-2-382,4-523,16s-161-16-161-16c-3.59-30.51-13.02-70.33-16.37-97.45" style="fill: none; stroke: #000; stroke-linecap: round; stroke-linejoin: round; stroke-width: 14px;"/>
        <path d="m2047,1072.15s-93.93-67.43-153.54-105.19" style="fill: none; stroke: #000; stroke-linecap: round; stroke-linejoin: round; stroke-width: 14px;"/>
        <path d="m2047,1072.15c62-16,59,23,59,23l-179,240-10,73-.8.9" style="fill: none; stroke: #000; stroke-linecap: round; stroke-linejoin: round; stroke-width: 14px;"/>
        <path d="m1469.06,1054.73c12.4,10.36,24.68,21.13,31.62,26.45" style="fill: none; stroke: #000; stroke-linecap: round; stroke-linejoin: round; stroke-width: 14px;"/>
        <path d="m804,1072.15c64.63-57.26,172.27-110.44,238.47-134.05" style="fill: none; stroke: #000; stroke-linecap: round; stroke-linejoin: round; stroke-width: 14px;"/>
        <path d="m1062,1310.15s-18,41-53,35c-143-31-253-216-253-216-7-49,48-57,48-57" style="fill: none; stroke: #000; stroke-linecap: round; stroke-linejoin: round; stroke-width: 14px;"/>
        <path d="m1660.61,1045.45c.13-.44.26-.87.39-1.3" style="fill: none; stroke: #000; stroke-linecap: round; stroke-linejoin: round; stroke-width: 14px;"/>
        <path d="m1500.68,1081.18c31.69,24.14,74.81,52.71,97.47,49.14,16-2.52,49.94-44.17,62.46-84.87" style="fill: none; stroke: #000; stroke-linecap: round; stroke-linejoin: round; stroke-width: 14px;"/>
        <path d="m1660.61,1045.45c.8-.11,1.59-.2,2.39-.3,94.36-12.16,169.92-40.65,230.46-78.19" style="fill: none; stroke: #000; stroke-linecap: round; stroke-linejoin: round; stroke-width: 14px;"/>
        <path d="m1042.47,938.1c107.63,61.3,248.32,110.4,426.59,116.63" style="fill: none; stroke: #000; stroke-linecap: round; stroke-linejoin: round; stroke-width: 14px;"/>
      </g>
    </g>
    <g>
      <path d="m1063.61,1296.57s-7.61-44.42-31.61-41.42-27.12,27.87-27.12,27.87c0,0,7.82,35.22-39.53,45.18,0,0,40.33,24.18,60.99,18.07,20.66-6.11,34.88-34.28,37.27-49.69h0Z" style="isolation: isolate; opacity: .2;"/>
      <path d="m1922,1214.15s4,125,2,136l66.85-101.02-69.85-54.98,1,20Z" style="isolation: isolate; opacity: .2;"/>
      <path d="m1662.04,1042.47c-14.94,48.02-66.04,87.68-66.04,87.68-31.52-1.37-88.86-44.52-126.34-73.81-121.87-6.2-244.5-31.28-244.5-31.28,0,0,152.84,146.09,364.76,123.56,211.91-22.53,268.8-160.38,268.8-160.38-29.83,15.74-88.55,34.3-196.67,54.23h0Z" style="isolation: isolate; opacity: .2;"/>
      <path d="m1063.76,1298.35c-1.71-8.46-2.88-14.21-2.88-14.21-.02,4.22.99,9.03,2.88,14.21Z" style="isolation: isolate; opacity: .2;"/>
      <path d="m1171,1392.15c-50.69-16.32-95.65-62.18-107.24-93.8,4.04,20.04,11.04,55.3,12.36,65.41,1.87,14.38-5.6,50.43,18.64,55.91s84.43,13.46,133.84,8.47c49.4-4.99-29.84-27.06-57.6-35.99Z" style="isolation: isolate; opacity: .2;"/>
      <path d="m1919.79,1319.72s4.99,83.37-86.4,86.4c2.61,3.03,62.68,6.78,62.68,6.78,0,0,13.44,5.05,21.18-15.85,7.74-20.9,4.33-65.76,2.53-77.33h0Z" style="isolation: isolate; opacity: .2;"/>
    </g>
    <g id="clothing-shoes">
      <g>
        <g>
          <path d="m2151.4,2109.42c23.45,17.29-7.49,44.87-7.49,44.87-67.24,73.15-278.06,68.32-346.66,43.22-57.48-21.04-121.45-40.55-149.07-48.8-27.61-8.26-98.7-14.31-121.44-47.26-2.56-3.7-4.95-7.6-7.17-11.65,15.09,3.01,110.93,22.43,186.18,45.18,81.91,24.78,132.88,59.25,280.66,45.53,147.79-13.71,164.99-71.1,164.99-71.1h0Z" style="fill: #fff;"/>
          <path d="m2123.04,1981.68s-45.95-31.35-84.93-46.68l.15-.37c-5.24-32.26-97.65-94.23-97.65-94.23,0,0-29.53-56.17-58.64-62.15-20.45-4.2-20.77,9.07-19.15,17.34-13.75-13.78-31.32-24.4-62.13-20.69-34.98,4.22-59.49,17.44-45.88,36.09,0,0-69.25-51.89-95.84,25.84,0,0-90.42,23.47-128.89-24.73,0,0-42.4,14.46-14.87,64.04,0,0-20,77.56-20.28,111.08-.16,20.31,3.2,45.85,10.94,70.16,3.58,11.3,8.12,22.33,13.7,32.44,15.09,3.01,110.93,22.43,186.18,45.18,81.91,24.78,132.88,59.25,280.66,45.53,147.79-13.71,164.99-71.1,164.99-71.1,0,0,7.47-12.36,12.69-29.8,8.95-29.84,11.4-74.57-41.06-97.93v-.02Z" style="fill: #fff;"/>
        </g>
        <g>
          <path d="m1658.97,1836.82s-90.42,23.47-128.89-24.73c0,0-42.4,14.46-14.87,64.04,0,0-20,77.56-20.28,111.08-.16,20.31,3.2,45.85,10.94,70.16,3.58,11.3,8.12,22.33,13.7,32.44,2.22,4.05,4.61,7.95,7.17,11.65,22.73,32.94,93.83,39,121.44,47.26,27.62,8.25,91.58,27.75,149.07,48.8,68.6,25.1,279.42,29.93,346.66-43.22,0,0,30.94-27.58,7.49-44.87,0,0,7.47-12.36,12.69-29.81,8.95-29.84,11.4-74.57-41.06-97.93,0,0-45.95-31.35-84.93-46.68-4.39-1.73-8.69-3.26-12.82-4.51,0,0-99.12-62.33-117.18-83.1s-25.22-29.68-39.87-46.06c-1.74-1.95-3.54-3.88-5.42-5.74-13.75-13.78-31.32-24.4-62.13-20.69-34.98,4.22-59.49,17.44-45.88,36.09,0,0-69.25-51.89-95.84,25.84v-.02Z" style="fill: none; stroke: #000; stroke-miterlimit: 10; stroke-width: 13.37px;"/>
          <path d="m1864.53,1801.69s-1.03-2.61-1.71-6.11c-1.62-8.27-1.3-21.54,19.15-17.34,29.11,5.98,58.64,62.15,58.64,62.15,0,0,92.41,61.97,97.65,94.23" style="fill: none; stroke: #000; stroke-miterlimit: 10; stroke-width: 13.37px;"/>
          <path d="m1517.54,2089.4s.7.14,2.04.4c15.09,3.01,110.93,22.43,186.18,45.18,81.91,24.78,132.88,59.25,280.66,45.53,147.79-13.71,164.99-71.1,164.99-71.1" style="fill: none; stroke: #000; stroke-miterlimit: 10; stroke-width: 13.37px;"/>
          <path d="m1505.61,2057.31l.27.05c5.96,1.12,111.03,21.02,193.55,44.75.69.19,1.38.39,2.07.59,85.23,24.69,138.25,59.12,292.09,45.25,132.93-11.98,164.41-56.47,170.52-68.34.96-1.87,1.29-2.93,1.29-2.93" style="fill: none; stroke: #000; stroke-miterlimit: 10; stroke-width: 13.37px;"/>
          <path d="m1754.81,1810.98s96.55,86.97,123.66,101.93c27.09,14.96,63.37,40.86-20.8,59.71-89.94,20.13,119.32,89.74,265.37,9.05" style="fill: none; stroke: #000; stroke-miterlimit: 10; stroke-width: 13.37px;"/>
          <path d="m1515.22,1876.12s82.6,37.03,196.2-7.09c0,0,.02-.01.03-.01" style="fill: none; stroke: #000; stroke-miterlimit: 10; stroke-width: 13.37px;"/>
          <path d="m1658.97,1836.82s26.62,16.2,52.45,32.21c20.69,12.85,40.86,25.57,46.42,29.77,14.75,11.14,73.6,35.92,17.23,66.31-62.01,33.43-74.82,115.27-75.64,137.01-.01.22-.02.44-.02.64" style="fill: none; stroke: #000; stroke-miterlimit: 10; stroke-width: 13.37px;"/>
        </g>
      </g>
      <path d="m1545.41,1831.36s-14.54-24.29-27.47-11.34c-12.93,12.96-17.78,53.45,12.93,63.16,0,0-25.85-4.86-24.24,43.73,0,0,27.47,74.5,46.86,100.42,19.39,25.91,17.78,110.13,17.78,110.13,0,0,101.8,17.82,171.29,43.73,69.48,25.91,197.14,59.93,308.64,22.67,111.5-37.25,106.65-64.78,106.65-64.78,0,0-6.46-27.53,1.62-43.73s11.31-40.49,9.7-55.07c0,0-116.35,80.98-355.5,29.15-239.16-51.83-263.4-95.56-261.78-152.24,1.62-56.69-6.46-85.84-6.46-85.84h-.02Z" style="isolation: isolate; opacity: .2;"/>
      <path d="m1995.28,1871.37c-9.19-9.36-20.5-14.94-30.26-14.94h0c-5.57,0-10.32,1.83-13.73,5.31-1.37,1.4-2.46,3.03-3.3,4.84-21.43-6.46-51.12-11.81-89.56-16.16-21.04-2.38-41.31-4.03-57.44-5.14,31.11-13.94,54.15-17.19,69.26-17.08,4.97.04,9.31.44,13.07,1.03,11.62,9.77,22.92,19.17,33.67,28l1.94,1.6,2.4-.73c1.94-.59,3.72-1.5,5.29-2.69,10.9-8.29,9.56-28.26-3.06-45.47-7.79-10.63-18.22-17.81-27.89-19.21-5.49-.8-10.43.33-14.29,3.26-4.51,3.43-7.01,8.93-7.32,15.61-24.8-.96-62.06,5.55-112.55,35.04-3.6,2.1-5.38,6.33-4.37,10.38,1.01,4.05,4.58,6.94,8.75,7.09.43.02,43.59,1.66,90.54,6.97,48.22,5.46,76.5,11.99,93.09,17.74-25.85,6.9-67.52,18.23-97.84,27.49-4.95,1.51-7.74,6.76-6.23,11.71,1.23,4.04,4.95,6.64,8.97,6.64.91,0,1.83-.13,2.74-.41,43.07-13.15,109.37-30.56,119.54-33.21l26.65,18.91,2.75-3.6c7.82-10.25,3.16-28.72-10.83-42.96v-.02Z" style="fill: #111;"/>
    </g>
    <g>
      <g>
        <g>
          <path d="m1587.44,2119.45c6.66,31.73,9.64,149.01-177.81,158.74-248.82,12.9-305.95-125.25-324.26-154.41-18.31-29.15-15.08-60.47-15.08-60.47,0,0,45.25,177.62,303.79,187.88,231.64,9.19,213.31-131.73,213.31-131.73h.05Z" style="fill: #fff;"/>
          <path d="m1587.39,2119.46h.05c-.84-4.07-1.65-6.85-2.01-8.02-.12-.4-.19-.61-.19-.61,0,0,12.69-66.97-28.64-107.02l1.71-.15c-6.46-30.63-73.52-155.55-75.13-157.91h-.62c.1-6.4.34-10.8.34-12.42,0-9.71-8.61-30.23-23.69-33.47l-20.47,23.76-4.72.05c-12.23-13.26-32.27-20.63-89.81-20.03-78.74.82-100.45,43.94-100.45,43.94,0,0-4.31-28.28-24.78-29.36s-49.55,0-65.71,22.68c0,0-42.02-22.68-38.78-37.79,0,0-25.86,4.31-19.39,29.15,2.67,10.29,3.14,20.38,2.06,30.22-1.51,13.91-6.08,27.31-11.76,39.96-9.69,21.6-24.77,76.66-11.85,100.42-3.23,3.24-3.23,60.46-3.23,60.46,0,0,45.25,177.62,303.79,187.88,231.64,9.19,213.31-131.73,213.31-131.73h-.03Z" style="fill: #fff;"/>
        </g>
        <g>
          <line x1="1587.44" y1="2119.45" x2="1587.39" y2="2119.46" style="fill: none; stroke: #000; stroke-linecap: round; stroke-linejoin: round; stroke-width: 13.37px;"/>
          <line x1="1438.72" y1="1823.62" x2="1434" y2="1823.67" style="fill: none; stroke: #000; stroke-linecap: round; stroke-linejoin: round; stroke-width: 13.37px;"/>
          <line x1="1097.13" y1="1862.47" x2="1097.23" y2="1862.48" style="fill: none; stroke: #000; stroke-linecap: round; stroke-linejoin: round; stroke-width: 13.37px;"/>
          <line x1="1173.2" y1="1887.57" x2="1171.56" y2="1888.4" style="fill: none; stroke: #000; stroke-linecap: round; stroke-linejoin: round; stroke-width: 13.37px;"/>
          <path d="m1243.74,1847.58s21.71-43.12,100.45-43.94c57.55-.6,77.59,6.77,89.81,20.03" style="fill: none; stroke: #000; stroke-linecap: round; stroke-linejoin: round; stroke-width: 13.37px;"/>
          <path d="m1243.74,1847.58c-2.16,11.02,33.39,59.15,62.48,101.25s-7.54,53.17-31.24,56.19c-23.7,3-64.1,26.18,18.31,56.15,63.96,23.25,164.93,20.98,208.45-8.11,48.47-32.39,17.77-59.92-21-63.16-33.42-2.78-36.63-14.26-35.55-31.31,1.07-17.04,0-119.02,0-119.02-3.62-5.96-6.92-11.28-11.19-15.89" style="fill: none; stroke: #000; stroke-linecap: round; stroke-linejoin: round; stroke-width: 13.37px;"/>
          <path d="m1070.29,2063.31s-3.23,31.32,15.08,60.47c18.31,29.16,75.44,167.3,324.26,154.41,187.45-9.72,184.46-127.01,177.81-158.74" style="fill: none; stroke: #000; stroke-linecap: round; stroke-linejoin: round; stroke-width: 13.37px;"/>
          <path d="m1585.43,2111.44c.36,1.17,1.17,3.95,2.01,8.01" style="fill: none; stroke: #000; stroke-linecap: round; stroke-linejoin: round; stroke-width: 13.37px;"/>
          <path d="m1073.52,2002.85c-3.23,3.24-3.23,60.46-3.23,60.46" style="fill: none; stroke: #000; stroke-linecap: round; stroke-linejoin: round; stroke-width: 13.37px;"/>
          <path d="m1097.13,1862.47c-1.51,13.91-6.08,27.31-11.76,39.96-9.69,21.6-24.77,76.66-11.85,100.42" style="fill: none; stroke: #000; stroke-linecap: round; stroke-linejoin: round; stroke-width: 13.37px;"/>
          <path d="m1585.43,2111.44c-.12-.4-.19-.61-.19-.61,0,0,12.69-66.97-28.64-107.02-5.31-5.15-11.52-9.86-18.76-13.92-53.01-29.72-55.81-112.02-55.28-144.15.1-6.39.34-10.79.34-12.41,0-9.71-8.61-30.23-23.69-33.47l-20.47,23.76" style="fill: none; stroke: #000; stroke-linecap: round; stroke-linejoin: round; stroke-width: 13.37px;"/>
          <path d="m1153.25,1840.89c16.16-22.68,45.24-23.76,65.71-22.68s24.78,29.36,24.78,29.36" style="fill: none; stroke: #000; stroke-linecap: round; stroke-linejoin: round; stroke-width: 13.37px;"/>
          <path d="m1097.13,1862.47c1.08-9.84.61-19.93-2.06-30.22-6.47-24.84,19.39-29.15,19.39-29.15-3.23,15.11,38.78,37.79,38.78,37.79" style="fill: none; stroke: #000; stroke-linecap: round; stroke-linejoin: round; stroke-width: 13.37px;"/>
          <path d="m1587.39,2098.94c-.38,4.03-1.02,8.21-1.96,12.5" style="fill: none; stroke: #000; stroke-linecap: round; stroke-linejoin: round; stroke-width: .48px;"/>
          <path d="m1585.43,2111.44c-9.63,43.89-50.88,101.38-173.64,101.96-192.57.92-275.52-66.79-311.23-125.66-27.34-45.03-27.03-84.89-27.03-84.89" style="fill: none; stroke: #000; stroke-linecap: round; stroke-linejoin: round; stroke-width: 13.37px;"/>
          <path d="m1070.29,2063.31s45.25,177.62,303.79,187.88c231.64,9.19,213.31-131.73,213.31-131.73" style="fill: none; stroke: #000; stroke-linecap: round; stroke-linejoin: round; stroke-width: 13.37px;"/>
          <path d="m1105.84,2087.07c-3.23-90.7,96.96-110.13,96.96-110.13,0,0,20.47-26.99-9.7-61.54-8.01-9.18-14.57-18.74-19.9-27.83" style="fill: none; stroke: #000; stroke-linecap: round; stroke-linejoin: round; stroke-width: 13.37px;"/>
          <path d="m1173.2,1887.57c-14.73-25.13-19.95-46.67-19.95-46.67" style="fill: none; stroke: #000; stroke-linecap: round; stroke-linejoin: round; stroke-width: 13.37px;"/>
          <path d="m1171.56,1888.4c-44.17,6.48-74.33-25.92-74.33-25.92" style="fill: none; stroke: #000; stroke-linecap: round; stroke-linejoin: round; stroke-width: 13.37px;"/>
          <path d="m1483.16,1845.75c1.61,2.35,68.68,127.28,75.13,157.91" style="fill: none; stroke: #000; stroke-linecap: round; stroke-linejoin: round; stroke-width: 13.37px;"/>
        </g>
      </g>
      <path d="m1138.16,1839.27s-33.93,14.58-24.24,38.87c-1.62,8.1-45.25,97.18-21.01,183.02s195.53,110.13,290.87,110.13,174.51-27.37,189.06-70.37c0,0,25.86,57.41,1.62,97.9s-61.41,97.18-256.93,74.5c-195.53-22.67-237.54-158.72-242.39-171.68s-8.08-66.4-4.85-80.98-9.7-50.21,3.23-82.6c12.93-32.39,19.39-45.35,22.62-64.78,3.23-19.44-9.7-55.07,0-59.93,9.7-4.86,25.85,4.86,25.85,4.86l16.16,21.05h.01Z" style="isolation: isolate; opacity: .2;"/>
      <path d="m1484.82,1957.1c-81.04-18.03-142.46-10.25-177.01-1.94,49.29-42.92,151.48-63.91,152.68-64.15,3.58-.72,6.42-3.45,7.27-7s-.43-7.27-3.29-9.54c-31.56-25.04-79.2-34.84-141.59-29.12-24.86,2.28-46.9,6.61-62.07,10.16-6.41-8.7-15.91-14.21-26.53-14.21-19.3,0-34.95,18.21-34.95,40.67s15.65,40.67,34.95,40.67,34.95-18.21,34.95-40.67c0-3.05-.3-6.03-.85-8.89,38.04-8.54,114.55-20.64,166.31,4.73-33.26,8.62-96.18,28.14-135.75,60.47-5.39-13.03-16.84-22.03-30.1-22.03-18.44,0-33.38,17.39-33.38,38.84s14.95,38.84,33.38,38.84c11.06,0,20.87-6.27,26.94-15.92,8.98-2.86,22.91-6.58,41.12-9.31,31.02-4.65,81.15-7.25,143.85,6.69,5.05,1.12,10.07-2.06,11.19-7.12s-2.06-10.07-7.12-11.19v.02Z" style="fill: #111;"/>
    </g>
  </g>
</svg>