<?xml version="1.0" encoding="UTF-8"?>
<svg id="CLOTHING" xmlns="http://www.w3.org/2000/svg" xmlns:xlink="http://www.w3.org/1999/xlink" viewBox="0 0 3000 3000">
  <defs>
    <linearGradient id="linear-gradient" x1="1496.18" y1="1460.67" x2="1496.18" y2="1978.41" gradientTransform="translate(0 3000) scale(1 -1)" gradientUnits="userSpaceOnUse">
      <stop offset="0" stop-color="#fff"/>
      <stop offset=".07" stop-color="#fefafa"/>
      <stop offset=".16" stop-color="#fdecec"/>
      <stop offset=".24" stop-color="#fbd5d6"/>
      <stop offset=".34" stop-color="#f8b5b6"/>
      <stop offset=".43" stop-color="#f58b8e"/>
      <stop offset=".53" stop-color="#f0595d"/>
      <stop offset=".63" stop-color="#eb1e23"/>
      <stop offset=".67" stop-color="#e90006"/>
    </linearGradient>
  </defs>
  <g id="Alpine-Skiing-Blue-and-White-Stripes">
    <circle cx="1500" cy="1500" r="1200" style="fill: #4c6164;"/>
    <path d="m2436.5,1272.8c-37-27-169-34-220-190,0,0-34-14-27,27,0,0-31,67-129,3-60.42-39.46-121.22-78.53-172.32-105.28-60.15,36.84-135,64.77-228.18,76.78-276.3,35.6-481.02-26.36-625.33-109.8-71.82,24.5-242.77,96.66-342.72,253.92-74.95,114.88-97.95,189.88-114.95,304.88,0,0-24.5,13.5-.5,30.5s132.72,51,284.86,17c0,0,23.41-27.54,6.78-37.27,0,0,50.36-102.73,182.36-170.73,0,0,18,14,35,117,17.7,107.27,28.48,279.6,25.5,367.5,0,0,301,122,351.5-13.5,12-75,26.6-175.09,47-178,33.26-4.74,13,173,13,173,0,0,30.5,97.5,323.5,33.5,41-30,32.16-27.36,31.83-81.43-.33-54.07,25.09-175.69,33.88-230.4,8.79-54.67,20.79-113.67,16.79-155.67,0,0,84,71,220,64s223-85,271-166c0,0,54-3,17-30h0Z" style="fill: #185bca;"/>
    <g>
      <path d="m855.91,1075.46c-9.93,37.07-13.81,77.18-11.57,119.25,9.65-9.01,19.45-17.64,29.38-25.78.22-29.37,3.79-57.46,10.66-83.8,3.99-15.31,8.91-29.03,14.05-40.96-14.45,8.88-28.22,17.9-41.34,27.03-.4,1.41-.8,2.82-1.19,4.26h.01Z" style="fill: #fff;"/>
      <path d="m938.57,1020.88c-3.71,9.66-7.25,20.31-10.38,31.99-7.2,26.86-11.21,55.32-12.03,84.96,10.24-6.59,20.58-12.56,30.98-17.79,1.57-19.9,4.74-39.12,9.53-57.49,6.91-26.49,16.57-48.23,25.43-64.13-15.08,7.34-29.58,14.84-43.52,22.48v-.02Z" style="fill: #fff;"/>
      <path d="m776.79,1221.45c.82,13.07,2.23,26.35,4.23,39.79,8.68-10.1,17.56-20.06,26.64-29.77-.32-3.5-.61-6.99-.84-10.45-2.65-40.14.65-78.26,9.79-113.31.74-2.83,1.51-5.59,2.3-8.31-13.41,10.54-26.03,21.17-37.91,31.84-4.74,28.72-6.18,58.92-4.22,90.2h.01Z" style="fill: #fff;"/>
      <path d="m743.58,1261.69c-2.35-35.64,0-69.69,6.95-101.42-13.16,13.31-25.23,26.59-36.31,39.77-1.77,20.11-2,40.85-.68,62.08,1.46,23.33,4.82,47.3,10.03,71.76,7.88-10.74,16.05-21.56,24.5-32.36-2.12-13.48-3.63-26.77-4.49-39.82h0Z" style="fill: #fff;"/>
      <path d="m654.18,1284.84c.14,4.45.35,8.92.63,13.41,2.17,34.7,8.54,70.79,18.96,107.84,7.02-10.8,14.48-22.02,22.37-33.52-5.9-25.58-9.69-50.55-11.29-74.75-1.38-20.97-1.13-41.38.72-61.1-11.89,16.46-22.29,32.57-31.39,48.12Z" style="fill: #fff;"/>
      <path d="m603.93,1399.33c3.89,28.83,10.51,58.48,19.8,88.74,5.81-10.18,12.89-22.29,21.09-35.84-7.58-29.74-12.35-58.71-14.19-86.64-.77-11.62-1.02-23.06-.79-34.31-11.94,25.68-20.2,48.79-25.92,68.06h0Z" style="fill: #fff;"/>
      <path d="m2045.32,1103.68c-12.26-7.31-29.34-17.42-49.55-29.34,15.34,24.89,29.07,52.82,35.85,80.72,11.34,4.57,22.27,8.51,32.77,11.87-3.06-21.43-10-42.82-19.07-63.25Z" style="fill: #fff;"/>
      <path d="m2124.31,1138.09c-12.59-2.15-25.55-6.45-37.56-11.68,8.01,16.69,14.5,34.04,18.22,51.31,11.07,2.32,21.54,3.99,31.39,5.11-2.33-15.05-6.55-30.07-12.05-44.74h0Z" style="fill: #fff;"/>
      <path d="m1941.85,1042.6c-21.55-12.67-44.5-26.14-67.68-39.73,20.32,23.69,51.97,64.48,71.73,109.02,13.79,8.27,27.14,15.67,40.05,22.27-9.48-32.73-26.36-64.4-44.1-91.55h0Z" style="fill: #fff;"/>
      <path d="m2211.38,1181.3c-9.2-19.72-19.71-39.94-30.53-59.51-6.53,8.76-15.33,13.83-25.4,16.18,9.09,16.49,17.2,32.1,24.25,46.65,12.1-.45,22.67-1.71,31.68-3.31h0Z" style="fill: #fff;"/>
      <path d="m1777.45,946.18c-1.54,1.38-2.4,2.15-2.4,2.15,1.19,0,4.35.63,9.11,1.78-2.25-1.32-4.49-2.63-6.71-3.93Z" style="fill: #fff;"/>
      <path d="m1251.01,1663.93c-61.6-19.51-100.91-45.05-124.66-65.44-8.6-7.38-15.67-14.5-21.44-21.03,2.02,14.39,4.09,30.35,6.01,47.37,29.96,24.72,74.59,51.12,140.09,70.52v-31.43h0Z" style="fill: #fff;"/>
      <path d="m1439.43,1687.43c-17.97,2.72-39.14,3.1-63.23,1.19-.14,9.64-.29,19.7-.44,30.07,10.09.76,19.73,1.15,28.91,1.15,29.33,0,53.99-3.88,73.87-11.61,3.24-13.9,6.68-27.44,10.32-40.2-11.26,9.61-27.87,16.14-49.43,19.4h0Z" style="fill: #fff;"/>
      <path d="m1251.01,1730.98c-43.48-11.69-89.85-28.22-127.78-51.27-2.62-1.59-5.1-3.16-7.46-4.7.95,11.92,1.77,24.09,2.4,36.36,30.31,16.99,73.14,35.27,132.84,50.68v-31.07Z" style="fill: #fff;"/>
      <path d="m1375.21,1754.09c-.16,9.91-.32,19.95-.49,30.02,10.47.81,20.46,1.22,29.95,1.22,22.64,0,42.49-2.31,59.52-6.92,2.01-11.12,4.17-22.48,6.48-33.86-18.95,8.16-48.72,13.41-95.46,9.53h0Z" style="fill: #fff;"/>
      <path d="m1374.12,1818.1c-.19,10.11-.38,20.13-.57,29.97,1.35.01,2.72.03,4.05.03,31.34,0,56.45-3.66,76.6-9.38,1.57-10.36,3.34-21.56,5.3-33.28-18.83,7.32-46.15,13.03-85.37,12.65h-.01Z" style="fill: #fff;"/>
      <path d="m1251.01,1803.61c-43.9-8.37-90.77-20.65-128.86-38.56-.86-.41-1.7-.81-2.53-1.21.01,11-.17,21.94-.6,32.71,35.62,15.49,79.8,28.09,131.99,37.65v-30.59h0Z" style="fill: #fff;"/>
      <path d="m1688.38,1655.28c-5.33.86-10.69,1.68-16.11,2.4-46.64,6.23-96.7,7.27-149.57,3.14,2.27,9.64,3.93,19.88,5.08,30.45,19.3,1.34,38.26,2.02,56.83,2.02,32.29,0,63.44-2.03,93.28-6.1,3.4-.46,6.78-.96,10.14-1.48l.34-30.44h.01Z" style="fill: #fff;"/>
      <path d="m1824.87,1613.07c-3.41,1.67-6.87,3.29-10.35,4.88l1.3,32.2c8.26-3.51,16.37-7.21,24.29-11.14,25.28-12.55,46.08-25.88,62.82-38.4,2.47-15.43,4.93-30.72,7.26-45.1-17.69,16.42-45.58,38.09-85.32,57.56h0Z" style="fill: #fff;"/>
      <path d="m1687.53,1730.64c-5.41.63-10.85,1.22-16.36,1.73-44.01,4.05-91.27,4-141.23-.11.05,10.12-.2,20.21-.66,30.04,25.42,2.05,50.19,3.08,74.23,3.08s47.73-1.04,70.42-3.13c4.46-.41,8.87-.87,13.27-1.36l.34-30.24h-.01Z" style="fill: #fff;"/>
      <path d="m1822.15,1697.51c-1.43.58-2.89,1.14-4.34,1.71l1.28,31.61c4.85-1.78,9.65-3.61,14.36-5.53,21.24-8.64,39.21-17.86,54.19-26.81,1.8-11.99,3.88-25.5,6.11-39.81-16.55,11.93-40.01,25.99-71.59,38.82h-.01Z" style="fill: #fff;"/>
      <path d="m1686.75,1800.59c-4.56.4-9.15.78-13.78,1.09-45.49,3.11-94.51,2.12-146.39-2.87-1.08,10.95-2.31,21.03-3.51,29.81,33.22,3.22,65.34,4.84,96.19,4.84,19.88,0,39.24-.67,58.04-2.01,3.06-.22,6.09-.46,9.12-.72l.34-30.14h-.01Z" style="fill: #fff;"/>
      <path d="m1823.16,1772.37c-.78.28-1.58.54-2.37.81l1.26,31.23c4.71-1.54,9.37-3.12,13.95-4.79,16.43-5.96,30.89-12.28,43.51-18.58.33-11.87.84-24.13,1.66-34.91-15.72,8.89-35.06,18.08-58.03,26.24h.02Z" style="fill: #fff;"/>
    </g>
    <path d="m2436.5,1272.8c-37-27-169-34-220-190,0,0-34-14-27,27,0,0-31,67-129,3-60.42-39.46-121.22-78.53-172.32-105.28-60.15,36.84-135,64.77-228.18,76.78-276.3,35.6-481.02-26.36-625.33-109.8-71.82,24.5-242.77,96.66-342.72,253.92-74.95,114.88-97.95,189.88-114.95,304.88,0,0-24.5,13.5-.5,30.5s132.72,51,284.86,17c0,0,23.41-27.54,6.78-37.27,0,0,50.36-102.73,182.36-170.73,0,0,18,14,35,117,17.7,107.27,28.48,279.6,25.5,367.5,0,0,301,122,351.5-13.5,12-75,26.6-175.09,47-178,33.26-4.74,13,173,13,173,0,0,30.5,97.5,323.5,33.5,41-30,32.16-27.36,31.83-81.43-.33-54.07,25.09-175.69,33.88-230.4,8.79-54.67,20.79-113.67,16.79-155.67,0,0,84,71,220,64s223-85,271-166c0,0,54-3,17-30h0Z" style="fill: none; stroke: #000; stroke-miterlimit: 10; stroke-width: 14px;"/>
    <path d="m1827.09,1039.36c-19.14,8.39-39.49,15.93-61.1,22.5,2.6,27.56,8.52,169.16-142.83,178.33-152.73,9.26-301.23-27.87-354.7-172.74-50.52-12.17-96.92-27.85-139.36-45.86,34.81,74.58,110.02,302.25-39.1,355.71-5.08,0-37-1-37-1,0,0,22.96,62.1,21.27,85.82-1.69,23.72,8.57,60.24,18.73,77.18,5.08,1.69,468.51-59.56,819-11,2.37.33,94.03-238.98-71.99-476.16-4.08-5.83-8.44-9.97-12.92-12.78h0Z" style="fill: url(#linear-gradient); stroke: #000; stroke-miterlimit: 10; stroke-width: 14px;"/>
    <path d="m1942.21,1336.85s112.79,121.45,274.79,74.45c127-42,145-118,145-118,0,0-63.12-24.76-55.56-34.38s59.56,26.38,76.56,28.38,25.46-20.76,13.23-28.38,77.93,23.32,42.35,42.35-57.6,57.6-57.6,57.6c0,0-86.11,93.03-188.05,106.73s-252.42-49.13-252.42-49.13l1.69-79.62" style="isolation: isolate; opacity: .2;"/>
    <path d="m1438.5,1644.87s92.33,16.94,187.2-11.01-13.55,46.59-27.11,55.06c-13.55,8.47-32.65,186.39,23.26,192.32,0,0-81.32-5.08-88.09-32.19-6.78-27.11,13.16-161.82-9.71-177.92-22.87-16.09-38.96-6.78-42.35,26.26s-20.7,125.91-20.7,125.91c0,0,7.15-147.93-24.19-158.1-31.34-10.16-21.18-27.11,1.69-20.33h0Z" style="isolation: isolate; opacity: .2;"/>
    <path d="m783,1552.3s21.25,18.33,2.13,38.66l62.68-8.47s47.08-26.96,15.19-37.19c0,0,83.24-125.65,188-168,0,0,7.03,24.88,22,96,12,57,24.01,83.99,24,113s15.48,266.97,15.48,266.97c0,0,41.85,29.05,70.52,19.03s-44-183-39-239-21-238-79-278-282,197-282,197Z" style="isolation: isolate; opacity: .2;"/>
    <path d="m1222.16,1064.21s243.33,49.76,385.09,26.43c141.76-23.34,214.18-45.16,248.47-63.25,0,0-58.8,95.38-270.71,117.91-211.91,22.53-362.84-81.09-362.84-81.09h-.01Z" style="isolation: isolate; opacity: .2;"/>
    <path d="m1419.17,1287.19l11.67,185.08s218.92-14.41,309.46-2.14l-.34-182.98s-108.83-27.82-320.78.05h-.01Z" style="fill: #fff; stroke: #000; stroke-linecap: round; stroke-linejoin: round; stroke-width: 13px;"/>
    <g>
      <g>
        <path d="m1654.03,1311.1l13.69,12.49,2.41,91.41-13.01,13.33-50.89,1.59-13.52-12.34-2.45-91.68,12.89-13.2,50.89-1.59h-.01Zm-14.91,25.43l-19.58.61,1.77,67.34,19.58-.61-1.77-67.34Z"/>
        <path d="m1628.54,1404.26l7.22-.23.66,24.94-43.41,1.36-.66-24.94,7.21-.23-1.77-67.34-7.21.23-.66-24.94,36.17-1.13,2.45,92.28h0Z"/>
        <path d="m1590.91,1350.65l-.65-24.64,13.01-13.33,50.89-1.59,13.56,12.38,1.2,45.53-12.89,13.17-30.76.96-4.46,3.65.47,17.69,19.62-.61-.33-12.61,28.92-.9.99,37.55-77.45,2.42-1.54-58.32,12.89-13.18,30.76-.96,4.46-3.65-.37-14.2-4.59-3.36-10.68.33-4.36,3.64.24,9.11-28.92.9v.02Z"/>
        <path d="m1668.75,1362.91l-6.44,6.59,6.78,6.17,1.04,39.44-12.89,13.2-50.88,1.59-13.69-12.49-.65-24.64,28.92-.9.24,9.11,4.54,3.36,10.68-.33,4.4-3.64-.37-14.19-4.65-3.37-15.06.47-.66-24.94,15.06-.47,4.46-3.65-.37-14.2-4.59-3.36-10.68.33-4.36,3.64.24,9.11-28.92.9-.65-24.64,13.01-13.33,50.89-1.59,13.56,12.38,1.04,39.44h0Z"/>
        <path d="m1669.57,1394.23l-7.22.23.23,8.73,7.22-.23.66,24.94-43.41,1.36-.66-24.94,7.22-.23-.23-8.73-41.26,1.29-.66-24.94,21.04-59.32,47.65-1.49,1.55,58.61,7.22-.23.66,24.94h-.01Zm-36.85-23.81l-.69-26.3-9.18,26.61,9.87-.31h0Z"/>
        <path d="m1620.94,1391.88l.24,9.11,4.54,3.36,10.68-.33,4.4-3.64-.37-14.19-4.65-3.37-43.98,1.38-1.87-71.08,77.45-2.42.99,37.55-28.92.9-.33-12.61-19.62.61.56,21.2,35.31-1.1,13.56,12.35,1.2,45.53-12.89,13.2-50.88,1.59-13.69-12.49-.65-24.64,28.92-.9h0Z"/>
        <path d="m1668.36,1348.23l-28.92.9-.24-9.11-4.54-3.36-10.68.33-4.4,3.64.47,17.7,35.19-1.1,13.69,12.49,1.19,45.27-13.01,13.33-50.89,1.59-13.56-12.38-2.41-91.65,12.89-13.2,50.89-1.59,13.69,12.49.65,24.64h0Zm-47.65,35.05l.47,17.71,4.58,3.36,10.68-.33,4.36-3.64-.37-14.21-4.54-3.36-15.17.47h0Z"/>
        <path d="m1668.03,1335.62l-25.03,68.18,8.99-.28.66,24.94-50.64,1.58-.66-24.94,12.66-.4,25.05-68.18-19.58.61.33,12.61-28.92.9-.99-37.55,77.46-2.42.66,24.94h.01Z"/>
        <path d="m1667.71,1323.47l1.04,39.45-6.44,6.59,6.78,6.17,1.04,39.32-12.88,13.32-50.88,1.59-13.69-12.49-1.04-39.32,6.44-6.59-6.78-6.17-1.04-39.44,13.01-13.21,50.89-1.59,13.56,12.38h-.01Zm-28.13,30.75l-.37-14.2-4.58-3.36-10.63.33-4.4,3.64.37,14.2,4.65,3.36,10.51-.33,4.46-3.65h-.01Zm1.22,46.15l-.37-14.19-4.65-3.37-10.51.33-4.46,3.65.37,14.19,4.58,3.36,10.63-.33,4.4-3.64h.01Z"/>
        <path d="m1620.94,1391.88l.24,9.11,4.54,3.36,10.68-.33,4.4-3.64-.47-17.7-35.19,1.1-13.69-12.49-1.19-45.27,13.01-13.33,50.89-1.59,13.56,12.38,2.41,91.65-12.89,13.2-50.89,1.59-13.69-12.49-.65-24.64,28.92-.9h0Zm18.73-34.15l-.47-17.71-4.58-3.36-10.68.33-4.36,3.64.37,14.21,4.54,3.36,15.17-.47h0Z"/>
      </g>
      <g>
        <path d="m1529.69,1394.73l.24,9.11,4.54,3.36,10.68-.33,4.4-3.64-.47-17.7-35.19,1.1-13.69-12.49-1.19-45.27,13.01-13.33,50.89-1.59,13.56,12.38,2.41,91.65-12.89,13.2-50.89,1.59-13.69-12.49-.65-24.64,28.92-.9h0Zm18.73-34.15l-.47-17.71-4.58-3.36-10.68.33-4.36,3.64.37,14.21,4.54,3.36,15.17-.47h0Z"/>
        <path d="m1576.47,1326.33l1.04,39.45-6.44,6.59,6.78,6.17,1.04,39.32-12.88,13.32-50.88,1.59-13.69-12.49-1.04-39.32,6.44-6.59-6.78-6.17-1.04-39.44,13.01-13.21,50.89-1.59,13.56,12.38h-.01Zm-28.13,30.75l-.37-14.2-4.58-3.36-10.63.33-4.4,3.64.37,14.2,4.65,3.36,10.51-.33,4.46-3.65h-.01Zm1.22,46.15l-.37-14.19-4.65-3.37-10.51.33-4.46,3.65.37,14.19,4.58,3.36,10.63-.33,4.4-3.64h.01Z"/>
        <path d="m1576.79,1338.48l-25.03,68.18,8.99-.28.66,24.94-50.64,1.58-.66-24.94,12.67-.4,25.05-68.18-19.58.61.33,12.61-28.92.9-.99-37.55,77.46-2.42.66,24.94h0Z"/>
        <path d="m1577.12,1351.08l-28.92.9-.24-9.11-4.54-3.36-10.68.33-4.4,3.64.47,17.7,35.19-1.1,13.69,12.49,1.19,45.27-13.01,13.33-50.89,1.59-13.56-12.38-2.41-91.65,12.89-13.2,50.89-1.59,13.69,12.49.65,24.64h0Zm-47.65,35.05l.47,17.71,4.58,3.36,10.68-.33,4.36-3.64-.37-14.21-4.54-3.36-15.17.47h0Z"/>
        <path d="m1529.69,1394.73l.24,9.11,4.54,3.36,10.68-.33,4.4-3.64-.37-14.19-4.65-3.37-43.98,1.38-1.87-71.08,77.45-2.42.99,37.55-28.92.9-.33-12.61-19.62.61.56,21.2,35.31-1.1,13.56,12.35,1.2,45.53-12.89,13.2-50.88,1.59-13.69-12.49-.65-24.64,28.92-.9h0Z"/>
        <path d="m1578.33,1397.09l-7.22.23.23,8.73,7.22-.23.66,24.94-43.41,1.36-.66-24.94,7.22-.23-.23-8.73-41.26,1.29-.66-24.94,21.04-59.32,47.65-1.49,1.55,58.61,7.22-.23.66,24.94h-.01Zm-36.85-23.81l-.69-26.3-9.18,26.61,9.87-.31h0Z"/>
        <path d="m1577.51,1365.77l-6.44,6.59,6.78,6.17,1.04,39.44-12.89,13.2-50.88,1.59-13.69-12.49-.65-24.64,28.92-.9.24,9.11,4.54,3.36,10.68-.33,4.4-3.64-.37-14.19-4.65-3.37-15.06.47-.66-24.94,15.06-.47,4.46-3.65-.37-14.2-4.59-3.36-10.68.33-4.36,3.64.24,9.11-28.92.9-.65-24.64,13.01-13.33,50.89-1.59,13.56,12.38,1.04,39.44h0Z"/>
        <path d="m1499.67,1353.51l-.65-24.64,13.01-13.33,50.89-1.59,13.56,12.38,1.2,45.53-12.89,13.18-30.76.96-4.46,3.65.47,17.69,19.62-.61-.33-12.61,28.92-.9.99,37.55-77.45,2.42-1.54-58.32,12.89-13.18,30.76-.96,4.46-3.65-.37-14.2-4.59-3.36-10.68.33-4.36,3.64.24,9.11-28.92.9h-.01Z"/>
        <path d="m1571.24,1406.05l7.22-.23.66,24.94-43.41,1.36-.66-24.94,7.21-.23-1.77-67.34-7.21.23-.66-24.94,36.17-1.13,2.45,92.28h0Z"/>
        <path d="m1562.78,1313.95l13.69,12.49,2.41,91.41-13.01,13.33-50.89,1.59-13.52-12.34-2.45-91.68,12.89-13.2,50.89-1.59h-.01Zm-14.91,25.43l-19.57.61,1.77,67.34,19.57-.61-1.77-67.34Z"/>
      </g>
    </g>
    <g id="clothing-shoes">
      <g>
        <g>
          <g>
            <path d="m2120.04,2020.83c52.46,23.36,50,68.09,41.06,97.93-6.11,11.87-37.59,56.36-170.52,68.34-153.84,13.88-206.85-20.56-292.09-45.24-.68-.2-1.37-.4-2.06-.59-82.52-23.74-187.59-43.64-193.55-44.76-7.74-24.31-11.1-49.85-10.94-70.16.27-33.51,20.28-111.08,20.28-111.08,0,0-6.72-107.47-3.72-140.47,0,0,.79-30.81,13.02-32.05,7.25,5.82,51.84,34.65,220.98,31.05,112-3,145-8,144-27,0,0,11-9,18,3,12,41-6.79,104.51,33.11,129.75,0,0,92.89,71.25,114.89,84.25l2,3c38.98,15.33,65.54,54.03,65.54,54.03Z" style="fill: #fff;"/>
            <path d="m1696.43,2141.27c.69.19,1.38.39,2.06.59,85.24,24.68,138.25,59.12,292.09,45.24,132.93-11.98,164.41-56.47,170.52-68.34,0,0,5.4,33.04,3.4,65.04-63.3,73.82-277.42,82.08-370.25,52.86-58.39-18.39-121.45-40.55-149.06-48.8-27.61-8.25-98.71-14.31-121.44-47.25-2.56-3.71-4.95-7.61-7.17-11.65-5.58-10.12-10.12-21.14-13.7-32.45,5.96,1.12,111.03,21.02,193.55,44.76h0Z" style="fill: #fff;"/>
          </g>
          <g>
            <path d="m1520.37,1741.74s.34.36,1.15,1.01c7.25,5.82,51.84,34.65,220.98,31.05,112-3,145-8,144-27,0,0,11-9,18,3,12,41-6.79,104.51,33.11,129.75,0,0,92.89,71.25,114.89,84.25" style="fill: none; stroke: #000; stroke-linecap: round; stroke-linejoin: round; stroke-width: 13.37px;"/>
            <path d="m2161.1,2118.76c8.94-29.84,11.4-74.57-41.06-97.93,0,0-26.56-38.7-65.54-54.03" style="fill: none; stroke: #000; stroke-linecap: round; stroke-linejoin: round; stroke-width: 13.37px;"/>
            <path d="m1512.22,1915.27s-20.01,77.57-20.28,111.08c-.16,20.31,3.2,45.85,10.94,70.16,3.58,11.31,8.12,22.33,13.7,32.45,2.22,4.04,4.61,7.94,7.17,11.65,22.73,32.94,93.83,39,121.44,47.25,27.61,8.25,90.67,30.41,149.06,48.8,92.83,29.22,306.95,20.96,370.25-52.86" style="fill: none; stroke: #000; stroke-linecap: round; stroke-linejoin: round; stroke-width: 13.37px;"/>
            <path d="m1502.61,2096.46s.09.02.27.05c5.96,1.12,111.03,21.02,193.55,44.76.69.19,1.38.39,2.06.59,85.24,24.68,138.25,59.12,292.09,45.24,132.93-11.98,164.41-56.47,170.52-68.34.96-1.87,1.29-2.93,1.29-2.93" style="fill: none; stroke: #000; stroke-linecap: round; stroke-linejoin: round; stroke-width: 13.37px;"/>
            <path d="m1512.22,1915.27s-6.72-107.47-3.72-140.47c0,0,.79-30.81,13.02-32.05.63-.07,1.29-.05,1.98.05" style="fill: none; stroke: #000; stroke-linecap: round; stroke-linejoin: round; stroke-width: 13.37px;"/>
            <path d="m1696.43,2141.27c-.02.21-.02.43-.03.64" style="fill: none; stroke: #000; stroke-linecap: round; stroke-linejoin: round; stroke-width: 13.37px;"/>
            <path d="m2161.1,2118.76s5.4,33.04,3.4,65.04" style="fill: none; stroke: #000; stroke-linecap: round; stroke-linejoin: round; stroke-width: 13.37px;"/>
          </g>
        </g>
        <g>
          <g style="opacity: .2;">
            <path d="m1784.09,1951.25l-10.59,4.55,48,54s86.98-56.18,192.99-67.59c0,0,6.92-9.92-9.04-10.16-15.95-.25-61.75,9.9-90.35,20.33-28.6,10.42-81.32,32.75-81.32,32.75,0,0-11.63,5.26-21.46-9.04-9.82-14.29-28.24-24.85-28.24-24.85h0Z"/>
            <path d="m1895.9,2029.18l-15.9,9.12,62,46s132.46-63.36,166.23-68.68c0,0,2.86-19.52-14.68-12.42s-94.99,37.72-100.52,40.66-39.53,18.07-39.53,18.07c0,0-8.4,3.83-19.2-5.65-10.8-9.48-38.4-27.11-38.4-27.11h0Z"/>
          </g>
          <path d="m2162,2128.3c-1.13-18.06,5.77-34.28,4.15-48.86,0,0-111.39,77.49-340.17,32.31-10.23-2.42-21.89-4.96-35.13-7.61-21.71-5.06-41.29-10.23-58.95-15.51-109.78-40.04-129.19-122.67-132.4-157.4,29.31-8.47,72.98-18.28,127.99-22.43,106-8,194.38-40,194.38-40,0,0,1.57-11.07-7.91-9.04-9.47,2.04-185.08,32.83-275.97,14.54-19.02-3.83-35.15-.4-49.43-1.76l2.39-104.26-53.72-11.82c-4.68-8.4-9.37-13.05-13.24-9.16-9.77,9.79-20.09,99.14-11.32,146.44l-.72,35.33c-4.97,5.93-9.01,16.88-8.34,37,0,0,27.47,74.5,46.86,100.42,19.39,25.91,17.78,110.13,17.78,110.13,0,0,101.8,17.82,171.29,43.73,69.48,25.91,197.14,59.93,308.64,22.67,111.5-37.25,118.81-64.72,118.81-64.72,0,0-4-34-5-50h0Z" style="isolation: isolate; opacity: .2;"/>
        </g>
        <g>
          <g>
            <path d="m1482.33,1787.22c0,3.57-6.73,22.35-145.83,29.58-122.1,6.34-219.67-15.6-254.86-24.96-.65-12.05-.53-21.32.86-25.04,6-16,16.88-19.98,16.88-19.98-8.12,24.02,53.12,32.98,121.12,39.98,224,15,258-31,258-31,0,0,8-1,6,13l-.82,18.48-1.35-.06h0Z" style="fill: #fff;"/>
            <path d="m1528.43,2047.18s19.17,28.92,16.55,48.82c0,0-169.62,8.27-226.71,24.82l-18.2-52.95s167.83-33.38,228.36-20.69h0Z" style="fill: #fff;"/>
            <path d="m1481.04,1943.82l20.97,47.65c-34.37-1.25-223.55,19.61-223.55,19.61l-15.47-47.95c70.72-23.61,218.05-19.31,218.05-19.31Z" style="fill: #fff;"/>
            <path d="m1478,1873.22c0,3.56-6.52,22.35-141.42,29.58-114.53,6.14-208.71-18.31-246.39-30.04-11.45-3.57-17.69-5.96-17.69-5.96l-5-79s4.95,1.59,14.14,4.04c35.19,9.36,132.76,31.3,254.86,24.96,139.1-7.23,145.83-26.01,145.83-29.58l1.35.06-3.79,85.2c0,.2,0,.45-.01.74h-1.88,0Z" style="fill: #fff;"/>
            <path d="m1478,1873.22h1.88c-.05,2.01-.24,6.08-.34,11.67h.62c1.62,2.36,68.68,127.29,75.14,157.92l-1.71.15c41.33,40.05,28.64,107.02,28.64,107.02,0,0,.07.21.2.61-9.64,43.89-50.88,101.37-173.64,101.96-192.57.92-275.52-66.79-311.23-125.66-27.34-45.03-27.04-84.89-27.04-84.89-12.92-23.75,2.16-78.82,11.85-100.42,5.69-12.65,10.26-26.05,11.76-39.96h.1s-1.79-11.99-4.04-28.86c37.68,11.73,131.86,36.18,246.39,30.04,134.9-7.23,141.42-26.02,141.42-29.58Zm66.98,222.78c2.62-19.9-16.55-48.82-16.55-48.82-60.53-12.69-228.36,20.69-228.36,20.69l18.2,52.95c57.09-16.55,226.71-24.82,226.71-24.82h0Zm-42.97-104.53l-20.97-47.65s-147.33-4.3-218.05,19.31l15.47,47.95s189.18-20.86,223.55-19.61Z" style="fill: #fff;"/>
            <path d="m1097.56,2126.89c35.71,58.87,118.66,126.58,311.23,125.66,122.76-.59,164-58.07,173.64-101.96.36,1.16,1.17,3.95,2.01,8.01,6.66,31.73,9.64,149.01-177.81,158.74-248.82,12.89-305.94-125.25-324.26-154.41-18.31-29.15-15.08-60.47-15.08-60.47,0,0,0-57.22,3.23-60.46,0,0-.3,39.86,27.04,84.89h0Z" style="fill: #fff;"/>
          </g>
          <g>
            <line x1="1584.39" y1="2158.61" x2="1584.44" y2="2158.6" style="fill: none; stroke: #000; stroke-linecap: round; stroke-linejoin: round; stroke-width: 13px;"/>
            <line x1="1094.13" y1="1901.62" x2="1094.23" y2="1901.63" style="fill: none; stroke: #000; stroke-linecap: round; stroke-linejoin: round; stroke-width: 13px;"/>
            <path d="m1582.43,2150.59c-.13-.4-.2-.61-.2-.61,0,0,12.69-66.97-28.64-107.02" style="fill: none; stroke: #000; stroke-linecap: round; stroke-linejoin: round; stroke-width: 13px;"/>
            <path d="m1099.38,1746.82c-8.12,24.02,53.12,32.98,121.12,39.98,224,15,258-31,258-31,0,0,8-1,6,13l-.82,18.48-3.79,85.2c0,.2,0,.45-.01.74-.05,2.01-.24,6.08-.34,11.67" style="fill: none; stroke: #000; stroke-linecap: round; stroke-linejoin: round; stroke-width: 13px;"/>
            <path d="m1067.29,2102.46s-3.23,31.32,15.08,60.47c18.32,29.16,75.44,167.3,324.26,154.41,187.45-9.73,184.47-127.01,177.81-158.74" style="fill: none; stroke: #000; stroke-linecap: round; stroke-linejoin: round; stroke-width: 13px;"/>
            <path d="m1582.43,2150.59c.36,1.16,1.17,3.95,2.01,8.01" style="fill: none; stroke: #000; stroke-linecap: round; stroke-linejoin: round; stroke-width: 13px;"/>
            <path d="m1067.29,2102.46s0-57.22,3.23-60.46" style="fill: none; stroke: #000; stroke-linecap: round; stroke-linejoin: round; stroke-width: 13px;"/>
            <path d="m1094.13,1901.62c-1.5,13.91-6.07,27.31-11.76,39.96-9.69,21.6-24.77,76.67-11.85,100.42" style="fill: none; stroke: #000; stroke-linecap: round; stroke-linejoin: round; stroke-width: 13px;"/>
            <path d="m1582.43,2150.59c.94-4.29,1.58-8.46,1.96-12.5" style="fill: none; stroke: #000; stroke-linecap: round; stroke-linejoin: round; stroke-width: 13px;"/>
            <path d="m1582.43,2150.59c-9.64,43.89-50.88,101.37-173.64,101.96-192.57.92-275.52-66.79-311.23-125.66-27.34-45.03-27.04-84.89-27.04-84.89" style="fill: none; stroke: #000; stroke-linecap: round; stroke-linejoin: round; stroke-width: 13px;"/>
            <path d="m1090.19,1872.76c2.25,16.87,4.04,28.87,4.04,28.87" style="fill: none; stroke: #000; stroke-linecap: round; stroke-linejoin: round; stroke-width: 13px;"/>
            <path d="m1081.64,1791.84c-.65-12.05-.53-21.32.86-25.04,6-16,16.88-19.98,16.88-19.98" style="fill: none; stroke: #000; stroke-linecap: round; stroke-linejoin: round; stroke-width: 13px;"/>
            <path d="m1480.16,1884.9c1.62,2.35,68.68,127.28,75.14,157.91" style="fill: none; stroke: #000; stroke-linecap: round; stroke-linejoin: round; stroke-width: 13px;"/>
            <path d="m1477.93,1872.63s.07.21.07.59c0,3.56-6.52,22.35-141.42,29.58-114.53,6.14-208.71-18.31-246.39-30.04" style="fill: none; stroke: #000; stroke-linecap: round; stroke-linejoin: round; stroke-width: 13px;"/>
            <path d="m1081.64,1791.84c-9.19-2.45-14.14-4.04-14.14-4.04l5,79s6.24,2.39,17.69,5.96" style="fill: none; stroke: #000; stroke-linecap: round; stroke-linejoin: round; stroke-width: 13px;"/>
            <path d="m1482.25,1786.63s.08.21.08.59c0,3.57-6.73,22.35-145.83,29.58-122.1,6.34-219.67-15.6-254.86-24.96" style="fill: none; stroke: #000; stroke-linecap: round; stroke-linejoin: round; stroke-width: 13px;"/>
            <path d="m1481.04,1943.82s-147.33-4.3-218.05,19.31l15.47,47.95s189.18-20.86,223.55-19.61l-20.97-47.65Z" style="fill: none; stroke: #000; stroke-linecap: round; stroke-linejoin: round; stroke-width: 10.57px;"/>
            <path d="m1300.07,2067.87s167.83-33.38,228.36-20.69c0,0,19.17,28.92,16.55,48.82,0,0-169.62,8.27-226.71,24.82l-18.2-52.95h0Z" style="fill: none; stroke: #000; stroke-linecap: round; stroke-linejoin: round; stroke-width: 10.76px;"/>
          </g>
        </g>
        <path d="m1579.67,2166.96c9.67-47.34-2.67-69.66-2.67-65.66-2,11-6,78-149,94-153.73,16.56-243.48-41.35-291.16-91.45-41.04-50.51-39.97-100.59-31.58-134.13,5.85-16.65,12.25-31.4,16.53-40.75,12.62-2.49,44.88-6.78,120.71-8.17,109-2,208-5,221-20s7.18-20.71,7.18-20.71h-348.98c-2.93-47.89,1.69-107.29,1.69-107.29,0,0-5.38,6.5-15.81-12.42s-15.81-7.91-15.81-7.91c-21.24,17.17-2.76,105.83-1.13,123.11s3.39,38.4,3.39,38.4c0,0-21.02,56.32-27.11,75.67-6.09,19.35,2.26,59.86,2.26,59.86-8.83,61.2,5.65,96,5.65,96,57.82,128.2,143.18,159.8,283.48,170.54,140.3,10.75,199.7-41.75,217.98-80.19s3.39-68.89,3.39-68.89h0Z" style="isolation: isolate; opacity: .2;"/>
        <g style="opacity: .2;">
          <path d="m1160,1993.3l-13,3,19,55s184-39,340-37l-10.48-21.83s-264.06,19.56-314.54,34.45c0,0-7.33-.31-7.91-6.21s-13.08-27.4-13.08-27.4h.01Z"/>
          <path d="m1209,2092.3l-16,3,19,49s0,12,20,9,184-37,311-36l-8.51-19.23s-185.33,12.19-232.66,21.46c-47.33,9.27-65.51,13.55-65.51,13.55,0,0-5.76,4.47-11.29-7.91s-16.03-32.88-16.03-32.88h0Z"/>
        </g>
        <g>
          <path d="m1588.5,1795.8s216.81,27.81,324.91-21.09l-3.39-16.94,16.48-6.96s11,24,9,46-5,47-5,47c0,0-91,58-343,24l1-72h0Z" style="fill: #fff; stroke: #000; stroke-linecap: round; stroke-linejoin: round; stroke-width: 13.37px;"/>
          <path d="m1780.5,1939.8s95.68-59.18,183.34-57.59c9.66,7.59,47.44,40.66,47.44,40.66,0,0-128.78,29.93-184.78,65.93l-46-49h0Z" style="fill: #fff; stroke: #000; stroke-linecap: round; stroke-linejoin: round; stroke-width: 10.57px;"/>
          <path d="m1886.5,2019.8s106.62-64.03,165-66c0,0,51.29,21.77,49.65,45.39-19.65,6.61-104.65,39.61-155.65,64.61l-59-44h0Z" style="fill: #fff; stroke: #000; stroke-linecap: round; stroke-linejoin: round; stroke-width: 10.57px;"/>
        </g>
        <path d="m2064.75,1947.42s-62.23,6.51-74.46,26.62l52.21,48.76s59.73-31.6,69.36-21c4.72-5.95,6-21.19,6-21.19l-53.11-33.19h0Zm-10.25,40.38l-19.31-15.1,41.04-10.16,23.34,13.93-45.07,11.33Z" style="fill: #c6c6c6; stroke: #000; stroke-linecap: round; stroke-linejoin: round; stroke-width: 13px;"/>
        <path d="m1979.5,1873.8s-62.56-.59-77,18l46,50s63.27-20.25,71.64-8.62c5.36-5.38,8.36-20.38,8.36-20.38l-49-39Zm-18.5,38.5l-18-19c15-7,37-6,37-6l21,19c-16,0-40,6-40,6Z" style="fill: #c6c6c6; stroke: #000; stroke-linecap: round; stroke-linejoin: round; stroke-width: 13px;"/>
        <path d="m1919.62,1754.38s14.27,23.05-12.42,28.24c-26.69,5.19-70.02,16.94-70.02,16.94v72.28s78.33-12.03,102.33-32.03c3-4,25.24-78.85-19.88-85.42h0Zm8.38,71.92c-4,6-51,16-51,16l1-34,50-13s3,21,0,31Z" style="fill: #c6c6c6; stroke: #000; stroke-linecap: round; stroke-linejoin: round; stroke-width: 13px;"/>
        <path d="m1329.27,1952.24s-99.91,4.4-171.36,21.84l18.83,53.39s128.76-18.66,173.76-23.66l-21.23-51.56h0Zm-120.4,49.12l-5.54-15.82c13.82-5.47,101.29-14.09,101.29-14.09l6.89,17.41c-28.98.99-102.63,12.5-102.63,12.5h-.01Z" style="fill: #c6c6c6; stroke: #000; stroke-linecap: round; stroke-linejoin: round; stroke-width: 13px;"/>
        <path d="m1221,1815.64s-95.39-23.68-169.33-20.81l-3.73,79.6s128.47,10.03,171.45,24.36l1.61-83.14h0Zm-132.5,32.18l1.14-23.58c15.14-3.46,100.56,10.67,100.56,10.67l-.51,26.18c-27.56-7.27-101.19-13.27-101.19-13.27h0Z" style="fill: #c6c6c6; stroke: #000; stroke-linecap: round; stroke-linejoin: round; stroke-width: 13px;"/>
        <path d="m1379,2053.82s-99.71,7.65-170.55,27.41l20.55,52.75s126.5-19.18,173.68-25.61l-23.68-54.55h0Zm-118.74,53.02l-6.05-15.63c13.64-5.92,100.77-17.38,100.77-17.38l7.45,17.18c-28.94,1.93-102.17,15.83-102.17,15.83h0Z" style="fill: #c6c6c6; stroke: #000; stroke-linecap: round; stroke-linejoin: round; stroke-width: 13px;"/>
      </g>
    </g>
  </g>
</svg>