<?xml version="1.0" encoding="UTF-8"?>
<svg id="CLOTHING" xmlns="http://www.w3.org/2000/svg" xmlns:xlink="http://www.w3.org/1999/xlink" viewBox="0 0 3000 3000">
  <defs>
    <clipPath id="clippath">
      <path d="m2091.13,1121.51s-116.15-74.77-190.97-106.02c-38.6,20.27-93.99,43.65-167.06,61-31.19,33.11-76.3,62.79-139.3,67.04-69.49,4.68-126.89-18.7-168.59-45.27-183.91-16.4-324.05-83.09-382.64-115.43-44.17,12.83-166.88,53.55-284.7,187.8,0,0-44.05,0-27.11,35.58,3.66,7.69,57.77,13.18,250.73,203.29,0,0,40.18,14.44,37.27-16.94,0,0,49.09-33.46,57.6-5.08,1.76,5.87,3.46,16.82,5.2,30.92,5.36,21.6,9.2,87.67,4.12,141.04-.08.87,5.81,19.15,5.33,19.72-2.51,13.41-2.63,28.16,7.41,28.6.56.02,1.11,0,1.66-.04,0,0,454.93,76.86,830.68-30.49,31.62-9.04,4.83-38.57,8.75-72,4.8-40.94-2.54-101.36-2.54-101.36l10.73,3.95s49.13,31.62,58.73,23.72,49.13-211.2,120.28-281.22c0,0,6.78-33.88-35.58-28.8h0Z" style="fill: none;"/>
    </clipPath>
  </defs>
  <g id="Casual-Runner-Men-Acid-Lemon">
    <circle cx="1500" cy="1500" r="1200" style="fill: #4c6164;"/>
    <path d="m1156.97,1526.36s550.08-67.13,767-11.26c0,0,20.57,19.93-2.26,38.4,0,0-29.82,193.59-33.88,242.66,0,0-122.94,80.93-339.94,19.93,0,0,3-83.09,1.12-98.82-3.84-32.11-18.16-86.12-36.14-49.69-17.98,36.42-32.92,121.96-35.01,146.82,0,0-114.06,61.4-347.29,0,0,0-18.06-198.35-23.67-240.42-2-15-8-16-8-16,0,0-11.23-23.49,14.88-26.25,26.12-2.75,43.2-5.36,43.2-5.36h0Z"/>
    <g>
      <path d="m1887.83,1796.16c1.69-20.39,7.82-65.75,14.42-111.8-94.82,93.92-292.79,97.25-353.29,96.09-.49,19.44-1.08,35.64-1.08,35.64,217,61,339.94-19.93,339.94-19.93h.01Z" style="fill: #222;"/>
      <path d="m1130.56,1814.4c233.24,61.4,347.29,0,347.29,0,.62-7.35,2.36-20.02,4.98-35.15-146.66,23.99-306.19-87.88-368.64-137.67,7.29,73.03,16.37,172.82,16.37,172.82h0Z" style="fill: #222;"/>
    </g>
    <path id="leggings-outline" d="m1156.97,1526.36s550.08-67.13,767-11.26c0,0,20.57,19.93-2.26,38.4,0,0-29.82,193.59-33.88,242.66,0,0-122.94,80.93-339.94,19.93,0,0,3-83.09,1.12-98.82-3.84-32.11-18.16-86.12-36.14-49.69-17.98,36.42-32.92,121.96-35.01,146.82,0,0-114.06,61.4-347.29,0,0,0-18.06-198.35-23.67-240.42-2-15-8-16-8-16,0,0-11.23-23.49,14.88-26.25,26.12-2.75,43.2-5.36,43.2-5.36h0Z" style="fill: none; stroke: #000; stroke-linecap: round; stroke-linejoin: round; stroke-width: 13px;"/>
    <g id="casual-runner-shade" style="opacity: .2;">
      <path d="m1202.08,1552.87c-12-8.95-2-27.96-2-27.96,0,0-37.87,4.92-75.73,7.35-23.15,1.48-21.57,23.57-18.07,29.72s2.82,23.33,2.82,23.33c0,0,18.98,187.86,19.76,205.86s11.29,27.78,11.29,27.78l53.92,9.01s-8-57.03-24-147.61,44-118.53,32-127.48h0Z"/>
      <path d="m1635.39,1634.5c-53,6-196-2-169,9s26.71,61.63,26.71,61.63c26.21-73.87,37.79-51.13,46.59-32.19,8.8,18.94,7.62,149.93,7.62,149.93l60.11,10.03s-13.03-151.4-7.03-162.4,88-42,35-36h0Z"/>
    </g>
    <path d="m2091.13,1121.51s-116.15-74.77-190.97-106.02c-38.6,20.27-93.99,43.65-167.06,61-31.19,33.11-76.3,62.79-139.3,67.04-69.49,4.68-126.89-18.7-168.59-45.27-183.91-16.4-324.05-83.09-382.64-115.43-44.17,12.83-166.88,53.55-284.7,187.8,0,0-44.05,0-27.11,35.58,3.66,7.69,57.77,13.18,250.73,203.29,0,0,40.18,14.44,37.27-16.94,0,0,49.09-33.46,57.6-5.08,1.76,5.87,3.46,16.82,5.2,30.92,5.36,21.6,9.2,87.67,4.12,141.04-.08.87,5.81,19.15,5.33,19.72-2.51,13.41-2.63,28.16,7.41,28.6.56.02,1.11,0,1.66-.04,0,0,454.93,76.86,830.68-30.49,31.62-9.04,4.83-38.57,8.75-72,4.8-40.94-2.54-101.36-2.54-101.36l10.73,3.95s49.13,31.62,58.73,23.72,49.13-211.2,120.28-281.22c0,0,6.78-33.88-35.58-28.8h0Z" style="fill: #111;"/>
    <g style="clip-path: url(#clippath);">
      <g>
        <path d="m2290.49,1517.13c-11.08,13.59-21.46,27.85-33.4,40.64-18.65,19.94-45.17,25.28-68.87,15.18-12.84-5.46-22.13-14.1-26.49-28.02-1.34-4.26-5.4-8.35-9.25-11.02-6.87-4.76-7.46-9.85-2.33-15.62,5.44-6.13,11.13-12.15,17.36-17.45,10.95-9.31,19.85-7.87,29.2,3.29,6.4,7.66,13.4,14.83,21.12,23.33,20.04-24.4,38.94-46.98,72.68-43.29v32.96h-.03Z" style="fill: #e2ff66;"/>
        <path d="m727.16,961.5c2.33-.3,4.69-.45,6.98-.96,21.4-4.85,23.28-10.2,9.85-27.67-8.13-10.57-7.42-19.24,3.51-27.14,6.26-4.52,13.44-8.22,20.76-10.71,17.18-5.86,34.33,3.67,35.27,21.78.83,16.02-1.25,32.83-5.6,48.29-3.85,13.65-12.12,26.2-19.34,38.72-8.99,15.62-28.15,20.53-51.41,14.21v-56.51h-.02Z" style="fill: #e2ff66;"/>
        <path d="m727.16,1507.73c.94-2.12,2.12-4.18,2.78-6.39,2.71-9.13,5.92-16.94,18.19-15.39,12.41,1.56,21.41,8.81,23.46,20.98,1.09,6.43,1.49,12.98,2.51,22.34,7.65-6,13.33-10.49,19.03-14.93,5.24-4.09,10.2-8.64,15.84-12.1,10.95-6.74,22.05-1.63,24.97,10.97,2.73,11.8-2.78,28.12-13.16,34.3-19.45,11.58-40.73,19.26-63.44,18.17-10.2-.48-20.12-7.04-30.18-10.84v-47.1Z" style="fill: #e2ff66;"/>
        <path d="m2290.49,1465.33c-6.55-3.45-13.35-6.5-19.58-10.44-15.31-9.69-28.63-8.08-44.5.5-12.81,6.93-27.66,10.71-42.06,13.7-4.47.93-11.69-4.26-15.18-8.62-1.76-2.19.56-10.39,3.54-13.17,15.42-14.37,30.74-29.19,47.89-41.29,17.42-12.31,37.08-10.87,55.82-.85,4.81,2.57,9.39,5.59,14.07,8.4v51.8-.02Z" style="fill: #e2ff66;"/>
        <path d="m2290.49,1159.27c-14.42,1.26-28.84,2.87-43.29,3.7-12.34.7-24.91-6.53-26.14-15.6-.73-5.43-.21-12.76,2.94-16.67,8.26-10.25,17.23-20.55,27.83-28.13,11.88-8.51,25.71-2.08,38.64.21v56.51l.02-.02Z" style="fill: #e2ff66;"/>
        <path d="m2290.49,1260.51c-6.07-1.95-12.49-3.18-18.12-6.02-8.67-4.36-16.65-10.08-25.18-14.75-16.57-9.1-22.74-38.7-10.52-53.16,2.01-2.4,5.92-4.47,8.96-4.47,9.32,0,18.81.19,27.93,1.96,9.32,1.8,14.63,8.37,14.98,18.41.1,2.87,1.28,5.72,1.96,8.57v49.45Z" style="fill: #e2ff66;"/>
        <path d="m2290.49,987.4c-5.38-3.07-10.86-5.97-16.11-9.23-11.1-6.88-22.69-13.17-32.91-21.19-6.72-5.27-13.52-12.37-16.29-20.09-2-5.56.75-15.12,4.89-19.8,3.07-3.46,12.34-3.93,17.82-2.28,14.5,4.36,28.44,10.6,42.62,16.09v56.51l-.02-.02Z" style="fill: #e2ff66;"/>
        <path d="m2290.49,1747.88c-4.84,1.4-9.6,3.46-14.55,4.1-15.78,2.04-29.99-11.11-29.4-26.73.94-25.15,15.65-41.23,43.94-48v70.64-.02Z" style="fill: #e2ff66;"/>
        <path d="m727.16,1043.91c5.4-2.22,10.67-4.9,16.24-6.55,8.85-2.62,28.01,11.4,33.53,24.64,3.93,9.4-.24,16.99-7.6,22.58-10.08,7.65-21.59,8.45-33.48,4.92-2.95-.88-5.8-2.12-8.69-3.19v-42.39Z" style="fill: #e2ff66;"/>
        <path d="m2290.49,1641.92c-33.71-12.61-40.91-44.74-15.3-70.14,3.83-3.8,10.14-5.09,15.3-7.55v77.7Z" style="fill: #e2ff66;"/>
        <path d="m727.16,1145.14c23.15,4.87,35.05,25.66,27.67,48.35-3.72,11.45-10.68,14.1-27.67,10.51v-58.86Z" style="fill: #e2ff66;"/>
        <path d="m2290.49,1380.58c-13.75-4.89-20.65-16.75-19.72-33.9.86-15.81,6.85-24.11,19.72-27.32v61.22Z" style="fill: #e2ff66;"/>
        <path d="m2290.49,1076.87c-14.85-5.52-16.65-8.57-15.42-24.38.77-9.93,3.32-17.95,15.42-18v42.38Z" style="fill: #e2ff66;"/>
        <path d="m1785.1,1209.12c-.3-5.46-1.33-12.41-.93-19.29.51-8.91-1.88-13.68-11.78-12.06-3.07.51-6.96,1.34-9.25-.03-4.47-2.68-10.68-6.24-11.59-10.43-5.13-23.66,2.06-43.29,22.37-57.43,15.46-10.78,28.63-8.67,35.16,8.7,7.38,19.64,13.25,40.29,16.29,61.01,3.13,21.38-8.89,33.71-26.7,35.59-1.95,7.71-3.23,14.24-5.3,20.5-1.47,4.42-4.47,8.32-6,12.73-6.5,18.75-26.63,28.88-45.11,21.03-42.14-17.92-76.52-44.37-93.55-88.92-5.97-15.62-8.51-30.37,7.12-42.47,1.71-1.33,1.92-5.3,1.85-8.03-.3-11.74-1.74-23.47-1.33-35.16.56-15.79,14.08-26.68,29.72-23.55,7.79,1.56,15.95,5.03,22.18,9.9,16.24,12.74,29.06,28.6,36.13,48.38,3.15,8.81,2.71,16.54-6.37,22.59-8.77,5.84-16.69,6.13-24.81-.29-6.47-5.11-12.49-10.81-19.22-15.49-2.33-1.61-6.23-.96-9.4-1.34-.22,3.11-1.66,6.82-.48,9.25,11.02,22.55,22.23,45,33.91,67.21,6.56,12.45,21.46,15.71,34.36,9.74,10.43-4.84,21.59-8.08,32.75-12.15l-.02.02Z" style="fill: #e2ff66;"/>
        <path d="m1761.74,1310.93c.94-16.99,6.96-30.59,19.94-41.5,11.05-9.29,21.11-19.75,32.01-29.25,4.65-4.06,10-7.66,15.6-10.19,7.11-3.19,14.98-4.61,22.19-7.58,27.32-11.27,49.24-8,65.48,19.77,8.7,14.87,22.96,19.51,40.76,13.64,15.74-5.21,19.48-1.31,27.91,12.97,12.73,21.57,11.42,41.18-3.34,60.98-9.29,12.47-22.21,14.83-33.87,4.22-5.43-4.93-9.74-11.19-14.13-17.18-19.13-26.03-47.2-33.64-77.03-36.2-5.48-.46-13.67,4.82-16.93,9.85-6.08,9.37-9.53,20.47-13.99,30.88-2.3,5.38-3.72,11.29-6.75,16.19-6.48,10.47-16.21,15.63-28.74,14.66-11.98-.93-19.43-7.89-23.17-18.75-2.52-7.33-4.01-15.01-5.96-22.53l-.02.03Z" style="fill: #e2ff66;"/>
        <path d="m1522.25,1475.27c-3.43-21.01,5.94-36.79,22.53-49.23,7.22-5.41,14.16-11.21,21.67-16.17,25.85-17.16,58.22-12.68,78.64,10.6,9.39,10.7,11.08,22.05,4.79,32.33-6.23,10.19-19.24,15.14-31.95,11.86-4.92-1.26-9.68-3.19-14.53-4.73-16.11-5.09-20.9-3.56-31.09,10.12-7.49,10.04-12.5,20.92-10.06,33.9,4.15,22.16,25.4,29.97,42.14,14.67,7.97-7.28,13.97-16.85,20.29-25.79,12.65-17.92,20.01-21.81,34.35-17.24,13.46,4.3,21.25,17.77,21.88,35.56.77,21.64-8.57,37.04-27.38,46.8-24.35,12.65-49.93,15.36-76.52,8.3-7.89-2.09-12.52-6.21-14.16-15.04-.83-4.44-6.34-8.26-10.25-11.78-5.32-4.79-12.69-8-16.41-13.7-9.77-14.98-16.08-31.47-13.91-50.47h-.02Z" style="fill: #e2ff66;"/>
        <path d="m1204.95,927.48c3.74-2.71,8.24-7.33,13.72-9.63,10.22-4.3,20.95-9.87,31.58-10.14,18.78-.46,30.05,15.86,24.91,33.77-6.43,22.42-6.77,42.87,6.74,63.97,10.31,16.09,10.99,33.8-7.7,49.32-5.36,4.45-8.96,11.66-11.93,18.25-3.64,8.08-8.8,13.03-17.74,12.65-8.53-.35-14.37-4.12-17.42-13.01-1.56-4.57-5.89-9.09-10.16-11.67-12.39-7.52-20.36-18.01-24.96-31.52-3.31-9.72.94-15.62,9.88-17.6,11.53-2.55,23.36-3.78,37.19-5.91,1.77-31.55-29.09-46.8-43.62-71.69-15.94,9.82-32.83,6.55-49.45-1.44-12.6-6.05-24.67-7.49-38.43-2.17-6.58,2.54-19.14,2.04-22.29-2.12-3.91-5.22-3.18-16.49-.46-23.63,7.03-18.38,22.98-26.35,41.66-27.66,24.22-1.69,46.08,5.25,62.54,23.74,6.47,7.27,10.27,16.88,15.92,26.49h.02Z" style="fill: #e2ff66;"/>
        <path d="m1486.75,1709.03c-20.18-4.09-40.91-6-59.94-12.73-25.31-8.94-31.17-41.79-14.88-68.39,6.91-11.29,13.59-22.91,18.75-35.06,8.56-20.21,21.64-35.06,42.55-42.84,8.78-3.27,17.1-7.82,25.61-11.83,10.86-5.13,23.26-1.79,30.1,7.73,5.49,7.63,11.56,14.85,17.12,22.43,14.43,19.67,13.96,37.12-1.88,55.39-4.45,5.13-7.55,9.79-4.47,16.77,1.07,2.43,1.02,5.36,1.31,8.1,4.14,37.79-16.06,60.21-54.27,60.47l.02-.03Zm26.54-75.69c-2.57-9.45-5.36-16.61-6.28-23.98-1.02-8.33-2.7-17.48-11.37-18.15-5.86-.45-12.79,5.41-18.25,9.71-3.46,2.73-5.36,7.63-7.57,11.77-6.61,12.41-13.01,24.92-20.21,38.78,5.91,5.32,12.79,11.05,19.1,17.34,8.13,8.11,14.85,6.83,21.09-2.08,8.27-11.78,16.56-23.55,23.49-33.39h0Z" style="fill: #e2ff66;"/>
        <path d="m1696.98,1459.04c-21.76-2.75-24.61-7.54-18.01-28.63,9.5-30.35,26.73-53.57,57.29-65.74,10.44-4.15,18.47-1.87,25.32,5.76,9.12,10.19,18.38,15.6,32.62,8.72,9.39-4.53,17.01.88,22.74,9.31,3.5,5.16,8.1,9.71,12.76,13.91,3.15,2.84,7.82,4.02,10.83,6.95,13.4,13.01,21.01,22.31,13.67,39.71-2.73,6.47-4.02,13.54-6.64,20.07-5.06,12.6-14.32,20.36-28.02,22.15-15.04,1.96-25.72-5.7-26.9-20.84-.75-9.64.88-19.48,1.66-29.22.54-6.77-.83-11.24-8.99-11.88-4.47-.35-9.36-2.12-12.98-4.74-4.53-3.29-7.74-9.88-14.42-4.66-8.37,6.55-16.33,13.62-24.05,20.92-.37.35,2.92,6,5.49,7.57,2.4,1.45,6.12.61,9.21,1.02,21.88,2.92,26.83,12.02,17.55,32.19-9.13,19.85-32.73,31.17-54,25.9-9.68-2.4-14.64-8.85-15.03-18.52-.38-9.68-.08-19.37-.08-29.95l-.02.02Z" style="fill: #e2ff66;"/>
        <path d="m1093.83,1124.93c10.75,5.38,19.9,10.75,29.62,14.64,12.74,5.09,29.56-6.24,30.11-19.66.3-7.04.3-14.1.37-21.16.11-13.65,7.42-22.03,21.19-24.24,13.72-2.19,23.89,3.7,28.41,16.73,2.17,6.29,3.96,12.71,5.81,19.11,6.2,21.52,3.35,28.65-15.34,41.56-4.31,2.97-8.62,6.9-11.08,11.4-9.71,17.77-19.19,21.19-37.24,12.31-1.69-.83-3.48-1.45-5.46-2.27-.85,1.36-1.92,2.27-1.9,3.19.14,18.97-4.2,22.96-22.85,18.71-23.42-5.32-45.08-15.06-59.56-34.9-6.1-8.37-9.31-19.59-11.24-30-1.82-9.82,1.95-18.7,13.84-20.95,7.2-1.36,7.63-6.07,6.59-12.42-3.61-22.1,2.94-31.85,23.12-35.51,20.71-3.75,42.35,8.06,46.15,25.2,3.02,13.57-.38,19.53-13.54,24.22-7.73,2.75-15.41,5.64-23.01,8.72-1.17.48-1.79,2.3-3.99,5.32v-.02Z" style="fill: #e2ff66;"/>
        <path d="m983.51,1701.35c22.74.56,42.57,1.77,62.35,1.2,9.15-.27,13.41-9.61,8.86-18.67-5.96-11.86-13.22-23.09-20.21-34.39-16.69-26.97-12.77-33.85,18.59-36.13,16.96-1.23,31.89,3.91,46.03,11.26,5.13,2.67,10,10.67,10.46,16.59,2.06,26.81-2.59,53.01-18.79,74.84-6.96,9.39-18.51,17.13-29.6,21.36-22.35,8.51-46.1,7.17-69.75,4.34-6.63-.78-14.37,1.1-20.45,4.09-11.5,5.65-27.77,5.24-37.81-2.95-7.5-6.12-11.05-14.48-6.48-22.99,9.76-18.2,20.29-36.07,31.68-53.3,4.98-7.54,19.03-7.11,28.05-1.05,8.81,5.91,7.73,13.54,3.66,21.68-1.71,3.43-3.26,6.95-6.59,14.12l.02.02Z" style="fill: #e2ff66;"/>
        <path d="m1094.87,1425.61c21.43-24.92,41.95-49.16,79.26-45.46.19-1.72.37-3.46.56-5.19-5.05-2.92-9.8-6.59-15.2-8.61-11.64-4.33-24.06-6.83-35.21-12.09-4.69-2.22-9.36-9.45-9.53-14.58-.11-3.31,7.41-8.08,12.37-10.17,19.99-8.38,38.7-8.85,54.43,9.74,2.57,3.03,9.17,3.58,13.94,3.67,23.12.42,32.48,10.78,30.79,33.96-.65,8.86-.45,17.9.48,26.73.91,8.64-1.33,14.74-9.79,17.61-5.16,1.76-10.39,3.67-15.74,4.47-32.33,4.82-63.07,20.79-96.92,11.48-1.26,21.22-5.24,24.97-24.29,25.53-26.35.75-39.22-10.95-43.62-39.69-2.6-16.96,4.04-25.58,21.33-25.58,5.19,0,10.78,3.39,15.46,6.37,4.22,2.68,7.5,6.83,11.08,10.47,3.29,3.34,6.42,6.83,10.62,11.32h-.02Z" style="fill: #e2ff66;"/>
        <path d="m2129.22,1183.69c-10.67,8.67-18.55,15.65-27.08,21.75-3.91,2.79-9.76,6.32-13.56,5.29-16.46-4.52-32.53-10.55-48.68-16.21-1.34-.46-2.51-1.92-3.35-3.18-1.98-2.89,2.55-36.55,5.56-38.32,12.07-7.14,23.84-15.17,36.71-20.42,13.46-5.49,22.69,2.12,23.39,16.85.61,13.01,3.35,14.23,14.88,8.3,13.17-6.75,26.31-14.12,40.32-18.55,16.02-5.06,22.53.54,23.82,17.08.73,9.36.4,18.55,9.39,25.32,2.24,1.68,2.48,9.6.51,12.6-7.63,11.7-1.84,19.8,5.72,27.8,3.23,3.42,6.91,6.39,10.17,9.77,6.05,6.28,7.65,12.55-.03,19.05-1.92,1.63-4.25,4.55-4.02,6.63.93,8.29-1.61,14.21-9.98,15.95-10.44,2.16-20.97,7.01-31.26-1.61-11.51-9.64-18.95-21.46-23.02-35.83-2.65-9.34-7.15-18.2-9.23-27.64-1.49-6.75-.29-14.1-.29-24.64l.05.02Z" style="fill: #e2ff66;"/>
        <path d="m1320.12,1288.85c-25.71-7.63-37.99,6.37-49.85,22.74-3.31,4.55-10.79,9.31-15.89,8.83-39.39-3.77-74.9-17.1-101.47-47.93-13.65-15.86-13.51-34.52-1.49-46.98,8.57-8.89,16.94-10.27,27.45-3.8,12.82,7.89,22.69,18.43,25,33.87,1.13,7.5,4.92,10.68,11.8,12.36,23.5,5.7,43.51,2.55,60.42-17.34,9.37-11.03,21.84-20.06,34.35-27.66,14.42-8.77,28.9-5.8,40.17,7.22,5.84,6.74,11.91,13.75,15.76,21.65,6.59,13.54,1.31,26.7-13.03,31.2-11.38,3.58-23.66,4.26-33.24,5.84h.02Z" style="fill: #e2ff66;"/>
        <path d="m1103.17,1545.81c-3.19-7.25-5.65-14.93-9.71-21.65-11.15-18.46-9.8-26.55,8.59-37.32,7.7-4.5,16-9.07,24.56-10.59,5.35-.94,13.28,2.36,16.97,6.5,2.11,2.35-.67,11.11-3.54,15.47-8.43,12.74-8.03,14.45,7.03,17.6,11.5,2.4,23.02,4.71,34.33,7.84,8.56,2.36,11.98-1.55,9.98-8.65-2.94-10.41-7.23-20.55-11.99-30.31-6.05-12.39-5.52-16.35,6.93-22.08,11.07-5.09,23.1-10.89,33.95-.5,13.43,12.89,21.05,28.96,15.58,47.73-2.78,9.53-8.77,18.36-14.4,26.76-6.98,10.39-14.43,20.65-22.96,29.76-6.55,7.01-14.77,12.61-22.77,18.04-6.43,4.38-13.84,7.3-20.52,11.35-13.78,8.38-26.15,6.96-36.82-5.25-10.86-12.44-18.22-26.47-15.2-44.71h0Z" style="fill: #e2ff66;"/>
        <path d="m880.62,1329.93c1.01-12.12,1.68-24.25,3.08-36.31,1.56-13.44,9.15-22.15,22.31-25.82,2.27-.64,4.47-1.45,6.74-2.09,30.13-8.4,42.78-.08,47.76,31.36,1.92,12.12-4.23,20.82-16.3,22.69-3.46.54-7.09.05-10.54.62-6.12,1.02-15.82-3.45-15.63,8.4.22,13.78,11.8,26.81,21.57,25.69,9.71-1.1,18.27-2.6,19.45-15.22.34-3.58,4.26-7.5,7.5-10.03,19.29-15.03,45.95-4.25,48.78,19.7,1.01,8.54,1.23,17.21,1.21,25.82-.06,19.93-14.29,30.4-33.82,25.26-3.4-.89-7.07-2.92-10.24-2.32-19.4,3.72-37.09-1.71-55.65-6.85-27.59-7.66-38.5-19.14-36.33-43.24.53-5.83.08-11.75.08-17.64l.02-.03Z" style="fill: #e2ff66;"/>
        <path d="m1502.03,1216.8c-3.05-23.62,2.71-38.61,26.27-43.8,7.41-1.63,13.6-8.88,20.26-13.67,14.85-10.7,30.93-16.75,49.56-13.72,19.27,3.15,31.25,14.58,33.61,33.88,1.12,9.21.93,18.81-.34,28.01-1.55,11.21-11.69,19.62-22.58,20.74-12.69,1.31-23.55-4.93-28.36-16.32-3.69-8.73-18.33-15.33-26.57-11.98-9.15,3.74-18.12,23.06-13.64,31.04,1.41,2.51,6.08,4.2,9.37,4.38,5.4.3,10.89-1.49,16.33-1.44,19.53.21,29.86,17.24,20.61,34.36-7.62,14.12-19.77,22.24-36.01,22.66-17.55.43-31.93-6.87-39.22-22.91-4.9-10.81-6.83-23.09-9.13-34.9-1.17-6.04-.21-12.5-.21-16.37l.02.03Z" style="fill: #e2ff66;"/>
        <path d="m1738.62,1034.86c5.7-.96,10.16-3,13.83-2.04,5.99,1.56,12.66,3.99,16.61,8.29,1.69,1.84-1.49,10.39-4.61,14.02-16.59,19.16-37.43,22.16-58.74,9.39-14.35-8.61-16.38-19.83-6.1-33.12,4.74-6.13,9.26-12.44,14.27-19.18-3.82-3.21-6.77-5.7-9.71-8.19-11.69-9.96-12.6-14.93-3.9-27.94,3.45-5.16,7.63-10.03,12.29-14.12,14.55-12.79,22.4-12.82,38.94-2.78,8.24,5,17.77,7.9,25.96,12.98,25.1,15.55,49.53,32.08,57.27,63.28,4.87,19.58-2.3,36.84-19.3,44.56-6.39,2.89-14.61,4.12-21.51,3-16.54-2.68-20.57-12.5-12.41-27.08,3.83-6.83,8.46-13.25,11.86-20.28,3.7-7.63.11-15.34-7.39-14.75-14.93,1.17-29.62,5.41-44.37,8.62-.93.21-1.41,2.41-3,5.35v-.02Z" style="fill: #e2ff66;"/>
        <path d="m1638.48,1602.02c12.55-1.61,22.18,2.54,29.28,13.21,11.27,16.96,23.47,33.31,34.46,50.44,9.71,15.14,7.76,26.71-5.67,38.48-15.41,13.49-33.48,21.86-53.76,24.41-6.75.85-14.21-.03-20.73-2.09-9.79-3.1-14.66-14.31-12.6-25.04,2.11-10.94,9.68-12.77,19.27-12.57,16.54.37,21.25-3.51,23.15-17.74,1.12-8.41-2.3-13.62-10.83-15.15-11.29-2.03-26.67,8.14-31.36,18.33-2.76,6.02-8.41,13.56-13.94,14.67-5.8,1.17-14.74-2.81-19.24-7.49-18.19-18.95-12.44-55.41,11.35-66.73,15.58-7.42,33.2-10.6,49.91-15.68.22.97.45,1.95.67,2.91l.02.03Z" style="fill: #e2ff66;"/>
        <path d="m1394.22,1049.18c-11.74,0-23.57.89-35.21-.18-27.97-2.55-45.47-25.93-40.19-52.58,2.16-10.86,7.62-18.75,19.18-21.16,11.05-2.3,16.17,4.06,22.79,11.99,7.42,8.93,18.09,15.84,28.55,21.32,8.99,4.69,13.91.64,14.19-10,.45-15.98-1.84-31.33-14.12-43.29-6.83-6.66-4.69-12.58,1.69-17.85,11.45-9.45,29.46-10.36,38.26,1.37,15.62,20.82,30.35,42.7,42.22,65.8,8.94,17.42-5.65,36.6-28.23,40.97-8.03,1.55-16.29,2.2-24.48,2.63s-16.43.1-24.65.1v.86Z" style="fill: #e2ff66;"/>
        <path d="m987.12,889.46c-6.37.37-11.75,1.95-16.27.62-5.56-1.63-11.8-4.66-15.01-9.07-1.92-2.63-.19-11.02,2.73-13.49,10.87-9.23,22.29-18.28,34.79-24.99,6.83-3.67,15.63-2.28,22.18,5.49,4.1,4.87,10.7,7.7,16.32,11.21,11.64,7.25,16.08,17.47,13.97,31.01-4.65,29.64-21.38,53.59-37.44,77.55-3.02,4.5-12.23,6.56-18.65,6.71-11.27.24-22.59-1.95-33.9-3-31.84-3-50.03-35.35-35.99-64.41,5.03-10.43,14.61-13.76,25.37-13.75,10.73,0,11.34,8.97,13.46,16.41.32,1.13.56,2.3.97,3.39,2.52,6.58.18,19.67,11.32,16.09,7.36-2.36,13.28-12.82,17.23-20.93,2.32-4.76-.51-12.01-1.09-18.81v-.03Z" style="fill: #e2ff66;"/>
        <path d="m1629.53,1283.61c3.42-21,21.36-37.65,40.96-38.64,2.97-.14,6.12,1.07,9.01,2.14,10.41,3.86,20.69,8.11,31.15,11.88,11.91,4.31,22.85,10.01,24.56,23.98,2.09,17.21-4.73,31.6-17.96,42.38-11.96,9.74-24.67,18.54-37.11,27.67-26.62,19.56-62.29,16.24-80.92-8.77-5.52-7.41-9.09-17.47-10.24-26.73-2.24-17.85,7.27-28.88,25.04-32.13,4.95-.91,10.01-1.17,15.54-1.79h-.02Zm27.43,37.97c9.17-3.62,17.1-5.86,24.03-9.87,3.91-2.25,6.15-7.41,9.13-11.26-4.74-3.16-9.28-8.49-14.27-9.01-8.75-.86-17.79,1.28-26.7,2.09-10.19.93-14.75,9.93-8.02,17.69,3.94,4.55,10.41,6.93,15.82,10.33v.02Z" style="fill: #e2ff66;"/>
        <path d="m1010.26,1286.61c-13.88-.34-29.16-5.17-38-20.42-12.53-21.62-1.9-47.07,22.47-56.27,27.72-10.46,56.38-3.48,76.79,18.2,2.73,2.89,7.07,4.36,10.81,6.18,1.33.65,3.11.26,4.63.62,21.33,5.36,21.94,24.65,25.99,40.65,5.13,20.17,2.35,26.11-10.89,34.43-24.92,15.66-65.13,13.96-87.37-5.01-3.67-3.13-2.91-11.45-4.41-18.38h-.02Zm11.64-8.1c10.91-1.64,21.94-3.18,32.89-5.06,3.98-.69,10.79-1.68,11.13-3.46.81-4.47.02-10.46-2.57-14.12-10.24-14.39-35.06-15.57-47.31-3.05-4.76,4.87-7.01,8.69.19,14.05,3.34,2.49,4.17,8.33,5.67,11.62v.02Z" style="fill: #e2ff66;"/>
        <path d="m2051.29,1744.32c-9.18,6.15-9.93,9.48-.75,19.86,4.77,5.4,4.38,9.56-.61,13.99-2.04,1.82-4.15,3.61-6.39,5.16-16.05,11.19-34.87,12.89-46.11,4.22-10.22-7.87-12.58-25.12-6.87-43.75,2.92-9.53,3.69-19.78,7.04-29.12,1.56-4.31,6.61-9.52,10.79-10.27,6.99-1.25,14.95-.45,21.81,1.68,14.4,4.44,26.04-2.3,28.33-17.74,1.17-7.84,11.24-15.12,20.79-12.47,8.7,2.41,18.27,6.34,24.38,12.61,14.75,15.12,21.49,34.54,21.38,55.66-.13,23.41-24.62,38.75-44.95,27.05-10.89-6.28-18.99-17.42-28.85-26.86v-.02Z" style="fill: #e2ff66;"/>
        <path d="m1610.18,1001.21c-17.45-4.52-32.72-8.43-47.95-12.45-11.37-3-20.93,2.11-24.59,13.3-5.78,17.69-17.66,24.97-33.8,20.71-15.84-4.18-24.35-18.65-20.58-35.64,3.15-14.18,12.04-23.17,25.68-28.13,7.23-2.63,14.26-6.1,20.93-9.98,14.43-8.4,29.09-8,42.2,1.07,17.53,12.12,36.33,19.03,57.27,22.43,20.17,3.27,28.39,23.12,20.07,41.53-2.52,5.59-2.48,13.36-.99,19.51,2.62,10.76.61,18.2-9.18,23.79-14.85,8.46-35.54,5.32-47.65-7.23-12.37-12.85-9.53-26.9,7.44-32.61,9.84-3.31,13.28-8.61,11.15-16.27v-.03Z" style="fill: #e2ff66;"/>
        <path d="m2134.98,1418.04c-2.91,15.76-4.65,31.84-8.99,47.18-6.5,22.96-30.53,28.98-48.37,13.27-7.22-6.35-10.31-13.99-7.07-23.12,12.41-34.98-11.74-65.83-43.69-74.52-7.5-2.04-17.96-2.63-17.61-15.18.4-14.67,6.24-24.57,17.93-28.95,13.33-4.98,27.27-3.85,38.88,2.51,18.7,10.24,36.8,22.07,53.41,35.38,13.06,10.47,14.95,26.92,15.5,43.42v.02Z" style="fill: #e2ff66;"/>
        <path d="m940.03,1589.13c26.7,3.48,47.52-8.43,67.97-20.82,6.31-3.82,4.36-12.26-3.18-17.12-3.93-2.54-8.41-4.41-11.86-7.46-10.87-9.64-9.93-22.55,1.88-30.63,3.88-2.65,7.79-5.27,11.82-7.7,13.14-7.95,19.48-7.65,29.57,1.2,12.14,10.63,14.02,18.87,8.41,32.86-.97,2.44-.42,7.22,1.33,8.75,8.33,7.3,14.42,14.34,6.93,26.01-1.88,2.94.06,8.18-1.6,11.43-2.11,4.12-5.91,10.17-9.29,10.39-22.82,1.45-39.17,16.57-58.41,25.58-9.61,4.5-21.35,9.28-31.1,7.7-26.22-4.22-50.3-13.54-60.34-42.51-3.78-10.92-1.77-19.11,6.18-26.46,8.3-7.66,17.96-9.4,28.29-4.93,9.98,4.33,15.14,12.1,14.5,23.23-.18,3.08-.64,6.16-1.1,10.47v-.02Z" style="fill: #e2ff66;"/>
        <path d="m797.11,1295.49c33-1.02,47.23,7.71,54.77,34.98,1.41,5.06,2.06,11.21.53,16.05-5.32,16.75-11.02,33.47-18,49.56-5.36,12.39-17.02,17.05-29.95,16.97-11.72-.08-23.46-1.36-35.16-2.36-2.65-.22-5.51-1.09-7.74-2.49-15.15-9.58-21.46-50.33-10.09-64.09,9.53-11.54,21.68-11.21,30.31.96,1.58,2.22,2.28,5.16,4.14,7.06,3.03,3.13,8.16,8.7,9.76,7.92,4.93-2.46,9.42-6.95,12.26-11.72.8-1.36-3.91-7.86-7.31-9.5-9.82-4.74-20.65-7.44-30.35-12.37-10.35-5.25-13.01-14.99-6.51-23.44,2.87-3.74,8.62-6.29,13.48-7.2,6.42-1.21,13.25-.3,19.9-.3v-.02Z" style="fill: #e2ff66;"/>
        <path d="m1917.76,1773.04c-1.45-.19-5.7-.81-9.96-1.36-19.29-2.46-38.67-4.42-57.85-7.6-7.36-1.23-15.46-3.75-21.16-8.29-15.17-12.06-14.35-29.72,2.14-39.93,8.73-5.41,19.32-8.41,29.48-10.86,23.97-5.75,48.16-10.57,72.28-15.65,18.38-3.86,38.61,15.01,34.98,33.29-1.88,9.48-4.82,19.03-8.97,27.75-7.46,15.62-20.85,22.74-40.92,22.64h-.02Z" style="fill: #e2ff66;"/>
        <path d="m910.91,1493.44c9.17-5.68,17.01-9.96,24.03-15.33,1.64-1.26,1.41-6.42.51-9.31-3.05-9.71-6.4-19.37-10.39-28.71-2.99-6.98-1.71-11.98,4.31-16.21,4.47-3.15,8.57-6.88,13.27-9.64,13.3-7.84,24.17-5,31.41,8.57,4.04,7.57,7.23,15.63,10.25,23.7,6.31,16.85,3.9,22.58-12.42,30.85-4.5,2.28-9.12,4.38-11.75,5.64,1.12,8.38,5.09,17.13,2.3,22.11-4.39,7.87-12.29,16.41-20.5,18.99-21.83,6.87-44.25,6.16-64.59-6.39-22.55-13.91-27.99-46.15-11.75-67.11,9.09-11.72,32.05-7.74,37.95,7.14,2.7,6.79,3.21,14.43,4.68,21.7.81,4.06,1.56,8.13,2.68,14.04l.02-.03Z" style="fill: #e2ff66;"/>
        <path d="m1371.93,1218.97c-16.03-.1-25.18-7.42-28.18-22.02-2.92-14.1.62-17.64,14.21-22.85,9.5-3.64,17.23-11.69,26.22-16.97,10.97-6.47,9.45-16.7,9.74-26.83.3-10.55.43-21.25,2.28-31.6,3.08-17.34,16.77-25.5,34.06-21.57,16.09,3.64,27.18,19.43,21.11,34.63-7.39,18.54-9.44,35.78-1.21,54.38,1.58,3.58-.13,11.24-3.08,13.75-20.07,16.99-41.37,32.27-67.65,38.43-2.63.62-5.46.48-7.47.64h-.02Z" style="fill: #e2ff66;"/>
        <path d="m1567.29,1362.73c-1.07,19.98-11.38,31.5-31.78,33.15-7.04.57-11.58,1.95-15.84,8.85-10.87,17.6-34.86,15.97-45.33-2.08-2.55-4.39-4.9-9.05-8.19-12.85-18.2-21.01-6.9-53.68,14.08-64.17,1.96-.99,3.94-2.63,5.09-4.47,10.91-17.56,23.1-20.92,41.93-11.82,6.9,3.34,14.51,5.24,21.22,8.88,3.77,2.04,7.86,5.76,9.18,9.63,3.91,11.4,6.51,23.25,9.63,34.9v-.02Z" style="fill: #e2ff66;"/>
        <path d="m961.86,1175.18c-21.76-3.02-43.64-13.65-58.58-36.07-5.43-8.14-10.2-16.73-15.33-25.08-11.08-18.01-8.4-47.49,6.29-63.09,7.38-7.82,16.51-5.99,25.05-2.14,8.24,3.72,5.09,10.7,3,16.32-9.31,25.07-2.48,37.73,22.18,49.93,6.24,3.08,14.95,2.43,22.32,1.63,6.45-.7,12.52-4.49,18.95-6.08,15.81-3.9,28.13,5.92,28.47,22.23.5,24.14-21.09,43.24-52.36,42.35v.02Z" style="fill: #e2ff66;"/>
        <path d="m2216.33,1343.06c-6.04-11.7-10.6-22.02-26.63-16.89-4.76,1.52-14.35-2.12-16.85-6.31-2.51-4.23-.67-13.08,2.28-18.14,11.94-20.52,38.62-26.11,62.18-14.1,18.09,9.23,24.29,31.04,14.82,53.2-1.31,3.07-4.1,7.86-6.21,7.84-12.28-.03-11.94,10.09-15.41,17.34-3.03,6.34-5.84,12.93-9.88,18.59-11.66,16.29-27.88,18.57-46.07,13.7-15.2-4.07-27.35-12.33-28.02-29.01-.4-10.01,2.35-21.01,6.85-29.99,2.27-4.52,11.82-7.89,17.66-7.34,4.89.46,11.23,6.55,13.27,11.61,3.94,9.77,10.86,7.68,17.37,6.32,4.76-.99,9.09-4.15,14.64-6.83v.02Z" style="fill: #e2ff66;"/>
        <path d="m1520.44,1105.43c1.5,2.09,2.91,4.26,4.53,6.24,9.25,11.24,8.4,19.75-2.95,28.95-9.71,7.87-28.29,9.21-38.9,2.81-12.58-7.58-18.06-20.41-15.07-35.24,7.58-37.73,53.11-65.1,89.77-53.51,19.24,6.08,30.26,21.01,35.16,39.46,1.77,6.71-.64,16.88-5.03,22.31-6.61,8.16-17.64,10.38-27.94,5.91-8.19-3.56-15.6-8.86-23.49-13.16-4.58-2.49-9.4-4.5-14.13-6.74-.64.99-1.28,1.98-1.93,2.99l-.02-.02Z" style="fill: #e2ff66;"/>
        <path d="m1907,1543.4c-14.61,2.76-26.01,5.27-37.51,6.95-5.33.78-11.02.61-16.35-.27-11.05-1.82-13.46-7.42-11.88-18.38,4.45-30.58,27.89-45.71,49.8-61.62,10.43-7.57,26.12-.97,33.44,10.41,2.99,4.65,7.9,8.93,12.92,11.23,10.71,4.9,17.48,11.8,16.93,24.08-.88,19.3-7.06,36.87-18.78,52.2-6.24,8.18-14.45,13.24-25.5,10.79-10.54-2.33-13.05-8.05-8.57-18.01,2.19-4.89,3.29-10.27,5.49-17.36l.02-.02Z" style="fill: #e2ff66;"/>
        <path d="m1742.6,1592.21c-.83,5.38-1.17,9.66-2.17,13.75-2.63,10.65-9.39,16.91-20.47,18.01-10.94,1.09-17.72-4.42-21.97-13.97-16.67-37.41,6.07-76.16,47.28-79.18,22.47-1.64,43.85,2.6,60.52,19.7,11.07,11.37,14.29,24.59,9.01,35.14-5.38,10.73-19.42,17.42-34.3,15.03-12.28-1.98-24.32-5.4-37.87-8.49l-.02.02Z" style="fill: #e2ff66;"/>
        <path d="m1335.02,1618.38c5.7-6.34,10.3-11.46,14.91-16.59,11.03-12.28,18.76-14.9,29.41-9.95,10.28,4.77,17.4,20.41,15.07,33.04-6.35,34.38-41,50.89-70.77,32.67-10.83-6.63-19.98-16.21-29.19-25.18-11.48-11.19-22.13-23.25-33.36-34.71-8.32-8.49-7.84-13.11,2.48-18.49,15.89-8.27,48.32.42,57.8,15.7,4.47,7.2,8.53,14.69,13.62,23.5l.02.02Z" style="fill: #e2ff66;"/>
        <path d="m2050.15,1601.18c2.49-5.94,8.38-14.9,9.68-24.48,1.21-8.97-2.65-18.59-3.77-27.97-.3-2.52,1.15-5.3,1.96-7.92,8.94-28.25,28.77-36.33,54.67-21.84,3.05,1.71,5.09,5.67,6.91,8.97,5.38,9.72,11.08,19.35,15.25,29.6,1.55,3.82.73,10.22-1.61,13.7-11.11,16.51-22.95,32.56-34.9,48.48-8.78,11.7-17.21,14.16-29.59,9.69-11.99-4.33-18.55-12.93-18.6-28.25v.02Z" style="fill: #e2ff66;"/>
        <path d="m2150.69,1110.27c-12.87-3.78-26.43-5.96-38.19-11.78-10.14-5.01-8.22-14.43,2.33-18.81,16.16-6.71,19-14.98,10.3-30-12.02-20.79-9.66-25.8,14.07-29.91,25.42-4.39,41.04,4.53,50.87,28.23,1.63,3.93,5.59,7.14,9.05,9.95,2.99,2.43,6.98,3.56,10.22,5.73,16.13,10.81,16.06,25.64-1.9,32.45-17.63,6.69-36.76,9.36-56.76,14.16l.02-.02Z" style="fill: #e2ff66;"/>
        <path d="m1433.9,1422.88c-1.07,12.09-2.12,24.17-3.24,36.25-1.55,16.61-12.2,28.55-22.43,39.98-7.14,7.97-17.34,8.18-26.81,1.8-7.78-5.24-15.65-10.35-23.46-15.54-12.87-8.56-15.79-17.5-8.54-30.91,5.38-9.93,12.1-19.16,18.54-28.49,1.71-2.49,4.45-5.89,6.87-6.02,13.17-.67,19.38-9.8,26.14-19.13,6.08-8.41,15.06-9.17,24.37-6.16,8.89,2.86,7.9,10.57,8.08,17.56.08,3.53,0,7.04,0,10.57.16.02.32.03.48.05l.02.03Z" style="fill: #e2ff66;"/>
        <path d="m2133.1,1679.2c-6.69-1.09-13.88-1.25-20.25-3.61-4.55-1.69-10.86-6.07-11.21-9.74-.45-4.73,3.03-11.5,6.99-14.66,8.65-6.91,19.16-6.98,28.58-1.04,11.38,7.17,22.18,15.26,34.98,24.21,5.27-3.8,12.71-9.37,20.39-14.59,7.09-4.84,14.1-10.01,21.76-13.76,9.92-4.87,19.77-.56,24.25,9.4,9.82,21.72-4.2,49.61-27.34,54.38-12.61,2.6-25.13,6.5-37.87,7.44-31.02,2.27-40.48-6.99-40.29-38l-.02-.03Z" style="fill: #e2ff66;"/>
        <path d="m2010.93,1492.96c-13.33-5.91-27.24-10.78-39.81-18.01-11.07-6.39-20.87-15.11-30.79-23.33-9.31-7.71-11.9-17.56-5.06-28.12,4.39-6.79,9.21-13.8,15.34-18.89,16.99-14.13,31.54-13.7,46.37,2.63,13.09,14.42,24.43,30.47,36.13,46.1,5.33,7.12,11.19,14.55,5.19,24.46-5.64,9.29-12.26,12.55-25.99,12.06-.46,1.04-.93,2.06-1.39,3.1h0Z" style="fill: #e2ff66;"/>
        <path d="m1083.36,976.26c7.5,3,15.84,2.3,24.8-2.7,6.21-3.46,13.75-5.84,20.81-6.2,11.75-.59,21.35,4.74,26.44,15.98,5.21,11.5-.22,20.5-7.82,28.57-16.46,17.47-36.34,26.43-60.23,19.8-23.6-6.55-38.86-22.8-45.7-46.31-5.08-17.5,4.2-33.47,21.28-34.68,7.7-.54,16.53,3.15,23.22,7.44,1.96,1.26-1.6,11.16-2.79,18.09h0Z" style="fill: #e2ff66;"/>
        <path d="m799.6,1592.45c15.12,2.14,28.26.16,39.55-12.28,6.4-7.07,16.78-6.4,23.44.43,10.33,10.59,20.34,21.88,28.29,34.28,8.24,12.87,2.44,28.76-10.47,35.06-10.94,5.35-22.99.54-28.34-14.83-4.53-13-11.42-10.22-19.54-6.63-9.31,4.14-18.17,9.25-27.43,13.48-12.71,5.8-26.63,3.43-35.77-6.2-9.26-9.74-8.78-21.81-4.77-33.1,1.55-4.38,7.92-8.65,12.84-9.82,7.04-1.66,14.79-.43,22.23-.43l-.02.03Z" style="fill: #e2ff66;"/>
        <path d="m1914.6,879.35c29.89,1.07,50.98,24.05,49.02,53.68-.64,9.76-6.07,14.87-14.35,17.93-8.41,3.11-15.46.56-20.89-6.24-3.16-3.96-5.81-8.33-8.69-12.53-9.2-13.46-16.16-13.68-24,.48-7.76,14.02-18.33,24.51-33.24,29.92-5.16,1.87-11.66,2.38-16.94,1.09-9.98-2.44-13.64-9.96-8.75-18.92,13.54-24.77,31.65-45.76,56.52-59.77,6.2-3.48,14.16-3.83,21.3-5.64h.02Z" style="fill: #e2ff66;"/>
        <path d="m1142.47,1661.25c.3-24.41,14.4-39.62,40.57-47.38,5.24-1.55,10.54-5.4,14.1-9.63,8.11-9.64,24.61-8.93,30.4,2.36,3.93,7.65,6.98,15.73,10.76,23.46,3.88,7.9,1.1,13.13-6.51,15.5-8.54,2.67-17.42,4.26-26.17,6.28-15.18,3.5-18.07,8.97-12.34,23.47.14.37.35.72.45,1.09,1.95,7.62,11.5,14.9,1.66,23.07-8.93,7.41-27.03,7.09-36.37-.59-12.49-10.28-15.82-24.59-16.57-37.63h.03Z" style="fill: #e2ff66;"/>
        <path d="m960.12,1008.37c17.76,5.78,36.8,9.74,53.73,18.06,24.62,12.1,28.42,37.94,11.15,59.33-8.32,10.3-28.63,10.11-38.82-1.55-5.81-6.64-10.11-14.9-13.81-23.01-3.08-6.77-7.15-9.32-14.42-8.99-7.41.34-15.44,1.12-22.15-1.26-6.28-2.22-14.5-7.58-15.7-12.95-1.18-5.24,3.88-14.64,8.97-17.92,8.54-5.48,19.27-7.52,31.04-11.7v-.02Z" style="fill: #e2ff66;"/>
        <path d="m766.79,1138.4c-2.19-19.53,9.93-36.02,26.04-50.23,12.85-11.35,28.26-6.07,32.27,10.52.37,1.52.72,3.08.72,4.63-.03,24.14.34,48.3-.4,72.43-.32,10.46-5.78,18.7-16.83,21.56-11.19,2.89-20.9.93-28.26-8.85-10.41-13.78-13.94-29.51-13.52-50.07l-.02.02Z" style="fill: #e2ff66;"/>
        <path d="m1378.05,1571.6c-16.24-6.85-32.13-12.25-46.59-20.18-7.28-3.99-12.63-6.12-20.23-2.36-10.89,5.36-22.02,10.28-33.21,14.96-4.61,1.93-9.96,4.44-14.47,3.67-5.7-.97-12.42-3.88-15.65-8.22-1.74-2.33,1.88-10.17,4.87-14.19,5.81-7.82,12.44-15.18,19.53-21.89,25.26-23.87,58.52-24.03,84.91-1.18,9.45,8.19,19.83,15.33,29.09,23.71,3.8,3.43,9.15,10.84,7.89,13.03-2.84,4.92-9.37,7.73-16.16,12.66h.02Z" style="fill: #e2ff66;"/>
        <path d="m1796.07,1691.82c-11.3-1.63-25.29-3.45-39.2-5.72-8.69-1.4-14.23-5.8-13.81-15.78.14-3.29-1.33-6.9-2.87-9.93-5.44-10.71-4.09-19.86,4.66-27.1,8.83-7.31,18.23-5.57,25.74,1.07,11.03,9.74,21.89,7.66,33.64,2.73,8.59-3.61,17.15-8.7,26.09-9.61,6.28-.64,15.46,2.94,19.06,7.79,3.1,4.17,2.41,14.18-.57,19.29-11.16,19.18-24.13,37.16-52.71,37.27l-.03-.02Z" style="fill: #e2ff66;"/>
        <path d="m1511.74,1775.2c1.49-23.15,9.77-42.28,23.65-58.94,8.4-10.09,19.61-10.79,31.07-6.61,21.67,7.9,33.2,25.4,40.43,45.89,3.58,10.14-3.74,14.13-12.6,15.17-11.24,1.31-22.66,1.55-33.71,3.72-4.81.94-11.34,4.58-12.85,8.59-4.61,12.29-13.11,14.9-24.19,12.37-11.48-2.6-11.4-12.36-11.8-20.2h0Z" style="fill: #e2ff66;"/>
        <path d="m2032.12,1122.48c-2.01,19.29-17.72,31.46-35.54,26.14-5.86-1.74-12.1-4.58-16.37-8.77-11.18-10.94-21.65-22.63-31.84-34.51-6.48-7.55-6.37-16.62.4-23.55,7.55-7.74,15.84-15.78,25.44-20.12,5.44-2.46,15.98,0,20.98,4.14,9.79,8.13,18.35,18.31,25.42,28.96,5.43,8.18,7.81,18.38,11.54,27.67l-.03.03Z" style="fill: #e2ff66;"/>
        <path d="m1854.32,975.11c9.87,4.07,20.55,6.88,29.4,12.55,10.91,7.01,20.28,7.42,31.39,1.18,9.17-5.14,19.03-9.28,29.03-12.53,4.71-1.53,10.97-1.33,15.57.5,11.19,4.42,12.61,10.27,4.9,19.8-33.6,41.52-88.51,49.28-126.88,6.42-3.91-4.38-8.45-13.54-6.51-16.57,2.95-4.66,11.23-6.04,17.34-8.54,1.34-.56,3.1-.08,4.66-.08.37-.91.73-1.8,1.1-2.71h0Z" style="fill: #e2ff66;"/>
        <path d="m848.99,1693.01c7.39-3.29,14.4-6.67,21.62-9.58,10.38-4.18,20.41-2.32,28.66,4.58,8.14,6.82,4.9,16.29,1.68,23.97-3.39,8.05-8.1,16.17-14.21,22.31-8.46,8.51-21.17,12.81-31.34,6.66-21.35-12.9-45.09-24.27-54.22-50.63-3.15-9.09-6.32-18.43,3.82-25.31,9.58-6.5,18.27-4.28,27.32,6.67,5.44,6.59,10.55,13.46,16.67,21.32l.02.02Z" style="fill: #e2ff66;"/>
        <path d="m1311.99,1451.91c-1.44,11.32-1.44,26.17-16.38,31.73-15.15,5.64-24.53-5.81-31.63-16.41-5.86-8.73-10.92-19.26-12.22-29.49-1.8-14.15-.69-28.9,1.17-43.14.7-5.41,5.96-11.54,10.83-14.77,6.8-4.49,14.04-1.74,20.23,3.75,15.17,13.46,28.18,43.86,28.01,68.34Z" style="fill: #e2ff66;"/>
        <path d="m1779.36,886.46c8.19,2.2,16.85,4.34,25.39,6.88,8.05,2.4,15.89,7.57,14.12,16.08-1.44,6.9-7.19,15.26-13.35,18.38-23.25,11.75-66.17-6.61-75.59-30.99-4.33-11.18,3.23-43.85,13.51-49.72,5.96-3.4,16.3-4.85,21.78-1.87,6.37,3.46,11.03,12.23,13.7,19.67,2.2,6.18.45,13.78.45,21.56v.02Z" style="fill: #e2ff66;"/>
        <path d="m1851.21,1132.74c-1.1-21.27,9.76-37.67,21.86-53.28,7.11-9.17,18.25-9.96,26.86-1.6,19.53,19,25.07,35.42,12.61,58.76-4.9,9.2-11.82,17.42-18.38,25.63-5.62,7.04-13.8,13.52-22.21,8.56-7.71-4.55-13.83-12.92-18.67-20.82-2.75-4.5-1.52-11.43-2.08-17.26v.02Z" style="fill: #e2ff66;"/>
        <path d="m1361.19,1383.2c-14.51-4.06-29.62-6.72-43.38-12.55-14.42-6.1-16.38-16.75-7.04-29.43,5.03-6.83,11.15-13.16,17.76-18.49,11.69-9.42,45.83-4.95,55.49,6.45,3.78,4.47,8.03,8.54,11.83,13,12.31,14.45,7.39,31.47-10.83,36.18-7.47,1.93-15.38,2.2-23.07,3.24-.26.54-.51,1.07-.75,1.61v-.02Z" style="fill: #e2ff66;"/>
        <path d="m2206.26,892.55c-7.81,0-16.56,2.22-23.2-.57-7.9-3.34-16.49-9.8-19.96-17.18-2.12-4.5,3.05-15.23,8.03-19.78,16.27-14.85,35.02-24.8,58.5-20.92,17.58,2.91,30.43,14.42,29.94,27.74-.5,13.56-17.02,29.91-32.22,31.25-6.98.62-14.07.11-21.11.11v-.64h.02Z" style="fill: #e2ff66;"/>
        <path d="m1963.16,1163.66c21.09-.11,37.27,8.64,40.13,19.85,2.78,10.97-5.36,23.55-21.91,32.7-5.76,3.19-11.94,6.08-18.3,7.68-32.76,8.22-46.39-14.08-51.48-39.52-.57-2.86,3.19-8.93,6-9.72,16.08-4.55,32.48-7.95,45.57-11l-.02.02Z" style="fill: #e2ff66;"/>
        <path d="m1305.89,1157.09c-14.19,0-26.06-8.53-29.8-20.09-3.85-11.93,1.47-20.68,10.49-27.61,9.05-6.96,20.21-10.86,23.78-24.4,1.07-4.06,12.31-7.3,19.02-7.55,8.37-.32,17.1,2.12,25.24,4.74,4.36,1.41,9.42,5,11.07,8.93,1.02,2.43-2.84,8.59-6.07,10.86-13.25,9.26-23.15,19.99-27.46,36.52-3.43,13.14-15.06,18.27-26.27,18.6h0Z" style="fill: #e2ff66;"/>
        <path d="m833.29,862.38c6.18,2.44,14.95,4.9,22.64,9.23,10.86,6.1,21.51,12.87,31.18,20.68,12.79,10.31,13.76,24.83,2.65,37-5.11,5.6-12.07,9.77-18.73,13.64-8.61,5-18,3.64-22.95-4.53-11.66-19.26-22.53-39.1-32.22-59.41-4.15-8.7,3.88-16.45,17.44-16.59h-.02Z" style="fill: #e2ff66;"/>
        <path d="m2133.97,930.53c-2.25,11.9-3.51,24.08-6.98,35.61-5.24,17.47-29.35,22.51-40.73,8.29-3.32-4.14-4.18-13.19-2-18.14,3.91-8.86,2.94-15.49-2.32-22.82-2.71-3.77-4.79-8.13-6.45-12.49-3.23-8.46-4.36-17.29,3.51-23.79,8.13-6.71,17.58-11.07,28.15-5.49,15.44,8.13,29.97,17.2,26.83,38.83h-.02Z" style="fill: #e2ff66;"/>
        <path d="m1242.6,1731.81c-16.64-.54-29.33-6.53-37.95-19.59-6.56-9.95-3.72-16.94,8.16-17.95,9.25-.78,14.23-5.13,17.68-12.82.96-2.12,2.38-4.04,3.67-6,10.36-15.86,26.92-20.73,39.98-11.78,14.91,10.23,18.94,32.88,7.55,46.8-10.27,12.53-23.49,20.45-39.09,21.35h0Z" style="fill: #e2ff66;"/>
        <path d="m1975.66,1540.27c2-3.61,3.88-9.95,8.03-13.89,14.05-13.4,31.01-15.82,49.07-9.66,11.94,4.07,16.19,12.01,11.91,23.95-7.34,20.52-20.49,37-39.31,48.11-11.5,6.79-22.98-.14-24.19-13.41-.5-5.44-1.13-10.89-1.98-16.29s-2.01-10.75-3.54-18.79l.02-.02Z" style="fill: #e2ff66;"/>
        <path d="m1884.85,1417.86c-15.15-.03-28.68-7.46-32.09-17.58-3.74-11.11,1.42-23.73,14.02-33.58,15.66-12.23,33.2-15.46,52.12-9.68,13.32,4.07,17.24,12.31,12.87,25.37-6.5,19.35-27.86,35.51-46.93,35.46h.02Z" style="fill: #e2ff66;"/>
        <path d="m2154.01,964.38c.37-22.64,16.53-33.4,34.41-23.14,9.01,5.17,16.43,14.34,22.4,23.17,6.5,9.61,11.53,20.55,15.31,31.57,4.14,11.99-4.04,21.84-15.86,21.17-21.56-1.25-50.22-24.86-55.07-45.49-.72-3.03-1.01-6.15-1.18-7.28h-.02Z" style="fill: #e2ff66;"/>
        <path d="m2069.5,1112.28c-19.51-1.72-34.43-15.46-48.76-30.16-3.45-3.53-7.54-6.51-10.49-10.41-2.41-3.18-5.36-7.63-4.77-10.94.54-3.03,5.25-7.22,8.51-7.58,19.38-2.2,38.85-3.9,58.31-4.79,9.02-.42,13.91,4.6,14.21,14.64.35,11.98,2.27,23.92,3.7,35.85.91,7.47-7.14,13.49-20.71,13.38v.02Z" style="fill: #e2ff66;"/>
        <path d="m1432.69,1302.45c-16.67-1.64-27.16-11.98-37.97-20.69-5.92-4.79-9.92-11.98-14.77-18.07,7.42-3.51,14.55-8.21,22.35-10.22,10.94-2.81,22.34-4.17,33.64-5.09,7.33-.59,14.99-.19,22.18,1.34,9.92,2.12,20.55,7.11,20.13,18.15-.26,6.98-6.69,15.82-12.93,20.02-9.74,6.56-21.64,9.88-32.62,14.59l-.02-.03Z" style="fill: #e2ff66;"/>
        <path d="m2059.74,905.7c-.77,2.35-1.39,6.83-3.54,10.38-10.33,17.01-25.71,28.57-43.72,35.83-10.84,4.38-19.45-2.89-26.62-10.65-6.51-7.04-5.86-14.53-1.77-22.74,10.19-20.39,27.66-30.5,48.97-34.46,14.18-2.63,26.36,7.14,26.68,21.64Z" style="fill: #e2ff66;"/>
        <path d="m1962.36,1633.04c4.06-8.51,6.74-18.22,12.68-25.12,3.64-4.23,12.92-6.9,18.52-5.54,15.57,3.75,28.77,12.68,36.42,27.34,2.17,4.15,3.21,11.51.97,14.9-9.26,14.02-22.02,24.54-38.59,29.06-13.49,3.67-20.95-1.25-24.11-14.87-.97-4.2-1.71-8.46-2.28-12.73-.51-3.88-.65-7.81-.96-11.72-.88-.43-1.76-.88-2.63-1.31l-.02-.02Z" style="fill: #e2ff66;"/>
        <path d="m1299.6,925.48c-.21-27.66,12.82-37.36,37.06-30.1,3.37,1.01,6.88,1.69,10.06,3.15,24.05,10.99,27.64,33.15,7.7,50.42-9.68,8.4-20.52,18.11-34.51,12.28-16.3-6.79-18.73-22.71-20.29-35.75h-.02Z" style="fill: #e2ff66;"/>
        <path d="m1415,1732.56c-1.64,9.93-8.14,16.77-17.9,14.48-15.9-3.74-31.9-8.27-46.75-14.95-13.28-5.97-14.88-18.09-5.06-28.96,7.57-8.37,16.27-15.86,25.2-22.8,7.79-6.05,20.02-4.26,24.64,4.84,7.73,15.23,13.35,31.54,19.86,47.41l.02-.02Z" style="fill: #e2ff66;"/>
        <path d="m2120.42,1269.51c8,1.17,20.87-1.29,22.48,12.6,2.14,18.47-.45,36.05-13.94,41.5-19.13,7.73-37.46,10.19-54.37-5.78-5.86-5.52-7.09-10.65-3.88-17.55,7.36-15.82,30.96-30.99,49.72-30.79l-.02.02Z" style="fill: #e2ff66;"/>
        <path d="m1927.23,1623.75c-1.34,16.65-11.32,29.7-27.32,28.87-13.09-.67-26.33-6-38.53-11.46-2.83-1.26-4.41-13.17-1.85-17.16,7.68-12.01,16.67-23.66,27.1-33.32,10.43-9.66,28.33-4.09,34.12,9.6,3.15,7.41,4.38,15.63,6.47,23.49h.02Z" style="fill: #e2ff66;"/>
        <path d="m1244.21,1156.81c20.2-2.32,34.11,6.82,43.35,23.76,6.75,12.37,3.23,21.94-9.42,27.54-19.03,8.45-36.72,4.85-53.11-6.5-11.99-8.32-15.06-30.88-4.3-40.53,5.44-4.89,15.23-4.92,23.04-7.15.14.96.27,1.9.42,2.86l.02.02Z" style="fill: #e2ff66;"/>
        <path d="m2062.33,1249.62c-.57,23.46-23.87,43.13-47.6,40.29-8.94-1.07-15.38-5.33-18.59-13.89-3.46-9.23-4.33-18.47,2.51-26.57,12.81-15.15,29.6-22.8,49.16-23.76,11.51-.56,14.95,5.7,14.51,23.94h0Z" style="fill: #e2ff66;"/>
        <path d="m2012.24,1035.83c-4.15-3.03-12.79-7.12-18.17-13.84-6.18-7.74.24-15.47,5.09-22.21,1.6-2.22,3.46-4.26,5.25-6.35,20.49-24,27.59-24.65,52.93-6,9.17,6.75,10,14.71,4.47,23.5-10.22,16.25-25.8,23.31-49.56,24.92l-.02-.02Z" style="fill: #e2ff66;"/>
        <path d="m781.72,1025.87c4.09-7.3,6.43-18.01,12.63-21.16,12.25-6.23,26.39-4.23,37.56,4.95,5.29,4.34,9.44,10.55,12.77,16.65,8.38,15.36-.22,30.23-17.64,29.87-8.86-.18-17.9-2.2-26.43-4.82-11.29-3.46-17.95-11.13-15.7-24.25-1.07-.42-2.14-.81-3.21-1.23l.02-.02Z" style="fill: #e2ff66;"/>
        <path d="m2172.55,1591.89c1.82.3,6.23.48,10.25,1.8,9.29,3.07,19.03,8.19,18.71,18.54-.22,7.42-6.21,15.04-10.75,21.83-2.2,3.29-6.75,5.33-10.62,7.12-9.92,4.6-20.2,10.33-30.77,2.19-9.05-6.96-13.32-21.49-9.93-30.55,5.3-14.13,15.15-20.89,33.1-20.93Z" style="fill: #e2ff66;"/>
        <path d="m780.01,1246.28c9.48,3.45,17.8,5.72,25.39,9.47,7.04,3.5,14.47,8.4,10.62,18.19-3.59,9.17-12.15,13.36-20.98,11.75-14.55-2.65-28.92-6.88-42.82-11.93-3.88-1.41-7.36-7.71-8.35-12.33-1.07-5.06.91-10.78,1.66-16.19,1.39-10.11,5.8-17.28,17.37-16.32,10.73.88,17.87,5.72,17.12,17.36h0Z" style="fill: #e2ff66;"/>
        <path d="m945.35,1191.72c.72,17.4-6.47,30.88-18.38,42.09-10.59,9.96-23.33,11.08-36.02,5.94-4.6-1.85-9.26-7.47-10.49-12.25-.77-2.99,3.99-9.13,7.74-11.19,12.81-7.04,22.87-15.04,25.9-30.83,2-10.44,11.74-11.27,20.95-9.71,9.48,1.63,11.75,7.98,10.3,15.95h0Z" style="fill: #e2ff66;"/>
        <path d="m1440.16,1487c-1.28-7.63,2.48-14.08,10.47-16.3,7.23-2,15.47-3.59,22.61-2.12,16.85,3.46,27.26,14.58,26.55,25.5-.65,10.35-13.49,21.59-28.25,24.77-18.35,3.94-30.77-8.24-31.38-31.84h-.02Z" style="fill: #e2ff66;"/>
        <path d="m771.13,1441.62c19.32,1.31,33.1,6.91,43.97,18.83,6.67,7.3,10.03,15.33,3.1,24.19-5.86,7.49-18.27,8.48-26.41.94-6.69-6.2-12.74-7.74-21.86-6.77-5.96.64-16.25-3.96-18.01-8.67-2.12-5.68,1.12-15.11,5.08-20.77,3.23-4.61,10.94-6.12,14.15-7.73l-.02-.02Z" style="fill: #e2ff66;"/>
        <path d="m878.45,962.97c13.17.43,25,6.16,34.47,17.21,6.47,7.55,6.16,14.53-.19,21.94-9.72,11.34-26.15,15.2-39.42,8.97-12.34-5.8-19.37-18.19-17.2-30.31,2.12-11.82,9.01-17.64,22.34-17.82Z" style="fill: #e2ff66;"/>
        <path d="m878.21,1211.21c-17.77.08-30.66-18.94-26.57-33.48,5.19-18.47,32.4-29.68,49.04-20.21,10.31,5.88,11,12.57,3.59,21.7-5.4,6.66-8.91,14.83-14.26,21.54-3.83,4.81-9.31,8.3-11.8,10.44v.02Z" style="fill: #e2ff66;"/>
        <path d="m1475.21,940.68c-9.87-2.83-24.46-1.17-29.59-15.79-2.24-6.35-3.77-16.48-.4-20.42,4.53-5.3,14.04-8.27,21.56-8.59,9.1-.38,18.43,2.83,27.54,4.9,9.56,2.17,12.63,8.18,9.52,17.55-4.77,14.39-14.31,22.48-28.66,22.37l.03-.02Z" style="fill: #e2ff66;"/>
        <path d="m1093.48,1388.69c-16.27.1-34.46-15.73-35.97-31.66-.88-9.31,4.74-14.53,12.69-17.56,14.5-5.54,37.91,5.22,43.37,19.75,6.26,16.64-2.43,29.36-20.1,29.48h.02Z" style="fill: #e2ff66;"/>
        <path d="m835.41,1208.23c10.67-1.36,17.74,6.99,21.89,15.15,4.98,9.8,6.98,21.44,8.41,32.54.42,3.24-5,9.74-8.59,10.44-5.84,1.15-15.68.97-18.03-2.54-8.53-12.76-15.79-26.68-21.22-41.04-3.16-8.38,5.03-14.58,17.53-14.56h0Z" style="fill: #e2ff66;"/>
      </g>
    </g>
    <g>
      <path d="m1930.18,1326.49s5.08,48,6.78,77.36" style="fill: #c2ffeb; stroke: #000; stroke-linecap: round; stroke-miterlimit: 10; stroke-width: 13px;"/>
      <path id="vest-outline-2" d="m2091.13,1121.51s-116.15-74.77-190.97-106.02c-38.6,20.27-93.99,43.65-167.06,61-31.19,33.11-76.3,62.79-139.3,67.04-69.49,4.68-126.89-18.7-168.59-45.27-183.91-16.4-324.05-83.09-382.64-115.43-44.17,12.83-166.88,53.55-284.7,187.8,0,0-44.05,0-27.11,35.58,3.66,7.69,57.77,13.18,250.73,203.29,0,0,40.18,14.44,37.27-16.94,0,0,49.09-33.46,57.6-5.08,1.76,5.87,3.46,16.82,5.2,30.92,5.36,21.6,9.2,87.67,4.12,141.04-.08.87,5.81,19.15,5.33,19.72-2.51,13.41-2.63,28.16,7.41,28.6.56.02,1.11,0,1.66-.04,0,0,454.93,76.86,830.68-30.49,31.62-9.04,4.83-38.57,8.75-72,4.8-40.94-2.54-101.36-2.54-101.36l10.73,3.95s49.13,31.62,58.73,23.72,49.13-211.2,120.28-281.22c0,0,6.78-33.88-35.58-28.8h0Z" style="fill: none; stroke: #000; stroke-miterlimit: 10; stroke-width: 13px;"/>
    </g>
    <g style="opacity: .2;">
      <path d="m1124.35,1344.56c-65.51-58.73-187.48,15.81-187.48,15.81l4.29,10.14c12.71,12.05,26.14,25.02,40.32,38.99,0,0,40.18,14.44,37.27-16.94,0,0,49.09-33.46,57.6-5.08,1.76,5.87,3.46,16.82,5.2,30.92,5.36,21.6,9.2,87.67,4.12,141.04-.08.87,5.81,19.15,5.33,19.72-2.51,13.41-2.63,28.16,7.41,28.6.56.02,1.11,0,1.66-.04,0,0,26.48,4.47,71.92,9.75,1.8-24.95,13.6-218.01-47.64-272.91h0Z" style="fill: #0c0c0c;"/>
      <path d="m1935.27,1342.31l6.33,63.26,6.1,2.25s49.13,31.62,58.73,23.72c3.52-2.9,11.07-32.09,22.73-71.34-9.42-1.78-83.31-15.77-93.88-17.88h0Z" style="fill: #0c0c0c;"/>
      <path d="m1610,1150.31c144.89-22.29,188.77-70.39,202.05-96.84-23.55,8.25-49.85,16.12-78.95,23.03-31.19,33.11-76.3,62.79-139.3,67.04-69.49,4.68-126.89-18.7-168.59-45.27-57.74-5.15-111.17-15.26-159.11-27.7l-10.73.69s149.08,110.68,354.63,79.06h0Z" style="fill: #0c0c0c;"/>
    </g>
    <g id="clothing-shoes">
      <g>
        <g>
          <g>
            <g>
              <path d="m2048.65,1976.98l-.15.37c-4.39-1.73-8.69-3.26-12.83-4.51,0,0-99.12-62.33-117.17-83.1-18.06-20.77-20.22-34.68-34.87-51.06-.37-.41-.73-.82-1.1-1.22-2.27-8.37-9.4-20.81,9.83-16.86,29.11,5.98,58.64,62.15,58.64,62.15,0,0,92.4,61.97,97.65,94.23h0Z" style="fill: #e2ff66;"/>
              <path d="m2174.12,2062.23c-.27,4.46-4.09,38.06-59.23,48.77-103,20-141-19-200-26s-59,24-132,33-269-39-269-39l-3.03.52c-3.91-17.77-5.65-35.24-5.53-49.97.27-33.51,20.28-111.08,20.28-111.08-27.53-49.57,14.87-64.03,14.87-64.03,38.46,48.19,128.88,24.73,128.88,24.73,26.59-77.73,95.84-25.84,95.84-25.84,0,0,129.59,124.71,156.69,139.67,0,0,34,34,102,29s36.42-38.67,36.42-38.67l.36-.8c35.76,16.26,72.76,41.5,72.76,41.5,22.1,9.84,34.46,23.48,40.69,38.2h0Z" style="fill: #e2ff66;"/>
            </g>
            <path d="m2174.12,2062.23c8.55,20.21,5.54,42.46.37,59.73-6.11,11.87-37.59,56.36-170.52,68.34-153.84,13.88-206.85-20.56-292.09-45.24-.68-.2-1.37-.4-2.06-.59-82.52-23.74-187.59-43.64-193.55-44.76-2.13-6.68-3.92-13.46-5.41-20.19l3.03-.52s196,48,269,39,73-40,132-33,97,46,200,26c55.14-10.71,58.96-44.31,59.23-48.77Z" style="fill: #e2ff66;"/>
            <path d="m2174.49,2121.96c-5.23,17.45-12.7,29.81-12.7,29.81,0,0-17.2,57.39-164.98,71.1-147.78,13.72-198.75-20.75-280.66-45.53-75.25-22.76-171.09-42.18-186.18-45.18-5.58-10.12-10.12-21.14-13.7-32.45,5.96,1.12,111.03,21.02,193.55,44.76.69.19,1.38.39,2.06.59,85.24,24.68,138.25,59.12,292.09,45.24,132.93-11.98,164.41-56.47,170.52-68.34h0Z" style="fill: #fff;"/>
            <path d="m1882.53,1837.46c.37.4.73.81,1.1,1.22,14.65,16.38,16.81,30.29,34.87,51.06,18.05,20.77,117.17,83.1,117.17,83.1,4.14,1.25,8.44,2.78,12.83,4.51,4,1.58,8.08,3.32,12.17,5.18l-.36.8s31.58,33.67-36.42,38.67-102-29-102-29c-27.1-14.96-156.69-139.67-156.69-139.67-13.61-18.65,10.9-31.86,45.88-36.08,30.81-3.72,53.38,1.9,67.13,15.69,1.49,1.47,2.92,2.98,4.32,4.52Z" style="fill: #e2ff66;"/>
          </g>
          <g>
            <path d="m2161.79,2151.77s7.47-12.36,12.7-29.81c5.17-17.27,8.18-39.52-.37-59.73-6.23-14.72-18.59-28.36-40.69-38.2,0,0-37-25.24-72.76-41.5-4.09-1.86-8.17-3.6-12.17-5.18-4.39-1.73-8.69-3.26-12.83-4.51,0,0-99.12-62.33-117.17-83.1-18.06-20.77-20.22-34.68-34.87-51.06-.37-.41-.73-.82-1.1-1.22-1.4-1.54-2.83-3.05-4.32-4.52-13.75-13.79-36.32-19.41-67.13-15.69-34.98,4.22-59.49,17.43-45.88,36.08,0,0-69.25-51.89-95.84,25.84,0,0-90.42,23.46-128.88-24.73,0,0-42.4,14.46-14.87,64.03,0,0-20.01,77.57-20.28,111.08-.12,14.73,1.62,32.2,5.53,49.97,1.49,6.73,3.28,13.51,5.41,20.19,3.58,11.31,8.12,22.33,13.7,32.45" style="fill: none; stroke: #000; stroke-linecap: round; stroke-linejoin: round; stroke-width: 13.37px;"/>
            <path d="m1882.89,1839c-.1-.49-.22-1.01-.36-1.54-2.27-8.37-9.4-20.81,9.83-16.86,29.11,5.98,58.64,62.15,58.64,62.15,0,0,92.4,61.97,97.65,94.23" style="fill: none; stroke: #000; stroke-linecap: round; stroke-linejoin: round; stroke-width: 13.37px;"/>
            <path d="m1527.93,2131.75s.7.14,2.04.41c15.09,3,110.93,22.42,186.18,45.18,81.91,24.78,132.88,59.25,280.66,45.53,147.78-13.71,164.98-71.1,164.98-71.1" style="fill: none; stroke: #000; stroke-linecap: round; stroke-linejoin: round; stroke-width: 13.37px;"/>
            <path d="m1516,2099.66s.09.02.27.05c5.96,1.12,111.03,21.02,193.55,44.76.69.19,1.38.39,2.06.59,85.24,24.68,138.25,59.12,292.09,45.24,132.93-11.98,164.41-56.47,170.52-68.34.96-1.87,1.29-2.93,1.29-2.93" style="fill: none; stroke: #000; stroke-linecap: round; stroke-linejoin: round; stroke-width: 13.37px;"/>
            <path d="m1765.2,1853.33s129.59,124.71,156.69,139.67c0,0,34,34,102,29s36.42-38.67,36.42-38.67" style="fill: none; stroke: #000; stroke-linecap: round; stroke-linejoin: round; stroke-width: 13.37px;"/>
            <path d="m1524.89,1911s78,42,163,10" style="fill: none; stroke: #000; stroke-linecap: round; stroke-linejoin: round; stroke-width: 13.37px;"/>
            <path d="m1513.89,2079s196,48,269,39,73-40,132-33,97,46,200,26c55.14-10.71,58.96-44.31,59.23-48.77.02-.32.02-.49.02-.49" style="fill: none; stroke: #000; stroke-linecap: round; stroke-linejoin: round; stroke-width: 13.37px;"/>
          </g>
        </g>
        <g>
          <path d="m1843.96,1971.4c-2.56,0-4.99-.84-7.02-2.42-4.98-3.88-5.88-11.1-2.01-16.1,5.43-6.99,18.25-19.07,38.13-35.94-38.76,2.54-70.35,9.81-70.68,9.88-.85.2-1.72.3-2.59.3-4.28,0-8.17-2.36-10.15-6.17-2.41-4.64-1.39-10.33,2.49-13.83,12.86-11.6,25.69-22.27,38.2-31.77-1.47-.02-2.95-.04-4.45-.06-4.11-.05-8.38-.07-12.7-.07-40.75,0-76.89,2.12-78.41,2.21-.25.01-.49.02-.72.02-6.03,0-11.04-4.74-11.41-10.78-.19-3.06.83-6.01,2.86-8.3s4.82-3.66,7.88-3.84c.36-.02,37.2-2.25,79.69-2.25,4.41,0,8.77.02,12.97.07,12.95.15,24.99.52,35.82,1.11,23.73-14.85,37.4-19.5,38.89-19.99,1.15-.37,2.34-.56,3.53-.56,4.98,0,9.35,3.19,10.89,7.93,1.94,6-1.35,12.48-7.33,14.44-.1.03-1.95.67-5.33,2.16,28.1,4.49,37.11,11.15,41.45,15.89,2.16,2.36,3.24,5.54,2.97,8.73s-1.87,6.14-4.4,8.1c-1.95,1.52-4.22,3.29-6.73,5.26,14.79,1.95,28.02,5.15,39.37,9.51,5.89,2.26,8.85,8.91,6.59,14.82-1.69,4.41-5.98,7.37-10.69,7.37-1.4,0-2.78-.26-4.09-.76-15.2-5.84-34.46-9.23-57.23-10.07-30.56,24.89-50.7,42.87-56.75,50.67-2.18,2.81-5.48,4.43-9.04,4.43h0Zm23.99-94.57c-9.16,6.01-18.65,12.81-28.26,20.28,20.34-2.65,39.81-4,57.96-4,1.42,0,2.85,0,4.28.03,4.08-3.29,8.22-6.6,12.33-9.87-5.8-1.58-13.06-2.94-21.64-4.08-7.24-.96-15.53-1.75-24.66-2.36h0Z" style="fill: #fff; stroke: #000; stroke-linecap: round; stroke-linejoin: round; stroke-width: 9.55px;"/>
          <path d="m1864.45,1986.51c-3.48,0-6.73-1.55-8.91-4.26-3.96-4.91-3.2-12.14,1.68-16.11,1.93-1.57,47.94-38.34,116.3-38.34,10.17,0,20.47.82,30.61,2.45,3.02.48,5.67,2.12,7.46,4.6,1.79,2.48,2.51,5.51,2.03,8.54-.89,5.6-5.64,9.66-11.28,9.66h0c-.61,0-1.23-.05-1.84-.15-8.73-1.4-17.65-2.11-26.51-2.11-27.97,0-51.31,7.08-65.96,13.02-22.63,9.18-36.28,20.05-36.42,20.16-2.03,1.64-4.58,2.54-7.18,2.54h.02Z" style="fill: #fff; stroke: #000; stroke-linecap: round; stroke-linejoin: round; stroke-width: 9.55px;"/>
        </g>
        <path d="m1555.8,1873.71s-14.54-24.29-27.47-11.34c-12.93,12.96-17.78,53.45,12.93,63.16,0,0-25.85-4.86-24.24,43.73,0,0,27.47,74.5,46.86,100.42,19.39,25.91,16.78,76.13,16.78,76.13,0,0,101.8,17.82,171.29,43.73,69.48,25.91,197.14,59.93,308.64,22.67,111.5-37.25,106.65-64.78,106.65-64.78,0,0-5.46,6.47,2.62-9.73s11.31-40.49,9.7-55.07c0,0-116.35,80.98-355.5,29.15-239.16-51.83-263.4-95.56-261.78-152.24,1.62-56.69-6.46-85.84-6.46-85.84h-.02Z" style="isolation: isolate; opacity: .2;"/>
      </g>
      <g>
        <g>
          <g>
            <g>
              <path d="m1107.52,1906.82c1.08-9.84.61-19.93-2.06-30.22-6.47-24.84,19.39-29.15,19.39-29.15-3.23,15.12,38.79,37.79,38.79,37.79,16.16-22.67,45.24-23.75,65.71-22.67s24.78,29.36,24.78,29.36c-2.16,11.02,30.18,120.46,59.26,162.57,0,0,27.48,35,87,35,89,0,75-58,75-58-1-15-19.81-147.6-19.81-147.6-3.61-5.95-6.92-11.28-11.19-15.88l4.72-.05,20.47-23.76c15.08,3.24,23.7,23.76,23.7,33.47,0,1.62-.24,6.02-.35,12.41-.52,32.13,2.28,114.43,55.29,144.15,7.24,4.06,13.45,8.77,18.76,13.92,27.05,26.22,30.96,63.96,30.43,86.92l-3.52-.08s-8-28-33-22-22,74-132,79c-129.11,5.87-133-43-180-55-45.17-11.53-68,2-95-2s-61.16-58.58-61.16-58.58l-2.82.77c-4.98-18.15-6-29.99-6-29.99-12.92-23.75,2.16-78.82,11.85-100.42,5.69-12.65,10.26-26.05,11.76-39.96Z" style="fill: #e2ff66;"/>
              <path d="m1568.69,2048.01l-1.71.15c-5.31-5.15-11.52-9.86-18.76-13.92-53.01-29.72-55.81-112.02-55.29-144.15h.62c1.62,2.36,68.68,127.29,75.14,157.92Z" style="fill: #e2ff66;"/>
            </g>
            <path d="m1597.83,2163.8h-.05s21.61,131.7-213.31,131.74c-300.61.05-303.79-187.88-303.79-187.88,0,0,0-57.22,3.23-60.46,0,0,1.02,11.84,6,29.99,17.42,63.63,83.33,204.78,323.48,184.31,129-11,172.79-61.82,182.43-105.71.36,1.16,1.17,3.95,2.01,8.01h0Z" style="fill: #fff;"/>
            <path d="m1593.89,2135l3.52.08c-.27,12.11-1.79,20.1-1.79,20.1,0,0,.07.21.2.61-9.64,43.89-53.43,94.71-182.43,105.71-240.15,20.47-306.06-120.68-323.48-184.31l2.82-.77s34.16,54.58,61.16,58.58,49.83-9.53,95,2c47,12,50.89,60.87,180,55,110-5,107-73,132-79s33,22,33,22h0Z" style="fill: #e2ff66;"/>
            <path d="m1400.39,2090.5c-59.32,0-87.51-35.03-87.79-35.38-28.65-41.48-61.8-151.41-59.45-163.38l.03-.13.06-.12c.23-.45,5.71-11.13,21.01-22.03,14.05-10.01,39.39-22.04,80.32-22.46,2.21-.02,4.37-.04,6.47-.04,54.36,0,72.47,7.8,84.08,20.39,4.22,4.55,7.48,9.73,11.31,16.04l.11.17.03.2c.19,1.32,18.76,132.33,19.81,147.59.37,1.59,4.24,19.99-8.41,36.06-12.06,15.32-34.8,23.09-67.58,23.09h0Z" style="fill: #e2ff66;"/>
          </g>
          <g>
            <line x1="1597.83" y1="2163.8" x2="1597.78" y2="2163.81" style="fill: none; stroke: #000; stroke-linecap: round; stroke-linejoin: round; stroke-width: 13.37px;"/>
            <line x1="1449.11" y1="1867.97" x2="1444.39" y2="1868.02" style="fill: none; stroke: #000; stroke-linecap: round; stroke-linejoin: round; stroke-width: 13.37px;"/>
            <line x1="1107.52" y1="1906.82" x2="1107.62" y2="1906.83" style="fill: none; stroke: #000; stroke-linecap: round; stroke-linejoin: round; stroke-width: 13.37px;"/>
            <line x1="1183.59" y1="1931.92" x2="1181.95" y2="1932.75" style="fill: none; stroke: #000; stroke-linecap: round; stroke-linejoin: round; stroke-width: 13.37px;"/>
            <path d="m1254.13,1891.93s21.71-43.12,100.45-43.94c57.54-.61,77.58,6.77,89.81,20.03" style="fill: none; stroke: #000; stroke-linecap: round; stroke-linejoin: round; stroke-width: 13.37px;"/>
            <path d="m1444.39,1868.02c4.27,4.6,7.58,9.93,11.19,15.88,0,0,18.81,132.6,19.81,147.6,0,0,14,58-75,58-59.52,0-87-35-87-35-29.08-42.11-61.42-151.55-59.26-162.57" style="fill: none; stroke: #000; stroke-linecap: round; stroke-linejoin: round; stroke-width: 13.37px;"/>
            <path d="m1595.82,2155.79c.36,1.16,1.17,3.95,2.01,8.01" style="fill: none; stroke: #000; stroke-linecap: round; stroke-linejoin: round; stroke-width: 13.37px;"/>
            <path d="m1083.91,2047.2c-3.23,3.24-3.23,60.46-3.23,60.46" style="fill: none; stroke: #000; stroke-linecap: round; stroke-linejoin: round; stroke-width: 13.37px;"/>
            <path d="m1107.52,1906.82c-1.5,13.91-6.07,27.31-11.76,39.96-9.69,21.6-24.77,76.67-11.85,100.42" style="fill: none; stroke: #000; stroke-linecap: round; stroke-linejoin: round; stroke-width: 13.37px;"/>
            <path d="m1595.82,2155.79c-.13-.4-.2-.61-.2-.61,0,0,1.52-7.99,1.79-20.1.53-22.96-3.38-60.7-30.43-86.92-5.31-5.15-11.52-9.86-18.76-13.92-53.01-29.72-55.81-112.02-55.29-144.15.11-6.39.35-10.79.35-12.41,0-9.71-8.62-30.23-23.7-33.47l-20.47,23.76" style="fill: none; stroke: #000; stroke-linecap: round; stroke-linejoin: round; stroke-width: 13.37px;"/>
            <path d="m1163.64,1885.24c16.16-22.67,45.24-23.75,65.71-22.67s24.78,29.36,24.78,29.36" style="fill: none; stroke: #000; stroke-linecap: round; stroke-linejoin: round; stroke-width: 13.37px;"/>
            <path d="m1107.52,1906.82c1.08-9.84.61-19.93-2.06-30.22-6.47-24.84,19.39-29.15,19.39-29.15-3.23,15.12,38.79,37.79,38.79,37.79" style="fill: none; stroke: #000; stroke-linecap: round; stroke-linejoin: round; stroke-width: 13.37px;"/>
            <path d="m1597.78,2143.29c-.38,4.04-1.02,8.21-1.96,12.5" style="fill: none; stroke: #000; stroke-linecap: round; stroke-linejoin: round; stroke-width: .48px;"/>
            <path d="m1595.82,2155.79c-9.64,43.89-53.43,94.71-182.43,105.71-240.15,20.47-306.06-120.68-323.48-184.31-4.98-18.15-6-29.99-6-29.99" style="fill: none; stroke: #000; stroke-linecap: round; stroke-linejoin: round; stroke-width: 13.37px;"/>
            <path d="m1080.68,2107.66s3.18,187.93,303.79,187.88c234.92-.04,213.31-131.73,213.31-131.73" style="fill: none; stroke: #000; stroke-linecap: round; stroke-linejoin: round; stroke-width: 13.37px;"/>
            <path d="m1181.95,1932.75c-44.17,6.48-74.33-25.92-74.33-25.92" style="fill: none; stroke: #000; stroke-linecap: round; stroke-linejoin: round; stroke-width: 13.37px;"/>
            <path d="m1493.55,1890.1c1.62,2.35,68.68,127.28,75.14,157.91" style="fill: none; stroke: #000; stroke-linecap: round; stroke-linejoin: round; stroke-width: 13.37px;"/>
            <path d="m1092.73,2076.42s34.16,54.58,61.16,58.58,49.83-9.53,95,2c47,12,50.89,60.87,180,55,110-5,107-73,132-79s33,22,33,22" style="fill: none; stroke: #000; stroke-linecap: round; stroke-linejoin: round; stroke-width: 13.37px;"/>
          </g>
        </g>
        <g>
          <path d="m1270.34,1999.32c-3.7,0-7.17-1.18-9.77-3.32-2.83-2.33-4.3-5.47-4.16-8.86.15-3.41,2.01-6.58,5.1-8.7,6.5-4.44,17.01-9.27,31.34-14.4-19.97-.64-35.44-.73-42.02-.73-2.9,0-4.54.01-4.69.02h-.21c-5.46,0-10.42-2.68-12.65-6.82-2.61-4.85-1.08-10.59,3.71-13.95,10.09-7.08,29.35-15.37,57.34-24.68-45.3-4.59-78.92-7.87-79.55-7.92-4.24-.34-8-2.24-10.31-5.21-1.8-2.32-2.57-5.13-2.17-7.91.84-5.88,6.78-10.31,13.81-10.31.45,0,.91.02,1.37.06,1.82.15,52.83,4.93,113.5,11.42,7.45.8,14.77,1.6,21.77,2.4,48.44-13.3,93.8-23.44,95.71-23.87,1.18-.27,2.41-.4,3.64-.4,6,0,11.31,3.19,13.2,7.95,1.11,2.79.96,5.82-.42,8.51-1.68,3.29-5.02,5.71-9.15,6.63-5.93,1.32-20.14,4.55-39.53,9.32,14.61,2.18,26.79,4.29,36.35,6.31,2.01-.89,4.26-1.36,6.55-1.36,1.29,0,2.58.15,3.83.44,1.57.37,3.13.75,4.69,1.13.67.17,1.34.37,1.96.62,7.93,3.09,13.17,8.47,14.36,14.78l.07.36c.03.15.04.3.05.45.05.43.07.87.07,1.3v.34c-.03.61-.11,1.2-.23,1.76l-.08.32c-.09.37-.24.85-.44,1.34-.07.17-.11.27-.16.37-.23.52-.49.99-.78,1.44l-.17.24c-.21.31-.51.7-.82,1.06l-.24.27c-.42.46-.8.82-1.2,1.15l-.2.16c-.28.23-.7.53-1.15.82l-.27.17c-.94.57-1.93,1.02-2.98,1.37l-.37.12c-.42.13-.8.23-1.2.32l-.43.1c-5.35,1.01-22.17,4.22-44.89,9.1,21.94,4.02,40.08,8.9,54.05,14.55,3.77,1.52,6.49,4.38,7.45,7.84.86,3.07.27,6.23-1.65,8.89-2.48,3.45-7.05,5.6-11.92,5.6-2.1,0-4.21-.4-6.1-1.17-22.83-9.23-58.89-16.12-107.21-20.5-55.69,14.16-76.43,23.31-84.02,28.49-2.47,1.69-5.6,2.61-8.82,2.61l.04-.02Zm31.17-58.55c20.59.77,40.75,1.97,59.08,3.54,16.22-4.06,33.94-8.18,52.87-12.31-16.08-2.43-35.49-4.97-57.97-7.58-20.86,5.81-38.95,11.29-53.98,16.34h0Z" style="fill: #fff; stroke: #000; stroke-linecap: round; stroke-linejoin: round; stroke-width: 9.55px;"/>
          <path d="m1281.35,2028.23c-6.68,0-12.43-3.99-13.67-9.5-.63-2.8-.07-5.69,1.59-8.14,2.1-3.1,5.74-5.18,9.97-5.72,3.76-.48,92.81-11.68,157.86-11.68,6.11,0,11.74-.15,17.18-.29,4.65-.12,9.05-.24,13.13-.24,6.77,0,11.66.32,15.84,1.04,4.2.72,7.7,2.96,9.61,6.16,1.53,2.57,1.9,5.52,1.05,8.33-1.57,5.16-7.12,8.76-13.48,8.76-.95,0-1.91-.08-2.84-.24-2.93-.5-6.47-.73-11.16-.73-3.68,0-7.77.14-12.1.29-5.07.18-10.83.38-16.93.38-63.48,0-153.03,11.33-153.93,11.44-.72.09-1.43.13-2.13.13h.01Z" style="fill: #fff; stroke: #000; stroke-linecap: round; stroke-linejoin: round; stroke-width: 9.55px;"/>
        </g>
        <path d="m1148.55,1883.62s-33.93,14.58-24.24,38.87c-1.62,8.1-45.25,97.18-21.01,183.02s195.53,110.13,290.87,110.13,174.51-27.37,189.06-70.37c0,0,28.4,37.74,4.16,78.23s-94,79-271,67c-196.39-13.31-226.01-131.55-230.86-144.5s-8.08-66.4-4.85-80.98-9.7-50.21,3.23-82.6c12.93-32.39,19.39-45.35,22.62-64.78,3.23-19.44-9.7-55.07,0-59.93,9.7-4.86,25.85,4.86,25.85,4.86l16.16,21.05h0Z" style="isolation: isolate; opacity: .2;"/>
      </g>
    </g>
  </g>
</svg>