<?xml version="1.0" encoding="UTF-8"?>
<svg id="CLOTHING" xmlns="http://www.w3.org/2000/svg" viewBox="0 0 3000 3000">
  <g id="American-Football-Blue-and-Gold">
    <circle cx="1500" cy="1500" r="1200" style="fill: #4c6164;"/>
    <g>
      <path d="m1128.54,1791.31l-2,65s203.67,92.01,345.84-13.49c.16-19.51,13.16-183.51,36.16-212.51s-390.8,31.8-390.8,31.8l10.8,129.2Z" style="fill: #1c59d3; stroke: #000; stroke-linecap: round; stroke-miterlimit: 10; stroke-width: 13px;"/>
      <path d="m1549.54,1660.31c3,6-19,165-14,176s254.88,76.25,347.94-27.38c0,0,6.06-182.62,13.06-205.62s-347,57-347,57Z" style="fill: #1c59d3; stroke: #000; stroke-linecap: round; stroke-miterlimit: 10; stroke-width: 13px;"/>
    </g>
    <g>
      <path d="m1928.66,1494.96s-210.02-19.18-766.9,22.18c-14.49,1.07-29.22,2.18-44.19,3.34-6.67.52-13.39,1.05-20.16,1.58,0,0,6.53,195.76,22.33,221,0,0-13.28,15.93,2.26,22.59,2.11.9,8.26,1.65,17.6,2.22,7.28.44,16.51.76,27.26.96,77.06,1.43,233.52,8.28,315.55-8.89,0,0,15.91-18.57,4.52-27.1,0,0,16.67-72.93,35.14-70.73s18.07,65.51,18.07,65.51c0,0-14.6,15.69-2.6,22.69s264.4,15.54,348.2-31.73c0,0,15.75-20.46,6.78-29.36-8.98-8.91,50.26-162.62,36.14-194.26Z" style="fill: #f4ce0f;"/>
      <g>
        <path d="m1141.39,1738.22c-.08-.57-.22-1.11-.41-1.63l-5.9-23.38c-7.29-52.7-13.95-185.38-14.32-190.43l-3.01-.15,2.83-2.15c-6.67.52-16.39,1.05-23.16,1.58,0,0,6.53,195.76,22.33,221,0,0-13.28,15.93,2.26,22.59,2.11.9,8.26,1.65,17.6,2.22l2.44-4.06c-3.36-2.35-1.44-17.83,0-23l-.65-2.59h0Z" style="fill: #fff;"/>
        <path d="m1117.57,1520.48c14.97-1.16,29.7-2.27,44.19-3.34l.03.41c-.02.6.03,2.89.13,6.58v.21l4.58,225.46c-2.93,4.98-5.45,12.43.37,18.47v.56c-10.76-.2-19.99-.52-27.27-.96l.17-2.98-1.11-12.24c1.88-6.79,4.86-14.36.88-18.34-1.28-1.28-2.81-9.12-4.47-21.1l-17.32-190.43v-.15l-.18-2.15Z" style="fill: #1c59d3;"/>
      </g>
      <g>
        <path d="m1117.57,1520.48c-6.67.52-13.39,1.05-20.16,1.58,0,0,6.53,195.76,22.33,221,0,0-13.28,15.93,2.26,22.59,2.11.9,8.26,1.65,17.6,2.22,7.28.44,16.51.76,27.26.96,77.06,1.43,233.52,8.28,315.55-8.89,0,0,15.91-18.57,4.52-27.1,0,0,16.67-72.93,35.14-70.73s18.07,65.51,18.07,65.51c0,0-14.6,15.69-2.6,22.69s264.4,15.54,348.2-31.73c0,0,15.75-20.46,6.78-29.36-8.98-8.91,50.26-162.62,36.14-194.26,0,0-210.02-19.18-766.9,22.18-14.49,1.07-29.22,2.18-44.19,3.34Z" style="fill: none; stroke: #000; stroke-linecap: round; stroke-miterlimit: 10; stroke-width: 13px;"/>
        <line x1="1117.75" y1="1522.78" x2="1117.74" y2="1522.63" style="fill: none; stroke: #000; stroke-miterlimit: 10; stroke-width: 13px;"/>
        <path d="m1161.79,1517.55c-.02.6.03,2.89.13,6.58" style="fill: none; stroke: #000; stroke-miterlimit: 10; stroke-width: 13px;"/>
        <line x1="1161.93" y1="1524.34" x2="1161.92" y2="1524.13" style="fill: none; stroke: #000; stroke-miterlimit: 10; stroke-width: 13px;"/>
      </g>
    </g>
    <g>
      <g>
        <path d="m2137.48,1145.09c-6.96-.7-13.85-1.57-19.18-2.65-1.78-.36-3.38-.73-4.76-1.13-.52-.15-1.03-.4-1.54-.75-.5-.34-1-.78-1.5-1.31l-.02-.02s-.07-.08-.1-.12c-.63-.69-1.25-1.52-1.87-2.48-.19-.29-.37-.59-.56-.91-.14-.24-.28-.47-.42-.73h0c-5.07-9.1-9.6-26.72-13.28-45.82-1.03-5.32-1.98-10.75-2.87-16.15-.08-.46-.15-.92-.22-1.37-.61-3.79-1.19-7.55-1.72-11.23-.85-5.82-1.6-11.45-2.24-16.69-.74-6.02-1.34-11.51-1.78-16.16-.57-6.11-.88-10.77-.88-13.25,0-16-20-38-70-34-19.96,1.6-24.53-12.68-62-5-35.04,24.51-87.5,56.72-144.45,79.32-7.41,2.94-14.89,5.72-22.43,8.29-5.02,1.72-10.06,3.35-15.12,4.87-7.58,2.29-15.19,4.36-22.81,6.16-10.52,12.26-20.92,23.43-31,33.54-.92.92-1.83,1.83-2.74,2.73-5.46,5.41-10.83,10.5-16.06,15.29-1.74,1.59-3.47,3.16-5.19,4.68-6.85,6.1-13.45,11.66-19.72,16.69-.78.63-1.56,1.25-2.33,1.86-1.55,1.22-3.07,2.41-4.57,3.57-1.5,1.16-2.98,2.28-4.44,3.37s-2.89,2.15-4.29,3.17c-1.41,1.02-2.79,2.02-4.15,2.97-1.36.96-2.69,1.88-3.99,2.78-16.28,11.17-28.3,17.28-33.73,18.71-19,5-47,11-68,0l-198.96-97.12c-6.61-1.07-13.16-2.19-19.64-3.37-3.24-.59-6.47-1.2-9.68-1.82-6.42-1.24-12.78-2.54-19.08-3.89-3.88-.83-7.72-1.69-11.55-2.57-4.75-1.08-9.47-2.2-14.15-3.34-.74-.18-1.49-.36-2.23-.54-97.88-24.17-180.11-61.56-248-103.26-15.64-2.22-28.95-3.09-38.7-2.09-68,7-163,7-189,37-10.17,11.74-13.3,30.21-13.94,49.36-.09,2.79-.13,5.6-.14,8.41-.01,14.96,1.09,29.81,1.14,41.68.01,2.97-.04,5.75-.19,8.31-.04.64-.08,1.26-.13,1.87-.4,4.87-1.23,8.78-2.75,11.37-.58.98-1.33,2.16-2.23,3.5-.3.45-.61.91-.94,1.39-7.58,11.01-23.36,31.12-37.8,49.14-7.42,9.25-14.48,17.95-19.89,24.59-3.25,3.98-5.9,7.22-7.67,9.38-.39.48-.75.91-1.05,1.28-.92,1.11-1.42,1.72-1.42,1.72,0,0-37,10-20,30s272.17,188.22,272.17,188.22c0,0,33.67,6.88,30.25-20.17-.1-.83-.15-1.65-.14-2.46.02-1.63.28-3.22.73-4.79.23-.78.5-1.55.83-2.32.33-.76.7-1.52,1.12-2.26s.88-1.47,1.38-2.19c1.01-1.44,2.18-2.83,3.49-4.17,5.11-5.22,12.36-9.64,20.28-12.84h0c1.15-.46,2.3-.9,3.47-1.31,2.34-.82,4.71-1.53,7.09-2.12,1.19-.3,2.38-.56,3.56-.8h0c13.13-2.64,25.82-1.54,32.14,5,16.63,17.21,33.63,188.21,33.63,188.21,0,0,503.69,63.74,816.85-20.13,6.77-19.83,18.27-85.98,21.97-120.42h0c.37-3.45.66-6.57.86-9.31.05-.75.1-1.47.15-2.15.11-1.92.18-3.59.18-4.99,0,0,2.15,1.07,5.68,2.69,1.04.48,2.22,1.01,3.48,1.57.31.14.63.28.96.42.58.25,1.17.51,1.78.77.78.34,1.59.68,2.43,1.03,1.25.53,2.56,1.06,3.9,1.6.77.31,1.56.62,2.35.93.26.1.52.2.78.3,3.14,1.21,6.43,2.41,9.75,3.5h0c13.18,4.34,26.68,7.01,31.9,2.18,11.48-10.62,166-281,166-281,0,0-15.69-.68-31.06-2.22h0Z" style="fill: #1c59d3;"/>
        <path d="m1071.15,1376.09s51.67-11.01,70.31,64.38,20.33,132.99,20.33,132.99l-56.75-3.39s-15.25-164.33-33.88-193.98h0Z" style="fill: #1c59d3;"/>
        <path d="m1093.82,1377.95c14.06,46.22,24.07,141.75,28.68,193.16l39.29,2.35s-1.69-57.6-20.33-132.99c-10.46-42.33-31.34-57.42-47.64-62.51h0Z" style="fill: #1c59d3;"/>
        <path d="m2137.48,1145.09c15.37,1.54,31.06,2.22,31.06,2.22,0,0-154.52,270.38-166,281-5.22,4.83-18.72,2.16-31.9-2.18l166.84-281.04h0Z" style="fill: #1c59d3;"/>
        <path d="m2110.5,1139.25c.5.53,1,.96,1.5,1.31.51.35,1.02.6,1.54.75,1.38.4,2.98.78,4.76,1.13,5.33,1.08,12.22,1.95,19.18,2.65l-166.84,281.04c-3.32-1.09-6.61-2.29-9.75-3.5-.26-.11-.52-.21-.78-.31-.79-.31-1.58-.62-2.35-.93-1.34-.54-2.65-1.08-3.9-1.6-.83-.35-1.64-.7-2.43-1.03-.61-.27-1.2-.52-1.77-.78-.33-.14-.65-.28-.96-.42-1.27-.56-2.44-1.09-3.48-1.56-3.53-1.62-5.68-2.69-5.68-2.69l168.97-276.68c.62.96,1.24,1.79,1.87,2.48.03.04.07.08.1.12.01.01.02.01.02.02h0Z" style="fill: #1c59d3;"/>
        <path d="m1940.02,1412.53l168.49-275.9c-.18-.29-.37-.6-.56-.91-.14-.24-.28-.48-.42-.73-5.07-9.1-9.6-26.72-13.28-45.82l-151.9,276.67c-.36,12.34-1.04,29.88-2.33,46.69Z" style="fill: #f4ce0f;"/>
        <path d="m2094.25,1089.17l-152.71,278.14,1-43,142.88-296.75c.44,4.65,1.04,10.14,1.78,16.16.64,5.24,1.39,10.87,2.24,16.69.53,3.69,1.11,7.45,1.72,11.23.07.46.15.92.22,1.38.89,5.4,1.84,10.83,2.87,16.15Z" style="fill: #f4ce0f;"/>
        <path d="m991.82,1409.9c0,.81.04,1.63.14,2.46,3.42,27.05-30.25,20.17-30.25,20.17,0,0-255.17-168.22-272.17-188.22s20-30,20-30l282.28,195.59Z" style="fill: #1c59d3;"/>
        <path d="m739.57,1177.34l259.8,216.83c-1.31,1.34-2.48,2.73-3.49,4.17-.5.72-.97,1.46-1.38,2.2-.42.74-.79,1.49-1.12,2.26-.32.76-.6,1.53-.83,2.31-.45,1.57-.7,3.16-.73,4.79l-282.28-195.59s.5-.61,1.42-1.72c.3-.37.65-.8,1.05-1.28,1.77-2.16,4.43-5.4,7.67-9.38,5.41-6.64,12.47-15.34,19.89-24.59h0Z" style="fill: #1c59d3;"/>
        <path d="m777.37,1128.2l242.28,253.13c-7.92,3.2-15.17,7.62-20.28,12.84l-259.8-216.83c14.44-18.02,30.22-38.13,37.8-49.14h0Z" style="fill: #f4ce0f;"/>
        <path d="m782.46,1060.08l251.31,317.02c-1.19.24-2.37.5-3.56.8-2.38.59-4.75,1.3-7.09,2.12-1.17.41-2.32.85-3.47,1.31l-242.28-253.13c.33-.48.65-.95.94-1.39.9-1.34,1.65-2.52,2.23-3.5,1.52-2.59,2.35-6.5,2.75-11.37.05-.61.09-1.23.13-1.87.15-2.55.2-5.34.19-8.31-.06-11.87-1.16-26.72-1.15-41.68h0Z" style="fill: #f4ce0f;"/>
        <path d="m1288.62,1074.54c3.83.88,7.67,1.74,11.55,2.57,6.3,1.35,12.66,2.65,19.09,3.89,3.21.62,6.43,1.23,9.68,1.82,6.48,1.18,13.03,2.3,19.64,3.37l198.96,97.12c21,11,49,5,68,0,5.42-1.43,17.44-7.54,33.73-18.71,1.3-.89,2.63-1.82,3.98-2.77,1.36-.96,2.74-1.95,4.15-2.98,1.41-1.02,2.84-2.08,4.29-3.17,1.46-1.09,2.94-2.21,4.44-3.37,1.5-1.15,3.03-2.34,4.57-3.56.78-.61,1.55-1.23,2.34-1.86,6.26-5.02,12.86-10.58,19.72-16.69,1.71-1.52,3.44-3.08,5.18-4.68,5.23-4.78,10.6-9.88,16.06-15.29.91-.9,1.83-1.81,2.74-2.73,10.08-10.11,20.48-21.28,31-33.54,7.61-1.8,15.22-3.87,22.81-6.16,5.05-1.53,10.09-3.16,15.11-4.88,7.54-2.57,15.02-5.35,22.43-8.29,0,0-107.57,115.62-131.29,137.65-23.72,22.02-38.97,32.18-52.52,33.88-13.55,1.69-60.99,10.16-96.56,0-55.91-23.72-253.25-154.96-253.25-154.96,4.68,1.14,9.4,2.26,14.15,3.34h0Z" style="fill: #1c59d3;"/>
      </g>
      <g>
        <g>
          <path d="m1681.09,1264.69l15.94,14.25,3.84,105.44-14.85,15.53-58.69,2.43-15.74-14.08-3.9-105.75,14.71-15.38,58.69-2.43h0Zm-16.91,29.51l-22.58.93,2.83,77.68,22.58-.93-2.83-77.68Z" style="fill: rgba(244, 206, 15, 0);"/>
          <path d="m1652.78,1372.47l8.32-.34,1.05,28.77-50.07,2.07-1.05-28.77,8.32-.34-2.83-77.68-8.32.34-1.05-28.77,41.72-1.73,3.9,106.45h.01Z" style="fill: rgba(244, 206, 15, 0);"/>
          <path d="m1608.73,1311.06l-1.04-28.42,14.85-15.53,58.69-2.43,15.79,14.12,1.92,52.52-14.71,15.35-35.48,1.47-5.11,4.27.74,20.41,22.63-.94-.53-14.54,33.35-1.38,1.58,43.31-89.34,3.7-2.45-67.27,14.72-15.35,35.48-1.47,5.11-4.26-.6-16.37-5.33-3.82-12.32.51-4.98,4.25.38,10.51-33.35,1.38v-.02Z" style="fill: rgba(244, 206, 15, 0);"/>
          <path d="m1698.68,1324.3l-7.35,7.67,7.89,7.04,1.66,45.5-14.71,15.38-58.69,2.43-15.94-14.25-1.04-28.42,33.35-1.38.38,10.51,5.28,3.82,12.32-.51,5.04-4.25-.6-16.37-5.4-3.83-17.38.72-1.05-28.77,17.38-.72,5.11-4.26-.6-16.38-5.33-3.82-12.32.51-4.98,4.25.38,10.51-33.35,1.38-1.04-28.42,14.85-15.53,58.69-2.43,15.79,14.12,1.66,45.5h0Z" style="fill: rgba(244, 206, 15, 0);"/>
          <path d="m1700,1360.43l-8.32.34.37,10.07,8.32-.34,1.05,28.77-50.07,2.07-1.05-28.77,8.32-.34-.37-10.07-47.59,1.97-1.05-28.77,23.58-68.69,54.96-2.28,2.47,67.61,8.33-.34,1.05,28.77h0Zm-42.79-27.04l-1.11-30.33-10.28,30.8,11.39-.47h0Z" style="fill: rgba(244, 206, 15, 0);"/>
          <path d="m1643.85,1358.28l.38,10.51,5.28,3.82,12.32-.51,5.03-4.25-.6-16.37-5.4-3.83-50.73,2.1-2.99-81.99,89.34-3.7,1.58,43.31-33.35,1.38-.53-14.54-22.63.94.89,24.45,40.73-1.69,15.79,14.09,1.92,52.52-14.71,15.38-58.69,2.43-15.94-14.25-1.04-28.42,33.35-1.38h0Z" style="fill: rgba(244, 206, 15, 0);"/>
          <path d="m1698.07,1307.36l-33.35,1.38-.38-10.51-5.28-3.82-12.32.51-5.03,4.25.74,20.41,40.59-1.68,15.94,14.25,1.9,52.22-14.85,15.53-58.69,2.43-15.79-14.12-3.85-105.71,14.71-15.38,58.69-2.43,15.94,14.25,1.04,28.42h0Zm-54.57,40.99l.74,20.42,5.33,3.82,12.32-.51,4.99-4.25-.6-16.39-5.28-3.82-17.5.72h0Z" style="fill: rgba(244, 206, 15, 0);"/>
          <path d="m1697.54,1292.82l-28.08,78.96,10.37-.43,1.05,28.77-58.41,2.42-1.05-28.77,14.61-.6,28.11-78.96-22.58.94.53,14.54-33.35,1.38-1.58-43.31,89.34-3.7,1.05,28.77h-.01Z" style="fill: rgba(244, 206, 15, 0);"/>
          <path d="m1697.02,1278.8l1.66,45.5-7.35,7.67,7.89,7.04,1.65,45.36-14.71,15.52-58.69,2.43-15.94-14.25-1.65-45.36,7.36-7.67-7.89-7.04-1.66-45.5,14.86-15.39,58.69-2.43,15.79,14.12h-.01Zm-32.1,35.81l-.6-16.37-5.33-3.82-12.27.51-5.03,4.25.6,16.37,5.4,3.83,12.12-.5,5.11-4.26h0Zm1.94,53.23l-.6-16.37-5.4-3.83-12.12.5-5.11,4.26.6,16.37,5.33,3.82,12.27-.51,5.03-4.25h0Z" style="fill: rgba(244, 206, 15, 0);"/>
          <path d="m1643.85,1358.28l.38,10.51,5.28,3.82,12.32-.51,5.03-4.25-.75-20.41-40.59,1.68-15.94-14.25-1.9-52.22,14.85-15.53,58.69-2.43,15.79,14.12,3.85,105.71-14.71,15.38-58.69,2.43-15.94-14.25-1.04-28.42,33.35-1.38h.02Zm21.22-39.62l-.74-20.42-5.33-3.82-12.32.51-4.98,4.25.6,16.39,5.28,3.82,17.5-.72h-.01Z" style="fill: rgba(244, 206, 15, 0);"/>
        </g>
        <g>
          <path d="m1538.61,1362.64l.38,10.51,5.28,3.82,12.32-.51,5.03-4.25-.75-20.41-40.59,1.68-15.94-14.25-1.9-52.22,14.85-15.53,58.69-2.43,15.79,14.12,3.85,105.71-14.71,15.38-58.69,2.43-15.94-14.25-1.04-28.42,33.35-1.38h.02Zm21.22-39.62l-.74-20.42-5.33-3.82-12.32.51-4.98,4.25.6,16.39,5.28,3.82,17.5-.72h-.01Z" style="fill: rgba(244, 206, 15, 0);"/>
          <path d="m1591.78,1283.16l1.66,45.5-7.36,7.67,7.89,7.04,1.65,45.36-14.71,15.52-58.69,2.43-15.94-14.25-1.65-45.36,7.35-7.67-7.89-7.04-1.66-45.5,14.86-15.39,58.69-2.43,15.79,14.12h0Zm-32.1,35.81l-.6-16.37-5.33-3.82-12.27.51-5.03,4.25.6,16.37,5.4,3.83,12.12-.5,5.11-4.26h0Zm1.95,53.23l-.6-16.37-5.4-3.83-12.12.5-5.11,4.27.6,16.37,5.33,3.82,12.27-.51,5.03-4.25h0Z" style="fill: rgba(244, 206, 15, 0);"/>
          <path d="m1592.3,1297.18l-28.08,78.96,10.37-.43,1.05,28.77-58.41,2.42-1.05-28.77,14.61-.6,28.1-78.96-22.58.94.53,14.54-33.35,1.38-1.58-43.31,89.34-3.7,1.05,28.77h0Z" style="fill: rgba(244, 206, 15, 0);"/>
          <path d="m1592.83,1311.72l-33.35,1.38-.38-10.51-5.28-3.82-12.32.51-5.03,4.25.74,20.41,40.59-1.68,15.94,14.25,1.9,52.22-14.85,15.53-58.69,2.43-15.79-14.12-3.85-105.71,14.71-15.38,58.69-2.43,15.94,14.25,1.04,28.42h0Zm-54.57,40.99l.75,20.42,5.33,3.82,12.32-.51,4.99-4.25-.6-16.39-5.28-3.82-17.5.72h0Z" style="fill: rgba(244, 206, 15, 0);"/>
          <path d="m1538.61,1362.64l.38,10.51,5.28,3.82,12.32-.51,5.03-4.25-.6-16.37-5.4-3.83-50.73,2.1-2.99-81.99,89.34-3.7,1.58,43.31-33.35,1.38-.53-14.54-22.63.94.89,24.45,40.73-1.69,15.79,14.09,1.92,52.52-14.71,15.38-58.69,2.43-15.94-14.25-1.04-28.42,33.35-1.38h0Z" style="fill: rgba(244, 206, 15, 0);"/>
          <path d="m1594.76,1364.79l-8.32.34.37,10.07,8.32-.34,1.05,28.77-50.07,2.07-1.05-28.77,8.32-.34-.37-10.07-47.59,1.97-1.05-28.77,23.58-68.69,54.96-2.28,2.47,67.61,8.33-.34,1.05,28.77h0Zm-42.79-27.04l-1.11-30.33-10.28,30.8,11.39-.47h0Z" style="fill: rgba(244, 206, 15, 0);"/>
          <path d="m1593.44,1328.66l-7.36,7.67,7.89,7.04,1.66,45.5-14.71,15.38-58.69,2.43-15.94-14.25-1.04-28.42,33.35-1.38.38,10.51,5.28,3.82,12.32-.51,5.04-4.25-.6-16.37-5.4-3.83-17.38.72-1.05-28.77,17.38-.72,5.11-4.26-.6-16.38-5.33-3.82-12.32.51-4.98,4.25.38,10.51-33.35,1.38-1.04-28.42,14.85-15.53,58.69-2.43,15.79,14.12,1.66,45.5h0Z" style="fill: rgba(244, 206, 15, 0);"/>
          <path d="m1503.49,1315.42l-1.04-28.42,14.85-15.53,58.69-2.43,15.79,14.12,1.92,52.52-14.71,15.35-35.48,1.47-5.11,4.27.74,20.41,22.63-.94-.53-14.54,33.35-1.38,1.58,43.31-89.34,3.7-2.45-67.27,14.72-15.35,35.48-1.47,5.11-4.26-.6-16.37-5.33-3.82-12.32.51-4.98,4.25.38,10.51-33.35,1.38v-.02Z" style="fill: rgba(244, 206, 15, 0);"/>
          <path d="m1586.68,1375.21l8.32-.34,1.05,28.77-50.07,2.07-1.05-28.77,8.32-.34-2.83-77.68-8.32.34-1.05-28.77,41.72-1.73,3.9,106.45h.01Z" style="fill: rgba(244, 206, 15, 0);"/>
          <path d="m1575.85,1269.05l15.94,14.25,3.84,105.44-14.85,15.53-58.69,2.43-15.74-14.08-3.9-105.75,14.71-15.38,58.69-2.43h0Zm-16.91,29.51l-22.58.94,2.83,77.68,22.58-.94-2.83-77.68Z" style="fill: rgba(244, 206, 15, 0);"/>
        </g>
      </g>
    </g>
    <g style="opacity: .2;">
      <path d="m1372.99,1095.15s-218.95-45.34-277.83-85.84c0,0,120.42,119.04,359.15,133.27l-81.32-47.44h0Z"/>
      <path d="m1736.66,1090.63l-60.99,63.25c98.63-22.93,239.43-151.34,239.43-151.34,0,0-94.06,50.28-126.49,60.99-32.43,10.71-51.95,27.11-51.95,27.11h0Z"/>
      <path d="m1115.2,1547.19c-.66-16.88-10.66-183.88-47.16-208.38,0,0-38-44-63-31s-86.07,96.79-86.07,96.79l24.85,18.07c11.23,7.14,30.27,19.5,39.25,9.32s4.16-23.92,9.32-28.8c5.16-4.88,24.87-31.64,52.52-26.26s33.2,29.58,36.42,49.98c3.22,20.4,21.83,204.74,22.02,210.07.2,5.33,8.91,92.19,13.55,98.26,4.65,6.07.27,12.81-2.54,16.94s5.66,18.14,36.42,18.64c0,0-34.92-206.74-35.58-223.62h0Z"/>
      <path d="m1590.04,1751.81s-13-75-3-89,42-22,20-21-140-2-129,5,12.41,55.39,12.41,55.39c0,0,8.09-17.89,22.02-35.58,13.93-17.68,25.07,21.68,26.26,29.65,1.19,7.96,8.81,23.04-3.39,38.96-12.2,15.93,11.01,17.79,11.01,17.79l43.69-1.22h0Z"/>
      <path d="m1945.32,1317.64s-4.28,67.17-7.62,83.01c-3.35,15.84,6.35,14.16,32.95,25.48s38.21-6,38.21-6l32.19-55.06-95.72-47.44h0Z"/>
      <path d="m1276.99,1774.2c-23.95-.39-142.52-3.69-148.24-2.54l-.85,77.93s14.61,15.66,22.87,16.94,13.26-69.72,150.26-74.72,167.38,39.15,167.38,39.15l10.16-63.53s-177.65,7.17-201.6,6.78h.02Z"/>
      <path d="m1604.04,1758.81c-40-3-63.62-.7-63.62-.7l-5.08,72.85s3.41,11.25,13.55,13.55c10.15,2.3,38.12,8.47,38.12,8.47,0,0,8.03-66.17,118.03-84.17s178-17,178-17l2.14-27.58s-106.45,23.63-131.29,27.11c-24.84,3.48-109.84,10.48-149.84,7.48h-.01Z"/>
    </g>
    <g id="af-jersey-outline">
      <path d="m2137.48,1145.09c-6.96-.7-13.85-1.57-19.18-2.65-1.78-.36-3.38-.73-4.76-1.13-.52-.15-1.03-.4-1.54-.75-.5-.34-1-.78-1.5-1.31l-.02-.02s-.07-.08-.1-.12c-.63-.69-1.25-1.52-1.87-2.48-.19-.29-.37-.59-.56-.91-.14-.24-.28-.47-.42-.73h0c-5.07-9.1-9.6-26.72-13.28-45.82-1.03-5.32-1.98-10.75-2.87-16.15-.08-.46-.15-.92-.22-1.37-.61-3.79-1.19-7.55-1.72-11.23-.85-5.82-1.6-11.45-2.24-16.69-.74-6.02-1.34-11.51-1.78-16.16-.57-6.11-.88-10.77-.88-13.25,0-16-20-38-70-34-19.96,1.6-24.53-12.68-62-5-35.04,24.51-87.5,56.72-144.45,79.32-7.41,2.94-14.89,5.72-22.43,8.29-5.02,1.72-10.06,3.35-15.12,4.87-7.58,2.29-15.19,4.36-22.81,6.16-10.52,12.26-20.92,23.43-31,33.54-.92.92-1.83,1.83-2.74,2.73-5.46,5.41-10.83,10.5-16.06,15.29-1.74,1.59-3.47,3.16-5.19,4.68-6.85,6.1-13.45,11.66-19.72,16.69-.78.63-1.56,1.25-2.33,1.86-1.55,1.22-3.07,2.41-4.57,3.57-1.5,1.16-2.98,2.28-4.44,3.37s-2.89,2.15-4.29,3.17c-1.41,1.02-2.79,2.02-4.15,2.97-1.36.96-2.69,1.88-3.99,2.78-16.28,11.17-28.3,17.28-33.73,18.71-19,5-47,11-68,0l-198.96-97.12c-6.61-1.07-13.16-2.19-19.64-3.37-3.24-.59-6.47-1.2-9.68-1.82-6.42-1.24-12.78-2.54-19.08-3.89-3.88-.83-7.72-1.69-11.55-2.57-4.75-1.08-9.47-2.2-14.15-3.34-.74-.18-1.49-.36-2.23-.54-97.88-24.17-180.11-61.56-248-103.26-15.64-2.22-28.95-3.09-38.7-2.09-68,7-163,7-189,37-10.17,11.74-13.3,30.21-13.94,49.36-.09,2.79-.13,5.6-.14,8.41-.01,14.96,1.09,29.81,1.14,41.68.01,2.97-.04,5.75-.19,8.31-.04.64-.08,1.26-.13,1.87-.4,4.87-1.23,8.78-2.75,11.37-.58.98-1.33,2.16-2.23,3.5-.3.45-.61.91-.94,1.39-7.58,11.01-23.36,31.12-37.8,49.14-7.42,9.25-14.48,17.95-19.89,24.59-3.25,3.98-5.9,7.22-7.67,9.38-.39.48-.75.91-1.05,1.28-.92,1.11-1.42,1.72-1.42,1.72,0,0-37,10-20,30s272.17,188.22,272.17,188.22c0,0,33.67,6.88,30.25-20.17-.1-.83-.15-1.65-.14-2.46.02-1.63.28-3.22.73-4.79.23-.78.5-1.55.83-2.32.33-.76.7-1.52,1.12-2.26s.88-1.47,1.38-2.19c1.01-1.44,2.18-2.83,3.49-4.17,5.11-5.22,12.36-9.64,20.28-12.84h0c1.15-.46,2.3-.9,3.47-1.31,2.34-.82,4.71-1.53,7.09-2.12,1.19-.3,2.38-.56,3.56-.8h0c13.13-2.64,25.82-1.54,32.14,5,16.63,17.21,33.63,188.21,33.63,188.21,0,0,503.69,63.74,816.85-20.13,6.77-19.83,18.27-85.98,21.97-120.42h0c.37-3.45.66-6.57.86-9.31.05-.75.1-1.47.15-2.15.11-1.92.18-3.59.18-4.99,0,0,2.15,1.07,5.68,2.69,1.04.48,2.22,1.01,3.48,1.57.31.14.63.28.96.42.58.25,1.17.51,1.78.77.78.34,1.59.68,2.43,1.03,1.25.53,2.56,1.06,3.9,1.6.77.31,1.56.62,2.35.93.26.1.52.2.78.3,3.14,1.21,6.43,2.41,9.75,3.5h0c13.18,4.34,26.68,7.01,31.9,2.18,11.48-10.62,166-281,166-281,0,0-15.69-.68-31.06-2.22h0Z" style="fill: none; stroke: #000; stroke-miterlimit: 10; stroke-width: 13px;"/>
      <path d="m1941.08,1290.53s1.65,92.89-1.72,127.76" style="fill: none; stroke: #000; stroke-linecap: round; stroke-miterlimit: 10; stroke-width: 13px;"/>
    </g>
    <g id="clothing-shoes">
      <g>
        <g>
          <g>
            <g>
              <path d="m2169.77,2063.54c8.55,20.21,5.54,42.46.37,59.73-6.11,11.87-37.59,56.36-170.52,68.34-153.84,13.88-206.85-20.56-292.09-45.24-.68-.2-1.37-.4-2.06-.59-82.52-23.74-187.59-43.64-193.55-44.76-2.13-6.68-3.92-13.46-5.41-20.19l3.03-.52s196,48,269,39,73-40,132-33,97,46,200,26c55.14-10.71,58.96-44.31,59.23-48.77Z" style="fill: #fff;"/>
              <path d="m2169.77,2063.54c-.27,4.46-4.09,38.06-59.23,48.77-103,20-141-19-200-26s-59,24-132,33-269-39-269-39l-3.03.52c-3.91-17.77-5.65-35.24-5.53-49.97.27-33.51,20.28-111.08,20.28-111.08-27.53-49.57,14.87-64.03,14.87-64.03,38.46,48.19,128.88,24.73,128.88,24.73,26.59-77.73,95.84-25.84,95.84-25.84,0,0,129.59,124.71,156.69,139.67,0,0,34,34,102,29s36.42-38.67,36.42-38.67l.36-.8c35.76,16.26,72.76,41.5,72.76,41.5,22.1,9.84,34.46,23.48,40.69,38.2h0Z" style="fill: #fff;"/>
              <path d="m2170.14,2123.27c-5.23,17.45-12.7,29.81-12.7,29.81,0,0-17.2,57.39-164.98,71.1-147.78,13.72-198.75-20.75-280.66-45.53-75.25-22.76-171.09-42.18-186.18-45.18-5.58-10.12-10.12-21.14-13.7-32.45,5.96,1.12,111.03,21.02,193.55,44.76.69.19,1.38.39,2.06.59,85.24,24.68,138.25,59.12,292.09,45.24,132.93-11.98,164.41-56.47,170.52-68.34h0Z" style="fill: #fff;"/>
              <path d="m1878.18,1838.77c.37.4.73.81,1.1,1.22,14.65,16.38,16.81,30.29,34.87,51.06,18.05,20.77,117.17,83.1,117.17,83.1,4.14,1.25,8.44,2.78,12.83,4.51,4,1.58,8.08,3.32,12.17,5.18l-.36.8s31.58,33.67-36.42,38.67-102-29-102-29c-27.1-14.96-156.69-139.67-156.69-139.67-13.61-18.65,10.9-31.86,45.88-36.08,30.81-3.72,53.38,1.9,67.13,15.69,1.49,1.47,2.92,2.98,4.32,4.52Z" style="fill: #fff;"/>
              <path d="m2044.3,1978.29l-.15.37c-4.39-1.73-8.69-3.26-12.83-4.51,0,0-99.12-62.33-117.17-83.1-18.06-20.77-20.22-34.68-34.87-51.06-.37-.41-.73-.82-1.1-1.22-2.27-8.37-9.4-20.81,9.83-16.86,29.11,5.98,58.64,62.15,58.64,62.15,0,0,92.4,61.97,97.65,94.23h0Z" style="fill: #fff;"/>
            </g>
            <g>
              <path d="m2157.44,2153.08s7.47-12.36,12.7-29.81c5.17-17.27,8.18-39.52-.37-59.73-6.23-14.72-18.59-28.36-40.69-38.2,0,0-37-25.24-72.76-41.5-4.09-1.86-8.17-3.6-12.17-5.18-4.39-1.73-8.69-3.26-12.83-4.51,0,0-99.12-62.33-117.17-83.1-18.06-20.77-20.22-34.68-34.87-51.06-.37-.41-.73-.82-1.1-1.22-1.4-1.54-2.83-3.05-4.32-4.52-13.75-13.79-36.32-19.41-67.13-15.69-34.98,4.22-59.49,17.43-45.88,36.08,0,0-69.25-51.89-95.84,25.84,0,0-90.42,23.46-128.88-24.73,0,0-42.4,14.46-14.87,64.03,0,0-20.01,77.57-20.28,111.08-.12,14.73,1.62,32.2,5.53,49.97,1.49,6.73,3.28,13.51,5.41,20.19,3.58,11.31,8.12,22.33,13.7,32.45" style="fill: none; stroke: #000; stroke-linecap: round; stroke-linejoin: round; stroke-width: 13.37px;"/>
              <path d="m1878.54,1840.31c-.1-.49-.22-1.01-.36-1.54-2.27-8.37-9.4-20.81,9.83-16.86,29.11,5.98,58.64,62.15,58.64,62.15,0,0,92.4,61.97,97.65,94.23" style="fill: none; stroke: #000; stroke-linecap: round; stroke-linejoin: round; stroke-width: 13.37px;"/>
              <path d="m1523.58,2133.06s.7.14,2.04.41c15.09,3,110.93,22.42,186.18,45.18,81.91,24.78,132.88,59.25,280.66,45.53,147.78-13.71,164.98-71.1,164.98-71.1" style="fill: none; stroke: #000; stroke-linecap: round; stroke-linejoin: round; stroke-width: 13.37px;"/>
              <path d="m1511.65,2100.97s.09.02.27.05c5.96,1.12,111.03,21.02,193.55,44.76.69.19,1.38.39,2.06.59,85.24,24.68,138.25,59.12,292.09,45.24,132.93-11.98,164.41-56.47,170.52-68.34.96-1.87,1.29-2.93,1.29-2.93" style="fill: none; stroke: #000; stroke-linecap: round; stroke-linejoin: round; stroke-width: 13.37px;"/>
              <path d="m1760.85,1854.64s129.59,124.71,156.69,139.67c0,0,34,34,102,29s36.42-38.67,36.42-38.67" style="fill: none; stroke: #000; stroke-linecap: round; stroke-linejoin: round; stroke-width: 13.37px;"/>
              <path d="m1520.54,1912.31s78,42,163,10" style="fill: none; stroke: #000; stroke-linecap: round; stroke-linejoin: round; stroke-width: 13.37px;"/>
              <path d="m1509.54,2080.31s196,48,269,39,73-40,132-33,97,46,200,26c55.14-10.71,58.96-44.31,59.23-48.77.02-.32.02-.49.02-.49" style="fill: none; stroke: #000; stroke-linecap: round; stroke-linejoin: round; stroke-width: 13.37px;"/>
            </g>
          </g>
          <g>
            <path d="m1839.61,1972.71c-2.56,0-4.99-.84-7.02-2.42-4.98-3.88-5.88-11.1-2.01-16.1,5.43-6.99,18.25-19.07,38.13-35.94-38.76,2.54-70.35,9.81-70.68,9.88-.85.2-1.72.3-2.59.3-4.28,0-8.17-2.36-10.15-6.17-2.41-4.64-1.39-10.33,2.49-13.83,12.86-11.6,25.69-22.27,38.2-31.77-1.47-.02-2.95-.04-4.45-.06-4.11-.05-8.38-.07-12.7-.07-40.75,0-76.89,2.12-78.41,2.21-.25.01-.49.02-.72.02-6.03,0-11.04-4.74-11.41-10.78-.19-3.06.83-6.01,2.86-8.3s4.82-3.66,7.88-3.84c.36-.02,37.2-2.25,79.69-2.25,4.41,0,8.77.02,12.97.07,12.95.15,24.99.52,35.82,1.11,23.73-14.85,37.4-19.5,38.89-19.99,1.15-.37,2.34-.56,3.53-.56,4.98,0,9.35,3.19,10.89,7.93,1.94,6-1.35,12.48-7.33,14.44-.1.03-1.95.67-5.33,2.16,28.1,4.49,37.11,11.15,41.45,15.89,2.16,2.36,3.24,5.54,2.97,8.73s-1.87,6.14-4.4,8.1c-1.95,1.52-4.22,3.29-6.73,5.26,14.79,1.95,28.02,5.15,39.37,9.51,5.89,2.26,8.85,8.91,6.59,14.82-1.69,4.41-5.98,7.37-10.69,7.37-1.4,0-2.78-.26-4.09-.76-15.2-5.84-34.46-9.23-57.23-10.07-30.56,24.89-50.7,42.87-56.75,50.67-2.18,2.81-5.48,4.43-9.04,4.43h0Zm23.99-94.57c-9.16,6.01-18.65,12.81-28.26,20.28,20.34-2.65,39.81-4,57.96-4,1.42,0,2.85,0,4.28.03,4.08-3.29,8.22-6.6,12.33-9.87-5.8-1.58-13.06-2.94-21.64-4.08-7.24-.96-15.53-1.75-24.66-2.36h0Z" style="fill: #fff; stroke: #000; stroke-linecap: round; stroke-linejoin: round; stroke-width: 9px;"/>
            <path d="m1860.1,1987.82c-3.48,0-6.73-1.55-8.91-4.26-3.96-4.91-3.2-12.14,1.68-16.11,1.93-1.57,47.94-38.34,116.3-38.34,10.17,0,20.47.82,30.61,2.45,3.02.48,5.67,2.12,7.46,4.6,1.79,2.48,2.51,5.51,2.03,8.54-.89,5.6-5.64,9.66-11.28,9.66h0c-.61,0-1.23-.05-1.84-.15-8.73-1.4-17.65-2.11-26.51-2.11-27.97,0-51.31,7.08-65.96,13.02-22.63,9.18-36.28,20.05-36.42,20.16-2.03,1.64-4.58,2.54-7.18,2.54h.02Z" style="fill: #fff; stroke: #000; stroke-linecap: round; stroke-linejoin: round; stroke-width: 9px;"/>
          </g>
          <path d="m1551.45,1875.02s-14.54-24.29-27.47-11.34c-12.93,12.96-17.78,53.45,12.93,63.16,0,0-25.85-4.86-24.24,43.73,0,0,27.47,74.5,46.86,100.42,19.39,25.91,16.78,75.13,16.78,75.13,0,0,101.8,17.82,171.29,43.73,69.48,25.91,197.14,59.93,308.64,22.67,111.5-37.25,106.65-64.78,106.65-64.78,0,0-5.46,7.47,2.62-8.73s11.31-40.49,9.7-55.07c0,0-116.35,80.98-355.5,29.15-239.16-51.83-263.4-95.56-261.78-152.24,1.62-56.69-6.46-85.84-6.46-85.84h-.02Z" style="isolation: isolate; opacity: .2;"/>
        </g>
        <g>
          <g>
            <g>
              <path d="m1593.48,2165.11h-.05s21.61,131.7-213.31,131.74c-300.61.05-303.79-187.88-303.79-187.88,0,0,0-57.22,3.23-60.46,0,0,1.02,11.84,6,29.99,17.42,63.63,83.33,204.78,323.48,184.31,129-11,172.79-61.82,182.43-105.71.36,1.16,1.17,3.95,2.01,8.01h0Z" style="fill: #fff;"/>
              <path d="m1103.17,1908.13c1.08-9.84.61-19.93-2.06-30.22-6.47-24.84,19.39-29.15,19.39-29.15-3.23,15.12,38.79,37.79,38.79,37.79,16.16-22.67,45.24-23.75,65.71-22.67s24.78,29.36,24.78,29.36c-2.16,11.02,30.18,120.46,59.26,162.57,0,0,27.48,35,87,35,89,0,75-58,75-58-1-15-19.81-147.6-19.81-147.6-3.61-5.95-6.92-11.28-11.19-15.88l4.72-.05,20.47-23.76c15.08,3.24,23.7,23.76,23.7,33.47,0,1.62-.24,6.02-.35,12.41-.52,32.13,2.28,114.43,55.29,144.15,7.24,4.06,13.45,8.77,18.76,13.92,27.05,26.22,30.96,63.96,30.43,86.92l-3.52-.08s-8-28-33-22-22,74-132,79c-129.11,5.87-133-43-180-55-45.17-11.53-68,2-95-2s-61.16-58.58-61.16-58.58l-2.82.77c-4.98-18.15-6-29.99-6-29.99-12.92-23.75,2.16-78.82,11.85-100.42,5.69-12.65,10.26-26.05,11.76-39.96Z" style="fill: #fff;"/>
              <path d="m1589.54,2136.31l3.52.08c-.27,12.11-1.79,20.1-1.79,20.1,0,0,.07.21.2.61-9.64,43.89-53.43,94.71-182.43,105.71-240.15,20.47-306.06-120.68-323.48-184.31l2.82-.77s34.16,54.58,61.16,58.58,49.83-9.53,95,2c47,12,50.89,60.87,180,55,110-5,107-73,132-79s33,22,33,22h0Z" style="fill: #fff;"/>
              <path d="m1564.34,2049.32l-1.71.15c-5.31-5.15-11.52-9.86-18.76-13.92-53.01-29.72-55.81-112.02-55.29-144.15h.62c1.62,2.36,68.68,127.29,75.14,157.92Z" style="fill: #fff;"/>
              <path d="m1471.04,2032.81s14,58-75,58c-59.52,0-87-35-87-35-29.08-42.11-61.42-151.55-59.26-162.57,0,0,21.71-43.12,100.45-43.94,57.54-.61,77.58,6.77,89.81,20.03,4.27,4.6,7.58,9.93,11.19,15.88,0,0,18.81,132.6,19.81,147.6Z" style="fill: #fff;"/>
            </g>
            <g>
              <line x1="1593.48" y1="2165.11" x2="1593.43" y2="2165.12" style="fill: none; stroke: #000; stroke-linecap: round; stroke-linejoin: round; stroke-width: 13.37px;"/>
              <line x1="1444.76" y1="1869.28" x2="1440.04" y2="1869.33" style="fill: none; stroke: #000; stroke-linecap: round; stroke-linejoin: round; stroke-width: 13.37px;"/>
              <line x1="1103.17" y1="1908.13" x2="1103.27" y2="1908.14" style="fill: none; stroke: #000; stroke-linecap: round; stroke-linejoin: round; stroke-width: 13.37px;"/>
              <line x1="1179.24" y1="1933.23" x2="1177.6" y2="1934.06" style="fill: none; stroke: #000; stroke-linecap: round; stroke-linejoin: round; stroke-width: 13.37px;"/>
              <path d="m1249.78,1893.24s21.71-43.12,100.45-43.94c57.54-.61,77.58,6.77,89.81,20.03" style="fill: none; stroke: #000; stroke-linecap: round; stroke-linejoin: round; stroke-width: 13.37px;"/>
              <path d="m1440.04,1869.33c4.27,4.6,7.58,9.93,11.19,15.88,0,0,18.81,132.6,19.81,147.6,0,0,14,58-75,58-59.52,0-87-35-87-35-29.08-42.11-61.42-151.55-59.26-162.57" style="fill: none; stroke: #000; stroke-linecap: round; stroke-linejoin: round; stroke-width: 13.37px;"/>
              <path d="m1591.47,2157.1c.36,1.16,1.17,3.95,2.01,8.01" style="fill: none; stroke: #000; stroke-linecap: round; stroke-linejoin: round; stroke-width: 13.37px;"/>
              <path d="m1079.56,2048.51c-3.23,3.24-3.23,60.46-3.23,60.46" style="fill: none; stroke: #000; stroke-linecap: round; stroke-linejoin: round; stroke-width: 13.37px;"/>
              <path d="m1103.17,1908.13c-1.5,13.91-6.07,27.31-11.76,39.96-9.69,21.6-24.77,76.67-11.85,100.42" style="fill: none; stroke: #000; stroke-linecap: round; stroke-linejoin: round; stroke-width: 13.37px;"/>
              <path d="m1591.47,2157.1c-.13-.4-.2-.61-.2-.61,0,0,1.52-7.99,1.79-20.1.53-22.96-3.38-60.7-30.43-86.92-5.31-5.15-11.52-9.86-18.76-13.92-53.01-29.72-55.81-112.02-55.29-144.15.11-6.39.35-10.79.35-12.41,0-9.71-8.62-30.23-23.7-33.47l-20.47,23.76" style="fill: none; stroke: #000; stroke-linecap: round; stroke-linejoin: round; stroke-width: 13.37px;"/>
              <path d="m1159.29,1886.55c16.16-22.67,45.24-23.75,65.71-22.67s24.78,29.36,24.78,29.36" style="fill: none; stroke: #000; stroke-linecap: round; stroke-linejoin: round; stroke-width: 13.37px;"/>
              <path d="m1103.17,1908.13c1.08-9.84.61-19.93-2.06-30.22-6.47-24.84,19.39-29.15,19.39-29.15-3.23,15.12,38.79,37.79,38.79,37.79" style="fill: none; stroke: #000; stroke-linecap: round; stroke-linejoin: round; stroke-width: 13.37px;"/>
              <path d="m1593.43,2144.6c-.38,4.04-1.02,8.21-1.96,12.5" style="fill: none; stroke: #000; stroke-linecap: round; stroke-linejoin: round; stroke-width: .48px;"/>
              <path d="m1591.47,2157.1c-9.64,43.89-53.43,94.71-182.43,105.71-240.15,20.47-306.06-120.68-323.48-184.31-4.98-18.15-6-29.99-6-29.99" style="fill: none; stroke: #000; stroke-linecap: round; stroke-linejoin: round; stroke-width: 13.37px;"/>
              <path d="m1076.33,2108.97s3.18,187.93,303.79,187.88c234.92-.04,213.31-131.73,213.31-131.73" style="fill: none; stroke: #000; stroke-linecap: round; stroke-linejoin: round; stroke-width: 13.37px;"/>
              <path d="m1177.6,1934.06c-44.17,6.48-74.33-25.92-74.33-25.92" style="fill: none; stroke: #000; stroke-linecap: round; stroke-linejoin: round; stroke-width: 13.37px;"/>
              <path d="m1489.2,1891.41c1.62,2.35,68.68,127.28,75.14,157.91" style="fill: none; stroke: #000; stroke-linecap: round; stroke-linejoin: round; stroke-width: 13.37px;"/>
              <path d="m1088.38,2077.73s34.16,54.58,61.16,58.58,49.83-9.53,95,2c47,12,50.89,60.87,180,55,110-5,107-73,132-79s33,22,33,22" style="fill: none; stroke: #000; stroke-linecap: round; stroke-linejoin: round; stroke-width: 13.37px;"/>
            </g>
          </g>
          <g>
            <path d="m1265.99,2000.63c-3.7,0-7.17-1.18-9.77-3.32-2.83-2.33-4.3-5.47-4.16-8.86.15-3.41,2.01-6.58,5.1-8.7,6.5-4.44,17.01-9.27,31.34-14.4-19.97-.64-35.44-.73-42.02-.73-2.9,0-4.54.01-4.69.02h-.21c-5.46,0-10.42-2.68-12.65-6.82-2.61-4.85-1.08-10.59,3.71-13.95,10.09-7.08,29.35-15.37,57.34-24.68-45.3-4.59-78.92-7.87-79.55-7.92-4.24-.34-8-2.24-10.31-5.21-1.8-2.32-2.57-5.13-2.17-7.91.84-5.88,6.78-10.31,13.81-10.31.45,0,.91.02,1.37.06,1.82.15,52.83,4.93,113.5,11.42,7.45.8,14.77,1.6,21.77,2.4,48.44-13.3,93.8-23.44,95.71-23.87,1.18-.27,2.41-.4,3.64-.4,6,0,11.31,3.19,13.2,7.95,1.11,2.79.96,5.82-.42,8.51-1.68,3.29-5.02,5.71-9.15,6.63-5.93,1.32-20.14,4.55-39.53,9.32,14.61,2.18,26.79,4.29,36.35,6.31,2.01-.89,4.26-1.36,6.55-1.36,1.29,0,2.58.15,3.83.44,1.57.37,3.13.75,4.69,1.13.67.17,1.34.37,1.96.62,7.93,3.09,13.17,8.47,14.36,14.78l.07.36c.03.15.04.3.05.45.05.43.07.87.07,1.3v.34c-.03.61-.11,1.2-.23,1.76l-.08.32c-.09.37-.24.85-.44,1.34-.07.17-.11.27-.16.37-.23.52-.49.99-.78,1.44l-.17.24c-.21.31-.51.7-.82,1.06l-.24.27c-.42.46-.8.82-1.2,1.15l-.2.16c-.28.23-.7.53-1.15.82l-.27.17c-.94.57-1.93,1.02-2.98,1.37l-.37.12c-.42.13-.8.23-1.2.32l-.43.1c-5.35,1.01-22.17,4.22-44.89,9.1,21.94,4.02,40.08,8.9,54.05,14.55,3.77,1.52,6.49,4.38,7.45,7.84.86,3.07.27,6.23-1.65,8.89-2.48,3.45-7.05,5.6-11.92,5.6-2.1,0-4.21-.4-6.1-1.17-22.83-9.23-58.89-16.12-107.21-20.5-55.69,14.16-76.43,23.31-84.02,28.49-2.47,1.69-5.6,2.61-8.82,2.61l.04-.02Zm31.17-58.55c20.59.77,40.75,1.97,59.08,3.54,16.22-4.06,33.94-8.18,52.87-12.31-16.08-2.43-35.49-4.97-57.97-7.58-20.86,5.81-38.95,11.29-53.98,16.34h0Z" style="fill: #fff; stroke: #000; stroke-linecap: round; stroke-linejoin: round; stroke-width: 9px;"/>
            <path d="m1277,2029.54c-6.68,0-12.43-3.99-13.67-9.5-.63-2.8-.07-5.69,1.59-8.14,2.1-3.1,5.74-5.18,9.97-5.72,3.76-.48,92.81-11.68,157.86-11.68,6.11,0,11.74-.15,17.18-.29,4.65-.12,9.05-.24,13.13-.24,6.77,0,11.66.32,15.84,1.04,4.2.72,7.7,2.96,9.61,6.16,1.53,2.57,1.9,5.52,1.05,8.33-1.57,5.16-7.12,8.76-13.48,8.76-.95,0-1.91-.08-2.84-.24-2.93-.5-6.47-.73-11.16-.73-3.68,0-7.77.14-12.1.29-5.07.18-10.83.38-16.93.38-63.48,0-153.03,11.33-153.93,11.44-.72.09-1.43.13-2.13.13h.01Z" style="fill: #fff; stroke: #000; stroke-linecap: round; stroke-linejoin: round; stroke-width: 9px;"/>
          </g>
          <path d="m1144.2,1884.93s-33.93,14.58-24.24,38.87c-1.62,8.1-45.25,97.18-21.01,183.02s195.53,110.13,290.87,110.13,174.51-27.37,189.06-70.37c0,0,28.4,37.74,4.16,78.23s-94,79-271,67c-196.39-13.31-226.01-131.55-230.86-144.5s-8.08-66.4-4.85-80.98-9.7-50.21,3.23-82.6c12.93-32.39,19.39-45.35,22.62-64.78,3.23-19.44-9.7-55.07,0-59.93,9.7-4.86,25.85,4.86,25.85,4.86l16.16,21.05h0Z" style="isolation: isolate; opacity: .2;"/>
        </g>
      </g>
    </g>
  </g>
  <g>
    <path d="m1549.81,1399.69h-12.5v15.64h12.5v44.68h-75.22v-44.68h12.5v-15.64h-71.49v-44.68l39.13-105h82.57v105h12.51v44.68Zm-62.71-44.68v-47.11l-17.11,47.11h17.11Z" style="fill: #fff;"/>
    <path d="m1623.81,1392.74v16.32l7.71,6.27h18.5l7.78-6.27v-25.43l-7.89-6.28h-76.21v-127.34h134.21v67.27h-50.1v-22.59h-34v37.98h61.19l22.91,22.86v81.57l-22.91,22.91h-88.17l-23.13-23.13v-44.14h50.11Z" style="fill: #fff;"/>
  </g>
</svg>