<?xml version="1.0" encoding="UTF-8"?>
<svg id="CLOTHING" xmlns="http://www.w3.org/2000/svg" xmlns:xlink="http://www.w3.org/1999/xlink" viewBox="0 0 3000 3000">
  <defs>
    <linearGradient id="linear-gradient" x1="1490.28" y1="1431.31" x2="1490.28" y2="1949.05" gradientTransform="translate(0 3000) scale(1 -1)" gradientUnits="userSpaceOnUse">
      <stop offset="0" stop-color="#35bc0f"/>
      <stop offset=".4" stop-color="#ffc200"/>
    </linearGradient>
    <clipPath id="clippath-1">
      <path d="m1772.85,1213.9s43.75-15.72,83.41,4.68c0,0,8.6,65.78-33.15,73.41,0,0-44.7-3.1-50.25-78.09h-.01Z" style="fill: none;"/>
    </clipPath>
  </defs>
  <g id="Running-Male-Jamaica">
    <circle cx="1500" cy="1500" r="1200" style="fill: #4c6164;"/>
    <g>
      <path d="m1121.57,1700.42s2.43,46.24,3.43,71.24c0,0,38.12,1.49,157,7s184,17,184,17l1-15s6-38,9-63l-354.43-17.24h0Z" style="isolation: isolate; opacity: .2;"/>
      <path d="m1547.05,1739.09s2.85,32.47.95,48.57c0,0,19-9,121-16s188-24,197-13l7.78-46.14s-71.67,51.99-322.73,24.56" style="isolation: isolate; opacity: .2;"/>
    </g>
    <g>
      <path d="m1904,1578.24c23.41-39.52,15.83-89.37,15.83-89.37.73-5.56-15.35-2.4-19.67-5-45.05-3.19-111.67-20.05-508.87-.89-91.69,4.43-207.06,21.2-268.15,11.69l.14-.98-.97-.16c-7.27-1.17-13.66-2.73-18.99-4.64l-1.15-.41-.14.99c-10.94-4.11-18.14-10.03-20.52-18.31,0,0-21.92,18.16-1.08,79.14.4,4.35,9.15,19.96,10.47,25.9,3.83,17.18,1.6,42.02,3.29,64.22l1.11-19.77c.87,6.65,1.93,13.18,3.18,19.47l-4.08,14.23.31-5.5-1.98-.22c-1.43,8.42-2.61,16.27-3.5,23.32-.02.09-.02.16-.02.22-2.53,22.42-1.73,31.71-1.7,32.09l.05.55.5.25c1.85.93,3.47,1.38,4.95,1.38,5.23,0,7.28-5.42,9.66-11.7.73-1.93,1.48-3.92,2.37-5.89,2.97-6.58,5.63-13.06,7.3-17.23,1.86,31.93,25.04,52.21,38.35,59.13l-.05.12.87.43c36.21,17.93,109.04,37.22,183.4,37.22h.02c60.93,0,114.44-12.27,159.06-36.47l.46-.25.06-.52c.02-.14,1.72-14.53,9.44-23.18l.96-1.07-.96-.38c2.55-2.61,5.69-4.63,9.57-5.49,3.94-.87,6.82,1.83,8.91,5.74l-1.07.04.66,1.38c3.46,7.19,4.49,17.83,4.49,17.85v5.86l.85.13c.66.1,67.31,10.12,148.97,10.12,87.66,0,158.88-11.06,211.67-32.88,10.05-2.88,11.33-15.17,10.17-32.73l-.07-1-1,.06c-2-28.48-9.8-69.26,6.91-97.48h-.01Z" style="fill: #111;"/>
      <g>
        <path d="m1523.76,1707.85c1.74.31,256.54,29.58,372.14-31.05l1.26-.08c1.11,16.73.05,29.03-9.5,31.72-137.16,56.72-360.16,22.72-360.16,22.72v-5s-1.01-10.84-4.59-18.28l.85-.03h0Z" style="fill: #111;"/>
        <path d="m1253.5,1739.16c84,9,190,2,249-32l.69.27c-8.02,8.98-9.69,23.73-9.69,23.73-123.05,66.74-286.95,26.27-341.56-.77l.05-.11c-15.58-7.67-39.18-30.42-38.77-63.65,0,0-4.08,10.67-9.1,21.8-4.53,10.02-5.62,20.73-15.62,15.73,0,0-.85-9.33,1.7-31.94,0-.04,0-.08.01-.12.82-6.48,1.95-14.19,3.5-23.31l-.82,14.45,6.61-23.08c-1.69-8.45-2.96-16.86-3.89-25.14l6.89-121.86.48-3.33c5.52,1.98,11.96,3.53,19.17,4.69l-.65,4.64s-7,33-3,101c3,33,9.13,37.15,12,54,8,47,39,76,123,85Z" style="fill: #111;"/>
      </g>
      <g id="shorts-outline">
        <path d="m1149.5,1729.16c.79.41,1.6.82,2.44,1.23,54.61,27.04,218.51,67.51,341.56.77,0,0,1.67-14.75,9.69-23.73,2.67-2.99,6.05-5.33,10.31-6.27s7.29,2.29,9.41,6.72c3.58,7.44,4.59,18.28,4.59,18.28v5s223,34,360.16-22.72c9.55-2.69,10.61-14.99,9.5-31.72-1.88-28.52-10.07-69.93,6.84-98.48,23.41-39.52,15.83-89.37,15.83-89.37.73-5.56-15.35-2.4-19.67-5-45.05-3.19-111.67-20.05-508.87-.89-92.18,4.45-208.31,21.38-269.14,11.54-7.21-1.16-13.65-2.71-19.17-4.69-11.48-4.12-19.03-10.15-21.48-18.67,0,0-21.92,18.16-1.08,79.14.4,4.35,9.15,19.96,10.47,25.9,3.83,17.18,1.6,42.02,3.29,64.22" style="fill: none; stroke: #000; stroke-linecap: round; stroke-linejoin: round; stroke-width: 13px;"/>
        <path d="m1156.5,1732.16c-1.4-.46-2.91-1.09-4.51-1.88-15.58-7.67-39.18-30.42-38.77-63.65,0,0-4.08,10.67-9.1,21.8" style="fill: none; stroke: #000; stroke-linecap: round; stroke-linejoin: round; stroke-width: 13px;"/>
        <path d="m1094.5,1642.16c-.04.24-.08.47-.12.71-.18,1.04-.35,2.07-.51,3.08-1.67,10.18-2.84,18.86-3.66,26.15-.01.04-.01.08-.01.12-2.55,22.61-1.7,31.94-1.7,31.94,10,5,11.09-5.71,15.62-15.73" style="fill: none; stroke: #000; stroke-linecap: round; stroke-linejoin: round; stroke-width: 13px;"/>
      </g>
    </g>
    <g>
      <path d="m1829.16,1067.8c107.46,185.58,93.48,356.91,83.73,417.52-4.68-.32-10.41-.05-12.73-1.45-45.05-3.19-111.67-20.05-508.87-.89-68.19,3.29-149.48,13.41-211.8,14.48-35.42-2.39-62.23-4.72-73.98-6.78-12.9-4.12-18.01-10.52-24.01-17.52,0,0-2-2-3-4-10.05-13.74-14.93-31.48-17.38-46.51,4.61-.27,80-31.04,130.88-100.99,54.27-74.61-2.48-238.79-6.05-248.89,24.7,8.5,50.57,16.18,77.64,22.85,5.94,18.56,59.92,162.95,300.41,162.04,266-1,216.42-165.9,216.42-165.9l-1.52-4.63c17.61-5.8,34.35-12.27,50.26-19.33Z" style="fill: url(#linear-gradient);"/>
      <g>
        <path d="m1561.74,1259.66c-54.97,0-104.45-7.68-147.08-22.83-34.81-12.37-65.28-29.78-90.56-51.74-44.79-38.91-59.85-80.85-62.42-88.86l-1.09-3.41,3.48.86c9.57,2.36,19.4,4.62,29.23,6.7l.86.18.45.76c21.81,37.03,51.35,66.73,87.81,88.28,46.81,27.67,104.94,41.7,172.76,41.7,4.06,0,8.19-.05,12.28-.15,90.84-2.19,149.36-20.8,173.94-55.3,14.86-20.87,17.24-47.62,7.07-79.5l-.63-1.99,2.01-.55c9.54-2.62,19.11-5.51,28.44-8.59l1.9-.63,2.14,6.53c.17.56,15.72,53.99-18.53,100.24-33.28,44.94-100.5,67.91-199.78,68.29h-2.28Z" style="fill: #35bc0f;"/>
        <path d="m1059.15,1422.97c-1.54-9.46-2.12-17.85-2.42-23.34l-.18-3.2,2.95,1.25c.1.04.33.11.78.11,5.06,0,22.97-7.56,85.97-58.19,33.27-26.74,48.22-71.4,44.45-132.75-3.23-52.56-19.69-106.73-32.94-142.92l-1.5-4.11,4.09,1.55c8.68,3.29,17.51,6.49,26.25,9.51l.91.31.32.91c1.71,4.83,16.91,48.7,24.81,100.62,10.34,68.03,3.94,118.54-19.03,150.11-26.84,36.9-60.13,62.31-83.33,77.13-26.27,16.78-46.28,24.51-49.05,24.68l-1.8.11-.29-1.78h.01Z" style="fill: #35bc0f;"/>
      </g>
      <path d="m1778.9,1087.13c-9.27,3.06-18.78,5.94-28.54,8.62,20.05,62.83.45,132.99-182.86,137.41-158.88,3.83-236.71-66.46-274.62-130.82-9.92-2.11-19.68-4.35-29.29-6.72-27.07-6.67-52.94-14.35-77.64-22.85-8.92-3.08-17.69-6.26-26.31-9.53,27.12,74.12,65.07,215.87-12.14,277.92-65.5,52.64-84.15,60.32-88.78,58.36.31,5.63.89,13.86,2.4,23.13,2.45,15.03,7.33,32.77,17.38,46.51,1,2,3,4,3,4,6,7,11.11,13.4,24.01,17.52,11.75,2.06,38.56,4.39,73.98,6.78,62.32-1.07,143.61-11.19,211.8-14.48,397.2-19.16,463.82-2.3,508.87.89,2.32,1.4,8.05,1.13,12.73,1.45,9.75-60.61,23.73-231.94-83.73-417.52-15.91,7.06-32.65,13.53-50.26,19.33h0Z" style="fill: none; stroke: #000; stroke-linecap: round; stroke-linejoin: round; stroke-width: 13px;"/>
    </g>
    <g>
      <path id="Shade" d="m1440,1689.66s140,8,203-7c24-4,10,11-18,17-30.56,6.55-23,14-7,16s-21,30-20,45l-65-13s3-48-13-48c-24.44,0-31,50-31,50l-26,11s5-22-4-27-35.87-9.41-3-17c26-6-75-26-16-27Z" style="isolation: isolate; opacity: .15;"/>
      <path d="m1105.58,1375.93s5.78,105.61,51.1,118.17c0,0-36.36-3.26-41.52,76.65-5.16,79.91,3.84,114.91-26.66,133.41,0,0,2.1-67.73,4.3-79.12,2.2-11.38-9.33-68.47-17.57-89.42-8.24-20.96-7.96-40.24-1.6-51.1s-.14-20.79-6.39-38.32c-6.25-17.53-9.58-36.73-9.58-36.73l47.91-33.53h0Z" style="isolation: isolate; opacity: .2;"/>
      <path d="m1166.26,1074.12s38.02,47.76,162.88,76.65c-2.14-6.11-37.38-36.75-36.26-48.43,0,0-105.37-16.75-126.62-28.22Z" style="isolation: isolate; opacity: .2;"/>
      <path d="m1750.36,1095.75s8.83,18.04,6.74,29.47c0,0,50.78-20.67,79.84-43.12l-7.78-14.31s-58.44,24.04-78.8,27.95h0Z" style="isolation: isolate; opacity: .2;"/>
    </g>
    <path d="m1419.17,1316.55l11.67,185.08s218.92-14.41,309.46-2.14l-.34-182.98s-108.83-27.82-320.78.05h-.01Z" style="fill: #fff; stroke: #000; stroke-linecap: round; stroke-linejoin: round; stroke-width: 13px;"/>
    <g>
      <g>
        <path d="m1654.03,1340.46l13.69,12.49,2.41,91.41-13.01,13.33-50.89,1.59-13.52-12.34-2.45-91.68,12.89-13.2,50.89-1.59h-.01Zm-14.91,25.43l-19.58.61,1.77,67.34,19.58-.61-1.77-67.34Z"/>
        <path d="m1628.54,1433.62l7.22-.23.66,24.94-43.41,1.36-.66-24.94,7.21-.23-1.77-67.34-7.21.23-.66-24.94,36.17-1.13,2.45,92.28h0Z"/>
        <path d="m1590.91,1380.01l-.65-24.64,13.01-13.33,50.89-1.59,13.56,12.38,1.2,45.53-12.89,13.17-30.76.96-4.46,3.65.47,17.69,19.62-.61-.33-12.61,28.92-.9.99,37.55-77.45,2.42-1.54-58.32,12.89-13.18,30.76-.96,4.46-3.65-.37-14.2-4.59-3.36-10.68.33-4.36,3.64.24,9.11-28.92.9v.02Z"/>
        <path d="m1668.75,1392.27l-6.44,6.59,6.78,6.17,1.04,39.44-12.89,13.2-50.88,1.59-13.69-12.49-.65-24.64,28.92-.9.24,9.11,4.54,3.36,10.68-.33,4.4-3.64-.37-14.19-4.65-3.37-15.06.47-.66-24.94,15.06-.47,4.46-3.65-.37-14.2-4.59-3.36-10.68.33-4.36,3.64.24,9.11-28.92.9-.65-24.64,13.01-13.33,50.89-1.59,13.56,12.38,1.04,39.44h0Z"/>
        <path d="m1669.57,1423.59l-7.22.23.23,8.73,7.22-.23.66,24.94-43.41,1.36-.66-24.94,7.22-.23-.23-8.73-41.26,1.29-.66-24.94,21.04-59.32,47.65-1.49,1.55,58.61,7.22-.23.66,24.94h-.01Zm-36.85-23.81l-.69-26.3-9.18,26.61,9.87-.31h0Z"/>
        <path d="m1620.94,1421.24l.24,9.11,4.54,3.36,10.68-.33,4.4-3.64-.37-14.19-4.65-3.37-43.98,1.38-1.87-71.08,77.45-2.42.99,37.55-28.92.9-.33-12.61-19.62.61.56,21.2,35.31-1.1,13.56,12.35,1.2,45.53-12.89,13.2-50.88,1.59-13.69-12.49-.65-24.64,28.92-.9h0Z"/>
        <path d="m1668.36,1377.59l-28.92.9-.24-9.11-4.54-3.36-10.68.33-4.4,3.64.47,17.7,35.19-1.1,13.69,12.49,1.19,45.27-13.01,13.33-50.89,1.59-13.56-12.38-2.41-91.65,12.89-13.2,50.89-1.59,13.69,12.49.65,24.64h0Zm-47.65,35.05l.47,17.71,4.58,3.36,10.68-.33,4.36-3.64-.37-14.21-4.54-3.36-15.17.47h0Z"/>
        <path d="m1668.03,1364.98l-25.03,68.18,8.99-.28.66,24.94-50.64,1.58-.66-24.94,12.66-.4,25.05-68.18-19.58.61.33,12.61-28.92.9-.99-37.55,77.46-2.42.66,24.94h.01Z"/>
        <path d="m1667.71,1352.83l1.04,39.45-6.44,6.59,6.78,6.17,1.04,39.32-12.88,13.32-50.88,1.59-13.69-12.49-1.04-39.32,6.44-6.59-6.78-6.17-1.04-39.44,13.01-13.21,50.89-1.59,13.56,12.38h-.01Zm-28.13,30.75l-.37-14.2-4.58-3.36-10.63.33-4.4,3.64.37,14.2,4.65,3.36,10.51-.33,4.46-3.65h-.01Zm1.22,46.15l-.37-14.19-4.65-3.37-10.51.33-4.46,3.65.37,14.19,4.58,3.36,10.63-.33,4.4-3.64h.01Z"/>
        <path d="m1620.94,1421.24l.24,9.11,4.54,3.36,10.68-.33,4.4-3.64-.47-17.7-35.19,1.1-13.69-12.49-1.19-45.27,13.01-13.33,50.89-1.59,13.56,12.38,2.41,91.65-12.89,13.2-50.89,1.59-13.69-12.49-.65-24.64,28.92-.9h0Zm18.73-34.15l-.47-17.71-4.58-3.36-10.68.33-4.36,3.64.37,14.21,4.54,3.36,15.17-.47h0Z"/>
      </g>
      <g>
        <path d="m1529.69,1424.09l.24,9.11,4.54,3.36,10.68-.33,4.4-3.64-.47-17.7-35.19,1.1-13.69-12.49-1.19-45.27,13.01-13.33,50.89-1.59,13.56,12.38,2.41,91.65-12.89,13.2-50.89,1.59-13.69-12.49-.65-24.64,28.92-.9h0Zm18.73-34.15l-.47-17.71-4.58-3.36-10.68.33-4.36,3.64.37,14.21,4.54,3.36,15.17-.47h0Z"/>
        <path d="m1576.47,1355.69l1.04,39.45-6.44,6.59,6.78,6.17,1.04,39.32-12.88,13.32-50.88,1.59-13.69-12.49-1.04-39.32,6.44-6.59-6.78-6.17-1.04-39.44,13.01-13.21,50.89-1.59,13.56,12.38h-.01Zm-28.13,30.75l-.37-14.2-4.58-3.36-10.63.33-4.4,3.64.37,14.2,4.65,3.36,10.51-.33,4.46-3.65h-.01Zm1.22,46.15l-.37-14.19-4.65-3.37-10.51.33-4.46,3.65.37,14.19,4.58,3.36,10.63-.33,4.4-3.64h.01Z"/>
        <path d="m1576.79,1367.84l-25.03,68.18,8.99-.28.66,24.94-50.64,1.58-.66-24.94,12.67-.4,25.05-68.18-19.58.61.33,12.61-28.92.9-.99-37.55,77.46-2.42.66,24.94h0Z"/>
        <path d="m1577.12,1380.44l-28.92.9-.24-9.11-4.54-3.36-10.68.33-4.4,3.64.47,17.7,35.19-1.1,13.69,12.49,1.19,45.27-13.01,13.33-50.89,1.59-13.56-12.38-2.41-91.65,12.89-13.2,50.89-1.59,13.69,12.49.65,24.64h0Zm-47.65,35.05l.47,17.71,4.58,3.36,10.68-.33,4.36-3.64-.37-14.21-4.54-3.36-15.17.47h0Z"/>
        <path d="m1529.69,1424.09l.24,9.11,4.54,3.36,10.68-.33,4.4-3.64-.37-14.19-4.65-3.37-43.98,1.38-1.87-71.08,77.45-2.42.99,37.55-28.92.9-.33-12.61-19.62.61.56,21.2,35.31-1.1,13.56,12.35,1.2,45.53-12.89,13.2-50.88,1.59-13.69-12.49-.65-24.64,28.92-.9h0Z"/>
        <path d="m1578.33,1426.45l-7.22.23.23,8.73,7.22-.23.66,24.94-43.41,1.36-.66-24.94,7.22-.23-.23-8.73-41.26,1.29-.66-24.94,21.04-59.32,47.65-1.49,1.55,58.61,7.22-.23.66,24.94h-.01Zm-36.85-23.81l-.69-26.3-9.18,26.61,9.87-.31h0Z"/>
        <path d="m1577.51,1395.13l-6.44,6.59,6.78,6.17,1.04,39.44-12.89,13.2-50.88,1.59-13.69-12.49-.65-24.64,28.92-.9.24,9.11,4.54,3.36,10.68-.33,4.4-3.64-.37-14.19-4.65-3.37-15.06.47-.66-24.94,15.06-.47,4.46-3.65-.37-14.2-4.59-3.36-10.68.33-4.36,3.64.24,9.11-28.92.9-.65-24.64,13.01-13.33,50.89-1.59,13.56,12.38,1.04,39.44h0Z"/>
        <path d="m1499.67,1382.87l-.65-24.64,13.01-13.33,50.89-1.59,13.56,12.38,1.2,45.53-12.89,13.18-30.76.96-4.46,3.65.47,17.69,19.62-.61-.33-12.61,28.92-.9.99,37.55-77.45,2.42-1.54-58.32,12.89-13.18,30.76-.96,4.46-3.65-.37-14.2-4.59-3.36-10.68.33-4.36,3.64.24,9.11-28.92.9h-.01Z"/>
        <path d="m1571.24,1435.41l7.22-.23.66,24.94-43.41,1.36-.66-24.94,7.21-.23-1.77-67.34-7.21.23-.66-24.94,36.17-1.13,2.45,92.28h0Z"/>
        <path d="m1562.78,1343.31l13.69,12.49,2.41,91.41-13.01,13.33-50.89,1.59-13.52-12.34-2.45-91.68,12.89-13.2,50.89-1.59h-.01Zm-14.91,25.43l-19.57.61,1.77,67.34,19.57-.61-1.77-67.34Z"/>
      </g>
    </g>
    <g>
      <g style="clip-path: url(#clippath-1);">
        <g>
          <polygon points="1872.53 1290.27 1774.66 1290.27 1767.06 1203.18 1864.93 1203.18 1872.53 1290.27" style="fill: #13a816;"/>
          <g>
            <g>
              <polygon points="1876.65 1197.22 1886.65 1298.62 1819.85 1248.12 1876.65 1197.22"/>
              <polygon points="1819.85 1248.12 1768.84 1293.82 1762.3 1204.63 1819.85 1248.12"/>
            </g>
            <g>
              <polygon points="1819.85 1248.12 1886.65 1298.62 1876.65 1197.22 1819.85 1248.12" style="fill: none; stroke: #ffd217; stroke-miterlimit: 10; stroke-width: 10px;"/>
              <polygon points="1819.85 1248.12 1768.84 1293.82 1762.3 1204.63 1819.85 1248.12" style="fill: none; stroke: #ffd217; stroke-miterlimit: 10; stroke-width: 10px;"/>
            </g>
          </g>
        </g>
      </g>
      <path d="m1772.85,1213.9s43.75-15.72,83.41,4.68c0,0,8.6,65.78-33.15,73.41,0,0-44.7-3.1-50.25-78.09h-.01Z" style="fill: none; stroke: #f2cd33; stroke-linecap: round; stroke-linejoin: round; stroke-width: 6.68px;"/>
    </g>
    <g id="clothing-shoes">
      <g>
        <g>
          <g>
            <g>
              <path d="m2035.26,2003.14l-.15.37c-4.39-1.73-8.69-3.26-12.83-4.51,0,0-99.12-62.33-117.17-83.1-18.06-20.77-20.22-34.68-34.87-51.06-.37-.41-.73-.82-1.1-1.22-2.27-8.37-9.4-20.81,9.83-16.86,29.11,5.98,58.64,62.15,58.64,62.15,0,0,92.4,61.97,97.65,94.23h0Z" style="fill: #fff;"/>
              <path d="m2160.73,2088.39c-.27,4.46-4.09,38.06-59.23,48.77-103,20-141-19-200-26s-59,24-132,33-269-39-269-39l-3.03.52c-3.91-17.77-5.65-35.24-5.53-49.97.27-33.51,20.28-111.08,20.28-111.08-27.53-49.57,14.87-64.03,14.87-64.03,38.46,48.19,128.88,24.73,128.88,24.73,26.59-77.73,95.84-25.84,95.84-25.84,0,0,129.59,124.71,156.69,139.67,0,0,34,34,102,29s36.42-38.67,36.42-38.67l.36-.8c35.76,16.26,72.76,41.5,72.76,41.5,22.1,9.84,34.46,23.48,40.69,38.2h0Z" style="fill: #fff;"/>
            </g>
            <path d="m2160.73,2088.39c8.55,20.21,5.54,42.46.37,59.73-6.11,11.87-37.59,56.36-170.52,68.34-153.84,13.88-206.85-20.56-292.09-45.24-.68-.2-1.37-.4-2.06-.59-82.52-23.74-187.59-43.64-193.55-44.76-2.13-6.68-3.92-13.46-5.41-20.19l3.03-.52s196,48,269,39,73-40,132-33,97,46,200,26c55.14-10.71,58.96-44.31,59.23-48.77Z" style="fill: #ddd;"/>
            <path d="m2161.1,2148.12c-5.23,17.45-12.7,29.81-12.7,29.81,0,0-17.2,57.39-164.98,71.1-147.78,13.72-198.75-20.75-280.66-45.53-75.25-22.76-171.09-42.18-186.18-45.18-5.58-10.12-10.12-21.14-13.7-32.45,5.96,1.12,111.03,21.02,193.55,44.76.69.19,1.38.39,2.06.59,85.24,24.68,138.25,59.12,292.09,45.24,132.93-11.98,164.41-56.47,170.52-68.34h0Z" style="fill: #fff;"/>
            <path d="m1869.14,1863.62c.37.4.73.81,1.1,1.22,14.65,16.38,16.81,30.29,34.87,51.06,18.05,20.77,117.17,83.1,117.17,83.1,4.14,1.25,8.44,2.78,12.83,4.51,4,1.58,8.08,3.32,12.17,5.18l-.36.8s31.58,33.67-36.42,38.67-102-29-102-29c-27.1-14.96-156.69-139.67-156.69-139.67-13.61-18.65,10.9-31.86,45.88-36.08,30.81-3.72,53.38,1.9,67.13,15.69,1.49,1.47,2.92,2.98,4.32,4.52Z" style="fill: #fff;"/>
          </g>
          <g>
            <path d="m2148.4,2177.93s7.47-12.36,12.7-29.81c5.17-17.27,8.18-39.52-.37-59.73-6.23-14.72-18.59-28.36-40.69-38.2,0,0-37-25.24-72.76-41.5-4.09-1.86-8.17-3.6-12.17-5.18-4.39-1.73-8.69-3.26-12.83-4.51,0,0-99.12-62.33-117.17-83.1-18.06-20.77-20.22-34.68-34.87-51.06-.37-.41-.73-.82-1.1-1.22-1.4-1.54-2.83-3.05-4.32-4.52-13.75-13.79-36.32-19.41-67.13-15.69-34.98,4.22-59.49,17.43-45.88,36.08,0,0-69.25-51.89-95.84,25.84,0,0-90.42,23.46-128.88-24.73,0,0-42.4,14.46-14.87,64.03,0,0-20.01,77.57-20.28,111.08-.12,14.73,1.62,32.2,5.53,49.97,1.49,6.73,3.28,13.51,5.41,20.19,3.58,11.31,8.12,22.33,13.7,32.45" style="fill: none; stroke: #000; stroke-linecap: round; stroke-linejoin: round; stroke-width: 13.37px;"/>
            <path d="m1869.5,1865.16c-.1-.49-.22-1.01-.36-1.54-2.27-8.37-9.4-20.81,9.83-16.86,29.11,5.98,58.64,62.15,58.64,62.15,0,0,92.4,61.97,97.65,94.23" style="fill: none; stroke: #000; stroke-linecap: round; stroke-linejoin: round; stroke-width: 13.37px;"/>
            <path d="m1514.54,2157.91s.7.14,2.04.41c15.09,3,110.93,22.42,186.18,45.18,81.91,24.78,132.88,59.25,280.66,45.53,147.78-13.71,164.98-71.1,164.98-71.1" style="fill: none; stroke: #000; stroke-linecap: round; stroke-linejoin: round; stroke-width: 13.37px;"/>
            <path d="m1502.61,2125.82s.09.02.27.05c5.96,1.12,111.03,21.02,193.55,44.76.69.19,1.38.39,2.06.59,85.24,24.68,138.25,59.12,292.09,45.24,132.93-11.98,164.41-56.47,170.52-68.34.96-1.87,1.29-2.93,1.29-2.93" style="fill: none; stroke: #000; stroke-linecap: round; stroke-linejoin: round; stroke-width: 13.37px;"/>
            <path d="m1751.81,1879.49s129.59,124.71,156.69,139.67c0,0,34,34,102,29s36.42-38.67,36.42-38.67" style="fill: none; stroke: #000; stroke-linecap: round; stroke-linejoin: round; stroke-width: 13.37px;"/>
            <path d="m1511.5,1937.16s78,42,163,10" style="fill: none; stroke: #000; stroke-linecap: round; stroke-linejoin: round; stroke-width: 13.37px;"/>
            <path d="m1500.5,2105.16s196,48,269,39,73-40,132-33,97,46,200,26c55.14-10.71,58.96-44.31,59.23-48.77.02-.32.02-.49.02-.49" style="fill: none; stroke: #000; stroke-linecap: round; stroke-linejoin: round; stroke-width: 13.37px;"/>
          </g>
        </g>
        <g>
          <path d="m1830.57,1997.56c-2.56,0-4.99-.84-7.02-2.42-4.98-3.88-5.88-11.1-2.01-16.1,5.43-6.99,18.25-19.07,38.13-35.94-38.76,2.54-70.35,9.81-70.68,9.88-.85.2-1.72.3-2.59.3-4.28,0-8.17-2.36-10.15-6.17-2.41-4.64-1.39-10.33,2.49-13.83,12.86-11.6,25.69-22.27,38.2-31.77-1.47-.02-2.95-.04-4.45-.06-4.11-.05-8.38-.07-12.7-.07-40.75,0-76.89,2.12-78.41,2.21-.25.01-.49.02-.72.02-6.03,0-11.04-4.74-11.41-10.78-.19-3.06.83-6.01,2.86-8.3s4.82-3.66,7.88-3.84c.36-.02,37.2-2.25,79.69-2.25,4.41,0,8.77.02,12.97.07,12.95.15,24.99.52,35.82,1.11,23.73-14.85,37.4-19.5,38.89-19.99,1.15-.37,2.34-.56,3.53-.56,4.98,0,9.35,3.19,10.89,7.93,1.94,6-1.35,12.48-7.33,14.44-.1.03-1.95.67-5.33,2.16,28.1,4.49,37.11,11.15,41.45,15.89,2.16,2.36,3.24,5.54,2.97,8.73s-1.87,6.14-4.4,8.1c-1.95,1.52-4.22,3.29-6.73,5.26,14.79,1.95,28.02,5.15,39.37,9.51,5.89,2.26,8.85,8.91,6.59,14.82-1.69,4.41-5.98,7.37-10.69,7.37-1.4,0-2.78-.26-4.09-.76-15.2-5.84-34.46-9.23-57.23-10.07-30.56,24.89-50.7,42.87-56.75,50.67-2.18,2.81-5.48,4.43-9.04,4.43h0Zm23.99-94.57c-9.16,6.01-18.65,12.81-28.26,20.28,20.34-2.65,39.81-4,57.96-4,1.42,0,2.85,0,4.28.03,4.08-3.29,8.22-6.6,12.33-9.87-5.8-1.58-13.06-2.94-21.64-4.08-7.24-.96-15.53-1.75-24.66-2.36h0Z" style="fill: #fff; stroke: #000; stroke-linecap: round; stroke-linejoin: round; stroke-width: 9.55px;"/>
          <path d="m1851.06,2012.67c-3.48,0-6.73-1.55-8.91-4.26-3.96-4.91-3.2-12.14,1.68-16.11,1.93-1.57,47.94-38.34,116.3-38.34,10.17,0,20.47.82,30.61,2.45,3.02.48,5.67,2.12,7.46,4.6,1.79,2.48,2.51,5.51,2.03,8.54-.89,5.6-5.64,9.66-11.28,9.66h0c-.61,0-1.23-.05-1.84-.15-8.73-1.4-17.65-2.11-26.51-2.11-27.97,0-51.31,7.08-65.96,13.02-22.63,9.18-36.28,20.05-36.42,20.16-2.03,1.64-4.58,2.54-7.18,2.54h.02Z" style="fill: #fff; stroke: #000; stroke-linecap: round; stroke-linejoin: round; stroke-width: 9.55px;"/>
        </g>
        <path d="m1542.41,1899.87s-14.54-24.29-27.47-11.34c-12.93,12.96-17.78,53.45,12.93,63.16,0,0-25.85-4.86-24.24,43.73,0,0,27.47,74.5,46.86,100.42,19.39,25.91,16.78,76.13,16.78,76.13,0,0,101.8,17.82,171.29,43.73,69.48,25.91,197.14,59.93,308.64,22.67,111.5-37.25,106.65-64.78,106.65-64.78,0,0-5.46,6.47,2.62-9.73s11.31-40.49,9.7-55.07c0,0-116.35,80.98-355.5,29.15-239.16-51.83-263.4-95.56-261.78-152.24,1.62-56.69-6.46-85.84-6.46-85.84h-.02Z" style="isolation: isolate; opacity: .2;"/>
      </g>
      <g>
        <g>
          <g>
            <g>
              <path d="m1094.13,1932.98c1.08-9.84.61-19.93-2.06-30.22-6.47-24.84,19.39-29.15,19.39-29.15-3.23,15.12,38.79,37.79,38.79,37.79,16.16-22.67,45.24-23.75,65.71-22.67s24.78,29.36,24.78,29.36c-2.16,11.02,30.18,120.46,59.26,162.57,0,0,27.48,35,87,35,89,0,75-58,75-58-1-15-19.81-147.6-19.81-147.6-3.61-5.95-6.92-11.28-11.19-15.88l4.72-.05,20.47-23.76c15.08,3.24,23.7,23.76,23.7,33.47,0,1.62-.24,6.02-.35,12.41-.52,32.13,2.28,114.43,55.29,144.15,7.24,4.06,13.45,8.77,18.76,13.92,27.05,26.22,30.96,63.96,30.43,86.92l-3.52-.08s-8-28-33-22-22,74-132,79c-129.11,5.87-133-43-180-55-45.17-11.53-68,2-95-2s-61.16-58.58-61.16-58.58l-2.82.77c-4.98-18.15-6-29.99-6-29.99-12.92-23.75,2.16-78.82,11.85-100.42,5.69-12.65,10.26-26.05,11.76-39.96Z" style="fill: #fff;"/>
              <path d="m1555.3,2074.17l-1.71.15c-5.31-5.15-11.52-9.86-18.76-13.92-53.01-29.72-55.81-112.02-55.29-144.15h.62c1.62,2.36,68.68,127.29,75.14,157.92Z" style="fill: #fff;"/>
            </g>
            <path d="m1584.44,2189.96h-.05s21.61,131.7-213.31,131.74c-300.61.05-303.79-187.88-303.79-187.88,0,0,0-57.22,3.23-60.46,0,0,1.02,11.84,6,29.99,17.42,63.63,83.33,204.78,323.48,184.31,129-11,172.79-61.82,182.43-105.71.36,1.16,1.17,3.95,2.01,8.01h0Z" style="fill: #fff;"/>
            <path d="m1580.5,2161.16l3.52.08c-.27,12.11-1.79,20.1-1.79,20.1,0,0,.07.21.2.61-9.64,43.89-53.43,94.71-182.43,105.71-240.15,20.47-306.06-120.68-323.48-184.31l2.82-.77s34.16,54.58,61.16,58.58,49.83-9.53,95,2c47,12,50.89,60.87,180,55,110-5,107-73,132-79s33,22,33,22h0Z" style="fill: #ddd;"/>
            <path d="m1387,2116.66c-59.32,0-87.51-35.03-87.79-35.38-28.65-41.48-61.8-151.41-59.45-163.38l.03-.13.06-.12c.23-.45,5.71-11.13,21.01-22.03,14.05-10.01,39.39-22.04,80.32-22.46,2.21-.02,4.37-.04,6.47-.04,54.36,0,72.47,7.8,84.08,20.39,4.22,4.55,7.48,9.73,11.31,16.04l.11.17.03.2c.19,1.32,18.76,132.33,19.81,147.59.37,1.59,4.24,19.99-8.41,36.06-12.06,15.32-34.8,23.09-67.58,23.09h0Z" style="fill: #fff;"/>
          </g>
          <g>
            <line x1="1584.44" y1="2189.96" x2="1584.39" y2="2189.97" style="fill: none; stroke: #000; stroke-linecap: round; stroke-linejoin: round; stroke-width: 13.37px;"/>
            <line x1="1435.72" y1="1894.13" x2="1431" y2="1894.18" style="fill: none; stroke: #000; stroke-linecap: round; stroke-linejoin: round; stroke-width: 13.37px;"/>
            <line x1="1094.13" y1="1932.98" x2="1094.23" y2="1932.99" style="fill: none; stroke: #000; stroke-linecap: round; stroke-linejoin: round; stroke-width: 13.37px;"/>
            <line x1="1170.2" y1="1958.08" x2="1168.56" y2="1958.91" style="fill: none; stroke: #000; stroke-linecap: round; stroke-linejoin: round; stroke-width: 13.37px;"/>
            <path d="m1240.74,1918.09s21.71-43.12,100.45-43.94c57.54-.61,77.58,6.77,89.81,20.03" style="fill: none; stroke: #000; stroke-linecap: round; stroke-linejoin: round; stroke-width: 13.37px;"/>
            <path d="m1431,1894.18c4.27,4.6,7.58,9.93,11.19,15.88,0,0,18.81,132.6,19.81,147.6,0,0,14,58-75,58-59.52,0-87-35-87-35-29.08-42.11-61.42-151.55-59.26-162.57" style="fill: none; stroke: #000; stroke-linecap: round; stroke-linejoin: round; stroke-width: 13.37px;"/>
            <path d="m1582.43,2181.95c.36,1.16,1.17,3.95,2.01,8.01" style="fill: none; stroke: #000; stroke-linecap: round; stroke-linejoin: round; stroke-width: 13.37px;"/>
            <path d="m1070.52,2073.36c-3.23,3.24-3.23,60.46-3.23,60.46" style="fill: none; stroke: #000; stroke-linecap: round; stroke-linejoin: round; stroke-width: 13.37px;"/>
            <path d="m1094.13,1932.98c-1.5,13.91-6.07,27.31-11.76,39.96-9.69,21.6-24.77,76.67-11.85,100.42" style="fill: none; stroke: #000; stroke-linecap: round; stroke-linejoin: round; stroke-width: 13.37px;"/>
            <path d="m1582.43,2181.95c-.13-.4-.2-.61-.2-.61,0,0,1.52-7.99,1.79-20.1.53-22.96-3.38-60.7-30.43-86.92-5.31-5.15-11.52-9.86-18.76-13.92-53.01-29.72-55.81-112.02-55.29-144.15.11-6.39.35-10.79.35-12.41,0-9.71-8.62-30.23-23.7-33.47l-20.47,23.76" style="fill: none; stroke: #000; stroke-linecap: round; stroke-linejoin: round; stroke-width: 13.37px;"/>
            <path d="m1150.25,1911.4c16.16-22.67,45.24-23.75,65.71-22.67s24.78,29.36,24.78,29.36" style="fill: none; stroke: #000; stroke-linecap: round; stroke-linejoin: round; stroke-width: 13.37px;"/>
            <path d="m1094.13,1932.98c1.08-9.84.61-19.93-2.06-30.22-6.47-24.84,19.39-29.15,19.39-29.15-3.23,15.12,38.79,37.79,38.79,37.79" style="fill: none; stroke: #000; stroke-linecap: round; stroke-linejoin: round; stroke-width: 13.37px;"/>
            <path d="m1584.39,2169.45c-.38,4.04-1.02,8.21-1.96,12.5" style="fill: none; stroke: #000; stroke-linecap: round; stroke-linejoin: round; stroke-width: .48px;"/>
            <path d="m1582.43,2181.95c-9.64,43.89-53.43,94.71-182.43,105.71-240.15,20.47-306.06-120.68-323.48-184.31-4.98-18.15-6-29.99-6-29.99" style="fill: none; stroke: #000; stroke-linecap: round; stroke-linejoin: round; stroke-width: 13.37px;"/>
            <path d="m1067.29,2133.82s3.18,187.93,303.79,187.88c234.92-.04,213.31-131.73,213.31-131.73" style="fill: none; stroke: #000; stroke-linecap: round; stroke-linejoin: round; stroke-width: 13.37px;"/>
            <path d="m1168.56,1958.91c-44.17,6.48-74.33-25.92-74.33-25.92" style="fill: none; stroke: #000; stroke-linecap: round; stroke-linejoin: round; stroke-width: 13.37px;"/>
            <path d="m1480.16,1916.26c1.62,2.35,68.68,127.28,75.14,157.91" style="fill: none; stroke: #000; stroke-linecap: round; stroke-linejoin: round; stroke-width: 13.37px;"/>
            <path d="m1079.34,2102.58s34.16,54.58,61.16,58.58,49.83-9.53,95,2c47,12,50.89,60.87,180,55,110-5,107-73,132-79s33,22,33,22" style="fill: none; stroke: #000; stroke-linecap: round; stroke-linejoin: round; stroke-width: 13.37px;"/>
          </g>
        </g>
        <g>
          <path d="m1256.95,2025.48c-3.7,0-7.17-1.18-9.77-3.32-2.83-2.33-4.3-5.47-4.16-8.86.15-3.41,2.01-6.58,5.1-8.7,6.5-4.44,17.01-9.27,31.34-14.4-19.97-.64-35.44-.73-42.02-.73-2.9,0-4.54.01-4.69.02h-.21c-5.46,0-10.42-2.68-12.65-6.82-2.61-4.85-1.08-10.59,3.71-13.95,10.09-7.08,29.35-15.37,57.34-24.68-45.3-4.59-78.92-7.87-79.55-7.92-4.24-.34-8-2.24-10.31-5.21-1.8-2.32-2.57-5.13-2.17-7.91.84-5.88,6.78-10.31,13.81-10.31.45,0,.91.02,1.37.06,1.82.15,52.83,4.93,113.5,11.42,7.45.8,14.77,1.6,21.77,2.4,48.44-13.3,93.8-23.44,95.71-23.87,1.18-.27,2.41-.4,3.64-.4,6,0,11.31,3.19,13.2,7.95,1.11,2.79.96,5.82-.42,8.51-1.68,3.29-5.02,5.71-9.15,6.63-5.93,1.32-20.14,4.55-39.53,9.32,14.61,2.18,26.79,4.29,36.35,6.31,2.01-.89,4.26-1.36,6.55-1.36,1.29,0,2.58.15,3.83.44,1.57.37,3.13.75,4.69,1.13.67.17,1.34.37,1.96.62,7.93,3.09,13.17,8.47,14.36,14.78l.07.36c.03.15.04.3.05.45.05.43.07.87.07,1.3v.34c-.03.61-.11,1.2-.23,1.76l-.08.32c-.09.37-.24.85-.44,1.34-.07.17-.11.27-.16.37-.23.52-.49.99-.78,1.44l-.17.24c-.21.31-.51.7-.82,1.06l-.24.27c-.42.46-.8.82-1.2,1.15l-.2.16c-.28.23-.7.53-1.15.82l-.27.17c-.94.57-1.93,1.02-2.98,1.37l-.37.12c-.42.13-.8.23-1.2.32l-.43.1c-5.35,1.01-22.17,4.22-44.89,9.1,21.94,4.02,40.08,8.9,54.05,14.55,3.77,1.52,6.49,4.38,7.45,7.84.86,3.07.27,6.23-1.65,8.89-2.48,3.45-7.05,5.6-11.92,5.6-2.1,0-4.21-.4-6.1-1.17-22.83-9.23-58.89-16.12-107.21-20.5-55.69,14.16-76.43,23.31-84.02,28.49-2.47,1.69-5.6,2.61-8.82,2.61l.04-.02Zm31.17-58.55c20.59.77,40.75,1.97,59.08,3.54,16.22-4.06,33.94-8.18,52.87-12.31-16.08-2.43-35.49-4.97-57.97-7.58-20.86,5.81-38.95,11.29-53.98,16.34h0Z" style="fill: #fff; stroke: #000; stroke-linecap: round; stroke-linejoin: round; stroke-width: 9.55px;"/>
          <path d="m1267.96,2054.39c-6.68,0-12.43-3.99-13.67-9.5-.63-2.8-.07-5.69,1.59-8.14,2.1-3.1,5.74-5.18,9.97-5.72,3.76-.48,92.81-11.68,157.86-11.68,6.11,0,11.74-.15,17.18-.29,4.65-.12,9.05-.24,13.13-.24,6.77,0,11.66.32,15.84,1.04,4.2.72,7.7,2.96,9.61,6.16,1.53,2.57,1.9,5.52,1.05,8.33-1.57,5.16-7.12,8.76-13.48,8.76-.95,0-1.91-.08-2.84-.24-2.93-.5-6.47-.73-11.16-.73-3.68,0-7.77.14-12.1.29-5.07.18-10.83.38-16.93.38-63.48,0-153.03,11.33-153.93,11.44-.72.09-1.43.13-2.13.13h.01Z" style="fill: #fff; stroke: #000; stroke-linecap: round; stroke-linejoin: round; stroke-width: 9.55px;"/>
        </g>
        <path d="m1135.16,1909.78s-33.93,14.58-24.24,38.87c-1.62,8.1-45.25,97.18-21.01,183.02s195.53,110.13,290.87,110.13,174.51-27.37,189.06-70.37c0,0,28.4,37.74,4.16,78.23s-94,79-271,67c-196.39-13.31-226.01-131.55-230.86-144.5s-8.08-66.4-4.85-80.98-9.7-50.21,3.23-82.6c12.93-32.39,19.39-45.35,22.62-64.78,3.23-19.44-9.7-55.07,0-59.93,9.7-4.86,25.85,4.86,25.85,4.86l16.16,21.05h0Z" style="isolation: isolate; opacity: .2;"/>
      </g>
    </g>
  </g>
</svg>