<?xml version="1.0" encoding="UTF-8"?>
<svg id="CLOTHING" xmlns="http://www.w3.org/2000/svg" xmlns:xlink="http://www.w3.org/1999/xlink" viewBox="0 0 3000 3000">
  <defs>
    <clipPath id="clippath">
      <path d="m1772.85,1144.23s43.75-15.72,83.41,4.68c0,0,8.6,65.78-33.15,73.41,0,0-44.7-3.1-50.25-78.09h-.01Z" style="fill: none;"/>
    </clipPath>
  </defs>
  <g id="Volleyball-Women-Cuba">
    <circle cx="1500" cy="1500" r="1200" style="fill: #4c6164;"/>
    <g>
      <path d="m754.07,1115.83s196.76,81.3,216.85,250.73c0,0,11.22,32.26-24.85,24.85,0,0-78.6,72.33-85.84,117.46,0,0,9.68,34.16-6.78,36.14,0,0-239.46,4.98-273.46,22.98,0,0-20-34,0-41,0,0,9.96-260.1,151.48-384.05,0,0-6.34-36.26,22.59-27.11h0Z" style="fill: #fff; stroke: #000; stroke-miterlimit: 10; stroke-width: 14px;"/>
      <path d="m2051.3,1070.43l-134.15,131.52s2.85,72.04,1.85,150.04c6.5,15.5,110.24,83.41,223.5,75.5s196-54,258-150c0,0,40-5,24.32-30.82-12.32-20.29-218.32-189.18-218.32-189.18,0,0-34-3-27,28,0,0-39,39-103-2,0,0-7.39-31.12-25.2-13.06Z" style="fill: #fff; stroke: #000; stroke-miterlimit: 10; stroke-width: 14px;"/>
    </g>
    <path d="m977.69,959.97h.02l3.25-.91c5.41-1.44,11.5-2.6,18.11-3.54,20.08-.44,50.08,8.95,70.93,60.47,11.71,28.93,20.1,62.36,25.53,95.98,1.82,11.25,3.31,22.53,4.48,33.66,2.29,21.74,3.37,42.92,3.34,62.36-.04,27.21-2.25,50.98-6.35,68-13,54-42,48-42,48,0,0-17,27,8.53,38.05,0,0,24.73,46.8,27.1,82.87,0,0,86.6,15.29,232.24,21.93,68.58,3.14,150.25,4.35,242.13,1.15,125.18-4.36,207.34-12.75,260.18-20.82,68.32-10.43,87.66-20.33,87.66-20.33,0,0,11.89-87.2,3.38-193.2-2.87-35.94-8.1-74.05-16.93-111.65-3.45-14.73-7.46-29.38-12.1-43.79-10.04-31.2-23.02-61.28-39.71-88.63-17.83,8.75-36.76,16.76-56.87,23.89-14.32,5.07-29.24,9.7-44.79,13.83-4.78,1.28-9.63,2.51-14.54,3.69-20,4.8-41,8.8-63.05,11.9l-76.23,89.11-142.2-79.11c-28.9-1.45-56.8-4.03-83.7-7.62-16.67-2.2-32.97-4.8-48.88-7.75-18.61-3.44-36.7-7.37-54.28-11.71-88.15-21.81-163.61-54.33-227.32-91.06-8.97,2.34-15.56,4.23-18.62,5.25-14.77,4.92-38.55,19.51-39.29,19.97" style="fill: #e81010;"/>
    <g>
      <path d="m1667.72,1041.94l.37-.05c21.54-3.03,42.72-7.03,62.96-11.88,4.93-1.19,9.81-2.42,14.51-3.68,15.19-4.03,30.23-8.68,44.71-13.81,19.55-6.93,38.64-14.95,56.76-23.84l.82-.4.47.78c10.1,16.55,19.29,34.9,27.33,54.54l.37.91-.91.39c-73.22,31.16-189.8,46.41-252.77,52.72l-2.48.25,47.84-55.92h.02Z" style="fill: #0537c4;"/>
      <path d="m1084.67,1064.52l-.18-.7c-4.46-17.22-9.64-33.19-15.42-47.46-20.02-49.47-48.4-59.86-68.69-59.86-.42,0-.83,0-1.24.01-6.79.97-12.82,2.15-17.93,3.51l-9.93,2.75,5.9-3.67c.24-.15,24.4-15.04,39.5-20.07,3.42-1.14,10.41-3.11,18.68-5.27l.4-.1.36.21c70.12,40.42,146.51,71.03,227.06,90.96,17.91,4.42,36.15,8.36,54.22,11.7,16.12,2.99,32.55,5.59,48.83,7.74,27.23,3.63,55.36,6.2,83.62,7.61h.23l81.54,45.38-446.95-32.74h0Z" style="fill: #0537c4;"/>
    </g>
    <g>
      <path d="m1702.92,1037.11l-108.01,130.67-190.47-118.17c14.83,1.4,29.95,2.5,45.36,3.27l142.2,79.11,76.23-89.11c11.87-1.67,23.43-3.6,34.69-5.77h0Z" style="fill: #0537c4;"/>
      <path d="m1738.97,1029.08l-127.12,162.42-32.18,1.7-231.51-150.48c5.93.9,11.91,1.74,17.94,2.54,12.56,1.67,25.34,3.13,38.34,4.35l190.47,118.17,108.01-130.67c9.67-1.87,19.12-3.91,28.36-6.13,2.58-.62,5.14-1.25,7.69-1.9h0Z" style="fill: #0537c4;"/>
    </g>
    <g>
      <path d="m1116.93,1449.91c-17.13-2.37-26.38-4-26.48-4.02l-.77-.14-.05-.78c-2.23-33.93-24.7-78.05-26.83-82.16-7.03-3.12-11.53-7.75-13.39-13.75-3.71-11.98,4.39-25.06,4.74-25.61l.37-.59.68.14s.9.18,2.4.18h0c3.71,0,11.1-1.06,18.8-8.14l1.09-1,.52,1.39c14.1,37.7,38.05,105.15,40.05,133.42l.09,1.23-1.22-.17h0Z" style="fill: #e81010;"/>
      <path d="m1147.49,1453.85c-10.88-1.31-21.16-2.63-30.56-3.94l-.8-.11-.06-.81c-1.98-28.02-25.87-95.27-39.93-132.86l-.24-.63.49-.46c6.88-6.33,12.49-16.05,16.69-28.87l.87-2.66,1.01,2.6c18.99,48.84,51.23,135.39,53.69,166.19v.11l-.19,1.54-.98-.12v.02Z" style="fill: #fff;"/>
    </g>
    <g>
      <g style="clip-path: url(#clippath);">
        <g>
          <path d="m1772.85,1144.23s43.75-15.72,83.41,4.68c0,0,8.6,65.78-33.15,73.41,0,0-44.7-3.1-50.25-78.09h-.01Z" style="fill: #fff;"/>
          <g>
            <g>
              <polygon points="1866.3 1154.84 1765.03 1154.84 1762.85 1135.2 1864.12 1135.2 1866.3 1154.84" style="fill: #104fdd;"/>
              <polygon points="1870.11 1189.21 1768.84 1189.21 1766.66 1169.57 1867.93 1169.57 1870.11 1189.21" style="fill: #104fdd;"/>
              <polygon points="1874.04 1224.66 1772.77 1224.66 1770.59 1205.02 1871.86 1205.02 1874.04 1224.66" style="fill: #104fdd;"/>
            </g>
            <polygon points="1765.9 1133.08 1832.42 1174.6 1786.86 1225.15 1765.9 1133.08" style="fill: #bf0c0c;"/>
            <polygon points="1813.29 1187.76 1803.2 1183.14 1795.79 1189.89 1796.37 1179.74 1786.58 1174.46 1797.03 1172.81 1798.39 1162.8 1804.27 1171.93 1814.9 1171.02 1808.08 1178.32 1813.29 1187.76" style="fill: #fff;"/>
          </g>
        </g>
      </g>
      <path d="m1772.85,1144.23s43.75-15.72,83.41,4.68c0,0,8.6,65.78-33.15,73.41,0,0-44.7-3.1-50.25-78.09h-.01Z" style="fill: none; stroke: #f2cd33; stroke-linecap: round; stroke-linejoin: round; stroke-width: 6.68px;"/>
    </g>
    <path d="m977.69,959.97h.02l3.25-.91c5.41-1.44,11.5-2.6,18.11-3.54,20.08-.44,50.08,8.95,70.93,60.47,11.71,28.93,20.1,62.36,25.53,95.98,1.82,11.25,3.31,22.53,4.48,33.66,2.29,21.74,3.37,42.92,3.34,62.36-.04,27.21-2.25,50.98-6.35,68-13,54-42,48-42,48,0,0-17,27,8.53,38.05,0,0,24.73,46.8,27.1,82.87,0,0,86.6,15.29,232.24,21.93,68.58,3.14,150.25,4.35,242.13,1.15,125.18-4.36,207.34-12.75,260.18-20.82,68.32-10.43,87.66-20.33,87.66-20.33,0,0,11.89-87.2,3.38-193.2-2.87-35.94-8.1-74.05-16.93-111.65-3.45-14.73-7.46-29.38-12.1-43.79-10.04-31.2-23.02-61.28-39.71-88.63-17.83,8.75-36.76,16.76-56.87,23.89-14.32,5.07-29.24,9.7-44.79,13.83-4.78,1.28-9.63,2.51-14.54,3.69-20,4.8-41,8.8-63.05,11.9l-76.23,89.11-142.2-79.11c-28.9-1.45-56.8-4.03-83.7-7.62-16.67-2.2-32.97-4.8-48.88-7.75-18.61-3.44-36.7-7.37-54.28-11.71-88.15-21.81-163.61-54.33-227.32-91.06-8.97,2.34-15.56,4.23-18.62,5.25-14.77,4.92-38.55,19.51-39.29,19.97" style="fill: none; stroke: #000; stroke-miterlimit: 10; stroke-width: 12px;"/>
    <path d="m1090,1466.99s2.92,98.6,20.96,150.3c0,0,269.04,84.7,376.04,11.7,0,0,12.54-20.95,23.77-18.48,11.23,2.48,25.23,24.48,25.23,24.48,0,0,294,47,352-43,0,0,27.72-150.95,29.36-173.48,0,0-69.36,35.48-311.36,42.48s-448-12-477-15-44-7-44-7c0,0-17,21,5,28Z" style="fill: #0537c4;"/>
    <g>
      <path d="m1135.82,1625.47c-15.66-4.25-25.07-7.2-25.16-7.23l-.48-.15-.17-.47c-9.35-26.8-14.57-66.33-17.3-94.77-2.68-27.9-3.55-50.88-3.7-55.13-5.84-2-9.46-5.21-10.76-9.55-2.69-8.98,5.6-19.37,5.96-19.8l.41-.5.63.17c.1.03,9.72,2.56,28.02,5.08l.8.11.06.8c3.37,42.41,12.34,144.86,22.9,180.21l.51,1.72-1.73-.47v-.02Z" style="fill: #0537c4;"/>
      <path d="m1166.65,1633.37c-10.81-2.61-21.18-5.27-30.83-7.9l-.54-.15-.16-.53c-10.62-35.54-19.61-138.16-22.98-180.63l-.1-1.24,1.23.17c4.85.67,10.17,1.31,15.83,1.9,4.25.45,10.9,1.08,18.23,1.73l.84.07.07.84c3.37,40.44,12.02,139.38,19.63,184.6l.25,1.49-1.47-.36h0Z" style="fill: #fff;"/>
    </g>
    <path d="m1090,1466.99s2.92,98.6,20.96,150.3c0,0,269.04,84.7,376.04,11.7,0,0,12.54-20.95,23.77-18.48,11.23,2.48,25.23,24.48,25.23,24.48,0,0,294,47,352-43,0,0,27.72-150.95,29.36-173.48,0,0-69.36,35.48-311.36,42.48s-448-12-477-15-44-7-44-7c0,0-17,21,5,28Z" style="fill: none; stroke: #000; stroke-miterlimit: 10; stroke-width: 12px;"/>
    <g>
      <path d="m2080,1972.99c-50-14-77.92-22.04-107.96-53.02-30.04-30.98-50.04-63.98-73.04-85.98-19.76-18.9-24.4-50.36-24.99-64.54.78-13.32.28-18.54,1.99-21.46,0,0,3-11-1-31-13.3-8.61-145.56,64.24-324,17-3.2-.85-18-1-17-2,2.12-2.12-10.1,16.97,0,29,0,0-6.04,35.55-9.05,62.97-2.74,15.52-10.32,57.49-15.95,80.03-4.71,18.83-14.31,33.82-11.6,55.99-1.64-4.43-3.1-8.22-4.4-10.99-6.33-13.57-28.71-42.06-27.14-98.38,5.84-35.04,12.73-72.73,16.14-77.62,11.25-16.15-9.76-49.06-9.76-49.06l-10.24,27.06c-241,45-340.89-32.47-340.89-32.47-23.11,11.47-9.9,45.24-9.11,55.47.28,3.59-1.61,17.43-4.17,33.89h-.05c-.79,4.1-1.55,8.76-1.79,10.1l-15.74,78.26s-23.87,33.28-24.56,113.51.31,107.23,45.31,137.23c0,0-21,103,240,87,205-6,217.48-18.32,232.24-86.16,6.9-31.71-.04-57.84-11.29-78.16,12.69,3.13,26.29,5.88,38.39,7,35.65,3.31,80.65,24.31,115.65,46.31s101.09,71.5,215.55,50.25,181.42-51.43,191.44-103.34c10.02-51.91-2.98-82.91-52.98-96.91v.02Z" style="fill: #fff; stroke: #000; stroke-linecap: round; stroke-linejoin: round; stroke-width: 13px;"/>
      <path d="m1498,1961.99s12,43,32,64c19.99,20.99,45.79,43.86,52.4,72.43" style="fill: none; stroke: #000; stroke-miterlimit: 10; stroke-width: 14px;"/>
      <g>
        <path d="m1534.18,1777.78s24.45,12.29,134.61,14c145.62,2.26,204.43-30,204.43-30l-1.37,17.58s-41.73,26.31-159.39,31.18c-123,5.08-179.43-15.37-179.43-15.37l1.15-17.39Z" style="fill: #fff;"/>
        <path d="m1873.66,1746.04c.04,5.22-.06,10.89-.44,15.74,0,0-58.81,32.26-204.43,30-110.16-1.71-134.61-14-134.61-14l.49-15.24c6.2,1.59,72.46,17.7,182.84,12.87,118.07-5.17,155.48-29.37,155.48-29.37h.67Z" style="fill: #fff;"/>
        <path d="m1534.68,1762.54s37.5,10.39,89.77,13.83c80.55,5.3,194.7.9,249.22-30.33.77-.44-.38-17.95-.38-17.95,0,0-18.47,10.91-81.71,22.28-70.2,12.63-135.93,17.83-255.53-5.2l-1.37,17.37h0Z" style="fill: #fff;"/>
        <path d="m1474.26,1783.84c-.68.25-69.31,24.51-157.45,24.5-16.58,0-33.03-.86-48.88-2.56-56.31-6.03-93.32-18.15-114.45-27.25-22.88-9.86-36.46-18.67-36.56-18.75l-1.4-1.25c1.48,8.86,2.78,16.93,2.46,22.57l1.85.71c.16.1,17.01,10.16,47.69,20.73,28.28,9.75,74.75,21.56,135.5,22.43,3.95.06,7.93.09,11.81.09,108.53,0,155.59-22.55,156.05-22.78l.42-.21,4.75-18.87-1.8.64h.01Z" style="fill: #fff;"/>
        <path d="m1475.54,1770.99l-.23.07c-47.83,14.47-97.5,21.81-147.61,21.81-121.69,0-207.27-43.54-208.12-43.98l-5.6-2.24c.05,1.93.23,3.96.58,6.07.41,2.5.83,4.97,1.23,7.37l3.65,1.43c.4.35,9.95,8.8,33.09,18.78,21.27,9.18,58.53,21.41,115.19,27.47,15.93,1.71,32.45,2.57,49.1,2.57,88.5,0,157.46-24.38,158.15-24.63l.55-.2,2.57-14.09-2.53-.43h-.02Z" style="fill: #fff;"/>
        <path d="m1479.14,1755.95c-9.72,6.36-66.76,18.83-154.58,18.83-14.27,0-28.89-.33-43.45-1-108.39-4.93-159.89-40.45-160.4-40.81l-4.31-2.41c-1.03,2.91-2.87,9.46-2.35,17.73l4.57,2.37c.85.44,86.83,44.21,209.07,44.21,50.24,0,100.03-7.34,147.98-21.83l2.04.35,3.41-18.75-1.99,1.3h.01Z" style="fill: #fff;"/>
      </g>
      <g>
        <path d="m1105.78,1744.91s62.22,40.08,134.22,45.08-12,23-31,32-59,60-63,98-25,39-31,89,12.89,64,36.44,80.5c0,0-6.44,53.5,118.56,66.5s287.79,13.33,317.4-56.34c0,0,3.04,97.33-50.18,112.84-53.22,15.5-166.3,19.67-194.26,22.59-27.96,2.91-143,2.39-187.48-24.85s-44.62-40.18-44.05-54.21-16.74-20.18-22.59-27.11c-5.84-6.92-30.59-66.62-23.72-133.27s28.24-108.42,28.24-108.42l18.07-102.78s2.14-32.61-5.65-39.53h0Z" style="isolation: isolate; opacity: .2;"/>
        <path d="m1586.91,1744.91s-16.91,7.08-.91,25.08c9,2,50,9,78,8s-46,7-70,22-49.8,119.99-22.9,154.99,94.9,52.01,152.9,64.01,84.6,76.41,154.3,86.2c69.7,9.8,235.53-23.4,254.12-76.8,0,0,22.81,66.7-46.31,101.65-69.11,34.95-200.66,79.04-291.39,30.49s-150.13-82.35-173.93-82.45-46.15-4.27-56.47-14.68c-10.32-10.42-49.32-54.08-50.82-63.25s-19.57-54.47-9.04-81.32c10.53-26.85,23.42-101.32,25.98-118.59,2.56-17.26,6.78-31.62,6.78-31.62,0,0-13.22-42.64,14.78-29.64,38.59,17.92,0,0,0,0l34.91,5.92h0Z" style="isolation: isolate; opacity: .2;"/>
      </g>
    </g>
    <g>
      <g>
        <path d="m1672.05,1219.87l15.94,14.25,3.84,105.44-14.85,15.53-58.69,2.43-15.74-14.08-3.9-105.75,14.71-15.38,58.69-2.43h0Zm-16.91,29.51l-22.58.93,2.83,77.68,22.58-.93-2.83-77.68Z" style="fill: rgba(255, 255, 255, 0);"/>
        <path d="m1643.74,1327.65l8.32-.34,1.05,28.77-50.07,2.07-1.05-28.77,8.32-.34-2.83-77.68-8.32.34-1.05-28.77,41.72-1.73,3.9,106.45h.01Z" style="fill: rgba(255, 255, 255, 0);"/>
        <path d="m1599.69,1266.24l-1.04-28.42,14.85-15.53,58.69-2.43,15.79,14.12,1.92,52.52-14.71,15.35-35.48,1.47-5.11,4.27.74,20.41,22.63-.94-.53-14.54,33.35-1.38,1.58,43.31-89.34,3.7-2.45-67.27,14.72-15.35,35.48-1.47,5.11-4.26-.6-16.37-5.33-3.82-12.32.51-4.98,4.25.38,10.51-33.35,1.38v-.02Z" style="fill: rgba(255, 255, 255, 0);"/>
        <path d="m1689.64,1279.48l-7.35,7.67,7.89,7.04,1.66,45.5-14.71,15.38-58.69,2.43-15.94-14.25-1.04-28.42,33.35-1.38.38,10.51,5.28,3.82,12.32-.51,5.04-4.25-.6-16.37-5.4-3.83-17.38.72-1.05-28.77,17.38-.72,5.11-4.26-.6-16.38-5.33-3.82-12.32.51-4.98,4.25.38,10.51-33.35,1.38-1.04-28.42,14.85-15.53,58.69-2.43,15.79,14.12,1.66,45.5h0Z" style="fill: rgba(255, 255, 255, 0);"/>
        <path d="m1690.96,1315.61l-8.32.34.37,10.07,8.32-.34,1.05,28.77-50.07,2.07-1.05-28.77,8.32-.34-.37-10.07-47.59,1.97-1.05-28.77,23.58-68.69,54.96-2.28,2.47,67.61,8.33-.34,1.05,28.77h0Zm-42.79-27.04l-1.11-30.33-10.28,30.8,11.39-.47h0Z" style="fill: rgba(255, 255, 255, 0);"/>
        <path d="m1634.81,1313.46l.38,10.51,5.28,3.82,12.32-.51,5.03-4.25-.6-16.37-5.4-3.83-50.73,2.1-2.99-81.99,89.34-3.7,1.58,43.31-33.35,1.38-.53-14.54-22.63.94.89,24.45,40.73-1.69,15.79,14.09,1.92,52.52-14.71,15.38-58.69,2.43-15.94-14.25-1.04-28.42,33.35-1.38h0Z" style="fill: rgba(255, 255, 255, 0);"/>
        <path d="m1689.03,1262.54l-33.35,1.38-.38-10.51-5.28-3.82-12.32.51-5.03,4.25.74,20.41,40.59-1.68,15.94,14.25,1.9,52.22-14.85,15.53-58.69,2.43-15.79-14.12-3.85-105.71,14.71-15.38,58.69-2.43,15.94,14.25,1.04,28.42h0Zm-54.57,40.99l.74,20.42,5.33,3.82,12.32-.51,4.99-4.25-.6-16.39-5.28-3.82-17.5.72h0Z" style="fill: rgba(255, 255, 255, 0);"/>
        <path d="m1688.5,1248l-28.08,78.96,10.37-.43,1.05,28.77-58.41,2.42-1.05-28.77,14.61-.6,28.11-78.96-22.58.94.53,14.54-33.35,1.38-1.58-43.31,89.34-3.7,1.05,28.77h-.01Z" style="fill: rgba(255, 255, 255, 0);"/>
        <path d="m1687.98,1233.98l1.66,45.5-7.35,7.67,7.89,7.04,1.65,45.36-14.71,15.52-58.69,2.43-15.94-14.25-1.65-45.36,7.36-7.67-7.89-7.04-1.66-45.5,14.86-15.39,58.69-2.43,15.79,14.12h-.01Zm-32.1,35.81l-.6-16.37-5.33-3.82-12.27.51-5.03,4.25.6,16.37,5.4,3.83,12.12-.5,5.11-4.26h0Zm1.94,53.23l-.6-16.37-5.4-3.83-12.12.5-5.11,4.26.6,16.37,5.33,3.82,12.27-.51,5.03-4.25h0Z" style="fill: rgba(255, 255, 255, 0);"/>
        <path d="m1634.81,1313.46l.38,10.51,5.28,3.82,12.32-.51,5.03-4.25-.75-20.41-40.59,1.68-15.94-14.25-1.9-52.22,14.85-15.53,58.69-2.43,15.79,14.12,3.85,105.71-14.71,15.38-58.69,2.43-15.94-14.25-1.04-28.42,33.35-1.38h.02Zm21.22-39.62l-.74-20.42-5.33-3.82-12.32.51-4.98,4.25.6,16.39,5.28,3.82,17.5-.72h-.01Z" style="fill: rgba(255, 255, 255, 0);"/>
      </g>
      <g>
        <path d="m1529.57,1317.82l.38,10.51,5.28,3.82,12.32-.51,5.03-4.25-.75-20.41-40.59,1.68-15.94-14.25-1.9-52.22,14.85-15.53,58.69-2.43,15.79,14.12,3.85,105.71-14.71,15.38-58.69,2.43-15.94-14.25-1.04-28.42,33.35-1.38h.02Zm21.22-39.62l-.74-20.42-5.33-3.82-12.32.51-4.98,4.25.6,16.39,5.28,3.82,17.5-.72h-.01Z" style="fill: rgba(255, 255, 255, 0);"/>
        <path d="m1582.74,1238.34l1.66,45.5-7.36,7.67,7.89,7.04,1.65,45.36-14.71,15.52-58.69,2.43-15.94-14.25-1.65-45.36,7.35-7.67-7.89-7.04-1.66-45.5,14.86-15.39,58.69-2.43,15.79,14.12h0Zm-32.1,35.81l-.6-16.37-5.33-3.82-12.27.51-5.03,4.25.6,16.37,5.4,3.83,12.12-.5,5.11-4.26h0Zm1.95,53.23l-.6-16.37-5.4-3.83-12.12.5-5.11,4.27.6,16.37,5.33,3.82,12.27-.51,5.03-4.25h0Z" style="fill: rgba(255, 255, 255, 0);"/>
        <path d="m1583.26,1252.36l-28.08,78.96,10.37-.43,1.05,28.77-58.41,2.42-1.05-28.77,14.61-.6,28.1-78.96-22.58.94.53,14.54-33.35,1.38-1.58-43.31,89.34-3.7,1.05,28.77h0Z" style="fill: rgba(255, 255, 255, 0);"/>
        <path d="m1583.79,1266.9l-33.35,1.38-.38-10.51-5.28-3.82-12.32.51-5.03,4.25.74,20.41,40.59-1.68,15.94,14.25,1.9,52.22-14.85,15.53-58.69,2.43-15.79-14.12-3.85-105.71,14.71-15.38,58.69-2.43,15.94,14.25,1.04,28.42h0Zm-54.57,40.99l.75,20.42,5.33,3.82,12.32-.51,4.99-4.25-.6-16.39-5.28-3.82-17.5.72h0Z" style="fill: rgba(255, 255, 255, 0);"/>
        <path d="m1529.57,1317.82l.38,10.51,5.28,3.82,12.32-.51,5.03-4.25-.6-16.37-5.4-3.83-50.73,2.1-2.99-81.99,89.34-3.7,1.58,43.31-33.35,1.38-.53-14.54-22.63.94.89,24.45,40.73-1.69,15.79,14.09,1.92,52.52-14.71,15.38-58.69,2.43-15.94-14.25-1.04-28.42,33.35-1.38h0Z" style="fill: rgba(255, 255, 255, 0);"/>
        <path d="m1585.72,1319.97l-8.32.34.37,10.07,8.32-.34,1.05,28.77-50.07,2.07-1.05-28.77,8.32-.34-.37-10.07-47.59,1.97-1.05-28.77,23.58-68.69,54.96-2.28,2.47,67.61,8.33-.34,1.05,28.77h0Zm-42.79-27.04l-1.11-30.33-10.28,30.8,11.39-.47h0Z" style="fill: rgba(255, 255, 255, 0);"/>
        <path d="m1584.4,1283.84l-7.36,7.67,7.89,7.04,1.66,45.5-14.71,15.38-58.69,2.43-15.94-14.25-1.04-28.42,33.35-1.38.38,10.51,5.28,3.82,12.32-.51,5.04-4.25-.6-16.37-5.4-3.83-17.38.72-1.05-28.77,17.38-.72,5.11-4.26-.6-16.38-5.33-3.82-12.32.51-4.98,4.25.38,10.51-33.35,1.38-1.04-28.42,14.85-15.53,58.69-2.43,15.79,14.12,1.66,45.5h0Z" style="fill: rgba(255, 255, 255, 0);"/>
        <path d="m1494.45,1270.6l-1.04-28.42,14.85-15.53,58.69-2.43,15.79,14.12,1.92,52.52-14.71,15.35-35.48,1.47-5.11,4.27.74,20.41,22.63-.94-.53-14.54,33.35-1.38,1.58,43.31-89.34,3.7-2.45-67.27,14.72-15.35,35.48-1.47,5.11-4.26-.6-16.37-5.33-3.82-12.32.51-4.98,4.25.38,10.51-33.35,1.38v-.02Z" style="fill: rgba(255, 255, 255, 0);"/>
        <path d="m1577.64,1330.39l8.32-.34,1.05,28.77-50.07,2.07-1.05-28.77,8.32-.34-2.83-77.68-8.32.34-1.05-28.77,41.72-1.73,3.9,106.45h.01Z" style="fill: rgba(255, 255, 255, 0);"/>
        <path d="m1566.81,1224.23l15.94,14.25,3.84,105.44-14.85,15.53-58.69,2.43-15.74-14.08-3.9-105.75,14.71-15.38,58.69-2.43h0Zm-16.91,29.51l-22.58.94,2.83,77.68,22.58-.94-2.83-77.68Z" style="fill: rgba(255, 255, 255, 0);"/>
      </g>
    </g>
    <g>
      <g>
        <path d="m1234.66,1558.95l8.15,9.54,3.34,57.82-7.2,6.79-29.27-5.24-8.05-9.42-3.38-58,7.14-6.73,29.27,5.24h0Zm-8.04,14.17l-11.26-2.01,2.46,42.6,11.26,2.01-2.46-42.6Z" style="fill: rgba(255, 255, 255, 0);"/>
        <path d="m1221.99,1614.45l4.15.74.91,15.78-24.97-4.47-.91-15.78,4.15.74-2.46-42.6-4.15-.74-.91-15.78,20.81,3.72,3.39,58.38h-.01Z" style="fill: rgba(255, 255, 255, 0);"/>
        <path d="m1199.17,1576.11l-.9-15.59,7.2-6.79,29.27,5.24,8.07,9.45,1.67,28.8-7.14,6.71-17.69-3.16-2.49,1.75.65,11.19,11.28,2.02-.46-7.98,16.63,2.98,1.37,23.75-44.55-7.97-2.13-36.89,7.14-6.71,17.69,3.17,2.49-1.75-.52-8.98-2.71-2.67-6.14-1.1-2.43,1.75.33,5.76-16.63-2.98h0Z" style="fill: rgba(255, 255, 255, 0);"/>
        <path d="m1244.25,1593.37l-3.57,3.36,4.03,4.72,1.44,24.95-7.14,6.73-29.27-5.24-8.15-9.54-.9-15.58,16.63,2.98.33,5.76,2.69,2.67,6.14,1.1,2.46-1.75-.52-8.98-2.75-2.69-8.66-1.55-.91-15.78,8.66,1.55,2.49-1.75-.52-8.98-2.71-2.67-6.14-1.1-2.43,1.75.33,5.76-16.63-2.98-.9-15.59,7.2-6.79,29.27,5.24,8.07,9.45,1.44,24.95h.02Z" style="fill: rgba(255, 255, 255, 0);"/>
        <path d="m1245.4,1613.18l-4.15-.74.32,5.52,4.15.74.91,15.78-24.97-4.47-.91-15.78,4.15.74-.32-5.52-23.73-4.25-.91-15.78,10.84-34.75,27.41,4.9,2.15,37.08,4.15.74.91,15.78h0Zm-21.73-19.5l-.96-16.63-4.72,15.62,5.68,1.02h0Z" style="fill: rgba(255, 255, 255, 0);"/>
        <path d="m1217.34,1605.73l.33,5.76,2.69,2.67,6.14,1.1,2.46-1.75-.52-8.98-2.75-2.69-25.3-4.53-2.6-44.96,44.55,7.97,1.37,23.75-16.63-2.98-.46-7.98-11.28-2.02.78,13.41,20.31,3.63,8.07,9.43,1.67,28.8-7.14,6.73-29.27-5.24-8.15-9.54-.9-15.58,16.63,2.98v.02Z" style="fill: rgba(255, 255, 255, 0);"/>
        <path d="m1243.71,1584.08l-16.63-2.98-.33-5.76-2.69-2.67-6.14-1.1-2.46,1.75.65,11.19,20.24,3.62,8.15,9.54,1.66,28.63-7.2,6.79-29.27-5.24-8.07-9.45-3.35-57.97,7.14-6.73,29.27,5.24,8.15,9.54.9,15.59h-.02Zm-26.69,16.21l.65,11.2,2.71,2.68,6.14,1.1,2.43-1.76-.52-8.99-2.69-2.67-8.72-1.56h0Z" style="fill: rgba(255, 255, 255, 0);"/>
        <path d="m1243.25,1576.1l-12.95,39.84,5.17.93.91,15.78-29.12-5.21-.91-15.78,7.28,1.3,12.96-39.84-11.26-2.01.46,7.98-16.63-2.98-1.37-23.75,44.55,7.97.91,15.78h0Z" style="fill: rgba(255, 255, 255, 0);"/>
        <path d="m1242.81,1568.42l1.44,24.95-3.57,3.36,4.03,4.72,1.44,24.87-7.13,6.8-29.27-5.24-8.15-9.54-1.44-24.87,3.57-3.35-4.03-4.72-1.44-24.95,7.21-6.72,29.27,5.24,8.07,9.45h0Zm-15.54,15.9l-.52-8.98-2.71-2.67-6.12-1.09-2.46,1.75.52,8.98,2.75,2.69,6.04,1.08,2.49-1.75h0Zm1.69,29.19l-.52-8.98-2.75-2.69-6.04-1.08-2.49,1.75.52,8.98,2.71,2.68,6.12,1.09,2.46-1.75h0Z" style="fill: rgba(255, 255, 255, 0);"/>
        <path d="m1217.34,1605.73l.33,5.76,2.69,2.67,6.14,1.1,2.46-1.75-.65-11.19-20.24-3.62-8.15-9.54-1.66-28.63,7.2-6.79,29.27,5.24,8.07,9.45,3.35,57.97-7.14,6.73-29.27-5.24-8.15-9.54-.9-15.59,16.63,2.98h.02Zm10.06-19.19l-.65-11.2-2.71-2.67-6.14-1.1-2.43,1.76.52,8.99,2.69,2.67,8.72,1.56h0Z" style="fill: rgba(255, 255, 255, 0);"/>
      </g>
      <g>
        <path d="m1164.86,1596.34l.33,5.76,2.69,2.67,6.14,1.1,2.46-1.75-.65-11.19-20.24-3.62-8.15-9.54-1.66-28.63,7.2-6.79,29.27,5.24,8.07,9.45,3.35,57.97-7.14,6.73-29.27-5.24-8.15-9.54-.9-15.59,16.63,2.98h.02Zm10.06-19.19l-.65-11.2-2.71-2.67-6.14-1.1-2.43,1.76.52,8.99,2.69,2.67,8.72,1.56h0Z" style="fill: rgba(255, 255, 255, 0);"/>
        <path d="m1190.33,1559.03l1.44,24.95-3.57,3.35,4.03,4.72,1.44,24.87-7.13,6.81-29.27-5.24-8.15-9.54-1.44-24.87,3.57-3.36-4.03-4.72-1.44-24.95,7.21-6.72,29.27,5.24,8.07,9.45h0Zm-15.54,15.9l-.52-8.98-2.71-2.67-6.12-1.09-2.46,1.75.52,8.98,2.75,2.69,6.04,1.08,2.49-1.75h0Zm1.69,29.19l-.52-8.98-2.75-2.69-6.04-1.08-2.49,1.75.52,8.98,2.71,2.67,6.12,1.09,2.46-1.75h0Z" style="fill: rgba(255, 255, 255, 0);"/>
        <path d="m1190.78,1566.71l-12.95,39.84,5.17.93.91,15.78-29.12-5.21-.91-15.78,7.28,1.3,12.96-39.84-11.26-2.01.46,7.98-16.63-2.98-1.37-23.75,44.55,7.97.91,15.78h0Z" style="fill: rgba(255, 255, 255, 0);"/>
        <path d="m1191.24,1574.69l-16.63-2.98-.33-5.76-2.69-2.67-6.14-1.1-2.46,1.75.65,11.19,20.24,3.62,8.15,9.54,1.66,28.63-7.2,6.79-29.27-5.24-8.07-9.45-3.35-57.97,7.14-6.73,29.27,5.24,8.15,9.54.9,15.59h-.02Zm-26.69,16.22l.65,11.2,2.71,2.67,6.14,1.1,2.43-1.76-.52-8.99-2.69-2.67-8.72-1.56h0Z" style="fill: rgba(255, 255, 255, 0);"/>
        <path d="m1164.86,1596.34l.33,5.76,2.69,2.67,6.14,1.1,2.46-1.75-.52-8.98-2.75-2.69-25.3-4.53-2.6-44.96,44.55,7.97,1.37,23.75-16.63-2.98-.46-7.98-11.28-2.02.78,13.41,20.31,3.63,8.07,9.43,1.67,28.8-7.14,6.73-29.27-5.24-8.15-9.54-.9-15.58,16.63,2.98v.02Z" style="fill: rgba(255, 255, 255, 0);"/>
        <path d="m1192.92,1603.79l-4.15-.74.32,5.52,4.15.74.91,15.78-24.97-4.47-.91-15.78,4.15.74-.32-5.52-23.73-4.25-.91-15.78,10.84-34.75,27.41,4.9,2.15,37.08,4.15.74.91,15.78h0Zm-21.73-19.5l-.96-16.63-4.72,15.62,5.68,1.02h0Z" style="fill: rgba(255, 255, 255, 0);"/>
        <path d="m1191.77,1583.98l-3.57,3.35,4.03,4.72,1.44,24.95-7.14,6.73-29.27-5.24-8.15-9.54-.9-15.58,16.63,2.98.33,5.76,2.69,2.67,6.14,1.1,2.46-1.75-.52-8.98-2.75-2.69-8.66-1.55-.91-15.78,8.66,1.55,2.49-1.75-.52-8.98-2.71-2.67-6.14-1.1-2.43,1.75.33,5.76-16.63-2.98-.9-15.59,7.2-6.79,29.27,5.24,8.07,9.45,1.44,24.95h.02Z" style="fill: rgba(255, 255, 255, 0);"/>
        <path d="m1146.69,1566.72l-.9-15.59,7.2-6.79,29.27,5.24,8.07,9.45,1.67,28.8-7.14,6.71-17.69-3.16-2.49,1.75.65,11.19,11.28,2.02-.46-7.98,16.63,2.98,1.37,23.75-44.55-7.97-2.13-36.89,7.14-6.71,17.69,3.16,2.49-1.75-.52-8.98-2.71-2.67-6.14-1.1-2.43,1.75.33,5.76-16.63-2.98h0Z" style="fill: rgba(255, 255, 255, 0);"/>
        <path d="m1189.03,1608.56l4.15.74.91,15.78-24.97-4.47-.91-15.78,4.15.74-2.46-42.6-4.15-.74-.91-15.78,20.8,3.72,3.39,58.38h0Z" style="fill: rgba(255, 255, 255, 0);"/>
        <path d="m1182.19,1549.56l8.15,9.54,3.35,57.82-7.2,6.79-29.27-5.24-8.05-9.42-3.38-58,7.14-6.73,29.27,5.24h-.01Zm-8.04,14.17l-11.26-2.01,2.46,42.6,11.26,2.01-2.46-42.6Z" style="fill: rgba(255, 255, 255, 0);"/>
      </g>
    </g>
    <g>
      <path d="m1113.78,974.66s127.79,130.45,401.51,116.89l-65.49-38.67s-195.24-9.56-336.02-78.23h0Z" style="isolation: isolate; opacity: .2;"/>
      <path d="m1637.27,1079.69s146.12-19.16,221.93-77.93c0,0-6.24-16.78-23.72-6.78s-167.25,47.89-167.25,47.89l-30.97,36.81h.01Z" style="isolation: isolate; opacity: .2;"/>
      <path d="m1096.84,1296.54s50.98,149.04,66.07,159.25c0,0-10.91,19.21-1.91,35.21s17.16,144.37,17.16,144.37l-54.21-11.86s-15.49,9.09-23.72-54.21-11.23-101.3-11.23-101.3c0,0-25-13,5-41l-22-64s-38.68-20.35-13-35,37.84-31.45,37.84-31.45h0Z" style="isolation: isolate; opacity: .2;"/>
      <path d="m1491,1598.99s-85-8-67-1,34,40,29,44,34-13,34-13c0,0,17.23-28.18,31.11-15.09s13.75,21.35,33.32,23.72c19.57,2.37,91.48,7.91,91.48,7.91,0,0-11.91-28.53,25.09-34.53s19-16-30-12-147,0-147,0h0Z" style="isolation: isolate; opacity: .2;"/>
      <path d="m957.36,1325.9s-18.36,14.09-29.36,7.09c0,0-99,87-115,153l-2,18s11,33-5,36l47.46,5.02c8.54-3.02,10.53-30.43,9.04-41.22-1.49-10.79,52.24-83.69,64.38-93.74s15.25-15.25,15.25-15.25c0,0,25.11-2.65,28.89-10.81s-3.21-40.81-4.6-43.41-9.04-14.68-9.04-14.68h-.02Z" style="isolation: isolate; opacity: .2;"/>
      <path d="m1925.26,1244.02s59.74,108.97,230.74,100.97,181-118,181-118c0,0,43.8,3.52,38.9-20.24,0,0,58.99,45.57,44.05,55.91-14.95,10.33-23.04,24.04-30.49,32.19s-89.51,137.14-235.48,132.14c-145.97-4.99-229.97-61.99-229.97-61.99,0,0,3-94,1.26-120.97h-.01Z" style="isolation: isolate; opacity: .2;"/>
      <path d="m1181.55,1255.88s127.06,88.09,299.86,45.74c98.26-27.11,121.98-25.41,188.05-3.39,66.07,22.02,182.96,18.64,216.85-38.96,33.88-57.6,45.74,111.81-137.22,108.42s-110.12-54.21-269.36,1.69c-159.25,55.91-338.82-103.34-298.16-113.51h-.02Z" style="isolation: isolate; opacity: .1;"/>
    </g>
    <g id="clothing-shoes">
      <g>
        <g>
          <g>
            <path d="m1708.42,1867.87c-25.83-16.01-52.45-32.21-52.45-32.21,26.59-77.73,95.84-25.84,95.84-25.84,0,0,96.55,86.97,123.66,101.93,27.09,14.96,63.37,40.86-20.8,59.71-89.94,20.13,119.32,89.74,265.37,9.05,52.46,23.36,50.01,68.09,41.06,97.93-6.11,11.87-37.59,56.36-170.52,68.34-153.84,13.87-206.85-20.56-292.09-45.25-.69-.2-1.37-.4-2.07-.59.82-21.74,13.63-103.57,75.64-137.01,56.37-30.38-2.48-55.17-17.23-66.31-5.56-4.2-25.73-16.93-46.42-29.77v.02Z" style="fill: #fff;"/>
            <path d="m2148.4,2108.26c23.45,17.29-7.49,44.87-7.49,44.87-67.24,73.15-278.06,68.32-346.66,43.22-57.48-21.04-121.45-40.55-149.07-48.8-27.61-8.26-98.7-14.31-121.44-47.26-2.56-3.7-4.95-7.6-7.17-11.65,15.09,3.01,110.93,22.43,186.18,45.18,81.91,24.78,132.88,59.25,280.66,45.53,147.79-13.71,164.99-71.1,164.99-71.1h0Z" style="fill: #bfa373;"/>
            <path d="m1696.43,2100.96c.69.19,1.38.39,2.07.59,85.23,24.69,138.25,59.12,292.09,45.25,132.93-11.98,164.41-56.47,170.52-68.34-5.23,17.45-12.69,29.81-12.69,29.81,0,0-17.2,57.39-164.99,71.1-147.78,13.72-198.74-20.75-280.66-45.53-75.25-22.76-171.09-42.18-186.18-45.18-5.57-10.12-10.12-21.14-13.7-32.44,5.96,1.12,111.03,21.02,193.55,44.75h0Z" style="fill: #fff;"/>
            <g>
              <path d="m1859.82,1794.43c1.88,1.86,3.67,3.79,5.42,5.74,14.65,16.39,21.82,25.29,39.87,46.06,18.06,20.77,117.18,83.1,117.18,83.1,4.13,1.25,8.43,2.78,12.82,4.51,38.98,15.33,84.93,46.68,84.93,46.68-146.05,80.69-355.3,11.08-265.37-9.05,84.17-18.85,47.89-44.75,20.8-59.71-27.1-14.96-123.66-101.93-123.66-101.93-13.61-18.65,10.9-31.87,45.88-36.09,30.81-3.71,48.38,6.91,62.13,20.69h0Z" style="fill: #fff;"/>
              <path d="m2035.26,1933.47l-.15.37c-4.39-1.73-8.69-3.26-12.82-4.51,0,0-99.12-62.33-117.18-83.1s-25.22-29.68-39.87-46.06c-1.74-1.95-3.54-3.88-5.42-5.74-1.62-8.27-1.3-21.54,19.15-17.34,29.11,5.98,58.64,62.15,58.64,62.15,0,0,92.41,61.97,97.65,94.23h0Z" style="fill: #fff;"/>
              <path d="m1754.84,1897.64c14.75,11.14,73.6,35.92,17.23,66.31-62.01,33.43-74.82,115.27-75.64,137.01-82.52-23.73-187.58-43.64-193.55-44.75-7.74-24.31-11.1-49.85-10.94-70.16.28-33.51,20.28-111.08,20.28-111.08,0,0,82.6,37.03,196.2-7.09,20.69,12.85,40.86,25.57,46.42,29.77h0Z" style="fill: #fff;"/>
            </g>
            <path d="m1655.97,1835.66s26.62,16.2,52.45,32.21c-113.6,44.13-196.2,7.09-196.2,7.09-27.53-49.57,14.87-64.04,14.87-64.04,38.46,48.2,128.89,24.73,128.89,24.73h-.01Z" style="fill: #fff;"/>
          </g>
          <g>
            <path d="m1655.97,1835.66s-90.42,23.47-128.89-24.73c0,0-42.4,14.46-14.87,64.04,0,0-20,77.56-20.28,111.08-.16,20.31,3.2,45.85,10.94,70.16,3.58,11.3,8.12,22.33,13.7,32.44,2.22,4.05,4.61,7.95,7.17,11.65,22.73,32.94,93.83,39,121.44,47.26,27.62,8.25,91.58,27.75,149.07,48.8,68.6,25.1,279.42,29.93,346.66-43.22,0,0,30.94-27.58,7.49-44.87,0,0,7.47-12.36,12.69-29.81,8.95-29.84,11.4-74.57-41.06-97.93,0,0-45.95-31.35-84.93-46.68-4.39-1.73-8.69-3.26-12.82-4.51,0,0-99.12-62.33-117.18-83.1s-25.22-29.68-39.87-46.06c-1.74-1.95-3.54-3.88-5.42-5.74-13.75-13.78-31.32-24.4-62.13-20.69-34.98,4.22-59.49,17.44-45.88,36.09,0,0-69.25-51.89-95.84,25.84v-.02Z" style="fill: none; stroke: #000; stroke-miterlimit: 10; stroke-width: 13.37px;"/>
            <path d="m1861.53,1800.53s-1.03-2.61-1.71-6.11c-1.62-8.27-1.3-21.54,19.15-17.34,29.11,5.98,58.64,62.15,58.64,62.15,0,0,92.41,61.97,97.65,94.23" style="fill: none; stroke: #000; stroke-miterlimit: 10; stroke-width: 13.37px;"/>
            <path d="m1514.54,2088.24s.7.14,2.04.4c15.09,3.01,110.93,22.43,186.18,45.18,81.91,24.78,132.88,59.25,280.66,45.53,147.79-13.71,164.99-71.1,164.99-71.1" style="fill: none; stroke: #000; stroke-miterlimit: 10; stroke-width: 13.37px;"/>
            <path d="m1502.61,2056.15l.27.05c5.96,1.12,111.03,21.02,193.55,44.75.69.19,1.38.39,2.07.59,85.23,24.69,138.25,59.12,292.09,45.25,132.93-11.98,164.41-56.47,170.52-68.34.96-1.87,1.29-2.93,1.29-2.93" style="fill: none; stroke: #000; stroke-miterlimit: 10; stroke-width: 13.37px;"/>
            <path d="m1751.81,1809.82s96.55,86.97,123.66,101.93c27.09,14.96,63.37,40.86-20.8,59.71-89.94,20.13,119.32,89.74,265.37,9.05" style="fill: none; stroke: #000; stroke-miterlimit: 10; stroke-width: 13.37px;"/>
            <path d="m1512.22,1874.96s82.6,37.03,196.2-7.09c0,0,.02-.01.03-.01" style="fill: none; stroke: #000; stroke-miterlimit: 10; stroke-width: 13.37px;"/>
            <path d="m1655.97,1835.66s26.62,16.2,52.45,32.21c20.69,12.85,40.86,25.57,46.42,29.77,14.75,11.14,73.6,35.92,17.23,66.31-62.01,33.43-74.82,115.27-75.64,137.01-.01.22-.02.44-.02.64" style="fill: none; stroke: #000; stroke-miterlimit: 10; stroke-width: 13.37px;"/>
          </g>
        </g>
        <g>
          <path d="m1830.57,1927.89c-2.56,0-4.99-.84-7.02-2.42-4.98-3.88-5.88-11.1-2.01-16.1,5.43-6.99,18.25-19.07,38.13-35.94-38.76,2.54-70.35,9.81-70.68,9.88-.85.2-1.72.3-2.59.3-4.28,0-8.17-2.36-10.15-6.17-2.41-4.64-1.39-10.33,2.49-13.83,12.86-11.6,25.69-22.27,38.2-31.77-1.47-.02-2.95-.04-4.45-.06-4.11-.05-8.38-.07-12.7-.07-40.75,0-76.89,2.12-78.41,2.21-.25.01-.49.02-.72.02-6.03,0-11.04-4.74-11.41-10.78-.19-3.06.83-6.01,2.86-8.3s4.82-3.66,7.88-3.84c.36-.02,37.2-2.25,79.69-2.25,4.41,0,8.77.02,12.97.07,12.95.15,24.99.52,35.82,1.11,23.73-14.85,37.4-19.5,38.89-19.99,1.15-.37,2.34-.56,3.53-.56,4.98,0,9.35,3.19,10.89,7.93,1.94,6-1.35,12.48-7.33,14.44-.1.03-1.95.67-5.33,2.16,28.1,4.49,37.11,11.15,41.45,15.89,2.16,2.36,3.24,5.54,2.97,8.73s-1.87,6.14-4.4,8.1c-1.95,1.52-4.22,3.29-6.73,5.26,14.79,1.95,28.02,5.15,39.37,9.51,5.89,2.26,8.85,8.91,6.59,14.82-1.69,4.41-5.98,7.37-10.69,7.37-1.4,0-2.78-.26-4.09-.76-15.2-5.84-34.46-9.23-57.23-10.07-30.56,24.89-50.7,42.87-56.75,50.67-2.18,2.81-5.48,4.43-9.04,4.43h0Zm23.99-94.57c-9.16,6.01-18.65,12.81-28.26,20.28,20.34-2.65,39.81-4,57.96-4,1.42,0,2.85,0,4.28.03,4.08-3.29,8.22-6.6,12.33-9.87-5.8-1.58-13.06-2.94-21.64-4.08-7.24-.96-15.53-1.75-24.66-2.36h0Z" style="fill: #fff; stroke: #000; stroke-miterlimit: 10; stroke-width: 9.55px;"/>
          <path d="m1851.06,1943c-3.48,0-6.73-1.55-8.91-4.26-3.96-4.91-3.2-12.14,1.68-16.11,1.93-1.57,47.94-38.34,116.3-38.34,10.17,0,20.47.82,30.61,2.45,3.02.48,5.67,2.12,7.46,4.6,1.79,2.48,2.51,5.51,2.03,8.54-.89,5.6-5.64,9.66-11.28,9.66h0c-.61,0-1.23-.05-1.84-.15-8.73-1.4-17.65-2.11-26.51-2.11-27.97,0-51.31,7.08-65.96,13.02-22.63,9.18-36.28,20.05-36.42,20.16-2.03,1.64-4.58,2.54-7.18,2.54h.02Z" style="fill: #fff; stroke: #000; stroke-miterlimit: 10; stroke-width: 9.55px;"/>
        </g>
        <path d="m1506.72,1906.42s157.78,24.07,162.78,61.07c4.71,34.85-22,54-88,33s-83.81-24.05-83.81-24.05l9.04-70.02h-.01Z" style="fill: #fff; stroke: #000; stroke-miterlimit: 10; stroke-width: 13.37px;"/>
        <path d="m1542.41,1830.2s-14.54-24.29-27.47-11.34c-12.93,12.96-17.78,53.45,12.93,63.16,0,0-25.85-4.86-24.24,43.73,0,0,27.47,74.5,46.86,100.42,19.39,25.91,17.78,110.13,17.78,110.13,0,0,101.8,17.82,171.29,43.73,69.48,25.91,197.14,59.93,308.64,22.67,111.5-37.25,106.65-64.78,106.65-64.78,0,0-6.46-27.53,1.62-43.73s11.31-40.49,9.7-55.07c0,0-116.35,80.98-355.5,29.15-239.16-51.83-263.4-95.56-261.78-152.24,1.62-56.69-6.46-85.84-6.46-85.84h-.02Z" style="isolation: isolate; opacity: .2;"/>
      </g>
      <g>
        <g>
          <g>
            <path d="m1584.44,2118.29c6.66,31.73,9.64,149.01-177.81,158.74-248.82,12.9-305.95-125.25-324.26-154.41-18.31-29.15-15.08-60.47-15.08-60.47,0,0,45.25,177.62,303.79,187.88,231.64,9.19,213.31-131.73,213.31-131.73h.05Z" style="fill: #bfa373;"/>
            <path d="m1584.44,2118.29h-.05s18.33,140.93-213.31,131.74c-258.54-10.26-303.79-187.88-303.79-187.88,0,0,0-57.22,3.23-60.46,0,0-.31,39.86,27.03,84.89,35.71,58.87,118.66,126.58,311.23,125.66,122.76-.58,164-58.07,173.64-101.96.36,1.17,1.17,3.95,2.01,8.01h.01Z" style="fill: #fff;"/>
            <path d="m1553.59,2002.65c41.33,40.05,28.64,107.02,28.64,107.02,0,0,.07.21.19.61-9.63,43.89-50.88,101.38-173.64,101.96-192.57.92-275.52-66.79-311.23-125.66l5.28-.67c-3.23-90.7,96.96-110.13,96.96-110.13,0,0,20.47-26.99-9.7-61.54-8.01-9.18-14.57-18.74-19.9-27.83-14.73-25.13-19.95-46.67-19.95-46.67,16.16-22.68,45.24-23.76,65.71-22.68s24.78,29.36,24.78,29.36c-2.16,11.02,33.39,59.15,62.48,101.25s-7.54,53.17-31.24,56.19c-23.7,3-64.1,26.18,18.31,56.15,63.96,23.25,164.93,20.98,208.45-8.11,48.47-32.39,17.77-59.92-21-63.16-33.42-2.78-36.63-14.26-35.55-31.31,1.07-17.04,0-119.02,0-119.02-3.62-5.96-6.92-11.28-11.19-15.89l4.72-.05,20.47-23.76c15.08,3.24,23.69,23.76,23.69,33.47,0,1.62-.24,6.02-.34,12.41-.52,32.13,2.28,114.43,55.28,144.15,7.24,4.06,13.45,8.77,18.76,13.92h.02Z" style="fill: #fff;"/>
            <g>
              <path d="m1555.3,2002.5l-1.71.15c-5.31-5.15-11.52-9.86-18.76-13.92-53.01-29.72-55.81-112.02-55.28-144.15h.62c1.61,2.36,68.68,127.28,75.13,157.92Z" style="fill: #fff;"/>
              <path d="m1477.74,1988.73c38.77,3.24,69.48,30.77,21,63.16-43.52,29.08-144.5,31.36-208.45,8.11-82.41-29.97-42.02-53.15-18.31-56.15,23.7-3.01,60.33-14.08,31.24-56.19-29.08-42.1-64.63-90.23-62.48-101.25,0,0,21.71-43.12,100.45-43.94,57.55-.6,77.59,6.77,89.81,20.03,4.26,4.61,7.57,9.93,11.19,15.89,0,0,1.07,101.99,0,119.02-1.08,17.05,2.13,28.53,35.55,31.31h0Z" style="fill: #fff;"/>
              <path d="m1190.1,1914.24c30.17,34.55,9.7,61.54,9.7,61.54,0,0-100.19,19.44-96.96,110.13l-5.28.67c-27.34-45.03-27.03-84.89-27.03-84.89-12.92-23.76,2.16-78.82,11.85-100.42,5.68-12.65,10.25-26.05,11.76-39.96h.1s30.16,32.41,74.33,25.93l1.64-.83c5.32,9.09,11.88,18.65,19.9,27.83h0Z" style="fill: #fff;"/>
            </g>
            <path d="m1170.2,1886.41l-1.64.83c-44.17,6.48-74.33-25.92-74.33-25.92h-.1c1.08-9.85.61-19.94-2.06-30.23-6.47-24.84,19.39-29.15,19.39-29.15-3.23,15.11,38.78,37.79,38.78,37.79,0,0,5.23,21.54,19.95,46.67h.01Z" style="fill: #fff;"/>
          </g>
          <g>
            <line x1="1584.44" y1="2118.29" x2="1584.39" y2="2118.3" style="fill: none; stroke: #000; stroke-linecap: round; stroke-linejoin: round; stroke-width: 13.37px;"/>
            <line x1="1435.72" y1="1822.46" x2="1431" y2="1822.51" style="fill: none; stroke: #000; stroke-linecap: round; stroke-linejoin: round; stroke-width: 13.37px;"/>
            <line x1="1094.13" y1="1861.31" x2="1094.23" y2="1861.32" style="fill: none; stroke: #000; stroke-linecap: round; stroke-linejoin: round; stroke-width: 13.37px;"/>
            <line x1="1170.2" y1="1886.41" x2="1168.56" y2="1887.24" style="fill: none; stroke: #000; stroke-linecap: round; stroke-linejoin: round; stroke-width: 13.37px;"/>
            <path d="m1240.74,1846.42s21.71-43.12,100.45-43.94c57.55-.6,77.59,6.77,89.81,20.03" style="fill: none; stroke: #000; stroke-linecap: round; stroke-linejoin: round; stroke-width: 13.37px;"/>
            <path d="m1240.74,1846.42c-2.16,11.02,33.39,59.15,62.48,101.25s-7.54,53.17-31.24,56.19c-23.7,3-64.1,26.18,18.31,56.15,63.96,23.25,164.93,20.98,208.45-8.11,48.47-32.39,17.77-59.92-21-63.16-33.42-2.78-36.63-14.26-35.55-31.31,1.07-17.04,0-119.02,0-119.02-3.62-5.96-6.92-11.28-11.19-15.89" style="fill: none; stroke: #000; stroke-linecap: round; stroke-linejoin: round; stroke-width: 13.37px;"/>
            <path d="m1067.29,2062.15s-3.23,31.32,15.08,60.47c18.31,29.16,75.44,167.3,324.26,154.41,187.45-9.72,184.46-127.01,177.81-158.74" style="fill: none; stroke: #000; stroke-linecap: round; stroke-linejoin: round; stroke-width: 13.37px;"/>
            <path d="m1582.43,2110.28c.36,1.17,1.17,3.95,2.01,8.01" style="fill: none; stroke: #000; stroke-linecap: round; stroke-linejoin: round; stroke-width: 13.37px;"/>
            <path d="m1070.52,2001.69c-3.23,3.24-3.23,60.46-3.23,60.46" style="fill: none; stroke: #000; stroke-linecap: round; stroke-linejoin: round; stroke-width: 13.37px;"/>
            <path d="m1094.13,1861.31c-1.51,13.91-6.08,27.31-11.76,39.96-9.69,21.6-24.77,76.66-11.85,100.42" style="fill: none; stroke: #000; stroke-linecap: round; stroke-linejoin: round; stroke-width: 13.37px;"/>
            <path d="m1582.43,2110.28c-.12-.4-.19-.61-.19-.61,0,0,12.69-66.97-28.64-107.02-5.31-5.15-11.52-9.86-18.76-13.92-53.01-29.72-55.81-112.02-55.28-144.15.1-6.39.34-10.79.34-12.41,0-9.71-8.61-30.23-23.69-33.47l-20.47,23.76" style="fill: none; stroke: #000; stroke-linecap: round; stroke-linejoin: round; stroke-width: 13.37px;"/>
            <path d="m1150.25,1839.73c16.16-22.68,45.24-23.76,65.71-22.68s24.78,29.36,24.78,29.36" style="fill: none; stroke: #000; stroke-linecap: round; stroke-linejoin: round; stroke-width: 13.37px;"/>
            <path d="m1094.13,1861.31c1.08-9.84.61-19.93-2.06-30.22-6.47-24.84,19.39-29.15,19.39-29.15-3.23,15.11,38.78,37.79,38.78,37.79" style="fill: none; stroke: #000; stroke-linecap: round; stroke-linejoin: round; stroke-width: 13.37px;"/>
            <path d="m1584.39,2097.78c-.38,4.03-1.02,8.21-1.96,12.5" style="fill: none; stroke: #000; stroke-linecap: round; stroke-linejoin: round; stroke-width: .48px;"/>
            <path d="m1582.43,2110.28c-9.63,43.89-50.88,101.38-173.64,101.96-192.57.92-275.52-66.79-311.23-125.66-27.34-45.03-27.03-84.89-27.03-84.89" style="fill: none; stroke: #000; stroke-linecap: round; stroke-linejoin: round; stroke-width: 13.37px;"/>
            <path d="m1067.29,2062.15s45.25,177.62,303.79,187.88c231.64,9.19,213.31-131.73,213.31-131.73" style="fill: none; stroke: #000; stroke-linecap: round; stroke-linejoin: round; stroke-width: 13.37px;"/>
            <path d="m1102.84,2085.91c-3.23-90.7,96.96-110.13,96.96-110.13,0,0,20.47-26.99-9.7-61.54-8.01-9.18-14.57-18.74-19.9-27.83" style="fill: none; stroke: #000; stroke-linecap: round; stroke-linejoin: round; stroke-width: 13.37px;"/>
            <path d="m1170.2,1886.41c-14.73-25.13-19.95-46.67-19.95-46.67" style="fill: none; stroke: #000; stroke-linecap: round; stroke-linejoin: round; stroke-width: 13.37px;"/>
            <path d="m1168.56,1887.24c-44.17,6.48-74.33-25.92-74.33-25.92" style="fill: none; stroke: #000; stroke-linecap: round; stroke-linejoin: round; stroke-width: 13.37px;"/>
            <path d="m1480.16,1844.59c1.61,2.35,68.68,127.28,75.13,157.91" style="fill: none; stroke: #000; stroke-linecap: round; stroke-linejoin: round; stroke-width: 13.37px;"/>
          </g>
        </g>
        <g>
          <path d="m1256.95,1953.81c-3.7,0-7.17-1.18-9.77-3.32-2.83-2.33-4.3-5.47-4.16-8.86.15-3.41,2.01-6.58,5.1-8.7,6.5-4.44,17.01-9.27,31.34-14.4-19.97-.64-35.44-.73-42.02-.73-2.9,0-4.54.01-4.69.02h-.21c-5.46,0-10.42-2.68-12.65-6.82-2.61-4.85-1.08-10.59,3.71-13.95,10.09-7.08,29.35-15.37,57.34-24.68-45.3-4.59-78.92-7.87-79.55-7.92-4.24-.34-8-2.24-10.31-5.21-1.8-2.32-2.57-5.13-2.17-7.91.84-5.88,6.78-10.31,13.81-10.31.45,0,.91.02,1.37.06,1.82.15,52.83,4.93,113.5,11.42,7.45.8,14.77,1.6,21.77,2.4,48.44-13.3,93.8-23.44,95.71-23.87,1.18-.27,2.41-.4,3.64-.4,6,0,11.31,3.19,13.2,7.95,1.11,2.79.96,5.82-.42,8.51-1.68,3.29-5.02,5.71-9.15,6.63-5.93,1.32-20.14,4.55-39.53,9.32,14.61,2.18,26.79,4.29,36.35,6.31,2.01-.89,4.26-1.36,6.55-1.36,1.29,0,2.58.15,3.83.44,1.57.37,3.13.75,4.69,1.13.67.17,1.34.37,1.96.62,7.93,3.09,13.17,8.47,14.36,14.78l.07.36c.03.15.04.3.05.45.05.43.07.87.07,1.3v.34c-.03.61-.11,1.2-.23,1.76l-.08.32c-.09.37-.24.85-.44,1.34-.07.17-.11.27-.16.37-.23.52-.49.99-.78,1.44l-.17.24c-.21.31-.51.7-.82,1.06l-.24.27c-.42.46-.8.82-1.2,1.15l-.2.16c-.28.23-.7.53-1.15.82l-.27.17c-.94.57-1.93,1.02-2.98,1.37l-.37.12c-.42.13-.8.23-1.2.32l-.43.1c-5.35,1.01-22.17,4.22-44.89,9.1,21.94,4.02,40.08,8.9,54.05,14.55,3.77,1.52,6.49,4.38,7.45,7.84.86,3.07.27,6.23-1.65,8.89-2.48,3.45-7.05,5.6-11.92,5.6-2.1,0-4.21-.4-6.1-1.17-22.83-9.23-58.89-16.12-107.21-20.5-55.69,14.16-76.43,23.31-84.02,28.49-2.47,1.69-5.6,2.61-8.82,2.61l.04-.02Zm31.17-58.55c20.59.77,40.75,1.97,59.08,3.54,16.22-4.06,33.94-8.18,52.87-12.31-16.08-2.43-35.49-4.97-57.97-7.58-20.86,5.81-38.95,11.29-53.98,16.34h0Z" style="fill: #fff; stroke: #000; stroke-miterlimit: 10; stroke-width: 9.55px;"/>
          <path d="m1267.96,1982.72c-6.68,0-12.43-3.99-13.67-9.5-.63-2.8-.07-5.69,1.59-8.14,2.1-3.1,5.74-5.18,9.97-5.72,3.76-.48,92.81-11.68,157.86-11.68,6.11,0,11.74-.15,17.18-.29,4.65-.12,9.05-.24,13.13-.24,6.77,0,11.66.32,15.84,1.04,4.2.72,7.7,2.96,9.61,6.16,1.53,2.57,1.9,5.52,1.05,8.33-1.57,5.16-7.12,8.76-13.48,8.76-.95,0-1.91-.08-2.84-.24-2.93-.5-6.47-.73-11.16-.73-3.68,0-7.77.14-12.1.29-5.07.18-10.83.38-16.93.38-63.48,0-153.03,11.33-153.93,11.44-.72.09-1.43.13-2.13.13h.01Z" style="fill: #fff; stroke: #000; stroke-miterlimit: 10; stroke-width: 9.55px;"/>
        </g>
        <path d="m1068.51,1947.08s4.99,56.41,20.99,56.41,43-27,23-61-25.05-46.32-22.53-58.66-19.44,46.83-21.46,63.25Z" style="fill: #fff; stroke: #000; stroke-miterlimit: 10; stroke-width: 13.37px;"/>
        <path d="m1135.16,1838.11s-33.93,14.58-24.24,38.87c-1.62,8.1-45.25,97.18-21.01,183.02s195.53,110.13,290.87,110.13,174.51-27.37,189.06-70.37c0,0,25.86,57.41,1.62,97.9s-61.41,97.18-256.93,74.5c-195.53-22.67-237.54-158.72-242.39-171.68s-8.08-66.4-4.85-80.98-9.7-50.21,3.23-82.6c12.93-32.39,19.39-45.35,22.62-64.78,3.23-19.44-9.7-55.07,0-59.93,9.7-4.86,25.85,4.86,25.85,4.86l16.16,21.05h.01Z" style="isolation: isolate; opacity: .2;"/>
      </g>
    </g>
  </g>
</svg>