<?xml version="1.0" encoding="UTF-8"?>
<svg id="Layer_1" data-name="Layer 1" xmlns="http://www.w3.org/2000/svg" xmlns:xlink="http://www.w3.org/1999/xlink" viewBox="0 0 3000 3000">
  <defs>
    <clipPath id="clippath">
      <path d="m1095.05,1449.07s-12.39,28.77,9.51,97.41c11.89,37.27,14.66,134.4,12.46,148,.74,4.14,30.84,17.69,47,18.07,0,.37,1.88,9.13-.69-30s-13.95-102.77-13.58-118.21,11.39-86.74,4.76-88.94c-22.99-7.66-59.46-26.33-59.46-26.33Z" style="fill: none;"/>
    </clipPath>
  </defs>
  <g id="Boxing-Stallion">
    <circle cx="1500" cy="1500" r="1200" style="fill: #4c6164;"/>
    <g>
      <path d="m1122.53,1682.5s2.43,46.24,3.43,71.24c0,0,38.12,1.49,157,7s184,17,184,17l1-15s6-38,9-63l-354.43-17.24Z" style="isolation: isolate; opacity: .2;"/>
      <g>
        <g>
          <path d="m1342.46,1707.24h0c-31.8-.16-63.49-3.51-94.62-10l1.21-5.81c-1.91-25.26-2.26-201-2.26-201l-.12-5.73c28.31-.64,61.41-1.64,95.76-3.18v.71s-2.01,215.56.03,225.01Z" style="fill: #e00505;"/>
          <path d="m1920.79,1445.95c1.36,11.03,1.57,22.16.63,33.23-4.79.21-32.25,1.14-81.29-1.67-17.88-1-38.62-2.54-62.17-4.77-7.3-.67-14.84-1.28-22.61-1.85-21.81-1.52-45.34-2.47-70-2.91s-50.52-.4-77,.07c-31.92.56-64.72,1.73-97.44,3.37-28.94,1.44-57.82,3.25-86,5.32-27.11,2-55.22,3.57-82.53,4.79-34.35,1.54-67.45,2.54-95.76,3.18-50.46,1.17-85.71,1.21-85.71,1.21,0,0,13,146.19,11,186.82,0,0,27.45,14.35,75.88,24.54,31.13,6.49,62.82,9.84,94.62,10,29.5.18,58.97-2.12,88.09-6.88,23.38-3.8,46.5-9.03,69.23-15.68l1,.24c-2.8,8.25-4.93,16.71-6.36,25.3-167.78,91-388-18.46-388-18.46,0,0-4.1-111.28-14.64-158.5-1.32-5.94-10.07-21.55-10.47-25.9-20.84-61,3.64-82.75,3.64-82.75,13.56,47.22,181.42,21.5,307.23,15.43,397.2-19.16,463.82-2.3,508.87.89,4.44,2.58,20.52-.58,19.79,4.98Z" style="fill: #08289b;"/>
          <path d="m1921.42,1479.18c-1.33,16.85-5.49,37.63-16.46,56.14-17.79,30-19.17,87.16-18.08,122.25h-.84c-17.51,9-36.87,15.93-57.24,21.33l-.84-3.16c0-10-1-77,2-95s10-102,10-102l.17-1.23c49.04,2.81,76.5,1.88,81.29,1.67Z" style="fill: #fff;"/>
          <path d="m1886.88,1657.57c.55,17.82,1.74,30,1.74,30-137,78.77-360.16,22.72-360.16,22.72v-27s19.11,3.36,49.39,6.55c22.42,2.35,51,4.62,82.44,5.35,30.7.83,61.42-.17,92-3,26-2.53,52-6.72,76.51-13.22,20.37-5.4,39.73-12.38,57.24-21.33l.84-.07Z" style="fill: #08289b;"/>
          <path d="m1840.13,1477.51l-.17,1.23s-7,84-10,102-2,85-2,95l.84,3.18c-24.51,6.5-50.49,10.69-76.51,13.22l-.33-3.4c-6-23,3-209,3.29-216.37l.1-1.48c7.74.57,15.28,1.18,22.61,1.85,23.55,2.23,44.29,3.75,62.17,4.77Z" style="fill: #e00505;"/>
          <path d="m1755.35,1470.89l-.1,1.48c-.29,7.37-9.29,193.37-3.29,216.37l.33,3.4c-30.58,2.83-61.3,3.83-92,3l.09-3.67c-4.58-9.26,24.85-219.1,24.85-219.1l.08-4.39c24.7.44,48.23,1.39,70.04,2.91Z" style="fill: #fff;"/>
          <path d="m1685.31,1467.98l-.08,4.39s-29.43,209.84-24.85,219.1l-.09,3.67c-31.46-.73-60-3-82.44-5.35l.11-1.05,30.47-216.37-.08-4.32c26.44-.47,52.28-.52,76.96-.07Z" style="fill: #e00505;"/>
          <path d="m1608.35,1468.05l.08,4.32-30.47,216.37-.11,1.05c-30.28-3.19-49.39-6.55-49.39-6.55,0,0,1.43-24.53-10-22-6,1.33-10.83,7.9-14.48,15.81l7.09-202.42-.16-3.21c32.72-1.68,65.52-2.81,97.44-3.37Z" style="fill: #fff;"/>
          <path d="m1510.96,1471.42l.16,3.21-7.16,202.42c-1.17,2.54-2.22,5.21-3.16,7.89l-1-.24c-22.73,6.65-45.85,11.88-69.23,15.68l-.61-3.64-5-220c28.13-2.07,57-3.88,86-5.32Z" style="fill: #e00505;"/>
          <path d="m1429.96,1696.74l.59,3.64c-29.12,4.76-58.59,7.06-88.09,6.88h0c-2-9.45,0-225,0-225v-.71c27.31-1.22,55.42-2.79,82.53-4.79l4.97,219.98Z" style="fill: #fff;"/>
          <path d="m1249.05,1691.47l-1.21,5.81c-48.43-10.19-75.88-24.54-75.88-24.54,2-40.63-11-186.82-11-186.82,0,0,35.25,0,85.71-1.21l.12,5.73s.35,175.77,2.26,201.03Z" style="fill: #fff;"/>
        </g>
        <g>
          <path d="m1921.42,1479.18c.94-11.07.73-22.2-.63-33.23.73-5.56-15.35-2.4-19.67-5-45.05-3.19-111.67-20-508.87-.89-125.81,6.07-293.67,31.79-307.23-15.43,0,0-24.48,21.77-3.64,82.75.4,4.35,9.15,20,10.47,25.9,10.54,47.22,14.64,158.5,14.64,158.5,0,0,220.19,109.46,388,18.46,1.43-8.59,3.56-17.05,6.36-25.3.94-2.68,2-5.35,3.16-7.89,3.65-7.91,8.43-14.48,14.48-15.81,11.43-2.53,10,22,10,22v27s223.16,56.05,360.16-22.72c0,0-1.19-12.13-1.74-30-1.09-35.09.29-92.22,18.08-122.25,10.97-18.46,15.1-39.24,16.43-56.09Z" style="fill: none; stroke: #000; stroke-miterlimit: 10; stroke-width: 12.93px;"/>
          <path d="m1528.46,1683.24s19.11,3.36,49.39,6.55c22.42,2.35,51,4.62,82.44,5.35,30.7.83,61.42-.17,92-3,26-2.53,52-6.72,76.51-13.22,20.37-5.4,39.73-12.38,57.24-21.33" style="fill: none; stroke: #000; stroke-linecap: round; stroke-linejoin: round; stroke-width: 14px;"/>
        </g>
      </g>
      <g id="stars">
        <g style="clip-path: url(#clippath);">
          <g>
            <polygon points="1105.23 1468.57 1119.68 1448.53 1124.78 1474.67 1148.58 1482.51 1125.63 1499.07 1129.03 1526.09 1106.93 1502.56 1082.29 1513.02 1090.79 1491.23 1079.74 1465.96 1105.23 1468.57" style="fill: #f4f4f4;"/>
            <polygon points="1099.05 1552.51 1108.58 1529.59 1119.44 1553.81 1144.36 1555.8 1125.77 1577.35 1135.17 1602.83 1108.37 1585.17 1086.75 1601.19 1090.1 1577.98 1073.65 1556.02 1099.05 1552.51" style="fill: #f4f4f4;"/>
            <polygon points="1113.46 1628.7 1128.45 1609.08 1132.83 1635.36 1156.41 1643.88 1133.02 1659.77 1135.68 1686.87 1114.23 1662.72 1089.31 1672.47 1098.4 1650.93 1088.04 1625.36 1113.46 1628.7" style="fill: #f4f4f4;"/>
            <polygon points="1112.04 1720.11 1115.66 1695.46 1132.1 1716.12 1156.71 1711.64 1143.99 1737.28 1159.32 1759.53 1129.05 1749.33 1112.04 1770.4 1109.61 1747.07 1088.31 1730.03 1112.04 1720.11" style="fill: #f4f4f4;"/>
          </g>
        </g>
      </g>
      <path d="m1440.96,1646.74s140,8,203-7c24-4,10,11-18,17-30.56,6.55-23,14-7,16s-21,30-20,45l-65-13s3-48-13-48c-24.44,0-31,50-31,50l-26,11s5-22-4-27-35.87-9.41-3-17c26-6-75-26-16-27Z" style="isolation: isolate; opacity: .2;"/>
    </g>
    <g id="clothing-shoes">
      <g>
        <g>
          <g>
            <g>
              <path d="m2165.34,2145.85c-.72,5.55-1.92,10.08-3.63,13.2-3.85,7.05-9.08,8.4-11.3,11.29-10,13-120.24,50.92-247.74,55.42-112.47,3.97-224.97-87.69-242.21-99.52s-81.5-8.5-139.5-32.5c-11.2-4.63-19.11-12.67-24.49-22.95,16.25,2.88,68.99,23.45,151.49,29.95,39.17,3.09,100.75,64.65,152.9,81.46,50.82,16.38,113.34,31.96,212.89,8.47,92.96-21.93,144.38-41.93,151.59-44.82h0Z" style="fill: #bc9d58;"/>
              <g>
                <path d="m2147.02,2051.76c-1.32,9.67-11.14-1.25-41.22,5.08-32.19,6.78-59.29,20.33-130.45,59.29-55.2,30.23-131.89,12.11-161.89-1.89s-94-47-179-57c-77.39-9.1-134.88-48.88-146.59-57.96,3.31-34.6,13.26-70.13,20.09-91.54,10.03-31.43,12.9-62.4,14.01-86.36,2.98.99,108.83,35.57,193.06,16.35l1.3-.94c36.34,50.5,90.12,119.11,107.13,140.45,27.5,34.5,67,44,105,35,33.99-8.05,81.58-14.48,92-31,2.05-3.25-12.73-15.44-34.21-33.49l.55-.65c22.33,18.92,50.32,34.2,100.37,58.92,11.77,7.58,45.51,19.79,51.88,27.88,3.83,4.87,7.28,10.83,10.34,17.49l-2.37.37h0Z" style="fill: #fff;"/>
                <path d="m2105.8,2056.84c30.08-6.33,39.9,4.59,41.22-5.08l2.37-.37c13.23,28.84,19.01,70.82,15.95,94.46-7.21,2.89-58.63,22.89-151.59,44.82-99.55,23.49-162.07,7.91-212.89-8.47-52.15-16.81-113.73-78.37-152.9-81.46-82.5-6.5-135.24-27.07-151.49-29.95-9.78-18.7-11.16-44.83-8.6-71.51,11.71,9.08,69.2,48.86,146.59,57.96,85,10,149,43,179,57s106.69,32.12,161.89,1.89c71.16-38.96,98.26-52.51,130.45-59.29h0Z" style="fill: #fff;"/>
              </g>
              <g>
                <path d="m1947.96,1904.74c13.37,17.58,25.02,30.67,38.84,42.36l-.55.65c-38.48-32.31-98.46-83.4-121.85-135.51,5.49-.36,18.3-2.18,22.61-11.25,6.06,57.94,28.28,60.81,60.95,103.75h0Z" style="fill: #fff;"/>
                <path d="m1678.74,1783.86c20.57.88,43.72-17.62,62.72-1.62,1.63,2.01,2.64,4.9,3.6,8.02,1.16,3.79,2.24,7.91,4.25,11.19l-.42.26c.1.15.21.32.31.48,13.78,21.08,87.07,132.73,105.76,149.55,20,18,35,25,54,22s51-5,47-16-85.88-78.17-109.81-149.4l.31-.1c-2.18-12.39-2.95-21.26-2.81-27.51.58-24.93,15.81-8.49,15.81-8.49l.5,1.5c-1.04,11.95-1.21,14.52-2,22,1.83,5.54,3.99,11.04,6.44,16.5,23.39,52.11,83.37,103.2,121.85,135.51,21.48,18.05,36.26,30.24,34.21,33.49-10.42,16.52-58.01,22.95-92,31-38,9-77.5-.5-105-35-17.01-21.34-70.79-89.95-107.13-140.45-19.24-26.75-34.1-47.95-37.59-52.93h0Z" style="fill: #fff;"/>
                <path d="m1885.96,1787.74c.27,4.72.62,9.12,1.05,13.25-4.31,9.07-17.12,10.89-22.61,11.25-2.45-5.46-4.61-10.96-6.44-16.5.79-7.48.96-10.05,2-22,18.08-11.15,11.58-16.85,15.44-16.76,10.44.24,10.56,30.76,10.56,30.76h0Z" style="fill: #fff;"/>
                <path d="m1843.65,1780.73c-.14,6.25.63,15.12,2.81,27.51l-.31.1c23.93,71.23,105.85,138.51,109.81,149.4s-28,13-47,16-34-4-54-22c-18.69-16.82-91.98-128.47-105.76-149.55-.1-.16-.21-.33-.31-.48l.42-.26c-2.01-3.28-3.09-7.4-4.25-11.19,6.46-5.72,58.44-49.4,97.59-9.56l1,.03Z" style="fill: #fff;"/>
                <path d="m1536.97,1767.7c57.01,10.2,103.39,14.5,141.77,16.16,3.49,4.98,18.35,26.18,37.59,52.93l-1.3.94c-84.23,19.22-190.08-15.36-193.06-16.35.54-11.87.66-22.02.99-29.64,1-23,14.01-24.04,14.01-24.04h0Z" style="fill: #fff;"/>
              </g>
            </g>
            <g>
              <path d="m1859.96,1773.74c-1.04,11.95-1.21,14.52-2,22" style="fill: none; stroke: #000; stroke-miterlimit: 10; stroke-width: 13px;"/>
              <path d="m1751.46,1804.24c-.7-.7-1.31-1.47-1.85-2.31l-.3-.48c-2.01-3.28-3.09-7.4-4.25-11.19" style="fill: none; stroke: #000; stroke-miterlimit: 10; stroke-width: 13px;"/>
              <path d="m1678.74,1783.86c20.57.88,43.72-17.62,62.72-1.62,1.63,2.01,2.64,4.9,3.6,8.02" style="fill: none; stroke: #000; stroke-miterlimit: 10; stroke-width: 13px;"/>
              <path d="m1487.87,1999.28c3.31-34.6,13.26-70.13,20.09-91.54,10.03-31.43,12.9-62.4,14.01-86.36" style="fill: none; stroke: #000; stroke-miterlimit: 10; stroke-width: 13px;"/>
              <path d="m1487.87,1999.28c-2.56,26.68-1.18,52.81,8.6,71.51" style="fill: none; stroke: #000; stroke-miterlimit: 10; stroke-width: 13px;"/>
              <path d="m1521.97,1821.38c.54-11.87.66-22.02.99-29.64,1-23,14.01-24.04,14.01-24.04,57.01,10.2,103.39,14.5,141.77,16.16" style="fill: none; stroke: #000; stroke-miterlimit: 10; stroke-width: 13px;"/>
              <path d="m1887.01,1800.99c6.06,57.94,28.28,60.81,60.95,103.75,13.37,17.58,25.02,30.67,38.84,42.36,22.33,18.92,50.32,34.2,100.37,58.92,11.77,7.58,45.51,19.79,51.88,27.88" style="fill: none; stroke: #000; stroke-miterlimit: 10; stroke-width: 13px;"/>
              <path d="m1859.96,1773.74c18.08-11.15,11.58-16.85,15.44-16.76,10.44.24,10.56,30.76,10.56,30.76.27,4.72.62,9.12,1.05,13.25" style="fill: none; stroke: #000; stroke-miterlimit: 10; stroke-width: 13px;"/>
              <path d="m2139.05,2033.9c3.83,4.87,7.28,10.83,10.34,17.49,13.23,28.84,19.01,70.82,15.95,94.46-.72,5.55-1.92,10.08-3.63,13.2-3.85,7.05-9.08,8.4-11.3,11.29-10,13-120.24,50.92-247.74,55.42-112.47,3.97-224.97-87.69-242.21-99.52s-81.5-8.5-139.5-32.5c-11.2-4.63-19.11-12.67-24.49-22.95" style="fill: none; stroke: #000; stroke-miterlimit: 10; stroke-width: 13px;"/>
              <path d="m1496.47,2070.79c-1.45-.26-2.24-.4-2.24-.4" style="fill: none; stroke: #000; stroke-miterlimit: 10; stroke-width: 13px;"/>
              <path d="m2166.22,2145.5s-.29.12-.88.35c-7.21,2.89-58.63,22.89-151.59,44.82-99.55,23.49-162.07,7.91-212.89-8.47-52.15-16.81-113.73-78.37-152.9-81.46-82.5-6.5-135.24-27.07-151.49-29.95" style="fill: none; stroke: #000; stroke-miterlimit: 10; stroke-width: 13px;"/>
              <path d="m1864.4,1812.24c23.39,52.11,83.37,103.2,121.85,135.51,21.48,18.05,36.26,30.24,34.21,33.49-10.42,16.52-58.01,22.95-92,31-38,9-77.5-.5-105-35-17.01-21.34-70.79-89.95-107.13-140.45-19.24-26.75-34.1-47.95-37.59-52.93" style="fill: none; stroke: #000; stroke-miterlimit: 10; stroke-width: 13px;"/>
              <path d="m1864.4,1812.24c-2.45-5.46-4.61-10.96-6.44-16.5" style="fill: none; stroke: #000; stroke-miterlimit: 10; stroke-width: 13px;"/>
              <path d="m1677.96,1782.74s.27.39.78,1.12" style="fill: none; stroke: #000; stroke-miterlimit: 10; stroke-width: 13px;"/>
              <path d="m1846.46,1808.24c-2.18-12.39-2.95-21.26-2.81-27.51.58-24.93,15.81-8.49,15.81-8.49" style="fill: none; stroke: #000; stroke-miterlimit: 10; stroke-width: 13px;"/>
              <path d="m1748.89,1801.71c.1.15.21.32.31.48,13.78,21.08,87.07,132.73,105.76,149.55,20,18,35,25,54,22s51-5,47-16-85.88-78.17-109.81-149.4c-.24-.7-.47-1.4-.69-2.1" style="fill: none; stroke: #000; stroke-miterlimit: 10; stroke-width: 13px;"/>
              <path d="m1715.03,1837.73c-84.23,19.22-190.08-15.36-193.06-16.35" style="fill: none; stroke: #000; stroke-miterlimit: 10; stroke-width: 13px;"/>
              <path d="m1521.97,1821.38c-.05,0-.07-.02-.07-.02" style="fill: none; stroke: #000; stroke-miterlimit: 10; stroke-width: 13px;"/>
              <path d="m1861.85,1812.32s.97.02,2.55-.08" style="fill: none; stroke: #000; stroke-miterlimit: 10; stroke-width: 13px;"/>
              <path d="m1864.4,1812.24c5.49-.36,18.3-2.18,22.61-11.25" style="fill: none; stroke: #000; stroke-miterlimit: 10; stroke-width: 13px;"/>
              <path d="m1887.01,1800.99c.08-.18.17-.35.25-.53" style="fill: none; stroke: #000; stroke-miterlimit: 10; stroke-width: 13px;"/>
              <path d="m1487.87,1999.28c-1.16-.89-1.87-1.49-2.11-1.74" style="fill: none; stroke: #000; stroke-miterlimit: 10; stroke-width: 13px;"/>
              <path d="m1487.87,1999.28c11.71,9.08,69.2,48.86,146.59,57.96,85,10,149,43,179,57s106.69,32.12,161.89,1.89c71.16-38.96,98.26-52.51,130.45-59.29,30.08-6.33,39.9,4.59,41.22-5.08" style="fill: none; stroke: #000; stroke-miterlimit: 10; stroke-width: 13px;"/>
              <path d="m2139.05,2033.9c.05-.42.09-.85.07-1.34" style="fill: none; stroke: #000; stroke-miterlimit: 10; stroke-width: 13px;"/>
              <path d="m1744.39,1790.86s.23-.21.67-.6" style="fill: none; stroke: #000; stroke-miterlimit: 10; stroke-width: 13px;"/>
              <path d="m1745.06,1790.26c6.46-5.72,58.44-49.4,97.59-9.56" style="fill: none; stroke: #000; stroke-miterlimit: 10; stroke-width: 13px;"/>
            </g>
          </g>
          <path d="m1575.54,1779s-20.13,30.91-11.86,50.82c0,0-61.91,178.47,118.59,241.13s449.53,65.53,468.14-14.68c0,0,44.05,90.35-12.42,125.36,0,0-150.02,61.18-290.82,36.14s-150.75-67.6-169.98-81.32-102.23-29.72-157.23-26.72-35.92-134.2-18.96-168.1c16.96-33.9,18.7-72.9,20.33-86.4s-1.22-78.24,8.63-83.5,31.17,4.53,45.58,7.26h0Z" style="isolation: isolate; opacity: .2;"/>
        </g>
        <g>
          <g>
            <path d="m1568.43,2241.21c-50,43-324.83,51.53-397.83,1.53-33.43-18.07-100.59-98.59-105.61-173.88,6.05,15.88,61.79,162.22,166.75,173.56,109.36,11.82,309.78,17.23,358.49-34.24l1.02.51c-5.41,10.7-12.91,21.52-22.82,32.52h0Z" style="fill: #bc9d58;"/>
            <path d="m1590.23,2208.18c-48.71,51.47-249.13,46.06-358.49,34.24-104.96-11.34-160.7-157.68-166.75-173.56-.54-8.05-.37-16.04.63-23.88,10.34-81.24,27.84-140.74,40.84-174.74,3.98-10.41,6.18-22.04,7.31-33.17l1.69.17s89.85,32.88,131.43,34.94l1.81-.33c1.25,6.81,2.43,14.25,3.5,22.37,12.45,94.47,22.92,169.98,72.3,173.96,49.37,3.98,99.32-.97,113.82-4,21.52-4.5,30.73-35.89,13.55-68.89-11.29-21.7-17.9-79.38-17.02-129.95l3.47.06,23.72-13.55,2.15-.18c2.78,35.63,14.04,95.52,55.45,150.96,55.59,74.42,106.06,137.91,71.61,206.06l-1.02-.51h0Z" style="fill: #fff;"/>
            <g>
              <path d="m1463.73,1819.66s-1.07,12.29.46,32.01l-2.15.18-23.72,13.55-3.47-.06c.39-23.04,2.34-44.59,6.11-60.6h-3c-.74-.34-1.5-.67-2.28-.99,7.76-7.35,20.62-18.25,26.28-21.01,0,0,9.54,9.85,1.77,36.92h0Z" style="fill: #fff;"/>
              <path d="m1409.99,1812.22c6.05-13.99,16.79-12.14,25.69-8.47.78.32,1.54.65,2.28.99h3c-3.77,16.01-5.72,37.56-6.11,60.6-.88,50.57,5.73,108.25,17.02,129.95,17.18,33,7.97,64.39-13.55,68.89-14.5,3.03-64.45,7.98-113.82,4-49.38-3.98-59.85-79.49-72.3-173.96-1.07-8.12-2.25-15.56-3.5-22.37-11.32-61.58-29.09-72.01-35.24-74.61l.31-1.94c5.31.83,10.56,1.55,15.7,2.11,6.76.74,13.32,1.21,19.49,1.33,0,0,10.54,0,21.04,10.24,8.64,8.42,17.25,23.78,19.96,51.76,6,62,23,174,41,183s83.5,5.5,99.5-1.5c8-8-13.5-41.5-16.5-60.5s-11.95-132.25-7-159c.78-4.23,1.81-7.7,3.03-10.52Z" style="fill: #fff;"/>
              <path d="m1270.04,1808.93s93.05-50.96,139.95,3.29c-1.22,2.82-2.25,6.29-3.03,10.52-4.95,26.75,4,140,7,159s24.5,52.5,16.5,60.5c-16,7-81.5,10.5-99.5,1.5s-35-121-41-183c-2.71-27.98-11.32-43.34-19.96-51.76l.04-.05Z" style="fill: #fff;"/>
              <path d="m1113.46,1789.24s-2-15,1.5-18.5c0,0,51.2,17.06,98.81,24.56l-.31,1.94c6.15,2.6,23.92,13.03,35.24,74.61l-1.81.33c-41.58-2.06-131.43-34.94-131.43-34.94l-1.69-.17c2.58-25.21-.31-47.83-.31-47.83h0Z" style="fill: #fff;"/>
            </g>
          </g>
          <g>
            <path d="m1213.46,1797.24c6.15,2.6,23.92,13.03,35.24,74.61,1.25,6.81,2.43,14.25,3.5,22.37,12.45,94.47,22.92,169.98,72.3,173.96,49.37,3.98,99.32-.97,113.82-4,21.52-4.5,30.73-35.89,13.55-68.89-11.29-21.7-17.9-79.38-17.02-129.95.39-23.04,2.34-44.59,6.11-60.6" style="fill: none; stroke: #000; stroke-linecap: round; stroke-linejoin: round; stroke-width: 13px;"/>
            <path d="m1226.96,1796.74s.92,0,2.51.67" style="fill: none; stroke: #000; stroke-linecap: round; stroke-linejoin: round; stroke-width: 13px;"/>
            <path d="m1229.47,1797.41c6.76.74,13.32,1.21,19.49,1.33,0,0,10.54,0,21.04,10.24,8.64,8.42,17.25,23.78,19.96,51.76,6,62,23,174,41,183s83.5,5.5,99.5-1.5c8-8-13.5-41.5-16.5-60.5s-11.95-132.25-7-159c.78-4.23,1.81-7.7,3.03-10.52" style="fill: none; stroke: #000; stroke-linecap: round; stroke-linejoin: round; stroke-width: 13px;"/>
            <path d="m1409.99,1812.22c6.05-13.99,16.79-12.14,25.69-8.47" style="fill: none; stroke: #000; stroke-linecap: round; stroke-linejoin: round; stroke-width: 13px;"/>
            <path d="m1229.47,1797.41c-5.14-.56-10.39-1.28-15.7-2.11-47.61-7.5-98.81-24.56-98.81-24.56-3.5,3.5-1.5,18.5-1.5,18.5,0,0,2.89,22.62.31,47.83-1.13,11.13-3.33,22.76-7.31,33.17-13,34-30.5,93.5-40.84,174.74-1,7.84-1.17,15.83-.63,23.88,5.02,75.29,72.18,155.81,105.61,173.88,73,50,347.83,41.47,397.83-1.53,9.91-11,17.41-21.82,22.82-32.52,34.45-68.15-16.02-131.64-71.61-206.06-41.41-55.44-52.67-115.33-55.45-150.96-1.53-19.72-.46-32.01-.46-32.01,7.77-27.07-1.77-36.92-1.77-36.92-5.66,2.76-18.52,13.66-26.28,21.01" style="fill: none; stroke: #000; stroke-linecap: round; stroke-linejoin: round; stroke-width: 13px;"/>
            <path d="m1437.96,1804.74c-.74-.34-1.5-.67-2.28-.99" style="fill: none; stroke: #000; stroke-linecap: round; stroke-linejoin: round; stroke-width: 13px;"/>
            <path d="m1590.23,2208.18c-48.71,51.47-249.13,46.06-358.49,34.24-104.96-11.34-160.7-157.68-166.75-173.56-.25-.67-.42-1.1-.5-1.29" style="fill: none; stroke: #000; stroke-linecap: round; stroke-linejoin: round; stroke-width: 13px;"/>
            <path d="m1270.04,1808.93s93.05-50.96,139.95,3.29" style="fill: none; stroke: #000; stroke-linecap: round; stroke-linejoin: round; stroke-width: 13px;"/>
            <path d="m1410.08,1812.32s-.06-.07-.09-.1" style="fill: none; stroke: #000; stroke-linecap: round; stroke-linejoin: round; stroke-width: 13px;"/>
            <path d="m1115.46,1837.24s89.85,32.88,131.43,34.94" style="fill: none; stroke: #000; stroke-linecap: round; stroke-linejoin: round; stroke-width: 13px;"/>
            <line x1="1462.04" y1="1851.85" x2="1438.32" y2="1865.4" style="fill: none; stroke: #000; stroke-linecap: round; stroke-linejoin: round; stroke-width: 13px;"/>
          </g>
        </g>
        <path d="m1422.46,1822.24s-134,34-151,44c0,0,137,28,147,30,0,0-131,35-135,36s134,22,139,25-125,40-125,40c0,0,136,13,145,31l-140-1s136-40,128-44-142-22-142-22c8-7,133-35,133-35-11-6-145-27-147-27,13-10,145-39,145-39-39-19-163-32-163-32" style="fill: none; stroke: #000; stroke-linecap: round; stroke-linejoin: round; stroke-width: 16px;"/>
        <g>
          <path d="m1930.18,1959.63c20.86-10.36,38.27-19.64,34.88-20.22-3.47-.59-33.46-2.53-65.84-4.51" style="fill: none; stroke: #000; stroke-linecap: round; stroke-linejoin: round; stroke-width: 16px;"/>
          <path d="m1820.94,1849.23c28.24-11.06,58.56-21.92,58.56-21.92-7.1-4.82-32.83-8.76-61.07-11.76" style="fill: none; stroke: #000; stroke-linecap: round; stroke-linejoin: round; stroke-width: 16px;"/>
          <path d="m1865.94,1902.72c24.8-10.5,49.04-19.78,49.04-19.78-4.11-1.01-33.04-3.4-63.71-5.8" style="fill: none; stroke: #000; stroke-linecap: round; stroke-linejoin: round; stroke-width: 16px;"/>
          <path d="m1865.94,1902.72c-24.78,10.5-50.1,22.21-52.32,27.12,0,0,44.71,2.57,85.59,5.07" style="fill: none; stroke: #000; stroke-linecap: round; stroke-linejoin: round; stroke-width: 16px;"/>
          <path d="m1930.18,1959.63c-27.44,13.62-60.86,29.11-60.86,29.11,0,0,96.73-16.27,119.98-18.33" style="fill: none; stroke: #000; stroke-linecap: round; stroke-linejoin: round; stroke-width: 16px;"/>
          <path d="m1820.94,1849.23c-23.16,9.07-44.92,18.26-47.43,21.7,3.6.59,41.87,3.4,77.76,6.2" style="fill: none; stroke: #000; stroke-linecap: round; stroke-linejoin: round; stroke-width: 16px;"/>
          <path d="m1818.44,1815.55c-41.98-4.45-89.48-6.79-89.48-6.79" style="fill: none; stroke: #000; stroke-linecap: round; stroke-linejoin: round; stroke-width: 16px;"/>
          <path d="m1818.44,1815.55c26.35-12,45.97-19.04,45.97-19.04" style="fill: none; stroke: #000; stroke-linecap: round; stroke-linejoin: round; stroke-width: 16px;"/>
          <path d="m1851.28,1877.14c22.57-9.36,43.1-16.56,43.1-16.56-9.25-6.4-42.18-9.67-73.44-11.34" style="fill: none; stroke: #000; stroke-linecap: round; stroke-linejoin: round; stroke-width: 16px;"/>
          <path d="m1930.18,1959.63c23.83.1,46.81,2.66,59.12,10.78" style="fill: none; stroke: #000; stroke-linecap: round; stroke-linejoin: round; stroke-width: 16px;"/>
          <path d="m1818.44,1815.55c-18.53,8.44-40.38,19.32-61.07,31.93,0,0,30.87,0,63.58,1.75" style="fill: none; stroke: #000; stroke-linecap: round; stroke-linejoin: round; stroke-width: 16px;"/>
          <path d="m1899.21,1934.91c21.71-10.03,41.95-17.61,41.95-17.61-12.99-10.18-44.88-13.71-75.22-14.58" style="fill: none; stroke: #000; stroke-linecap: round; stroke-linejoin: round; stroke-width: 16px;"/>
          <path d="m1851.28,1877.14c-20.47,8.49-42.63,18.77-52.7,27.07,0,0,32.66-2.48,67.36-1.49" style="fill: none; stroke: #000; stroke-linecap: round; stroke-linejoin: round; stroke-width: 16px;"/>
          <path d="m1899.21,1934.91c-20.29,9.38-41.85,20.9-49.39,30.38,3.98,0,43.2-5.81,80.36-5.66" style="fill: none; stroke: #000; stroke-linecap: round; stroke-linejoin: round; stroke-width: 16px;"/>
        </g>
        <path d="m1136.77,1782.39v62.68s-40.72,143.21-29.36,215.72c14.29,91.22,140.54,120.83,283.48,116.33,143.78-4.52,189.63-46.81,193.13-58.73s44.08,33.06,10.42,86.82c-33.67,53.76-48.89,62.34-145.95,70.17-97.05,7.83-218.05,13.77-296.47-47.44-78.42-61.2-87.36-126.8-84.71-144s6.62-110.18,18.64-145.69,27.11-79.62,27.11-79.62l3.39-54.21s-9.86-46.37,20.33-22.02h-.01Z" style="isolation: isolate; opacity: .2;"/>
        <path d="m1070.7,2016.18s17.35,83.46,72.85,125.36c83.01,62.68,116.95,11.76,194.82,15.25,113.51,5.08,199.91-13.55,223.62-28.8,19.38-12.46,37.27,16.94,37.27,16.94" style="fill: none; stroke: #000; stroke-miterlimit: 10; stroke-width: 13px;"/>
      </g>
    </g>
  </g>
  <g id="Boxing_Gloves" data-name="Boxing Gloves">
    <g>
      <g>
        <g>
          <path d="m2083.18,996.76c-22.78-11-41.45-22.2-54.35-31.34-43.67-30.93-35.31-100.7-30.41-126.67,15.58-64.77,72.15-193.54,272.1-126.31,262,88.09,173.71,324.7,154,364.17,0,0-21.93,140.35-94.11,206.18,0,0-45.74,152.19-204.42,132.14,0,0-169.41-45.18-202.42-183,0,0-23.47-70,46.56-103.86,3.59-1.85,6.81-4.36,9.48-7.39,6.94-7.92,12.14-22.43-7.22-44.56-6-6.84-13.83-15.86-21.7-26.48l.81-.6c12.64,17,54.24,65,106.72,40.63,63.25-29.37,24.85-92.61,24.85-92.61l.11-.3Z" style="fill: red;"/>
          <path d="m1951.47,1049.03l-.81.6c-33.71-45.45-67.85-120,42-176.82,1.02-11.48,2.94-22.87,5.73-34.06-4.9,26-13.26,95.74,30.41,126.67,12.9,9.14,31.57,20.33,54.35,31.34l-.14.29s38.4,63.24-24.85,92.61c-52.49,24.37-94.05-23.6-106.69-40.63Z" style="fill: red;"/>
        </g>
        <g>
          <path d="m1998.42,838.75c15.58-64.77,72.15-193.54,272.1-126.31,262,88.09,173.71,324.7,154,364.17,0,0-21.93,140.35-94.11,206.18,0,0-45.74,152.19-204.42,132.14,0,0-169.41-45.18-202.42-183,0,0-23.47-70,46.56-103.86,3.59-1.85,6.81-4.36,9.48-7.39,6.94-7.92,12.14-22.43-7.22-44.56-6-6.84-13.83-15.86-21.7-26.48-33.71-45.45-67.85-120,42-176.82,1.02-11.49,2.94-22.88,5.73-34.07Z" style="fill: none; stroke: #000; stroke-miterlimit: 10; stroke-width: 14px;"/>
          <path d="m2000.59,828.77s-1,3.71-2.17,10c-4.9,26-13.26,95.74,30.41,126.67,12.9,9.14,31.57,20.33,54.35,31.34,72.92,35.26,188,68.7,291.25,27.39" style="fill: none; stroke: #000; stroke-miterlimit: 10; stroke-width: 14px;"/>
          <path d="m1947.51,1043.35s1.37,2.19,4,5.68c12.64,17,54.24,65,106.72,40.63,63.25-29.37,24.85-92.61,24.85-92.61" style="fill: none; stroke: #000; stroke-miterlimit: 10; stroke-width: 14px;"/>
          <path d="m1976.87,1116.77s.9,1.39,2.71,3.9c18.94,26.2,137.45,173.9,368.59,122.87" style="fill: none; stroke: #000; stroke-miterlimit: 10; stroke-width: 14px;"/>
        </g>
      </g>
      <g>
        <path d="m2237.94,1269.88s19.48,29.84,21.5,46.89" style="fill: none; stroke: #000; stroke-linecap: round; stroke-miterlimit: 10; stroke-width: 14px;"/>
        <line x1="2223.17" y1="1304.71" x2="2277.23" y2="1281.48" style="fill: none; stroke: #000; stroke-linecap: round; stroke-miterlimit: 10; stroke-width: 14px;"/>
      </g>
      <g>
        <path d="m2214.99,1317.35s11.1,30.78,9.39,46.64" style="fill: none; stroke: #000; stroke-linecap: round; stroke-miterlimit: 10; stroke-width: 14px;"/>
        <line x1="2194.83" y1="1346.19" x2="2247.31" y2="1335.3" style="fill: none; stroke: #000; stroke-linecap: round; stroke-miterlimit: 10; stroke-width: 14px;"/>
      </g>
      <g>
        <path d="m2183.25,1357.83s3.82,29.44-.79,43.16" style="fill: none; stroke: #000; stroke-linecap: round; stroke-miterlimit: 10; stroke-width: 14px;"/>
        <line x1="2159.76" y1="1379.41" x2="2208.37" y2="1380.02" style="fill: none; stroke: #000; stroke-linecap: round; stroke-miterlimit: 10; stroke-width: 14px;"/>
      </g>
      <path d="m2440.5,875.07s6.77,157.55-40.66,155.86c-17.82-.64-35.39,5.42-51.2,13.32-9.74-4.9-24.6-4.61-29.24-4.37,101.12-5.54,81-119.63,81-119.63-39.53,44-153.6,38.4-281.22-1.13s-97.13-133.29-97.13-133.29c-89.22,183,61,211.2,68.9,220.23s18.07,53.09-23.72,81.32-82.45-4.52-82.45-4.52l-.28,42.72,34.16,27.31c98.26,15.81,112.94-96,112.94-96,60.78,30.09,119.39,34.9,161.68,29.57,28.07,165.67-159.42,147.74-159.42,147.74l37.91,12.41c3.48,13.52,6.18,50.43-55.41,78.51-76.8,35-167.16-55.34-167.16-55.34,61.95,83.93,120.51,111.73,172.95,121.32,84,27.76,170.43-46.58,181.12-60.33,11.86-15.25,27.11-48,40.66-61,81.32-84.71,71.79-200.86,71.79-200.86,52.63-67.96,24.78-193.84,24.78-193.84Z" style="isolation: isolate; opacity: .2;"/>
    </g>
    <g>
      <path d="m977.29,1839.63c-13.34-12.14-8-10.67-24.57-12.7,6.49-5.56,23.23-26.58,31.91-39.25,29.25-76-45.82-162.41-95.44-197.93,0,0,44-61.43,25.42-108.42-32.47-81.89-313.55-100.54-338.83-77.09-31.34,29.09-21.84,81.24-20.33,129.6-3.09,10.82-57.55,119.77-45.74,262.59,12.43,150.21,78.5,201.32,283.85,214.87,198.11,13.08,227.87-131.48,183.73-171.67Z" style="fill: red; stroke: #000; stroke-miterlimit: 10; stroke-width: 14px;"/>
      <path d="m880.74,1783.16s-13.55,76.75,20.33,83.58" style="fill: none; stroke: #000; stroke-linecap: round; stroke-linejoin: round; stroke-width: 14px;"/>
      <path d="m878.47,1837.38s59.16,7.8,81.88-18.92" style="fill: none; stroke: #000; stroke-linecap: round; stroke-linejoin: round; stroke-width: 14px;"/>
      <path d="m889.74,1593.38c-14.12-21.46-88.66-43.48-88.66-43.48" style="fill: none; stroke: #000; stroke-linecap: round; stroke-miterlimit: 10; stroke-width: 14px;"/>
      <path d="m567.54,1533.46s55.68-15.71,137-1" style="fill: none; stroke: #000; stroke-linecap: round; stroke-miterlimit: 10; stroke-width: 14px;"/>
      <path d="m567.31,1892.15c5.09,1.69,163.2,67.2,304.94,62.68s128.76-57.6,128.76-57.6c0,0-19,158.22-244,108.42-206.64-45.74-189.7-113.5-189.7-113.5Z" style="isolation: isolate; opacity: .2;"/>
      <path d="m887.5,1636.38s66.07,74.54,54.21,122" style="fill: none; isolation: isolate; opacity: .3; stroke: #fff; stroke-linecap: round; stroke-miterlimit: 10; stroke-width: 30px;"/>
      <path d="m592.16,1870.69s52.52,39,199.91,35.58" style="fill: none; isolation: isolate; opacity: .3; stroke: #fff; stroke-linecap: round; stroke-miterlimit: 10; stroke-width: 30px;"/>
      <path d="m950.18,1827.77c6.49-5.56,28.31-27.42,37-40.09,29.26-76-60.79-172-110.4-207.53l33-65.79c-8.47-42.92-43.53-61.63-78.5-76.8l-5.64,14.68s16.94,85.84-59.3,87.53c0,0,77.93,23.72,98.26,35.58s140.61,164.33,91.48,189.74-76.23,44.05-76.23,44.05c0,0-2.83,81.31,58.73,74.54,22.64-2.5,39-13.93,50.67-27.39-6.01-13.27-17.59-24.84-39.07-28.52Z" style="isolation: isolate; opacity: .2;"/>
    </g>
  </g>
</svg>