<?xml version="1.0" encoding="UTF-8"?>
<svg id="CLOTHING" xmlns="http://www.w3.org/2000/svg" xmlns:xlink="http://www.w3.org/1999/xlink" viewBox="0 0 3000 3000">
  <defs>
    <clipPath id="clippath">
      <path d="m1754.78,1198.09s43.75-15.72,83.41,4.68c0,0,8.6,65.78-33.15,73.41,0,0-44.7-3.1-50.25-78.09h-.01Z" style="fill: none;"/>
    </clipPath>
  </defs>
  <g id="Cricket-One-Day-Australia">
    <circle cx="1500" cy="1500" r="1200" style="fill: #4c6164;"/>
    <g>
      <path d="m2090.43,1157.35l-176,257c4,27-24,129-24,129-112,112-810,34-810,34,0-58-44-186-44-186,0,0-105,61-102,78s-23,20-23,20c0,0-288-200-299-213s17-34,17-34c129.78-177.3,295.27-237.91,380.55-258.17,50.19,29.63,107.86,56.73,173.51,77.98l-.06.19c27.66,59.41,239,175,244,182,12-34,104-84,104-84l40,61,39-70s77,41,86,66c0,0,69.7-97.57,71.85-144.79l-1.15-3.34h0c40.95-14.04,77.09-31.7,108.99-51.88,78.2,34.91,175,105.31,190.31,103.01,20-3,24,37,24,37h0Z" style="fill: #f4d314;"/>
      <path d="m1767.13,1069.22l1.15,3.34c-2.15,47.22-71.85,144.79-71.85,144.79-9-25-86-66-86-66,0,0,27.66-29.84,49.79-56.1,38.85-6.03,74.4-14.89,106.91-26.03h0Z" style="fill: #f4d314;"/>
      <path d="m1449.01,1107.47c34.78,22.87,82.42,52.88,82.42,52.88,0,0-92,50-104,84-5-7-216.34-122.59-244-182l.06-.19c77.22,25,165.46,41.91,265.52,45.31h0Z" style="fill: #f4d314;"/>
    </g>
    <g>
      <path d="m2413.17,1267.39l-10.7,17.11c-30.24-6.89-103.06-21.19-143.04-68.15-63-74-45.65-120.8-38.82-140.4,0,0-33.18,1.4-26.18,24.4,0,0-35,47-62,52,0,0-23-17-24-2s-111,124-15,271c57,71,134,40,134,40,0,0,89.5-21.61,172.75-153.31,0,0,12.61-1.47,16.25-7.69.55-.37,3.57-3.5,4-4,11-13-7.26-28.96-7.26-28.96Z" style="fill: #fff; stroke: #000; stroke-linecap: round; stroke-linejoin: round; stroke-width: 13px;"/>
      <path d="m2322.93,1274.85c-6,14-26,3-26,3-72,141-221.45,104.17-221.45,104.17,50.55,103.17,109.45,90.83,172.8,70.02,63.35-20.81,135.65-119.19,141.18-131.01,5.52-11.82,26.98-20.68,26.98-20.68,0,0-87.5-23.5-93.5-25.5h-.01Z" style="isolation: isolate; opacity: .2;"/>
    </g>
    <g>
      <path d="m1536.71,1604.78c-158.08,0-323.96-13.54-408.77-21.61l-.97-.09.06-.97c5.65-86.18-15.56-154.2-34.35-196.1-19.64-43.79-40.83-69.14-43.23-71.94-.34-.04-.69-.07-1.04-.09l-1-.06.06-1c1.45-23.59.44-43.2-2.99-58.3-6.16-27.08-24.86-69.18-39.88-103.01-14.53-32.7-22.67-51.41-21.07-55.69,3.39-9.03,93.54-62.38,105.19-69.24l.95-2.06.91.41c30.05,13.71,61.42,25.87,93.22,36.17l.94.31-.24.76c21.56,45.31,149.54,123.16,211.13,160.63,18.3,11.13,28.04,17.09,31.39,19.72,13.85-33.89,100.22-81.13,103.94-83.16l.81-.44,39.6,60.39,38.67-69.41.87.46c3.09,1.64,74.12,39.69,85.76,64.82,8.69-12.41,68.48-99.29,70.61-142.58l-1.14-3.32v-.88l.68-.24c21.8-7.47,43.02-16.27,63.06-26.15l.9-.44,1.56,3.17,82.62,72.43.02.42c.08,1.38,7.52,138.57,4.13,232.72-.61,16.81-1.52,31.45-2.73,43.52l1.11.11-2.04,20.29c3.89,27.08-22.9,125.12-24.04,129.29l-.07.25-.19.19c-40.29,40.29-159.54,60.72-354.43,60.72h-.01Z" style="fill: #f4d314;"/>
      <g>
        <path d="m1695.49,1217.69c-8.77-24.35-84.76-65.05-85.53-65.46l-1.15-.61.88-.95c.28-.3,27.9-30.12,49.76-56.06l.24-.29.37-.06c37.48-5.82,73.39-14.56,106.74-25.99l.94-.32,1.54,4.46v.19c-.91,19.75-13.31,50.21-36.88,90.56-17.51,29.99-34.99,54.52-35.17,54.76l-1.11,1.55-.65-1.79h.02Z" style="fill: #57b70b;"/>
        <path d="m1426.62,1244.93c-1.05-1.47-14.72-9.79-32.03-20.32-61.91-37.67-190.74-116.04-212.06-161.84l-.16-.35.48-1.52.96.31c83.01,26.87,172.25,42.1,265.25,45.26h.28l.23.16c34.37,22.6,81.93,52.57,82.4,52.87l1.44.91-1.5.82c-.92.5-91.8,50.2-103.53,83.45l-.64,1.81-1.12-1.56h0Z" style="fill: #57b70b;"/>
      </g>
      <path d="m1127.94,1583.17c-29.68-2.83-47.44-4.8-47.62-4.82l-.89-.1v-.89c0-57.18-43.45-184.21-43.89-185.48l-.1-.29.08-.29c1.25-4.72,2.63-10.81,3.99-17.61,7.67-34.15,11.15-56.06,9.54-60.16l1.68-1.03c.23.26,22.91,26.16,43.78,72.7,18.88,42.1,40.19,110.46,34.52,197.05l-.07,1.03-1.03-.1h0Z" style="fill: #57b70b;"/>
      <g>
        <path d="m1917.06,1351.35l.04-1.02c3.29-91.46-3.65-223.63-4.11-232.12l-82.28-72.13-1.4-2.84v-.86l.56-.28c15.71-7.75,31.09-16.36,45.72-25.61l.45-.29.49.22c39.8,17.76,84.61,44.83,120.62,66.59,21.19,12.8,39.49,23.86,52.31,30.34l.9.45-1.12,2.18-126.36,182.78-2.29,52.65-3.51-.07h-.02Z" style="fill: #57b70b;"/>
        <path d="m652.92,1214.52l-2.03-1.65.63-.77c126.23-155.08,278.62-209.97,358.22-228.88l.39-.09.35.21c25.78,15.22,52.73,29.26,80.09,41.72l.91.42-1.21,2.64-.27.16c-40.73,23.99-102.2,61.99-104.6,68.38-1.39,3.71,9.49,28.22,21.02,54.17,15.06,33.91,33.81,76.11,40.01,103.38,3.47,15.28,4.49,35.09,3.03,58.86l-.06,1-1-.07c-.56-.04-1.13-.06-1.73-.06-39.52,0-159.95,80.95-165.06,84.4l-.61.41-228.08-184.21v-.02Z" style="fill: #57b70b;"/>
      </g>
      <path d="m946.51,1451.63l-67.13-54.22,1.12-.76c5.8-3.91,36.49-24.45,71.21-44.49,46.27-26.71,78.22-40.25,94.96-40.25.64,0,1.26.02,1.86.06l.99.07-.06.99c-1.58,25.94-5.69,49.37-8,61.02-2.26,10.09-4.05,17.45-4.07,17.52l-.1.41-.37.21c-.61.36-61.5,35.82-88.7,59.87l-.75.66-.98-1.11.02.02Z" style="fill: #57b70b;"/>
      <g>
        <g>
          <path d="m1913.43,1414.25l1.95-19.42,4.4-43.66,156.12-222.87,4.48-2.99.57.74c8.34,10.75,10.39,30.37,10.47,31.2l.04.36-176.21,257.3-1.82-.67h0Z" style="fill: #57b70b;"/>
          <path d="m910.86,1490.17c-11.76-8.17-288.23-200.22-299.19-213.18-2.19-2.58-3.1-5.64-2.71-9.09,1.4-12.37,19.12-25.79,19.87-26.35l.6-.45,305.92,227.68.07.39c.73,4.13-.1,7.83-2.46,11-6.2,8.32-20.79,10.09-21.41,10.16l-.38.04-.31-.22v.02Z" style="fill: #57b70b;"/>
        </g>
        <g>
          <path d="m1917.1,1350.33l.04-.98,1.53.03,2.23-51.27,126.62-183.14,1.05-2.06.89.45c8.04,4.07,13.33,6.05,16.17,6.05h0c.23,0,.45-.01.65-.04.76-.11,1.52-.17,2.26-.17,4.7,0,8.88,2.31,12.41,6.86l.66.85-4.29,2.86-155.6,222.13" style="fill: #57b70b;"/>
          <path d="m628.04,1242.56l.59-.8c7.38-10.08,15.08-20.06,22.9-29.67l.63-.78,2.03,1.65,293.71,237.22,1.08,1.23-.75.66c-11.32,10.01-13.22,14.82-12.82,17.1l.44,2.48-307.82-229.1h0Z" style="fill: #57b70b;"/>
        </g>
      </g>
    </g>
    <g>
      <path d="m1183.49,1062.16c-65.65-21.25-123.32-48.35-173.51-77.98-85.28,20.26-250.77,80.87-380.55,258.17,0,0-28,21-17,34s299,213,299,213c0,0,26-3,23-20s102-78,102-78c0,0,44,128,44,186,0,0,698,78,810-34,0,0,28-102,24-129l176-257s-4-40-24-37c-15.31,2.3-112.11-68.1-190.31-103.01-31.9,20.18-68.04,37.84-108.99,51.87h0c-32.51,11.15-68.06,20.01-106.91,26.04-22.13,26.26-49.79,56.1-49.79,56.1l-39,70-40-61s-47.64-30.01-82.42-52.88c-100.06-3.4-188.3-20.31-265.52-45.31h0Z" style="fill: none; stroke: #000; stroke-linecap: round; stroke-linejoin: round; stroke-width: 11.35px;"/>
      <path d="m1531.43,1160.35s-92,50-104,84c-5-7-216.34-122.59-244-182" style="fill: none; stroke: #000; stroke-linecap: round; stroke-linejoin: round; stroke-width: 11.35px;"/>
      <path d="m1610.43,1151.35s77,41,86,66c0,0,69.7-97.57,71.85-144.79" style="fill: none; stroke: #000; stroke-linecap: round; stroke-linejoin: round; stroke-width: 11.35px;"/>
    </g>
    <g id="badge">
      <g style="clip-path: url(#clippath);">
        <g>
          <polygon points="1852.95 1277.97 1755.08 1277.97 1747.48 1190.88 1845.35 1190.88 1852.95 1277.97" style="fill: #0f34aa;"/>
          <polygon points="1902.08 1277.12 1804.21 1277.12 1796.61 1190.03 1894.48 1190.03 1902.08 1277.12" style="fill: #0f34aa;"/>
          <polygon points="1792.55 1245.65 1786.39 1242.3 1780.98 1245.79 1781.9 1239.44 1776.26 1235.28 1782.98 1234.71 1784.9 1228.65 1788.14 1234.65 1794.97 1235.06 1790.25 1239.34 1792.55 1245.65" style="fill: #fff;"/>
          <polygon points="1825.63 1250.64 1819.97 1247.56 1814.99 1250.77 1815.83 1244.93 1810.65 1241.1 1816.83 1240.58 1818.6 1235 1821.58 1240.52 1827.86 1240.9 1823.51 1244.83 1825.63 1250.64" style="fill: #fff;"/>
          <polygon points="1820.26 1223.3 1814.8 1220.32 1809.99 1223.42 1810.8 1217.78 1805.79 1214.09 1811.77 1213.58 1813.47 1208.19 1816.35 1213.52 1822.42 1213.89 1818.22 1217.69 1820.26 1223.3" style="fill: #fff;"/>
          <path d="m1779.29,1206.96s7.86-1.2,10.99-1.56l-.43-4.01-9.71,1.33,9.04-8.19-.28-1.98s-9.48.17-20.87,2.26l.82,8.19-10.45-5.93,4.78-1.26c-2.78.63-5.61,1.38-8.39,2.27,0,0,.67.16.79,1.53l10.45,5.36-10.33,2.22c.23,1.89.49,3.88.79,5.8,2.23-.6,10.95-3.22,10.95-3.22l-9.04,9.88c.33,1.49-.38.74,0,1.69.47-.14,1.7-.38,3.41-.69l8.17-8.91s1.09,4.91,1.67,7.28c2.51-.4,5.12-.81,7.58-1.19-.53-2.68-1.51-7.47-1.91-8.07l14.12,6.21-.36-3.29c-3.3-1.34-11.78-5.75-11.78-5.75v.03Zm-2.26-4.8l-1.13-8.47,9.6-.85-8.47,9.32Z" style="fill: #db1212;"/>
        </g>
      </g>
      <path id="badge-border" d="m1754.78,1198.09s43.75-15.72,83.41,4.68c0,0,8.6,65.78-33.15,73.41,0,0-44.7-3.1-50.25-78.09h-.01Z" style="fill: none; stroke: #f2cd33; stroke-miterlimit: 10; stroke-width: 6.68px;"/>
    </g>
    <path d="m1075.43,1530.35s-22.7,60.99,1.65,94.49c0,0,13.75,166.2,13.55,186.35-.2,20.15-23.2,61.15-13.2,81.15s247.38,71.21,362.19,17.11c0,0,13.52-34.09,10.16-57.6s26.65-165.51,43.65-162.51,15,135,11,149-19.6,62.05-6,69,412,51,373-51c0,0-8.34-62.52-11.67-72.26-3.33-9.74,18.62-126.08,23.72-145.69,4.95-19.05,18.95-82.05,18.95-90.05s-5.74-38.41-13.87-38.71c-8.13-.29-281.17-55.86-813.13,20.71h0Z" style="fill: #f4d314;"/>
    <g>
      <path d="m1092.5,1902.68c-9.15-3.67-14.52-7-15.96-9.88-6.37-12.75.24-33.67,6.08-52.12,3.57-11.29,6.94-21.96,7.02-29.48.19-19.5-12.89-178.29-13.52-185.99-7-9.76-14.33-28.1-9.97-60.3,2.62-19.32,8.3-34.74,8.36-34.9l.21-.56.59-.08c7.36-1.06,14.66-2.09,21.92-3.1l1-.14.19,1.46c.04.66,2.93,58.08,6.52,88.15,3.57,29.91,8.19,136.45,5.9,170.69-.92,13.78-4.85,34.26-8.65,54.07-4.73,24.63-9.62,50.11-8.32,61.15l.2,1.67-1.56-.63h0Z" style="fill: #57b70b;"/>
      <path d="m1120.81,1911.77c-11.37-3.06-20.9-6.11-28.31-9.09l-.55-.22-.07-.59c-1.34-11.35,3.36-35.84,8.34-61.76,3.79-19.75,7.71-40.16,8.62-53.82,2.28-34.15-2.33-140.47-5.9-170.31-3.6-30.14-6.5-87.63-6.53-88.21l-.18-1.36.98-.14c10.84-1.5,22.16-3.03,33.65-4.54l1.09-.14.04,1.1c.95,27.29,9.11,267.39,4.81,293.2-1.37,8.21-3.86,18.45-6.5,29.28-6.02,24.72-12.85,52.74-8.23,65.07l.11.3-.41,1.49-.96-.26h0Z" style="fill: #57b70b;"/>
    </g>
    <path d="m1075.43,1530.35s-22.7,60.99,1.65,94.49c0,0,13.75,166.2,13.55,186.35-.2,20.15-23.2,61.15-13.2,81.15s247.38,71.21,362.19,17.11c0,0,13.52-34.09,10.16-57.6s26.65-165.51,43.65-162.51,15,135,11,149-19.6,62.05-6,69,412,51,373-51c0,0-8.34-62.52-11.67-72.26-3.33-9.74,18.62-126.08,23.72-145.69,4.95-19.05,18.95-82.05,18.95-90.05s-5.74-38.41-13.87-38.71c-8.13-.29-281.17-55.86-813.13,20.71h0Z" style="fill: none; stroke: #000; stroke-linecap: round; stroke-linejoin: round; stroke-width: 11.35px;"/>
    <g id="cricket-shade" style="opacity: .2;">
      <path d="m1501.45,1143.72l-44.89-30.49s1.69-5.08-23.72-5.93c-25.41-.85-228.71-19.48-327.81-72.85,0,0,99.11,115.2,396.42,109.27h0Z"/>
      <path d="m1849.6,1034.45s-99.11,55.06-179.58,60.14c0,0-11.01,3.39-18.64,11.86-7.01,7.79-26.89,29.87-30.05,33.39,2-3.59,3.79-6.29,3.79-6.29l-24.56,8.47s-26.26,32.19-28.8,34.73-18.64-26.26-18.64-26.26l-43.2-7.62s-1.69,3.39,9.32,11.01c11.01,7.62,11.01,6.78-14.4,22.87s-72,59.29-72,59.29l32.19,16.94c10.16-9.32,87.25-63.53,94.87-48.28s16.94,8.47,16.94,8.47l16.94-28.8c42.35-2.54,76.24,44.89,76.24,44.89l17.79-23.72c-10.16-24.56-64.38-44.89-70.31-48.28-3.68-2.1.14-10.72,3.57-16.96,5.41-.64,144.64-17.83,228.52-105.86h.01Z"/>
      <path d="m856.84,1450.35s149.08-108.42,186.35-99.95,67.76,174.49,67.76,174.49c0,0,6.78,99.95,6.78,152.47s0,182.96-11.86,225.32c0,0-32.19,5.08-28.8-28.8s10.16-35.58,10.16-88.09-8.47-147.39-8.47-147.39c0,0-5.08-16.94-11.86-38.96s5.08-57.6,5.08-57.6c0,0,6.78-13.55,0-32.19s-28.8-96.56-28.8-96.56c0,0,1.69-23.72-25.41-10.16s-73.56,48.78-77.28,54.1-4.79,22.89-12.77,25.55-18.1,7.45-29.81-1.6-41.07-30.62-41.07-30.62h0Z"/>
      <path d="m1917.36,1306.35s1.13,87.53-5.65,99.39c8.47-6.78,88.66-116.33,88.66-116.33l-85.27-16.94,2.26,33.88h0Z"/>
      <path d="m1444.7,1668.89s76.24-1.69,113.51-3.39,8.47,30.49-16.94,33.88-1.69,69.46-3.39,115.2-18.64,99.95-18.64,99.95c0,0-32.19,1.69-27.11-32.19s13.55-54.21,13.55-96.56-10.16-130.45-23.72-81.32c-13.55,49.13-25.41,105.04-28.8,118.59s3.39-74.54-3.39-103.34-35.58-45.74-5.08-50.82h0Z"/>
    </g>
    <g id="clothing-shoes">
      <g>
        <g>
          <g>
            <g>
              <path d="m2142.66,2072.58c8.55,20.21,5.54,42.46.37,59.73-6.11,11.87-37.59,56.36-170.52,68.34-153.84,13.88-206.85-20.56-292.09-45.24-.68-.2-1.37-.4-2.06-.59-82.52-23.74-187.59-43.64-193.55-44.76-2.13-6.68-3.92-13.46-5.41-20.19l3.03-.52s196,48,269,39,73-40,132-33,97,46,200,26c55.14-10.71,58.96-44.31,59.23-48.77Z" style="fill: #fff;"/>
              <path d="m2142.66,2072.58c-.27,4.46-4.09,38.06-59.23,48.77-103,20-141-19-200-26s-59,24-132,33-269-39-269-39l-3.03.52c-3.91-17.77-5.65-35.24-5.53-49.97.27-33.51,20.28-111.08,20.28-111.08-27.53-49.57,14.87-64.03,14.87-64.03,38.46,48.19,128.88,24.73,128.88,24.73,26.59-77.73,95.84-25.84,95.84-25.84,0,0,129.59,124.71,156.69,139.67,0,0,34,34,102,29s36.42-38.67,36.42-38.67l.36-.8c35.76,16.26,72.76,41.5,72.76,41.5,22.1,9.84,34.46,23.48,40.69,38.2h0Z" style="fill: #fff;"/>
              <path d="m2143.03,2132.31c-5.23,17.45-12.7,29.81-12.7,29.81,0,0-17.2,57.39-164.98,71.1-147.78,13.72-198.75-20.75-280.66-45.53-75.25-22.76-171.09-42.18-186.18-45.18-5.58-10.12-10.12-21.14-13.7-32.45,5.96,1.12,111.03,21.02,193.55,44.76.69.19,1.38.39,2.06.59,85.24,24.68,138.25,59.12,292.09,45.24,132.93-11.98,164.41-56.47,170.52-68.34h0Z" style="fill: #fff;"/>
              <path d="m1851.07,1847.81c.37.4.73.81,1.1,1.22,14.65,16.38,16.81,30.29,34.87,51.06,18.05,20.77,117.17,83.1,117.17,83.1,4.14,1.25,8.44,2.78,12.83,4.51,4,1.58,8.08,3.32,12.17,5.18l-.36.8s31.58,33.67-36.42,38.67-102-29-102-29c-27.1-14.96-156.69-139.67-156.69-139.67-13.61-18.65,10.9-31.86,45.88-36.08,30.81-3.72,53.38,1.9,67.13,15.69,1.49,1.47,2.92,2.98,4.32,4.52Z" style="fill: #fff;"/>
              <path d="m2017.19,1987.33l-.15.37c-4.39-1.73-8.69-3.26-12.83-4.51,0,0-99.12-62.33-117.17-83.1-18.06-20.77-20.22-34.68-34.87-51.06-.37-.41-.73-.82-1.1-1.22-2.27-8.37-9.4-20.81,9.83-16.86,29.11,5.98,58.64,62.15,58.64,62.15,0,0,92.4,61.97,97.65,94.23h0Z" style="fill: #fff;"/>
            </g>
            <g>
              <path d="m2130.33,2162.12s7.47-12.36,12.7-29.81c5.17-17.27,8.18-39.52-.37-59.73-6.23-14.72-18.59-28.36-40.69-38.2,0,0-37-25.24-72.76-41.5-4.09-1.86-8.17-3.6-12.17-5.18-4.39-1.73-8.69-3.26-12.83-4.51,0,0-99.12-62.33-117.17-83.1-18.06-20.77-20.22-34.68-34.87-51.06-.37-.41-.73-.82-1.1-1.22-1.4-1.54-2.83-3.05-4.32-4.52-13.75-13.79-36.32-19.41-67.13-15.69-34.98,4.22-59.49,17.43-45.88,36.08,0,0-69.25-51.89-95.84,25.84,0,0-90.42,23.46-128.88-24.73,0,0-42.4,14.46-14.87,64.03,0,0-20.01,77.57-20.28,111.08-.12,14.73,1.62,32.2,5.53,49.97,1.49,6.73,3.28,13.51,5.41,20.19,3.58,11.31,8.12,22.33,13.7,32.45" style="fill: none; stroke: #000; stroke-linecap: round; stroke-linejoin: round; stroke-width: 13.37px;"/>
              <path d="m1851.43,1849.35c-.1-.49-.22-1.01-.36-1.54-2.27-8.37-9.4-20.81,9.83-16.86,29.11,5.98,58.64,62.15,58.64,62.15,0,0,92.4,61.97,97.65,94.23" style="fill: none; stroke: #000; stroke-linecap: round; stroke-linejoin: round; stroke-width: 13.37px;"/>
              <path d="m1496.47,2142.1s.7.14,2.04.41c15.09,3,110.93,22.42,186.18,45.18,81.91,24.78,132.88,59.25,280.66,45.53,147.78-13.71,164.98-71.1,164.98-71.1" style="fill: none; stroke: #000; stroke-linecap: round; stroke-linejoin: round; stroke-width: 13.37px;"/>
              <path d="m1484.54,2110.01s.09.02.27.05c5.96,1.12,111.03,21.02,193.55,44.76.69.19,1.38.39,2.06.59,85.24,24.68,138.25,59.12,292.09,45.24,132.93-11.98,164.41-56.47,170.52-68.34.96-1.87,1.29-2.93,1.29-2.93" style="fill: none; stroke: #000; stroke-linecap: round; stroke-linejoin: round; stroke-width: 13.37px;"/>
              <path d="m1733.74,1863.68s129.59,124.71,156.69,139.67c0,0,34,34,102,29s36.42-38.67,36.42-38.67" style="fill: none; stroke: #000; stroke-linecap: round; stroke-linejoin: round; stroke-width: 13.37px;"/>
              <path d="m1493.43,1921.35s78,42,163,10" style="fill: none; stroke: #000; stroke-linecap: round; stroke-linejoin: round; stroke-width: 13.37px;"/>
              <path d="m1482.43,2089.35s196,48,269,39,73-40,132-33,97,46,200,26c55.14-10.71,58.96-44.31,59.23-48.77.02-.32.02-.49.02-.49" style="fill: none; stroke: #000; stroke-linecap: round; stroke-linejoin: round; stroke-width: 13.37px;"/>
            </g>
          </g>
          <g>
            <path d="m1812.5,1981.75c-2.56,0-4.99-.84-7.02-2.42-4.98-3.88-5.88-11.1-2.01-16.1,5.43-6.99,18.25-19.07,38.13-35.94-38.76,2.54-70.35,9.81-70.68,9.88-.85.2-1.72.3-2.59.3-4.28,0-8.17-2.36-10.15-6.17-2.41-4.64-1.39-10.33,2.49-13.83,12.86-11.6,25.69-22.27,38.2-31.77-1.47-.02-2.95-.04-4.45-.06-4.11-.05-8.38-.07-12.7-.07-40.75,0-76.89,2.12-78.41,2.21-.25.01-.49.02-.72.02-6.03,0-11.04-4.74-11.41-10.78-.19-3.06.83-6.01,2.86-8.3s4.82-3.66,7.88-3.84c.36-.02,37.2-2.25,79.69-2.25,4.41,0,8.77.02,12.97.07,12.95.15,24.99.52,35.82,1.11,23.73-14.85,37.4-19.5,38.89-19.99,1.15-.37,2.34-.56,3.53-.56,4.98,0,9.35,3.19,10.89,7.93,1.94,6-1.35,12.48-7.33,14.44-.1.03-1.95.67-5.33,2.16,28.1,4.49,37.11,11.15,41.45,15.89,2.16,2.36,3.24,5.54,2.97,8.73s-1.87,6.14-4.4,8.1c-1.95,1.52-4.22,3.29-6.73,5.26,14.79,1.95,28.02,5.15,39.37,9.51,5.89,2.26,8.85,8.91,6.59,14.82-1.69,4.41-5.98,7.37-10.69,7.37-1.4,0-2.78-.26-4.09-.76-15.2-5.84-34.46-9.23-57.23-10.07-30.56,24.89-50.7,42.87-56.75,50.67-2.18,2.81-5.48,4.43-9.04,4.43h0Zm23.99-94.57c-9.16,6.01-18.65,12.81-28.26,20.28,20.34-2.65,39.81-4,57.96-4,1.42,0,2.85,0,4.28.03,4.08-3.29,8.22-6.6,12.33-9.87-5.8-1.58-13.06-2.94-21.64-4.08-7.24-.96-15.53-1.75-24.66-2.36h0Z" style="fill: #fff; stroke: #000; stroke-linecap: round; stroke-linejoin: round; stroke-width: 9.55px;"/>
            <path d="m1832.99,1996.86c-3.48,0-6.73-1.55-8.91-4.26-3.96-4.91-3.2-12.14,1.68-16.11,1.93-1.57,47.94-38.34,116.3-38.34,10.17,0,20.47.82,30.61,2.45,3.02.48,5.67,2.12,7.46,4.6,1.79,2.48,2.51,5.51,2.03,8.54-.89,5.6-5.64,9.66-11.28,9.66h0c-.61,0-1.23-.05-1.84-.15-8.73-1.4-17.65-2.11-26.51-2.11-27.97,0-51.31,7.08-65.96,13.02-22.63,9.18-36.28,20.05-36.42,20.16-2.03,1.64-4.58,2.54-7.18,2.54h.02Z" style="fill: #fff; stroke: #000; stroke-linecap: round; stroke-linejoin: round; stroke-width: 9.55px;"/>
          </g>
          <path d="m1524.34,1884.06s-14.54-24.29-27.47-11.34c-12.93,12.96-17.78,53.45,12.93,63.16,0,0-25.85-4.86-24.24,43.73,0,0,27.47,74.5,46.86,100.42,19.39,25.91,16.78,75.13,16.78,75.13,0,0,101.8,17.82,171.29,43.73,69.48,25.91,197.14,59.93,308.64,22.67,111.5-37.25,106.65-64.78,106.65-64.78,0,0-5.46,7.47,2.62-8.73s11.31-40.49,9.7-55.07c0,0-116.35,80.98-355.5,29.15-239.16-51.83-263.4-95.56-261.78-152.24,1.62-56.69-6.46-85.84-6.46-85.84h-.02Z" style="isolation: isolate; opacity: .2;"/>
        </g>
        <g>
          <g>
            <g>
              <path d="m1566.37,2174.15h-.05s21.61,131.7-213.31,131.74c-300.61.05-303.79-187.88-303.79-187.88,0,0,0-57.22,3.23-60.46,0,0,1.02,11.84,6,29.99,17.42,63.63,83.33,204.78,323.48,184.31,129-11,172.79-61.82,182.43-105.71.36,1.16,1.17,3.95,2.01,8.01h0Z" style="fill: #fff;"/>
              <path d="m1076.06,1917.17c1.08-9.84.61-19.93-2.06-30.22-6.47-24.84,19.39-29.15,19.39-29.15-3.23,15.12,38.79,37.79,38.79,37.79,16.16-22.67,45.24-23.75,65.71-22.67s24.78,29.36,24.78,29.36c-2.16,11.02,30.18,120.46,59.26,162.57,0,0,27.48,35,87,35,89,0,75-58,75-58-1-15-19.81-147.6-19.81-147.6-3.61-5.95-6.92-11.28-11.19-15.88l4.72-.05,20.47-23.76c15.08,3.24,23.7,23.76,23.7,33.47,0,1.62-.24,6.02-.35,12.41-.52,32.13,2.28,114.43,55.29,144.15,7.24,4.06,13.45,8.77,18.76,13.92,27.05,26.22,30.96,63.96,30.43,86.92l-3.52-.08s-8-28-33-22-22,74-132,79c-129.11,5.87-133-43-180-55-45.17-11.53-68,2-95-2s-61.16-58.58-61.16-58.58l-2.82.77c-4.98-18.15-6-29.99-6-29.99-12.92-23.75,2.16-78.82,11.85-100.42,5.69-12.65,10.26-26.05,11.76-39.96Z" style="fill: #fff;"/>
              <path d="m1562.43,2145.35l3.52.08c-.27,12.11-1.79,20.1-1.79,20.1,0,0,.07.21.2.61-9.64,43.89-53.43,94.71-182.43,105.71-240.15,20.47-306.06-120.68-323.48-184.31l2.82-.77s34.16,54.58,61.16,58.58,49.83-9.53,95,2c47,12,50.89,60.87,180,55,110-5,107-73,132-79s33,22,33,22h0Z" style="fill: #fff;"/>
              <path d="m1537.23,2058.36l-1.71.15c-5.31-5.15-11.52-9.86-18.76-13.92-53.01-29.72-55.81-112.02-55.29-144.15h.62c1.62,2.36,68.68,127.29,75.14,157.92Z" style="fill: #fff;"/>
              <path d="m1443.93,2041.85s14,58-75,58c-59.52,0-87-35-87-35-29.08-42.11-61.42-151.55-59.26-162.57,0,0,21.71-43.12,100.45-43.94,57.54-.61,77.58,6.77,89.81,20.03,4.27,4.6,7.58,9.93,11.19,15.88,0,0,18.81,132.6,19.81,147.6Z" style="fill: #fff;"/>
            </g>
            <g>
              <line x1="1566.37" y1="2174.15" x2="1566.32" y2="2174.16" style="fill: none; stroke: #000; stroke-linecap: round; stroke-linejoin: round; stroke-width: 13.37px;"/>
              <line x1="1417.65" y1="1878.32" x2="1412.93" y2="1878.37" style="fill: none; stroke: #000; stroke-linecap: round; stroke-linejoin: round; stroke-width: 13.37px;"/>
              <line x1="1076.06" y1="1917.17" x2="1076.16" y2="1917.18" style="fill: none; stroke: #000; stroke-linecap: round; stroke-linejoin: round; stroke-width: 13.37px;"/>
              <line x1="1152.13" y1="1942.27" x2="1150.49" y2="1943.1" style="fill: none; stroke: #000; stroke-linecap: round; stroke-linejoin: round; stroke-width: 13.37px;"/>
              <path d="m1222.67,1902.28s21.71-43.12,100.45-43.94c57.54-.61,77.58,6.77,89.81,20.03" style="fill: none; stroke: #000; stroke-linecap: round; stroke-linejoin: round; stroke-width: 13.37px;"/>
              <path d="m1412.93,1878.37c4.27,4.6,7.58,9.93,11.19,15.88,0,0,18.81,132.6,19.81,147.6,0,0,14,58-75,58-59.52,0-87-35-87-35-29.08-42.11-61.42-151.55-59.26-162.57" style="fill: none; stroke: #000; stroke-linecap: round; stroke-linejoin: round; stroke-width: 13.37px;"/>
              <path d="m1564.36,2166.14c.36,1.16,1.17,3.95,2.01,8.01" style="fill: none; stroke: #000; stroke-linecap: round; stroke-linejoin: round; stroke-width: 13.37px;"/>
              <path d="m1052.45,2057.55c-3.23,3.24-3.23,60.46-3.23,60.46" style="fill: none; stroke: #000; stroke-linecap: round; stroke-linejoin: round; stroke-width: 13.37px;"/>
              <path d="m1076.06,1917.17c-1.5,13.91-6.07,27.31-11.76,39.96-9.69,21.6-24.77,76.67-11.85,100.42" style="fill: none; stroke: #000; stroke-linecap: round; stroke-linejoin: round; stroke-width: 13.37px;"/>
              <path d="m1564.36,2166.14c-.13-.4-.2-.61-.2-.61,0,0,1.52-7.99,1.79-20.1.53-22.96-3.38-60.7-30.43-86.92-5.31-5.15-11.52-9.86-18.76-13.92-53.01-29.72-55.81-112.02-55.29-144.15.11-6.39.35-10.79.35-12.41,0-9.71-8.62-30.23-23.7-33.47l-20.47,23.76" style="fill: none; stroke: #000; stroke-linecap: round; stroke-linejoin: round; stroke-width: 13.37px;"/>
              <path d="m1132.18,1895.59c16.16-22.67,45.24-23.75,65.71-22.67s24.78,29.36,24.78,29.36" style="fill: none; stroke: #000; stroke-linecap: round; stroke-linejoin: round; stroke-width: 13.37px;"/>
              <path d="m1076.06,1917.17c1.08-9.84.61-19.93-2.06-30.22-6.47-24.84,19.39-29.15,19.39-29.15-3.23,15.12,38.79,37.79,38.79,37.79" style="fill: none; stroke: #000; stroke-linecap: round; stroke-linejoin: round; stroke-width: 13.37px;"/>
              <path d="m1566.32,2153.64c-.38,4.04-1.02,8.21-1.96,12.5" style="fill: none; stroke: #000; stroke-linecap: round; stroke-linejoin: round; stroke-width: .48px;"/>
              <path d="m1564.36,2166.14c-9.64,43.89-53.43,94.71-182.43,105.71-240.15,20.47-306.06-120.68-323.48-184.31-4.98-18.15-6-29.99-6-29.99" style="fill: none; stroke: #000; stroke-linecap: round; stroke-linejoin: round; stroke-width: 13.37px;"/>
              <path d="m1049.22,2118.01s3.18,187.93,303.79,187.88c234.92-.04,213.31-131.73,213.31-131.73" style="fill: none; stroke: #000; stroke-linecap: round; stroke-linejoin: round; stroke-width: 13.37px;"/>
              <path d="m1150.49,1943.1c-44.17,6.48-74.33-25.92-74.33-25.92" style="fill: none; stroke: #000; stroke-linecap: round; stroke-linejoin: round; stroke-width: 13.37px;"/>
              <path d="m1462.09,1900.45c1.62,2.35,68.68,127.28,75.14,157.91" style="fill: none; stroke: #000; stroke-linecap: round; stroke-linejoin: round; stroke-width: 13.37px;"/>
              <path d="m1061.27,2086.77s34.16,54.58,61.16,58.58,49.83-9.53,95,2c47,12,50.89,60.87,180,55,110-5,107-73,132-79s33,22,33,22" style="fill: none; stroke: #000; stroke-linecap: round; stroke-linejoin: round; stroke-width: 13.37px;"/>
            </g>
          </g>
          <g>
            <path d="m1238.88,2009.67c-3.7,0-7.17-1.18-9.77-3.32-2.83-2.33-4.3-5.47-4.16-8.86.15-3.41,2.01-6.58,5.1-8.7,6.5-4.44,17.01-9.27,31.34-14.4-19.97-.64-35.44-.73-42.02-.73-2.9,0-4.54.01-4.69.02h-.21c-5.46,0-10.42-2.68-12.65-6.82-2.61-4.85-1.08-10.59,3.71-13.95,10.09-7.08,29.35-15.37,57.34-24.68-45.3-4.59-78.92-7.87-79.55-7.92-4.24-.34-8-2.24-10.31-5.21-1.8-2.32-2.57-5.13-2.17-7.91.84-5.88,6.78-10.31,13.81-10.31.45,0,.91.02,1.37.06,1.82.15,52.83,4.93,113.5,11.42,7.45.8,14.77,1.6,21.77,2.4,48.44-13.3,93.8-23.44,95.71-23.87,1.18-.27,2.41-.4,3.64-.4,6,0,11.31,3.19,13.2,7.95,1.11,2.79.96,5.82-.42,8.51-1.68,3.29-5.02,5.71-9.15,6.63-5.93,1.32-20.14,4.55-39.53,9.32,14.61,2.18,26.79,4.29,36.35,6.31,2.01-.89,4.26-1.36,6.55-1.36,1.29,0,2.58.15,3.83.44,1.57.37,3.13.75,4.69,1.13.67.17,1.34.37,1.96.62,7.93,3.09,13.17,8.47,14.36,14.78l.07.36c.03.15.04.3.05.45.05.43.07.87.07,1.3v.34c-.03.61-.11,1.2-.23,1.76l-.08.32c-.09.37-.24.85-.44,1.34-.07.17-.11.27-.16.37-.23.52-.49.99-.78,1.44l-.17.24c-.21.31-.51.7-.82,1.06l-.24.27c-.42.46-.8.82-1.2,1.15l-.2.16c-.28.23-.7.53-1.15.82l-.27.17c-.94.57-1.93,1.02-2.98,1.37l-.37.12c-.42.13-.8.23-1.2.32l-.43.1c-5.35,1.01-22.17,4.22-44.89,9.1,21.94,4.02,40.08,8.9,54.05,14.55,3.77,1.52,6.49,4.38,7.45,7.84.86,3.07.27,6.23-1.65,8.89-2.48,3.45-7.05,5.6-11.92,5.6-2.1,0-4.21-.4-6.1-1.17-22.83-9.23-58.89-16.12-107.21-20.5-55.69,14.16-76.43,23.31-84.02,28.49-2.47,1.69-5.6,2.61-8.82,2.61l.04-.02Zm31.17-58.55c20.59.77,40.75,1.97,59.08,3.54,16.22-4.06,33.94-8.18,52.87-12.31-16.08-2.43-35.49-4.97-57.97-7.58-20.86,5.81-38.95,11.29-53.98,16.34h0Z" style="fill: #fff; stroke: #000; stroke-linecap: round; stroke-linejoin: round; stroke-width: 9.55px;"/>
            <path d="m1249.89,2038.58c-6.68,0-12.43-3.99-13.67-9.5-.63-2.8-.07-5.69,1.59-8.14,2.1-3.1,5.74-5.18,9.97-5.72,3.76-.48,92.81-11.68,157.86-11.68,6.11,0,11.74-.15,17.18-.29,4.65-.12,9.05-.24,13.13-.24,6.77,0,11.66.32,15.84,1.04,4.2.72,7.7,2.96,9.61,6.16,1.53,2.57,1.9,5.52,1.05,8.33-1.57,5.16-7.12,8.76-13.48,8.76-.95,0-1.91-.08-2.84-.24-2.93-.5-6.47-.73-11.16-.73-3.68,0-7.77.14-12.1.29-5.07.18-10.83.38-16.93.38-63.48,0-153.03,11.33-153.93,11.44-.72.09-1.43.13-2.13.13h.01Z" style="fill: #fff; stroke: #000; stroke-linecap: round; stroke-linejoin: round; stroke-width: 9.55px;"/>
          </g>
          <path d="m1117.09,1893.97s-33.93,14.58-24.24,38.87c-1.62,8.1-45.25,97.18-21.01,183.02s195.53,110.13,290.87,110.13,174.51-27.37,189.06-70.37c0,0,28.4,37.74,4.16,78.23s-94,79-271,67c-196.39-13.31-226.01-131.55-230.86-144.5s-8.08-66.4-4.85-80.98-9.7-50.21,3.23-82.6c12.93-32.39,19.39-45.35,22.62-64.78,3.23-19.44-9.7-55.07,0-59.93,9.7-4.86,25.85,4.86,25.85,4.86l16.16,21.05h0Z" style="isolation: isolate; opacity: .2;"/>
        </g>
      </g>
    </g>
  </g>
</svg>