<?xml version="1.0" encoding="UTF-8"?>
<svg id="Layer_1" data-name="Layer 1" xmlns="http://www.w3.org/2000/svg" viewBox="0 0 3000 3000">
  <g id="American-Football-Helmet-Silver-and-Black">
    <g id="LA_Raiders" data-name="LA Raiders">
      <circle cx="1500" cy="1500" r="1200" style="fill: #4c6164;"/>
      <g>
        <g>
          <path d="m2225.93,1707.88c14,31,49,104-18,203-33.24,49.12-108,52.8-175,44,99.72-89.08,143.22-203.52,162.1-281.76,15.71,15.92,27.78,27.85,30.9,34.76Z" style="fill: #cbcbd6;"/>
          <path d="m2189.43,1219.38s28,32.2-10.36,110.14c-11.09-7.65-23.37-13.42-36.34-17.07-19.85-33.36-43.13-64.55-69.46-93.07l-40-1.52.13-3.48c-9.84-342.56-390.81-388.61-402.72-390l.38-3.21c494.58,58.31,558.37,398.21,558.37,398.21Z" style="fill: #cbcbd6;"/>
          <path id="stripe-inner" d="m2025.76,1210.88l4.23,5.24-140.56-3.74-.88-.4c-22-.44-44.39-.86-66.93-1.24v-.2c-44.31-386.35-494.07-387.66-494.07-387.66l-.07-.55c71.4-9.38,172.08-12.32,253.57-7.58l4.24,1.12s426.96,38.83,440.47,395.01Z"/>
          <path d="m1769.43,1207.38v2.51c-175.63-2.61-346-2.79-375,5.49-63,18-165.5,187.5-178.5,236.5-13,49,80.41,222.7,110.5,266.5,79,115,23,248.46-36,253s-380-92-465-151-187.57-230.92-140-506c36.43-210.64,252.82-427.55,604-486.36l.23,1.34s418.77-35.98,479.77,378.02Zm-755.99,452.5c10-31.49-10-91.45-10-91.45,0,0-48.27-18.36-84.71-21.08-22.78-1.69-40.94,2.73-39.79,21.58,0,0-4,64,84,103,30.91,13.65,45.1,4.95,50.5-12.05Z" style="fill: #cbcbd6;"/>
          <path d="m1011.43,1659.38l2,.45c-5.4,17-19.59,25.75-50.51,12-88-39-84-103-84-103-1.15-18.85,17-23.27,39.79-21.58l-.29,4.08s6.69,86.18,93.01,108.05Z" style="fill: #cbcbd6;"/>
        </g>
        <path id="stripe-outer1" d="m1308.87,827.67s389.64-3.39,447.24,382.87l68.9,2.25s-38.4-385.12-431.44-396.42l-84.7,11.3Z" style="fill: #fff;"/>
        <path id="stripe-outer2" d="m1652.21,826.54c6.77,1.13,360.28,91.48,375,390.77,2.26,1.13,54.21,1.13,54.21,1.13,0,0-11.29-315.1-368.18-382.87l-61.03-9.03Z" style="fill: #fff;"/>
        <g>
          <path d="m2225.93,1707.88c-3.12-6.91-15.19-18.84-30.85-34.71-18.88,78.24-62.38,192.68-162.1,281.76,66.92,8.75,141.71,5.07,175-44,66.95-99.05,31.95-172.05,17.95-203.05Z" style="fill: none; stroke: #000; stroke-miterlimit: 10; stroke-width: 13px;"/>
          <path d="m2033.3,1217.88l40,1.52c26.33,28.52,49.61,59.71,69.46,93.07,12.97,3.65,25.25,9.42,36.34,17.07,38.34-77.94,10.36-110.14,10.36-110.14,0,0-63.79-339.9-558.34-398.18-12.28-1.45-24.83-2.73-37.66-3.82-12.25-1.04-24.39-1.91-36.44-2.62-81.49-4.74-158.11-1.8-229.51,7.58-12.85,1.68-25.51,3.57-38,5.68-351.26,58.84-567.65,275.7-604.08,486.34-47.57,275.08,55,447,140,506s406,155.54,465,151,115-138,36-253c-30.09-43.8-123.5-217.5-110.5-266.5,13-49,115.5-218.5,178.5-236.5,29-8.28,199.33-8.1,375-5.49,17.4.26,34.86.54,52.23.85,22.54.38,45,.8,66.93,1.24l.88.4,98.3,3.74,45.53,1.76Z" style="fill: none; stroke: #000; stroke-miterlimit: 10; stroke-width: 13px;"/>
          <path d="m918.72,1547.3c36.44,2.72,84.71,21.08,84.71,21.08,0,0,20,60,10,91.45" style="fill: none; stroke: #000; stroke-miterlimit: 10; stroke-width: 13px;"/>
          <path d="m918.43,1551.38s6.68,86.13,93,108" style="fill: none; stroke: #000; stroke-miterlimit: 10; stroke-width: 13px;"/>
        </g>
      </g>
      <path id="back-shade" d="m2072.93,1212.88l64,4s42,19,8,95l-72-99Z"/>
      <path id="hole-shade" d="m955.93,1554.44s-62.09-15-74.54,1.69,1.72,56,18.63,72.85,54.17,46.36,74.54,49.13,45.34-5,42.35-49.13-12.22-63-27.1-66.07-33.88-8.47-33.88-8.47Z" style="isolation: isolate; opacity: .4;"/>
      <ellipse id="screw" cx="1150.43" cy="1739.38" rx="24.5" ry="32.24" style="fill: #fff; isolation: isolate; opacity: .4;"/>
      <g id="shade">
        <path d="m2142.37,1167.62c-13.56-7.26-558.44-9.74-646-11.3s-144.44,25.56-167.17,45.18-81.27,101.38-110.27,144.38-41,88-48,133,80,192,99.54,235.37,74.46,171.63-2.54,169.63c-698.86-59.29-516.92-714.16-506.18-750.8-39.91,58.27-65.73,120-76.32,181.3-47.57,275.08,55,447,140,506s406,155.54,465,151,115-138,36-253c-30.09-43.8-123.5-217.5-110.5-266.5,13-49,115.5-218.5,178.5-236.5,29-8.28,199.33-8.1,375-5.49,17.4.26,34.86.54,52.23.85,22.54.38,45,.8,66.93,1.24l.88.4,98.3,3.74,45.57,1.74,40,1.52c12.75,13.87,24.71,28.21,35.86,43,18.19,2.79,28.8,4.49,28.8,4.49,0,0,17.93-91.99,4.37-99.25Z" style="isolation: isolate; opacity: .2;"/>
        <path d="m2230.47,1725.55s1.58,141.94-122,228.14c0,0-38.38,2.32-56.47,2.26s-17.84-8.19,9-31.63,108.15-147.39,131-234.91c0,0,2.27-20,18.07-2.26,9.68,11.05,16.66,24.2,20.4,38.4Z" style="isolation: isolate; opacity: .2;"/>
      </g>
      <path id="grill" d="m2304.5,1633.99c-4.16-2.28-8.51-4.19-13-5.72-9.29-3.36-21.89-7.06-36.49-11.35-12.37-3.64-26.35-7.76-40.44-12.3-1.61,10.26-2.61,22.26-5.15,35.1,6.46,2,12.83,4,19,5.82-262.82,18.87-464,28.84-582.44,28.84s-187.92-12-236-20.74c-30.25-5.51-56.37-10.26-86-10.26-21.84,0-38.61,2.29-51.47,5.92.03-10.21-1.28-20.38-3.9-30.25h0c-7.29-27.25-25-51.61-52.58-72.39-22.41-16.88-47.13-28.59-67-38-9.22-4.36-20.38-9.65-25.12-12.93-1.76-17.6-3.79-58.46-2.3-90.29h0c1.16-24.63,3.91-30.5,4-30.73,5-10,40.11-39.86,69.75-61.75l.88-.65.83-.79c.26-.26,27.14-25.54,81.65-50,50.35-22.6,135.29-49.13,254-47.13,30.77.51,63.1,1.08,96.2,1.66,224.16,3.94,478,8.39,532.11,2.34,10.5.17,20.95,1.59,31.12,4.23h0l7.78,2.26c4.34,12.55,6.27,25.81,5.67,39.08l-2.67,18.92,26.53-61.89c15.84-22,19.59-41.68,11.16-58.41-7.58-15-24.18-25.15-49.33-30.09-10.38-1.99-20.93-3.03-31.5-3.11h-1l-1,.12c-49.3,6-314.94,1.28-528.38-2.46-33.1-.58-65.44-1.15-96.23-1.67-55.61-.93-109,4-158.74,14.64-38.53,8.1-76.08,20.31-112,36.43-54.18,24.6-83.18,49.88-88.71,54.95-17,12.55-68.61,52-79.45,73.65-6.92,13.85-9.52,47.32-7.71,99.48-1.67,36.93,1,83.61,3,99.52,2,16.16,18,23.72,44.43,36.24,34.16,16.19,85.27,40.39,99.53,83.72-.42,1.61-.87,3.21-1.35,4.82l3,.9c3.58,14.69,3,31.15-1.83,49-.7,1.79-1.22,3.64-1.55,5.53l-43,152.36c-4.5,7.42-14.08,26.86-7,49,6.53,20.44,24.88,35.88,54.55,45.91,12.42,4.2,25.59,9.12,39.53,14.33,12.18,4.56,24.79,9.27,38.32,14,59.1,20.85,133.76,42.45,239.4,44.54,6.39.12,13.2.18,20.45.18,168.39,0,557.36-32.76,605.88-38.29,35.06-4,61.07-8.48,79.53-13.68,18.17-5.13,39.28-13.47,41.28-32.65,1-9.54-3.05-17.67-11.09-25l6.16-221c1.28-.3,2.46-.62,3.55-.95,14.1-4.32,16.93-13.53,17.36-18.64.38-4.73-.68-13.71-12.22-20.37Zm-1178.92-313.28c5-10,40.11-39.86,69.75-61.75l.88-.65.83-.79c.26-.26,27.14-25.54,81.65-50,91.22-41,188.45-48.23,254-47.13,30.77.51,63.1,1.08,96.2,1.66,224.16,3.94,478,8.39,532.11,2.34,19.81.07,44.28,5.73,48.42,14,1.06,2.1.71,6.22-2.28,12.32-21.07-7.22-44.15-7.3-47.3-7.29h-1l-1,.12c-49.3,6-314.94,1.28-528.38-2.46-33.1-.58-65.44-1.15-96.23-1.67-55.62-.93-109,4-158.74,14.64-38.53,8.1-76.08,20.31-112,36.43-54.18,24.6-83.18,49.88-88.71,54.95-9.78,7.24-31.14,23.44-49.53,40,.26-1.62.71-3.2,1.33-4.72Zm177.27,597.79l-14.74-5.49c-14.2-5.31-27.62-10.33-40.58-14.71-18.16-6.14-29.34-14.17-32.35-23.22-3.22-9.7,3.32-20,4-21l1.72-2.25,44.89-159.18h0c.17-.55.31-1.09.47-1.63,1.54-1.89,9.73-9.72,39.94-12l-3.35,239.48Zm353.4,49.23c-40.16,1.5-75.36,2.18-102,1.65-93.77-1.85-162-19.88-216.6-38.44l3.5-252c19.92,1.35,39.3,4.87,62.46,9.08,49.42,9,117.09,21.31,242.29,21.31,10.04,0,20.66-.07,31.87-.21l-21.52,258.61Zm436.33-28.66c-101,8.48-269.74,21.23-401.08,27.19l21.43-257.72c98.93-2.25,234-9,398.62-19.85l-18.97,250.38Zm162.58-63.67c-5.06-2.08-11.51-4.48-17.23-6.52-3.32,9-8.93,20.25-15,31,12.53,4.29,24.66,9.69,36.23,16.14-10.64,3.95-33.71,9.83-83.21,15.47-7.61.87-24.46,2.47-48,4.55l19-249.72c32.67-2.22,66.44-4.59,101.31-7.12l12-.86h.5l-5.6,197.06Z" style="fill: #f2f2f2;"/>
    </g>
  </g>
</svg>