<?xml version="1.0" encoding="UTF-8"?>
<svg id="Layer_18" data-name="Layer 18" xmlns="http://www.w3.org/2000/svg" viewBox="0 0 80 80">
  <path d="m23.09,13.29h33.34c1.33,0,2.41,1.08,2.41,2.41v8.44H20.84v-8.61c0-1.24,1.01-2.25,2.25-2.25Z" style="fill: #666b7b;"/>
  <path d="m7.27,27.03v21.74c0,1.3,1.05,2.35,2.35,2.35h11.22v19.17h38v-19.17h11.08c1.37,0,2.49-1.11,2.49-2.49v-21.6H7.27Zm46.15,37.83h-27.15v-19h27.15v19Zm11.51-24.48c-2.75.43-5.09-1.9-4.68-4.66.26-1.72,1.66-3.12,3.37-3.39,2.75-.43,5.09,1.9,4.68,4.66-.26,1.72-1.66,3.12-3.37,3.39Z" style="fill: #666b7b;"/>
</svg>