<?xml version="1.0" encoding="UTF-8"?>
<svg id="Layer_15" data-name="Layer 15" xmlns="http://www.w3.org/2000/svg" viewBox="0 0 80 80">
  <path d="m48.7,11.98v25.33c0,.52-.42.95-.95.95h-28.97c-.52,0-.95-.42-.95-.95V11.98c0-.52-.42-.95-.95-.95h-5.38c-.52,0-.95.42-.95.95v55.39c0,.52.42.95.95.95h57.25c.52,0,.95-.42.95-.95V20.18c0-.25-.1-.49-.28-.67l-8.27-8.2c-.18-.18-.42-.27-.67-.27h-10.84c-.52,0-.95.42-.95.95Z" style="fill: #666b7b;"/>
  <rect x="33.42" y="14.44" width="9.9" height="18.73" rx=".95" ry=".95" style="fill: #666b7b;"/>
</svg>