<?xml version="1.0" encoding="UTF-8"?>
<svg id="Layer_16" data-name="Layer 16" xmlns="http://www.w3.org/2000/svg" viewBox="0 0 80 80">
  <g id="Clipboard">
    <path d="m60,18.72c-3.45-1.6-8.12-2.77-13.42-3.28v-2.96c0-4.01-2.83-7.25-6.31-7.25s-6.31,3.25-6.31,7.25v3.05c-5.39.59-10.09,1.86-13.42,3.58v6.25h39.46s0-6.65,0-6.65Zm-17.72-3.52c-.54-.01-1.07-.03-1.61-.03-.91,0-1.8.03-2.68.06v-3.28c0-1.19.96-2.15,2.15-2.15s2.15.96,2.15,2.15v3.25Z" style="fill: #666b7b;"/>
    <path d="m65.91,20.15h-3.49v8.17H17.32v-8.17h-3.22c-1.78,0-3.22,1.44-3.22,3.22v43.07c0,1.78,1.44,3.23,3.22,3.23h51.81c1.78,0,3.22-1.44,3.22-3.23V23.37c0-1.78-1.44-3.22-3.22-3.22Zm-19.33,39.85h-25.77v-3.76h25.77s0,3.76,0,3.76Zm0-9.4h-25.77v-3.76h25.77s0,3.76,0,3.76Zm0-9.4h-25.77v-3.76h25.77s0,3.76,0,3.76Zm13.42,18.8h-6.98v-3.76h6.98v3.76Zm0-9.4h-6.98v-3.76h6.98v3.76Zm0-9.4h-6.98v-3.76h6.98v3.76Z" style="fill: #666b7b;"/>
  </g>
</svg>