<?xml version="1.0" encoding="UTF-8"?>
<svg id="Layer_9" data-name="Layer 9" xmlns="http://www.w3.org/2000/svg" viewBox="0 0 80 80">
  <g id="On_Hold" data-name="On Hold">
    <path id="On_Hold-2" data-name="On Hold" d="m59.95,21.79h-.24c-1.76,0-3.19,1.42-3.19,3.18l-1.15,14.33c-.88-.54-2.1-1.02-2.1-1.43V15.5c0-1.76-1.03-3.16-2.79-3.16h-.25c-1.76,0-3.19,1.41-3.19,3.18l-1.14,20.7c-.93-.13.28-.23-2.1-.3V8.87c0-1.76-1.03-3.63-2.79-3.63h-.24c-1.76,0-3.19,1.65-3.19,3.41l-1.14,27.15c-.97.06-2.09.27-2.09.4V12.66c0-1.76-1.04-5.05-2.8-5.05h-.23c-1.76,0-3.19,2.36-3.19,4.12,0,0-1.02,33.69-2.23,34.62-.36.28-.74.72-1.11.89l-7.06-13.25c-.58-1.67-2.4-2.49-4.06-1.91l-.23.11c-1.66.58-2.54,2.41-1.97,4.08l7.59,19.82c1.96,10.1,10.99,17.74,21.84,17.74,11.98,0,21.53-9.29,22.02-20.94,0-.07-.18-27.91-.18-27.91,0-1.76-1.03-3.17-2.79-3.17Z" style="fill: #656b7b;"/>
  </g>
</svg>