<?xml version="1.0" encoding="UTF-8"?>
<svg id="Layer_13" data-name="Layer 13" xmlns="http://www.w3.org/2000/svg" viewBox="0 0 80 80">
  <path d="m68.86,71.36c-.1,0-.17-.02-.19-.04l-18.41-15.67-.66.51c-4.27,3.32-9.39,5.3-14.79,5.73-.75.06-1.51.09-2.26.09-14.33,0-26.47-11.22-27.62-25.55-.59-7.38,1.72-14.56,6.52-20.2,4.8-5.65,11.52-9.08,18.91-9.68.75-.06,1.51-.09,2.26-.09,14.34,0,26.47,11.21,27.62,25.51.42,5.15-.6,10.29-2.93,14.85l-.37.73,18.53,15.76s.08.13.09.27c.06.63-.37,1.89-1.45,3.15l-2.27,2.67c-1.09,1.28-2.32,1.94-2.97,1.94ZM32.6,13.97c-.55,0-1.09.02-1.65.07-11.14.9-19.48,10.68-18.58,21.8.84,10.45,9.71,18.64,20.19,18.64h0c.54,0,1.09-.02,1.64-.07,11.12-.9,19.44-10.69,18.55-21.83-.84-10.44-9.69-18.62-20.15-18.62Z" style="fill: #666b7b;"/>
</svg>