<?xml version="1.0" encoding="UTF-8"?>
<svg id="Layer_4" data-name="Layer 4" xmlns="http://www.w3.org/2000/svg" viewBox="0 0 80 80">
  <path d="m45.41,7.9c-1.07-.74-2.29-.52-3.03.55-.74,1.07-.52,2.28.55,3.03l1.79,1.24-9.45,13.63c-1.74,2.51-4.68,3.04-7.19,1.31l-2.23-1.55c-2.51-1.74-5.46-1.2-7.19,1.31l-4.49,6.48,17.87,12.39-12.39,17.87-3.17,8.39,6.74-5.91,12.39-17.87,17.87,12.39,4.49-6.48c1.74-2.5,1.2-5.46-1.3-7.19l-2.23-1.55c-2.5-1.73-3.04-4.68-1.3-7.19l9.45-13.63,1.79,1.24c1.07.74,2.28.52,3.03-.55.74-1.07.52-2.28-.55-3.03l-21.45-14.87h.02Z" style="fill: #656b7b;"/>
</svg>