<?xml version="1.0" encoding="UTF-8"?>
<svg id="Layer_19" data-name="Layer 19" xmlns="http://www.w3.org/2000/svg" viewBox="0 0 80 80">
  <g id="Select_People" data-name="Select People">
    <path d="m39.11,50.82c-1.11-.42-2.05-2.88-2.7-5.14,5-4.87,5.94-13.22,6.08-14.81h.03v-5.59c0-7.28-6.68-13.18-14.93-13.18s-14.92,5.9-14.92,13.18v5.59h.01c.06.98.81,10.34,6.45,15.3-.64,2.11-1.52,4.26-2.55,4.65-2.13.81-15.53,6.72-16.14,12.37h54.81c-.61-5.65-14.01-11.56-16.14-12.37Z" style="fill: #666b7b;"/>
    <path d="m51.91,48.07c-.5,1.65-.72,3.3-1.52,3.61-.25.1-.45.22-1.03.55,3.65,1.91,9.54,5.71,10.58,10.64l19.28.32c-.48-4.4-10.08-10.87-11.75-11.5-.86-.33-1.6-2.24-2.1-4,3.89-3.8,4.63-10.3,4.73-11.53h.02v-4.13c0-5.67-5.21-10.26-11.62-10.26s-11.62,4.6-11.62,10.26v4.13h.01c.05.76.63,8.05,5.02,11.91Z" style="fill: #666b7b;"/>
  </g>
</svg>