<?xml version="1.0" encoding="UTF-8"?>
<svg id="Layer_5" data-name="Layer 5" xmlns="http://www.w3.org/2000/svg" viewBox="0 0 80 80">
  <defs>
    <style>
      @keyframes stopwatch-spin {
        0% { transform: rotate(0deg) }
        5% { transform: rotate(0deg) }
        60% { transform: rotate(360deg) }
        100% { transform: rotate(360deg) }
      }
      @keyframes stopwatch-press {
        0% { transform: translate(0px, 0px) }
        4% { transform: translate(0px, 3px) }
        8% { transform: translate(0px, 0px) }
        100% { transform: translate(0px, 0px) }
      }
      #stop-sec {
        animation-duration: 2s;
        animation-name: stopwatch-spin;
        animation-fill-mode: forwards;
        animation-iteration-count: infinite;
        animation-timing-function: linear;
        transform-origin: bottom;
        transform-box: fill-box;
      }
      #stop-min {
        transform: rotate(45deg);
        transform-origin: bottom;
        transform-box: fill-box;
      }
      #stopwatch-btn {
        animation-duration: 2s;
        animation-name: stopwatch-press;
        animation-fill-mode: forwards;
        animation-iteration-count: infinite;
        animation-timing-function: linear;
        transform-origin: bottom;
        transform-box: fill-box;
      }
    </style>
  </defs>

  <path id="stopwatch-btn" d="m55.01,9.28h-29.46c-1.66,0-3-1.34-3-3s1.34-3,3-3h29.46c1.66,0,3,1.34,3,3s-1.34,3-3,3Z" style="fill: #656b7b;"/>
  <path d="m44.19,11.67v-3.09h-7.29v2.88c-6.66.62-12.7,3.33-17.49,7.29l-3.33-3.12c-.83-.83-2.08-.83-2.92,0l-3.96,3.96c-.83.83-.83,2.08,0,2.91l3.33,3.33c-3.33,5.41-5.41,11.66-5.41,18.32,0,18.11,14.78,32.9,32.9,32.9s32.9-14.78,32.9-32.9c-.21-16.66-12.7-30.4-28.73-32.48Zm-4.16,58.92c-14.58,0-26.65-11.87-26.65-26.65s11.87-26.44,26.65-26.44,26.65,11.87,26.65,26.65-12.08,26.44-26.65,26.44Z" style="fill: #656b7b;"/>
  <line id="stop-sec" x1="40.39" y1="24.77" x2="40.39" y2="43.86" style="fill: none; stroke: #656b7b; stroke-linecap: round; stroke-miterlimit: 10; stroke-width: 6px;"/>
  <line id="stop-min" x1="40.39" y1="31.93" x2="40.39" y2="43.86" style="fill: none; stroke: #656b7b; stroke-linecap: round; stroke-miterlimit: 10; stroke-width: 6px;"/>
</svg>