<?xml version="1.0" encoding="UTF-8"?>
<svg id="Layer_22" data-name="Layer 22" xmlns="http://www.w3.org/2000/svg" viewBox="0 0 80 80">
  <path d="m7.67,24.57v36.33s0,4.95,4.95,4.95h4.95V19.63h-4.95s-4.95,0-4.95,4.95Z" style="fill: #656b7b;"/>
  <path d="m42.54,31.5c-1.19,1.19-1.19,3.13,0,4.33,1.19,1.2,3.13,1.2,4.33,0,1.19-1.19,1.19-3.13,0-4.33-1.2-1.19-3.14-1.19-4.33,0Z" style="fill: #656b7b;"/>
  <path d="m67.04,19.63h-4.95v46.23h4.95s4.95,0,4.95-4.95V24.57s0-4.95-4.95-4.95Z" style="fill: #656b7b;"/>
  <path d="m55.46,19.02c0-5.76-4.68-10.44-10.44-10.44h-10.38c-5.76,0-10.44,4.68-10.44,10.44v.61h-1.69v46.23h34.64V19.63h-1.69v-.61Zm-20.82-5.44h10.38c3,0,5.44,2.44,5.44,5.44v.61h-21.26v-.61c0-3,2.44-5.44,5.44-5.44Zm17.35,24.16l-13.99,13.99c-.83.83-2.17.83-3,0l-8.33-8.33c-.83-.83-.83-2.17,0-3l14-13.99c.46-.47,1.1-.66,1.7-.6l-.04-.04,7.28,1.62h0c.31.05,1.05.29,1.35,1.36l1.5,6.69c.31.77.16,1.68-.46,2.3Z" style="fill: #656b7b;"/>
</svg>