<?xml version="1.0" encoding="UTF-8"?>
<svg id="Layer_2" data-name="Layer 2" xmlns="http://www.w3.org/2000/svg" viewBox="0 0 80 80">
  <g id="Split">
    <path d="m30.85,39.73l-15.6,4c-10.99,3.88-11.61,7.59-10.91,15.13.71,7.56,7.4,13.1,14.95,12.4,7.55-.7,13.1-7.4,12.4-14.95-.14-1.52-.59-2.94-1.18-4.27.85-1.7,1.13-4.13,3.24-5.95,2.98-2.57-2.9-6.36-2.9-6.36Zm-12,26.82c-4.95.46-9.33-3.17-9.8-8.13-.46-4.95,3.18-9.34,8.13-9.8,4.95-.47,9.34,3.17,9.8,8.13.46,4.95-3.17,9.33-8.13,9.8Z" style="fill: #656b7b;"/>
    <path d="m48.15,42.11l-9.43,5.15s26.48,21.63,32.06,20.21c0,0-.83-3.42-4.97-8.29-4.13-4.86-17.66-17.07-17.66-17.07Z" style="fill: #656b7b;"/>
    <path d="m21.01,32.27l17.94,8.36.9,2.1,22.3-11.14,14.15-6.65s-4.39-5.91-12.54-2.89c-8.41,3.12-17.68,8.38-22.82,11.47-3.93-1.63-10.57-3.91-10.72-4.28,1.96-2.05,4.63-5.66,4.91-8.7.65-7.15-4.6-13.47-11.75-14.13-7.15-.66-13.47,4.61-14.13,11.75-.66,7.15,4.6,13.47,11.75,14.12Zm1.96-21.37c4.67.43,8.09,4.55,7.66,9.21-.42,4.66-4.55,8.09-9.21,7.67-4.66-.43-8.09-4.55-7.66-9.22.43-4.66,4.55-8.09,9.21-7.66Z" style="fill: #656b7b;"/>
  </g>
</svg>