<?xml version="1.0" encoding="UTF-8"?>
<svg id="Layer_21" data-name="Layer 21" xmlns="http://www.w3.org/2000/svg" viewBox="0 0 80 80">
  <g id="Calendar">
    <path d="m12.47,65.31c0,2.83,2.26,5.12,5.06,5.12h45.51c2.79,0,5.06-2.29,5.06-5.12V27.45H12.47v37.87Zm5.06-23.68h9.1v9.16h-9.1v-9.16Zm12.24,0h9.1v9.16h-9.1v-9.16Zm12.42,0h9.1v9.16h-9.1v-9.16Zm12.24,0h9.1v9.16h-9.1v-9.16Zm-36.89-12.05h9.1v9.16h-9.1v-9.16Zm12.24,0h9.1v9.16h-9.1v-9.16Zm12.42,0h9.1v9.16h-9.1v-9.16Zm12.24,0h9.1v9.16h-9.1v-9.16Zm-36.89,24.19h9.1v9.16h-9.1v-9.16Zm12.24,0h9.1v9.16h-9.1v-9.16Zm12.42,0h9.1v9.16h-9.1v-9.16Zm12.24,0h9.1v9.16h-9.1v-9.16Z" style="fill: #666b7b;"/>
    <path d="m63.03,14.81h-8.22v-5.69c0-1.05-.85-1.9-1.9-1.9s-1.9.85-1.9,1.9v5.69h-21.49v-5.69c0-1.05-.85-1.9-1.9-1.9s-1.9.85-1.9,1.9v5.69h-8.22c-2.79,0-5.06,2.29-5.06,5.12v8.57h55.63v-8.57c0-2.83-2.27-5.12-5.06-5.12Zm-35.4,8.85c-2.09,0-3.79-1.7-3.79-3.79,0-1.4.76-2.62,1.9-3.28v3.28c0,1.05.85,1.9,1.9,1.9s1.9-.85,1.9-1.9v-3.28c1.13.66,1.9,1.88,1.9,3.28,0,2.1-1.7,3.79-3.79,3.79Zm25.28,0c-2.09,0-3.79-1.7-3.79-3.79,0-1.4.77-2.62,1.9-3.28v3.28c0,1.05.85,1.9,1.9,1.9s1.9-.85,1.9-1.9v-3.28c1.14.66,1.9,1.88,1.9,3.28,0,2.1-1.7,3.79-3.79,3.79Z" style="fill: #666b7b;"/>
  </g>
</svg>