<?xml version="1.0" encoding="UTF-8"?>
<svg id="Layer_20" data-name="Layer 20" xmlns="http://www.w3.org/2000/svg" viewBox="0 0 80 80">
  <path id="Info" d="m40,5.58C20.99,5.58,5.58,20.99,5.58,40s15.41,34.42,34.42,34.42,34.42-15.41,34.42-34.42S59.01,5.58,40,5.58Zm-4.26,12.35c1.17-1.18,2.58-1.77,4.24-1.77s3.11.59,4.28,1.77,1.75,2.6,1.75,4.26-.59,3.07-1.77,4.24c-1.18,1.17-2.6,1.75-4.26,1.75s-3.07-.58-4.24-1.75-1.75-2.58-1.75-4.24.58-3.08,1.75-4.26Zm12.8,41.64h-16.03v-1.07c1.22-.04,2.14-.39,2.73-1.07.39-.46.59-1.66.59-3.62v-16.19c0-1.96-.23-3.21-.68-3.75s-1.33-.85-2.64-.93v-1.1h12.67v21.98c0,1.96.23,3.21.68,3.75s1.34.85,2.67.93c0,0,0,1.07,0,1.07Z" style="fill: #666b7b;"/>
</svg>