<?xml version="1.0" encoding="UTF-8"?>
<svg id="Layer_1" data-name="Layer 1" xmlns="http://www.w3.org/2000/svg" viewBox="0 0 80 80">
  <g id="Unassign_a_Task" data-name="Unassign a Task">
    <polygon points="73.71 11.75 70.26 8.3 63.91 14.65 57.55 8.3 54.1 11.75 60.45 18.1 54.1 24.46 57.55 27.91 63.91 21.55 70.26 27.91 73.71 24.46 67.35 18.1 73.71 11.75" style="fill: #656b7b;"/>
  </g>
  <path d="m70.25,65.08c-4.12-1.84-16.47-8.38-16.47-8.38-2.56-2.31-2.59-8.03-2.56-9.47,1.9-2.63,3.58-5.95,5.17-9.76,1.6-.14,1.86-2.02,2.87-4.57.33-.84.17-1.68-.2-2.41l-1.51,1.5-7.53-7.54,6.35-6.35-6.35-6.35,3.3-3.3c-3.97-2.91-12.92-5.21-21.87-2.18,0,0-5.08-.36-7,3.65-2.3,4.8-1.54,11.12-1.54,12.57-.27,1.95.71,4,.67,6.13-1.15.66-2.49,2.4-1.97,4.29.76,2.76,1.27,4.44,2.87,4.57,1.6,3.63,3.24,6.86,5.08,9.47.02.43.31,7.19-2.66,9.77,0,0-12.87,6.54-17.16,8.38-4.29,1.84-5.72,5.52-5.72,10.83h71.72c0-5.31-1.37-8.99-5.49-10.83Z" style="fill: #656b7b;"/>
</svg>