<?xml version="1.0" encoding="UTF-8"?>
<svg id="Layer_1" data-name="Layer 1" xmlns="http://www.w3.org/2000/svg" xmlns:xlink="http://www.w3.org/1999/xlink" viewBox="0 0 1080 1080">
  <defs>
    <linearGradient id="linear-gradient" x1="646.85" y1="1012.85" x2="646.85" y2="424.85" gradientUnits="userSpaceOnUse">
      <stop offset="0" stop-color="#fff" stop-opacity="0"/>
      <stop offset=".05" stop-color="#fff" stop-opacity=".1"/>
      <stop offset=".22" stop-color="#fff" stop-opacity=".41"/>
      <stop offset=".37" stop-color="#fff" stop-opacity=".65"/>
      <stop offset=".5" stop-color="#fff" stop-opacity=".83"/>
      <stop offset=".6" stop-color="#fff" stop-opacity=".94"/>
      <stop offset=".66" stop-color="#fff" stop-opacity=".98"/>
      <stop offset="1" stop-color="#fff"/>
    </linearGradient>
    <linearGradient id="linear-gradient-2" x1="769.46" x2="769.46" xlink:href="#linear-gradient"/>
    <linearGradient id="linear-gradient-3" x1="604.5" x2="604.5" y2="414.18" xlink:href="#linear-gradient"/>
    <linearGradient id="linear-gradient-4" x1="726.38" x2="726.38" y2="414.18" xlink:href="#linear-gradient"/>
  </defs>
  <g>
    <path d="m57.46,806.92h12.89l9.28,37.59,10.36-37.59h9.97l10.36,37.59,9.28-37.59h12.89l-14.81,53.7h-13.96l-8.75-31.68-8.75,31.68h-13.96l-14.81-53.7Z" style="fill: #fff;"/>
    <path d="m188.91,806.92v53.7h-12.27v-21.33h-16.88v21.33h-12.27v-53.7h12.27v20.56h16.88v-20.56h12.27Z" style="fill: #fff;"/>
    <path d="m219.99,806.92v53.7h-12.27v-53.7h12.27Z" style="fill: #fff;"/>
    <path d="m235.34,848.42l10.59-6.14c1.92,4.45,5.22,7.44,11.28,7.44s7.29-2.3,7.29-4.37c0-3.3-3.07-4.6-11.12-6.83-7.98-2.22-15.8-6.06-15.8-16.34s8.75-16.34,18.03-16.34,15.73,4.22,19.64,12.12l-10.36,6.06c-1.84-3.84-4.37-6.21-9.28-6.21-3.84,0-5.75,1.92-5.75,4.07,0,2.45,1.3,4.14,9.67,6.67,8.13,2.45,17.26,5.29,17.26,16.65,0,10.36-8.29,16.5-19.95,16.5s-18.49-5.37-21.48-13.27Z" style="fill: #fff;"/>
    <path d="m321.59,860.62l-17.18-24.86v24.86h-12.27v-53.7h12.27v23.32l16.42-23.32h13.96l-18.11,26.16,18.87,27.54h-13.96Z" style="fill: #fff;"/>
    <path d="m375.46,839.98v20.64h-12.27v-20.64l-18.03-33.07h13.96l10.2,20.71,10.2-20.71h13.96l-18.03,33.07Z" style="fill: #fff;"/>
  </g>
  <g>
    <path d="m109.82,921.45c0,15.19-11.28,26.85-26.08,26.85h-21.48v-53.7h21.48c14.81,0,26.08,11.66,26.08,26.85Zm-11.81,0c0-9.21-5.83-15.04-14.27-15.04h-9.21v30.07h9.21c8.44,0,14.27-5.83,14.27-15.04Z" style="fill: #fff;"/>
    <path d="m138.61,894.6v53.7h-12.27v-53.7h12.27Z" style="fill: #fff;"/>
    <path d="m153.96,936.1l10.59-6.14c1.92,4.45,5.22,7.44,11.28,7.44s7.29-2.3,7.29-4.37c0-3.3-3.07-4.6-11.12-6.83-7.98-2.22-15.8-6.06-15.8-16.34s8.75-16.34,18.03-16.34,15.73,4.22,19.64,12.12l-10.36,6.06c-1.84-3.84-4.37-6.21-9.28-6.21-3.84,0-5.75,1.92-5.75,4.07,0,2.45,1.3,4.14,9.67,6.67,8.13,2.45,17.26,5.29,17.26,16.65,0,10.36-8.29,16.5-19.95,16.5s-18.49-5.37-21.48-13.27Z" style="fill: #fff;"/>
    <path d="m245.27,906.41h-13.81v41.89h-12.27v-41.89h-13.81v-11.81h39.89v11.81Z" style="fill: #fff;"/>
    <path d="m272.52,894.6v53.7h-12.27v-53.7h12.27Z" style="fill: #fff;"/>
    <path d="m322.78,936.49v11.81h-31.45v-53.7h12.27v41.89h19.18Z" style="fill: #fff;"/>
    <path d="m369.2,936.49v11.81h-31.45v-53.7h12.27v41.89h19.18Z" style="fill: #fff;"/>
    <path d="m417.93,936.49v11.81h-33.76v-53.7h33.37v11.81h-21.1v8.9h19.18v11.66h-19.18v9.51h21.48Z" style="fill: #fff;"/>
    <path d="m452.55,930.66h-5.83v17.65h-12.27v-53.7h21.48c10.2,0,18.41,8.21,18.41,18.41,0,6.6-3.99,12.58-9.9,15.57l11.43,19.72h-13.2l-10.13-17.65Zm-5.83-10.74h9.21c3.38,0,6.14-2.99,6.14-6.9s-2.76-6.91-6.14-6.91h-9.21v13.81Z" style="fill: #fff;"/>
    <path d="m515.39,927.66v20.64h-12.27v-20.64l-18.03-33.07h13.96l10.2,20.71,10.2-20.71h13.96l-18.03,33.07Z" style="fill: #fff;"/>
  </g>
  <g>
    <g>
      <polyline points="652.65 1012.85 652.65 424.85 641.05 424.85 641.05 1012.85" style="fill: url(#linear-gradient);"/>
      <polyline points="775.26 1012.85 775.26 424.85 763.66 424.85 763.66 1012.85" style="fill: url(#linear-gradient-2);"/>
      <g>
        <polygon points="878.7 274.65 878.7 384.85 846.39 384.85 846.39 391.04 890.3 391.04 890.3 291.27 878.7 274.65" style="fill: #fff;"/>
        <path d="m954.78,262.69s23.01-13.63,34.82-28.46c11.81-14.82,17.71-32.53,17.71-53.14,0-26.38-6.21-47.61-25.05-63.7-5.04-4.26-11.04-7.88-17.95-10.89,2.25,1.47,4.38,3.03,6.35,4.7,18.84,16.08,28.27,37.31,28.27,63.7,0,20.61-5.91,38.32-17.71,53.14-11.81,14.83-24.18,24.31-43.52,28.46l94.43,128.35h-50.78l1.11,6.19h66.76l-94.43-128.35Z" style="fill: #fff;"/>
        <path d="m890.3,212.78v-71.44h15.64c5.14,0,9.84.33,14.31.82-2.08-2.12-4.47-4.01-7.16-5.69-5.69-.86-11.9-1.32-18.75-1.32h-15.64v77.73h7.46c1.42,0,2.76-.06,4.14-.1Z" style="fill: #fff;"/>
      </g>
      <g>
        <polygon points="213.32 591.04 115.51 591.04 115.51 729.55 83.2 729.55 83.2 735.74 127.11 735.74 127.11 597.23 224.91 597.23 224.91 555.96 213.32 555.96 213.32 591.04" style="fill: #fff;"/>
        <polygon points="258.52 444.78 258.52 479.85 115.51 479.85 115.51 535.16 127.11 535.16 127.11 486.05 270.12 486.05 270.12 444.78 258.52 444.78" style="fill: #fff;"/>
      </g>
      <g>
        <polygon points="412.56 426.5 408.07 436.14 539.85 729.55 500.72 729.55 503.39 735.74 551.45 735.74 412.56 426.5" style="fill: #fff;"/>
        <polygon points="367.39 603 390.49 552.46 383.45 536.31 352.96 603 367.39 603" style="fill: #fff;"/>
        <polygon points="436.78 658.88 328 658.88 295.59 729.55 262.77 729.55 259.89 735.74 307.19 735.74 339.6 665.07 439.45 665.07 436.78 658.88" style="fill: #fff;"/>
      </g>
      <path d="m1018.05,593.25c-3.75-4.72-8.31-9.18-13.57-13.41,3.17,4.84,5.68,10.05,7.64,15.58,7.11,12.08,10.73,26.14,10.73,42.26,0,26.78-8.92,48.91-26.76,66.39-6.92,6.77-14.49,12.21-22.68,16.38-12.74,8.83-27.26,14.07-43.57,15.65,3.56.34,7.19.56,10.95.56,26.63,0,48.93-8.8,66.9-26.4,17.84-17.47,26.76-39.6,26.76-66.39,0-19.99-5.47-36.86-16.4-50.63Z" style="fill: #fff;"/>
      <path d="m881.98,643.41c1.33,7.98,3.07,14.52,5.23,19.62,4,4.73,8.66,8.45,14.05,11.07-4.15-6.85-7.12-17.83-8.9-32.97l-10.38,2.29Z" style="fill: #fff;"/>
      <g>
        <polygon points="772.81 384.85 601.15 384.85 601.15 391.04 784.41 391.04 784.41 349.77 772.81 349.77 772.81 384.85" style="fill: #fff;"/>
        <polygon points="772.81 100.07 772.81 135.15 633.46 135.15 633.46 190.46 645.05 190.46 645.05 141.34 784.41 141.34 784.41 100.07 772.81 100.07" style="fill: #fff;"/>
        <polygon points="746.72 246.34 633.46 246.34 633.46 328.97 645.05 328.97 645.05 252.53 758.32 252.53 758.32 211.26 746.72 211.26 746.72 246.34" style="fill: #fff;"/>
      </g>
      <g>
        <path d="m407.1,134.21v70.01h7.27c1.49,0,2.91-.06,4.32-.12v-63.69h15.45c.93,0,1.79.06,2.69.09-1.05-1.31-2.17-2.57-3.42-3.72-.83-.76-1.72-1.45-2.63-2.12-2.62-.27-5.35-.44-8.24-.44h-15.45Z" style="fill: #fff;"/>
        <path d="m407.1,255.57v73.4h11.6v-67.21h22.24c5.26,0,10.15.22,14.7.64-.75-.77-1.48-1.55-2.3-2.29-1.3-1.19-2.78-2.28-4.37-3.3-5.88-.8-12.37-1.24-19.63-1.24h-22.24Z" style="fill: #fff;"/>
        <path d="m515.84,167.21c0,17.42-5.65,32.58-16.78,45.52-1.75,2.72-3.72,5.36-5.9,7.91,4.29,1.54,8.3,3.41,12.07,5.58,10.71-12.77,16.17-27.66,16.17-44.74,0-11.43-2.45-22.74-7.35-33.92-.52-1.2-1.13-2.29-1.69-3.44,2.25,7.64,3.48,15.33,3.48,23.09Z" style="fill: #fff;"/>
        <path d="m534.03,262.14c-1.09-1.61-2.24-3.15-3.43-4.65,3.78,9.42,5.69,19.71,5.69,30.92,0,3-.16,5.92-.44,8.8.07,1.44.14,2.87.14,4.34,0,22.74-8.04,41.96-24.12,57.67-9.68,9.68-20.54,16.4-32.6,20.16-13.19,3.65-29.71,5.47-49.56,5.47h-54.92v6.19h66.52c19.85,0,36.37-1.82,49.56-5.47,12.06-3.77,22.93-10.49,32.6-20.16,16.08-15.7,24.12-34.92,24.12-57.67,0-17.34-4.52-32.53-13.57-45.6Z" style="fill: #fff;"/>
      </g>
      <g>
        <polygon points="201.95 81.8 197.47 91.43 329.24 384.85 290.11 384.85 292.79 391.04 340.84 391.04 201.95 81.8" style="fill: #fff;"/>
        <polygon points="161.13 258.3 181.38 214.02 174.33 197.86 146.7 258.3 161.13 258.3" style="fill: #fff;"/>
        <polygon points="218.63 314.18 121.74 314.18 89.33 384.85 56.51 384.85 53.63 391.04 100.93 391.04 133.34 320.37 221.31 320.37 218.63 314.18" style="fill: #fff;"/>
      </g>
      <path d="m893.95,510.22c0,1.13.17,2.21.3,3.3,3.06,3.66,7.17,7.05,12.31,10.16-.66-2.34-1.01-4.76-1.01-7.27,0-10.31,4.02-18.86,12.06-25.65,7.3-6.28,16.33-9.67,27.05-10.25-1.4-1.21-2.78-2.24-4.15-3.04-2.02-1.29-4.3-2.3-6.7-3.18-11.05.46-20.33,3.86-27.79,10.28-8.04,6.79-12.06,15.34-12.06,25.65Z" style="fill: #fff;"/>
      <path d="m1008.82,478.28c.72,1.15,1.45,2.26,2.15,3.46l-30.07,17.82c1.99,2.79,4,5.92,6.05,9.48l35.62-21.11c-.86-1.48-1.75-2.88-2.63-4.29l-11.11-5.36Z" style="fill: #fff;"/>
    </g>
    <path d="m234.88,306.1h-124.56l-32.41,70.67H30.6L174.58,67.52l138.89,309.24h-48.05l-30.53-70.67Zm-17.9-41.27l-43.15-98.94-45.23,98.94h88.38Z" style="fill: #fff;"/>
    <path d="m351.77,376.76V85.8h43.72c19.47,0,34.99,1.51,46.55,4.52,11.68,3.02,21.54,8.1,29.59,15.26,8.16,7.41,14.63,16.65,19.41,27.7,4.9,11.18,7.35,22.49,7.35,33.92,0,20.86-7.98,38.51-23.93,52.95,15.45,5.28,27.64,14.51,36.56,27.7,9.05,13.07,13.57,28.27,13.57,45.6,0,22.74-8.04,41.96-24.12,57.67-9.68,9.68-20.54,16.4-32.6,20.16-13.19,3.65-29.71,5.47-49.56,5.47h-66.52Zm43.91-166.02h13.76c16.33,0,28.3-3.61,35.9-10.83,7.6-7.22,11.4-17.87,11.4-31.94s-3.9-24.09-11.68-31.19c-7.79-7.1-19.1-10.65-33.92-10.65h-15.45v84.61Zm0,124.75h27.14c19.85,0,34.42-3.89,43.72-11.68,9.8-8.41,14.7-19.09,14.7-32.04s-4.71-23.11-14.13-31.66c-9.17-8.41-25.57-12.63-49.19-12.63h-22.24v88.01Z" style="fill: #fff;"/>
    <path d="m761.39,127.07h-139.36v69.91h113.26v41.27h-113.26v97.24h139.36v41.27h-183.26V85.8h183.26v41.27Z" style="fill: #fff;"/>
    <path d="m921.92,252.76l90.08,124h-53.71l-83.11-119.1h-7.91v119.1h-43.91V85.8h51.45c38.44,0,66.21,7.23,83.29,21.67,18.84,16.08,28.27,37.31,28.27,63.7,0,20.61-5.91,38.32-17.71,53.14-11.81,14.83-27.39,24.31-46.74,28.46Zm-54.65-33.36h13.95c41.58,0,62.38-15.89,62.38-47.68,0-29.77-20.23-44.66-60.68-44.66h-15.64v92.34Z" style="fill: #fff;"/>
    <path d="m247.09,471.77H104.08v69.91h97.8v41.27h-97.8v138.51h-43.91v-290.96h186.92v41.27Z" style="fill: #fff;"/>
    <path d="m445.49,650.8h-124.56l-32.41,70.67h-47.3l143.97-309.24,138.89,309.24h-48.05l-30.53-70.67Zm-17.9-41.27l-43.15-98.94-45.23,98.94h88.38Z" style="fill: #fff;"/>
    <path d="m629.63,414.18v598.67h-50.26V414.18h50.26Z" style="fill: url(#linear-gradient-3);"/>
    <path d="m751.51,414.18v598.67h-50.26V414.18h50.26Z" style="fill: url(#linear-gradient-4);"/>
    <path d="m1003.89,473.66l-35.62,21.11c-6.66-11.56-13-19.1-19.03-22.61-6.29-4.02-14.39-6.03-24.31-6.03-12.19,0-22.3,3.46-30.34,10.37-8.04,6.79-12.06,15.34-12.06,25.65,0,14.21,10.55,25.65,31.66,34.32l29.02,11.88c23.62,9.56,40.89,21.22,51.82,34.98,10.93,13.77,16.4,30.65,16.4,50.63,0,26.78-8.92,48.91-26.76,66.39-17.97,17.6-40.27,26.4-66.9,26.4-25.25,0-46.11-7.51-62.56-22.53-16.21-15.01-26.32-36.08-30.34-63.22l44.47-9.8c2.01,17.09,5.53,28.9,10.55,35.43,9.05,12.56,22.24,18.84,39.57,18.84,13.69,0,25.06-4.58,34.11-13.75,9.05-9.16,13.57-20.78,13.57-34.84,0-5.65-.79-10.83-2.35-15.53-1.57-4.71-4.02-9.04-7.35-13-3.33-3.95-7.63-7.66-12.91-11.11-5.28-3.45-11.56-6.75-18.84-9.89l-28.08-11.68c-39.83-16.82-59.74-41.43-59.74-73.82,0-21.85,8.35-40.11,25.06-54.8,16.71-14.81,37.5-22.22,62.38-22.22,33.54,0,59.74,16.27,78.58,48.81Z" style="fill: #fff;"/>
  </g>
</svg>