<?xml version="1.0" encoding="UTF-8"?>
<svg xmlns="http://www.w3.org/2000/svg" viewBox="0 0 1480 1600">
  <g id="bg">
    <rect x="-4.67" y="-7.36" width="1487.43" height="1612.8" style="fill: #ececec;"/>
  </g>
  <g id="post-bg">
    <rect x="274.93" y="231.51" width="930.14" height="1140.14" rx="39.1" ry="39.1" style="fill: #fff;"/>
  </g>
  <g id="icons">
    <path d="m388.08,1294.57c-8.42-5.71-16.28,1.35-16.9,1.93-.62-.58-8.48-7.65-16.9-1.93-7.91,5.36-6.06,17.09,3.11,24.56,8.03,6.55,13.06,10.42,13.75,10.94v.07s.02-.02.04-.03c.02.02.04.03.04.03v-.07c.69-.53,5.71-4.4,13.75-10.94,9.17-7.47,11.01-19.2,3.11-24.56Z" style="fill: none; stroke: #010101; stroke-miterlimit: 10; stroke-width: 3px;"/>
    <g>
      <path d="m472.27,1320.96c1.79-2.92,2.83-6.34,2.83-10.02,0-10.64-8.62-19.26-19.26-19.26s-19.26,8.62-19.26,19.26,8.62,19.26,19.26,19.26c3.65,0,7.04-1.03,9.95-2.79" style="fill: none; stroke: #010101; stroke-miterlimit: 10; stroke-width: 3px;"/>
      <path d="m472.27,1320.96l2.58,8.71s-4.87-1.23-9.06-2.26" style="fill: none; stroke: #010101; stroke-miterlimit: 10; stroke-width: 3px;"/>
    </g>
    <g>
      <path d="m532.88,1310.46s3.2,20.24,3.86,21.55c.66,1.32,1.69-.47,1.69-.47,0,0,20.42-32.75,21.46-35.01,1.04-2.26-1.22-2.07-1.22-2.07,0,0-36.89.47-39.72.47s-1.79,2.07-1.79,2.07l15.72,13.46" style="fill: none; stroke: #010101; stroke-miterlimit: 10; stroke-width: 3px;"/>
      <line x1="532.88" y1="1310.46" x2="559.7" y2="1295.41" style="fill: none; stroke: #010101; stroke-miterlimit: 10; stroke-width: 3px;"/>
    </g>
    <g>
      <path d="m1092.07,1331.93v-41.9c0-.76.62-1.38,1.38-1.38h33.51c.76,0,1.38.62,1.38,1.38v41.9" style="fill: none; stroke: #010101; stroke-miterlimit: 10; stroke-width: 3px;"/>
      <path d="m1092.07,1331.93l16.74-14.49c.77-.77,2.04-.77,2.81,0l16.74,14.49" style="fill: none; stroke: #010101; stroke-miterlimit: 10; stroke-width: 3px;"/>
    </g>
  </g>
  <g id="post">
    <g>
      <path d="m315.83,304.71h-.43v1.4h.43c.39,0,.66-.27.66-.7s-.27-.7-.66-.7Z"/>
      <path d="m333.13,304.7h-.43v.64h.43c.16,0,.29-.14.29-.32s-.13-.32-.29-.32Z"/>
      <path d="m327.7,290.92h4.11l-2.01-4.6-2.1,4.6Zm1.31-.3h-.67l1.42-3.1.33.75-1.07,2.35Z"/>
      <path d="m355.79,270.57c0-1.38-.94-2.08-2.82-2.08h-.73v4.29h.65c1.93,0,2.9-.74,2.9-2.22Zm-3.02-1.7h.73c.32,0,.61.02.87.06.12.08.24.17.33.26-.21-.02-.43-.04-.67-.04h-.73v3.32c-.06,0-.13,0-.19,0h-.35v-3.61Z"/>
      <path d="m332.64,271.88c.35-.34.53-.83.53-1.48s-.18-1.12-.54-1.45c-.36-.33-.89-.49-1.58-.49h-.72v3.93h.64c.76,0,1.31-.17,1.67-.5Zm-1.78-3.05h.72c.13,0,.26,0,.38.02.04.03.08.06.12.1.06.05.11.11.16.17-.04,0-.08,0-.12,0h-.72v2.96c-.07,0-.13,0-.2,0h-.34v-3.25Z"/>
      <path d="m333.62,277.64c.46-.39.68-.89.68-1.49s-.22-1.07-.66-1.47c-.43-.39-1.19-.59-2.29-.59h-1.03v4.09h1.26c.92,0,1.6-.18,2.03-.54Zm-2.22.24h-.54v-3.41h1.03c.34,0,.64.02.91.06.07.05.14.1.2.15.04.03.07.07.11.11-.21-.02-.44-.03-.68-.03h-1.03v3.12Z"/>
      <path d="m336.67,249.43c-19.27,0-34.9,15.62-34.9,34.9s15.62,34.9,34.9,34.9c.74,0,1.47-.02,2.19-.07v-37.32h2.34v37.1c.18-.02.35-.05.53-.07v-36.53h.54v36.45c.76-.12,1.51-.27,2.26-.44v-36.5h2.34v35.88c.19-.06.38-.12.56-.18v-35.21h.54v35.03c13.73-4.69,23.61-17.71,23.61-33.03,0-19.27-15.62-34.9-34.9-34.9Zm.08,25.34c.42.61.63,1.31.63,2.12,0,1.06-.37,1.95-1.12,2.68-.45.45-.95.76-1.51.94-.61.17-1.38.25-2.3.25h-3.09v-.29h2.55c.92,0,1.69-.08,2.3-.25.56-.18,1.07-.49,1.51-.94.75-.73,1.12-1.62,1.12-2.68,0-.07,0-.13,0-.2.01-.13.02-.27.02-.41,0-.52-.09-1-.26-1.44.06.07.11.14.16.22Zm-1.01-5.48c.03.05.05.1.08.16.23.52.34,1.05.34,1.58,0,.79-.25,1.49-.75,2.08-.18-.1-.36-.19-.56-.26.1-.12.19-.24.27-.37.52-.6.78-1.31.78-2.12,0-.36-.06-.72-.16-1.07Zm-7.46-2.71h2.03c.9,0,1.63.07,2.16.21.54.14,1,.38,1.37.71.38.34.68.77.9,1.29.23.52.34,1.05.34,1.58,0,.97-.37,1.79-1.11,2.46.72.25,1.28.67,1.7,1.29.42.61.63,1.31.63,2.12,0,1.06-.37,1.95-1.12,2.68-.45.45-.95.76-1.51.94-.61.17-1.38.25-2.3.25h-3.09v-13.52Zm-6.96-.19l6.45,14.37h-2.23l-.12-.29h1.82l-6.12-13.63.21-.45Zm-1.27-.66l6.45,14.37h-2.23l-1.42-3.28h-5.79l-1.51,3.28h-2.2l6.69-14.37Zm-2.21,24.61v6.44h-2.04v-.29h1.5v-6.44h4.54v-1.63h.54v1.92h-4.54Zm4.32,9.74v2.5h-.57v-2.5h.57Zm-.84-12.32v1.92h-4.54v6.44h-2.04v-13.52h8.69v1.92h-6.65v3.25h4.54Zm-3.47-2.59v2.28h-.54v-2.57h6.65v-1.63h.54v1.92h-6.65Zm-3.28-4.7h1.52l1.51-3.28h4.5l.12.29h-4.09l-1.51,3.28h-2.2l.13-.29Zm1.27,26.18h-1v-2.5h1c.69,0,1.21.54,1.21,1.25s-.52,1.25-1.21,1.25Zm.93-4.07l-.41-1.47-.41,1.47h-.65l-.69-2.5h.6l.43,1.75.48-1.75h.46l.48,1.75.43-1.75h.6l-.69,2.5h-.65Zm1.62,4.07h-.57v-2.5h.57v2.5Zm.41-6.57h.57v.96h.78v-.96h.57v2.5h-.57v-.99h-.78v.99h-.57v-2.5Zm1.3,6.62c-.52,0-.86-.25-1-.62l.49-.29c.09.21.24.35.52.35s.34-.11.34-.2c0-.15-.14-.21-.52-.32-.37-.1-.73-.28-.73-.76s.41-.76.84-.76.73.2.91.56l-.48.28c-.09-.18-.2-.29-.43-.29-.18,0-.27.09-.27.19,0,.11.06.19.45.31.38.11.8.25.8.77,0,.48-.38.77-.93.77Zm3.24-2h-.64v1.95h-.57v-1.95h-.64v-.55h1.85v.55Zm1.27,1.95h-.57v-2.5h.57v2.5Zm-.73-4.02c-.52,0-.86-.25-1-.62l.49-.29c.09.21.24.35.52.35s.34-.11.34-.2c0-.15-.14-.21-.52-.32-.37-.1-.73-.28-.73-.76s.41-.76.84-.76.73.2.91.56l-.48.28c-.09-.18-.2-.29-.43-.29-.18,0-.27.09-.27.19,0,.11.06.19.45.31.38.11.8.25.8.77,0,.48-.38.77-.93.77Zm.14-5.85l.13-.29h1.52l1.51-3.28h5.05l.12.29h-4.64l-1.51,3.28h-2.2Zm2.92,9.88h-1.46v-2.5h.57v1.95h.89v.55Zm-.06-4.07l-.8-1.16v1.16h-.57v-2.5h.57v1.08l.76-1.08h.65l-.84,1.22.88,1.28h-.65Zm2.21,4.07h-1.46v-2.5h.57v1.95h.89v.55Zm.29-4.07h-.57v-.96l-.84-1.54h.65l.47.96.47-.96h.65l-.84,1.54v.96Zm1.97,4.07h-1.57v-2.5h1.55v.55h-.98v.41h.89v.54h-.89v.44h1v.55Zm2.08,0l-.47-.82h-.27v.82h-.57v-2.5h1c.47,0,.86.38.86.86,0,.31-.19.58-.46.72l.53.92h-.61Zm-.8-13.82h-5.79l-1.51,3.28h-2.2l6.69-14.37,6.45,14.37h-2.23l-1.42-3.28Zm3.25,12.87v.96h-.57v-.96l-.84-1.54h.65l.47.96.47-.96h.65l-.84,1.54Zm-.56-8.92l-.12-.29h1.82l-6.12-13.63.21-.45,6.45,14.37h-2.23Zm3.47-16.68v-13.52h8.52v1.92h-6.48v3.25h5.26v1.92h-5.26v4.52h6.48v1.92h-8.52Zm7.83-6.06v-1.63h.54v1.92h-5.26v3.55h-.54v-3.84h5.26Zm1.75,6.72h-8.52v-.29h7.98v-1.63h.54v1.92Zm0-11.6h-6.48v2.28h-.54v-2.57h6.48v-1.63h.54v1.92Zm1.81-2.58h2.39c1.79,0,3.08.34,3.87,1.01.88.75,1.31,1.73,1.31,2.96,0,.96-.27,1.78-.82,2.47-.55.69-1.27,1.13-2.17,1.32l4.19,5.76h-2.5l-3.86-5.53h-.37v5.53h-2.04v-13.52Zm3.11,9.55v4.64h-2.04v-.29h1.5v-5.12l.54.77Zm-1.63,19.19c-.75-.7-1.22-1.68-1.41-2.94l2.07-.46c.09.79.26,1.34.49,1.65.42.58,1.03.88,1.84.88.64,0,1.16-.21,1.58-.64s.63-.97.63-1.62c0-.26-.04-.5-.11-.72-.07-.22-.19-.42-.34-.6-.15-.18-.35-.36-.6-.52-.25-.16-.54-.31-.88-.46l-1.3-.54c-1.85-.78-2.78-1.93-2.78-3.43,0-1.02.39-1.86,1.16-2.55.78-.69,1.74-1.03,2.9-1.03,1.56,0,2.78.76,3.65,2.27l-1.65.98c-.31-.54-.6-.89-.88-1.05-.29-.19-.67-.28-1.13-.28-.57,0-1.04.16-1.41.48-.37.32-.56.71-.56,1.19,0,.66.49,1.19,1.47,1.59l1.35.55c1.1.44,1.9.99,2.41,1.63.51.64.76,1.42.76,2.35,0,1.24-.41,2.27-1.24,3.08-.83.82-1.87,1.23-3.11,1.23-1.17,0-2.14-.35-2.91-1.05Zm1.24-2.83l.48-.11c.08.7.22,1.21.41,1.53-.25-.12-.47-.29-.65-.51-.1-.24-.18-.54-.24-.91Zm5.89-7.67l.52.25c.04.07.08.13.12.2l-1.65.98c-.1-.17-.19-.31-.28-.44l1.4-.83c-.03-.06-.07-.11-.1-.16Zm-4.75,2.11c-.24-.14-.43-.3-.57-.47,0-.05-.01-.1-.01-.15,0-.48.19-.88.56-1.19.35-.3.78-.46,1.29-.48.11.04.22.09.31.15.06.04.13.09.19.14-.5.03-.92.18-1.26.48-.37.32-.56.71-.56,1.19,0,.12.02.23.05.34Zm4.7,8.67c-.83.82-1.87,1.23-3.11,1.23-.17,0-.34-.01-.51-.03.76-.07,1.43-.32,2.02-.73.38-.19.73-.45,1.05-.76.83-.81,1.24-1.84,1.24-3.08,0-.75-.17-1.4-.5-1.96-.09-.26-.21-.5-.35-.72.24.2.46.4.63.62.51.64.76,1.42.76,2.35,0,1.24-.41,2.27-1.24,3.08Zm-1.17-14.83l-.05-.29h2.36l-4.39-5.96c.9-.19,1.47-.63,2.02-1.32.55-.69.82-1.51.82-2.47,0-1.23-.44-2.21-1.31-2.96-.09-.08-.19-.15-.29-.22.32.14.6.31.83.51.88.75,1.16,1.73,1.16,2.96,0,.96-.27,1.78-.82,2.47-.55.69-1.62,1.32-1.62,1.32l4.39,5.96h-3.1Z"/>
      <path d="m320.02,270.3l-2.1,4.6h4.11l-2.01-4.6Zm-1.26,4.29l1.28-2.81.33.75-.94,2.06h-.67Z"/>
    </g>
  </g>
</svg>