<?xml version="1.0" encoding="UTF-8"?>
<svg id="Layer_1" data-name="Layer 1" xmlns="http://www.w3.org/2000/svg" viewBox="0 0 577.82 75">
  <polygon points="42 1.5 0 1.5 0 73.5 8.9 73.5 8.9 41.95 36 41.95 36 33.05 8.9 33.05 8.9 10.4 42 10.4 42 1.5 42 1.5" style="fill: #fff;"/>
  <path d="M116.42,1.5h-28.45V73.5h8.9v-26.6h21.06l12.89,26.6h10.2l-13.9-28.52c3.34-1.36,6.03-3.44,8.05-6.28,2.9-4.07,4.35-8.9,4.35-14.5,0-3.8-.67-7.28-2-10.43-1.33-3.15-3.32-5.77-5.97-7.85-2.65-2.08-5.93-3.42-9.83-4.02-.9-.17-1.83-.27-2.8-.32-.97-.05-1.8-.08-2.5-.08h0Zm-19.55,36.95V9.95h19.25c.63,0,1.36,.03,2.18,.1,.82,.07,1.59,.18,2.32,.35,2.3,.53,4.17,1.51,5.6,2.93,1.43,1.42,2.49,3.08,3.17,5,.68,1.92,1.03,3.88,1.03,5.88s-.34,3.96-1.03,5.88c-.68,1.92-1.74,3.58-3.17,5-1.43,1.42-3.3,2.39-5.6,2.92-.73,.17-1.51,.28-2.32,.35-.82,.07-1.54,.1-2.18,.1h-19.25Z" style="fill: #fff;"/>
  <path d="M181.52,.05c-4.77,0-9.05,.79-12.85,2.38-3.8,1.58-6.81,3.89-9.02,6.93-2.22,3.03-3.33,6.67-3.33,10.9,0,2.67,.43,4.98,1.3,6.95,.87,1.97,2.03,3.64,3.5,5.02,1.47,1.38,3.13,2.53,5,3.45,1.87,.92,3.8,1.66,5.8,2.23l18.35,5.45c1.3,.4,2.55,.88,3.75,1.45,1.2,.57,2.27,1.25,3.2,2.05,.93,.8,1.68,1.78,2.25,2.95,.57,1.17,.85,2.53,.85,4.1,0,2.6-.77,4.85-2.32,6.75-1.55,1.9-3.62,3.36-6.23,4.37-2.6,1.02-5.52,1.53-8.75,1.53-5,0-9.34-1.28-13.02-3.83-3.68-2.55-6.11-6.09-7.27-10.63l-9.2,1.45c.8,4.4,2.52,8.21,5.17,11.43,2.65,3.22,6.02,5.69,10.1,7.42,4.08,1.73,8.68,2.6,13.77,2.6,3.73,0,7.23-.47,10.5-1.4,3.27-.93,6.13-2.32,8.6-4.15,2.47-1.83,4.39-4.1,5.77-6.8,1.38-2.7,2.08-5.78,2.08-9.25s-.63-6.34-1.9-8.63c-1.27-2.28-2.87-4.12-4.8-5.5-1.93-1.38-3.92-2.46-5.97-3.23-2.05-.77-3.86-1.37-5.43-1.8l-13.7-3.95c-1.77-.5-3.58-1.14-5.43-1.92-1.85-.78-3.41-1.84-4.67-3.17-1.27-1.33-1.9-3.12-1.9-5.35s.7-4.16,2.1-5.88c1.4-1.72,3.28-3.07,5.65-4.05,2.29-.95,4.85-1.43,7.67-1.43,.09,0,.19,0,.28,0,3.07,.03,5.88,.62,8.45,1.77,2.57,1.15,4.71,2.79,6.42,4.93,1.72,2.13,2.83,4.65,3.33,7.55l9.45-1.65c-.87-4.37-2.56-8.12-5.07-11.25-2.52-3.13-5.68-5.54-9.5-7.23-3.82-1.68-8.14-2.54-12.98-2.58h0Z" style="fill: #fff;"/>
  <polygon points="277.02 1.5 219.02 1.5 219.02 9.95 243.57 9.95 243.57 73.5 252.47 73.5 252.47 9.95 277.02 9.95 277.02 1.5 277.02 1.5" style="fill: #fff;"/>
  <path d="M340.07,1.5h-28.05V73.5h30.55c4.4,0,8.21-.85,11.42-2.55,3.22-1.7,5.68-4.08,7.4-7.15,1.72-3.07,2.58-6.7,2.58-10.9,0-4.57-1.28-8.5-3.85-11.8-1.94-2.5-4.49-4.4-7.62-5.72,1.99-1.14,3.67-2.69,5.02-4.66,2-2.92,3-6.34,3-10.27,0-3.33-.81-6.44-2.42-9.33-1.62-2.88-3.95-5.21-7-6.98-3.05-1.77-6.73-2.65-11.03-2.65h0Zm-19.05,30.05V9.9h18.95c3.37,0,6.11,.98,8.22,2.95,2.12,1.97,3.17,4.5,3.17,7.6,0,2.27-.51,4.22-1.52,5.88-1.02,1.65-2.39,2.93-4.12,3.85-1.73,.92-3.65,1.38-5.75,1.38h-18.95Zm0,33.45v-25.05h20.85c2.53,0,4.78,.57,6.73,1.72,1.95,1.15,3.47,2.69,4.58,4.62,1.1,1.93,1.65,4.12,1.65,6.55s-.61,4.7-1.83,6.5c-1.22,1.8-2.88,3.19-4.97,4.17-2.1,.98-4.48,1.48-7.15,1.48h-19.85Z" style="fill: #fff;"/>
  <polygon points="388.82 1.5 379.92 1.5 379.92 73.5 422.22 73.5 422.22 65.05 388.82 65.05 388.82 1.5 388.82 1.5" style="fill: #fff;"/>
  <path d="M546.12,0c-7.17,0-13.25,1.58-18.25,4.75-5,3.17-8.81,7.57-11.42,13.2-2.62,5.63-3.92,12.15-3.92,19.55s1.31,13.92,3.92,19.55c2.62,5.63,6.42,10.03,11.42,13.2,5,3.17,11.08,4.75,18.25,4.75,8.33,0,15.19-2.12,20.58-6.35,5.38-4.23,9.09-9.93,11.12-17.1l-9.05-2.4c-1.47,5.33-4.09,9.56-7.88,12.68-3.78,3.12-8.71,4.67-14.78,4.67-5.37,0-9.85-1.23-13.45-3.67-3.6-2.45-6.3-5.85-8.1-10.2-1.8-4.35-2.68-9.39-2.65-15.13,.03-5.73,.95-10.78,2.75-15.15,1.8-4.37,4.48-7.77,8.05-10.2,3.57-2.43,8.03-3.65,13.4-3.65,6.07,0,10.99,1.55,14.78,4.65,3.78,3.1,6.41,7.33,7.88,12.7l9.05-2.4c-2.03-7.17-5.74-12.87-11.12-17.1-5.38-4.23-12.24-6.35-20.58-6.35h0Z" style="fill: #fff;"/>
  <path d="M493.99,8.93v57.39h-51.91V8.93h51.91m8-8h-67.91V74.32h67.91V.93h0Z" style="fill: #fff;"/>
  <path d="M60.69,73.64V1.64h8.9V73.64h-8.9Z" style="fill: #fff;"/>
</svg>