<?xml version="1.0" encoding="UTF-8"?>
<svg id="Layer_1" data-name="Layer 1" xmlns="http://www.w3.org/2000/svg" viewBox="0 0 1920 1080">
  <rect x="-70.54" y="-65.89" width="2064.56" height="1215.24" style="fill: #10069f;"/>
  <g>
    <text transform="translate(498.55 578.87)" style="fill: #fff; font-family: Poppins-Bold, Poppins; font-size: 259.95px; font-weight: 700;"><tspan x="0" y="0" style="letter-spacing: -.06em;">V</tspan><tspan x="174.17" y="0">alue</tspan></text>
    <path d="m1436.16,401.41l-56.44,89.6,58.72,88.08h-50.37l-36.19-54.42-31.89,54.42h-49.1l56.95-90.36-58.21-87.32h50.37l35.69,53.66,31.38-53.66h49.1m14.33-7.91h-67.97l-2.29,3.92-24.99,42.72-28.67-43.11-2.35-3.53h-69.38l8.2,12.3,55.37,83.05-54.21,86.02-7.64,12.13h67.97l2.29-3.91,25.49-43.5,29.18,43.88,2.35,3.53h69.38l-8.2-12.3-55.87-83.81,53.71-85.26,7.64-12.12h0Z" style="fill: #fff;"/>
    <text transform="translate(560.75 668.53)" style="fill: #fff; font-family: Poppins-Medium, Poppins; font-size: 76.52px; font-weight: 500; letter-spacing: .03em;"><tspan x="0" y="0">FUND THE FUTURE</tspan></text>
  </g>
</svg>