<?xml version="1.0" encoding="UTF-8"?>
<svg xmlns="http://www.w3.org/2000/svg" viewBox="0 0 467.23 573.4">
  <defs>
    <style>
      @keyframes shine {
        0% { opacity: .1; transform: translate(0, -1000px) }
        50% { opacity: .1; transform: translate(0, 1000px) }
        51% { opacity: 0; transform: translate(0, -1000px) }
        100% { opacity: 0; transform: translate(0, -1000px) }
      }
      #sheen-lines {
        transform: translate(0, -1000px);
        animation-name: shine;
        animation-duration: 4s;
        animation-iteration-count: infinite;
        animation-fill-mode: forwards;
        animation-delay: 1s;
        transform-origin: center;
        transform-box: fill-box;
      }
    </style>
      <clipPath id="clippath">
        <rect x="-38.46" y="67" width="545.28" height="439.3" rx="10.64" ry="10.64" transform="translate(520.83 52.47) rotate(90)" style="fill: none;"/>
      </clipPath>
  </defs>
  <g id="card">
    <rect x="7.53" y="7.01" width="453.3" height="559.28" rx="17.64" ry="17.64" style="fill: #7e1112; stroke: #b29c47; stroke-miterlimit: 10; stroke-width: 9.95px;"/>
  </g>
  <g id="cow">
    <g>
      <path d="m427.08,293.31c-.37-.46-1.04-1.19-3.53-3.85-2.56-2.74-6.85-7.33-7.89-8.68-.68-.88-1.52-1.84-2.42-2.85-1.11-1.26-3.17-3.59-3.6-4.54-1.19-4.18-1.56-7.24-1.45-8.15.26-.83.8-1.73,1.55-2.97.66-1.08,1.4-2.31,2.18-3.86,2.01-4.02,2.11-8.04.26-11.03-.98-1.58-3.37-4.23-8.4-4.23-.88,0-1.71.07-2.5.19,3.17-4.41,5.84-10.59,5-18.76l-.03-.27-.05-.27c-1-5.02-4.27-6.81-6.99-6.81-5.03,0-6.96,5.36-7.6,7.12-1.76,4.88-10.23,11.52-12.65,12.17-.49.11-1.44.14-2.37.16-3.1.08-8.32.22-12.52,4.43-.73-.42-1.49-.98-2.16-1.72-4.81-5.32-10.03-6.09-11.02-6.19l-4.25-.42-1.62,3.95c-1.23,2.98-1.12,8.24,3.22,13.27,1.33,1.54,2.22,3.27,2.69,4.5-.93.92-2.01,1.65-3.98,1.65-.08,0-.16,0-.23,0-1.86-.05-3.59-.51-5.43-.99-2.11-.55-4.51-1.18-7.2-1.18-2.22,0-4.33.42-6.44,1.27-1.26.51-2.36,1.01-3.43,1.48-3.79,1.69-6.29,2.81-11.71,2.81-.27,0-.56,0-.84,0-.96-.02-1.96-.03-3.02-.03-12.72,0-25.95,1.73-40.44,5.28-1.79.44-3.54.88-5.27,1.3-15.91,3.96-29.66,7.38-52.82,7.38-.55,0-1.11,0-1.68,0-.36,0-32.48-.05-53.66-4.4-6.34-1.3-11.59-3.06-16.22-4.61-5.8-1.94-10.81-3.62-15.82-3.62-5.83,0-10.76,2.22-15.52,6.97-10.57,10.57-23.74,26.13-26.42,40.25-1,5.23-1.81,16.26-2.76,29.02-1.04,14.03-2.61,35.24-4.27,39.38-.45,1.14-.93,2.29-1.41,3.44-3.23,7.8-6.89,16.64-5.73,25.94.42,3.38-.33,8.06-1,12.2-1.07,6.63-1.99,12.36.89,16.4,2.7,3.78,7.33,6.12,12.1,6.12,2.62,0,4.95-.71,6.73-2.05,1.15-.86,3.28-2.46,6.07-13.64.21-.83.42-1.71.62-2.63.32,1.04.82,2.08,1.54,3.11,1.87,2.67,2.44,13.19,2.78,19.47.2,3.67.39,7.14.74,10.1,1.08,9.17-.2,17.29-1.54,19.64-3.42,5.98-.22,10.16,1.5,12.41.64.84,1.25,1.63,1.74,2.6.35.71.42,1.32.52,2.25.24,2.18.88,7.97,9.11,8.79,1.85.19,4.12.28,6.74.28,4.32,0,8.17-.25,8.33-.26l6.95-.46-1.8-6.73c-.42-1.57-2.64-9.59-5.29-13.56-1.36-2.04-1.89-3.73-2.43-14.61-.19-3.78-.55-6.82-.87-9.51-.64-5.44-.86-7.75.36-10.42.57-1.26,1.09-2.34,1.55-3.27,4.75,9.42,6.01,12.86,6.17,14.03.25,2.03.04,4.25-.21,6.83-.19,1.97-.4,4.21-.4,6.57,0,8,7.96,13.29,8.87,13.87l1.49.95,1.77-.06,17.51-.56,2.64-.09,1.65-2.06c.52-.65,4.89-6.6-1.65-15.01-1.66-2.13-3.56-3.94-5.41-5.68-1.82-1.73-4.58-4.34-4.71-5.55-.28-2.51-1.5-6.33-3.47-12.36-1.6-4.9-4.59-14.02-4.43-16.38,0-.03,0-.06,0-.09.93.37,1.93.57,2.96.57,3.79,0,6.92-2.7,7.51-6.37,1.02.5,2.11.73,3.18.73.32,0,.65-.02.98-.07,2.05-.27,3.86-1.43,5.1-3.25,1.94-2.86,2.31-7.41,2.26-10.63.65-.5,1.4-1.05,1.99-1.49,3.71-2.75,5.25-3.93,6.17-5.54.14-.25.27-.5.37-.75,1.2.29,2.27.62,2.8.88,1.16.88,2.81,1.73,15.2,2.85,7.94.72,16.46,1.13,23.38,1.13,7.46,0,13.1-.47,16.77-1.38,6.7-1.67,11.46-4.52,15.3-6.81,2.73-1.63,5.08-3.03,6.68-3.03.08,0,.16,0,.25.01,1.09.09,2.21.13,3.52.13.52,0,1.02,0,1.5-.01.39,0,.76-.01,1.12-.01.06,0,.12,0,.18,0,.67,6.36.34,22.71-.53,25.64-.34.97-1.26,3.02-2.15,5.01-3.49,7.79-5.12,11.8-4.92,14.89.19,3.07,1.52,5.35,2.31,6.72.05.09.11.19.17.29.14,2.06.7,6.22,2.34,8.85,2.01,3.22,5.83,3.74,14.18,3.74,3.08,0,5.68-.1,5.79-.11l5.78-.23-.29-5.78c-.05-.93-.42-5.74-3.25-9.42-.18-.24-.37-.48-.57-.73-.75-.96-2.51-3.2-2.5-4.04.29-1.38.41-3.12.55-5.31.21-3.13.64-9.64,2.09-11.47l.05-.07c4.41-5.57,7.99-10.38,9.21-14.83.03.93.06,1.87.08,2.79.17,5.95.31,9.75.92,12.2.8,3.21,1.87,17.53,1.24,20.96-1.51,3.08-2.27,8.21-2.47,9.79-.97,7.5.18,10.46,1.12,12.04,2.1,3.5,7.23,7.81,8.24,8.63l1.52,1.25,1.96.05,13.74.38,7.42.2-1.68-7.23c-.88-3.77-2.88-10.5-6.42-13.22-2.25-1.73-2.54-2.02-2.47-3.7.22-5.47,1.15-20.49,1.97-24.75.31-1.59.51-4.09.8-7.54.36-4.34.8-9.73,1.57-14.53,1.14-7.08,2.35-8.76,2.49-8.92,2.37-2.94,5.98-5.9,9.16-8.52,2.59-2.13,5.03-4.14,6.81-6.1,1.08-1.19,3.14-2.89,5.12-4.52,4.18-3.44,8.49-6.99,10.44-10.88,2.77-5.54,4.72-9.58,5.43-12.73,1.2.68,2.6,1.16,4.27,1.16.88,0,1.76-.14,2.61-.43,2.35-.78,7.24-2.41,9.22-6.84.76-1.7,1.35-4.45-.13-7.85-.78-1.8-1.78-3.55-2.66-5.1-.42-.74-.98-1.73-1.37-2.49.86-1.34,2.43-2.71,6.41-3.05,1.23-.1,2.45-.2,3.65-.29,8.24-.63,15.35-1.18,20.6-4.55,3.6-2.3,9.87-4.4,13.16-4.4.14,0,.27,0,.38.01.35.03.7.05,1.05.05,6.72,0,12.79-5.45,15.57-10.52,3.1-5.64,2.32-11.74.02-14.63Z" style="fill: #380505;"/>
      <g>
        <path d="m111.77,492.43c-2.52,0-4.7-.09-6.46-.27-5.47-.55-6.23-3.39-6.55-6.25-.12-1.06-.23-2.06-.81-3.22s-1.33-2.16-2.03-3.06c-1.59-2.07-3.76-4.91-1.29-9.24,1.8-3.15,3-12.02,1.9-21.4-.34-2.87-.52-6.29-.72-9.92-.43-7.85-.96-17.62-3.3-20.96-3.59-5.12.14-10.7,3.44-15.62,1.83-2.73,3.72-5.56,4.66-8.39,2.46-7.39-2.74-29.59-5.02-35.3-.64-1.61-1.64-3.3-2.66-4.78-.63,4.9-1.97,10.8-3.35,13.92-1.54,3.46-2.26,8.12-2.96,12.62-.25,1.61-.5,3.22-.79,4.8-.57,3.13.06,6.59.72,10.25.5,2.76,1.02,5.61,1.02,8.44,0,4.86-3.48,23.67-7.36,26.58-1.27.95-3.05,1.47-5.01,1.47-3.02,0-7.17-1.29-9.77-4.92-2.2-3.08-1.4-8.02-.4-14.28.7-4.33,1.49-9.23,1.01-13.01-1.07-8.55,2.29-16.65,5.54-24.49.48-1.17.96-2.33,1.42-3.48,1.82-4.55,3.29-24.33,4.47-40.23.9-12.15,1.75-23.63,2.72-28.7,2.55-13.4,15.35-28.48,25.64-38.76,4.19-4.19,8.47-6.13,13.49-6.13,4.54,0,9.35,1.61,14.91,3.48,4.71,1.58,10.04,3.37,16.56,4.7,21.48,4.41,53.88,4.46,54.2,4.46.59,0,1.15,0,1.71,0,23.52,0,37.42-3.46,53.52-7.47,1.72-.43,3.47-.86,5.26-1.3,14.26-3.5,27.27-5.2,39.75-5.2,1.04,0,2.03.01,2.97.03.31,0,.6,0,.9,0h0c6.03,0,8.9-1.28,12.88-3.06,1.05-.47,2.14-.96,3.34-1.44,1.76-.72,3.52-1.06,5.36-1.06,2.32,0,4.43.55,6.47,1.09,2,.52,3.89,1.02,6.08,1.08h.31c3.73,0,5.5-1.91,6.79-3.31.14-.15.28-.3.41-.44-.25-1.39-1.48-4.52-3.74-7.14-4.6-5.32-2.94-9.81-2.74-10.31l.81-1.97,2.12.21c.5.05,4.99.62,9.18,5.26,1.63,1.8,3.64,2.79,5.05,3.3,3.56-4.85,8.46-4.98,11.83-5.07,1.11-.03,2.17-.06,2.95-.23,3.3-.75,12.61-8.21,14.69-13.99.61-1.7,1.89-5.23,4.9-5.23,2.05,0,3.62,1.69,4.18,4.51l.03.13v.14c1.26,12.14-6.29,19.51-10.09,22.8.54.37,1.1.7,1.47.82.3-.07,1.04-.39,1.59-.63,1.8-.78,4.26-1.84,7.39-1.84,3.46,0,5.15,1.56,5.96,2.87,1.33,2.15,1.2,5.08-.38,8.24-.72,1.44-1.43,2.62-2.06,3.66-.86,1.42-1.54,2.53-1.89,3.76-.32,1.11.1,4.8,1.51,9.72.35,1.23,2.75,3.94,4.19,5.57.86.97,1.67,1.89,2.29,2.7,1.12,1.46,5.3,5.93,8.06,8.88,2.21,2.37,3.08,3.3,3.39,3.68,1.48,1.85,2.37,6.62-.29,11.45-2.47,4.49-7.75,9.04-13.06,9.04-.27,0-.54-.01-.8-.03-.2-.02-.41-.03-.63-.03-3.79,0-10.66,2.27-14.7,4.85-4.65,2.98-11.43,3.5-19.28,4.1-1.2.09-2.43.19-3.67.29-6.71.57-8.43,3.89-9.34,5.75.23.86,1.31,2.76,2.05,4.06.84,1.48,1.8,3.17,2.52,4.82,1.06,2.45.66,4.36.14,5.54-1.46,3.27-5.39,4.58-7.51,5.29-.56.19-1.13.28-1.7.28-2.47,0-4.2-1.66-5.72-3.12-.37-.35-.74-.71-1.12-1.04,0,.46,0,.91.01,1.25.02,1.14.04,2.21-.09,3.13-.44,3.1-2.94,8.09-5.36,12.92-1.67,3.34-5.75,6.7-9.69,9.94-2.16,1.78-4.21,3.46-5.43,4.81-1.64,1.81-4,3.75-6.51,5.81-3.29,2.7-7.02,5.77-9.57,8.94-2.92,3.62-4.07,17.53-4.68,25.01-.27,3.24-.48,5.8-.76,7.24-.84,4.39-1.8,19.63-2.02,25.17-.13,3.22,1.27,4.3,3.59,6.08,3.02,2.33,4.88,9.47,5.38,11.6l.84,3.62-18.43-.51-.76-.62c-.58-.48-5.71-4.74-7.6-7.89-2.46-4.11-.16-16.12,1.61-19.37.91-2.71-.25-18.93-1.18-22.64-.58-2.33-.71-6.83-.84-11.59-.1-3.68-.21-7.48-.53-9.57-.24-1.53-1.36-2.61-2.42-3.3-1.27,2.37-2.5,5.23-2.43,6.68.22,4.46-3.96,10.13-9.03,16.54-2.06,2.6-2.48,8.94-2.76,13.13-.14,2.09-.25,3.73-.5,4.95-.41,1.94,1.51,4.39,3.05,6.36l.56.71c2.36,3.07,2.64,7.34,2.66,7.82l.15,2.89-2.89.12c-.11,0-2.65.11-5.67.11-8.77,0-10.71-.74-11.75-2.39-1.4-2.24-1.9-6.57-1.94-8.11-.09-.21-.33-.63-.52-.95-.75-1.29-1.78-3.06-1.93-5.46-.16-2.54,1.75-7.01,4.68-13.54.96-2.14,1.86-4.15,2.25-5.28,1.01-2.88,1.41-20.75.61-27.32-.25-2.05-.25-2.09-2.98-2.09-.37,0-.75,0-1.15.01-.46,0-.95.01-1.46.01-1.23,0-2.27-.04-3.28-.12-.16-.01-.32-.02-.49-.02-2.39,0-4.93,1.52-8.15,3.44-3.67,2.19-8.24,4.91-14.52,6.49-3.44.86-8.86,1.3-16.08,1.3-11.12,0-34.4-1.48-37.01-3.51-.74-.53-4.09-1.48-6.8-1.87.14.84.1,1.79-.43,2.73-.6,1.05-1.96,2.12-5.39,4.66-1,.74-2.38,1.76-3.19,2.43.14,2.69.03,7.8-1.72,10.38-.99,1.46-2.23,1.9-3.1,2.02-.21.03-.4.04-.6.04-2.46,0-4.22-1.83-5-5.07-.42.14-.84.28-1.24.39.2,1.93.41,4.48.28,5.98-.21,2.51-2.2,4.33-4.73,4.33s-4.57-1.68-5.38-4.27c-.01-.04-.03-.09-.04-.13-.09,2.34-.21,4.68-.4,6.52-.28,2.77,2.52,11.31,4.55,17.55,1.91,5.85,3.1,9.55,3.35,11.78.25,2.25,2.85,4.71,5.59,7.31,1.77,1.67,3.59,3.4,5.12,5.36,4.22,5.42,3.03,9.75,1.67,11.46l-.83,1.03-19.71.64-.75-.48c-.77-.49-7.54-4.98-7.54-11.45,0-2.23.2-4.3.39-6.3.25-2.63.49-5.12.2-7.47-.42-3.32-6.44-14.98-8.71-19.36-.06-.11-.11-.22-.17-.32-.89,1.28-2.3,3.67-4.31,8.09-1.6,3.51-1.22,6.69-.6,11.95.31,2.64.67,5.63.85,9.31.56,11.15,1.09,13.33,2.91,16.06,2.45,3.68,4.66,11.8,4.9,12.71l.9,3.37-3.48.23c-.16,0-3.91.26-8.14.26Z" style="fill: #b29c47;"/>
        <path d="m395.81,217.37c.93,0,1.37,2.21,1.37,2.21,1.51,14.68-11.48,21.46-11.29,22.4.19.94,3.2,3.39,5.08,3.76.12.02.24.03.37.03,1.9,0,4.81-2.48,9.05-2.48,4.52,0,4.71,3.58,3.01,6.96s-3.39,5.27-4.14,7.91c-.75,2.64.75,8.66,1.51,11.29.75,2.64,5.08,6.78,6.96,9.22,1.88,2.45,10.73,11.67,11.48,12.61.75.94,1.51,4.52-.56,8.28-1.98,3.6-6.38,7.55-10.55,7.55-.19,0-.37,0-.56-.02-.28-.02-.57-.04-.88-.04-4.48,0-11.85,2.49-16.25,5.31-4.71,3.01-12.8,3.2-21.65,3.95-8.85.75-10.92,5.84-11.86,7.72s2.82,6.59,4.71,10.92c1.88,4.33-2.82,6.02-5.65,6.96-.27.09-.54.13-.79.13-2.41,0-4.24-3.67-7.3-5.03-.34-.15-.63-.22-.89-.22-2.25,0-1.22,5.57-1.56,7.94-.38,2.64-2.82,7.53-5.08,12.05-2.26,4.52-11.11,10.16-14.68,14.12-3.58,3.95-11.48,9.04-16.19,14.87-4.71,5.84-5.08,28.61-6.02,33.51-.94,4.89-1.88,20.89-2.07,25.6-.19,4.71,2.26,6.59,4.71,8.47,2.45,1.88,4.33,9.98,4.33,9.98l-13.74-.38s-5.27-4.33-6.96-7.15c-1.69-2.82.19-13.93,1.69-16.56,1.51-2.64,0-20.89-.94-24.66-.94-3.76-.56-16-1.32-20.89-.75-4.89-6.4-6.59-6.4-6.59,0,0-4.33,6.78-4.14,10.54.19,3.76-4.89,10.16-8.47,14.68-3.58,4.52-3.01,15.62-3.76,19.2-.75,3.58,2.26,6.96,4.14,9.41,1.88,2.45,2.07,6.21,2.07,6.21,0,0-2.56.1-5.56.1-4,0-8.78-.18-9.31-1.04-.94-1.51-1.51-5.27-1.51-6.78s-2.26-3.39-2.45-6.4c-.19-3.01,5.46-13.93,6.78-17.69,1.32-3.76,1.51-22.4.75-28.61-.51-4.21-2.49-4.62-5.82-4.62-.8,0-1.67.02-2.62.02s-1.96-.02-3.04-.11c-.24-.02-.48-.03-.72-.03-6.44,0-11.76,7.1-23.37,10.01-3.51.88-9.14,1.21-15.38,1.21-15.18,0-34.05-1.97-35.25-2.91-1.6-1.24-7.71-2.65-10.61-2.65-.18,0-.34,0-.49.02-2.64.19.38,3.01-.38,4.33-.75,1.32-9.22,6.78-9.04,7.53s.56,10.16-2.26,10.54c-.07,0-.15.01-.22.01-2.61,0-2.61-6.6-2.61-6.6-1.51,1.51-6.78,2.64-6.78,2.64,0,0,.75,5.65.56,7.91-.09,1.09-.93,1.7-1.87,1.7-1.02,0-2.16-.7-2.65-2.26-.94-3.01-3.2-9.04-5.46-9.41,0,0,0,10.73-.56,16.38-.56,5.65,7.34,24.85,7.91,29.93.56,5.08,7.34,9.04,11.29,14.12s1.69,7.91,1.69,7.91l-17.51.56s-6.21-3.95-6.21-9.04,1.13-9.6.56-14.12c-.56-4.52-8.47-19.2-10.16-22.59-.3-.59-.66-.86-1.08-.86-1.96,0-5.06,5.9-7.39,11.02-2.82,6.21-.56,11.29,0,22.59.56,11.29,1.13,14.12,3.39,17.51,2.26,3.39,4.52,11.86,4.52,11.86,0,0-3.76.25-7.95.25-2.09,0-4.29-.06-6.17-.25-5.65-.56-2.82-3.39-5.08-7.91-2.26-4.52-5.65-5.65-3.39-9.6,2.26-3.95,3.39-13.55,2.26-23.15-1.13-9.6-.56-26.54-4.52-32.19-3.95-5.65,5.65-12.99,8.47-21.46,2.82-8.47-2.82-31.62-5.08-37.27-1.95-4.88-6.86-10.61-7.79-10.61-.15,0-.19.14-.12.45.56,2.26-1.13,14.12-3.39,19.2-2.26,5.08-2.82,11.86-3.95,18.07-1.13,6.21,1.69,12.99,1.69,19.2s-3.95,22.59-6.21,24.28c-.78.58-1.96.9-3.3.9-2.53,0-5.59-1.14-7.43-3.72-2.82-3.95,2.26-16.94,1.13-25.98-1.13-9.04,3.39-18.07,6.78-26.54,3.39-8.47,5.08-57.6,7.34-69.46,2.26-11.86,13.55-25.98,24.85-37.27,3.88-3.88,7.5-5.3,11.46-5.3,7.57,0,16.44,5.15,30.89,8.12,22.02,4.52,54.78,4.52,54.78,4.52.58,0,1.15,0,1.72,0,26.38,0,40.66-4.25,59.46-8.85,17.25-4.23,30.09-5.11,39.07-5.11,1.02,0,1.99.01,2.9.03.33,0,.65.01.96.01,8.31,0,11.49-2.36,17.3-4.72,1.53-.62,2.93-.85,4.28-.85,3.99,0,7.55,2.03,12.47,2.17.13,0,.27,0,.4,0,6.29,0,8.66-4.35,9.77-5.09,1.13-.75-.56-6.4-4.14-10.54-3.58-4.14-2.26-7.34-2.26-7.34,0,0,3.76.38,7.34,4.33,3.58,3.95,8.47,4.71,8.47,4.71,3.76-7.15,9.98-4.89,14.12-5.84,4.14-.94,14.31-9.04,16.75-15.81.92-2.54,1.65-3.34,2.21-3.34m0-5.73c-5.03,0-6.96,5.36-7.6,7.12-1.76,4.88-10.23,11.52-12.65,12.17-.49.11-1.44.14-2.37.16-3.1.08-8.32.22-12.52,4.43-.73-.42-1.49-.98-2.16-1.72-4.81-5.32-10.03-6.09-11.02-6.19l-4.25-.42-1.62,3.95c-1.23,2.98-1.12,8.24,3.22,13.27,1.33,1.54,2.22,3.27,2.69,4.5-.93.92-2.01,1.65-3.98,1.65-.08,0-.16,0-.23,0-1.86-.05-3.59-.51-5.43-.99-2.11-.55-4.51-1.18-7.2-1.18-2.22,0-4.33.42-6.44,1.27-1.26.51-2.36,1.01-3.43,1.48-3.79,1.69-6.29,2.81-11.71,2.81-.27,0-.56,0-.84,0-.96-.02-1.96-.03-3.02-.03-12.72,0-25.95,1.73-40.44,5.28-1.79.44-3.54.88-5.27,1.3-15.91,3.96-29.66,7.38-52.82,7.38-.55,0-1.11,0-1.68,0-.36,0-32.48-.05-53.66-4.4-6.34-1.3-11.59-3.06-16.22-4.61-5.8-1.94-10.81-3.62-15.82-3.62-5.83,0-10.76,2.22-15.52,6.97-10.57,10.57-23.74,26.13-26.42,40.25-1,5.23-1.81,16.26-2.76,29.02-1.04,14.03-2.61,35.24-4.27,39.38-.46,1.14-.93,2.29-1.41,3.44-3.23,7.8-6.89,16.64-5.73,25.94.42,3.38-.33,8.06-1,12.2-1.07,6.63-1.99,12.36.89,16.4,2.7,3.78,7.33,6.12,12.1,6.12,2.62,0,4.95-.71,6.73-2.05,1.15-.86,3.28-2.46,6.07-13.64.21-.83.42-1.71.62-2.63.32,1.04.82,2.08,1.54,3.11,1.87,2.67,2.44,13.19,2.78,19.47.2,3.67.39,7.14.74,10.1,1.08,9.17-.2,17.29-1.54,19.64-3.42,5.98-.22,10.16,1.5,12.4.64.84,1.25,1.63,1.74,2.6.35.71.42,1.32.52,2.25.24,2.18.88,7.97,9.11,8.79,1.85.19,4.12.28,6.74.28,4.32,0,8.17-.25,8.33-.26l6.95-.46-1.8-6.73c-.42-1.57-2.64-9.59-5.29-13.56-1.36-2.04-1.89-3.73-2.43-14.61-.19-3.78-.55-6.82-.87-9.51-.64-5.44-.86-7.75.36-10.42.57-1.26,1.09-2.34,1.56-3.27,4.75,9.42,6.01,12.86,6.17,14.03.25,2.03.04,4.25-.21,6.83-.19,1.97-.4,4.21-.4,6.57,0,8,7.96,13.29,8.87,13.87l1.49.95,1.77-.06,17.51-.56,2.64-.09,1.65-2.06c.52-.65,4.89-6.6-1.65-15.01-1.66-2.13-3.56-3.94-5.41-5.68-1.82-1.73-4.58-4.34-4.71-5.55-.28-2.51-1.5-6.33-3.47-12.35-1.6-4.9-4.59-14.02-4.43-16.38,0-.03,0-.06,0-.09.93.37,1.93.57,2.96.57,3.79,0,6.92-2.7,7.51-6.37,1.02.5,2.11.73,3.18.73.32,0,.65-.02.98-.07,2.05-.27,3.86-1.43,5.1-3.25,1.94-2.86,2.31-7.41,2.26-10.63.65-.5,1.4-1.05,1.99-1.49,3.71-2.75,5.25-3.93,6.17-5.54.14-.25.27-.5.37-.75,1.2.29,2.27.62,2.8.88,1.16.88,2.81,1.73,15.2,2.85,7.94.72,16.46,1.13,23.38,1.13,7.46,0,13.1-.47,16.77-1.38,6.7-1.67,11.46-4.52,15.3-6.81,2.73-1.63,5.08-3.03,6.68-3.03.08,0,.16,0,.25.01,1.09.09,2.21.13,3.52.13.52,0,1.02,0,1.5-.01.39,0,.76-.01,1.12-.01.06,0,.12,0,.18,0,.67,6.36.34,22.71-.53,25.64-.34.97-1.26,3.02-2.15,5.01-3.49,7.79-5.12,11.8-4.92,14.9.19,3.07,1.52,5.35,2.31,6.72.05.09.11.19.17.29.14,2.06.7,6.22,2.34,8.85,2.01,3.22,5.83,3.74,14.18,3.74,3.08,0,5.68-.1,5.79-.11l5.78-.23-.29-5.78c-.05-.93-.42-5.74-3.25-9.42-.18-.24-.37-.48-.57-.73-.75-.96-2.51-3.2-2.5-4.04.29-1.38.41-3.12.55-5.31.21-3.13.64-9.64,2.09-11.47l.05-.07c4.41-5.57,7.99-10.38,9.21-14.83.03.93.06,1.87.08,2.79.17,5.95.31,9.75.92,12.2.8,3.21,1.87,17.53,1.24,20.96-1.51,3.08-2.27,8.21-2.47,9.79-.97,7.5.18,10.46,1.12,12.04,2.1,3.5,7.23,7.81,8.24,8.63l1.52,1.25,1.96.05,13.74.38,7.42.2-1.68-7.23c-.88-3.77-2.88-10.5-6.42-13.22-2.25-1.73-2.54-2.02-2.47-3.7.22-5.47,1.15-20.49,1.97-24.75.31-1.59.51-4.09.8-7.54.36-4.34.8-9.73,1.57-14.53,1.14-7.08,2.35-8.76,2.49-8.92,2.37-2.94,5.98-5.9,9.16-8.52,2.59-2.13,5.03-4.14,6.81-6.1,1.08-1.19,3.14-2.89,5.12-4.52,4.18-3.44,8.49-6.99,10.44-10.88,2.77-5.54,4.72-9.57,5.43-12.73,1.2.68,2.6,1.16,4.27,1.16.88,0,1.76-.14,2.61-.43,2.35-.78,7.24-2.41,9.22-6.84.76-1.7,1.35-4.45-.13-7.85-.78-1.8-1.78-3.55-2.66-5.1-.42-.74-.98-1.73-1.37-2.49.86-1.34,2.43-2.71,6.41-3.05,1.23-.1,2.45-.2,3.65-.29,8.24-.63,15.35-1.18,20.6-4.55,3.6-2.3,9.87-4.4,13.16-4.4.14,0,.27,0,.38.01.35.03.7.05,1.05.05,6.72,0,12.79-5.45,15.57-10.52,3.1-5.64,2.32-11.74.02-14.63-.37-.46-1.04-1.19-3.53-3.85-2.56-2.74-6.85-7.33-7.89-8.68-.68-.88-1.52-1.84-2.42-2.85-1.11-1.26-3.17-3.59-3.6-4.54-1.19-4.18-1.56-7.24-1.45-8.15.26-.83.8-1.73,1.55-2.97.66-1.08,1.4-2.31,2.18-3.86,2.01-4.02,2.11-8.04.26-11.03-.98-1.58-3.37-4.23-8.4-4.23-.88,0-1.71.07-2.5.19,3.17-4.41,5.84-10.59,5-18.76l-.03-.27-.05-.27c-1-5.02-4.27-6.81-6.99-6.81h0ZM90.35,406.13c.06-.74.09-1.45.09-2.09,0-3.09-.54-6.07-1.06-8.95-.62-3.4-1.2-6.61-.72-9.22.3-1.62.55-3.28.8-4.87.7-4.51,1.37-8.78,2.75-11.89.64-1.44,1.29-3.51,1.87-5.83,2.45,8.32,5.61,24.58,3.83,29.92-.82,2.46-2.6,5.13-4.33,7.71-1.06,1.58-2.24,3.35-3.23,5.23h0Z" style="fill: #fff;"/>
      </g>
    </g>
    <polygon points="359.81 77.13 332.94 77.13 326.94 77.13 326.94 83.13 326.94 120.34 297.14 120.34 297.14 83.13 297.14 77.13 291.14 77.13 264.27 77.13 258.27 77.13 258.27 83.13 258.27 193.44 258.27 199.44 264.27 199.44 291.14 199.44 297.14 199.44 297.14 193.44 297.14 154.03 326.94 154.03 326.94 193.44 326.94 199.44 332.94 199.44 359.81 199.44 365.81 199.44 365.81 193.44 365.81 83.13 365.81 77.13 359.81 77.13" style="fill: #380505;"/>
    <g>
      <polygon points="324.12 189.54 324.12 144.13 288.33 144.13 288.33 189.54 255.46 189.54 255.46 73.24 288.33 73.24 288.33 116.45 324.12 116.45 324.12 73.24 356.99 73.24 356.99 189.54 324.12 189.54" style="fill: #b29c47;"/>
      <path d="m353.99,76.24v110.31h-26.87v-45.41h-41.8v45.41h-26.87v-110.31h26.87v43.21h41.8v-43.21h26.87m6-6h-38.87v43.21h-29.8v-43.21h-38.87v122.31h38.87v-45.41h29.8v45.41h38.87v-122.31h0Z" style="fill: #fff;"/>
    </g>
    <path d="m178.79,148.63h-3.76l-1.64,3.39c-4.59,9.5-12.82,11.49-18.91,11.49-14.35,0-23.27-10.5-23.27-27.4s8.92-27.4,23.27-27.4c6.09,0,14.31,1.99,18.91,11.49l1.64,3.39h42.63l-1.98-7.53c-7.33-27.85-30.65-45.15-60.87-45.15-18.17,0-34.61,6.52-46.29,18.36-11.66,11.82-18.08,28.45-18.08,46.83s6.42,34.98,18.09,46.76c11.67,11.78,28.1,18.27,46.28,18.27,30.24,0,53.56-17.24,60.87-44.99l1.98-7.53h-38.87Z" style="fill: #380505;"/>
    <g>
      <path d="m150.49,191.63c-17.37,0-33.05-6.17-44.15-17.38-11.1-11.21-17.22-27.07-17.22-44.65s6.11-33.47,17.21-44.73c11.11-11.27,26.79-17.47,44.16-17.47,28.79,0,51,16.44,57.96,42.91l.99,3.76h-36.86l-.82-1.69c-4.17-8.63-11.64-13.19-21.61-13.19-15.96,0-26.27,11.93-26.27,30.4s10.31,30.4,26.27,30.4c9.96,0,17.44-4.56,21.61-13.19l.82-1.69h36.86l-.99,3.76c-6.94,26.37-29.15,42.75-57.96,42.75Z" style="fill: #b29c47;"/>
      <path d="m150.49,70.4c27.61,0,48.45,15.54,55.06,40.68h-31.09c-4.8-9.92-13.56-14.88-24.31-14.88-17.36,0-29.27,12.9-29.27,33.4s11.91,33.4,29.27,33.4c10.75,0,19.51-4.96,24.31-14.88h31.09c-6.61,25.13-27.45,40.51-55.06,40.51-34.23,0-58.37-24.31-58.37-59.03s24.14-59.2,58.37-59.2m0-6c-18.17,0-34.61,6.52-46.29,18.36-11.66,11.82-18.08,28.45-18.08,46.83s6.42,34.98,18.09,46.76c11.67,11.78,28.1,18.27,46.28,18.27,30.24,0,53.56-17.24,60.87-44.99l1.98-7.53h-42.63l-1.64,3.39c-4.59,9.5-12.82,11.49-18.91,11.49-14.35,0-23.27-10.5-23.27-27.4s8.92-27.4,23.27-27.4c6.09,0,14.31,1.99,18.91,11.49l1.64,3.39h42.63l-1.98-7.53c-7.33-27.85-30.65-45.15-60.87-45.15h0Z" style="fill: #fff;"/>
    </g>
    <g>
      <polygon points="70.61 189.79 201.5 72.1 230.38 72.1 99.49 189.79 70.61 189.79" style="fill: #b29c47;"/>
      <path d="m221.25,75.6l-123.11,110.68h-18.41l123.11-110.68h18.41m18.26-7h-39.35l-2,1.79-123.11,110.68-13.58,12.21h39.35l2-1.79,123.11-110.68,13.58-12.21h0Z" style="fill: #7e1112;"/>
    </g>

    <g id="sheen">
      <g style="clip-path: url(#clippath);">
        <g id="sheen-lines" style="opacity: .1;">
          <polygon points="502.59 287.6 -41.22 476.89 -41.22 368.47 502.59 179.17 502.59 287.6" style="fill: #fff;"/>
          <polygon points="502.59 150.37 -41.22 339.67 -41.22 277.39 502.59 88.09 502.59 150.37" style="fill: #fff;"/>
        </g>
      </g>
    </g>
  </g>
</svg>