<?xml version="1.0" encoding="UTF-8"?>
<svg xmlns="http://www.w3.org/2000/svg" viewBox="0 0 467.23 573.4">
  <defs>
    <style>
      @keyframes shine {
        0% { opacity: .1; transform: translate(0, -1000px) }
        50% { opacity: .1; transform: translate(0, 1000px) }
        51% { opacity: 0; transform: translate(0, -1000px) }
        100% { opacity: 0; transform: translate(0, -1000px) }
      }
      #sheen-lines {
        transform: translate(0, -1000px);
        animation-name: shine;
        animation-duration: 4s;
        animation-iteration-count: infinite;
        animation-fill-mode: forwards;
        animation-delay: 1s;
        transform-origin: center;
        transform-box: fill-box;
      }
    </style>
      <clipPath id="clippath">
        <rect x="-38.46" y="67" width="545.28" height="439.3" rx="10.64" ry="10.64" transform="translate(520.83 52.47) rotate(90)" style="fill: none;"/>
      </clipPath>
  </defs>
  <g id="card">
    <rect x="7.53" y="7.01" width="453.3" height="559.28" rx="17.64" ry="17.64" style="fill: #7e1112; stroke: #b29c47; stroke-miterlimit: 10; stroke-width: 9.95px;"/>
  </g>
  <g id="shay">
    <g>
      <g>
        <path d="m282.02,264.91c-3.72-2.66-19.61-17.1-22.33-20.09-.58-1.78-.82-6.86-.71-15.11.01-.97.02-1.82.02-2.48,0-5.61-4.99-13.92-7.13-17.23l-.62-.95-.93-.65c-1.57-1.12-4.87-4.36-4.87-7.15,0-2.13.46-3.94.95-5.85.84-3.28,1.88-7.37-.58-11.67-2.15-3.76-11.05-9.41-18.14-13.49-4.68-2.69-16.38-9.12-24.05-10.73-6.68-1.41-19.43-2.03-29.11-2.03-12.1,0-20.03.82-23.57,2.43-12.86,5.85-18.85,7.39-20.22,7.39-10.95,0-15.54,4.55-16.34,9.28-.87.48-2.35,1.11-3.41,1.55-2.4,1.01-5.12,2.15-7.41,3.87-3.4,2.55-6.83,7.36-10.14,12.01-1.75,2.45-3.56,4.99-4.59,6.03-3.08,3.08-3.72,8.36-4.52,15.04-.54,4.5-1.21,10.1-2.69,12.84-.63,1.17-1.33,2.27-2.07,3.43-3.53,5.55-7.91,12.47-2.09,25.85,5.94,13.67,18.8,34.56,25.16,42.08,2.78,3.29,3.91,5.81,5.09,8.48,1.21,2.72,2.46,5.53,5.16,8.57,5.39,6.06,6.89,10.12,6.79,11.2-.95,2.58-.97,5.42-.99,8.42-.03,3.67-.05,7.47-1.83,9.44-3.31,3.68-7.24,8.65-9.73,11.86-1.34-.31-2.85-.54-4.34-.54-6.3,0-9,4.14-9.39,7.69-.3,2.67-1.22,5.99-1.91,8.17-4.78,3-10.08,6.14-11.51,6.73-4.96,1.39-5.38,6.77-5.82,12.47-.16,2-.42,5.31-.83,6.38-1.42,2.16-6.21,9.95-10.55,17.55-9.51,16.64-9.51,19.3-9.51,21.06v5.73h171.19l-3.14-7.86c-1.44-3.6-2.98-8.6-2.98-10.29,0-3.56-1.97-6.53-3.7-8.83.86-.74,1.72-1.55,2.46-2.46,3.03-3.73,2.33-7.43.66-9.66-.57-.76-1.29-1.48-2.13-2.32-.94-.95-3.75-3.77-3.97-5.08,1.95-2.78,3.72-6.77,5.6-10.98,1.23-2.75,3.23-7.23,4.33-8.71,4.41-2.15,4.72-7.63,4.97-12.09.11-1.89.3-5.36.88-6.44,2.71-2.09,16.25-7.04,22.82-9.44,5.66-2.07,8.95-3.28,10.65-4.13.71-.36,2.42-.91,3.92-1.39,5.63-1.82,12.64-4.08,15.12-9.46,1.13-2.46,1.16-5.15.06-7.77-.6-1.43-1.23-2.86-1.84-4.25-.7-1.58-1.62-3.66-2.24-5.29,2.69-1.4,5.8-3.04,5.99-3.14l1.72-.91.81-1.76c.36-.77,2.01-4.81-.2-8.78-.35-.64-.84-1.32-1.51-1.98,1.06-1.25,1.69-2.74,1.83-4.38.3-3.75-2.02-7.13-6.89-10.05-.4-.24-.75-.47-1.06-.68,3.86-2.26,8.56-6.32,9.08-11.46.32-3.15-1.02-6.04-3.68-7.94Z" style="fill: #380505;"/>
        <path d="m366.41,433.59c-1.89-6.16-3.42-13.04-3.32-14.95,1.55-5.97,4.7-42.94,4.7-48.3v-.69c0-6.17.01-11.05-4.74-19.15-3.75-6.4-9.18-7.65-12.52-8.06-.58-1.63-1.56-3.18-2.91-4.56-2.87-2.93-7.08-4.79-11.49-5.11-1.84-3.83-5.23-7.91-10.8-9.3-1.37-.34-2.72-.52-4-.52-4.07,0-6.98,1.67-8.89,3.61-.19-.86-.36-2.03-.47-3.59-.12-1.65-.24-3.44-.36-5.34-.52-7.84-1.16-17.61-2.32-25.41-.94-6.32-2.69-18.08-10.94-18.08-.55,0-1.11.06-1.65.18-6.5.91-7.51,10.97-8,15.92-.82,8.21.26,25.73,1.05,38.52.33,5.35.62,9.97.62,11.74,0,5.27,2.64,39.27,7.31,49.29,1.62,3.47,3.04,7.6,4.41,11.6,2.16,6.27,3.61,10.34,5.61,12.93.89,2.36,1.45,11.9,1.21,20.8l-.16,5.89h5.89s46.31,0,46.31,0h7.76l-2.28-7.42Z" style="fill: #380505;"/>
      </g>
      <g>
        <g>
          <path d="m52.19,430.35v-2.87c0-6.11,19.48-36.87,19.68-37.17.69-1.03,1.01-5.14,1.2-7.6.42-5.33.72-9.18,3.88-9.97,1.25-.39,7.55-4.13,12.99-7.57.61-1.84,1.96-6.15,2.36-9.73.13-1.21,1-5.14,6.55-5.14,1.92,0,3.96.49,5.44.94,2.22-2.9,6.92-8.94,10.75-13.21,2.5-2.78,2.53-7.32,2.56-11.33.02-2.77.04-5.39.84-7.52.75-2.01-1.23-7.13-7.36-14.03-2.4-2.7-3.56-5.31-4.69-7.83-1.22-2.73-2.48-5.56-5.52-9.16-6.24-7.37-18.87-27.91-24.72-41.37-5.21-11.99-1.6-17.67,1.89-23.17.73-1.16,1.49-2.35,2.17-3.61,1.73-3.22,2.41-8.87,3.01-13.85.74-6.13,1.32-10.97,3.7-13.36,1.2-1.2,3-3.72,4.9-6.39,3.19-4.47,6.48-9.1,9.53-11.38,2-1.5,4.44-2.53,6.8-3.52,1.76-.74,4.7-1.97,5.06-2.75-.02-4.82,5.19-7.86,13.58-7.86,2.82,0,11.02-2.93,21.4-7.65,3.94-1.79,14.35-2.17,22.38-2.17,11.45,0,22.92.79,28.52,1.97,11.21,2.36,37.41,17.78,40.3,22.84,1.88,3.3,1.07,6.47.29,9.54-.51,2-1.04,4.07-1.04,6.56,0,4.29,4.41,8.32,6.11,9.51l.46.32.31.47c1.11,1.72,6.67,10.57,6.67,15.67,0,.65-.01,1.48-.02,2.44-.13,9.75.24,15.37,1.11,16.69,2.04,2.55,19.35,18.19,23.13,20.89,1.83,1.3,2.71,3.19,2.5,5.32-.47,4.62-6.1,8.73-9.78,10.36-.71.32-1.01.58-1.11.7.13.43,1.04,1.9,4.25,3.82,1.44.86,5.81,3.49,5.5,7.36-.1,1.2-.75,3.41-4.03,4.72-.08.03-.17.07-.25.12,2.46.69,3.7,2.04,4.32,3.16,1.57,2.82.26,5.85.1,6.19l-.41.88-.86.45c-.24.13-5.35,2.82-8.11,4.24.35,1.73,1.96,5.37,3.08,7.89.61,1.38,1.24,2.8,1.82,4.19.78,1.86.77,3.76-.02,5.47-1.95,4.24-8.04,6.2-13.4,7.93-1.75.57-3.41,1.1-4.32,1.55-1.63.82-5.48,2.22-10.35,4-7.59,2.77-21.71,7.94-23.92,10.14-1.26,1.26-1.49,5.31-1.65,8.27-.25,4.44-.49,8.64-3.83,9.88-1.24.99-3.73,6.57-5.23,9.92-1.75,3.91-3.55,7.96-5.34,10.52-1.51,2.16.52,4.94,4.29,8.73.79.8,1.42,1.43,1.87,2.02,2.81,3.75-1.59,7.33-3.95,9.26-.24.2-.54.44-.82.67.3.43.68.92.98,1.3,1.69,2.19,3.8,4.92,3.8,7.99,0,2.48,1.95,8.28,3.18,11.36l1.57,3.93H52.19Z" style="fill: #b29c47;"/>
          <path d="m170.56,153.95c10.64,0,22.27.72,27.93,1.91,10.73,2.26,36.14,17.51,38.4,21.46,2.26,3.95-1.13,7.91-1.13,14.68s7.34,11.86,7.34,11.86c0,0,6.21,9.6,6.21,14.12s-.56,18.07,1.69,20.89c2.26,2.82,19.76,18.64,23.72,21.46,3.95,2.82-1.69,8.47-6.78,10.73-5.08,2.26-2.82,6.21,2.82,9.6,5.65,3.39,4.71,5.84,1.88,6.96-2.82,1.13-4.91,4.84-1.32,5.27,6.21.75,3.95,5.65,3.95,5.65,0,0-6.78,3.58-9.04,4.71s1.69,8.47,4.52,15.25c2.82,6.78-11.86,9.04-16.38,11.29-4.52,2.26-31.06,10.73-35.01,14.68-3.95,3.95-1.13,16.38-4.52,17.51-3.39,1.13-7.91,15.81-11.86,21.46-3.95,5.65,4.52,11.86,6.21,14.12,1.69,2.26-4.52,5.65-5.65,7.34-1.13,1.69,5.08,6.21,5.08,10.16s3.39,12.42,3.39,12.42H55.06c0-4.52,16.94-32.19,19.2-35.58,2.26-3.39,1.13-15.81,3.39-16.38,2.26-.56,14.68-8.47,14.68-8.47,0,0,2.26-6.21,2.82-11.29.22-1.99,1.83-2.59,3.7-2.59,2.91,0,6.47,1.46,6.47,1.46,0,0,6.78-9.04,11.86-14.68,5.08-5.65,2.26-15.25,3.95-19.76,1.69-4.52-3.39-11.86-7.91-16.94-4.52-5.08-3.95-9.6-10.16-16.94-6.21-7.34-18.64-27.67-24.28-40.66-5.65-12.99,0-16.94,3.95-24.28,3.95-7.34,2.82-23.15,6.21-26.54,3.39-3.39,9.6-14.12,14.12-17.51,4.52-3.39,12.99-4.52,12.99-8.47s6.21-5.08,10.73-5.08,16.38-5.08,22.59-7.91c2.94-1.33,11.67-1.91,21.2-1.91m0-5.73c-12.1,0-20.03.82-23.57,2.43-12.86,5.85-18.85,7.39-20.22,7.39-10.95,0-15.54,4.55-16.34,9.28-.87.48-2.35,1.11-3.41,1.55-2.4,1.01-5.12,2.15-7.41,3.87-3.4,2.55-6.83,7.36-10.14,12.01-1.75,2.45-3.56,4.99-4.59,6.03-3.08,3.08-3.72,8.36-4.52,15.04-.54,4.5-1.21,10.09-2.69,12.84-.63,1.17-1.33,2.27-2.07,3.43-3.53,5.55-7.91,12.47-2.1,25.85,5.94,13.67,18.8,34.56,25.16,42.08,2.78,3.29,3.91,5.81,5.09,8.48,1.21,2.72,2.46,5.53,5.16,8.57,5.39,6.06,6.89,10.12,6.79,11.2-.95,2.58-.97,5.42-.99,8.42-.03,3.67-.05,7.47-1.83,9.44-3.31,3.68-7.24,8.65-9.73,11.86-1.34-.31-2.85-.54-4.34-.54-6.3,0-9,4.14-9.39,7.69-.31,2.81-1.27,6.16-1.91,8.17-4.78,3-10.08,6.14-11.5,6.72-4.96,1.39-5.38,6.77-5.82,12.47-.16,2-.42,5.31-.83,6.38-1.42,2.16-6.21,9.95-10.55,17.55-9.51,16.64-9.51,19.3-9.51,21.06v5.73h171.19l-3.14-7.86c-1.44-3.6-2.98-8.6-2.98-10.29,0-3.56-1.97-6.53-3.7-8.83.86-.74,1.72-1.55,2.46-2.45,3.03-3.73,2.33-7.43.66-9.66-.57-.76-1.29-1.48-2.13-2.33-.94-.95-3.75-3.77-3.97-5.08,1.95-2.78,3.72-6.77,5.6-10.98,1.23-2.75,3.23-7.23,4.33-8.71,4.41-2.15,4.72-7.63,4.97-12.09.11-1.89.3-5.36.88-6.44,2.71-2.09,16.25-7.04,22.82-9.44,5.66-2.07,8.95-3.28,10.65-4.13.71-.36,2.42-.91,3.92-1.39,5.63-1.82,12.64-4.08,15.12-9.46,1.13-2.46,1.16-5.15.06-7.77-.6-1.43-1.23-2.86-1.84-4.25-.7-1.58-1.62-3.67-2.24-5.29,2.69-1.4,5.8-3.04,5.99-3.14l1.72-.91.81-1.76c.36-.77,2.01-4.81-.2-8.78-.35-.64-.84-1.32-1.51-1.98,1.06-1.25,1.69-2.74,1.83-4.38.3-3.75-2.02-7.13-6.89-10.05-.4-.24-.75-.47-1.06-.68,3.86-2.26,8.56-6.32,9.08-11.46.32-3.15-1.02-6.04-3.68-7.94-3.72-2.66-19.61-17.1-22.33-20.09-.58-1.78-.82-6.86-.71-15.12.01-.97.02-1.82.02-2.48,0-5.61-4.99-13.92-7.13-17.23l-.62-.95-.93-.65c-1.57-1.12-4.87-4.36-4.87-7.15,0-2.13.46-3.94.95-5.85.84-3.28,1.88-7.37-.58-11.67-2.15-3.76-11.05-9.41-18.14-13.49-4.68-2.69-16.38-9.12-24.05-10.73-6.68-1.41-19.43-2.03-29.11-2.03h0Z" style="fill: #fff;"/>
        </g>
        <g>
          <path d="m307.64,429.5l.08-2.94c.25-9.29-.34-20.51-1.62-22.4-1.89-2.26-3.42-6.71-5.35-12.34-1.33-3.88-2.84-8.27-4.53-11.88-4.23-9.07-7.04-41.7-7.04-48.08,0-1.86-.29-6.52-.62-11.92-.78-12.7-1.86-30.08-1.06-38.06.64-6.38,1.81-12.89,5.64-13.38.38-.1.77-.15,1.16-.15,6.64,0,8.51,12.03,10.41,40.81.13,1.91.25,3.71.36,5.36.41,5.73,1.76,7.82,2.57,7.82.4,0,.93-.23,1.34-.48,1.13-2.06,3.77-4.7,8.32-4.7,1.05,0,2.16.15,3.31.43,5.77,1.44,8.43,6.28,9.57,9.35.19,0,.38,0,.57,0,4.13,0,8.17,1.61,10.81,4.3,1.52,1.55,2.44,3.36,2.65,5.19.26.03.55.06.8.08,2.81.28,8.04.79,11.55,6.79,4.36,7.43,4.35,11.74,4.35,17.7v.69c0,6.18-3.36,43.86-4.67,47.78-.43,1.73,1.42,9.84,3.41,16.32l1.14,3.71h-53.13Z" style="fill: #b29c47;"/>
          <path d="m294.3,271.22c5.65,0,6.82,28.27,7.91,43.51.61,8.51,3.18,10.48,5.43,10.48,1.92,0,3.61-1.44,3.61-1.44,0,0,1.38-3.73,6.05-3.73.78,0,1.65.1,2.61.35,6.78,1.69,8.19,9.69,8.19,9.69.89-.18,1.77-.27,2.64-.27,5.8,0,10.71,3.83,10.63,7.52-.09,4.07,7.91-.75,12.71,7.44,4.12,7.03,3.95,10.73,3.95,16.94s-3.39,43.48-4.52,46.87c-1.13,3.39,3.39,18.07,3.39,18.07h-46.31s.56-20.89-2.26-24.28c-2.82-3.39-5.55-15.15-9.51-23.62s-6.78-40.66-6.78-46.87-2.82-38.4-1.69-49.69c1.04-10.43,2.97-10.83,3.26-10.83.02,0,.04,0,.04,0,.22-.08.44-.12.65-.12m0-5.73c-.55,0-1.11.06-1.65.18-6.5.91-7.51,10.97-8,15.92-.82,8.21.26,25.73,1.05,38.52.33,5.35.62,9.97.62,11.74,0,5.27,2.64,39.27,7.31,49.29,1.62,3.47,3.04,7.6,4.41,11.6,2.16,6.27,3.61,10.34,5.61,12.93.89,2.36,1.45,11.9,1.21,20.8l-.16,5.89h5.89s46.31,0,46.31,0h7.76l-2.28-7.42c-1.89-6.16-3.42-13.04-3.32-14.95,1.55-5.97,4.7-42.94,4.7-48.3v-.69c0-6.17.01-11.05-4.74-19.15-3.75-6.4-9.18-7.65-12.52-8.06-.58-1.63-1.56-3.18-2.91-4.56-2.87-2.93-7.08-4.79-11.49-5.11-1.84-3.83-5.23-7.91-10.8-9.3-1.37-.34-2.72-.52-4-.52-4.07,0-6.98,1.67-8.89,3.61-.19-.86-.36-2.03-.47-3.59-.12-1.65-.24-3.44-.36-5.34-.52-7.84-1.16-17.61-2.32-25.41-.94-6.32-2.69-18.08-10.94-18.08h0Z" style="fill: #fff;"/>
        </g>
      </g>
    </g>
    <g>
      <g>
        <polygon points="344.21 147.27 343.06 142.76 338.4 142.76 315.6 142.76 310.96 142.76 309.79 147.24 287.72 231.96 285.76 239.47 293.52 239.47 314.88 239.47 319.67 239.47 320.73 234.8 322.91 225.19 330.73 225.19 332.91 234.8 333.97 239.47 338.76 239.47 360.12 239.47 367.85 239.47 365.93 231.98 344.21 147.27" style="fill: #380505;"/>
        <polygon points="418.68 142.76 396.96 142.76 392.62 142.76 391.26 146.88 386.71 160.7 382.27 146.92 380.93 142.76 376.56 142.76 354.6 142.76 345.85 142.76 349.01 150.92 369.96 205.07 369.96 233.47 369.96 239.47 375.96 239.47 397.32 239.47 403.32 239.47 403.32 233.47 403.32 205.07 424.27 150.92 427.43 142.76 418.68 142.76" style="fill: #380505;"/>
      </g>
      <g>
        <path d="m313.06,143.59h22.8l21.72,84.72h-21.36l-3.24-14.28h-17.4l-3.24,14.28h-21.36l22.08-84.72Zm15.84,52.08l-4.44-23.88-4.8,23.88h9.24Z" style="fill: #b29c47; stroke: #fff; stroke-miterlimit: 10; stroke-width: 6px;"/>
        <path d="m373.42,198.79l-21.36-55.2h21.96l10.08,31.32,10.32-31.32h21.72l-21.36,55.2v29.52h-21.36v-29.52Z" style="fill: #b29c47; stroke: #fff; stroke-miterlimit: 10; stroke-width: 6px;"/>
      </g>
    </g>

    <g id="sheen">
      <g style="clip-path: url(#clippath);">
        <g id="sheen-lines" style="opacity: .1;">
          <polygon points="502.59 287.6 -41.22 476.89 -41.22 368.47 502.59 179.17 502.59 287.6" style="fill: #fff;"/>
          <polygon points="502.59 150.37 -41.22 339.67 -41.22 277.39 502.59 88.09 502.59 150.37" style="fill: #fff;"/>
        </g>
      </g>
    </g>
  </g>
</svg>