<?xml version="1.0" encoding="UTF-8"?>
<svg xmlns="http://www.w3.org/2000/svg" viewBox="0 0 467.23 573.4">
  <defs>
    <style>
      @keyframes shine {
        0% { opacity: .1; transform: translate(0, -1000px) }
        50% { opacity: .1; transform: translate(0, 1000px) }
        51% { opacity: 0; transform: translate(0, -1000px) }
        100% { opacity: 0; transform: translate(0, -1000px) }
      }
      #sheen-lines {
        transform: translate(0, -1000px);
        animation-name: shine;
        animation-duration: 4s;
        animation-iteration-count: infinite;
        animation-fill-mode: forwards;
        animation-delay: 1s;
        transform-origin: center;
        transform-box: fill-box;
      }
    </style>
      <clipPath id="clippath">
        <rect x="-38.46" y="67" width="545.28" height="439.3" rx="10.64" ry="10.64" transform="translate(520.83 52.47) rotate(90)" style="fill: none;"/>
      </clipPath>
  </defs>
  <g id="card">
    <rect x="7.53" y="7.01" width="453.3" height="559.28" rx="17.64" ry="17.64" style="fill: #7e1112; stroke: #b29c47; stroke-miterlimit: 10; stroke-width: 9.95px;"/>
  </g>
  <g id="jo">
    <g>
      <g>
        <path d="m139.63,132.63c0-7.59-2.68-13.71-7.8-17.93,4.57-4.01,6.96-9.8,6.96-16.99v-1.2c0-16.32-12.24-26.87-31.19-26.87h-29.27v90.45h30.1c19.24,0,31.19-10.11,31.19-26.38v-1.08Zm-27.81-31.68c0,1.34,0,3.01-5.05,3.01h-1.45v-8.19h1.45c5.05,0,5.05,1.53,5.05,3.01v2.16Zm.84,28.08v2.16c0,1.34,0,3.01-5.05,3.01h-2.29v-8.19h2.29c4.71,0,5.05,1.14,5.05,3.01Z" style="fill: #380505;"/>
        <path d="m160.83,69.65l-23.57,90.45h27.36l3.24-14.28h12.82l3.24,14.28h27.34l-23.19-90.45h-27.24Zm14.61,52.08h-2.29l1.19-5.92,1.1,5.92Z" style="fill: #380505;"/>
        <polygon points="248.14 69.65 248.14 96.37 237.47 69.65 212.5 69.65 212.5 160.1 239.59 160.1 239.59 133.53 250.27 160.1 275.23 160.1 275.23 69.65 248.14 69.65" style="fill: #380505;"/>
      </g>
      <g>
        <path d="m74.43,65.09h26.4c16.68,0,28.32,8.52,28.32,24v1.2c0,8.28-3.36,13.8-9.12,17.04,6.12,3.36,9.96,9.12,9.96,17.88v1.08c0,15.36-11.64,23.52-28.32,23.52h-27.24v-84.72Zm25.56,34.32c3.36,0,7.92-.6,7.92-5.88v-2.16c0-5.16-4.2-5.88-7.92-5.88h-4.32v13.92h4.32Zm.84,30.24c3.36,0,7.92-.6,7.92-5.88v-2.16c0-5.28-4.2-5.88-7.92-5.88h-5.16v13.92h5.16Z" style="fill: #b29c47; stroke: #fff; stroke-miterlimit: 10; stroke-width: 5.73px;"/>
        <path d="m156.27,65.09h22.8l21.72,84.72h-21.36l-3.24-14.28h-17.4l-3.24,14.28h-21.36l22.08-84.72Zm15.84,52.08l-4.44-23.88-4.8,23.88h9.24Z" style="fill: #b29c47; stroke: #fff; stroke-miterlimit: 10; stroke-width: 5.73px;"/>
        <path d="m208.59,65.09h20.16l15.48,38.76v-38.76h21.36v84.72h-20.16l-15.48-38.52v38.52h-21.36v-84.72Z" style="fill: #b29c47; stroke: #fff; stroke-miterlimit: 10; stroke-width: 5.73px;"/>
      </g>
      <g>
        <polygon points="81.22 171.89 236.97 46.09 263.25 46.09 107.5 171.89 81.22 171.89" style="fill: #b29c47;"/>
        <path d="m256.25,48.56l-149.62,120.85h-18.41L237.84,48.56h18.41m14-4.95h-34.16l-1.36,1.1-149.62,120.85-10.89,8.8h34.16l1.36-1.1,149.62-120.85,10.89-8.8h0Z" style="fill: #7e1112;"/>
      </g>
    </g>
    <g>
      <path d="m429.65,133.53c-.48-1.76-1.61-3.22-3.19-4.13l-11.1-6.37c-1.58-.91-3.42-1.14-5.17-.67-.84.23-1.61.6-2.28,1.1l-1.73-.99c.35-4.44-1.29-8.73-4.83-12.51-2.73-2.92-5.77-4.61-6.3-4.9l-18.71-10.74c-.52-.32-3.5-2.08-7.4-2.97-5.05-1.15-9.58-.4-13.24,2.14l-1.56-.9c.09-.84.03-1.69-.2-2.53-.48-1.76-1.61-3.22-3.19-4.13l-11.1-6.37c-1.58-.91-3.42-1.14-5.17-.67-1.76.48-3.22,1.61-4.13,3.19l-2.49,4.34c-1.87,3.26-.74,7.43,2.52,9.3l11.1,6.37c1.58.91,3.42,1.15,5.17.67.84-.23,1.61-.6,2.28-1.1l.44.25c-1.17,3.83-.36,7.72.37,11.22.66,3.21,1.24,5.98.19,7.8-1.63,2.83-5.28,4.77-8.81,6.65-1.25.66-2.46,1.31-3.57,1.98l-.52-.3c.09-.84.03-1.69-.2-2.53-.48-1.76-1.61-3.22-3.19-4.13l-11.1-6.37c-1.58-.91-3.41-1.14-5.17-.67-1.76.48-3.22,1.61-4.13,3.19l-2.49,4.34c-.91,1.58-1.14,3.42-.67,5.17.48,1.76,1.61,3.22,3.19,4.13l11.1,6.37c1.58.91,3.42,1.14,5.17.67.66-.18,1.29-.45,1.85-.81-.36,3.26.21,7.14,1.66,10.95,1.43,3.74,5.5,7.79,12.14,12.05l-.11.11,6.29,3.56.03-.03c7.61,4.05,13.61,5.73,17.76,5.05,3.86-.64,7.36-2.01,9.96-3.85.02.53.1,1.06.24,1.58.48,1.76,1.61,3.22,3.19,4.13l11.1,6.37c1.28.74,2.74,1.03,4.18.86.33-.04.66-.1.99-.19,1.76-.48,3.22-1.61,4.13-3.19l2.49-4.34c1.87-3.26.74-7.43-2.52-9.3l-11.1-6.37c-1.58-.91-3.41-1.14-5.17-.67-.84.23-1.61.6-2.28,1.1l-.19-.11c.02-1.3-.03-2.67-.09-4.08-.16-4-.33-8.13,1.3-10.97,1.05-1.82,3.73-2.72,6.83-3.77,3.4-1.14,7.16-2.41,9.88-5.34l.61.35c-.28,2.61.96,5.27,3.38,6.66l11.1,6.37c3.26,1.87,7.43.74,9.3-2.52l2.49-4.34c.91-1.58,1.14-3.42.67-5.17Z" style="fill: #380505;"/>
      <g>
        <path d="m240.2,357.7c-14.21-8.16-30.75-10.29-46.56-6.01-15.81,4.28-29.02,14.46-37.17,28.67-16.84,29.33-6.67,66.89,22.67,83.73,11.85,6.8,25.04,9.2,37.67,7.7,18.63-2.21,36.03-12.88,46.06-30.36,16.84-29.33,6.67-66.9-22.67-83.73Zm-7.16,66.61c-3.58,6.24-9.38,10.71-16.33,12.6-6.95,1.88-14.21.94-20.45-2.64-6.24-3.58-10.72-9.38-12.6-16.33-1.88-6.95-.94-14.21,2.64-20.45,4.41-7.68,12.05-12.37,20.23-13.34,5.55-.66,11.34.4,16.55,3.38,12.89,7.4,17.35,23.9,9.96,36.78Z" style="fill: #380505;"/>
        <path d="m316.07,382.07c-7.71-28.47-26-52.21-51.51-66.85-20.66-11.86-44.09-16.65-67.74-13.85-16.75,1.98-33.07,7.86-47.19,16.99-14.6,9.45-26.92,22.45-35.62,37.61-30.27,52.74-11.99,120.28,40.75,150.55,20.66,11.86,44.09,16.65,67.74,13.85,16.75-1.98,33.07-7.86,47.19-16.99,14.61-9.45,26.92-22.45,35.62-37.6,14.64-25.51,18.46-55.24,10.76-83.7Zm-46.75,63.04c-5.42,9.45-13.11,17.56-22.22,23.45-8.81,5.7-18.98,9.36-29.43,10.6-14.75,1.75-29.36-1.24-42.25-8.64-32.89-18.88-44.29-61-25.42-93.89,5.43-9.45,13.11-17.56,22.22-23.45,8.81-5.7,18.98-9.36,29.43-10.6,14.75-1.75,29.36,1.24,42.25,8.63,15.91,9.13,27.32,23.94,32.12,41.69s2.42,36.29-6.71,52.2Z" style="fill: #380505;"/>
      </g>
      <path d="m231.34,351.32c-27.88-16-63.45-6.37-79.45,21.51-16,27.88-6.37,63.45,21.51,79.45,27.88,16,63.45,6.37,79.45-21.51s6.37-63.45-21.51-79.45Zm-43.95,76.57c-14.41-8.27-19.38-26.65-11.11-41.06,8.27-14.41,26.65-19.38,41.06-11.11,14.41,8.27,19.38,26.65,11.11,41.06s-26.65,19.38-41.06,11.11Z" style="fill: #b29c47; stroke: #fff; stroke-miterlimit: 10; stroke-width: 6.27px;"/>
      <g>
        <path d="m202.2,508.93c-18.6,0-36.98-4.91-53.16-14.2-24.79-14.23-42.56-37.29-50.04-64.95s-3.78-56.54,10.45-81.32c19.04-33.18,54.72-53.79,93.11-53.79,18.6,0,36.98,4.91,53.16,14.2,51.24,29.41,69,95.03,39.59,146.27-19.04,33.18-54.72,53.79-93.1,53.79h0Zm-8.51-13.33c2.82.26,5.67.39,8.51.39,2.99,0,6-.14,8.99-.43v-5.39c-2.99.3-5.98.45-8.96.45h0c-2.85,0-5.71-.14-8.56-.41v5.4Zm-45.59-16.8c2.4,1.69,4.87,3.27,7.39,4.71,2.52,1.44,5.13,2.79,7.79,4l2.68-4.67c-2.71-1.21-5.33-2.54-7.81-3.97-2.49-1.43-4.95-3.02-7.37-4.74l-2.68,4.67Zm93.52,8.6c5.33-2.43,10.41-5.35,15.18-8.71l-2.71-4.66c-4.75,3.39-9.83,6.3-15.18,8.71l2.71,4.67Zm-39.11-161.49c-27.2,0-52.47,14.6-65.96,38.11-10.08,17.55-12.7,38.01-7.4,57.61,5.3,19.59,17.89,35.93,35.45,46.01,11.46,6.58,24.48,10.06,37.65,10.06,27.2,0,52.47-14.6,65.96-38.1,20.83-36.3,8.25-82.78-28.05-103.61-11.46-6.58-24.48-10.06-37.65-10.06Zm-85.53,115.57c2.46,5.32,5.41,10.39,8.79,15.13l4.67-2.71c-3.42-4.73-6.36-9.8-8.8-15.13l-4.67,2.71Zm162.19,14.89c1.76-2.48,3.4-5.05,4.91-7.68,1.38-2.41,2.67-4.91,3.85-7.47l-4.67-2.68c-1.18,2.61-2.46,5.12-3.82,7.49-1.49,2.6-3.15,5.16-4.94,7.66l4.68,2.68Zm-170.63-62.78c-.5,5.81-.45,11.68.13,17.5h5.4c-.62-5.85-.67-11.71-.14-17.51h-5.39Zm182.21-.46c.58,5.83.58,11.69.01,17.5h5.4c.54-5.82.53-11.69-.02-17.51h-5.39Zm-169.55-27.43c1.25-2.81,2.62-5.53,4.12-8.13,1.36-2.38,2.89-4.75,4.54-7.08l-4.68-2.68c-1.62,2.31-3.13,4.69-4.51,7.1-1.51,2.63-2.9,5.35-4.15,8.11l4.68,2.68Zm28.97-35.76c4.73-3.43,9.79-6.38,15.12-8.82l-2.71-4.66c-5.31,2.47-10.38,5.42-15.12,8.81l2.71,4.67Z" style="fill: #b29c47;"/>
        <path d="m202.55,297.8c17.55,0,35.32,4.44,51.6,13.78,49.74,28.55,66.99,92.25,38.44,141.99-19.21,33.46-54.32,52.22-90.39,52.22-17.55,0-35.32-4.44-51.6-13.78-49.74-28.55-66.99-92.25-38.44-141.99,19.21-33.46,54.32-52.22,90.39-52.22m-53.31,36.77c6.3-4.97,13.22-8.98,20.53-11.98l-5.89-10.15c-7.26,3.12-14.17,7.12-20.54,11.97l5.9,10.16m53.01,146.25c27.41,0,54.09-14.25,68.68-39.68,21.69-37.8,8.59-86.2-29.2-107.89-12.37-7.1-25.87-10.47-39.21-10.47-27.41,0-54.09,14.25-68.68,39.68-21.69,37.8-8.59,86.2,29.21,107.89,12.37,7.1,25.87,10.47,39.21,10.47m-79.53-110.64c1.49-3.75,3.25-7.45,5.32-11.05,1.95-3.39,4.11-6.59,6.43-9.61l-10.18-5.84c-2.27,3.06-4.39,6.28-6.34,9.66-2.06,3.59-3.87,7.27-5.43,10.99l10.18,5.85m164.52,43.59l11.75-.03c.97-7.94.95-15.93-.02-23.77l-11.74.03c1.1,7.83,1.12,15.83.01,23.77m-181.35.46l11.74-.03c-1.15-7.82-1.24-15.82-.19-23.77l-11.73.03c-.92,7.95-.85,15.93.17,23.77m174.16,46.25c2.43-3.23,4.69-6.64,6.76-10.23,1.94-3.38,3.65-6.84,5.15-10.35l-10.18-5.84c-1.44,3.53-3.1,7.01-5.05,10.4-2.07,3.6-4.37,6.99-6.86,10.17l10.18,5.85m-155.13.25l10.16-5.9c-4.96-6.31-8.96-13.23-11.95-20.55l-10.15,5.89c3.11,7.27,7.1,14.18,11.94,20.55m115.4,30.66c7.28-3.07,14.21-7.03,20.61-11.84l-5.89-10.14c-6.33,4.92-13.28,8.88-20.62,11.83l5.9,10.15m-75.72.11l5.84-10.18c-3.64-1.47-7.23-3.18-10.73-5.19-3.5-2.01-6.79-4.24-9.89-6.65l-5.84,10.18c3.14,2.35,6.46,4.54,9.95,6.55,3.49,2,7.05,3.76,10.67,5.29m37.64-4.03c-3.89,0-7.8-.27-11.7-.8l.03,11.75c3.88.47,7.76.7,11.63.7,4.07,0,8.12-.25,12.14-.76l-.03-11.74c-3.99.57-8.02.85-12.07.85m.32-195.94c-19.1,0-37.98,4.97-54.6,14.37-17.14,9.69-31.39,23.87-41.22,41-14.64,25.51-18.46,55.24-10.76,83.7,7.71,28.47,26,52.21,51.51,66.85,16.66,9.56,35.58,14.62,54.73,14.62s37.98-4.97,54.6-14.37c17.14-9.69,31.39-23.87,41.22-40.99,14.64-25.51,18.46-55.24,10.76-83.7-7.71-28.47-26-52.21-51.51-66.85-16.66-9.56-35.58-14.62-54.72-14.62h0Zm-.31,183.02c-12.62,0-25.1-3.33-36.09-9.64-16.83-9.66-28.9-25.32-33.98-44.11-5.08-18.79-2.57-38.4,7.09-55.23,12.93-22.53,37.17-36.53,63.25-36.53,12.62,0,25.1,3.33,36.09,9.64,16.83,9.66,28.9,25.32,33.98,44.11,5.08,18.79,2.57,38.4-7.09,55.23-12.93,22.53-37.17,36.53-63.25,36.53h0Z" style="fill: #fff;"/>
      </g>
      <g>
        <rect x="254.98" y="132.62" width="6.18" height="281.64" transform="translate(170.25 -92.15) rotate(29.84)" style="fill: #fff;"/>
        <rect x="263.91" y="137.74" width="6.18" height="281.64" transform="translate(173.98 -95.92) rotate(29.84)" style="fill: #fff;"/>
        <rect x="272.84" y="142.86" width="6.18" height="281.64" transform="translate(177.71 -99.68) rotate(29.84)" style="fill: #fff;"/>
        <rect x="281.77" y="147.98" width="6.18" height="281.64" transform="translate(181.44 -103.44) rotate(29.84)" style="fill: #fff;"/>
      </g>
      <path d="m419.88,124.83l-11.1-6.37c-1.76-1.01-4.01-.4-5.03,1.36l-.2.35-5.82-3.34c2.43-10.3-9.22-16.31-9.22-16.31l-7.92-4.54-2.97-1.7-7.92-4.54s-11.07-7.03-18.74.27l-5.65-3.24.2-.35c1.01-1.76.4-4.01-1.36-5.03l-11.1-6.37c-1.76-1.01-4.01-.4-5.03,1.36l-2.49,4.34c-1.01,1.76-.4,4.01,1.36,5.03l11.1,6.37c1.76,1.01,4.01.4,5.03-1.36l.2-.35,5.12,2.94c-.06.1-.12.18-.18.28-3.98,6.93,2.85,15.67-.56,21.61-3.08,5.37-10.84,7.68-14.98,10.76l-4.43-2.54.2-.35c1.01-1.76.4-4.01-1.36-5.03l-11.1-6.37c-1.76-1.01-4.01-.4-5.03,1.36l-2.49,4.34c-1.01,1.76-.4,4.01,1.36,5.03l11.1,6.37c1.76,1.01,4.01.4,5.03-1.36l.2-.35,3.89,2.23c-1.2,3.24-.57,7.93.94,11.89,1.79,4.69,9.02,9.53,14.27,12.58h0c.05.03.11.06.17.1.05.03.11.06.16.1h0c5.28,3,13.11,6.8,18.06,5.98,4.18-.7,8.54-2.51,10.74-5.18l3.56,2.04-.2.35c-1.01,1.76-.4,4.01,1.36,5.03l11.1,6.37c1.76,1.01,4.01.4,5.03-1.36l2.49-4.34c1.01-1.76.4-4.01-1.36-5.03l-11.1-6.37c-1.76-1.01-4.01-.4-5.03,1.36l-.2.35-4.1-2.35c.57-5.12-1.35-12.99,1.73-18.36,3.41-5.94,14.4-4.46,18.38-11.38.06-.1.1-.2.16-.29l5.29,3.04-.2.35c-1.01,1.76-.4,4.01,1.36,5.03l11.1,6.37c1.76,1.01,4.01.4,5.03-1.36l2.49-4.34c1.01-1.76.4-4.01-1.36-5.03Z" style="fill: #b29c47; stroke: #fff; stroke-miterlimit: 10; stroke-width: 5.73px;"/>
    </g>

    <g id="sheen">
      <g style="clip-path: url(#clippath);">
        <g id="sheen-lines" style="opacity: .1;">
          <polygon points="502.59 287.6 -41.22 476.89 -41.22 368.47 502.59 179.17 502.59 287.6" style="fill: #fff;"/>
          <polygon points="502.59 150.37 -41.22 339.67 -41.22 277.39 502.59 88.09 502.59 150.37" style="fill: #fff;"/>
        </g>
      </g>
    </g>
  </g>
</svg>