<?xml version="1.0" encoding="UTF-8"?>
<svg xmlns="http://www.w3.org/2000/svg" viewBox="0 0 467.23 573.4">
  <defs>
    <style>
      @keyframes shine {
        0% { opacity: .1; transform: translate(0, -1000px) }
        50% { opacity: .1; transform: translate(0, 1000px) }
        51% { opacity: 0; transform: translate(0, -1000px) }
        100% { opacity: 0; transform: translate(0, -1000px) }
      }
      #sheen-lines {
        transform: translate(0, -1000px);
        animation-name: shine;
        animation-duration: 4s;
        animation-iteration-count: infinite;
        animation-fill-mode: forwards;
        animation-delay: 1s;
        transform-origin: center;
        transform-box: fill-box;
      }
    </style>
      <clipPath id="clippath">
        <rect x="-38.46" y="67" width="545.28" height="439.3" rx="10.64" ry="10.64" transform="translate(520.83 52.47) rotate(90)" style="fill: none;"/>
      </clipPath>
  </defs>
  <g id="card">
    <rect x="7.53" y="7.01" width="453.3" height="559.28" rx="17.64" ry="17.64" style="fill: #7e1112; stroke: #b29c47; stroke-miterlimit: 10; stroke-width: 9.95px;"/>
  </g>
  <g id="pee">
    <g>
      <polygon points="145.34 95.53 159.86 95.53 159.86 159.73 187.07 159.73 187.07 95.53 201.59 95.53 201.59 69.28 145.34 69.28 145.34 95.53" style="fill: #380505;"/>
      <polygon points="205.58 159.73 258.95 159.73 258.95 133.6 232.55 133.6 232.55 126.97 252.59 126.97 252.59 102.76 232.55 102.76 232.55 95.53 258.95 95.53 258.95 69.28 205.58 69.28 205.58 159.73" style="fill: #380505;"/>
      <polygon points="318.59 95.53 318.59 69.28 265.22 69.28 265.22 159.73 318.59 159.73 318.59 133.6 292.19 133.6 292.19 126.97 312.23 126.97 312.23 102.76 292.19 102.76 292.19 95.53 318.59 95.53" style="fill: #380505;"/>
    </g>
    <g>
      <path d="m160.28,85.61h-14.52v-20.52h50.52v20.52h-14.52v64.2h-21.48v-64.2Z" style="fill: #b29c47; stroke: #fff; stroke-miterlimit: 10; stroke-width: 5.73px;"/>
      <path d="m206,65.09h47.64v20.52h-26.4v12.96h20.04v18.48h-20.04v12.36h26.4v20.4h-47.64v-84.72Z" style="fill: #b29c47; stroke: #fff; stroke-miterlimit: 10; stroke-width: 5.73px;"/>
      <path d="m265.63,65.09h47.64v20.52h-26.4v12.96h20.04v18.48h-20.04v12.36h26.4v20.4h-47.64v-84.72Z" style="fill: #b29c47; stroke: #fff; stroke-miterlimit: 10; stroke-width: 5.73px;"/>
    </g>
    <g>
      <path d="m384.82,502.2l-132.96-250.34,26.81-50.86c2.73-4.67,1.24-10.71-3.39-13.56-1.58-.97-3.39-1.49-5.24-1.49-3.5,0-6.68,1.78-8.52,4.76-.19.32-.37.65-.53.98l-20.46,38.88-20.61-38.85c-1.63-3.55-5.17-5.82-9.09-5.82-1.35,0-2.66.27-3.91.8-2.46,1.04-4.36,2.98-5.37,5.46-1,2.48-.98,5.2.07,7.66.19.45.41.88.66,1.29l27.01,50.82-131.84,250.3-4.43,8.4h98.25l1.65-2.88,48.01-83.53,45.38,83.41,1.63,2.99h101.35l-4.47-8.42Z" style="fill: #380505;"/>
      <g>
        <path d="m282.57,500.94l-48.65-89.41-51.39,89.41h-91.85l134.76-255.84-27.76-52.24c-.2-.31-.37-.65-.51-.99-1.54-3.62.16-7.82,3.78-9.36.89-.38,1.83-.57,2.79-.57,2.82,0,5.37,1.65,6.52,4.22l23.2,43.72,23.02-43.74c.12-.26.25-.51.4-.75,1.31-2.13,3.58-3.4,6.08-3.4,1.32,0,2.61.37,3.74,1.06,3.32,2.05,4.38,6.39,2.39,9.73l-27.54,52.26,135.91,255.89h-94.88Zm-48.95-113.46l46.59-45.79-7.38-13.38-39.23,39.23-38.55-38.55-7.94,14.22,46.4,44.25.05-.05.06.06Zm28.5-79.47l-6.81-12.78-21.71,22.67-21.01-21.98-6.81,12.78,27.82,27.82,28.52-28.51Z" style="fill: #b29c47;"/>
        <path d="m203.74,184.8c1.66,0,3.24.98,3.93,2.6l25.79,48.61,25.59-48.61c.08-.18.17-.35.27-.51.81-1.31,2.21-2.03,3.64-2.03.76,0,1.54.21,2.24.64,2.01,1.24,2.63,3.87,1.4,5.88l-28.29,53.68,134.38,253.02h-88.4l-50.28-92.41-53.12,92.41h-85.44l133.25-252.98-28.52-53.68c-.14-.21-.26-.43-.35-.67-.92-2.17.09-4.68,2.26-5.6.54-.23,1.11-.34,1.67-.34m29.86,128.96l-21.68-22.68-9.67,18.15,31.3,31.3.05-.05.05.05,31.99-31.99-9.67-18.15-22.37,23.37m0,49.73l-39.2-39.2-10.87,19.47,50.03,47.72.04-.04.04.04,50.12-49.26-10.27-18.62-39.9,39.9m-29.86-184.42c-1.35,0-2.66.27-3.91.8-2.46,1.04-4.36,2.98-5.37,5.46-1,2.48-.98,5.2.07,7.66.19.45.41.88.66,1.29l27.01,50.82-131.84,250.3-4.43,8.4h98.25l1.65-2.88,48.01-83.53,45.38,83.41,1.63,2.99h101.35l-4.47-8.42-132.96-250.34,26.81-50.86c2.73-4.67,1.24-10.71-3.39-13.56-1.58-.97-3.39-1.49-5.24-1.49-3.5,0-6.68,1.78-8.52,4.76-.19.32-.37.65-.53.98l-20.46,38.88-20.61-38.85c-1.63-3.55-5.17-5.82-9.09-5.82h0Zm29.86,142.98l4.14-4.33,16.89-17.65,3.95,7.41-24.94,24.94-.05-.05-.04.04-24.25-24.25,3.95-7.41,16.2,16.95,4.14,4.33h0Zm0,49.54l4.05-4.05,34.5-34.5,4.48,8.13-42.97,42.23-.08-.08-.14.14-42.76-40.78,5.01-8.97,33.84,33.84,4.05,4.05h0Z" style="fill: #fff;"/>
      </g>
    </g>
    <g>
      <polygon points="143.75 170.76 299.5 44.96 325.78 44.96 170.03 170.76 143.75 170.76" style="fill: #b29c47;"/>
      <path d="m318.78,47.44l-149.62,120.85h-18.41l149.62-120.85h18.41m14-4.95h-34.16l-1.36,1.1-149.62,120.85-10.89,8.8h34.16l1.36-1.1,149.62-120.85,10.89-8.8h0Z" style="fill: #7e1112;"/>
    </g>

    <g id="sheen">
      <g style="clip-path: url(#clippath);">
        <g id="sheen-lines" style="opacity: .1;">
          <polygon points="502.59 287.6 -41.22 476.89 -41.22 368.47 502.59 179.17 502.59 287.6" style="fill: #fff;"/>
          <polygon points="502.59 150.37 -41.22 339.67 -41.22 277.39 502.59 88.09 502.59 150.37" style="fill: #fff;"/>
        </g>
      </g>
    </g>
  </g>
</svg>