<?xml version="1.0" encoding="UTF-8"?>
<svg xmlns="http://www.w3.org/2000/svg" viewBox="0 0 467.23 573.4">
  
  <defs>
    <style>
      @keyframes shine {
        0% { opacity: .1; transform: translate(0, -1000px) }
        50% { opacity: .1; transform: translate(0, 1000px) }
        51% { opacity: 0; transform: translate(0, -1000px) }
        100% { opacity: 0; transform: translate(0, -1000px) }
      }
      #sheen-lines {
        transform: translate(0, -1000px);
        animation-name: shine;
        animation-duration: 4s;
        animation-iteration-count: infinite;
        animation-fill-mode: forwards;
        animation-delay: 1s;
        transform-origin: center;
        transform-box: fill-box;
      }
    </style>
      <clipPath id="clippath">
        <rect x="-38.46" y="67" width="545.28" height="439.3" rx="10.64" ry="10.64" transform="translate(520.83 52.47) rotate(90)" style="fill: none;"/>
      </clipPath>
  </defs>

  <g id="Layer_2" data-name="Layer 2">
    <rect x="7.53" y="7.01" width="453.3" height="559.28" rx="17.64" ry="17.64" style="fill: #7e1112; stroke: #b29c47; stroke-miterlimit: 10; stroke-width: 9.95px;"/>
  </g>
  <g id="Layer_1" data-name="Layer 1">
    <g>
      <path d="m252.34,508.49c-7.63-3.39-12.01-12.47-11.73-15.23.2-2.05.32-7.29.49-16.38.25-12.91.64-32.43,1.61-38.28.39-2.33.84-4.93,1.3-7.63,1.49-8.63,3.18-18.42,3.61-23.58l.13-1.6c.44-5.45,1.1-13.69,3.39-17.51,4.59-7.66,4.76-17.16.51-30.65.58-2.55,1.18-6.76.01-10.26-.35-1.07-2.94-10.45-5.68-20.37-7.63-27.67-14.07-50.86-15.48-54.4-1.06-2.65-2.45-4.54-3.56-6.06-1.63-2.22-1.74-2.5-1.52-3.74.6-3.31,1.37-7.62,1.93-10.79,2.22-.2,4.83-.47,6.72-.74,1.85-.26,4.94-.71,15.83-14.54,1.64-2.08,9.9-12.71,11.46-17.38.29-.88.76-1.97,1.25-3.11,2.07-4.84,4.9-11.46,1.77-18.34-2.99-6.57-15.74-26.97-18.98-31.28-.6-.8-1.69-2.51-2.84-4.31-6.88-10.79-13.14-19.89-20.02-22.01-4.92-1.51-9.27-2.75-11.52-3.38-2.57-2.8-8.6-9.3-12.21-12.78-.04-1.02.03-1.99.2-2.44,2.99-3.78,8.04-11.72,9.21-23.37,1-10,1.11-19.95,1.11-23.77s-3.07-5.86-4.55-6.78c-.27-.17-.65-.4-.87-.57-1.84-4.22-6.34-8.6-13.71-8.64-.13,0-.35,0-.66,0-4.25,0-18.42.81-22.56,11.16-.5,1.25-1.3,2.58-2.05,2.59l-3.23-1.7-2.24,2.77c-.54.45-5.3,4.6-5.3,10.88,0,4.37,2.92,7.98,5.31,10.2-.1,10.33,2.48,12.92,3.38,13.82,1.07,1.07,2.23,1.81,3.16,2.41,1.59,1.02,1.59,1.04,1.67,1.72.74,6.64.64,9.02.48,9.88-1.57,2.42-8.16,9.79-10.32,11.11-10.36,3.47-28.35,10.44-34.41,18.69-2.56,3.5-11.81,12.53-19.96,20.5-17.64,17.24-19.93,19.81-20.45,22.95-.84,5.05,1.24,12.33,9.59,17.65,2.13,1.35,7.01,4.98,12.18,8.81,11.12,8.25,19.31,14.25,23.41,16.3,3.16,1.58,6.42,2.28,9.3,2.89,1.24.27,3.01.64,3.95,1,.1,1.55-.06,5.3-2.13,13.51l-.09.36c-.31,1.23-.84,5.08,3.55,7.54-3.49,10.83-4.2,23.08-2,34.83.41,2.2.9,4.67,1.43,7.32,2.79,14.03,8.59,43.21,3.65,51.19l-2.92,4.71,4.61,3.07,5.18,3.45c-.99,9.83-2.75,37.61,5.55,61.13,8.97,25.43,8.9,42.1,8.38,45.17-.5,3.01.43,5.73,1.26,8.12.36,1.04.96,2.77.88,3.34-.05.32-.14.77-.25,1.31-.98,4.94-3.01,15.23,2.41,22.32,1.92,2.52,5.61,5.62,12.27,6.09l.41.03.41-.03c4.42-.32,7.91-2.52,9.83-6.21,2.89-5.55,1.3-12.82-1.54-17.57-.31-.52-.62-1.03-.92-1.53-2.69-4.42-3.97-6.67-3.68-9.52.57-5.74-.43-8.93-1.69-12.96-.21-.68-.44-1.4-.68-2.2-5.12-17.07-8.25-32.21-7.44-36,1.1-5.15.59-14.87.04-25.17-.33-6.23-.67-12.67-.47-16.16.11-1.93.12-3.95.12-6.08,0-3.8.02-12.69,2.05-12.81,6.87-.4,28.9-1.97,38.74-2.84,2.46,5.69,5.14,12.68,5.39,15.44.11,1.17-.88,3.05-2.02,5.23-1.84,3.51-4.12,7.88-4.47,13.87-.39,6.69.02,22.88.32,34.69.11,4.48.21,8.36.21,9.88,0,1.23.07,2.94.15,4.92.16,3.9.58,13.93-.33,17.06-.24.18-.49.37-.75.56-3.81,2.85-12.72,9.49-8.43,20.46v27.08l3.17,1.58c1.25.62,3.11,1.37,4.92,1.37,3.42,0,6.12-2.56,6.25-5.88.04-.41.24-2.14,1.22-9.45.55,1.4,1.13,3.48,1.38,5.99.55,5.51,1.47,14.74,13.4,17.92,2.14.57,4.47.86,6.92.86,7.2,0,13.33-2.44,14.01-2.72l1.06-.44.81-.81c1.52-1.52,2.18-3.74,1.76-5.96-.69-3.74-4-6.67-11.04-9.8Z" style="fill: #380505;"/>
      <g>
        <path d="m241.11,517.79c-2.2,0-4.28-.26-6.18-.76-10.01-2.67-10.75-10.05-11.29-15.43-.58-5.84-2.66-9.58-3.57-9.87-.94-.16-1.91-.35-2.9-.65-1.6,11.71-1.82,13.75-1.84,14.09-.04,1.82-1.48,3.19-3.39,3.19-1.31,0-2.84-.67-3.63-1.06l-1.58-.79v-25.87c-.05-.12-.1-.24-.15-.37-3.6-9,3.57-14.35,7.43-17.23.53-.39,1.01-.75,1.42-1.09,1.52-2.21.99-14.8.81-18.95-.08-1.95-.15-3.63-.15-4.8,0-1.56-.09-5.27-.21-9.96-.28-11.1-.71-27.88-.32-34.45.32-5.38,2.44-9.45,4.15-12.71,1.4-2.69,2.51-4.81,2.33-6.82-.35-3.9-4.22-13.22-6.45-18.23-8.01.77-32.37,2.53-40.7,3.02-4.38.26-4.73,6.65-4.74,15.66,0,2.1,0,4.08-.12,5.92-.22,3.66.12,9.89.46,16.48.51,9.65,1.04,19.63.02,24.41-1.07,5.01,2.99,22.41,7.5,37.42.24.81.48,1.55.69,2.24,1.26,4.02,2.09,6.67,1.57,11.82-.39,3.93,1.39,6.86,4.08,11.29.3.49.61,1,.92,1.52,2.36,3.93,3.82,10.23,1.46,14.77-1.44,2.77-4.1,4.43-7.49,4.67h-.2s-.2,0-.2,0c-4.49-.32-7.92-1.99-10.2-4.97-4.63-6.07-2.77-15.5-1.88-20.03.12-.61.22-1.11.27-1.46.18-1.25-.42-3-1-4.68-.75-2.17-1.52-4.42-1.14-6.71.66-3.96.51-21.03-8.51-46.59-8.67-24.58-6.08-54.02-5.22-61.6l-8.93-5.95,1.46-2.36c5.53-8.94.02-36.68-3.27-53.25-.53-2.65-1.01-5.1-1.42-7.29-2.29-12.19-1.3-24.92,2.76-35.88-.23-.1-.5-.19-.7-.26-2.98-1.07-4.21-2.75-3.64-5.01l.09-.35c2.55-10.12,2.38-14.12,2.05-15.6-.26-1.18-3.21-1.81-6.05-2.42-2.71-.58-5.78-1.24-8.62-2.66-4.19-2.1-14.17-9.5-22.98-16.04-5.21-3.87-10.13-7.52-12.35-8.93-7.17-4.57-8.99-10.62-8.3-14.76.37-2.22,3.31-5.42,19.63-21.37,8.23-8.05,17.57-17.17,20.27-20.86,5.64-7.68,23.24-14.42,33.24-17.75,2.33-.89,10.79-10.56,11.83-12.59.36-.74.61-3.31-.29-11.35-.22-1.99-1.07-2.61-2.97-3.82-.86-.55-1.83-1.17-2.68-2.02-2.37-2.37-2.65-8.68-2.52-13.07-2-1.66-5.34-5.02-5.34-8.92,0-4.98,3.83-8.31,4.27-8.68l1.27-1.05,1.54.56s0,0,0,0c0,0,.34.09.82.09,2.45,0,3.92-2.39,4.72-4.39,3.47-8.69,16.11-9.36,19.9-9.36.31,0,.52,0,.61,0,5.25.02,9.45,2.7,11.25,7.2.22.55,1.09,1.1,1.87,1.58,1.27.79,3.19,1.99,3.19,4.34,0,3.77-.11,13.62-1.09,23.49-1.11,11.06-5.93,18.54-8.71,22.01-.74.92-.83,3.48-.63,5.4,3.55,3.28,11.27,11.65,13.44,14.01,1.86.52,6.75,1.89,12.23,3.58,5.94,1.83,12.12,10.89,18.45,20.81,1.23,1.93,2.3,3.6,2.96,4.49,3.1,4.13,15.81,24.47,18.66,30.75,2.61,5.73.16,11.44-1.8,16.03-.51,1.2-1,2.33-1.33,3.33-1.17,3.5-7.46,12.03-10.99,16.51-10.18,12.93-12.85,13.31-13.99,13.47-2.52.36-6.35.71-8.76.92-.55,3.08-1.56,8.8-2.31,12.94-.46,2.55.42,3.76,2.02,5.94,1.07,1.46,2.29,3.12,3.21,5.43,1.36,3.4,7.77,26.51,15.38,54.09,2.88,10.45,5.37,19.48,5.72,20.53,1.07,3.21.21,7.55-.27,9.46,4.23,13.05,4.23,22.04,0,29.07-2.64,4.39-3.3,12.69-3.79,18.75l-.13,1.6c-.42,5.04-2.1,14.76-3.58,23.33-.47,2.71-.92,5.33-1.31,7.66-1.01,6.05-1.38,24.92-1.65,38.69-.16,7.89-.28,14.12-.48,16.15-.41,4.09,4.85,14.33,13.42,18.14,6,2.67,8.89,5.04,9.39,7.71.28,1.52-.32,2.76-.97,3.41l-.41.41-.53.22c-.25.1-6.15,2.5-12.91,2.5h0Z" style="fill: #b29c47;"/>
        <path d="m184.93,56.73c.36,0,.56,0,.56,0,4.86,0,7.55,2.7,8.63,5.4,1.08,2.7,4.86,3.24,4.86,4.86s0,12.41-1.08,23.2c-1.08,10.79-5.93,17.8-8.09,20.5-2.16,2.7-1.08,8.63-1.08,8.63,3.24,2.7,14.57,15.11,14.57,15.11,0,0,5.93,1.62,12.95,3.78,7.01,2.16,16.73,19.96,19.96,24.28,3.24,4.32,15.65,24.28,18.34,30.21,2.7,5.93-1.62,12.41-3.24,17.26-1.62,4.86-18.88,27.52-22.66,28.06-3.78.54-10.79,1.08-10.79,1.08,0,0-1.62,9.17-2.7,15.11-1.08,5.93,3.24,7.55,5.4,12.95,2.16,5.4,19.96,71.22,21.04,74.46,1.08,3.24-.54,8.63-.54,8.63,4.86,14.57,3.78,22.12.54,27.52-3.24,5.4-3.78,15.11-4.32,21.58-.54,6.47-3.24,21.04-4.86,30.75-1.62,9.71-1.62,49.64-2.16,55.03-.54,5.4,5.4,16.73,15.11,21.04,9.71,4.32,7.55,6.47,7.55,6.47,0,0-5.55,2.28-11.82,2.28-1.79,0-3.64-.19-5.44-.67-8.09-2.16-8.63-7.55-9.17-12.95-.54-5.4-2.7-11.87-5.93-12.41-1.63-.27-3.67-.68-5.7-2.05-1.05,7.63-2.39,17.58-2.39,18.24,0,.29-.21.4-.53.4-.83,0-2.35-.76-2.35-.76v-24.71c-.12-.27-.24-.54-.36-.83-3.24-8.09,4.86-12.41,8.09-15.11,3.24-2.7,1.62-20.5,1.62-25.9s-1.08-35.07-.54-44.24c.54-9.17,7.01-14.03,6.47-19.96-.54-5.93-7.55-21.04-7.55-21.04-3.78.54-33.45,2.7-42.62,3.24-9.17.54-7.01,15.11-7.55,24.28-.54,9.17,2.16,32.91.54,40.46-1.62,7.55,5.93,33.45,7.55,38.85,1.62,5.4,2.7,7.55,2.16,12.95-.54,5.4,2.16,9.17,5.4,14.57,3.24,5.4,3.78,14.57-3.78,15.11-15.11-1.08-9.71-19.42-9.17-23.2.54-3.78-2.7-8.09-2.16-11.33.54-3.24,1.08-20.5-8.63-48.02-9.71-27.52-4.86-62.05-4.86-62.05l-8.09-5.4c7.01-11.33-1.08-45.32-4.32-62.59-3.24-17.26,1.08-30.21,2.7-34.53,1.62-4.32-4.86-3.24-4.32-5.4.54-2.16,3.24-12.41,2.16-17.26-1.08-4.86-9.71-3.78-16.19-7.01-6.47-3.24-29.13-21.04-35.07-24.82-5.93-3.78-7.55-8.63-7.01-11.87.54-3.24,33.45-32.91,39.39-41s28.6-15.65,31.83-16.73c3.24-1.08,12.41-11.87,13.49-14.03s.54-8.09,0-12.95c-.54-4.86-4.32-5.4-6.47-7.55-2.16-2.16-1.62-12.41-1.62-12.41,0,0-5.4-3.78-5.4-7.55s3.24-6.47,3.24-6.47c0,0,.72.26,1.79.26,2.01,0,5.27-.92,7.38-6.2,2.86-7.14,14.53-7.56,17.24-7.56m0-5.73c-4.25,0-18.42.81-22.56,11.16-.5,1.25-1.31,2.59-2.06,2.59-.03,0-.05,0-.07,0l-2.86-1.04-2.53,2.11c-.54.45-5.3,4.6-5.3,10.88,0,4.37,2.92,7.98,5.31,10.2-.1,10.33,2.48,12.92,3.38,13.82,1.07,1.07,2.23,1.81,3.16,2.41,1.59,1.02,1.59,1.04,1.67,1.72.74,6.64.64,9.02.48,9.88-1.57,2.42-8.16,9.79-10.32,11.11-10.36,3.47-28.35,10.44-34.41,18.69-2.56,3.5-11.81,12.53-19.96,20.5-17.64,17.24-19.93,19.81-20.45,22.95-.84,5.05,1.24,12.33,9.59,17.65,2.13,1.35,7.01,4.98,12.18,8.81,11.12,8.25,19.31,14.25,23.41,16.3,3.16,1.58,6.42,2.28,9.3,2.89,1.24.27,3.01.64,3.95,1,.1,1.55-.06,5.3-2.13,13.51l-.09.36c-.68,2.72.35,5.43,2.68,7.07.28.2.57.37.85.52-3.47,10.82-4.18,23.05-1.98,34.78.41,2.21.91,4.69,1.43,7.32,2.79,14.03,8.59,43.21,3.65,51.19l-2.92,4.71,4.61,3.07,5.18,3.45c-.99,9.83-2.75,37.61,5.55,61.13,8.97,25.42,8.9,42.1,8.38,45.17-.5,3.01.43,5.73,1.26,8.12.36,1.04.96,2.77.88,3.34-.03.24-.14.79-.25,1.31-.98,4.94-3.01,15.23,2.41,22.32,1.92,2.52,5.61,5.62,12.27,6.09l.41.03.41-.03c4.42-.32,7.91-2.52,9.83-6.21,2.89-5.55,1.3-12.82-1.54-17.57-.31-.52-.62-1.03-.92-1.53-2.69-4.42-3.97-6.67-3.68-9.52.57-5.74-.43-8.93-1.69-12.96-.21-.68-.44-1.4-.68-2.2-5.12-17.07-8.25-32.21-7.44-36,1.1-5.15.59-14.88.04-25.17-.33-6.23-.67-12.67-.47-16.16.11-1.93.12-3.95.12-6.08,0-3.95.02-8.03.76-10.83.51-1.94.91-1.96,1.29-1.98,6.87-.4,28.9-1.97,38.74-2.84,2.46,5.69,5.14,12.68,5.39,15.44.11,1.17-.88,3.05-2.02,5.23-1.84,3.51-4.12,7.88-4.47,13.87-.39,6.69.02,22.88.32,34.69.11,4.48.21,8.36.21,9.88,0,1.23.07,2.94.15,4.92.16,3.9.58,13.93-.33,17.06-.23.18-.49.37-.75.57-3.81,2.85-12.72,9.49-8.43,20.46v27.08l3.17,1.58c1.25.62,3.11,1.37,4.92,1.37,3.42,0,6.12-2.56,6.25-5.88.04-.41.23-2.13,1.22-9.45.55,1.4,1.13,3.48,1.38,5.99.55,5.51,1.47,14.74,13.4,17.92,2.14.57,4.47.86,6.92.86,7.2,0,13.33-2.44,14.01-2.72l1.06-.44.81-.81c1.52-1.52,2.18-3.74,1.76-5.96-.69-3.74-4-6.67-11.04-9.8-7.63-3.39-12.01-12.47-11.73-15.23.2-2.05.32-7.29.49-16.38.25-12.91.64-32.43,1.61-38.28.39-2.33.84-4.93,1.3-7.63,1.49-8.63,3.18-18.42,3.61-23.58.04-.51.09-1.05.13-1.6.44-5.45,1.1-13.69,3.39-17.51,4.59-7.66,4.76-17.16.51-30.65.58-2.55,1.18-6.76.01-10.26-.35-1.07-2.94-10.45-5.68-20.37-7.63-27.67-14.07-50.86-15.48-54.4-1.06-2.65-2.45-4.54-3.56-6.06-1.63-2.22-1.74-2.5-1.52-3.74.6-3.29,1.37-7.61,1.93-10.79,2.22-.2,4.83-.47,6.72-.74,1.85-.26,4.94-.71,15.83-14.54,1.64-2.08,9.9-12.71,11.45-17.38.29-.88.76-1.97,1.25-3.11,2.07-4.84,4.9-11.46,1.77-18.34-2.99-6.57-15.74-26.97-18.98-31.28-.6-.8-1.69-2.51-2.84-4.31-6.88-10.79-13.14-19.89-20.02-22.01-4.92-1.51-9.27-2.75-11.52-3.38-2.57-2.8-8.6-9.3-12.21-12.78-.04-1.02.03-1.99.2-2.44,2.99-3.78,8.04-11.72,9.21-23.37,1-10,1.11-19.95,1.11-23.77s-3.07-5.86-4.55-6.78c-.27-.17-.65-.4-.87-.57-1.84-4.22-6.34-8.6-13.71-8.64-.13,0-.35,0-.66,0h0Z" style="fill: #fff;"/>
      </g>
    </g>
    <g>
      <polygon points="288.49 313.21 278.86 345.42 269.24 377.64 301.21 388.08 333.17 398.51 319.76 372.9 401.28 330.19 383.43 296.12 301.91 338.82 288.49 313.21" style="fill: #380505;"/>
      <polygon points="284.07 302.22 274.45 334.43 264.82 366.65 296.79 377.09 328.75 387.52 315.34 361.91 396.86 319.2 379.02 285.13 297.49 327.83 284.07 302.22" style="fill: #b29c47; stroke: #fff; stroke-miterlimit: 10; stroke-width: 5.06px;"/>
    </g>

    <g id="sheen">
      <g style="clip-path: url(#clippath);">
        <g id="sheen-lines" style="opacity: .1;">
          <polygon points="502.59 287.6 -41.22 476.89 -41.22 368.47 502.59 179.17 502.59 287.6" style="fill: #fff;"/>
          <polygon points="502.59 150.37 -41.22 339.67 -41.22 277.39 502.59 88.09 502.59 150.37" style="fill: #fff;"/>
        </g>
      </g>
    </g>

  </g>
</svg>