<?xml version="1.0" encoding="UTF-8"?>
<svg xmlns="http://www.w3.org/2000/svg" viewBox="0 0 467.23 573.4">
  <defs>
    <style>
      @keyframes shine {
        0% { opacity: .1; transform: translate(0, -1000px) }
        50% { opacity: .1; transform: translate(0, 1000px) }
        51% { opacity: 0; transform: translate(0, -1000px) }
        100% { opacity: 0; transform: translate(0, -1000px) }
      }
      #sheen-lines {
        transform: translate(0, -1000px);
        animation-name: shine;
        animation-duration: 4s;
        animation-iteration-count: infinite;
        animation-fill-mode: forwards;
        animation-delay: 1s;
        transform-origin: center;
        transform-box: fill-box;
      }
    </style>
      <clipPath id="clippath">
        <rect x="-38.46" y="67" width="545.28" height="439.3" rx="10.64" ry="10.64" transform="translate(520.83 52.47) rotate(90)" style="fill: none;"/>
      </clipPath>
  </defs>
  <g id="card">
    <rect x="7.53" y="7.01" width="453.3" height="559.28" rx="17.64" ry="17.64" style="fill: #7e1112; stroke: #b29c47; stroke-miterlimit: 10; stroke-width: 9.95px;"/>
  </g>
  <g id="dow">
    <g>
      <path d="m403.03,239.91c-8.81-10.2-25.7-30.59-39.8-52.44-1.57-2.43-38.6-59.69-53.21-69.43-8.05-5.37-16.28-7.97-25.17-7.97-1.61,0-3.28.09-4.96.27-1.91.2-3.73.3-5.41.3-1.44,0-2.49-.08-3.13-.14-4.16-2.17-6.94-3.45-8.3-3.79-.51-.13-1.04-.19-1.57-.19h-.03c-1.03,0-3.44.03-7.24,3.99l-3.57-.71c-.66-.99-1.55-2.19-2.75-3.56-2.52-2.88-5.34-3.26-7.39-3.54-2.11-.29-4.99-.68-11.05-4.08-4.83-2.72-12.34-5.96-20.68-5.96-11.38,0-20.52,6.25-25.74,17.59l-.33.72-.12.78c-.48,3.02-1.42,7.13-2.1,8.5-2.1,4.19-2.55,10.64-2.08,14.87.48,4.36,1.97,8.3,4.42,11.73,2.72,3.81,7.29,5.78,8.18,6.13l7.25,2.9.46-5.94c1.9.82,4.08,1.6,6.36,1.6.41,0,.81-.02,1.2-.07.67-.08,1.32-.16,1.83-.19,1.22,2.54,4.64,8.43,10.17,8.43,1.9,0,3.66-.72,5.04-2.01.14.06.29.12.44.19.83.33,1.69.5,2.54.5,1.06,0,2.7-.25,4.16-1.56,1.64.62,3.35,1.18,5.22,1.18,2.07,0,7.07-.78,8.62-8.01.44-2.07,1.64-4.3,3.22-4.3.18,0,.38.02.59.06,2.16.43,3.46,1.22,4.1,1.7.59,1.38,1.66,3.35,3.54,5.42.5,5.83,1.93,22.01,2.88,28.06.14.87.27,1.81.41,2.83,1.07,7.76,2.7,19.5,10.8,30.54,1.98,2.7,4.31,5.74,6.77,8.96,7.57,9.9,16.99,22.22,20.45,30.21,4.61,10.63,6.38,19.35,7.5,26.47.1.61.19,1.26.29,1.92,1.21,7.99,2.86,18.93,10.4,24.12,7.12,4.89,7.3,6.87,7.3,6.95,0,5.02,3.71,8.5,6.13,10.54-.15,10.33-2.86,55.11-3.48,64.37-.34,5.09,1.33,9.85,2.67,13.67.5,1.43.98,2.79,1.26,3.91.5,2.02-1.02,5.25-3.54,7.53-4.01,3.61-5.02,11.39-5.47,24.48-.04,1.23-.1,2.76-.15,3.16-.49,3.93-2.53,14.17-3.66,16.96-2.05,1.65-9.06,5.98-15.74,6.26-5.84.24-9.8,1.33-12.83,3.54-2.98,2.17-4.82,5.27-5.58,9.44-1.29,2.2-1.99,5.1-.77,7.91.97,2.23,3.37,4.94,9.34,5.24.91.05,2.16.07,3.83.07,11.94,0,41-1.15,42.23-1.19l1.47-.06.43-.31c.14-.02.36-.04.64-.04.62,0,1.66.09,3.08.53,1.76.54,3.79.81,6.05.81,4.75,0,10.58-1.27,13.27-2.88,3.04-1.83,3.99-5.61,4.59-11.54.15-1.49.25-2.94.32-4.11l2.17-1.77,1.93-1.58.16-2.49c1.51-23.03,4.03-58.91,4.82-63.38,1.3-7.37,8.74-77.66,9.12-90.43.38-12.93,1.08-25.69,1.4-28.7,1.42-3.25,10.62-16.87,13.11-19.36.28-.28.69-.64,1.12-1.03,2.03-1.81,4.82-4.29,6.18-8.01,1.22-3.32,1.57-8.55-3.63-14.57Z" style="fill: #380505;"/>
      <g>
        <path d="m290.79,478.79c-1.62,0-2.82-.02-3.68-.06-3.61-.18-5.92-1.37-6.85-3.52-1-2.3.09-4.54.86-5.71.8-5.36,3.55-10.66,15.8-11.17,8.02-.33,16.31-5.81,17.96-7.36,1.28-2.08,3.66-14.31,4.16-18.37.06-.52.11-1.92.17-3.42.42-12.02,1.29-19.55,4.53-22.45,3.36-3.03,5.17-7.28,4.41-10.35-.31-1.25-.81-2.66-1.33-4.16-1.32-3.76-2.81-8.03-2.51-12.54.74-11.17,3.6-58.6,3.49-65.9-.15-.13-.32-.27-.46-.39-2.12-1.76-5.67-4.72-5.67-8.82,0-2.28-2.88-5.41-8.55-9.31-6.52-4.48-8.06-14.71-9.19-22.18-.1-.67-.2-1.32-.3-1.94-1.08-6.87-2.94-16.17-7.71-27.17-3.6-8.31-13.14-20.79-20.81-30.81-2.45-3.21-4.77-6.23-6.73-8.91-7.67-10.46-9.23-21.76-10.27-29.23-.14-1.04-.28-2-.42-2.89-1-6.35-2.55-24.2-2.94-28.86-2.4-2.4-3.48-4.71-3.91-5.89-.62-.6-2.45-2.1-5.93-2.79-.39-.08-.78-.12-1.15-.12-3.41,0-5.38,3.54-6.03,6.57-1.02,4.75-3.72,5.75-5.81,5.75-1.63,0-3.24-.62-4.95-1.28-.39-.15-.8-.31-1.22-.46-.74,1.41-1.81,2.12-3.21,2.12-.49,0-.98-.1-1.48-.3-.37-.15-.76-.33-1.16-.53-.34-.16-.87-.42-1.18-.51-.05.06-.11.15-.19.27-1.3,2.08-3.08,2.39-4.02,2.39-4.36,0-7.27-6.05-7.8-7.26-.38-.86-.76-1.17-2.1-1.17-.73,0-1.57.1-2.45.22-.27.03-.56.05-.84.05-2.24,0-4.54-1.05-6.58-1.97-.62-.28-1.46-.66-2.07-.89-.19.56-.37,1.39-.43,2.07l-.32,3.87-3.6-1.43c-.47-.19-4.61-1.91-6.92-5.14-2.16-3.03-3.48-6.52-3.9-10.38-.44-3.94.04-9.76,1.79-13.27.95-1.9,1.96-6.73,2.37-9.33l.06-.39.17-.36c6.05-13.16,15.92-15.92,23.14-15.92,7.72,0,14.74,3.04,19.27,5.59,6.53,3.67,9.87,4.13,12.07,4.43,1.88.25,3.81.52,5.62,2.58,1.56,1.78,2.54,3.24,3.13,4.24l6.37,1.27c3.62-4.25,5.56-4.25,6.23-4.25.3,0,.59.04.87.11,1.56.39,5.92,2.63,8.13,3.79.6.08,1.95.22,3.99.22,1.78,0,3.7-.11,5.71-.32,1.58-.17,3.15-.25,4.66-.25,8.3,0,16.02,2.45,23.58,7.49,11.3,7.53,39.21,48.16,52.4,68.6,14.2,22,31.18,42.5,40.04,52.76,8.07,9.34.81,15.81-2.29,18.57-.46.41-.89.79-1.24,1.14-2.91,2.91-13.07,18.05-13.88,20.68-.35,2.66-1.09,16.54-1.47,29.33-.39,13.19-8.06,84.25-9.08,90.01-.87,4.94-3.56,43.82-4.86,63.69l-.08,1.24-4.1,3.36c-.52,12.76-2.67,14.05-3.6,14.61-1.99,1.2-7.21,2.47-11.8,2.47-1.97,0-3.72-.23-5.2-.69-1.42-.44-2.74-.66-3.92-.66-1.12,0-1.71.21-1.72.21l-.49.21h-.45c-.3,0-30.25,1.18-42.13,1.18Z" style="fill: #b29c47;"/>
        <path d="m205,90.03c6.22,0,12.59,2.25,17.87,5.22,12.05,6.78,14.31,3.39,16.94,6.4,2.64,3.01,3.39,4.89,3.39,4.89l9.41,1.88s3.49-4.54,5.09-4.54c.06,0,.12,0,.18.02,1.51.38,7.91,3.76,7.91,3.76,0,0,1.67.33,4.91.33,1.62,0,3.63-.08,6.01-.33,1.39-.15,2.84-.24,4.36-.24,6.33,0,13.79,1.55,21.99,7.01,10.16,6.78,36.52,44.42,51.58,67.76,15.06,23.34,33.13,44.8,40.28,53.08,7.15,8.28-.38,12.8-3.39,15.81-3.01,3.01-14.31,19.58-14.68,22.21-.38,2.64-1.13,16.94-1.51,29.74-.38,12.8-7.91,83.2-9.04,89.6s-4.89,64-4.89,64l-4.14,3.39s-.38,12.42-2.26,13.55c-1.38.83-6.02,2.07-10.32,2.07-1.55,0-3.06-.16-4.36-.56-1.96-.6-3.55-.78-4.76-.78-1.82,0-2.76.41-2.76.41,0,0-30.04,1.19-42.01,1.19-1.5,0-2.71-.02-3.55-.06-7.53-.38-3.39-5.27-3.39-5.27.75-6.4,4.14-9.04,13.18-9.41,9.04-.38,18.07-6.4,19.95-8.28,1.88-1.88,4.52-16.94,4.89-19.95.38-3.01,0-20.71,3.76-24.09,3.76-3.39,6.4-8.66,5.27-13.18-1.13-4.52-4.14-10.16-3.76-15.81.38-5.65,4.14-66.26,3.39-67.39-.75-1.13-6.02-4.14-6.02-7.91s-3.76-7.53-9.79-11.67c-6.02-4.14-7.15-15.06-8.28-22.21-1.13-7.15-3.01-16.56-7.91-27.86-4.89-11.29-19.58-28.99-27.86-40.28-8.28-11.29-9.04-23.72-10.16-30.87-1.13-7.15-3.01-29.74-3.01-29.74-3.39-3.01-4.14-6.02-4.14-6.02,0,0-2.26-3.01-7.91-4.14-.59-.12-1.16-.17-1.71-.17-4.69,0-7.82,4.12-8.83,8.83-.56,2.64-1.6,3.48-3.01,3.48s-3.2-.85-5.27-1.6c-.65-.23-1.15-.33-1.56-.33-1.97,0-1.5,2.31-2.55,2.31-.12,0-.25-.03-.41-.09-1.11-.44-2.34-1.28-3.56-1.28-.85,0-1.69.41-2.47,1.65-.46.73-1,1.04-1.59,1.04-1.83,0-4.04-3-5.18-5.56-1.03-2.32-2.76-2.87-4.72-2.87-.9,0-1.86.12-2.81.24-.16.02-.32.03-.49.03-2.99,0-7.16-3.04-9.3-3.04-2.26,0-2.64,4.89-2.64,4.89,0,0-3.76-1.51-5.65-4.14-1.88-2.64-3.01-5.65-3.39-9.04s0-8.66,1.51-11.67,2.64-10.16,2.64-10.16c4.86-10.57,12.57-14.25,20.53-14.25m0-5.73c-11.38,0-20.52,6.25-25.74,17.59l-.33.72-.12.78c-.48,3.02-1.42,7.13-2.1,8.5-2.1,4.19-2.55,10.64-2.08,14.87.48,4.36,1.97,8.3,4.42,11.73,2.72,3.81,7.29,5.78,8.18,6.13l7.25,2.9.46-5.94c1.9.82,4.08,1.6,6.36,1.6.41,0,.81-.02,1.2-.07.67-.08,1.32-.16,1.83-.19,1.22,2.54,4.64,8.43,10.17,8.43,1.9,0,3.66-.72,5.04-2.01.14.06.29.12.44.19.83.33,1.69.5,2.54.5,1.06,0,2.7-.25,4.16-1.56,1.64.62,3.35,1.18,5.22,1.18,2.07,0,7.07-.78,8.62-8.01.44-2.07,1.64-4.3,3.22-4.3.18,0,.38.02.59.06,2.16.43,3.46,1.22,4.1,1.7.59,1.38,1.66,3.35,3.54,5.42.5,5.83,1.93,22.01,2.88,28.06.14.87.27,1.81.41,2.83,1.07,7.76,2.7,19.5,10.8,30.54,1.98,2.7,4.31,5.74,6.77,8.96,7.57,9.9,16.99,22.22,20.45,30.21,4.61,10.63,6.38,19.35,7.5,26.47.1.61.19,1.26.29,1.92,1.21,7.99,2.86,18.93,10.4,24.12,7.12,4.89,7.3,6.87,7.3,6.95,0,5.02,3.71,8.5,6.13,10.54-.15,10.34-2.86,55.11-3.48,64.37-.34,5.1,1.33,9.85,2.67,13.67.5,1.43.98,2.79,1.26,3.91.5,2.02-1.02,5.25-3.54,7.53-4.01,3.61-5.01,11.39-5.47,24.48-.04,1.23-.1,2.76-.15,3.16-.49,3.93-2.53,14.17-3.66,16.96-2.05,1.65-9.06,5.98-15.74,6.26-5.84.24-9.8,1.33-12.83,3.54-2.98,2.17-4.82,5.27-5.58,9.44-1.29,2.2-1.99,5.1-.77,7.91.97,2.23,3.37,4.94,9.34,5.24.91.05,2.16.07,3.83.07,11.94,0,41-1.15,42.23-1.19l1.47-.06.43-.31c.14-.02.36-.04.64-.04.62,0,1.66.09,3.08.53,1.76.54,3.79.81,6.05.81,4.75,0,10.58-1.27,13.27-2.88,3.04-1.83,3.99-5.61,4.59-11.54.15-1.49.26-2.94.32-4.11l2.17-1.77,1.93-1.58.16-2.49c1.51-23.03,4.03-58.91,4.82-63.38,1.3-7.37,8.74-77.66,9.12-90.43.38-12.93,1.08-25.69,1.4-28.7,1.42-3.25,10.62-16.87,13.11-19.36.28-.28.69-.64,1.12-1.03,2.03-1.81,4.82-4.29,6.18-8.01,1.22-3.32,1.57-8.55-3.63-14.57-8.81-10.2-25.7-30.59-39.8-52.44-1.57-2.43-38.6-59.69-53.21-69.43-8.05-5.37-16.28-7.97-25.17-7.97-1.61,0-3.28.09-4.96.27-1.91.2-3.73.3-5.41.3-1.44,0-2.49-.08-3.13-.14-4.16-2.17-6.95-3.45-8.3-3.79-.51-.13-1.04-.19-1.57-.19h-.03c-1.03,0-3.44.03-7.24,3.99l-3.57-.71c-.66-.99-1.55-2.19-2.75-3.56-2.52-2.88-5.34-3.26-7.39-3.54-2.11-.29-4.99-.68-11.05-4.08-4.83-2.72-12.34-5.96-20.68-5.96h0Z" style="fill: #fff;"/>
      </g>
    </g>
    <g>
      <path d="m256.34,402.18c6.51-5.17,9.8-12.76,9.8-22.62v-1.6c0-21.45-15.53-34.78-40.53-34.78h-37.97v118.4h39.09c25,0,40.53-13.08,40.53-34.14v-1.44c0-10.22-3.75-18.37-10.92-23.82Zm-24.18-18.31c0,2.51-.59,4.95-7.67,4.95h-2.88v-12.78h2.88c6.41,0,7.67,1.82,7.67,4.95v2.87Zm1.12,37.34v2.87c0,2.59-1.03,3.47-2.05,4-1.24.64-3.08.95-5.62.95h-4v-12.78h4c6.48,0,7.67,1.67,7.67,4.95Z" style="fill: #380505;"/>
      <path d="m185.88,339.12h35.11c22.18,0,37.66,11.33,37.66,31.92v1.6c0,11.01-4.47,18.35-12.13,22.66,8.14,4.47,13.25,12.13,13.25,23.78v1.44c0,20.43-15.48,31.28-37.66,31.28h-36.22v-112.66Zm33.99,45.64c4.47,0,10.53-.8,10.53-7.82v-2.87c0-6.86-5.59-7.82-10.53-7.82h-5.74v18.51h5.74Zm1.12,40.21c4.47,0,10.53-.8,10.53-7.82v-2.87c0-7.02-5.59-7.82-10.53-7.82h-6.86v18.51h6.86Z" style="fill: #b29c47; stroke: #fff; stroke-miterlimit: 10; stroke-width: 5.73px;"/>
      <g>
        <polygon points="148.5 444.69 272.22 344.76 293.1 344.76 169.38 444.69 148.5 444.69" style="fill: #b29c47;"/>
        <path d="m287.54,346.73l-118.86,96h-14.62l118.86-96h14.62m11.12-3.93h-27.13l-1.08.87-118.86,96-8.65,6.99h27.13l1.08-.87,118.86-96,8.65-6.99h0Z" style="fill: #7e1112;"/>
      </g>
    </g>
    <g>
      <path d="m130.16,162.68h-59.93v176.03h59.93c36.82,0,59.69-25.19,59.69-65.74v-43.58c0-41.15-22.87-66.71-59.69-66.71Zm11.98,66.95v42.85c0,10.11-2.06,20.45-17.3,20.45h-6.41v-84h6.41c8.99,0,17.3,2.51,17.3,20.7Z" style="fill: #380505;"/>
      <path d="m68.34,158.12h57.38c33.65,0,57.14,22.76,57.14,64.16v43.58c0,41.16-23.48,63.19-57.14,63.19h-57.38v-170.93Zm52.05,130.26c8.47,0,19.85-2.42,19.85-23v-42.85c0-20.58-10.65-23.24-19.85-23.24h-8.96v89.1h8.96Z" style="fill: #b29c47; stroke: #fff; stroke-miterlimit: 10; stroke-width: 5.73px;"/>
    </g>

    <g id="sheen">
      <g style="clip-path: url(#clippath);">
        <g id="sheen-lines" style="opacity: .1;">
          <polygon points="502.59 287.6 -41.22 476.89 -41.22 368.47 502.59 179.17 502.59 287.6" style="fill: #fff;"/>
          <polygon points="502.59 150.37 -41.22 339.67 -41.22 277.39 502.59 88.09 502.59 150.37" style="fill: #fff;"/>
        </g>
      </g>
    </g>
  </g>
</svg>