<?xml version="1.0" encoding="UTF-8"?>
<svg xmlns="http://www.w3.org/2000/svg" viewBox="0 0 467.23 573.4">
  <defs>
    <style>
      @keyframes shine {
        0% { opacity: .1; transform: translate(0, -1000px) }
        50% { opacity: .1; transform: translate(0, 1000px) }
        51% { opacity: 0; transform: translate(0, -1000px) }
        100% { opacity: 0; transform: translate(0, -1000px) }
      }
      #sheen-lines {
        transform: translate(0, -1000px);
        animation-name: shine;
        animation-duration: 4s;
        animation-iteration-count: infinite;
        animation-fill-mode: forwards;
        animation-delay: 1s;
        transform-origin: center;
        transform-box: fill-box;
      }
    </style>
      <clipPath id="clippath">
        <rect x="-38.46" y="67" width="545.28" height="439.3" rx="10.64" ry="10.64" transform="translate(520.83 52.47) rotate(90)" style="fill: none;"/>
      </clipPath>
  </defs>
  <g id="card">
    <rect x="7.53" y="7.01" width="453.3" height="559.28" rx="17.64" ry="17.64" style="fill: #7e1112; stroke: #b29c47; stroke-miterlimit: 10; stroke-width: 9.95px;"/>
  </g>
  <g id="ching">
    <g>
      <path d="m288.42,327.63c-1.46-.97-3.48-3.66-3.96-5.12.03-.01.05-.02.08-.03,8.79-3.52,10.99-9.53,10.21-13.6-.35-1.8-1.35-3.6-3.01-4.93.92-1.5,1.16-2.96,1.14-4.11-.08-4.68-4.06-7.13-7.25-9.11-.77-.47-1.5-.92-2.1-1.35.32-.27.71-.59,1.19-.95,5.06-3.8,7.66-8.95,7.14-14.14-.33-3.23-2.26-9.31-11.51-13.7-8.29-3.93-17.78-11.42-20.25-13.95-.62-2.39-2.58-9.87-5.02-17.9-5.47-18-8.32-22.55-10.4-24.62-5.06-5.06-5.55-7.56-4.7-10.93.64-2.57.97-7.53-4.03-11.86-2.45-2.12-5.62-3.64-8.68-5.1-1.67-.8-3.25-1.56-4.64-2.36-7.51-4.38-34.34-13.3-47.75-13.3-.92,0-1.79.04-2.58.12l-2,.2c-15.59,1.55-28.95,3.02-34.57,5.26-3.48,1.39-5.93,3.82-8.09,5.97-2.28,2.27-3.77,3.66-5.5,3.81-.65.05-1.4.08-2.27.08-.82,0-1.64-.02-2.52-.04-.88-.02-1.79-.05-2.69-.05h-.03c-3.13,0-10.41.02-14.44,6.73-.8,1.33-2.58,2.06-5.42,3.1-2.92,1.07-6.24,2.28-8.7,5.16-2.51,2.93-21.32,30.98-20.57,43.05.06,1.02.13,2.08.21,3.16.46,6.81,1.15,17.09-.37,20.9-3.6,9,3.33,28,15.13,41.48,4.63,5.29,9.7,12.02,14.59,18.53,7.96,10.57,14.83,19.7,20.27,23.59,4.18,2.98,5.71,7.27,4.98,13.9-.51,4.63-4.68,22.95-6.53,28.5-.32.1-.65.21-.95.3-4.87,1.54-15.01,4.76-15.69,14.34-.46,6.38-3.64,12.1-6.21,13.24-7.73,3.44-14.91,14.39-13.53,26.77l.3,2.67,2.24,1.48c6.46,4.28,38.92,25.72,43.52,28.02,3.14,1.57,6.38,2.24,10.82,2.24,2.27,0,4.8-.17,7.73-.36.77-.05,1.59-.1,2.44-.16,9.05-.57,87.8-8.71,91.15-9.05l7.8-.81-3.13-7.19c-3.94-9.04-8.26-20.37-8.57-23.22.6-4.94-.61-13.46-6.18-17.63.14-2.04,1.7-6.45,3.43-8.87,1.55-2.18,2.72-4.67,3.86-7.09,1.16-2.47,2.36-5.02,3.74-6.63,3.35-3.91,3.8-7.69,4.24-11.35.21-1.74.43-3.54.94-5.77,1.01-4.38,3.74-9.11,16.76-13.99,4.63-1.73,9.2-3.23,13.24-4.54,9.03-2.95,14.99-4.89,18.17-8.06,2.85-2.85,4.3-7.07,3.88-11.3-.39-3.97-2.33-7.39-5.32-9.39Z" style="fill: #380505;"/>
      <g>
        <path d="m127.41,461.35c-3.97,0-6.82-.58-9.54-1.94-4.62-2.31-41.64-26.8-43.22-27.84l-1.12-.74-.15-1.33c-1.21-10.93,5.21-20.88,11.85-23.83,3.93-1.75,7.4-8.62,7.9-15.66.55-7.64,8.78-10.25,13.7-11.81.77-.24,1.77-.56,2.3-.78,1.64-3.73,6.57-25.13,7.16-30.44.85-7.68-1.1-12.94-6.16-16.55-5.08-3.63-12.16-13.03-19.65-22.98-4.93-6.55-10.03-13.32-14.73-18.69-12.15-13.88-17.45-31.45-14.62-38.53,1.76-4.41,1.1-14.25.57-22.15-.07-1.08-.14-2.13-.21-3.15-.65-10.41,16.72-37.32,19.88-41.01,1.98-2.31,4.79-3.34,7.51-4.33,2.83-1.04,5.51-2.02,6.89-4.31,3.2-5.34,9.15-5.34,12-5.34.86,0,1.73.02,2.62.05.86.02,1.72.05,2.59.05.96,0,1.78-.03,2.51-.09,2.86-.24,4.91-2.27,7.29-4.63,2.06-2.05,4.2-4.17,7.13-5.34,5.7-2.28,21.94-3.89,33.79-5.07l2-.2c.7-.07,1.48-.11,2.3-.11,12.74,0,39.21,8.77,46.3,12.91,1.49.87,3.2,1.69,4.85,2.48,5.81,2.77,13.03,6.23,11.17,13.68-1.23,4.9.15,8.35,5.46,13.65,5.35,5.35,13.27,35.68,14.85,41.91,1.8,2.18,12.21,10.67,21.62,15.13,7.59,3.59,9.57,8.18,9.89,11.39.42,4.17-1.77,8.38-6.01,11.56-3.29,2.47-3.44,3.51-3.45,3.52.04.12.36.66,2.26,2.01.69.49,1.51,1,2.31,1.49,2.87,1.77,5.83,3.6,5.89,6.72.03,1.86-1.03,3.52-3.15,4.95,2.68.48,4.61,2.18,5.07,4.59.58,3.01-1.29,7.53-8.46,10.4-1.85.74-1.94,1.57-1.97,1.92-.27,2.56,3.34,6.96,5.32,8.28,2.27,1.51,3.75,4.17,4.06,7.28.33,3.38-.81,6.74-3.06,8.99-2.69,2.69-8.7,4.65-17.02,7.36-4.07,1.33-8.68,2.83-13.36,4.59-14.28,5.36-17.35,10.87-18.54,16.03-.55,2.39-.79,4.35-.99,6.08-.42,3.53-.79,6.58-3.58,9.83-1.63,1.91-2.92,4.64-4.15,7.28-1.08,2.3-2.19,4.67-3.59,6.64-2.87,4.02-4.77,11.04-3.72,12.24,5.21,2.98,6.6,11.07,5.92,15.87-.12,2.29,4.49,14.47,8.83,24.43l1.57,3.59-3.9.4c-3.35.35-82.04,8.48-91.03,9.04l-2.44.16c-2.89.19-5.38.35-7.55.35h0Z" style="fill: #b29c47;"/>
        <path d="m168.04,157.46c12.38,0,38.45,8.78,44.86,12.52,6.78,3.95,16.38,6.21,14.68,12.99-1.69,6.78,1.13,11.29,6.21,16.38,5.08,5.08,14.12,40.66,14.12,40.66-.56,1.13,12.42,11.86,23.15,16.94,10.73,5.08,10.16,12.99,3.39,18.07-6.78,5.08-5.08,7.34-1.13,10.16,3.95,2.82,10.16,5.08,5.08,8.47-5.08,3.39,0,5.08,0,5.08,5.65,0,5.65,6.21-2.82,9.6-8.47,3.39-.56,12.99,2.82,15.25,3.39,2.26,3.95,8.47.56,11.86-3.39,3.39-15.81,6.21-29.36,11.29-13.55,5.08-18.64,10.73-20.33,18.07-1.69,7.34-.56,10.73-3.95,14.68-3.39,3.95-5.08,10.16-7.91,14.12-2.82,3.95-6.78,14.12-2.82,16.38,3.95,2.26,5.08,9.04,4.52,12.99-.56,3.95,9.04,25.98,9.04,25.98,0,0-81.88,8.47-90.92,9.04-4.04.25-7.18.51-9.82.51-3.26,0-5.76-.39-8.25-1.63-4.52-2.26-42.92-27.67-42.92-27.67-1.13-10.16,5.08-18.64,10.16-20.89,5.08-2.26,9.04-10.16,9.6-18.07.56-7.91,13.55-9.04,15.25-10.73,1.69-1.69,7.34-27.11,7.91-32.19.56-5.08.56-13.55-7.34-19.2-7.91-5.65-22.02-27.67-33.88-41.22-11.86-13.55-16.38-29.93-14.12-35.58,2.26-5.65,1.13-17.51.56-26.54-.56-9.04,15.81-35.01,19.2-38.96,3.39-3.95,11.29-3.39,14.68-9.04,2.06-3.43,5.58-3.94,9.55-3.94,1.68,0,3.45.09,5.21.09.92,0,1.84-.02,2.75-.1,6.78-.56,9.6-7.91,15.25-10.16,5.65-2.26,23.72-3.95,35.01-5.08.62-.06,1.29-.09,2.01-.09m0-5.73c-.92,0-1.79.04-2.58.12l-2,.2c-15.59,1.55-28.95,3.02-34.57,5.27-3.48,1.39-5.93,3.82-8.09,5.97-2.28,2.27-3.77,3.66-5.5,3.81-.65.05-1.4.08-2.27.08-.82,0-1.64-.02-2.52-.04-.88-.02-1.79-.05-2.69-.05h-.03c-3.13,0-10.41.02-14.44,6.73-.8,1.33-2.58,2.06-5.42,3.1-2.92,1.07-6.24,2.28-8.7,5.16-2.51,2.93-21.32,30.98-20.57,43.05.06,1.02.13,2.08.21,3.16.46,6.81,1.15,17.09-.37,20.9-3.6,9,3.33,28,15.13,41.48,4.63,5.29,9.7,12.02,14.59,18.53,7.96,10.57,14.83,19.7,20.27,23.59,4.18,2.98,5.71,7.27,4.98,13.9-.51,4.63-4.68,22.95-6.53,28.5-.32.1-.65.21-.95.3-4.87,1.54-15.01,4.76-15.69,14.34-.46,6.38-3.64,12.1-6.21,13.24-7.73,3.44-14.91,14.39-13.53,26.77l.3,2.67,2.24,1.48c6.46,4.28,38.92,25.72,43.52,28.02,3.14,1.57,6.38,2.24,10.82,2.24,2.27,0,4.8-.17,7.73-.36.78-.05,1.59-.1,2.44-.16,9.05-.57,87.8-8.71,91.15-9.05l7.8-.81-3.13-7.19c-3.94-9.04-8.26-20.37-8.57-23.22.6-4.94-.61-13.46-6.18-17.63.14-2.04,1.7-6.45,3.43-8.87,1.55-2.18,2.72-4.67,3.86-7.09,1.16-2.47,2.36-5.02,3.74-6.63,3.35-3.91,3.8-7.69,4.24-11.35.21-1.74.43-3.54.94-5.77,1.01-4.38,3.74-9.11,16.76-13.99,4.63-1.73,9.2-3.23,13.24-4.54,9.03-2.95,14.99-4.89,18.17-8.06,2.85-2.85,4.3-7.07,3.88-11.3-.39-3.97-2.33-7.39-5.32-9.39-1.46-.97-3.48-3.66-3.96-5.12.03-.01.05-.02.08-.03,8.79-3.52,10.99-9.53,10.21-13.6-.35-1.8-1.35-3.6-3.01-4.93.92-1.5,1.16-2.96,1.14-4.11-.08-4.68-4.06-7.13-7.25-9.11-.77-.47-1.5-.92-2.1-1.35.32-.27.71-.59,1.19-.95,5.06-3.8,7.66-8.95,7.14-14.14-.33-3.23-2.26-9.31-11.51-13.7-8.29-3.93-17.78-11.42-20.25-13.95-.62-2.39-2.58-9.87-5.02-17.9-5.47-18-8.32-22.55-10.4-24.62-5.06-5.06-5.55-7.56-4.7-10.93.64-2.57.97-7.53-4.03-11.86-2.45-2.12-5.62-3.64-8.68-5.1-1.67-.8-3.25-1.56-4.64-2.36-7.51-4.38-34.34-13.3-47.75-13.3h0Z" style="fill: #fff;"/>
      </g>
    </g>
    <g>
      <polygon points="350.38 326.21 319.92 340.44 289.45 354.67 302.91 385.49 316.38 416.3 326.59 389.25 391.69 414.22 405.27 378.23 340.17 353.26 350.38 326.21" style="fill: #380505;"/>
      <polygon points="355.65 315.6 325.19 329.83 294.72 344.07 308.18 374.88 321.65 405.69 331.86 378.64 396.96 403.61 410.54 367.62 345.44 342.65 355.65 315.6" style="fill: #b29c47; stroke: #fff; stroke-miterlimit: 10; stroke-width: 5.06px;"/>
    </g>
    <g>
      <polygon points="301.54 102.87 270.32 102.87 270.32 126.67 246.21 126.67 246.21 157.74 270.32 157.74 270.32 181.53 301.54 181.53 301.54 157.74 325.65 157.74 325.65 126.67 301.54 126.67 301.54 102.87" style="fill: #380505;"/>
      <path d="m372.89,165.05h6.08c-.73,3.77-3.01,3.77-5.06,3.77-2.36,0-5.31,0-5.31-6.71v-39.66c0-6.86,2.34-6.86,5.31-6.86,2.73,0,5.31,0,5.31,6.86v3.71h35.19l-.08-3.79c-.51-23.93-17.13-40.65-40.42-40.65s-40.42,17.13-40.42,41.66v37.79c0,24.44,16.62,41.51,40.42,41.51s40.42-17.07,40.42-41.51v-23.47h-41.43v27.34Z" style="fill: #380505;"/>
    </g>
    <g>
      <path d="m273.93,145.62h-24.11v-23.64h24.11v-23.8h23.8v23.8h24.11v23.64h-24.11v23.8h-23.8v-23.8Z" style="fill: #b29c47; stroke: #fff; stroke-miterlimit: 10; stroke-width: 5.73px;"/>
      <path d="m337.09,152.77v-37.79c0-22.4,15.09-37.95,36.7-37.95s36.24,15.24,36.7,37.01h-27.68c0-9.49-4.82-10.58-9.02-10.58s-9.02,1.09-9.02,10.58v39.66c0,9.33,5.29,10.42,9.02,10.42s9.02-1.09,9.02-10.42v-.78h-6.32v-19.91h34v19.75c0,22.24-15.09,37.79-36.7,37.79s-36.7-15.55-36.7-37.79Z" style="fill: #b29c47; stroke: #fff; stroke-miterlimit: 10; stroke-width: 5.73px;"/>
    </g>

    <g id="sheen">
      <g style="clip-path: url(#clippath);">
        <g id="sheen-lines" style="opacity: .1;">
          <polygon points="502.59 287.6 -41.22 476.89 -41.22 368.47 502.59 179.17 502.59 287.6" style="fill: #fff;"/>
          <polygon points="502.59 150.37 -41.22 339.67 -41.22 277.39 502.59 88.09 502.59 150.37" style="fill: #fff;"/>
        </g>
      </g>
    </g>
  </g>
</svg>