<?xml version="1.0" encoding="UTF-8"?>
<svg xmlns="http://www.w3.org/2000/svg" viewBox="0 0 1920 800">
  <g id="Layer_1" data-name="Layer 1">
    <rect x="-7.3" y="-9.37" width="1942.58" height="822.21" style="fill: #f8f8f8;"/>
    <g>
      <g>
        <line x1="22.07" y1="-11.63" x2="22.07" y2="819.62" style="fill: none; stroke: #fff; stroke-miterlimit: 10;"/>
        <line x1="52.77" y1="-11.63" x2="52.77" y2="819.62" style="fill: none; stroke: #fff; stroke-miterlimit: 10;"/>
        <line x1="83.46" y1="-11.63" x2="83.46" y2="819.62" style="fill: none; stroke: #fff; stroke-miterlimit: 10;"/>
        <line x1="114.16" y1="-11.63" x2="114.16" y2="819.62" style="fill: none; stroke: #fff; stroke-miterlimit: 10;"/>
        <line x1="144.86" y1="-11.63" x2="144.86" y2="819.62" style="fill: none; stroke: #fff; stroke-miterlimit: 10;"/>
        <line x1="175.56" y1="-11.63" x2="175.56" y2="819.62" style="fill: none; stroke: #fff; stroke-miterlimit: 10;"/>
        <line x1="206.25" y1="-11.63" x2="206.25" y2="819.62" style="fill: none; stroke: #fff; stroke-miterlimit: 10;"/>
        <line x1="236.95" y1="-11.63" x2="236.95" y2="819.62" style="fill: none; stroke: #fff; stroke-miterlimit: 10;"/>
        <line x1="267.65" y1="-11.63" x2="267.65" y2="819.62" style="fill: none; stroke: #fff; stroke-miterlimit: 10;"/>
        <line x1="298.35" y1="-11.63" x2="298.35" y2="819.62" style="fill: none; stroke: #fff; stroke-miterlimit: 10;"/>
        <line x1="329.04" y1="-11.63" x2="329.04" y2="819.62" style="fill: none; stroke: #fff; stroke-miterlimit: 10;"/>
        <line x1="359.74" y1="-11.63" x2="359.74" y2="819.62" style="fill: none; stroke: #fff; stroke-miterlimit: 10;"/>
        <line x1="390.44" y1="-11.63" x2="390.44" y2="819.62" style="fill: none; stroke: #fff; stroke-miterlimit: 10;"/>
        <line x1="421.14" y1="-11.63" x2="421.14" y2="819.62" style="fill: none; stroke: #fff; stroke-miterlimit: 10;"/>
        <line x1="451.84" y1="-11.63" x2="451.84" y2="819.62" style="fill: none; stroke: #fff; stroke-miterlimit: 10;"/>
        <line x1="482.53" y1="-11.63" x2="482.53" y2="819.62" style="fill: none; stroke: #fff; stroke-miterlimit: 10;"/>
        <line x1="513.23" y1="-11.63" x2="513.23" y2="819.62" style="fill: none; stroke: #fff; stroke-miterlimit: 10;"/>
        <line x1="543.93" y1="-11.63" x2="543.93" y2="819.62" style="fill: none; stroke: #fff; stroke-miterlimit: 10;"/>
        <line x1="574.63" y1="-11.63" x2="574.63" y2="819.62" style="fill: none; stroke: #fff; stroke-miterlimit: 10;"/>
        <line x1="605.32" y1="-11.63" x2="605.32" y2="819.62" style="fill: none; stroke: #fff; stroke-miterlimit: 10;"/>
        <line x1="636.02" y1="-11.63" x2="636.02" y2="819.62" style="fill: none; stroke: #fff; stroke-miterlimit: 10;"/>
        <line x1="666.72" y1="-11.63" x2="666.72" y2="819.62" style="fill: none; stroke: #fff; stroke-miterlimit: 10;"/>
        <line x1="697.42" y1="-11.63" x2="697.42" y2="819.62" style="fill: none; stroke: #fff; stroke-miterlimit: 10;"/>
        <line x1="728.12" y1="-11.63" x2="728.12" y2="819.62" style="fill: none; stroke: #fff; stroke-miterlimit: 10;"/>
        <line x1="758.81" y1="-11.63" x2="758.81" y2="819.62" style="fill: none; stroke: #fff; stroke-miterlimit: 10;"/>
        <line x1="789.51" y1="-11.63" x2="789.51" y2="819.62" style="fill: none; stroke: #fff; stroke-miterlimit: 10;"/>
        <line x1="820.21" y1="-11.63" x2="820.21" y2="819.62" style="fill: none; stroke: #fff; stroke-miterlimit: 10;"/>
        <line x1="850.91" y1="-11.63" x2="850.91" y2="819.62" style="fill: none; stroke: #fff; stroke-miterlimit: 10;"/>
        <line x1="881.6" y1="-11.63" x2="881.6" y2="819.62" style="fill: none; stroke: #fff; stroke-miterlimit: 10;"/>
        <line x1="912.3" y1="-11.63" x2="912.3" y2="819.62" style="fill: none; stroke: #fff; stroke-miterlimit: 10;"/>
        <line x1="943" y1="-11.63" x2="943" y2="819.62" style="fill: none; stroke: #fff; stroke-miterlimit: 10;"/>
        <line x1="973.7" y1="-11.63" x2="973.7" y2="819.62" style="fill: none; stroke: #fff; stroke-miterlimit: 10;"/>
        <line x1="1004.39" y1="-11.63" x2="1004.39" y2="819.62" style="fill: none; stroke: #fff; stroke-miterlimit: 10;"/>
        <line x1="1035.09" y1="-11.63" x2="1035.09" y2="819.62" style="fill: none; stroke: #fff; stroke-miterlimit: 10;"/>
        <line x1="1065.79" y1="-11.63" x2="1065.79" y2="819.62" style="fill: none; stroke: #fff; stroke-miterlimit: 10;"/>
        <line x1="1096.49" y1="-11.63" x2="1096.49" y2="819.62" style="fill: none; stroke: #fff; stroke-miterlimit: 10;"/>
        <line x1="1127.19" y1="-11.63" x2="1127.19" y2="819.62" style="fill: none; stroke: #fff; stroke-miterlimit: 10;"/>
        <line x1="1157.88" y1="-11.63" x2="1157.88" y2="819.62" style="fill: none; stroke: #fff; stroke-miterlimit: 10;"/>
        <line x1="1188.58" y1="-11.63" x2="1188.58" y2="819.62" style="fill: none; stroke: #fff; stroke-miterlimit: 10;"/>
        <line x1="1219.28" y1="-11.63" x2="1219.28" y2="819.62" style="fill: none; stroke: #fff; stroke-miterlimit: 10;"/>
        <line x1="1249.98" y1="-11.63" x2="1249.98" y2="819.62" style="fill: none; stroke: #fff; stroke-miterlimit: 10;"/>
        <line x1="1280.67" y1="-11.63" x2="1280.67" y2="819.62" style="fill: none; stroke: #fff; stroke-miterlimit: 10;"/>
        <line x1="1311.37" y1="-11.63" x2="1311.37" y2="819.62" style="fill: none; stroke: #fff; stroke-miterlimit: 10;"/>
        <line x1="1342.07" y1="-11.63" x2="1342.07" y2="819.62" style="fill: none; stroke: #fff; stroke-miterlimit: 10;"/>
        <line x1="1372.77" y1="-11.63" x2="1372.77" y2="819.62" style="fill: none; stroke: #fff; stroke-miterlimit: 10;"/>
        <line x1="1403.47" y1="-11.63" x2="1403.47" y2="819.62" style="fill: none; stroke: #fff; stroke-miterlimit: 10;"/>
        <line x1="1434.16" y1="-11.63" x2="1434.16" y2="819.62" style="fill: none; stroke: #fff; stroke-miterlimit: 10;"/>
        <line x1="1464.86" y1="-11.63" x2="1464.86" y2="819.62" style="fill: none; stroke: #fff; stroke-miterlimit: 10;"/>
        <line x1="1495.56" y1="-11.63" x2="1495.56" y2="819.62" style="fill: none; stroke: #fff; stroke-miterlimit: 10;"/>
        <line x1="1526.26" y1="-11.63" x2="1526.26" y2="819.62" style="fill: none; stroke: #fff; stroke-miterlimit: 10;"/>
        <line x1="1556.95" y1="-11.63" x2="1556.95" y2="819.62" style="fill: none; stroke: #fff; stroke-miterlimit: 10;"/>
        <line x1="1587.65" y1="-11.63" x2="1587.65" y2="819.62" style="fill: none; stroke: #fff; stroke-miterlimit: 10;"/>
        <line x1="1618.35" y1="-11.63" x2="1618.35" y2="819.62" style="fill: none; stroke: #fff; stroke-miterlimit: 10;"/>
        <line x1="1649.05" y1="-11.63" x2="1649.05" y2="819.62" style="fill: none; stroke: #fff; stroke-miterlimit: 10;"/>
        <line x1="1679.74" y1="-11.63" x2="1679.74" y2="819.62" style="fill: none; stroke: #fff; stroke-miterlimit: 10;"/>
        <line x1="1710.44" y1="-11.63" x2="1710.44" y2="819.62" style="fill: none; stroke: #fff; stroke-miterlimit: 10;"/>
        <line x1="1741.14" y1="-11.63" x2="1741.14" y2="819.62" style="fill: none; stroke: #fff; stroke-miterlimit: 10;"/>
        <line x1="1771.84" y1="-11.63" x2="1771.84" y2="819.62" style="fill: none; stroke: #fff; stroke-miterlimit: 10;"/>
        <line x1="1802.54" y1="-11.63" x2="1802.54" y2="819.62" style="fill: none; stroke: #fff; stroke-miterlimit: 10;"/>
        <line x1="1833.23" y1="-11.63" x2="1833.23" y2="819.62" style="fill: none; stroke: #fff; stroke-miterlimit: 10;"/>
        <line x1="1863.93" y1="-11.63" x2="1863.93" y2="819.62" style="fill: none; stroke: #fff; stroke-miterlimit: 10;"/>
        <line x1="1894.63" y1="-11.63" x2="1894.63" y2="819.62" style="fill: none; stroke: #fff; stroke-miterlimit: 10;"/>
      </g>
      <g>
        <line x1="1966.91" y1="20.27" x2="-36.66" y2="20.27" style="fill: none; stroke: #fff; stroke-miterlimit: 10;"/>
        <line x1="1966.91" y1="50.97" x2="-36.66" y2="50.97" style="fill: none; stroke: #fff; stroke-miterlimit: 10;"/>
        <line x1="1966.91" y1="81.67" x2="-36.66" y2="81.67" style="fill: none; stroke: #fff; stroke-miterlimit: 10;"/>
        <line x1="1966.91" y1="112.37" x2="-36.66" y2="112.37" style="fill: none; stroke: #fff; stroke-miterlimit: 10;"/>
        <line x1="1966.91" y1="143.07" x2="-36.66" y2="143.07" style="fill: none; stroke: #fff; stroke-miterlimit: 10;"/>
        <line x1="1966.91" y1="173.76" x2="-36.66" y2="173.76" style="fill: none; stroke: #fff; stroke-miterlimit: 10;"/>
        <line x1="1966.91" y1="204.46" x2="-36.66" y2="204.46" style="fill: none; stroke: #fff; stroke-miterlimit: 10;"/>
        <line x1="1966.91" y1="235.16" x2="-36.66" y2="235.16" style="fill: none; stroke: #fff; stroke-miterlimit: 10;"/>
        <line x1="1966.91" y1="265.86" x2="-36.66" y2="265.86" style="fill: none; stroke: #fff; stroke-miterlimit: 10;"/>
        <line x1="1966.91" y1="296.55" x2="-36.66" y2="296.55" style="fill: none; stroke: #fff; stroke-miterlimit: 10;"/>
        <line x1="1966.91" y1="327.25" x2="-36.66" y2="327.25" style="fill: none; stroke: #fff; stroke-miterlimit: 10;"/>
        <line x1="1966.91" y1="357.95" x2="-36.66" y2="357.95" style="fill: none; stroke: #fff; stroke-miterlimit: 10;"/>
        <line x1="1966.91" y1="388.65" x2="-36.66" y2="388.65" style="fill: none; stroke: #fff; stroke-miterlimit: 10;"/>
        <line x1="1966.91" y1="419.34" x2="-36.66" y2="419.34" style="fill: none; stroke: #fff; stroke-miterlimit: 10;"/>
        <line x1="1966.91" y1="450.04" x2="-36.66" y2="450.04" style="fill: none; stroke: #fff; stroke-miterlimit: 10;"/>
        <line x1="1966.91" y1="480.74" x2="-36.66" y2="480.74" style="fill: none; stroke: #fff; stroke-miterlimit: 10;"/>
        <line x1="1966.91" y1="511.44" x2="-36.66" y2="511.44" style="fill: none; stroke: #fff; stroke-miterlimit: 10;"/>
        <line x1="1966.91" y1="542.14" x2="-36.66" y2="542.14" style="fill: none; stroke: #fff; stroke-miterlimit: 10;"/>
        <line x1="1966.91" y1="572.83" x2="-36.66" y2="572.83" style="fill: none; stroke: #fff; stroke-miterlimit: 10;"/>
        <line x1="1966.91" y1="603.53" x2="-36.66" y2="603.53" style="fill: none; stroke: #fff; stroke-miterlimit: 10;"/>
        <line x1="1966.91" y1="634.23" x2="-36.66" y2="634.23" style="fill: none; stroke: #fff; stroke-miterlimit: 10;"/>
        <line x1="1966.91" y1="664.93" x2="-36.66" y2="664.93" style="fill: none; stroke: #fff; stroke-miterlimit: 10;"/>
        <line x1="1966.91" y1="695.62" x2="-36.66" y2="695.62" style="fill: none; stroke: #fff; stroke-miterlimit: 10;"/>
        <line x1="1966.91" y1="726.32" x2="-36.66" y2="726.32" style="fill: none; stroke: #fff; stroke-miterlimit: 10;"/>
        <line x1="1966.91" y1="757.02" x2="-36.66" y2="757.02" style="fill: none; stroke: #fff; stroke-miterlimit: 10;"/>
        <line x1="1966.91" y1="787.72" x2="-36.66" y2="787.72" style="fill: none; stroke: #fff; stroke-miterlimit: 10;"/>
      </g>
    </g>
  </g>
  <g id="Layer_2" data-name="Layer 2">
    <g>
      <g style="opacity: .5;">
        <path d="m331.89,532.76c41.55,33.1,47.17,76.75,47.17,76.75h-227.1c4.68-90.68,30.43-122.07,52.46-132.01,17.51,10.45,39.18,21.39,61.96,26.39,51.4,11.26,65.49,28.87,65.49,28.87Z" style="fill: #659bdb;"/>
        <path d="m236.77,475.12c-14.62-5.44-45.14-31.72-51.07-36.9l3.22-15.68.82-2c18.01,16.92,53.65,48.37,79.46,57.99,64.78,32.39,62.68,54.22,62.68,54.22,0,0-14.09-17.61-65.49-28.87-22.78-5-44.46-15.94-61.96-26.39,15.44-6.97,29.06-3.43,32.35-2.38Z" style="fill: #659bdb;"/>
        <path d="m138.92,316.69c1.86,4.96,4,10.09,6.53,15.11,5.01,10,11.53,19.65,20.24,27.02,5.39,4.58,8.95,9.76,11.26,15.03-8.39,5.2-18.28,8.21-28.87,8.21-14.7,0-28.05-5.77-37.9-15.16l2.68-.32c-11.61-39.08,24.3-48.6,24.3-48.6l1.75-1.28Z" style="fill: #639bdb;"/>
        <path d="m335.45,221.51c-7.49.11-43.86,1.82-45.12,23.93-1.41,24.64-11.27,24.64-23.94,30.99-12.67,6.33-20.43,38.02-22.53,38.73-2.11.7-23.24-13.38-23.24-13.38,0,0-16.9-19.73-28.87-3.53-4.34,5.87-4.51,12.86-2.59,19.65l-.22.06s-7.03,13.38-2.11,34.52c4.13,17.67-3.58,38.31-6.21,44.57.46-6.58-.06-14.99-3.65-23.21-2.31-5.26-5.87-10.45-11.26-15.03-8.7-7.37-15.23-17.02-20.24-27.02l.16-.09s-21.12-84.51,23.24-115.14c44.36-30.64,70.77-35.91,110.91-33.81l.51-2.37c42.9,9.19,52.89,32.29,55.17,41.11Z" style="fill: #639bdb;"/>
        <path d="m236.77,475.12c-3.29-1.05-16.91-4.59-32.35,2.38-9.19-5.49-17.22-10.84-23.67-15.11l4.95-24.17c5.92,5.18,36.45,31.46,51.07,36.9Z" style="fill: #bad4f8;"/>
        <path d="m204.43,477.5c-22.03,9.94-47.79,41.33-52.46,132.01h-30.64c3.17-92.95,59.16-145.76,59.16-145.76l.27-1.36c6.45,4.28,14.48,9.63,23.67,15.11Z" style="fill: #bad4f8;"/>
        <path d="m189.15,317.91c-1.92-6.8-1.75-13.78,2.59-19.65,11.97-16.2,28.87,3.53,28.87,3.53,0,0,21.14,14.08,23.24,13.38,2.11-.71,9.86-32.4,22.53-38.73,12.67-6.35,22.53-6.35,23.94-30.99,1.26-22.11,37.62-23.82,45.12-23.93.56,2.19.66,3.5.66,3.5,21.12,14.79,19,51.41,19,63.39s14.79,21.12,18.32,30.28c3.52,9.15-14.79,16.2-14.79,16.2,4.21,11.26-2.12,14.79-16.2,21.12-14.09,6.33-2.82,18.31,1.41,25.35s2.11,12.67-4.94,18.31c-7.03,5.64,2.12,10.56-4.93,16.9-15.49,11.27-35.2.71-35.2.71-26.06,9.85-29.58,61.27-29.58,61.27-25.81-9.61-61.45-41.06-79.46-57.99-7.05-6.62-11.39-11.02-11.39-11.02,0,0,1.73-5.1,2.24-12.47,2.63-6.26,10.34-26.9,6.21-44.57-4.93-21.14,2.11-34.52,2.11-34.52l.22-.06Z" style="fill: #b9d4f8;"/>
      </g>
      <g>
        <path d="m230.48,348.26c-5.64,6.33-15.49,2.11-23.24-3.53-4.93-3.58-14.73-14.89-18.08-26.82-1.92-6.8-1.75-13.78,2.59-19.65,11.97-16.2,28.87,3.53,28.87,3.53,0,0,21.14,14.08,23.24,13.38,2.11-.71,9.86-32.4,22.53-38.73,12.67-6.35,22.53-6.35,23.94-30.99,1.26-22.11,37.62-23.82,45.12-23.93" style="fill: none; stroke: #185093; stroke-linecap: round; stroke-linejoin: round; stroke-width: 5.62px;"/>
        <path d="m180.61,397.06c2.63-6.26,10.34-26.9,6.21-44.57-4.93-21.14,2.11-34.52,2.11-34.52" style="fill: none; stroke: #185093; stroke-linecap: round; stroke-linejoin: round; stroke-width: 5.62px;"/>
        <path d="m164.29,453.19s4.23-19.72,5.64-33.81c1.4-14.08,8.44-9.85,8.44-9.85" style="fill: none; stroke: #185093; stroke-linecap: round; stroke-linejoin: round; stroke-width: 5.62px;"/>
        <path d="m180.61,397.06c-.51,7.37-2.24,12.47-2.24,12.47" style="fill: none; stroke: #185093; stroke-linecap: round; stroke-linejoin: round; stroke-width: 5.62px;"/>
        <path d="m269.21,478.54c64.78,32.39,62.68,54.22,62.68,54.22" style="fill: none; stroke: #185093; stroke-linecap: round; stroke-linejoin: round; stroke-width: 5.62px;"/>
        <path d="m269.21,478.54s3.52-51.41,29.58-61.27" style="fill: none; stroke: #185093; stroke-linecap: round; stroke-linejoin: round; stroke-width: 5.62px;"/>
        <path d="m180.61,397.06c.46-6.58-.06-14.99-3.65-23.21" style="fill: none; stroke: #185093; stroke-linecap: round; stroke-linejoin: round; stroke-width: 5.62px;"/>
        <path d="m128.35,275.87c-.5-27.56,11.73-85.97,69.73-96.62,35.94-4.35,62.54-3.07,82.2,1.15,42.9,9.19,52.89,32.29,55.17,41.11" style="fill: none; stroke: #185093; stroke-linecap: round; stroke-linejoin: round; stroke-width: 5.62px;"/>
        <path d="m298.79,417.27s19.72,10.56,35.2-.71c7.05-6.33-2.11-11.26,4.93-16.9,7.05-5.64,9.17-11.26,4.94-18.31s-15.5-19.02-1.41-25.35c14.08-6.33,20.41-9.86,16.2-21.12,0,0,18.31-7.05,14.79-16.2-3.53-9.15-18.32-18.31-18.32-30.28s2.12-48.6-19-63.39c0,0-.1-1.31-.66-3.5" style="fill: none; stroke: #185093; stroke-linecap: round; stroke-linejoin: round; stroke-width: 5.62px;"/>
        <path d="m164.29,453.19s-59.16,63.37-58.45,156.33h273.22s-5.62-43.66-47.17-76.75" style="fill: none; stroke: #185093; stroke-linecap: round; stroke-linejoin: round; stroke-width: 5.62px;"/>
        <path d="m176.95,373.85c-2.31-5.26-5.87-10.45-11.26-15.03-8.7-7.37-15.23-17.02-20.24-27.02-2.53-5.03-4.68-10.15-6.53-15.11-4.3-11.52-7-22.21-9.14-28.99-.79-2.47-1.35-6.6-1.43-11.82" style="fill: none; stroke: #185093; stroke-linecap: round; stroke-linejoin: round; stroke-width: 5.62px;"/>
        <path d="m128.35,275.87c-20.58,7.93-35.19,27.88-35.19,51.27,0,15.64,6.53,29.75,17.03,39.76,9.85,9.39,23.19,15.16,37.9,15.16,10.59,0,20.48-3.01,28.87-8.21" style="fill: none; stroke: #185093; stroke-linecap: round; stroke-linejoin: round; stroke-width: 5.62px;"/>
        <path d="m269.21,478.54c-25.81-9.61-61.45-41.06-79.46-57.99-7.05-6.62-11.39-11.02-11.39-11.02" style="fill: none; stroke: #185093; stroke-linecap: round; stroke-linejoin: round; stroke-width: 5.62px;"/>
        <path d="m331.89,532.76s-14.09-17.61-65.49-28.87c-22.78-5-44.46-15.94-61.96-26.39-9.19-5.49-17.22-10.84-23.67-15.11-8.98-5.99-14.88-9.89-16.47-9.2" style="fill: none; stroke: #185093; stroke-linecap: round; stroke-linejoin: round; stroke-width: 5.62px;"/>
        <path d="m249.49,384.87s23.23,25.35,49.29,32.4" style="fill: none; stroke: #185093; stroke-linecap: round; stroke-linejoin: round; stroke-width: 5.62px;"/>
      </g>
      <path d="m393.29,363.69s.06.01.09.02c6.69,1.86,10.21,10.23,7.86,18.71-2.35,8.47-9.69,13.83-16.38,11.97-.03,0-.06-.02-.09-.03" style="fill: none; stroke: #185093; stroke-linecap: round; stroke-miterlimit: 10; stroke-width: 5.62px;"/>
      <path d="m418.71,346.15c.08.02.15.03.23.05,16.44,4.57,25.08,25.13,19.3,45.92s-23.79,33.96-40.22,29.39c-.08-.02-.15-.06-.22-.08" style="fill: none; stroke: #185093; stroke-linecap: round; stroke-miterlimit: 10; stroke-width: 5.62px;"/>
      <path d="m436.85,318.15c.14.04.28.05.41.09,29.76,8.27,45.41,45.5,34.95,83.16-10.46,37.66-43.07,61.49-72.83,53.22-.14-.04-.26-.1-.4-.14" style="fill: none; stroke: #185093; stroke-linecap: round; stroke-miterlimit: 10; stroke-width: 5.62px;"/>
    </g>
  </g>
  <g id="Layer_4" data-name="Layer 4">
    <rect x="1242.33" y="180.04" width="578.63" height="442.96" rx="35.5" ry="35.5" style="fill: #fff; opacity: .4; stroke: #fff; stroke-miterlimit: 10; stroke-width: 6px;"/>
    <g>
      <g>
        <path d="m1789.27,436.31c2.42,18.72,2.05,136.21.86,157.54h-334.67c-.31-8.48-.98-35.35,1.79-52.78-.06-.02-.12-.05-.18-.07l.05-.11c1.04-5.2,3.16-12.25,5.1-14.18,1.94-1.94,4.83-3.76,8.4-5.45,6.3-2.97,14.71-5.51,23.71-7.49,10.35-2.27,21.47-3.79,31.05-4.35,7.02-.42,25.95-2.37,48.73-4.86l-.16-.13c49.74-5.5,120.27-13.63,120.27-13.63,0,0,10.63-3.33,19.27-13.96,8.65-10.63-2.65-38.56-5.31-55.18-2.66-16.61-21.28-27.91-17.29-34.56,3.99-6.65-.66-19.28-.66-19.28,0,0,65.14-3.32,70.46-1.33,5.31,1.99,25.92,49.19,28.58,69.8Z" style="fill: #2461a3; opacity: .5;"/>
        <path d="m1553.28,458.91s-10.67,3.1-19.38,4.09c.86-1.25,4.69-6.87,8.99-14.82,4.61-8.53,30.44-37.43,33.13-41.48l1.19,1.68s21.27-41.88,23.93-55.17l-1.99-7.31s32.58-1.99,50.52,1.99,40.55,19.94,40.55,19.94c0,0,4.65,12.63.66,19.28-3.99,6.65,14.63,17.95,17.29,34.56,2.66,16.62,13.96,44.54,5.31,55.18-8.64,10.63-19.27,13.96-19.27,13.96,0,0-70.53,8.13-120.27,13.63l-4.71-3.66s16.62-1.33,13.29-19.94c-3.32-18.61-29.25-21.93-29.25-21.93Z" style="fill: #659bdb; opacity: .5;"/>
        <path d="m1601.37,271.18c2.94-3.88,9.23-10.27,11.74,2.27,3.22,16.11-6.05,42.83-11.47,35.38-1.49,11.78-4.49,29.77-4.49,29.77,0,15.95-20.61,35.9-33.24,39.22-2.4.63-4.41,1.77-6.11,3.19-7.21,6.07-8.52,17.42-8.52,17.42,0,0-5.98-10.64-18.61-18.61-6.07-3.84-9.83-11.36-13.14-19.39-.74-1.8-1.46-3.63-2.18-5.45-2.73-6.94-5.44-13.72-9.27-18.37-6.12-7.43-5.63-11.42-5.52-29.92.04-6.42.03-14.59-.31-25.25l.52-.02s2.21-28.8,8.42-31.9c.44-1.33-2.66-16.84,8.41-23.49,11.08-6.65,18.61-3.11,18.61-3.11l23.94.45s22.6-6.65,28.36,14.62c2.66,9.75-.45,14.63-.45,14.63,0,0,8.87,15.51,7.98,26.15l3.77-5.32s.6-1,1.55-2.27Z" style="fill: #b9d4f8; opacity: .5;"/>
        <path d="m1557.93,212.29s49.17,2.21,43.44,58.89c-.96,1.27-1.55,2.27-1.55,2.27l-3.77,5.32c.89-10.64-7.98-26.15-7.98-26.15,0,0,3.11-4.87.45-14.63-5.76-21.27-28.36-14.62-28.36-14.62l-23.94-.45s-7.53-3.54-18.61,3.11c-11.07,6.65-7.97,22.15-8.41,23.49-6.21,3.1-8.42,31.9-8.42,31.9l-.52.02c-.1-2.9-.22-6-.37-9.29-.13-2.75-.27-5.63-.45-8.67-3.32-58.5,58.5-51.18,58.5-51.18Z" style="fill: #659bdb; opacity: .5;"/>
        <path d="m1576.02,406.71l-18.09-25.58-.12-.13c1.7-1.42,3.7-2.56,6.11-3.19,12.63-3.33,33.24-23.27,33.24-39.22l1.99,7.31,1.99,7.31c-2.66,13.29-23.93,55.17-23.93,55.17l-1.19-1.68Z" style="fill: #91b8e2; opacity: .5;"/>
        <path d="m1470.55,521.15c-2.86,1.4-8.44-.31-13.65-2.39-2.46-.99-4.83-2.05-6.81-2.91-2.64-1.15-6.58-3.13-10.2-5l-.14.27s-13.29,2.95-16.83,5.32c-1.74,1.15-3.12,3.17-2.83,4.95-6.76-4.14-12.16-7.69-14.38-9.32-5-3.63-18.99-14.09-31.17-22.04,1.24-2,19.31-30.17,40.48-21.82l.24-.09c-.75-2,.54-4.5,7.07-7.22,7.89-3.29,16.44-5.12,23.94-5.8,7.67-.69,14.24-.2,17.94,1.15,3.22,1.18,7.21,2.21,10.67,3.01l.03-.13c6.4-.15,8.83-2.86,9.68-5.44,1.51.32,6.66,1.44,12.89,2.81,6.62,1.45,14.45,3.19,20.34,4.56,3.31.77,6.01,1.42,7.54,1.84,2.05.56,5.14.49,8.53.1,8.71-.99,19.38-4.09,19.38-4.09,0,0,25.93,3.32,29.25,21.93,3.33,18.61-13.29,19.94-13.29,19.94,0,0-45.2,3.33-52.51,3.33-4.46,0-14.57,5.17-22.41,9.67-8.99,1.98-17.41,4.51-23.71,7.49l-.05-.12Z" style="fill: #b9d4f8; opacity: .5;"/>
        <path d="m1557.93,381.14l18.09,25.58c-2.69,4.04-28.52,32.94-33.13,41.48-4.3,7.95-8.13,13.57-8.99,14.82-3.39.39-6.48.46-8.53-.1-1.53-.42-4.23-1.07-7.54-1.84,1.11-2.24,15.87-32.03,22.98-38.56,7.38-6.8,8.49-24.08,8.49-24.08,0,0,1.31-11.35,8.52-17.42l.12.13Z" style="fill: #91b8e2; opacity: .5;"/>
        <path d="m1573.94,504.45l.16.13c-22.78,2.49-41.72,4.44-48.73,4.86-9.57.56-20.69,2.08-31.05,4.35,7.84-4.5,17.95-9.67,22.41-9.67,7.31,0,52.51-3.33,52.51-3.33l4.71,3.66Z" style="fill: #659bdb; opacity: .5;"/>
        <path d="m1549.29,398.42s-1.11,17.28-8.49,24.08c-7.11,6.54-21.87,36.33-22.98,38.56-5.89-1.37-13.72-3.11-20.34-4.56l4.61-.92s9.46-57.61,9.46-58.5h.13c.39,6.58,1.05,11.3,1.05,11.3l17.95-28.58c12.63,7.97,18.61,18.61,18.61,18.61Z" style="fill: #91b8e2; opacity: .5;"/>
        <path d="m1530.68,379.81l-17.95,28.58s-.66-4.72-1.05-11.31c-.7-11.74-.52-29.41,5.85-36.66,3.31,8.04,7.08,15.55,13.14,19.39Z" style="fill: #91b8e2; opacity: .5;"/>
        <path d="m1435.34,376.48c1.74-4.07,3.58-6.84,5.6-7.31,8.64-1.99,73.78-13.96,73.78-13.96l.63-.24c.72,1.82,1.44,3.65,2.18,5.45-6.37,7.26-6.55,24.92-5.85,36.66h-.13c0,.89-9.46,58.5-9.46,58.5l-4.61.92c-6.22-1.37-11.38-2.49-12.89-2.81.8-2.43.22-4.76.22-4.76,0,0-21.28-2.65-30.58-3.32-9.31-.67-7.97,9.38-7.97,9.38v.11c-7.49.68-16.04,2.51-23.94,5.8-6.53,2.72-7.82,5.22-7.07,7.22l-.24.09c-21.17-8.34-39.24,19.82-40.48,21.82-5.65-3.7-10.91-6.84-14.7-8.53-3.83-1.7-7.94-2.58-12.05-2.65-3.45-25.7,60.66-51.25,69.88-57.18,7.14-4.58,11.93-31.84,17.67-45.2Z" style="fill: #659bdb; opacity: .5;"/>
        <path d="m1500.25,281.44c.35,10.66.35,18.83.31,25.25h-.46c-7.31,0-3.99-15.29-5.32-25.26-1.04-7.78,3.19-9.08,5.1-9.28.15,3.3.27,6.39.37,9.29Z" style="fill: #b9d4f8; opacity: .5;"/>
        <path d="m1484.59,453.7c-.86,2.58-3.28,5.29-9.68,5.44l-.03.13c-3.46-.8-7.46-1.84-10.67-3.01-3.7-1.34-10.27-1.84-17.94-1.15v-.11s-1.34-10.05,7.97-9.38c9.31.67,30.58,3.32,30.58,3.32,0,0,.58,2.32-.22,4.76Z" style="fill: #b9d4f8; opacity: .5;"/>
        <path d="m1470.55,521.15l.05.12c-3.56,1.69-6.46,3.51-8.4,5.45-1.94,1.93-4.06,8.99-5.1,14.18l-.05.11c-8.82-3.4-20.89-10.01-31.23-16.14.64.08,1.34.13,2.11.15,10.63.3,27.18-5.31,28.95-6.2l.02-.05c5.21,2.08,10.78,3.79,13.65,2.39Z" style="fill: #659bdb; opacity: .5;"/>
        <path d="m1374.54,490.05c12.18,7.96,26.17,18.41,31.17,22.04,2.23,1.62,7.63,5.17,14.38,9.32.27,1.59,1.87,3,5.74,3.46,10.34,6.14,22.41,12.74,31.23,16.14.06.02.12.05.18.07-2.77,17.43-2.1,44.3-1.79,52.78h-183.36v-15.19c5.45-10.05,43.22-79.32,51.85-89.18,6.33-7.23,15.11-10.77,23.84-10.63,4.11.07,8.22.95,12.05,2.65,3.79,1.69,9.05,4.83,14.7,8.53Z" style="fill: #659bdb; opacity: .5;"/>
        <path d="m1456.91,518.77l-.02.05c-1.77.89-18.32,6.5-28.95,6.2-.77-.02-1.47-.07-2.11-.15-3.87-.46-5.47-1.87-5.74-3.46-.3-1.78,1.08-3.8,2.83-4.95,3.54-2.37,16.83-5.32,16.83-5.32l.14-.27c3.62,1.87,7.57,3.85,10.2,5,1.98.86,4.36,1.92,6.81,2.91Z" style="fill: #b9d4f8; opacity: .5;"/>
        <path d="m1435.34,376.48c-5.74,13.36-10.53,40.62-17.67,45.2-9.22,5.93-73.34,31.48-69.88,57.18-8.73-.14-17.52,3.4-23.84,10.63-8.63,9.86-46.4,79.14-51.85,89.18v-96.71c8.75-15.92,21.52-38.34,28.58-48.31,11.3-15.95,24.59-51.85,51.85-54.51,26.15-2.55,78.59-2.65,82.82-2.66Z" style="fill: #2461a3; opacity: .5;"/>
      </g>
      <g>
        <path d="m1601.64,308.83c.49-3.91.83-7.13.83-8.79" style="fill: none; stroke: #185093; stroke-linecap: round; stroke-linejoin: round; stroke-width: 5px;"/>
        <path d="m1517.53,360.42c3.31,8.04,7.08,15.55,13.14,19.39" style="fill: none; stroke: #185093; stroke-linecap: round; stroke-linejoin: round; stroke-width: 5px;"/>
        <path d="m1549.29,398.42s-5.98-10.64-18.61-18.61" style="fill: none; stroke: #185093; stroke-linecap: round; stroke-linejoin: round; stroke-width: 5px;"/>
        <path d="m1601.64,308.83c-1.49,11.78-4.49,29.77-4.49,29.77" style="fill: none; stroke: #185093; stroke-linecap: round; stroke-linejoin: round; stroke-width: 5px;"/>
        <path d="m1601.37,271.18s0,.04,0,.05" style="fill: none; stroke: #185093; stroke-linecap: round; stroke-linejoin: round; stroke-width: 5px;"/>
        <path d="m1601.37,271.18c5.73-56.68-43.44-58.89-43.44-58.89,0,0-61.82-7.31-58.5,51.18.17,3.04.32,5.92.45,8.67" style="fill: none; stroke: #185093; stroke-linecap: round; stroke-linejoin: round; stroke-width: 5px;"/>
        <path d="m1549.29,398.42s1.31-11.35,8.52-17.42c1.7-1.42,3.7-2.56,6.11-3.19,12.63-3.33,33.24-23.27,33.24-39.22" style="fill: none; stroke: #185093; stroke-linecap: round; stroke-linejoin: round; stroke-width: 5px;"/>
        <path d="m1517.53,360.42c-.74-1.8-1.46-3.63-2.18-5.45-2.73-6.94-5.44-13.72-9.27-18.37-6.12-7.43-5.63-11.42-5.52-29.92.04-6.42.03-14.59-.31-25.25-.1-2.9-.22-6-.37-9.29" style="fill: none; stroke: #185093; stroke-linecap: round; stroke-linejoin: round; stroke-width: 5px;"/>
        <path d="m1499.88,272.15c-1.91.2-6.14,1.49-5.1,9.28,1.33,9.97-1.99,25.26,5.32,25.26" style="fill: none; stroke: #185093; stroke-linecap: round; stroke-linejoin: round; stroke-width: 5px;"/>
        <path d="m1500.77,281.42s2.21-28.8,8.42-31.9c.44-1.33-2.66-16.84,8.41-23.49,11.08-6.65,18.61-3.11,18.61-3.11l23.94.45s22.6-6.65,28.36,14.62c2.66,9.75-.45,14.63-.45,14.63,0,0,8.87,15.51,7.98,26.15l3.77-5.32s.6-1,1.55-2.27" style="fill: none; stroke: #185093; stroke-linecap: round; stroke-linejoin: round; stroke-width: 5px;"/>
        <path d="m1601.64,308.83c5.41,7.46,14.68-19.27,11.47-35.38-2.51-12.54-8.81-6.15-11.74-2.27" style="fill: none; stroke: #185093; stroke-linecap: round; stroke-linejoin: round; stroke-width: 5px;"/>
        <path d="m1517.53,360.42c-6.37,7.26-6.55,24.92-5.85,36.66.39,6.58,1.05,11.31,1.05,11.31l17.95-28.58" style="fill: none; stroke: #185093; stroke-linecap: round; stroke-linejoin: round; stroke-width: 5px;"/>
        <line x1="1599.15" y1="345.91" x2="1597.15" y2="338.59" style="fill: none; stroke: #185093; stroke-linecap: round; stroke-linejoin: round; stroke-width: 5px;"/>
        <path d="m1576.02,406.71l1.19,1.68s21.27-41.88,23.93-55.17l-1.99-7.31" style="fill: none; stroke: #185093; stroke-linecap: round; stroke-linejoin: round; stroke-width: 5px;"/>
        <line x1="1576.02" y1="406.71" x2="1557.93" y2="381.14" style="fill: none; stroke: #185093; stroke-linecap: round; stroke-linejoin: round; stroke-width: 5px;"/>
        <path d="m1524.42,339.93s3.04,12.04,20.22,12.63c14.66.5,20.22-12.63,20.22-12.63" style="fill: none; stroke: #185093; stroke-linecap: round; stroke-linejoin: round; stroke-width: 5px;"/>
        <path d="m1514.72,355.21s-65.14,11.97-73.78,13.96c-2.02.46-3.85,3.24-5.6,7.31" style="fill: none; stroke: #185093; stroke-linecap: round; stroke-linejoin: round; stroke-width: 5px;"/>
        <path d="m1347.78,478.86c-3.45-25.7,60.66-51.25,69.88-57.18,7.14-4.58,11.93-31.84,17.67-45.2" style="fill: none; stroke: #185093; stroke-linecap: round; stroke-linejoin: round; stroke-width: 5px;"/>
        <path d="m1599.15,345.91s32.58-1.99,50.52,1.99,40.55,19.94,40.55,19.94" style="fill: none; stroke: #185093; stroke-linecap: round; stroke-linejoin: round; stroke-width: 5px;"/>
        <path d="m1569.23,500.79s16.62-1.33,13.29-19.94c-3.32-18.61-29.25-21.93-29.25-21.93" style="fill: none; stroke: #185093; stroke-linecap: round; stroke-linejoin: round; stroke-width: 5px;"/>
        <path d="m1690.22,367.84s4.65,12.63.66,19.28c-3.99,6.65,14.63,17.95,17.29,34.56,2.66,16.62,13.96,44.54,5.31,55.18-8.64,10.63-19.27,13.96-19.27,13.96" style="fill: none; stroke: #185093; stroke-linecap: round; stroke-linejoin: round; stroke-width: 5px;"/>
        <line x1="1569.23" y1="500.79" x2="1573.94" y2="504.45" style="fill: none; stroke: #185093; stroke-linecap: round; stroke-linejoin: round; stroke-width: 5px;"/>
        <line x1="1573.94" y1="504.45" x2="1574.1" y2="504.58" style="fill: none; stroke: #185093; stroke-linecap: round; stroke-linejoin: round; stroke-width: 5px;"/>
        <path d="m1646.34,415.7c-5.32,6.65-6.65,27.92-9.31,31.91s-64.48,5.98-71.12,5.98-12.63,5.32-12.63,5.32" style="fill: none; stroke: #185093; stroke-linecap: round; stroke-linejoin: round; stroke-width: 5px;"/>
        <path d="m1374.54,490.05c-.05.07-.07.11-.07.11" style="fill: none; stroke: #185093; stroke-linecap: round; stroke-linejoin: round; stroke-width: 5px;"/>
        <path d="m1415.02,468.22c-21.17-8.34-39.24,19.82-40.48,21.82" style="fill: none; stroke: #185093; stroke-linecap: round; stroke-linejoin: round; stroke-width: 5px;"/>
        <path d="m1272.09,578.67c-.43.79-.67,1.22-.67,1.22" style="fill: none; stroke: #185093; stroke-linecap: round; stroke-linejoin: round; stroke-width: 5px;"/>
        <path d="m1347.78,478.86c-8.73-.14-17.52,3.4-23.84,10.63-8.63,9.86-46.4,79.14-51.85,89.18" style="fill: none; stroke: #185093; stroke-linecap: round; stroke-linejoin: round; stroke-width: 5px;"/>
        <path d="m1425.83,524.87c10.34,6.14,22.41,12.74,31.23,16.14.06.02.12.05.18.07" style="fill: none; stroke: #185093; stroke-linecap: round; stroke-linejoin: round; stroke-width: 5px;"/>
        <path d="m1420.09,521.41c-6.76-4.14-12.16-7.69-14.38-9.32-5-3.63-18.99-14.09-31.17-22.04" style="fill: none; stroke: #185093; stroke-linecap: round; stroke-linejoin: round; stroke-width: 5px;"/>
        <path d="m1374.54,490.05c-5.65-3.7-10.91-6.84-14.7-8.53-3.83-1.7-7.94-2.58-12.05-2.65" style="fill: none; stroke: #185093; stroke-linecap: round; stroke-linejoin: round; stroke-width: 5px;"/>
        <path d="m1482.82,460.91s-3.54-.63-7.94-1.64c-3.46-.8-7.46-1.84-10.67-3.01-3.7-1.34-10.27-1.84-17.94-1.15-7.5.68-16.05,2.51-23.94,5.8-6.53,2.72-7.82,5.22-7.07,7.22,1.08,2.89,6.41,4.75,6.41,4.75" style="fill: none; stroke: #185093; stroke-linecap: round; stroke-linejoin: round; stroke-width: 5px;"/>
        <path d="m1446.26,455s-1.33-10.05,7.97-9.38c9.31.67,30.58,3.32,30.58,3.32,0,0,.58,2.32-.22,4.76" style="fill: none; stroke: #185093; stroke-linecap: round; stroke-linejoin: round; stroke-width: 5px;"/>
        <path d="m1474.91,459.13c6.4-.15,8.83-2.86,9.68-5.44" style="fill: none; stroke: #185093; stroke-linecap: round; stroke-linejoin: round; stroke-width: 5px;"/>
        <path d="m1533.89,463c8.71-.99,19.38-4.09,19.38-4.09" style="fill: none; stroke: #185093; stroke-linecap: round; stroke-linejoin: round; stroke-width: 5px;"/>
        <path d="m1533.89,463c-3.39.39-6.48.46-8.53-.1-1.53-.42-4.23-1.07-7.54-1.84" style="fill: none; stroke: #185093; stroke-linecap: round; stroke-linejoin: round; stroke-width: 5px;"/>
        <path d="m1484.59,453.7c-.29-.06-.45-.1-.45-.1" style="fill: none; stroke: #185093; stroke-linecap: round; stroke-linejoin: round; stroke-width: 5px;"/>
        <path d="m1484.59,453.7c1.51.32,6.66,1.44,12.89,2.81,6.62,1.45,14.45,3.19,20.34,4.56" style="fill: none; stroke: #185093; stroke-linecap: round; stroke-linejoin: round; stroke-width: 5px;"/>
        <path d="m1569.23,500.79s-45.2,3.33-52.51,3.33c-4.46,0-14.57,5.17-22.41,9.67" style="fill: none; stroke: #185093; stroke-linecap: round; stroke-linejoin: round; stroke-width: 5px;"/>
        <path d="m1434.29,483.51s5.32-1.99,9.31,0,17.95,11.3,22.6,9.97c4.65-1.33,9.31-5.99,7.97-8.65-1.33-2.65-14.62-9.3-19.27-12.63-4.65-3.32-13.29-7.31-24.59.67" style="fill: none; stroke: #185093; stroke-linecap: round; stroke-linejoin: round; stroke-width: 5px;"/>
        <path d="m1439.61,486.17c-8.65.67-19.28,6.65-25.26,11.97-5.99,5.31,3.32,9.3,3.32,9.3,0,0,19.95-6.65,27.92-6.65h15.95" style="fill: none; stroke: #185093; stroke-linecap: round; stroke-linejoin: round; stroke-width: 5px;"/>
        <path d="m1430.96,506.11s4.19,2.28,8.93,4.75c3.62,1.87,7.57,3.85,10.2,5,1.98.86,4.36,1.92,6.81,2.91,5.21,2.08,10.78,3.79,13.65,2.39.43-.21.81-.49,1.11-.86,2.66-3.25,2.96-8.34-2.65-11.23-1.88-.96-13.44-7.6-13.44-7.6" style="fill: none; stroke: #185093; stroke-linecap: round; stroke-linejoin: round; stroke-width: 5px;"/>
        <path d="m1439.75,511.13s-13.29,2.95-16.83,5.32c-1.74,1.15-3.12,3.17-2.83,4.95" style="fill: none; stroke: #185093; stroke-linecap: round; stroke-linejoin: round; stroke-width: 5px;"/>
        <path d="m1425.83,524.87c-3.87-.46-5.47-1.87-5.74-3.46" style="fill: none; stroke: #185093; stroke-linecap: round; stroke-linejoin: round; stroke-width: 5px;"/>
        <path d="m1456.89,518.82c-1.77.89-18.32,6.5-28.95,6.2-.77-.02-1.47-.07-2.11-.15" style="fill: none; stroke: #185093; stroke-linecap: round; stroke-linejoin: round; stroke-width: 5px;"/>
        <path d="m1549.29,398.42s-1.11,17.28-8.49,24.08c-7.11,6.54-21.87,36.33-22.98,38.56" style="fill: none; stroke: #185093; stroke-linecap: round; stroke-linejoin: round; stroke-width: 5px;"/>
        <path d="m1517.82,461.06c-.05.09-.07.14-.07.14" style="fill: none; stroke: #185093; stroke-linecap: round; stroke-linejoin: round; stroke-width: 5px;"/>
        <path d="m1511.55,397.09c0,.89-9.46,58.5-9.46,58.5" style="fill: none; stroke: #185093; stroke-linecap: round; stroke-linejoin: round; stroke-width: 5px;"/>
        <path d="m1576.02,406.71c-2.69,4.04-28.52,32.94-33.13,41.48-4.3,7.95-8.13,13.57-8.99,14.82" style="fill: none; stroke: #185093; stroke-linecap: round; stroke-linejoin: round; stroke-width: 5px;"/>
        <path d="m1576.02,406.71c.16-.25.24-.41.23-.46" style="fill: none; stroke: #185093; stroke-linecap: round; stroke-linejoin: round; stroke-width: 5px;"/>
        <path d="m1533.89,463c-.12.17-.19.27-.19.27" style="fill: none; stroke: #185093; stroke-linecap: round; stroke-linejoin: round; stroke-width: 5px;"/>
        <path d="m1457.24,541.08c-2.77,17.43-2.1,44.3-1.79,52.78" style="fill: none; stroke: #185093; stroke-linecap: round; stroke-linejoin: round; stroke-width: 5px;"/>
        <path d="m1574.1,504.58c-22.78,2.49-41.72,4.44-48.73,4.86-9.57.56-20.69,2.08-31.05,4.35" style="fill: none; stroke: #185093; stroke-linecap: round; stroke-linejoin: round; stroke-width: 5px;"/>
        <path d="m1694.21,490.82s-70.53,8.13-120.27,13.63" style="fill: none; stroke: #185093; stroke-linecap: round; stroke-linejoin: round; stroke-width: 5px;"/>
        <path d="m1573,504.56c.31-.03.63-.06.94-.1" style="fill: none; stroke: #185093; stroke-linecap: round; stroke-linejoin: round; stroke-width: 5px;"/>
        <path d="m1494.32,513.79c-8.99,1.98-17.41,4.51-23.71,7.49-3.56,1.69-6.46,3.51-8.4,5.45-1.94,1.93-4.06,8.99-5.1,14.18" style="fill: none; stroke: #185093; stroke-linecap: round; stroke-linejoin: round; stroke-width: 5px;"/>
        <path d="m1272.09,481.96c8.75-15.92,21.52-38.34,28.58-48.31,11.3-15.95,24.59-51.85,51.85-54.51,26.15-2.55,78.59-2.65,82.82-2.66" style="fill: none; stroke: #185093; stroke-linecap: round; stroke-linejoin: round; stroke-width: 5px;"/>
        <path d="m1435.62,376.48h-.27" style="fill: none; stroke: #185093; stroke-linecap: round; stroke-linejoin: round; stroke-width: 5px;"/>
        <path d="m1690.22,367.84s65.14-3.32,70.46-1.33c5.31,1.99,25.92,49.19,28.58,69.8,2.42,18.72,2.05,136.21.86,157.54" style="fill: none; stroke: #185093; stroke-linecap: round; stroke-linejoin: round; stroke-width: 5px;"/>
        <line x1="1272.09" y1="481.96" x2="1272.09" y2="578.67" style="fill: none; stroke: #185093; stroke-linecap: round; stroke-linejoin: round; stroke-width: 5px;"/>
        <line x1="1790.13" y1="593.86" x2="1455.46" y2="593.86" style="fill: none; stroke: #185093; stroke-linecap: round; stroke-linejoin: round; stroke-width: 5px;"/>
        <polyline points="1272.09 578.67 1272.09 593.86 1455.46 593.86" style="fill: none; stroke: #185093; stroke-linecap: round; stroke-linejoin: round; stroke-width: 5px;"/>
      </g>
    </g>
    <rect x="1242.33" y="180.04" width="578.63" height="442.96" rx="35.5" ry="35.5" style="fill: none; stroke: #185093; stroke-miterlimit: 10; stroke-width: 6px;"/>
  </g>
  <g id="Layer_5" data-name="Layer 5">
    <rect x="1312.06" y="538.52" width="185.45" height="30.61" rx="7.63" ry="7.63" style="fill: #fff;"/>
    <rect x="1509.42" y="538.52" width="86.28" height="30.61" rx="7.63" ry="7.63" style="fill: #fff;"/>
    <rect x="1606.83" y="538.52" width="150.66" height="30.61" rx="7.63" ry="7.63" style="fill: #fff;"/>
  </g>
  <g id="Layer_6" data-name="Layer 6">
    <g>
      <g>
        <path d="m674.26,554.91v-42.25h-.05v-9.78h.05v-5.13c4.08-9.01,5.56-12.4,8.46-20.99.76-2.2,1.15-3.29,1.54-4.38l1.35-3.81-12.35-3.18-.39,2.37c-.62,3.7-1.21,6.08-3.31,12.06-4.96,14.03-12.85,26.94-21.09,34.54l-1.84,1.69,1.91,1.61c1.87,1.57,2.49,2.27,4.34,5.56l1.54,2.74,2.05-2.39c2.55-2.98,4.56-5.55,6.41-8.27-.04,1.56-.05,3.06-.05,4.75v34.76c0,6.02-.24,9.39-.65,13.18l-.26,2.44h13.12l-.23-2.4c-.36-3.83-.54-8.24-.54-13.1Z" style="fill: #185093;"/>
        <path d="m709.1,510.47l.45-2.21-11.27-2-.34,2.23c-2.61,17.4-7.16,29.64-14.76,39.7l-1.69,2.24,2.58,1.11c2.94,1.26,3.7,1.8,5.66,3.57l1.89,1.7,1.41-2.12c3.88-5.82,6.8-11.58,9.47-18.7,2.57-6.83,3.5-10.41,6.59-25.52Z" style="fill: #185093;"/>
        <path d="m741.28,508.22c1.64.66,2.32,1.17,4.05,2.47l1.74,1.3,1.33-1.72c2.97-3.85,6.15-9.32,8.53-14.68q1.67-3.95,2.07-4.53l1.14-1.6-5.66-5.11-1.06.19c-1.68.3-4.02.41-8.64.41h-38.23c2.12-4.9,2.86-6.72,3.91-9.86q1.3-3.91,1.84-5.3l.91-2.37-12.63-2.89-.23,2.51c-.31,3.43-1.59,7.84-3.81,13.12-4.26,10.44-8.65,17.33-16.18,25.4l-.88.94v1.78l1.5.75c2.65,1.32,3.22,1.73,5.15,3.66l1.64,1.64,1.55-1.73c5.52-6.17,8.85-10.82,12.33-17.31h13.31v61.82c0,.37-.02.61-.03.76-.3.06-.92.12-2.17.12-3.33,0-7.05-.4-12.04-1.29l-3.55-.63,1.06,3.44c.86,2.79,1.13,4.03,1.22,6.8l.07,1.97,1.96.15c4.58.34,8.06.56,11.28.56,8.28,0,13.42-1.8,13.42-10.78v-62.92h19.03c-1.55,3.14-3.24,5.66-6,9.07l-.76.94-8.83,4.33,1.12,2.02c3.76,6.78,4.4,8.02,8.36,17.69q6.13,15,9.41,25.04l.79,2.41,10.49-5.16-.61-1.82c-4.58-13.64-11.22-29.05-17.9-41.58Z" style="fill: #185093;"/>
      </g>
      <g>
        <path d="m820.47,538.73c2.06-3.91,3.86-8.34,5.4-13.26,2.23-8.07,3.86-16.91,4.3-19.43.49-3.28.9-6.67,1.23-10.22q.32-3.36.54-4.85l.41-2.87-2.87.37c-2.29.3-5.11.42-9.73.42h-6.88c.72-3.66,1.55-8.28,1.9-10.66.89-5.64,1.09-6.64,1.5-8.28l.62-2.48-13.43-1.29.47,2.83c.08.48.08.88.08,1.18,0,4.07-1.09,11.71-2.63,18.7h-2.21c-3.73,0-6.6-.19-9.33-.63l-2.55-.41v12.64l2.55-.41c2.73-.44,5.41-.63,8.67-.63h.47c-2.65,10.19-5.63,18.8-9.52,27.6l-.78,1.76,1.65,1.01c7.26,4.44,9.49,5.92,15.82,11.19-5.25,7.67-10.91,12.9-19.67,18.27l-2.53,1.55,2.21,1.97c1.73,1.54,2.93,2.99,4.45,5.37l1.24,1.95,1.89-1.33c10.14-7.17,15.57-12.41,20.69-20.12,3.1,3.21,4.87,5.21,8.88,10.24l1.69,2.12,7.77-9.36-1.25-1.41c-5.45-6.14-7.82-8.59-11.05-11.52Zm-8.76-7.46c-3.15-2.41-5.21-3.88-9.3-6.69,3.47-9.09,5.28-14.98,8.03-25.13h9.28c-1.61,13.75-4.01,23.31-8,31.81Z" style="fill: #185093;"/>
        <path d="m893.62,512.92c-2.74.53-4.84.62-9.37.62h-15.95v-7.45c6.38-5.42,11.23-10.25,14.82-14.74,6.89-8.83,6.96-8.92,7.63-9.59l1.4-1.4-6.19-7.7-1.37.34c-1.47.37-3.4.49-7.94.49h-28.27c-4.47,0-8-.21-10.77-.63l-2.53-.39v12.95l2.55-.41c2.51-.4,6.31-.63,10.43-.63h26.69c-4.21,5.56-7.96,9.38-13.38,13.75h-5.6l.35,2.5c.55,3.98.75,6.72.75,10.48v2.42h-12.76c-5.17,0-7.11-.13-9.45-.61l-.97-.2c-.5,2.05-1.08,4.32-1.68,6.6v6.12l2.52-.37c2.65-.39,5.2-.64,9.69-.64h12.65v33.57c-.35.05-.97.09-2.09.09-2.87,0-7.31-.48-13.96-1.51l-3.57-.55,1.14,3.42c.96,2.88,1.23,4,1.43,6.94l.13,1.86,1.86.18c6.61.62,10.62.89,13.41.89,9.05,0,13.09-1.6,13.09-11.11v-33.77h15.95c4.24,0,6.49.09,9.39.62l2.6.48v-13.12l-2.62.5Z" style="fill: #185093;"/>
      </g>
    </g>
    <g>
      <path d="m736.58,413.78l-.54-1.13c-1.24-2.58-2.22-4.36-4.71-8.14l-29.85-44.82c-.2-.3-.54-.85-.95-1.54.04,1.13.05,2.1.05,2.85v39.71c0,4.95.19,7.85.71,10.71l.43,2.36h-13.45l.44-2.37c.51-2.72.71-5.72.71-10.7v-49.2c0-4.27-.19-6.91-.72-10.09l-.39-2.33h13.49l.5,1.27c.8,2.04,2.05,4.12,4.56,8.02l29.37,43.96c.41.64,1.13,1.78,1.99,3.2-.14-3.1-.17-3.98-.17-4.32v-39.43c0-4.57-.19-7.28-.71-10.36l-.4-2.34h13.38l-.39,2.33c-.54,3.25-.72,5.77-.72,10.37v49.57c0,4.63.19,7.25.71,10.05l.44,2.37h-13.8Z" style="fill: #185093;"/>
      <path d="m766.02,413.78l.26-2.23c.48-4.15.64-6.65.64-10.28v-29.11c0-4.29-.17-6.96-.63-10.23l-.33-2.28h12.98l-.33,2.28c-.47,3.3-.63,5.88-.63,10.23v29.11c0,4.02.15,6.51.63,10.25l.29,2.25h-12.89Zm-10.38-68.25l4.44-8.71,12.38,6.79,12.5-6.8,4.29,8.73-16.79,8.84-16.81-8.85Z" style="fill: #185093;"/>
      <path d="m857.82,413.78l.35-2.3c.46-3.02.63-5.79.63-10.21v-21.95c0-6.94-3.11-10.46-9.25-10.46-4.6,0-8.27,1.92-11.55,6.03-2.37,3.05-3.45,5.28-4.21,8.73v17.64c0,3.92.17,6.6.63,10.25l.29,2.25h-12.85l.32-2.27c.42-3.02.63-5.43.63-10.23v-49.66c0-4.73-.2-7.07-.63-10.24l-.31-2.27h12.92l-.38,2.32c-.56,3.43-.72,5.74-.72,10.28v13.91c.46-.46.97-.92,1.56-1.4,4.4-3.79,9.11-5.49,15.23-5.49,11.96,0,19.39,7.39,19.39,19.3v23.34c0,4.04.17,6.69.63,10.15l.31,2.27h-12.98Z" style="fill: #185093;"/>
      <path d="m927.81,414.54c-3.23-2.23-5.13-4.43-6.2-7.48-.64.68-1.37,1.32-2.28,2.07-4.76,3.75-9.82,5.48-15.97,5.48-15.46,0-25.06-10.67-25.06-27.85s9.8-28.04,24.97-28.04c6.81,0,12.4,2.04,16.69,6.09v-5.16h11.73l-.31,2.27c-.48,3.55-.63,6.08-.63,10.43v23.53c0,7.23.8,8.4,4.89,11.18l2.32,1.57-8.97,6.73-1.18-.82Zm-23.6-45.78c-9.31,0-14.65,6.56-14.65,18s5.2,17.81,14.28,17.81c9.75,0,16.04-7.1,16.04-18.09s-6.15-17.72-15.67-17.72Zm-19.05-23.17l4.72-8.66,13.96,6.73,13.93-6.72,4.87,8.64-18.81,8.64-18.68-8.63Z" style="fill: #185093;"/>
      <path d="m967.21,414.99c-16.36,0-26.92-11.08-26.92-28.23s10.53-28.32,26.83-28.32,26.74,11.08,26.74,28.23-10.71,28.32-26.65,28.32Zm.09-46.69c-9.93,0-15.86,6.83-15.86,18.27s5.86,18.37,15.67,18.37,15.58-6.83,15.58-18.27-5.75-18.37-15.39-18.37Z" style="fill: #185093;"/>
    </g>
    <g>
      <path d="m682.38,285.64l-.28-.5c-1.37-2.45-2.89-4.66-5.07-7.39l-19.97-25.73-9.16,9v13.84c0,4.26.17,6.6.69,9.63l.2,1.14h-10.45l.22-1.15c.48-2.59.68-5.37.68-9.61v-46.86c0-4.04-.17-6.47-.69-9.64l-.18-1.13h10.44l-.22,1.15c-.5,2.66-.68,5.26-.68,9.61v21.86l24.92-25.08c3.36-3.36,4.73-5,5.87-7.05l.28-.5h13.33l-1.78,1.68q-1.56,1.47-2.25,2.17c-.48.48-.95.94-1.41,1.39-.87.85-1.68,1.65-2.42,2.44-1.56,1.64-2.6,2.69-2.89,2.98l-18.29,18.21,22.37,28.43c4.91,6.2,5.8,7.18,8.13,9.43l1.74,1.67h-13.12Z" style="fill: #185093;"/>
      <path d="m733.28,285.64l.14-1.09c.45-3.48.6-6.04.6-9.76v-20.37c0-5.06-1.68-11.09-9.69-11.09-4.6,0-8.22,2.01-11.74,6.53-2.19,2.86-3.16,4.94-3.82,8.15v16.78c0,3.73.16,6.28.6,9.75l.14,1.1h-10.11l.18-1.12c.52-3.3.69-5.66.69-9.73v-27.36c0-3.9-.17-6.26-.69-9.73l-.17-1.12h9.36v7.05c4.08-5.33,9.49-7.93,16.43-7.93s11.81,2.42,14.8,7c1.78,2.71,2.61,6.08,2.61,10.58v21.59c0,4.25.15,6.68.6,9.65l.17,1.12h-10.1Z" style="fill: #185093;"/>
      <path d="m772.59,286.87c-14.19,0-23.35-10.09-23.35-25.71s9.1-25.71,22.65-25.71c11.82,0,20.29,7.59,22.12,19.8l.11,1.19c.14,1.44.37,3.84.5,5.62l.08,1.04h-36.83c.31,5.09,1.2,7.95,3.25,10.68,2.65,3.64,6.64,5.56,11.55,5.56,6.65,0,11.2-3.23,13.51-9.59l.34-.94,7.99,3.2-.42.92c-1.78,3.94-3.03,5.57-5.01,7.54-4.34,4.25-9.9,6.4-16.51,6.4Zm12.98-31.23c-.58-4.1-1.83-6.78-4.21-9.08-2.55-2.46-5.7-3.66-9.64-3.66-5,0-9.11,2.52-11.56,7.09-.99,1.77-1.44,3.06-1.9,5.65h27.3Z" style="fill: #185093;"/>
      <path d="m823.75,286.87c-14.19,0-23.35-10.09-23.35-25.71s9.1-25.71,22.65-25.71c11.82,0,20.29,7.59,22.12,19.8l.11,1.19c.14,1.44.37,3.84.5,5.62l.08,1.04h-36.83c.31,5.09,1.2,7.95,3.25,10.68,2.65,3.64,6.64,5.56,11.55,5.56,6.65,0,11.2-3.23,13.51-9.59l.34-.94,7.99,3.2-.42.92c-1.78,3.94-3.03,5.57-5.01,7.54-4.34,4.25-9.9,6.4-16.51,6.4Zm12.98-31.23c-.58-4.1-1.83-6.78-4.21-9.08-2.55-2.46-5.7-3.66-9.64-3.66-5,0-9.11,2.52-11.56,7.09-.99,1.77-1.44,3.06-1.9,5.65h27.3Z" style="fill: #185093;"/>
      <path d="m923.48,285.64l.18-1.13c.52-3.2.69-5.55.69-9.64v-21.15h-37.57v21.15c0,4.22.16,6.47.69,9.63l.19,1.13h-10.52l.2-1.14c.51-2.9.68-5.33.68-9.62v-46.86c0-4.21-.17-6.64-.68-9.63l-.2-1.14h10.51l-.18,1.13c-.53,3.25-.69,5.46-.69,9.46v17.74h37.57v-17.56c0-4.19-.19-6.8-.68-9.62l-.2-1.14h10.51l-.18,1.12c-.53,3.38-.69,5.5-.69,9.47v47.03c0,4.06.15,6.13.69,9.64l.17,1.12h-10.49Z" style="fill: #185093;"/>
      <path d="m964.84,286.78c-14.82,0-24.4-10.06-24.4-25.62s9.54-25.71,24.31-25.71,24.23,10.06,24.23,25.62-9.48,25.71-24.14,25.71Zm.09-43.89c-9.9,0-15.81,6.76-15.81,18.09s5.85,18.17,15.64,18.17,15.55-6.76,15.55-18.09-5.89-18.17-15.38-18.17Z" style="fill: #185093;"/>
      <path d="m1034.67,285.64l-.15-.79c-.34-1.76-.93-3.99-1.72-6.44l-8.56-25.43c-.1-.25-.25-.82-.61-2.18-.3,1.04-.55,1.88-.69,2.33l-8.49,25.3c-.83,2.41-1.54,4.93-1.8,6.42l-.14.8h-7.7l-.32-1.34c-.39-1.65-.51-2.15-1.76-5.97l-9.36-30.17c-.99-3.05-2.36-7.09-3.49-10.28l-.46-1.29h10.33l.06.91c.17,2.66.8,5.62,1.97,9.3l6.39,21.79c.24.81.48,1.67.75,2.7.36-1.21.68-2.26.81-2.65l8.31-24.74c.89-2.43,1.53-4.83,1.7-6.44l.1-.86h7.55l.13.81c.28,1.7.92,4.13,1.71,6.5l8.39,25.18c.16.48.4,1.32.65,2.2.28-1.23.46-1.96.57-2.29l6.55-22.17c1.05-3.49,1.71-6.71,1.88-9.32l.06-.9h10.27l-.5,1.32c-.62,1.63-1.61,4.6-3.39,10.26l-9.44,30.25c-1.16,3.58-1.49,4.83-1.81,6.46l-.16.78h-7.63Z" style="fill: #185093;"/>
    </g>
    <path d="m995.48,468.56c-29.94,0-54.21,24.27-54.21,54.21s24.27,54.21,54.21,54.21,54.21-24.27,54.21-54.21-24.27-54.21-54.21-54.21Zm33.84,42.38l-34.53,37.61c-1.4,1.54-3.45,2.5-5.58,2.5,0,0-.07,0-.15,0-2.06,0-4.04-.81-5.51-2.28l-19.62-19.62c-3.01-3.01-3.01-7.93,0-10.95,3.01-3.01,7.93-3.01,10.95,0l13.96,13.96,29.09-31.74c2.87-3.16,7.79-3.38,10.95-.44,3.16,2.87,3.38,7.79.44,10.95Z" style="fill: #185093;"/>
  </g>
</svg>