<?xml version="1.0" encoding="utf-8"?>
<svg id="speech-recog-diagram" image-rendering="auto" baseProfile="basic" version="1.1" preserveAspectRatio="xMidYMid meet" x="0px" y="0px" width="1920" height="800" xmlns="http://www.w3.org/2000/svg" viewBox="0 0 1920 800" xmlns:xlink="http://www.w3.org/1999/xlink">
  <g id="Scene-1" overflow="visible">
    <g>
      <g id="Layer2_0_FILL">
        <path fill="#F8F8F8" stroke="none" d="M-10.6 -10.25L-10.6 811.95 1931.95 811.95 1931.95 -10.25 -10.6 -10.25Z"/>
      </g>
    </g>
    <g>
      <path id="Layer1_0_1_STROKES" stroke="#FFF" stroke-width="1" stroke-linejoin="miter" stroke-linecap="butt" stroke-miterlimit="10" fill="none" d="M1308 -12.55L1308 -11.35 1338.7 -11.35 1338.7 -12.55M1369.4 -11.35L1338.7 -11.35 1338.7 19.35 1369.4 19.35 1369.4 -11.35 1369.4 -12.55M1400.1 -12.55L1400.1 -11.35 1430.8 -11.35 1430.8 -12.55M1369.4 19.35L1400.1 19.35 1400.1 -11.35 1369.4 -11.35M1492.2 -11.35L1461.5 -11.35 1461.5 19.35 1492.2 19.35 1492.2 -11.35 1492.2 -12.55M1461.5 -12.55L1461.5 -11.35 1430.8 -11.35 1430.8 19.35 1461.5 19.35 1461.5 50.05 1492.2 50.05 1492.2 19.35 1522.9 19.35 1522.9 -11.35 1492.2 -11.35M1522.9 -12.55L1522.9 -11.35 1553.6 -11.35 1553.6 -12.55M1615 -11.35L1584.3 -11.35 1584.3 19.35 1615 19.35 1615 -11.35 1615 -12.55M1584.3 -12.55L1584.3 -11.35 1553.6 -11.35 1553.6 19.35 1584.3 19.35 1584.3 50.05 1615 50.05 1615 19.35 1645.7 19.35 1645.7 -11.35 1615 -11.35M1645.7 -12.55L1645.7 -11.35 1676.4 -11.35 1676.4 -12.55M1737.8 -11.35L1707.1 -11.35 1707.1 19.35 1737.8 19.35 1737.8 -11.35 1737.8 -12.55M1707.1 -12.55L1707.1 -11.35 1676.4 -11.35 1676.4 19.35 1707.1 19.35 1707.1 50.05 1737.8 50.05 1737.8 19.35 1768.45 19.35 1768.45 -11.35 1737.8 -11.35M1768.45 -12.55L1768.45 -11.35 1799.15 -11.35 1799.15 -12.55M1860.55 -11.35L1829.85 -11.35 1829.85 19.35 1860.55 19.35 1860.55 -11.35 1860.55 -12.55M1829.85 -12.55L1829.85 -11.35 1799.15 -11.35 1799.15 19.35 1829.85 19.35 1829.85 50.05 1860.55 50.05 1860.55 19.35 1891.25 19.35 1891.25 -11.35 1860.55 -11.35M1891.25 -12.55L1891.25 -11.35 1963.55 -11.35M1963.55 50.05L1891.25 50.05 1891.25 80.75 1963.55 80.75M1963.55 19.35L1891.25 19.35 1891.25 50.05 1860.55 50.05 1860.55 80.75 1891.25 80.75 1891.25 111.4 1963.55 111.4M1799.15 50.05L1799.15 80.75 1829.85 80.75 1829.85 50.05 1799.15 50.05 1799.15 19.35 1768.45 19.35 1768.45 50.05 1799.15 50.05ZM1860.55 80.75L1829.85 80.75 1829.85 111.4 1860.55 111.4 1860.55 80.75ZM1829.85 111.4L1829.85 142.1 1860.55 142.1 1860.55 111.4 1891.25 111.4 1891.25 142.1 1963.55 142.1M1829.85 111.4L1799.15 111.4 1799.15 142.1 1829.85 142.1 1829.85 172.8 1860.55 172.8 1860.55 142.1 1891.25 142.1 1891.25 172.8 1963.55 172.8M1799.15 142.1L1799.15 172.8 1829.85 172.8 1829.85 203.5 1860.55 203.5 1860.55 172.8 1891.25 172.8 1891.25 203.5 1963.55 203.5M1799.15 80.75L1799.15 111.4 1768.45 111.4 1768.45 142.1 1799.15 142.1M1707.1 50.05L1707.1 80.75 1737.8 80.75 1737.8 50.05 1768.45 50.05 1768.45 80.75 1799.15 80.75M1768.45 80.75L1737.8 80.75 1737.8 111.4 1768.45 111.4 1768.45 80.75ZM1645.7 50.05L1645.7 80.75 1676.4 80.75 1676.4 50.05 1645.7 50.05 1645.7 19.35 1676.4 19.35 1676.4 50.05 1707.1 50.05M1676.4 111.4L1676.4 142.1 1707.1 142.1 1707.1 111.4 1676.4 111.4 1676.4 80.75 1707.1 80.75 1707.1 111.4 1737.8 111.4 1737.8 142.1 1768.45 142.1 1768.45 172.8 1799.15 172.8 1799.15 203.5 1829.85 203.5 1829.85 234.2 1860.55 234.2 1860.55 203.5 1891.25 203.5 1891.25 234.2 1963.55 234.2M1676.4 111.4L1645.7 111.4 1645.7 142.1 1676.4 142.1 1676.4 172.8 1707.1 172.8 1707.1 142.1 1737.8 142.1 1737.8 172.8 1768.45 172.8 1768.45 203.5 1799.15 203.5 1799.15 234.2 1829.85 234.2 1829.85 264.9 1860.55 264.9 1860.55 234.2 1891.25 234.2 1891.25 264.9 1963.55 264.9M1645.7 142.1L1645.7 172.8 1676.4 172.8 1676.4 203.5 1707.1 203.5 1707.1 172.8 1737.8 172.8 1737.8 203.5 1768.45 203.5 1768.45 234.2 1799.15 234.2 1799.15 264.9 1829.85 264.9 1829.85 295.6 1860.55 295.6 1860.55 264.9 1891.25 264.9 1891.25 295.6 1963.55 295.6M1645.7 80.75L1645.7 111.4 1615 111.4 1615 142.1 1645.7 142.1M1737.8 203.5L1707.1 203.5 1707.1 234.2 1737.8 234.2 1737.8 203.5ZM1737.8 264.9L1707.1 264.9 1707.1 295.6 1737.8 295.6 1737.8 264.9 1737.8 234.2 1768.45 234.2 1768.45 264.9 1799.15 264.9 1799.15 295.6 1829.85 295.6 1829.85 326.3 1860.55 326.3 1860.55 295.6 1891.25 295.6 1891.25 326.3 1963.55 326.3M1768.45 264.9L1768.45 295.6 1799.15 295.6 1799.15 326.3 1829.85 326.3 1829.85 357 1860.55 357 1860.55 326.3 1891.25 326.3 1891.25 357 1963.55 357M1707.1 234.2L1707.1 264.9 1676.4 264.9 1676.4 295.6 1707.1 295.6 1707.1 326.3 1737.8 326.3 1737.8 295.6 1768.45 295.6 1768.45 326.3 1799.15 326.3 1799.15 357 1829.85 357 1829.85 387.7 1860.55 387.7 1860.55 357 1891.25 357 1891.25 387.7 1963.55 387.7M1768.45 264.9L1737.8 264.9M1676.4 203.5L1676.4 234.2 1707.1 234.2M1676.4 203.5L1645.7 203.5 1645.7 234.2 1676.4 234.2 1676.4 264.9 1645.7 264.9 1645.7 295.6 1676.4 295.6 1676.4 326.3 1707.1 326.3 1707.1 357 1737.8 357 1737.8 326.3 1768.45 326.3 1768.45 357 1799.15 357 1799.15 387.7 1829.85 387.7 1829.85 418.4 1860.55 418.4 1860.55 387.7 1891.25 387.7 1891.25 418.4 1963.55 418.4M1645.7 234.2L1645.7 264.9 1615 264.9 1615 295.6 1645.7 295.6 1645.7 326.3 1676.4 326.3 1676.4 357 1707.1 357 1707.1 387.7 1737.8 387.7 1737.8 357 1768.45 357 1768.45 387.7 1799.15 387.7 1799.15 418.4 1829.85 418.4 1829.85 449.1 1860.55 449.1 1860.55 418.4 1891.25 418.4 1891.25 449.1 1963.55 449.1M1645.7 357L1645.7 387.7 1676.4 387.7 1676.4 357 1645.7 357 1645.7 326.3 1615 326.3 1615 357 1645.7 357ZM1768.45 387.7L1737.8 387.7 1737.8 418.4 1768.45 418.4 1768.45 387.7ZM1707.1 387.7L1676.4 387.7 1676.4 418.4 1707.1 418.4 1707.1 387.7ZM1645.7 172.8L1645.7 203.5 1615 203.5 1615 234.2 1645.7 234.2M1553.6 50.05L1553.6 80.75 1584.3 80.75 1584.3 50.05 1553.6 50.05 1553.6 19.35 1522.9 19.35 1522.9 50.05 1553.6 50.05ZM1645.7 50.05L1615 50.05 1615 80.75 1645.7 80.75M1615 80.75L1584.3 80.75 1584.3 111.4 1615 111.4 1615 80.75ZM1461.5 50.05L1461.5 80.75 1492.2 80.75 1492.2 50.05 1522.9 50.05 1522.9 80.75 1553.6 80.75 1553.6 111.4 1584.3 111.4 1584.3 142.1 1615 142.1 1615 172.8 1645.7 172.8M1522.9 80.75L1492.2 80.75 1492.2 111.4 1522.9 111.4 1522.9 80.75ZM1522.9 111.4L1522.9 142.1 1553.6 142.1 1553.6 111.4 1522.9 111.4ZM1492.2 111.4L1461.5 111.4 1461.5 142.1 1492.2 142.1 1492.2 111.4ZM1492.2 172.8L1461.5 172.8 1461.5 203.5 1492.2 203.5 1492.2 172.8 1492.2 142.1 1522.9 142.1 1522.9 172.8 1553.6 172.8 1553.6 142.1 1584.3 142.1 1584.3 172.8 1615 172.8 1615 203.5 1584.3 203.5 1584.3 234.2 1615 234.2 1615 264.9 1584.3 264.9 1584.3 295.6 1615 295.6 1615 326.3 1584.3 326.3 1584.3 357 1615 357 1615 387.7 1645.7 387.7 1645.7 418.4 1676.4 418.4 1676.4 449.1 1707.1 449.1 1707.1 418.4 1737.8 418.4 1737.8 449.1 1768.45 449.1 1768.45 418.4 1799.15 418.4 1799.15 449.1 1829.85 449.1 1829.85 479.8 1860.55 479.8 1860.55 449.1 1891.25 449.1 1891.25 479.8 1963.55 479.8M1461.5 142.1L1461.5 172.8 1430.8 172.8 1430.8 203.5 1461.5 203.5 1461.5 234.2 1492.2 234.2 1492.2 203.5 1522.9 203.5 1522.9 172.8 1492.2 172.8M1584.3 172.8L1553.6 172.8 1553.6 203.5 1584.3 203.5 1584.3 172.8ZM1461.5 80.75L1461.5 111.4 1430.8 111.4 1430.8 142.1 1461.5 142.1M1400.1 50.05L1400.1 80.75 1430.8 80.75 1430.8 50.05 1400.1 50.05 1400.1 19.35 1430.8 19.35 1430.8 50.05 1461.5 50.05M1308 50.05L1308 80.75 1338.7 80.75 1338.7 50.05 1308 50.05 1308 19.35 1277.3 19.35 1277.3 50.05 1308 50.05ZM1338.7 80.75L1369.4 80.75 1369.4 50.05 1338.7 50.05 1338.7 19.35 1308 19.35 1308 -11.35 1277.3 -11.35 1277.3 19.35 1246.6 19.35 1246.6 50.05 1277.3 50.05 1277.3 80.75 1308 80.75 1308 111.4 1338.7 111.4 1338.7 80.75ZM1369.4 19.35L1369.4 50.05 1400.1 50.05M1369.4 111.4L1338.7 111.4 1338.7 142.1 1369.4 142.1 1369.4 111.4 1369.4 80.75 1400.1 80.75 1400.1 111.4 1430.8 111.4 1430.8 80.75 1461.5 80.75M1308 111.4L1308 142.1 1338.7 142.1 1338.7 172.8 1369.4 172.8 1369.4 142.1 1400.1 142.1 1400.1 111.4 1369.4 111.4M1308 142.1L1308 172.8 1338.7 172.8 1338.7 203.5 1369.4 203.5 1369.4 172.8 1400.1 172.8 1400.1 142.1 1430.8 142.1 1430.8 172.8 1400.1 172.8 1400.1 203.5 1430.8 203.5 1430.8 234.2 1461.5 234.2 1461.5 264.9 1492.2 264.9 1492.2 234.2 1522.9 234.2 1522.9 203.5 1553.6 203.5 1553.6 234.2 1584.3 234.2 1584.3 264.9 1553.6 264.9 1553.6 295.6 1584.3 295.6 1584.3 326.3 1553.6 326.3 1553.6 357 1584.3 357 1584.3 387.7 1615 387.7 1615 418.4 1645.7 418.4 1645.7 449.1 1676.4 449.1 1676.4 479.8 1707.1 479.8 1707.1 449.1 1737.8 449.1 1737.8 479.8 1768.45 479.8 1768.45 449.1 1799.15 449.1 1799.15 479.8 1829.85 479.8 1829.85 510.5 1860.55 510.5 1860.55 479.8 1891.25 479.8 1891.25 510.5 1963.55 510.5M1400.1 203.5L1400.1 234.2 1430.8 234.2 1430.8 264.9 1461.5 264.9 1461.5 295.6 1492.2 295.6 1492.2 264.9 1522.9 264.9 1522.9 234.2 1553.6 234.2 1553.6 264.9 1522.9 264.9 1522.9 295.6 1553.6 295.6 1553.6 326.3 1522.9 326.3 1522.9 357 1553.6 357 1553.6 387.7 1584.3 387.7 1584.3 418.4 1615 418.4 1615 449.1 1645.7 449.1 1645.7 479.8 1676.4 479.8 1676.4 510.5 1707.1 510.5 1707.1 479.8 1737.8 479.8 1737.8 510.5 1768.45 510.5 1768.45 479.8 1799.15 479.8 1799.15 510.5 1829.85 510.5 1829.85 541.2 1860.55 541.2 1860.55 510.5 1891.25 510.5 1891.25 541.2 1963.55 541.2M1400.1 264.9L1400.1 295.6 1430.8 295.6 1430.8 264.9 1400.1 264.9 1400.1 234.2 1369.4 234.2 1369.4 264.9 1400.1 264.9ZM1400.1 203.5L1369.4 203.5 1369.4 234.2 1338.7 234.2 1338.7 264.9 1369.4 264.9 1369.4 295.6 1400.1 295.6 1400.1 326.3 1430.8 326.3 1430.8 295.6 1461.5 295.6 1461.5 326.3 1492.2 326.3 1492.2 295.6 1522.9 295.6 1522.9 326.3 1492.2 326.3 1492.2 357 1522.9 357 1522.9 387.7 1553.6 387.7 1553.6 418.4 1584.3 418.4 1584.3 449.1 1615 449.1 1615 479.8 1645.7 479.8 1645.7 510.5 1676.4 510.5 1676.4 541.2 1707.1 541.2 1707.1 510.5 1737.8 510.5 1737.8 541.2 1768.45 541.2 1768.45 510.5 1799.15 510.5 1799.15 541.2 1829.85 541.2 1829.85 571.9 1860.55 571.9 1860.55 541.2 1891.25 541.2 1891.25 571.9 1963.55 571.9M1338.7 203.5L1338.7 234.2 1308 234.2 1308 264.9 1338.7 264.9 1338.7 295.6 1369.4 295.6 1369.4 326.3 1400.1 326.3 1400.1 357 1430.8 357 1430.8 326.3 1461.5 326.3 1461.5 357 1492.2 357 1492.2 387.7 1522.9 387.7 1522.9 418.4 1553.6 418.4 1553.6 449.1 1584.3 449.1 1584.3 479.8 1615 479.8 1615 510.5 1645.7 510.5 1645.7 541.2 1676.4 541.2 1676.4 571.9 1707.1 571.9 1707.1 541.2 1737.8 541.2 1737.8 571.9 1768.45 571.9 1768.45 541.2 1799.15 541.2 1799.15 571.9 1829.85 571.9 1829.85 602.6 1860.55 602.6 1860.55 571.9 1891.25 571.9 1891.25 602.6 1963.55 602.6M1338.7 203.5L1308 203.5 1308 234.2 1277.3 234.2 1277.3 264.9 1308 264.9 1308 295.6 1338.7 295.6 1338.7 326.3 1369.4 326.3 1369.4 357 1400.1 357 1400.1 387.7 1430.8 387.7 1430.8 357 1461.5 357 1461.5 387.7 1492.2 387.7 1492.2 418.4 1522.9 418.4 1522.9 449.1 1553.6 449.1 1553.6 479.8 1584.3 479.8 1584.3 510.5 1615 510.5 1615 541.2 1645.7 541.2 1645.7 571.9 1676.4 571.9 1676.4 602.6 1707.1 602.6 1707.1 571.9 1737.8 571.9 1737.8 602.6 1768.45 602.6 1768.45 571.9 1799.15 571.9 1799.15 602.6 1829.85 602.6 1829.85 633.3 1860.55 633.3 1860.55 602.6 1891.25 602.6 1891.25 633.3 1963.55 633.3M1308 357L1308 387.7 1338.7 387.7 1338.7 357 1308 357 1308 326.3 1277.3 326.3 1277.3 357 1308 357ZM1338.7 387.7L1369.4 387.7 1369.4 357 1338.7 357 1338.7 326.3 1308 326.3 1308 295.6 1277.3 295.6 1277.3 326.3 1246.6 326.3 1246.6 357 1277.3 357 1277.3 387.7 1308 387.7 1308 418.4 1338.7 418.4 1338.7 387.7ZM1400.1 387.7L1369.4 387.7 1369.4 418.4 1400.1 418.4 1400.1 387.7ZM1308 172.8L1308 203.5 1277.3 203.5 1277.3 234.2 1246.6 234.2 1246.6 264.9 1277.3 264.9 1277.3 295.6 1246.6 295.6 1246.6 326.3 1215.9 326.3 1215.9 357 1246.6 357 1246.6 387.7 1277.3 387.7 1277.3 418.4 1308 418.4 1308 449.1 1338.7 449.1 1338.7 418.4 1369.4 418.4 1369.4 449.1 1400.1 449.1 1400.1 418.4 1430.8 418.4 1430.8 387.7 1461.5 387.7 1461.5 418.4 1492.2 418.4 1492.2 449.1 1522.9 449.1 1522.9 479.8 1553.6 479.8 1553.6 510.5 1584.3 510.5 1584.3 541.2 1615 541.2 1615 571.9 1645.7 571.9 1645.7 602.6 1676.4 602.6 1676.4 633.3 1707.1 633.3 1707.1 602.6 1737.8 602.6 1737.8 633.3 1768.45 633.3 1768.45 602.6 1799.15 602.6 1799.15 633.3 1829.85 633.3 1829.85 664 1860.55 664 1860.55 633.3 1891.25 633.3 1891.25 664 1963.55 664M1492.2 449.1L1461.5 449.1 1461.5 479.8 1492.2 479.8 1492.2 449.1ZM1461.5 418.4L1461.5 449.1 1430.8 449.1 1430.8 479.8 1461.5 479.8 1461.5 510.5 1492.2 510.5 1492.2 479.8 1522.9 479.8 1522.9 510.5 1553.6 510.5 1553.6 541.2 1584.3 541.2 1584.3 571.9 1615 571.9 1615 602.6 1645.7 602.6 1645.7 633.3 1676.4 633.3 1676.4 664 1707.1 664 1707.1 633.3 1737.8 633.3 1737.8 664 1768.45 664 1768.45 633.3 1799.15 633.3 1799.15 664 1829.85 664 1829.85 694.7 1860.55 694.7 1860.55 664 1891.25 664 1891.25 694.7 1963.55 694.7M1522.9 510.5L1522.9 541.2 1553.6 541.2 1553.6 571.9 1584.3 571.9 1584.3 602.6 1615 602.6 1615 633.3 1645.7 633.3 1645.7 664 1676.4 664 1676.4 694.7 1707.1 694.7 1707.1 664 1737.8 664 1737.8 694.7 1768.45 694.7 1768.45 664 1799.15 664 1799.15 694.7 1829.85 694.7 1829.85 725.4 1860.55 725.4 1860.55 694.7 1891.25 694.7 1891.25 725.4 1963.55 725.4M1522.9 510.5L1492.2 510.5 1492.2 541.2 1522.9 541.2 1522.9 571.9 1553.6 571.9 1553.6 602.6 1584.3 602.6 1584.3 633.3 1615 633.3 1615 664 1645.7 664 1645.7 694.7 1676.4 694.7 1676.4 725.4 1707.1 725.4 1707.1 694.7 1737.8 694.7 1737.8 725.4 1768.45 725.4 1768.45 694.7 1799.15 694.7 1799.15 725.4 1829.85 725.4 1829.85 756.1 1860.55 756.1 1860.55 725.4 1891.25 725.4 1891.25 756.1 1963.55 756.1M1461.5 510.5L1461.5 541.2 1492.2 541.2 1492.2 571.9 1522.9 571.9 1522.9 602.6 1553.6 602.6 1553.6 633.3 1584.3 633.3 1584.3 664 1615 664 1615 694.7 1645.7 694.7 1645.7 725.4 1676.4 725.4 1676.4 756.1 1707.1 756.1 1707.1 725.4 1737.8 725.4 1737.8 756.1 1768.45 756.1 1768.45 725.4 1799.15 725.4 1799.15 756.1 1829.85 756.1 1829.85 786.75 1860.55 786.75 1860.55 756.1 1891.25 756.1 1891.25 786.75 1963.55 786.75M1492.2 571.9L1461.5 571.9 1461.5 602.6 1492.2 602.6 1492.2 571.9ZM1461.5 541.2L1461.5 571.9 1430.8 571.9 1430.8 602.6 1461.5 602.6 1461.5 633.3 1492.2 633.3 1492.2 602.6 1522.9 602.6 1522.9 633.3 1553.6 633.3 1553.6 664 1584.3 664 1584.3 694.7 1615 694.7 1615 725.4 1645.7 725.4 1645.7 756.1 1676.4 756.1 1676.4 786.75 1707.1 786.75 1707.1 756.1 1737.8 756.1 1737.8 786.75 1768.45 786.75 1768.45 756.1 1799.15 756.1 1799.15 786.75 1829.85 786.75 1829.85 817.45 1860.55 817.45 1860.55 786.75 1891.25 786.75 1891.25 817.45 1963.55 817.45M1430.8 449.1L1400.1 449.1 1400.1 479.8 1430.8 479.8 1430.8 510.5 1461.5 510.5M1461.5 418.4L1430.8 418.4 1430.8 449.1M1308 449.1L1308 479.8 1338.7 479.8 1338.7 449.1 1369.4 449.1 1369.4 479.8 1400.1 479.8 1400.1 510.5 1430.8 510.5 1430.8 541.2 1461.5 541.2M1369.4 479.8L1338.7 479.8 1338.7 510.5 1369.4 510.5 1369.4 479.8ZM1369.4 510.5L1369.4 541.2 1400.1 541.2 1400.1 510.5 1369.4 510.5ZM1338.7 510.5L1338.7 541.2 1369.4 541.2 1369.4 571.9 1400.1 571.9 1400.1 541.2 1430.8 541.2 1430.8 571.9 1400.1 571.9 1400.1 602.6 1430.8 602.6 1430.8 633.3 1461.5 633.3 1461.5 664 1492.2 664 1492.2 633.3 1522.9 633.3 1522.9 664 1553.6 664 1553.6 694.7 1584.3 694.7 1584.3 725.4 1615 725.4 1615 756.1 1645.7 756.1 1645.7 786.75 1676.4 786.75 1676.4 817.45 1707.1 817.45 1707.1 786.75 1737.8 786.75 1737.8 817.45 1768.45 817.45 1768.45 786.75 1799.15 786.75 1799.15 817.45 1829.85 817.45 1829.85 818.65M1338.7 510.5L1308 510.5 1308 541.2 1338.7 541.2 1338.7 571.9 1369.4 571.9 1369.4 602.6 1400.1 602.6 1400.1 633.3 1430.8 633.3 1430.8 664 1461.5 664 1461.5 694.7 1492.2 694.7 1492.2 664 1522.9 664 1522.9 694.7 1553.6 694.7 1553.6 725.4 1584.3 725.4 1584.3 756.1 1615 756.1 1615 786.75 1645.7 786.75 1645.7 817.45 1676.4 817.45 1676.4 818.65M1308 541.2L1308 571.9 1338.7 571.9 1338.7 602.6 1369.4 602.6 1369.4 633.3 1400.1 633.3 1400.1 664 1430.8 664 1430.8 694.7 1461.5 694.7 1461.5 725.4 1492.2 725.4 1492.2 694.7 1522.9 694.7 1522.9 725.4 1553.6 725.4 1553.6 756.1 1584.3 756.1 1584.3 786.75 1615 786.75 1615 817.45 1645.7 817.45 1645.7 818.65M1308 479.8L1308 510.5 1277.3 510.5 1277.3 541.2 1308 541.2M1338.7 602.6L1338.7 633.3 1369.4 633.3 1369.4 664 1400.1 664 1400.1 694.7 1430.8 694.7 1430.8 725.4 1461.5 725.4 1461.5 756.1 1492.2 756.1 1492.2 725.4 1522.9 725.4 1522.9 756.1 1553.6 756.1 1553.6 786.75 1584.3 786.75 1584.3 817.45 1615 817.45 1615 818.65M1338.7 602.6L1308 602.6 1308 633.3 1338.7 633.3 1338.7 664 1369.4 664 1369.4 694.7 1400.1 694.7 1400.1 725.4 1430.8 725.4 1430.8 756.1 1461.5 756.1 1461.5 786.75 1492.2 786.75 1492.2 756.1 1522.9 756.1 1522.9 786.75 1553.6 786.75 1553.6 817.45 1584.3 817.45 1584.3 818.65M1308 633.3L1308 664 1338.7 664 1338.7 694.7 1369.4 694.7 1369.4 725.4 1400.1 725.4 1400.1 756.1 1430.8 756.1 1430.8 786.75 1461.5 786.75 1461.5 817.45 1492.2 817.45 1492.2 786.75 1522.9 786.75 1522.9 817.45 1553.6 817.45 1553.6 818.65M1338.7 694.7L1338.7 725.4 1369.4 725.4 1369.4 756.1 1400.1 756.1 1400.1 786.75 1430.8 786.75 1430.8 817.45 1461.5 817.45 1461.5 818.65M1338.7 694.7L1308 694.7 1308 725.4 1338.7 725.4 1338.7 756.1 1369.4 756.1 1369.4 786.75 1400.1 786.75 1400.1 817.45 1430.8 817.45 1430.8 818.65M1308 756.1L1308 786.75 1338.7 786.75 1338.7 756.1 1308 756.1 1308 725.4 1277.3 725.4 1277.3 756.1 1308 756.1ZM1369.4 786.75L1338.7 786.75 1338.7 817.45 1369.4 817.45 1369.4 786.75ZM1308 664L1308 694.7 1277.3 694.7 1277.3 725.4 1246.6 725.4 1246.6 756.1 1277.3 756.1 1277.3 786.75 1308 786.75 1308 817.45 1338.7 817.45 1338.7 818.65M1308 571.9L1308 602.6 1277.3 602.6 1277.3 633.3 1308 633.3M663.35 -12.55L663.35 -11.35 694.05 -11.35 694.05 -12.55M724.75 -11.35L694.05 -11.35 694.05 19.35 724.75 19.35 724.75 -11.35 724.75 -12.55M755.45 -12.55L755.45 -11.35 786.15 -11.35 786.15 -12.55M724.75 19.35L755.45 19.35 755.45 -11.35 724.75 -11.35M847.55 -11.35L816.85 -11.35 816.85 19.35 847.55 19.35 847.55 -11.35 847.55 -12.55M816.85 -12.55L816.85 -11.35 786.15 -11.35 786.15 19.35 816.85 19.35 816.85 50.05 847.55 50.05 847.55 19.35 878.25 19.35 878.25 -11.35 847.55 -11.35M878.25 -12.55L878.25 -11.35 908.95 -11.35 908.95 -12.55M970.35 -11.35L939.65 -11.35 939.65 19.35 970.35 19.35 970.35 -11.35 970.35 -12.55M939.65 -12.55L939.65 -11.35 908.95 -11.35 908.95 19.35 939.65 19.35 939.65 50.05 970.35 50.05 970.35 19.35 1001.05 19.35 1001.05 -11.35 970.35 -11.35M1001.05 -12.55L1001.05 -11.35 1031.75 -11.35 1031.75 -12.55M1093.1 -11.35L1062.45 -11.35 1062.45 19.35 1093.1 19.35 1093.1 -11.35 1093.1 -12.55M1062.45 -12.55L1062.45 -11.35 1031.75 -11.35 1031.75 19.35 1062.45 19.35 1062.45 50.05 1093.1 50.05 1093.1 19.35 1123.8 19.35 1123.8 -11.35 1093.1 -11.35M1123.8 -12.55L1123.8 -11.35 1154.5 -11.35 1154.5 -12.55M1185.2 -12.55L1185.2 -11.35 1215.9 -11.35 1215.9 -12.55M1185.2 -11.35L1154.5 -11.35 1154.5 19.35 1185.2 19.35 1185.2 -11.35ZM1246.6 -11.35L1215.9 -11.35 1215.9 19.35 1246.6 19.35 1246.6 -11.35 1246.6 -12.55M1277.3 -12.55L1277.3 -11.35 1246.6 -11.35M18.7 -12.55L18.7 -11.35 49.4 -11.35 49.4 -12.55M80.1 -11.35L49.4 -11.35 49.4 19.35 80.1 19.35 80.1 -11.35 80.1 -12.55M110.8 -12.55L110.8 -11.35 141.5 -11.35 141.5 -12.55M80.1 19.35L110.8 19.35 110.8 -11.35 80.1 -11.35M172.2 -12.55L172.2 -11.35 202.9 -11.35 202.9 -12.55M233.6 -11.35L202.9 -11.35 202.9 19.35 233.6 19.35 233.6 -11.35 233.6 -12.55M264.3 -12.55L264.3 -11.35 295 -11.35 295 -12.55M233.6 19.35L264.3 19.35 264.3 -11.35 233.6 -11.35M172.2 -11.35L141.5 -11.35 141.5 19.35 172.2 19.35 172.2 -11.35ZM356.4 -11.35L325.7 -11.35 325.7 19.35 356.4 19.35 356.4 -11.35 356.4 -12.55M325.7 -12.55L325.7 -11.35 295 -11.35 295 19.35 325.7 19.35 325.7 50.05 356.4 50.05 356.4 19.35 387.1 19.35 387.1 -11.35 356.4 -11.35M387.1 -12.55L387.1 -11.35 417.75 -11.35 417.75 -12.55M479.15 -11.35L448.45 -11.35 448.45 19.35 479.15 19.35 479.15 -11.35 479.15 -12.55M448.45 -12.55L448.45 -11.35 417.75 -11.35 417.75 19.35 448.45 19.35 448.45 50.05 479.15 50.05 479.15 19.35 509.85 19.35 509.85 -11.35 479.15 -11.35M509.85 -12.55L509.85 -11.35 540.55 -11.35 540.55 -12.55M601.95 -11.35L571.25 -11.35 571.25 19.35 601.95 19.35 601.95 -11.35 601.95 -12.55M571.25 -12.55L571.25 -11.35 540.55 -11.35 540.55 19.35 571.25 19.35 571.25 50.05 601.95 50.05 601.95 19.35 632.65 19.35 632.65 -11.35 601.95 -11.35M632.65 -12.55L632.65 -11.35 663.35 -11.35 663.35 19.35 694.05 19.35 694.05 50.05 724.75 50.05 724.75 19.35M571.25 50.05L571.25 80.75 601.95 80.75 601.95 50.05 632.65 50.05 632.65 19.35 663.35 19.35 663.35 50.05 694.05 50.05 694.05 80.75 724.75 80.75 724.75 50.05 755.45 50.05 755.45 19.35 786.15 19.35 786.15 50.05 816.85 50.05 816.85 80.75 847.55 80.75 847.55 50.05 878.25 50.05 878.25 19.35 908.95 19.35 908.95 50.05 939.65 50.05 939.65 80.75 970.35 80.75 970.35 50.05 1001.05 50.05 1001.05 19.35 1031.75 19.35 1031.75 50.05 1062.45 50.05 1062.45 80.75 1093.1 80.75 1093.1 50.05 1123.8 50.05 1123.8 19.35 1154.5 19.35 1154.5 50.05 1185.2 50.05 1185.2 19.35 1215.9 19.35 1215.9 50.05 1246.6 50.05 1246.6 80.75 1277.3 80.75 1277.3 111.4 1308 111.4M632.65 50.05L632.65 80.75 663.35 80.75 663.35 50.05 632.65 50.05ZM632.65 80.75L601.95 80.75 601.95 111.4 632.65 111.4 632.65 80.75ZM509.85 50.05L509.85 80.75 540.55 80.75 540.55 50.05 509.85 50.05 509.85 19.35 540.55 19.35 540.55 50.05 571.25 50.05M540.55 111.4L540.55 142.1 571.25 142.1 571.25 111.4 540.55 111.4 540.55 80.75 571.25 80.75 571.25 111.4 601.95 111.4 601.95 142.1 632.65 142.1 632.65 111.4 663.35 111.4 663.35 80.75 694.05 80.75 694.05 111.4 724.75 111.4 724.75 80.75 755.45 80.75 755.45 50.05 786.15 50.05 786.15 80.75 816.85 80.75 816.85 111.4 847.55 111.4 847.55 80.75 878.25 80.75 878.25 50.05 908.95 50.05 908.95 80.75 939.65 80.75 939.65 111.4 970.35 111.4 970.35 80.75 1001.05 80.75 1001.05 50.05 1031.75 50.05 1031.75 80.75 1062.45 80.75 1062.45 111.4 1093.1 111.4 1093.1 80.75 1123.8 80.75 1123.8 50.05 1154.5 50.05 1154.5 80.75 1185.2 80.75 1185.2 50.05 1215.9 50.05 1215.9 80.75 1246.6 80.75 1246.6 111.4 1277.3 111.4 1277.3 142.1 1308 142.1M540.55 111.4L509.85 111.4 509.85 142.1 540.55 142.1 540.55 172.8 571.25 172.8 571.25 142.1 601.95 142.1 601.95 172.8 632.65 172.8 632.65 142.1 663.35 142.1 663.35 111.4 694.05 111.4 694.05 142.1 724.75 142.1 724.75 111.4 755.45 111.4 755.45 80.75 786.15 80.75 786.15 111.4 816.85 111.4 816.85 142.1 847.55 142.1 847.55 111.4 878.25 111.4 878.25 80.75 908.95 80.75 908.95 111.4 939.65 111.4 939.65 142.1 970.35 142.1 970.35 111.4 1001.05 111.4 1001.05 80.75 1031.75 80.75 1031.75 111.4 1062.45 111.4 1062.45 142.1 1093.1 142.1 1093.1 111.4 1123.8 111.4 1123.8 80.75 1154.5 80.75 1154.5 111.4 1185.2 111.4 1185.2 80.75 1215.9 80.75 1215.9 111.4 1246.6 111.4 1246.6 142.1 1277.3 142.1 1277.3 172.8 1308 172.8M509.85 142.1L509.85 172.8 540.55 172.8 540.55 203.5 571.25 203.5 571.25 172.8 601.95 172.8 601.95 203.5 632.65 203.5 632.65 172.8 663.35 172.8 663.35 142.1 694.05 142.1 694.05 172.8 724.75 172.8 724.75 142.1 755.45 142.1 755.45 111.4 786.15 111.4 786.15 142.1 816.85 142.1 816.85 172.8 847.55 172.8 847.55 142.1 878.25 142.1 878.25 111.4 908.95 111.4 908.95 142.1 939.65 142.1 939.65 172.8 970.35 172.8 970.35 142.1 1001.05 142.1 1001.05 111.4 1031.75 111.4 1031.75 142.1 1062.45 142.1 1062.45 172.8 1093.1 172.8 1093.1 142.1 1123.8 142.1 1123.8 111.4 1154.5 111.4 1154.5 142.1 1185.2 142.1 1185.2 111.4 1215.9 111.4 1215.9 142.1 1246.6 142.1 1246.6 172.8 1277.3 172.8 1277.3 203.5 1246.6 203.5 1246.6 234.2 1215.9 234.2 1215.9 264.9 1246.6 264.9 1246.6 295.6 1215.9 295.6 1215.9 326.3 1185.2 326.3 1185.2 357 1215.9 357 1215.9 387.7 1246.6 387.7 1246.6 418.4 1277.3 418.4 1277.3 449.1 1308 449.1M509.85 80.75L509.85 111.4 479.15 111.4 479.15 142.1 509.85 142.1M417.75 50.05L417.75 80.75 448.45 80.75 448.45 50.05 417.75 50.05 417.75 19.35 387.1 19.35 387.1 50.05 417.75 50.05ZM509.85 50.05L479.15 50.05 479.15 80.75 509.85 80.75M479.15 80.75L448.45 80.75 448.45 111.4 479.15 111.4 479.15 80.75ZM325.7 50.05L325.7 80.75 356.4 80.75 356.4 50.05 387.1 50.05 387.1 80.75 417.75 80.75 417.75 111.4 448.45 111.4 448.45 142.1 479.15 142.1 479.15 172.8 509.85 172.8 509.85 203.5 540.55 203.5 540.55 234.2 571.25 234.2 571.25 203.5 601.95 203.5 601.95 234.2 632.65 234.2 632.65 203.5 663.35 203.5 663.35 172.8 694.05 172.8 694.05 203.5 724.75 203.5 724.75 172.8 755.45 172.8 755.45 142.1 786.15 142.1 786.15 172.8 816.85 172.8 816.85 203.5 847.55 203.5 847.55 172.8 878.25 172.8 878.25 142.1 908.95 142.1 908.95 172.8 939.65 172.8 939.65 203.5 970.35 203.5 970.35 172.8 1001.05 172.8 1001.05 142.1 1031.75 142.1 1031.75 172.8 1062.45 172.8 1062.45 203.5 1093.1 203.5 1093.1 172.8 1123.8 172.8 1123.8 142.1 1154.5 142.1 1154.5 172.8 1185.2 172.8 1185.2 142.1 1215.9 142.1 1215.9 172.8 1246.6 172.8 1246.6 203.5 1215.9 203.5 1215.9 234.2 1185.2 234.2 1185.2 264.9 1215.9 264.9 1215.9 295.6 1185.2 295.6 1185.2 326.3 1154.5 326.3 1154.5 357 1185.2 357 1185.2 387.7 1215.9 387.7 1215.9 418.4 1246.6 418.4 1246.6 449.1 1277.3 449.1 1277.3 479.8 1308 479.8M387.1 80.75L356.4 80.75 356.4 111.4 387.1 111.4 387.1 80.75ZM387.1 111.4L387.1 142.1 417.75 142.1 417.75 111.4 387.1 111.4ZM356.4 111.4L325.7 111.4 325.7 142.1 356.4 142.1 356.4 111.4ZM356.4 172.8L325.7 172.8 325.7 203.5 356.4 203.5 356.4 172.8 356.4 142.1 387.1 142.1 387.1 172.8 417.75 172.8 417.75 142.1 448.45 142.1 448.45 172.8 479.15 172.8 479.15 203.5 509.85 203.5 509.85 234.2 540.55 234.2 540.55 264.9 571.25 264.9 571.25 234.2 601.95 234.2 601.95 264.9 632.65 264.9 632.65 234.2 663.35 234.2 663.35 203.5 694.05 203.5 694.05 234.2 724.75 234.2 724.75 203.5 755.45 203.5 755.45 172.8 786.15 172.8 786.15 203.5 816.85 203.5 816.85 234.2 847.55 234.2 847.55 203.5 878.25 203.5 878.25 172.8 908.95 172.8 908.95 203.5 939.65 203.5 939.65 234.2 970.35 234.2 970.35 203.5 1001.05 203.5 1001.05 172.8 1031.75 172.8 1031.75 203.5 1062.45 203.5 1062.45 234.2 1093.1 234.2 1093.1 203.5 1123.8 203.5 1123.8 172.8 1154.5 172.8 1154.5 203.5 1185.2 203.5 1185.2 172.8 1215.9 172.8 1215.9 203.5 1185.2 203.5 1185.2 234.2 1154.5 234.2 1154.5 264.9 1185.2 264.9 1185.2 295.6 1154.5 295.6 1154.5 326.3 1123.8 326.3 1123.8 357 1154.5 357 1154.5 387.7 1185.2 387.7 1185.2 418.4 1215.9 418.4 1215.9 449.1 1246.6 449.1 1246.6 479.8 1277.3 479.8 1277.3 510.5 1246.6 510.5 1246.6 541.2 1277.3 541.2 1277.3 571.9 1308 571.9M325.7 142.1L325.7 172.8 295 172.8 295 203.5 325.7 203.5 325.7 234.2 356.4 234.2 356.4 203.5 387.1 203.5 387.1 172.8 356.4 172.8M448.45 172.8L417.75 172.8 417.75 203.5 448.45 203.5 448.45 172.8ZM325.7 80.75L325.7 111.4 295 111.4 295 142.1 325.7 142.1M479.15 203.5L448.45 203.5 448.45 234.2 479.15 234.2 479.15 203.5ZM417.75 203.5L417.75 234.2 448.45 234.2 448.45 264.9 479.15 264.9 479.15 234.2 509.85 234.2 509.85 264.9 540.55 264.9 540.55 295.6 571.25 295.6 571.25 264.9 601.95 264.9 601.95 295.6 632.65 295.6 632.65 264.9 663.35 264.9 663.35 234.2 694.05 234.2 694.05 264.9 724.75 264.9 724.75 234.2 755.45 234.2 755.45 203.5 786.15 203.5 786.15 234.2 816.85 234.2 816.85 264.9 847.55 264.9 847.55 234.2 878.25 234.2 878.25 203.5 908.95 203.5 908.95 234.2 939.65 234.2 939.65 264.9 970.35 264.9 970.35 234.2 1001.05 234.2 1001.05 203.5 1031.75 203.5 1031.75 234.2 1062.45 234.2 1062.45 264.9 1093.1 264.9 1093.1 234.2 1123.8 234.2 1123.8 203.5 1154.5 203.5 1154.5 234.2 1123.8 234.2 1123.8 264.9 1154.5 264.9 1154.5 295.6 1123.8 295.6 1123.8 326.3 1093.1 326.3 1093.1 357 1123.8 357 1123.8 387.7 1154.5 387.7 1154.5 418.4 1185.2 418.4 1185.2 449.1 1215.9 449.1 1215.9 479.8 1246.6 479.8 1246.6 510.5 1215.9 510.5 1215.9 541.2 1246.6 541.2 1246.6 571.9 1277.3 571.9 1277.3 602.6 1246.6 602.6 1246.6 633.3 1277.3 633.3 1277.3 664 1308 664M417.75 264.9L417.75 295.6 448.45 295.6 448.45 264.9 417.75 264.9 417.75 234.2 387.1 234.2 387.1 264.9 417.75 264.9ZM479.15 264.9L479.15 295.6 509.85 295.6 509.85 264.9 479.15 264.9ZM479.15 295.6L448.45 295.6 448.45 326.3 479.15 326.3 479.15 295.6ZM417.75 203.5L387.1 203.5 387.1 234.2 356.4 234.2 356.4 264.9 387.1 264.9 387.1 295.6 417.75 295.6 417.75 326.3 448.45 326.3 448.45 357 479.15 357 479.15 326.3 509.85 326.3 509.85 295.6 540.55 295.6 540.55 326.3 571.25 326.3 571.25 295.6 601.95 295.6 601.95 326.3 632.65 326.3 632.65 295.6 663.35 295.6 663.35 264.9 694.05 264.9 694.05 295.6 724.75 295.6 724.75 264.9 755.45 264.9 755.45 234.2 786.15 234.2 786.15 264.9 816.85 264.9 816.85 295.6 847.55 295.6 847.55 264.9 878.25 264.9 878.25 234.2 908.95 234.2 908.95 264.9 939.65 264.9 939.65 295.6 970.35 295.6 970.35 264.9 1001.05 264.9 1001.05 234.2 1031.75 234.2 1031.75 264.9 1062.45 264.9 1062.45 295.6 1093.1 295.6 1093.1 264.9 1123.8 264.9 1123.8 295.6 1093.1 295.6 1093.1 326.3 1062.45 326.3 1062.45 357 1093.1 357 1093.1 387.7 1123.8 387.7 1123.8 418.4 1154.5 418.4 1154.5 449.1 1185.2 449.1 1185.2 479.8 1215.9 479.8 1215.9 510.5 1185.2 510.5 1185.2 541.2 1215.9 541.2 1215.9 571.9 1246.6 571.9 1246.6 602.6 1215.9 602.6 1215.9 633.3 1246.6 633.3 1246.6 664 1277.3 664 1277.3 694.7 1246.6 694.7 1246.6 725.4 1215.9 725.4 1215.9 756.1 1246.6 756.1 1246.6 786.75 1277.3 786.75 1277.3 817.45 1308 817.45 1308 818.65M356.4 264.9L325.7 264.9 325.7 295.6 356.4 295.6 356.4 264.9ZM325.7 234.2L325.7 264.9 295 264.9 295 295.6 325.7 295.6 325.7 326.3 356.4 326.3 356.4 295.6 387.1 295.6 387.1 326.3 417.75 326.3 417.75 357 448.45 357 448.45 387.7 479.15 387.7 479.15 357 509.85 357 509.85 326.3 540.55 326.3 540.55 357 571.25 357 571.25 326.3 601.95 326.3 601.95 357 632.65 357 632.65 326.3 663.35 326.3 663.35 295.6 694.05 295.6 694.05 326.3 724.75 326.3 724.75 295.6 755.45 295.6 755.45 264.9 786.15 264.9 786.15 295.6 816.85 295.6 816.85 326.3 847.55 326.3 847.55 295.6 878.25 295.6 878.25 264.9 908.95 264.9 908.95 295.6 939.65 295.6 939.65 326.3 970.35 326.3 970.35 295.6 1001.05 295.6 1001.05 264.9 1031.75 264.9 1031.75 295.6 1062.45 295.6 1062.45 326.3 1031.75 326.3 1031.75 357 1062.45 357 1062.45 387.7 1093.1 387.7 1093.1 418.4 1123.8 418.4 1123.8 449.1 1154.5 449.1 1154.5 479.8 1185.2 479.8 1185.2 510.5 1154.5 510.5 1154.5 541.2 1185.2 541.2 1185.2 571.9 1215.9 571.9 1215.9 602.6 1185.2 602.6 1185.2 633.3 1215.9 633.3 1215.9 664 1246.6 664 1246.6 694.7 1215.9 694.7 1215.9 725.4 1185.2 725.4 1185.2 756.1 1215.9 756.1 1215.9 786.75 1246.6 786.75 1246.6 817.45 1277.3 817.45 1277.3 818.65M356.4 357L325.7 357 325.7 387.7 356.4 387.7 356.4 357 356.4 326.3 387.1 326.3 387.1 357 417.75 357 417.75 387.7 448.45 387.7 448.45 418.4 479.15 418.4 479.15 387.7 509.85 387.7 509.85 357 540.55 357 540.55 387.7 571.25 387.7 571.25 357 601.95 357 601.95 387.7 632.65 387.7 632.65 357 663.35 357 663.35 326.3 694.05 326.3 694.05 357 724.75 357 724.75 326.3 755.45 326.3 755.45 295.6 786.15 295.6 786.15 326.3 816.85 326.3 816.85 357 847.55 357 847.55 326.3 878.25 326.3 878.25 295.6 908.95 295.6 908.95 326.3 939.65 326.3 939.65 357 970.35 357 970.35 326.3 1001.05 326.3 1001.05 295.6 1031.75 295.6 1031.75 326.3 1001.05 326.3 1001.05 357 1031.75 357 1031.75 387.7 1062.45 387.7 1062.45 418.4 1093.1 418.4 1093.1 449.1 1123.8 449.1 1123.8 479.8 1154.5 479.8 1154.5 510.5 1123.8 510.5 1123.8 541.2 1154.5 541.2 1154.5 571.9 1185.2 571.9 1185.2 602.6 1154.5 602.6 1154.5 633.3 1185.2 633.3 1185.2 664 1215.9 664 1215.9 694.7 1185.2 694.7 1185.2 725.4 1154.5 725.4 1154.5 756.1 1185.2 756.1 1185.2 786.75 1215.9 786.75 1215.9 817.45 1246.6 817.45 1246.6 818.65M387.1 357L387.1 387.7 417.75 387.7 417.75 418.4 448.45 418.4 448.45 449.1 479.15 449.1 479.15 418.4 509.85 418.4 509.85 387.7 540.55 387.7 540.55 418.4 571.25 418.4 571.25 387.7 601.95 387.7 601.95 418.4 632.65 418.4 632.65 387.7 663.35 387.7 663.35 357 694.05 357 694.05 387.7 724.75 387.7 724.75 357 755.45 357 755.45 326.3 786.15 326.3 786.15 357 816.85 357 816.85 387.7 847.55 387.7 847.55 357 878.25 357 878.25 326.3 908.95 326.3 908.95 357 939.65 357 939.65 387.7 970.35 387.7 970.35 357 1001.05 357 1001.05 387.7 1031.75 387.7 1031.75 418.4 1062.45 418.4 1062.45 449.1 1093.1 449.1 1093.1 479.8 1123.8 479.8 1123.8 510.5 1093.1 510.5 1093.1 541.2 1123.8 541.2 1123.8 571.9 1154.5 571.9 1154.5 602.6 1123.8 602.6 1123.8 633.3 1154.5 633.3 1154.5 664 1185.2 664 1185.2 694.7 1154.5 694.7 1154.5 725.4 1123.8 725.4 1123.8 756.1 1154.5 756.1 1154.5 786.75 1185.2 786.75 1185.2 817.45 1215.9 817.45 1215.9 818.65M325.7 326.3L325.7 357 295 357 295 387.7 325.7 387.7 325.7 418.4 356.4 418.4 356.4 387.7 387.1 387.7 387.1 418.4 417.75 418.4 417.75 449.1 448.45 449.1 448.45 479.8 479.15 479.8 479.15 449.1 509.85 449.1 509.85 418.4 540.55 418.4 540.55 449.1 571.25 449.1 571.25 418.4 601.95 418.4 601.95 449.1 632.65 449.1 632.65 418.4 663.35 418.4 663.35 387.7 694.05 387.7 694.05 418.4 724.75 418.4 724.75 387.7 755.45 387.7 755.45 357 786.15 357 786.15 387.7 816.85 387.7 816.85 418.4 847.55 418.4 847.55 387.7 878.25 387.7 878.25 357 908.95 357 908.95 387.7 939.65 387.7 939.65 418.4 970.35 418.4 970.35 387.7 1001.05 387.7 1001.05 418.4 1031.75 418.4 1031.75 449.1 1062.45 449.1 1062.45 479.8 1093.1 479.8 1093.1 510.5 1062.45 510.5 1062.45 541.2 1093.1 541.2 1093.1 571.9 1123.8 571.9 1123.8 602.6 1093.1 602.6 1093.1 633.3 1123.8 633.3 1123.8 664 1154.5 664 1154.5 694.7 1123.8 694.7 1123.8 725.4 1093.1 725.4 1093.1 756.1 1123.8 756.1 1123.8 786.75 1154.5 786.75 1154.5 817.45 1185.2 817.45 1185.2 818.65M387.1 357L356.4 357M264.3 50.05L264.3 80.75 295 80.75 295 50.05 264.3 50.05 264.3 19.35 295 19.35 295 50.05 325.7 50.05M172.2 50.05L172.2 80.75 202.9 80.75 202.9 50.05 172.2 50.05 172.2 19.35 202.9 19.35 202.9 50.05 233.6 50.05 233.6 19.35M264.3 50.05L233.6 50.05 233.6 80.75 264.3 80.75 264.3 111.4 295 111.4 295 80.75 325.7 80.75M233.6 80.75L202.9 80.75 202.9 111.4 233.6 111.4 233.6 80.75ZM202.9 111.4L202.9 142.1 233.6 142.1 233.6 111.4 264.3 111.4 264.3 142.1 295 142.1 295 172.8 264.3 172.8 264.3 203.5 295 203.5 295 234.2 325.7 234.2M202.9 111.4L172.2 111.4 172.2 142.1 202.9 142.1 202.9 172.8 233.6 172.8 233.6 142.1 264.3 142.1 264.3 172.8 233.6 172.8 233.6 203.5 264.3 203.5 264.3 234.2 295 234.2 295 264.9 264.3 264.9 264.3 295.6 295 295.6 295 326.3 325.7 326.3M172.2 142.1L172.2 172.8 202.9 172.8 202.9 203.5 233.6 203.5 233.6 234.2 264.3 234.2 264.3 264.9 233.6 264.9 233.6 295.6 264.3 295.6 264.3 326.3 295 326.3 295 357 264.3 357 264.3 387.7 295 387.7 295 418.4 325.7 418.4 325.7 449.1 356.4 449.1 356.4 418.4 387.1 418.4 387.1 449.1 417.75 449.1 417.75 479.8 448.45 479.8 448.45 510.5 479.15 510.5 479.15 479.8 509.85 479.8 509.85 449.1 540.55 449.1 540.55 479.8 571.25 479.8 571.25 449.1 601.95 449.1 601.95 479.8 632.65 479.8 632.65 449.1 663.35 449.1 663.35 418.4 694.05 418.4 694.05 449.1 724.75 449.1 724.75 418.4 755.45 418.4 755.45 387.7 786.15 387.7 786.15 418.4 816.85 418.4 816.85 449.1 847.55 449.1 847.55 418.4 878.25 418.4 878.25 387.7 908.95 387.7 908.95 418.4 939.65 418.4 939.65 449.1 970.35 449.1 970.35 418.4 1001.05 418.4 1001.05 449.1 1031.75 449.1 1031.75 479.8 1062.45 479.8 1062.45 510.5 1031.75 510.5 1031.75 541.2 1062.45 541.2 1062.45 571.9 1093.1 571.9 1093.1 602.6 1062.45 602.6 1062.45 633.3 1093.1 633.3 1093.1 664 1123.8 664 1123.8 694.7 1093.1 694.7 1093.1 725.4 1062.45 725.4 1062.45 756.1 1093.1 756.1 1093.1 786.75 1123.8 786.75 1123.8 817.45 1154.5 817.45 1154.5 818.65M172.2 80.75L172.2 111.4 141.5 111.4 141.5 142.1 172.2 142.1M110.8 50.05L110.8 80.75 141.5 80.75 141.5 50.05 110.8 50.05 110.8 19.35 141.5 19.35 141.5 50.05 172.2 50.05M18.7 50.05L18.7 80.75 49.4 80.75 49.4 50.05 18.7 50.05 18.7 19.35 -40 19.35M49.4 80.75L80.1 80.75 80.1 50.05 49.4 50.05 49.4 19.35 18.7 19.35 18.7 -11.35 -40 -11.35M80.1 19.35L80.1 50.05 110.8 50.05M80.1 111.4L49.4 111.4 49.4 142.1 80.1 142.1 80.1 111.4 80.1 80.75 110.8 80.75 110.8 111.4 141.5 111.4 141.5 80.75 172.2 80.75M49.4 111.4L18.7 111.4 18.7 142.1 49.4 142.1 49.4 172.8 80.1 172.8 80.1 142.1 110.8 142.1 110.8 111.4 80.1 111.4M18.7 142.1L18.7 172.8 49.4 172.8 49.4 203.5 80.1 203.5 80.1 172.8 110.8 172.8 110.8 142.1 141.5 142.1 141.5 172.8 172.2 172.8 172.2 203.5 202.9 203.5 202.9 234.2 233.6 234.2 233.6 264.9 202.9 264.9 202.9 295.6 233.6 295.6 233.6 326.3 264.3 326.3 264.3 357 233.6 357 233.6 387.7 264.3 387.7 264.3 418.4 295 418.4 295 449.1 325.7 449.1 325.7 479.8 356.4 479.8 356.4 449.1 387.1 449.1 387.1 479.8 417.75 479.8 417.75 510.5 448.45 510.5 448.45 541.2 479.15 541.2 479.15 510.5 509.85 510.5 509.85 479.8 540.55 479.8 540.55 510.5 571.25 510.5 571.25 479.8 601.95 479.8 601.95 510.5 632.65 510.5 632.65 479.8 663.35 479.8 663.35 449.1 694.05 449.1 694.05 479.8 724.75 479.8 724.75 449.1 755.45 449.1 755.45 418.4 786.15 418.4 786.15 449.1 816.85 449.1 816.85 479.8 847.55 479.8 847.55 449.1 878.25 449.1 878.25 418.4 908.95 418.4 908.95 449.1 939.65 449.1 939.65 479.8 970.35 479.8 970.35 449.1 1001.05 449.1 1001.05 479.8 1031.75 479.8 1031.75 510.5 1001.05 510.5 1001.05 541.2 1031.75 541.2 1031.75 571.9 1062.45 571.9 1062.45 602.6 1031.75 602.6 1031.75 633.3 1062.45 633.3 1062.45 664 1093.1 664 1093.1 694.7 1062.45 694.7 1062.45 725.4 1031.75 725.4 1031.75 756.1 1062.45 756.1 1062.45 786.75 1093.1 786.75 1093.1 817.45 1123.8 817.45 1123.8 818.65M141.5 172.8L110.8 172.8 110.8 203.5 141.5 203.5 141.5 172.8ZM49.4 80.75L49.4 111.4M18.7 80.75L18.7 111.4 -40 111.4M141.5 203.5L141.5 234.2 172.2 234.2 172.2 203.5 141.5 203.5ZM110.8 203.5L110.8 234.2 141.5 234.2 141.5 264.9 172.2 264.9 172.2 234.2 202.9 234.2 202.9 264.9 172.2 264.9 172.2 295.6 202.9 295.6 202.9 326.3 233.6 326.3 233.6 357 202.9 357 202.9 387.7 233.6 387.7 233.6 418.4 264.3 418.4 264.3 449.1 295 449.1 295 479.8 325.7 479.8 325.7 510.5 356.4 510.5 356.4 479.8 387.1 479.8 387.1 510.5 417.75 510.5 417.75 541.2 448.45 541.2 448.45 571.9 479.15 571.9 479.15 541.2 509.85 541.2 509.85 510.5 540.55 510.5 540.55 541.2 571.25 541.2 571.25 510.5 601.95 510.5 601.95 541.2 632.65 541.2 632.65 510.5 663.35 510.5 663.35 479.8 694.05 479.8 694.05 510.5 724.75 510.5 724.75 479.8 755.45 479.8 755.45 449.1 786.15 449.1 786.15 479.8 816.85 479.8 816.85 510.5 847.55 510.5 847.55 479.8 878.25 479.8 878.25 449.1 908.95 449.1 908.95 479.8 939.65 479.8 939.65 510.5 970.35 510.5 970.35 479.8 1001.05 479.8 1001.05 510.5 970.35 510.5 970.35 541.2 1001.05 541.2 1001.05 571.9 1031.75 571.9 1031.75 602.6 1001.05 602.6 1001.05 633.3 1031.75 633.3 1031.75 664 1062.45 664 1062.45 694.7 1031.75 694.7 1031.75 725.4 1001.05 725.4 1001.05 756.1 1031.75 756.1 1031.75 786.75 1062.45 786.75 1062.45 817.45 1093.1 817.45 1093.1 818.65M110.8 264.9L110.8 295.6 141.5 295.6 141.5 264.9 110.8 264.9 110.8 234.2 80.1 234.2 80.1 264.9 110.8 264.9ZM110.8 203.5L80.1 203.5 80.1 234.2 49.4 234.2 49.4 264.9 80.1 264.9 80.1 295.6 110.8 295.6 110.8 326.3 141.5 326.3 141.5 295.6 172.2 295.6 172.2 326.3 202.9 326.3 202.9 357 172.2 357 172.2 387.7 202.9 387.7 202.9 418.4 233.6 418.4 233.6 449.1 264.3 449.1 264.3 479.8 295 479.8 295 510.5 325.7 510.5 325.7 541.2 356.4 541.2 356.4 510.5 387.1 510.5 387.1 541.2 417.75 541.2 417.75 571.9 448.45 571.9 448.45 602.6 479.15 602.6 479.15 571.9 509.85 571.9 509.85 541.2 540.55 541.2 540.55 571.9 571.25 571.9 571.25 541.2 601.95 541.2 601.95 571.9 632.65 571.9 632.65 541.2 663.35 541.2 663.35 510.5 694.05 510.5 694.05 541.2 724.75 541.2 724.75 510.5 755.45 510.5 755.45 479.8 786.15 479.8 786.15 510.5 816.85 510.5 816.85 541.2 847.55 541.2 847.55 510.5 878.25 510.5 878.25 479.8 908.95 479.8 908.95 510.5 939.65 510.5 939.65 541.2 970.35 541.2 970.35 571.9 1001.05 571.9 1001.05 602.6 970.35 602.6 970.35 633.3 1001.05 633.3 1001.05 664 1031.75 664 1031.75 694.7 1001.05 694.7 1001.05 725.4 970.35 725.4 970.35 756.1 1001.05 756.1 1001.05 786.75 1031.75 786.75 1031.75 817.45 1062.45 817.45 1062.45 818.65M49.4 203.5L49.4 234.2 18.7 234.2 18.7 264.9 49.4 264.9 49.4 295.6 80.1 295.6 80.1 326.3 110.8 326.3 110.8 357 141.5 357 141.5 326.3 172.2 326.3 172.2 357 141.5 357 141.5 387.7 172.2 387.7 172.2 418.4 202.9 418.4 202.9 449.1 233.6 449.1 233.6 479.8 264.3 479.8 264.3 510.5 295 510.5 295 541.2 325.7 541.2 325.7 571.9 356.4 571.9 356.4 541.2 387.1 541.2 387.1 571.9 417.75 571.9 417.75 602.6 448.45 602.6 448.45 633.3 479.15 633.3 479.15 602.6 509.85 602.6 509.85 571.9 540.55 571.9 540.55 602.6 571.25 602.6 571.25 571.9 601.95 571.9 601.95 602.6 632.65 602.6 632.65 571.9 663.35 571.9 663.35 541.2 694.05 541.2 694.05 571.9 724.75 571.9 724.75 541.2 755.45 541.2 755.45 510.5 786.15 510.5 786.15 541.2 816.85 541.2 816.85 571.9 847.55 571.9 847.55 541.2 878.25 541.2 878.25 510.5 908.95 510.5 908.95 541.2 939.65 541.2 939.65 571.9 970.35 571.9 970.35 602.6 939.65 602.6 939.65 633.3 970.35 633.3 970.35 664 1001.05 664 1001.05 694.7 970.35 694.7 970.35 725.4 939.65 725.4 939.65 756.1 970.35 756.1 970.35 786.75 1001.05 786.75 1001.05 817.45 1031.75 817.45 1031.75 818.65M49.4 203.5L18.7 203.5 18.7 234.2 -40 234.2M18.7 264.9L18.7 295.6 49.4 295.6 49.4 326.3 80.1 326.3 80.1 357 110.8 357 110.8 387.7 141.5 387.7 141.5 418.4 172.2 418.4 172.2 449.1 202.9 449.1 202.9 479.8 233.6 479.8 233.6 510.5 264.3 510.5 264.3 541.2 295 541.2 295 571.9 325.7 571.9 325.7 602.6 356.4 602.6 356.4 571.9 387.1 571.9 387.1 602.6 417.75 602.6 417.75 633.3 448.45 633.3 448.45 664 479.15 664 479.15 633.3 509.85 633.3 509.85 602.6 540.55 602.6 540.55 633.3 571.25 633.3 571.25 602.6 601.95 602.6 601.95 633.3 632.65 633.3 632.65 602.6 663.35 602.6 663.35 571.9 694.05 571.9 694.05 602.6 724.75 602.6 724.75 571.9 755.45 571.9 755.45 541.2 786.15 541.2 786.15 571.9 816.85 571.9 816.85 602.6 847.55 602.6 847.55 571.9 878.25 571.9 878.25 541.2 908.95 541.2 908.95 571.9 939.65 571.9 939.65 602.6 908.95 602.6 908.95 633.3 939.65 633.3 939.65 664 970.35 664 970.35 694.7 939.65 694.7 939.65 725.4 908.95 725.4 908.95 756.1 939.65 756.1 939.65 786.75 970.35 786.75 970.35 817.45 1001.05 817.45 1001.05 818.65M18.7 357L18.7 387.7 49.4 387.7 49.4 357 18.7 357 18.7 326.3 -40 326.3M49.4 387.7L80.1 387.7 80.1 357 49.4 357 49.4 326.3 18.7 326.3 18.7 295.6 -40 295.6M110.8 387.7L80.1 387.7 80.1 418.4 110.8 418.4 110.8 387.7ZM18.7 172.8L18.7 203.5 -40 203.5M172.2 449.1L172.2 479.8 202.9 479.8 202.9 510.5 233.6 510.5 233.6 541.2 264.3 541.2 264.3 571.9 295 571.9 295 602.6 325.7 602.6 325.7 633.3 356.4 633.3 356.4 602.6 387.1 602.6 387.1 633.3 417.75 633.3 417.75 664 448.45 664 448.45 694.7 479.15 694.7 479.15 664 509.85 664 509.85 633.3 540.55 633.3 540.55 664 571.25 664 571.25 633.3 601.95 633.3 601.95 664 632.65 664 632.65 633.3 663.35 633.3 663.35 602.6 694.05 602.6 694.05 633.3 724.75 633.3 724.75 602.6 755.45 602.6 755.45 571.9 786.15 571.9 786.15 602.6 816.85 602.6 816.85 633.3 847.55 633.3 847.55 602.6 878.25 602.6 878.25 571.9 908.95 571.9 908.95 602.6 878.25 602.6 878.25 633.3 908.95 633.3 908.95 664 939.65 664 939.65 694.7 908.95 694.7 908.95 725.4 878.25 725.4 878.25 756.1 908.95 756.1 908.95 786.75 939.65 786.75 939.65 817.45 970.35 817.45 970.35 818.65M202.9 510.5L202.9 541.2 233.6 541.2 233.6 571.9 264.3 571.9 264.3 602.6 295 602.6 295 633.3 325.7 633.3 325.7 664 356.4 664 356.4 633.3 387.1 633.3 387.1 664 417.75 664 417.75 694.7 448.45 694.7 448.45 725.4 479.15 725.4 479.15 694.7 509.85 694.7 509.85 664 540.55 664 540.55 694.7 571.25 694.7 571.25 664 601.95 664 601.95 694.7 632.65 694.7 632.65 664 663.35 664 663.35 633.3 694.05 633.3 694.05 664 724.75 664 724.75 633.3 755.45 633.3 755.45 602.6 786.15 602.6 786.15 633.3 816.85 633.3 816.85 664 847.55 664 847.55 633.3 878.25 633.3 878.25 664 908.95 664 908.95 694.7 878.25 694.7 878.25 725.4 847.55 725.4 847.55 756.1 878.25 756.1 878.25 786.75 908.95 786.75 908.95 817.45 939.65 817.45 939.65 818.65M202.9 510.5L172.2 510.5 172.2 541.2 202.9 541.2 202.9 571.9 233.6 571.9 233.6 602.6 264.3 602.6 264.3 633.3 295 633.3 295 664 325.7 664 325.7 694.7 356.4 694.7 356.4 664 387.1 664 387.1 694.7 417.75 694.7 417.75 725.4 448.45 725.4 448.45 756.1 479.15 756.1 479.15 725.4 509.85 725.4 509.85 694.7 540.55 694.7 540.55 725.4 571.25 725.4 571.25 694.7 601.95 694.7 601.95 725.4 632.65 725.4 632.65 694.7 663.35 694.7 663.35 664 694.05 664 694.05 694.7 724.75 694.7 724.75 664 755.45 664 755.45 633.3 786.15 633.3 786.15 664 816.85 664 816.85 694.7 847.55 694.7 847.55 664 878.25 664 878.25 694.7 847.55 694.7 847.55 725.4 816.85 725.4 816.85 756.1 847.55 756.1 847.55 786.75 878.25 786.75 878.25 817.45 908.95 817.45 908.95 818.65M172.2 541.2L172.2 571.9 202.9 571.9 202.9 602.6 233.6 602.6 233.6 633.3 264.3 633.3 264.3 664 295 664 295 694.7 325.7 694.7 325.7 725.4 356.4 725.4 356.4 694.7 387.1 694.7 387.1 725.4 417.75 725.4 417.75 756.1 448.45 756.1 448.45 786.75 479.15 786.75 479.15 756.1 509.85 756.1 509.85 725.4 540.55 725.4 540.55 756.1 571.25 756.1 571.25 725.4 601.95 725.4 601.95 756.1 632.65 756.1 632.65 725.4 663.35 725.4 663.35 694.7 694.05 694.7 694.05 725.4 724.75 725.4 724.75 694.7 755.45 694.7 755.45 664 786.15 664 786.15 694.7 816.85 694.7 816.85 725.4 786.15 725.4 786.15 756.1 816.85 756.1 816.85 786.75 847.55 786.75 847.55 817.45 878.25 817.45 878.25 818.65M172.2 479.8L172.2 510.5 141.5 510.5 141.5 541.2 172.2 541.2M110.8 449.1L110.8 479.8 141.5 479.8 141.5 449.1 110.8 449.1 110.8 418.4 141.5 418.4 141.5 449.1 172.2 449.1M80.1 418.4L49.4 418.4 49.4 449.1 80.1 449.1 80.1 418.4ZM18.7 449.1L18.7 479.8 49.4 479.8 49.4 449.1 18.7 449.1 18.7 418.4 -40 418.4M110.8 449.1L80.1 449.1 80.1 479.8 110.8 479.8 110.8 510.5 141.5 510.5 141.5 479.8 172.2 479.8M80.1 479.8L49.4 479.8 49.4 510.5 80.1 510.5 80.1 479.8ZM49.4 418.4L18.7 418.4 18.7 387.7 -40 387.7M80.1 510.5L80.1 541.2 110.8 541.2 110.8 510.5 80.1 510.5ZM49.4 510.5L49.4 541.2 80.1 541.2 80.1 571.9 110.8 571.9 110.8 541.2 141.5 541.2 141.5 571.9 172.2 571.9 172.2 602.6 202.9 602.6 202.9 633.3 233.6 633.3 233.6 664 264.3 664 264.3 694.7 295 694.7 295 725.4 325.7 725.4 325.7 756.1 356.4 756.1 356.4 725.4 387.1 725.4 387.1 756.1 417.75 756.1 417.75 786.75 448.45 786.75 448.45 817.45 479.15 817.45 479.15 786.75 509.85 786.75 509.85 756.1 540.55 756.1 540.55 786.75 571.25 786.75 571.25 756.1 601.95 756.1 601.95 786.75 632.65 786.75 632.65 756.1 663.35 756.1 663.35 725.4 694.05 725.4 694.05 756.1 724.75 756.1 724.75 725.4 755.45 725.4 755.45 694.7 786.15 694.7 786.15 725.4 755.45 725.4 755.45 756.1 786.15 756.1 786.15 786.75 816.85 786.75 816.85 817.45 847.55 817.45 847.55 818.65M49.4 510.5L18.7 510.5 18.7 541.2 49.4 541.2 49.4 571.9 80.1 571.9 80.1 602.6 110.8 602.6 110.8 571.9 141.5 571.9 141.5 602.6 172.2 602.6 172.2 633.3 202.9 633.3 202.9 664 233.6 664 233.6 694.7 264.3 694.7 264.3 725.4 295 725.4 295 756.1 325.7 756.1 325.7 786.75 356.4 786.75 356.4 756.1 387.1 756.1 387.1 786.75 417.75 786.75 417.75 817.45 448.45 817.45 448.45 818.65M18.7 541.2L18.7 571.9 49.4 571.9 49.4 602.6 80.1 602.6 80.1 633.3 110.8 633.3 110.8 602.6 141.5 602.6 141.5 633.3 172.2 633.3 172.2 664 202.9 664 202.9 694.7 233.6 694.7 233.6 725.4 264.3 725.4 264.3 756.1 295 756.1 295 786.75 325.7 786.75 325.7 817.45 356.4 817.45 356.4 786.75 387.1 786.75 387.1 817.45 417.75 817.45 417.75 818.65M18.7 479.8L18.7 510.5 -40 510.5M141.5 633.3L110.8 633.3 110.8 664 141.5 664 141.5 633.3ZM49.4 602.6L49.4 633.3 80.1 633.3 80.1 664 110.8 664 110.8 694.7 141.5 694.7 141.5 664 172.2 664 172.2 694.7 202.9 694.7 202.9 725.4 233.6 725.4 233.6 756.1 264.3 756.1 264.3 786.75 295 786.75 295 817.45 325.7 817.45 325.7 818.65M49.4 602.6L18.7 602.6 18.7 633.3 49.4 633.3 49.4 664 80.1 664 80.1 694.7 110.8 694.7 110.8 725.4 141.5 725.4 141.5 694.7 172.2 694.7 172.2 725.4 202.9 725.4 202.9 756.1 233.6 756.1 233.6 786.75 264.3 786.75 264.3 817.45 295 817.45 295 818.65M18.7 633.3L18.7 664 49.4 664 49.4 694.7 80.1 694.7 80.1 725.4 110.8 725.4 110.8 756.1 141.5 756.1 141.5 725.4 172.2 725.4 172.2 756.1 202.9 756.1 202.9 786.75 233.6 786.75 233.6 817.45 264.3 817.45 264.3 818.65M49.4 694.7L49.4 725.4 80.1 725.4 80.1 756.1 110.8 756.1 110.8 786.75 141.5 786.75 141.5 756.1 172.2 756.1 172.2 786.75 202.9 786.75 202.9 817.45 233.6 817.45 233.6 818.65M49.4 694.7L18.7 694.7 18.7 725.4 49.4 725.4 49.4 756.1 80.1 756.1 80.1 786.75 110.8 786.75 110.8 817.45 141.5 817.45 141.5 786.75 172.2 786.75 172.2 817.45 202.9 817.45 202.9 818.65M18.7 756.1L18.7 786.75 49.4 786.75 49.4 756.1 18.7 756.1 18.7 725.4 -40 725.4M80.1 786.75L49.4 786.75 49.4 817.45 80.1 817.45 80.1 786.75ZM18.7 664L18.7 694.7 -40 694.7M18.7 571.9L18.7 602.6 -40 602.6M540.55 786.75L509.85 786.75 509.85 817.45 540.55 817.45 540.55 786.75ZM601.95 786.75L571.25 786.75 571.25 817.45 601.95 817.45 601.95 786.75ZM49.4 387.7L49.4 418.4M663.35 756.1L663.35 786.75 694.05 786.75 694.05 756.1 663.35 756.1ZM724.75 756.1L724.75 786.75 755.45 786.75 755.45 756.1 724.75 756.1ZM724.75 786.75L694.05 786.75 694.05 817.45 724.75 817.45 724.75 786.75ZM786.15 786.75L755.45 786.75 755.45 817.45 786.15 817.45 786.15 786.75ZM663.35 786.75L632.65 786.75 632.65 817.45 663.35 817.45 663.35 786.75ZM816.85 818.65L816.85 817.45 786.15 817.45 786.15 818.65M755.45 818.65L755.45 817.45 724.75 817.45 724.75 818.65M694.05 818.65L694.05 817.45 663.35 817.45 663.35 818.65M632.65 818.65L632.65 817.45 601.95 817.45 601.95 818.65M571.25 818.65L571.25 817.45 540.55 817.45 540.55 818.65M509.85 818.65L509.85 817.45 479.15 817.45 479.15 818.65M387.1 818.65L387.1 817.45 356.4 817.45 356.4 818.65M172.2 818.65L172.2 817.45 141.5 817.45 141.5 818.65M110.8 818.65L110.8 817.45 80.1 817.45 80.1 818.65M49.4 818.65L49.4 817.45 18.7 817.45 18.7 818.65M1891.25 818.65L1891.25 817.45 1860.55 817.45 1860.55 818.65M1799.15 818.65L1799.15 817.45 1768.45 817.45 1768.45 818.65M1737.8 818.65L1737.8 817.45 1707.1 817.45 1707.1 818.65M1522.9 818.65L1522.9 817.45 1492.2 817.45 1492.2 818.65M1400.1 818.65L1400.1 817.45 1369.4 817.45 1369.4 818.65M18.7 786.75L18.7 817.45 -40 817.45M18.7 50.05L-40 50.05M18.7 80.75L-40 80.75M18.7 142.1L-40 142.1M18.7 172.8L-40 172.8M18.7 264.9L-40 264.9M18.7 357L-40 357M18.7 449.1L-40 449.1M18.7 479.8L-40 479.8M18.7 541.2L-40 541.2M18.7 571.9L-40 571.9M18.7 633.3L-40 633.3M18.7 664L-40 664M18.7 756.1L-40 756.1M18.7 786.75L-40 786.75"/>
    </g>
    <g id="woman" transform="translate(94.85 183.65)">
      <g id="FlashAICB_0_Layer-1_.__3CGroup.__3E" transform="translate(17 3.85)" opacity=".5">
        <g id="shade2">
          <g>
            <g id="Layer21_0_FILL">
              <path fill="#719AD6" stroke="none" d="M126.6 294.75Q121.25 293.15 115 292.95 104.15 292.7 94.25 297.15 74.3 306.15 61.5 332.9 44.95 367.45 41.8 429.15L268.9 429.15Q267.5 418.25 260.9 403.2 247.65 373.1 221.7 352.4 222.25 346.95 214.65 337.45 199.5 318.45 159.05 298.2 142 291.85 116.4 271.95 98.8 258.25 79.6 240.2L78.75 242.2 75.55 257.9Q86.7 267.6 97.8 276.25 117.3 291.3 126.6 294.75Z"/>
              <path fill="#709AD6" stroke="none" d="M225.3 41.15Q222.4 30.1 212.95 20.75 197.95 6.05 170.1 .05L169.6 2.4Q137.85 .75 115.75 7.05 90.6 14.2 58.7 36.25 30.95 55.4 30.45 105.3 30.15 130.25 35.45 151.35L35.3 151.45Q31.9 144.8 28.75 136.35L27 137.6Q24.75 138.2 21.55 139.7 15.2 142.7 10.5 147.25 -4.55 161.8 2.7 186.2L0 186.55Q7.55 193.75 17.15 197.65 27.05 201.7 37.9 201.7 53.55 201.7 66.8 193.5 71.35 203.85 70.45 216.7 74.1 207.9 76.1 198.7 79.35 183.55 76.65 172.15 73.55 158.95 75.85 146.95 76.55 143.2 77.75 140L78.75 137.6 79 137.55Q75.7 125.95 81.55 117.9 89.05 107.8 100.5 113.6 106.25 116.5 110.45 121.45L121.3 128.4Q132.4 135.25 133.7 134.8 134.3 134.6 136.3 129.35 139.7 120.55 141 117.55 148.6 99.9 156.2 96.1 159.4 94.5 165.1 92.05 169.85 89.85 172.4 87.45 179.25 81.2 180.15 65.1 180.95 51 200.4 44.9 211.4 41.45 225.3 41.15Z"/>
            </g>
          </g>
        </g>
        <g id="shade1" transform="translate(11.15 41.1)">
          <g>
            <g id="Layer20_0_FILL">
              <path fill="#BFD3F5" stroke="none" d="M103.85 251.8Q110.1 252 115.45 253.6 106.15 250.15 86.65 235.1 75.55 226.45 64.4 216.75L59.15 242.25 50.35 251.95Q39.75 264.75 30.75 280.25 1.95 329.9 0 388L30.65 388Q33.8 326.3 50.35 291.75 63.15 265 83.1 256 93 251.55 103.85 251.8Z"/>
              <path fill="#BED3F5" stroke="none" d="M252.1 97.2Q251 94.3 247.75 90.3 243.7 85.6 241.65 83.1 233.8 73.8 233.8 66.9 233.8 45.65 232.2 36.25 228.25 12.95 214.8 3.5 214.7 2.2 214.15 0 200.25 .3 189.25 3.75 169.8 9.85 169 23.95 168.1 40.05 161.25 46.3 158.7 48.7 153.95 50.9 148.25 53.35 145.05 54.95 137.45 58.75 129.85 76.4 128.55 79.4 125.15 88.2 123.15 93.45 122.55 93.65 121.25 94.1 110.15 87.25L99.3 80.3Q95.1 75.35 89.35 72.45 77.9 66.65 70.4 76.75 64.55 84.8 67.85 96.4L67.6 96.45 66.6 98.85Q65.4 102.05 64.7 105.8 62.4 117.8 65.5 131 68.2 142.4 64.95 157.55 62.95 166.75 59.3 175.55 58.8 182.95 57.05 188.05L60.1 191.1Q64.05 194.95 68.45 199.05 87.65 217.1 105.25 230.8 130.85 250.7 147.9 257.05 148.8 244.2 152.9 230.1 161.15 201.95 177.45 195.75L180.8 197.25Q184.95 198.85 189.25 199.65 203 202.1 212.65 195.05 216.2 191.9 215.15 186.35 214.6 183.65 214.85 182.3 215.25 180.05 217.6 178.15 223.05 173.85 224.3 169.55 225.65 165 222.55 159.85 220 156 218.55 153.8 215.95 149.75 214.95 146.9 212.15 138.55 221.15 134.5 233.05 129.15 236.1 125.8 240.25 121.25 237.35 113.4L240.15 112.15Q243.5 110.55 246.05 108.75 254.3 102.9 252.1 97.2Z"/>
            </g>
          </g>
        </g>
      </g>
      <g>
        <path id="Layer15_0_1_STROKES" stroke="#294F8E" stroke-width="5.6" stroke-linejoin="round" stroke-linecap="round" fill="none" d="M137.3 171.7Q133.4 176.05 126.45 174.45 120.85 173.1 114.05 168.2 109.55 164.9 104.45 157.9 98.25 149.45 96 141.35 92.7 129.75 98.55 121.7 106.05 111.6 117.5 117.4 123.25 120.3 127.45 125.25L138.3 132.2Q149.4 139.05 150.7 138.6 151.3 138.4 153.3 133.15 156.7 124.35 158 121.35 165.6 103.7 173.2 99.9 176.4 98.3 182.1 95.85 186.85 93.65 189.4 91.25 196.25 85 197.15 68.9 197.95 54.8 217.4 48.7 228.4 45.25 242.3 44.95 239.4 33.9 229.95 24.55 214.95 9.85 187.1 3.85 153.95 -3.25 104.9 2.7 66.55 9.75 48.1 44.65 41.1 58 37.7 74.1 35 87.25 35.2 99.3 35.3 107.1 36.6 111.15 37.7 114.55 40.35 123.85 43.15 133.15 45.75 140.15 48.9 148.6 52.3 155.25 60.9 172.4 72.5 182.3 80 188.6 83.8 197.3 88.35 207.65 87.45 220.5 91.1 211.7 93.1 202.5 96.35 187.35 93.65 175.95 90.55 162.75 92.85 150.75 93.55 147 94.75 143.8L95.75 141.4M156.3 208.35L160.35 212.4Q165.5 217.4 171.2 221.9 189.3 236.35 205.6 240.7L208.95 242.2Q213.1 243.8 217.4 244.6 231.15 247.05 240.8 240 244.35 236.85 243.3 231.3 242.75 228.6 243 227.25 243.4 225 245.75 223.1 251.2 218.8 252.45 214.5 253.8 209.95 250.7 204.8 248.15 200.95 246.7 198.75 244.1 194.7 243.1 191.85 240.3 183.5 249.3 179.45 261.2 174.1 264.25 170.75 268.4 166.2 265.5 158.35L268.3 157.1Q271.65 155.5 274.2 153.7 282.45 147.85 280.25 142.15 279.15 139.25 275.9 135.25 271.85 130.55 269.8 128.05 261.95 118.75 261.95 111.85 261.95 90.6 260.35 81.2 256.4 57.9 242.95 48.45 242.85 47.15 242.3 44.95M35.2 99.3Q19.55 105.35 9.9 119.15 0 133.3 0 150.6 0 162.15 4.55 172.6 9 182.7 17 190.35 24.55 197.55 34.15 201.45 44.05 205.5 54.9 205.5 70.55 205.5 83.8 197.3M205.6 240.7Q189.3 246.9 181.05 275.05 176.95 289.15 176.05 302 216.5 322.25 231.65 341.25 239.25 350.75 238.7 356.2 264.65 376.9 277.9 407 284.5 422.05 285.9 432.95L12.65 432.95Q12.2 374.85 41.6 319.95 50.8 302.8 61.85 288L71.1 276.65Q75.35 256.9 76.75 242.85 77.65 234.05 81.5 232.65 83.45 231.95 85.2 233 86.95 227.9 87.45 220.5M176.05 302Q159 295.65 133.4 275.75 115.8 262.05 96.6 244 92.2 239.9 88.25 236.05L85.2 233M238.7 356.2Q235.2 351.8 225.25 346 205.35 334.4 173.2 327.35 145.15 321.2 111.25 300.95 103.35 296.2 87.6 285.85 79.5 280.45 76.6 278.75 72.2 276.15 71.1 276.65"/>
      </g>
      <g id="speech-lines" transform="translate(301.7 142.7)">
        <g display="none">
          <g id="speech-line5" transform="matrix(.824 0 0 .824 -5 46.6)">
            <animateTransform attributeName="transform" additive="replace" type="translate" repeatCount="indefinite" dur="2s" keyTimes="0;.16699;.167;.18299;.183;.19999;.2;.21699;.217;.23299;.233;.24999;.25;.26699;.267;.28299;.283;.29999;.3;.31699;.317;.33299;.333;.34999;.35;.36699;.367;.38299;.383;.39999;.4;.41699;.417;.43299;.433;.44999;.45;.46699;.467;.48299;.483;.49999;.5;.51699;.517;.53299;.533;.54999;.55;.56699;.567;1" values="5.841,59.442;5.841,59.442;7.36,59.995;7.36,59.995;8.922,60.511;8.922,60.511;10.427,61.019;10.427,61.019;11.88,61.439;11.88,61.439;13.422,61.932;13.422,61.932;14.806,62.416;14.806,62.416;16.086,62.834;16.086,62.834;17.198,63.184;17.198,63.184;18.343,63.563;18.343,63.563;19.37,63.874;19.37,63.874;20.501,64.237;20.501,64.237;21.465,64.531;21.465,64.531;22.261,64.808;22.261,64.808;23.046,65.115;23.046,65.115;23.664,65.202;23.664,65.202;24.322,65.479;24.322,65.479;24.868,65.588;24.868,65.588;25.192,65.73;25.192,65.73;25.667,65.813;25.667,65.813;26.027,66.039;26.027,66.039;26.274,66.104;26.274,66.104;26.572,66.205;26.572,66.205;26.752,66.242;26.752,66.242;26.934,66.219;26.934,66.219;26.94,66.294;26.94,66.294" calcMode="discrete"/>
            <animateTransform attributeName="transform" additive="sum" type="scale" repeatCount="indefinite" dur="2s" keyTimes="0;.16699;.167;.18299;.183;.19999;.2;.21699;.217;.23299;.233;.24999;.25;.26699;.267;.28299;.283;.29999;.3;.31699;.317;.33299;.333;.34999;.35;.36699;.367;.38299;.383;.39999;.4;.41699;.417;.43299;.433;.44999;.45;.46699;.467;.48299;.483;.49999;.5;.51699;.517;.53299;.533;.54999;.55;.56699;.567;1" values=".824,.824;.824,.824;.844,.844;.844,.844;.864,.864;.864,.864;.884,.884;.884,.884;.903,.903;.903,.903;.922,.922;.922,.922;.941,.941;.941,.941;.958,.958;.958,.958;.973,.973;.973,.973;.988,.988;.988,.988;1.002,1.002;1.002,1.002;1.015,1.015;1.015,1.015;1.027,1.027;1.027,1.027;1.039,1.039;1.039,1.039;1.049,1.049;1.049,1.049;1.057,1.057;1.057,1.057;1.065,1.065;1.065,1.065;1.072,1.072;1.072,1.072;1.078,1.078;1.078,1.078;1.084,1.084;1.084,1.084;1.088,1.088;1.088,1.088;1.092,1.092;1.092,1.092;1.095,1.095;1.095,1.095;1.098,1.098;1.098,1.098;1.1,1.1;1.1,1.1;1.102,1.102;1.102,1.102" calcMode="discrete"/>
            <animateTransform attributeName="transform" additive="sum" type="translate" repeatCount="indefinite" dur="2s" keyTimes="0;.16699;.167;.19999;.2;.21699;.217;.23299;.233;.24999;.25;.26699;.267;.28299;.283;.29999;.3;.31699;.317;.33299;.333;.36699;.367;.38299;.383;.39999;.4;.41699;.417;.43299;.433;.44999;.45;.46699;.467;.48299;.483;.49999;.5;.51699;.517;.53299;.533;.54999;.55;.56699;.567;1" values="-13.1,-15.65;-13.1,-15.65;-13.05,-15.7;-13.05,-15.7;-13.1,-15.75;-13.1,-15.75;-13.15,-15.65;-13.15,-15.65;-13.25,-15.7;-13.25,-15.7;-13.35,-15.7;-13.35,-15.7;-13.3,-15.7;-13.3,-15.7;-13.25,-15.65;-13.25,-15.65;-13.2,-15.7;-13.2,-15.7;-13.25,-15.7;-13.25,-15.7;-13.3,-15.7;-13.3,-15.7;-13.25,-15.75;-13.25,-15.75;-13.3,-15.75;-13.3,-15.75;-13.3,-15.7;-13.3,-15.7;-13.35,-15.75;-13.35,-15.75;-13.4,-15.75;-13.4,-15.75;-13.3,-15.7;-13.3,-15.7;-13.35,-15.7;-13.35,-15.7;-13.35,-15.75;-13.35,-15.75;-13.3,-15.8;-13.3,-15.8;-13.35,-15.8;-13.35,-15.8;-13.3,-15.75;-13.3,-15.75;-13.35,-15.7;-13.35,-15.7;-13.2,-15.7;-13.2,-15.7" calcMode="discrete"/>
            <animate attributeName="opacity" repeatCount="indefinite" dur="2s" keyTimes="0;.16699;.167;.18299;.183;.19999;.2;.21699;.217;.23299;.233;.24999;.25;.26699;.267;.28299;.283;.29999;.3;.31699;.317;.41699;.417;.43299;.433;.44999;.45;.46699;.467;.48299;.483;.49999;.5;.51699;.517;.53299;.533;.54999;.55;.56699;.567;1" values="0;0;.11;.11;.23;.23;.34;.34;.45;.45;.55;.55;.66;.66;.75;.75;.84;.84;.93;.93;1;1;.82;.82;.66;.66;.52;.52;.41;.41;.3;.3;.21;.21;.14;.14;.08;.08;.04;.04;0;0" calcMode="discrete"/>
            <g>
              <path id="Layer19_0_1_STROKES" stroke="#294F8E" stroke-width="5.6" stroke-linejoin="miter" stroke-linecap="round" stroke-miterlimit="10" fill="none" d="M8.5 .05Q13.55 1.45 15.85 6.95 18.15 12.4 16.4 18.75 14.6 25.15 9.8 28.65 5 32.15 0 30.75"/>
            </g>
          </g>
          <animate attributeName="display" repeatCount="indefinite" dur="2s" keyTimes="0;.15;1" values="none;inline;inline"/>
        </g>
        <g display="none">
          <g id="speech-line4" transform="matrix(.824 0 0 .824 5.8 32.2)">
            <animateTransform attributeName="transform" additive="replace" type="translate" repeatCount="indefinite" dur="2s" keyTimes="0;.24999;.25;.26699;.267;.28299;.283;.29999;.3;.31699;.317;.33299;.333;.34999;.35;.36699;.367;.38299;.383;.39999;.4;.41699;.417;.43299;.433;.44999;.45;.46699;.467;.48299;.483;.49999;.5;.51699;.517;.53299;.533;.54999;.55;.56699;.567;.58299;.583;.59999;.6;.61699;.617;.63299;.633;.64999;.65;1" values="26.221,63.659;26.221,63.659;28.299,64.312;28.299,64.312;30.264,64.931;30.264,64.931;32.262,65.499;32.262,65.499;34.301,66.107;34.301,66.107;36.219,66.633;36.219,66.633;38.022,67.176;38.022,67.176;39.695,67.725;39.695,67.725;41.34,68.134;41.34,68.134;42.854,68.644;42.854,68.644;44.188,68.958;44.188,68.958;45.576,69.43;45.576,69.43;46.783,69.805;46.783,69.805;47.909,70.03;47.909,70.03;48.957,70.362;48.957,70.362;49.83,70.55;49.83,70.55;50.627,70.855;50.627,70.855;51.303,71.071;51.303,71.071;51.955,71.258;51.955,71.258;52.487,71.357;52.487,71.357;52.845,71.531;52.845,71.531;53.241,71.629;53.241,71.629;53.626,71.648;53.626,71.648;53.837,71.854;53.837,71.854;54.043,71.827;54.043,71.827;54.168,71.888;54.168,71.888" calcMode="discrete"/>
            <animateTransform attributeName="transform" additive="sum" type="scale" repeatCount="indefinite" dur="2s" keyTimes="0;.24999;.25;.26699;.267;.28299;.283;.29999;.3;.31699;.317;.33299;.333;.34999;.35;.36699;.367;.38299;.383;.39999;.4;.41699;.417;.43299;.433;.44999;.45;.46699;.467;.48299;.483;.49999;.5;.51699;.517;.53299;.533;.54999;.55;.56699;.567;.58299;.583;.59999;.6;.61699;.617;.63299;.633;.64999;.65;1" values=".824,.824;.824,.824;.844,.844;.844,.844;.864,.864;.864,.864;.884,.884;.884,.884;.903,.903;.903,.903;.922,.922;.922,.922;.941,.941;.941,.941;.958,.958;.958,.958;.973,.973;.973,.973;.988,.988;.988,.988;1.002,1.002;1.002,1.002;1.015,1.015;1.015,1.015;1.027,1.027;1.027,1.027;1.039,1.039;1.039,1.039;1.049,1.049;1.049,1.049;1.057,1.057;1.057,1.057;1.065,1.065;1.065,1.065;1.072,1.072;1.072,1.072;1.078,1.078;1.078,1.078;1.084,1.084;1.084,1.084;1.088,1.088;1.088,1.088;1.092,1.092;1.092,1.092;1.095,1.095;1.095,1.095;1.098,1.098;1.098,1.098;1.1,1.1;1.1,1.1;1.102,1.102;1.102,1.102" calcMode="discrete"/>
            <animateTransform attributeName="transform" additive="sum" type="translate" repeatCount="indefinite" dur="2s" keyTimes="0;.24999;.25;.26699;.267;.29999;.3;.31699;.317;.33299;.333;.34999;.35;.36699;.367;.38299;.383;.41699;.417;.43299;.433;.44999;.45;.48299;.483;.49999;.5;.51699;.517;.53299;.533;.54999;.55;.56699;.567;.59999;.6;.61699;.617;.63299;.633;.64999;.65;1" values="-24.85,-38.25;-24.85,-38.25;-24.95,-38.3;-24.95,-38.3;-24.85,-38.3;-24.85,-38.3;-24.85,-38.25;-24.85,-38.25;-24.9,-38.25;-24.9,-38.25;-24.85,-38.25;-24.85,-38.25;-24.85,-38.3;-24.85,-38.3;-24.85,-38.25;-24.85,-38.25;-24.85,-38.3;-24.85,-38.3;-24.85,-38.35;-24.85,-38.35;-24.85,-38.4;-24.85,-38.4;-24.85,-38.35;-24.85,-38.35;-24.9,-38.3;-24.9,-38.3;-24.9,-38.35;-24.9,-38.35;-24.95,-38.35;-24.95,-38.35;-24.95,-38.4;-24.95,-38.4;-24.95,-38.35;-24.95,-38.35;-24.9,-38.35;-24.9,-38.35;-24.95,-38.3;-24.95,-38.3;-24.9,-38.35;-24.9,-38.35;-24.95,-38.3;-24.95,-38.3;-24.8,-38.3;-24.8,-38.3" calcMode="discrete"/>
            <animate attributeName="opacity" repeatCount="indefinite" dur="2s" keyTimes="0;.24999;.25;.26699;.267;.28299;.283;.29999;.3;.31699;.317;.33299;.333;.34999;.35;.36699;.367;.38299;.383;.39999;.4;.49999;.5;.51699;.517;.53299;.533;.54999;.55;.56699;.567;.58299;.583;.59999;.6;.61699;.617;.63299;.633;.64999;.65;1" values="0;0;.11;.11;.23;.23;.34;.34;.45;.45;.55;.55;.66;.66;.75;.75;.84;.84;.93;.93;1;1;.82;.82;.66;.66;.52;.52;.41;.41;.3;.3;.21;.21;.14;.14;.08;.08;.04;.04;0;0" calcMode="discrete"/>
            <g>
              <path id="Layer18_0_1_STROKES" stroke="#294F8E" stroke-width="5.6" stroke-linejoin="miter" stroke-linecap="round" stroke-miterlimit="10" fill="none" d="M20.9 0Q33.25 3.4 38.9 16.9 44.55 30.35 40.2 45.9 35.9 61.5 24.1 70.15 12.35 78.75 0 75.3"/>
            </g>
          </g>
          <animate attributeName="display" repeatCount="indefinite" dur="2s" keyTimes="0;.233;1" values="none;inline;inline"/>
        </g>
        <g display="none">
          <g id="speech-line3" transform="matrix(.824 0 0 .824 6.9 9.2)">
            <animateTransform attributeName="transform" additive="replace" type="translate" repeatCount="indefinite" dur="2s" keyTimes="0;.33299;.333;.34999;.35;.36699;.367;.38299;.383;.39999;.4;.41699;.417;.43299;.433;.44999;.45;.46699;.467;.48299;.483;.49999;.5;.51699;.517;.53299;.533;.54999;.55;.56699;.567;.58299;.583;.59999;.6;.61699;.617;.63299;.633;.64999;.65;.66699;.667;.68299;.683;.69999;.7;.71699;.717;.73299;.733;1" values="40.007,66.114;40.007,66.114;42.357,66.738;42.357,66.738;44.759,67.421;44.759,67.421;47.072,68.063;47.072,68.063;49.459,68.718;49.459,68.718;51.724,69.337;51.724,69.337;53.757,69.891;53.757,69.891;55.792,70.514;55.792,70.514;57.632,71.012;57.632,71.012;59.42,71.475;59.42,71.475;60.961,71.905;60.961,71.905;62.61,72.346;62.61,72.346;64.11,72.699;64.11,72.699;65.355,73.07;65.355,73.07;66.507,73.41;66.507,73.41;67.618,73.675;67.618,73.675;68.486,73.92;68.486,73.92;69.315,74.2;69.315,74.2;69.961,74.305;69.961,74.305;70.62,74.471;70.62,74.471;71.157,74.688;71.157,74.688;71.559,74.75;71.559,74.75;71.993,74.927;71.993,74.927;72.245,74.954;72.245,74.954;72.477,75.05;72.477,75.05;72.686,75.105;72.686,75.105" calcMode="discrete"/>
            <animateTransform attributeName="transform" additive="sum" type="scale" repeatCount="indefinite" dur="2s" keyTimes="0;.33299;.333;.34999;.35;.36699;.367;.38299;.383;.39999;.4;.41699;.417;.43299;.433;.44999;.45;.46699;.467;.48299;.483;.49999;.5;.51699;.517;.53299;.533;.54999;.55;.56699;.567;.58299;.583;.59999;.6;.61699;.617;.63299;.633;.64999;.65;.66699;.667;.68299;.683;.69999;.7;.71699;.717;.73299;.733;1" values=".824,.824;.824,.824;.844,.844;.844,.844;.864,.864;.864,.864;.884,.884;.884,.884;.903,.903;.903,.903;.922,.922;.922,.922;.941,.941;.941,.941;.958,.958;.958,.958;.973,.973;.973,.973;.988,.988;.988,.988;1.002,1.002;1.002,1.002;1.015,1.015;1.015,1.015;1.027,1.027;1.027,1.027;1.039,1.039;1.039,1.039;1.049,1.049;1.049,1.049;1.057,1.057;1.057,1.057;1.065,1.065;1.065,1.065;1.072,1.072;1.072,1.072;1.078,1.078;1.078,1.078;1.084,1.084;1.084,1.084;1.088,1.088;1.088,1.088;1.092,1.092;1.092,1.092;1.095,1.095;1.095,1.095;1.098,1.098;1.098,1.098;1.1,1.1;1.1,1.1;1.102,1.102;1.102,1.102" calcMode="discrete"/>
            <animateTransform attributeName="transform" additive="sum" type="translate" repeatCount="indefinite" dur="2s" keyTimes="0;.34999;.35;.36699;.367;.38299;.383;.39999;.4;.41699;.417;.43299;.433;.44999;.45;.46699;.467;.49999;.5;.51699;.517;.53299;.533;.56699;.567;.61699;.617;.63299;.633;.64999;.65;.66699;.667;.68299;.683;.69999;.7;.71699;.717;.73299;.733;1" values="-40.25,-69.15;-40.25,-69.15;-40.3,-69.2;-40.3,-69.2;-40.25,-69.15;-40.25,-69.15;-40.3,-69.2;-40.3,-69.2;-40.3,-69.15;-40.3,-69.15;-40.25,-69.1;-40.25,-69.1;-40.25,-69.2;-40.25,-69.2;-40.2,-69.2;-40.2,-69.2;-40.3,-69.2;-40.3,-69.2;-40.35,-69.2;-40.35,-69.2;-40.4,-69.15;-40.4,-69.15;-40.3,-69.2;-40.3,-69.2;-40.35,-69.2;-40.35,-69.2;-40.35,-69;-40.35,-69;-40.3,-69;-40.3,-69;-40.35,-69.05;-40.35,-69.05;-40.3,-69;-40.3,-69;-40.35,-69.05;-40.35,-69.05;-40.3,-69;-40.3,-69;-40.3,-69.05;-40.3,-69.05;-40.25,-69;-40.25,-69" calcMode="discrete"/>
            <animate attributeName="opacity" repeatCount="indefinite" dur="2s" keyTimes="0;.33299;.333;.34999;.35;.36699;.367;.38299;.383;.39999;.4;.41699;.417;.43299;.433;.44999;.45;.46699;.467;.48299;.483;.58299;.583;.59999;.6;.61699;.617;.63299;.633;.64999;.65;.66699;.667;.68299;.683;.69999;.7;.71699;.717;.73299;.733;1" values="0;0;.11;.11;.23;.23;.34;.34;.45;.45;.55;.55;.66;.66;.75;.75;.84;.84;.93;.93;1;1;.82;.82;.66;.66;.52;.52;.41;.41;.3;.3;.21;.21;.14;.14;.08;.08;.04;.04;0;0" calcMode="discrete"/>
            <g>
              <path id="Layer17_0_1_STROKES" stroke="#294F8E" stroke-width="5.6" stroke-linejoin="miter" stroke-linecap="round" stroke-miterlimit="10" fill="none" d="M37.9 .05Q60.2 6.25 70.45 30.6 80.7 54.95 72.85 83.2 64.95 111.45 43.65 127.05 22.3 142.6 0 136.4"/>
            </g>
          </g>
          <animate attributeName="display" repeatCount="indefinite" dur="2s" keyTimes="0;.317;1" values="none;inline;inline"/>
        </g>
      </g>
    </g>
    <g display="none">
      <g id="text-knee-how" transform="translate(638.45 365.2)">
        <animateTransform attributeName="transform" additive="replace" type="translate" repeatCount="indefinite" dur="6.667s" keyTimes="0;.22499;.225;.22999;.23;.23499;.235;.23999;.24;.24499;.245;.24999;.25;.25499;.255;.25999;.26;.26499;.265;.26999;.27;.27499;.275;.27999;.28;.28499;.285;1" values="638.45,365.2;638.45,365.2;638.45,344.05;638.45,344.05;638.45,324.55;638.45,324.55;638.45,306.8;638.45,306.8;638.45,290.7;638.45,290.7;638.45,276.3;638.45,276.3;638.45,263.65;638.45,263.65;638.45,252.6;638.45,252.6;638.45,243.3;638.45,243.3;638.45,235.7;638.45,235.7;638.45,229.75;638.45,229.75;638.45,225.55;638.45,225.55;638.45,223;638.45,223;638.45,222.15;638.45,222.15" calcMode="discrete"/>
        <animate attributeName="opacity" repeatCount="indefinite" dur="6.667s" keyTimes="0;.12499;.125;.12999;.13;.13499;.135;.13999;.14;.14499;.145;.14999;.15;.15499;.155;.15999;.16;.16499;.165;.16999;.17;1" values="0;0;.19;.19;.36;.36;.51;.51;.64;.64;.75;.75;.84;.84;.91;.91;.96;.96;.99;.99;1;1" calcMode="discrete"/>
        <g>
          <g id="Layer14_0_FILL">
            <path fill="#294F8E" stroke="none" d="M43.2 10.7Q45.35 8.6 46.1 7.75L53.95 .05 40.6 .05 40.35 .55Q38.9 3.15 34.45 7.6L9.55 32.7 9.55 10.85Q9.55 4.9 10.25 1.2L10.45 .05 0 .05 .2 1.2Q.85 5.3 .85 10.85L.85 57.7Q.85 63.9 .2 67.3L0 68.45 10.45 68.45 10.25 67.3Q9.55 63.5 9.55 57.7L9.55 43.85 18.7 34.85 38.7 60.55Q41.75 64.45 43.75 67.95L44.05 68.45 57.15 68.45 55.4 66.8Q53.6 65.05 52.35 63.55 50.85 61.85 47.3 57.35L24.9 28.9 43.2 10.7M85.95 26.15Q95.65 26.15 95.65 37.25L95.65 57.6Q95.65 62.7 95.05 67.35L94.9 68.45 105 68.45 104.85 67.35Q104.25 63.35 104.25 57.7L104.25 36.1Q104.25 29.5 101.65 25.5 97.05 18.5 86.85 18.5 76.5 18.5 70.4 26.45L70.4 19.4 61.05 19.4 61.25 20.5Q61.9 25.05 61.9 30.25L61.9 57.6Q61.9 63.05 61.25 67.35L61.05 68.45 71.15 68.45 71 67.35Q70.4 62.75 70.4 57.6L70.4 40.85Q70.9 38.45 71.75 36.6 72.6 34.85 74.25 32.65 76.9 29.3 79.7 27.7 82.5 26.15 85.95 26.15M155.75 39.25L155.65 38.05Q154.25 28.9 148.35 23.6 142.4 18.25 133.55 18.25 123.4 18.25 117.15 25.35 110.9 32.45 110.9 43.95 110.9 55.7 117.25 62.65 123.6 69.65 134.25 69.65 144.2 69.65 150.75 63.25 152.3 61.7 153.3 60.25 154.45 58.55 155.75 55.75L156.15 54.8 148.15 51.6 147.85 52.55Q144.3 62.15 134.3 62.15 126.85 62.15 122.75 56.6 121.2 54.55 120.5 52.15 119.75 49.75 119.5 45.9L156.35 45.9 156.25 44.85Q156.15 42.85 155.75 39.25M126.6 27.55Q129.6 25.7 133.35 25.7 139.2 25.7 143 29.35 146.45 32.7 147.2 38.45L119.9 38.45Q120.5 35.1 121.8 32.8 123.65 29.35 126.6 27.55M207.5 45.9L206.8 38.05Q205.45 28.9 199.5 23.6 193.55 18.25 184.7 18.25 174.55 18.25 168.3 25.35 162.05 32.45 162.05 43.95 162.05 55.7 168.4 62.65 174.75 69.65 185.4 69.65 195.35 69.65 201.9 63.25 203.5 61.65 204.5 60.25 205.65 58.5 206.9 55.75L207.35 54.8 199.35 51.6 199 52.55Q195.5 62.15 185.5 62.15 178.05 62.15 173.95 56.6 172.4 54.5 171.65 52.15 170.9 49.7 170.7 45.9L207.5 45.9M172.95 32.8Q174.8 29.35 177.75 27.55 180.75 25.7 184.5 25.7 190.35 25.7 194.15 29.35 195.95 31.1 196.95 33.25 197.95 35.4 198.35 38.45L171.05 38.45Q171.65 35.1 172.95 32.8Z"/>
          </g>
        </g>
      </g>
      <animate attributeName="display" repeatCount="indefinite" dur="6.667s" keyTimes="0;.12;1" values="none;inline;inline"/>
    </g>
    <g display="none">
      <g id="how" transform="translate(878.2 366.55)">
        <animateTransform attributeName="transform" additive="replace" type="translate" repeatCount="indefinite" dur="6.667s" keyTimes="0;.22499;.225;.22999;.23;.23499;.235;.23999;.24;.24499;.245;.24999;.25;.25499;.255;.25999;.26;.26499;.265;.26999;.27;.27499;.275;.27999;.28;.28499;.285;1" values="878.2,366.55;878.2,366.55;878.2,345.4;878.2,345.4;878.2,325.95;878.2,325.95;878.2,308.15;878.2,308.15;878.2,292.1;878.2,292.1;878.2,277.7;878.2,277.7;878.2,265;878.2,265;878.2,254;878.2,254;878.2,244.7;878.2,244.7;878.2,237.1;878.2,237.1;878.2,231.15;878.2,231.15;878.2,226.95;878.2,226.95;878.2,224.4;878.2,224.4;878.2,223.55;878.2,223.55" calcMode="discrete"/>
        <animate attributeName="opacity" repeatCount="indefinite" dur="6.667s" keyTimes="0;.15499;.155;.15999;.16;.16499;.165;.16999;.17;.17499;.175;.17999;.18;.18499;.185;.18999;.19;.19499;.195;.19999;.2;1" values="0;0;.19;.19;.36;.36;.51;.51;.64;.64;.75;.75;.84;.84;.91;.91;.96;.96;.99;.99;1;1" calcMode="discrete"/>
        <g>
          <g id="Layer13_0_FILL">
            <path fill="#294F8E" stroke="none" d="M105 23.95Q98.45 16.95 87.4 16.95 76.3 16.95 69.7 23.95 63.1 30.95 63.1 42.65 63.1 54.35 69.75 61.35 76.35 68.3 87.5 68.3 98.5 68.3 105.05 61.3 111.6 54.3 111.6 42.6 111.6 30.9 105 23.95M98.8 29.3Q102.95 34.15 102.95 42.6 102.95 51.1 98.85 55.85 94.7 60.65 87.4 60.65 80.05 60.65 75.9 55.85 71.75 51 71.75 42.5 71.75 34 75.95 29.2 80.1 24.4 87.55 24.4 94.7 24.4 98.8 29.3M169.9 19Q169.65 23 168.05 28.3L161.5 50.5Q161.4 50.7 160.9 52.8L151.85 25.4Q150.6 21.55 150.15 18.9L150 18.1 142.45 18.1 142.4 18.95Q142.1 21.5 140.65 25.4L131.55 52.8 124.4 28.3Q122.75 23 122.45 19L122.4 18.1 112.05 18.1 116 29.65 125.35 59.85Q126.7 64 127.15 65.8L127.45 67.15 135.15 67.15 135.3 66.35Q135.7 63.85 137.1 59.95L146.25 32.3 155.45 59.9Q156.75 63.9 157.15 66.35L157.3 67.15 164.95 67.15 165.1 66.35Q165.65 63.75 166.9 59.9L176.35 29.65Q179.05 21.2 179.75 19.4L180.25 18.1 169.95 18.1 169.9 19M10.1 -.1L10.3 -1.25 -.25 -1.25 -.05 -.1Q.65 3.7 .65 9.55L.65 56.4Q.65 62.3 -.05 66L-.25 67.15 10.3 67.15 10.1 66Q9.4 61.6 9.4 56.4L9.4 35.25 47 35.25 47 56.4Q47 61.5 46.3 66L46.1 67.15 56.6 67.15 56.45 66.05Q55.75 61.55 55.75 56.4L55.75 9.35Q55.75 4.15 56.45 -.1L56.6 -1.25 46.1 -1.25 46.3 -.1Q47 3.9 47 9.55L47 27.1 9.4 27.1 9.4 9.35Q9.4 4.45 10.1 -.1Z"/>
          </g>
        </g>
      </g>
      <animate attributeName="display" repeatCount="indefinite" dur="6.667s" keyTimes="0;.15;1" values="none;inline;inline"/>
    </g>
    <g display="none">
      <g id="ni-hao" transform="translate(693.3 350.75)">
        <animate attributeName="opacity" repeatCount="indefinite" dur="6.667s" keyTimes="0;.32499;.325;.32999;.33;.33499;.335;.33999;.34;.34499;.345;.34999;.35;.35499;.355;.35999;.36;.36499;.365;1" values="0;0;.21;.21;.39;.39;.55;.55;.69;.69;.8;.8;.89;.89;.95;.95;.99;.99;1;1" calcMode="discrete"/>
        <g>
          <g id="Layer12_0_FILL">
            <path fill="#294F8E" stroke="none" d="M49.05 4.6Q49.75 8.55 49.75 14.95L49.95 58.7 18.55 11.55Q14.9 5.85 14 3.55L13.5 2.25 0 2.25 .4 4.6Q1.15 8.9 1.15 14.7L1.15 63.9Q1.15 70.85 .4 74.6L0 76.95 13.45 76.95 13 74.6Q12.3 70.6 12.3 63.9L12.25 21.3 43.05 67.7Q45.95 72.15 47.75 75.8L48.3 76.95 62.1 76.95 61.65 74.6Q60.95 71.05 60.95 64.55L60.95 14.95Q60.95 8.75 61.65 4.6L62.05 2.25 48.65 2.25 49.05 4.6M96.65 0L84.15 6.75 71.8 0 67.35 8.7 84.15 17.55 100.95 8.7 96.65 0M90.3 25.1L90.65 22.8 77.65 22.8 78 25.1Q78.6 29.45 78.6 35.35L78.6 64.45Q78.6 69.15 78 74.7L77.7 76.95 90.6 76.95 90.3 74.7Q89.7 69.7 89.7 64.45L89.7 35.35Q89.7 29.5 90.3 25.1Z"/>
          </g>
        </g>
      </g>
      <animate attributeName="display" repeatCount="indefinite" dur="6.667s" keyTimes="0;.32;1" values="none;inline;inline"/>
    </g>
    <g display="none">
      <g id="hao" transform="translate(830.25 350.55)">
        <animate attributeName="opacity" repeatCount="indefinite" dur="6.667s" keyTimes="0;.37499;.375;.37999;.38;.38499;.385;.38999;.39;.39499;.395;.39999;.4;.40499;.405;.40999;.41;.41499;.415;1" values="0;0;.21;.21;.39;.39;.55;.55;.69;.69;.8;.8;.89;.89;.95;.95;.99;.99;1;1" calcMode="discrete"/>
        <g>
          <g id="Layer11_0_FILL">
            <path fill="#294F8E" stroke="none" d="M49 41.4Q49 32.45 43.8 27.3 38.6 22.1 29.65 22.1 25.05 22.1 21.35 23.4 17.7 24.75 14.4 27.55 13.4 28.35 12.85 29L12.85 15.05Q12.85 9.15 13.55 4.8L13.95 2.45 1 2.45 1.35 4.75Q1.95 9.5 1.95 14.95L1.95 64.65Q1.95 70.35 1.35 74.85L1 77.15 13.85 77.15 13.55 74.9Q12.95 70.05 12.95 64.65L12.95 47Q13.5 44.45 14.45 42.5 15.4 40.55 17.15 38.25 22 32.25 28.7 32.25 37.95 32.25 37.95 42.7L37.95 64.65Q37.95 70.95 37.3 74.85L36.95 77.15 49.95 77.15 49.65 74.9Q49 69.85 49 64.75L49 41.4M109.9 35.7Q109.9 29.9 110.55 25.3L110.85 23 99.1 23 99.1 28.15Q92.65 22.1 82.45 22.1 71.05 22.1 64.25 29.75 57.45 37.35 57.45 50.15 57.45 63 64.2 70.5 70.9 78 82.5 78 91.55 78 98.5 72.5 99.7 71.5 100.75 70.45 102.3 74.7 106.95 77.9L108.15 78.7 117.1 72 114.8 70.4Q111.65 68.3 110.8 66.5 109.9 64.5 109.9 59.25L109.9 35.7M83.35 32.15Q90.5 32.15 94.8 36.95 99.05 41.8 99.05 49.85 99.05 58.1 94.7 63.05 90.3 67.95 83 67.95 76.2 67.95 72.45 63.3 68.7 58.65 68.7 50.15 68.7 41.55 72.55 36.85 76.35 32.15 83.35 32.15M96.9 .3L83 7.05 69.05 .3 64.3 8.95 83 17.6 101.8 8.95 96.9 .3M165.65 70.55Q173 62.75 173 50.05 173 37.2 165.7 29.5 158.45 21.8 146.25 21.8 134 21.8 126.75 29.5 119.45 37.2 119.45 50.15 119.45 63 126.75 70.65 134.1 78.35 146.35 78.35 158.3 78.35 165.65 70.55M134.8 36.5Q139 31.65 146.45 31.65 153.7 31.65 157.75 36.55 161.85 41.4 161.85 50.05 161.85 58.65 157.75 63.45 153.6 68.3 146.25 68.3 138.9 68.3 134.75 63.45 130.6 58.55 130.6 49.95 130.6 41.35 134.8 36.5Z"/>
          </g>
        </g>
      </g>
      <animate attributeName="display" repeatCount="indefinite" dur="6.667s" keyTimes="0;.37;1" values="none;inline;inline"/>
    </g>
    <g display="none">
      <g id="mandarin3" transform="translate(710.25 482.25)">
        <animateTransform attributeName="transform" additive="replace" type="translate" repeatCount="indefinite" dur="6.667s" keyTimes="0;.60499;.605;.60999;.61;.61499;.615;.61999;.62;1" values="710.25,482.25;710.25,482.25;682.7,482.25;682.7,482.25;663,482.25;663,482.25;651.2,482.25;651.2,482.25;647.25,482.25;647.25,482.25" calcMode="discrete"/>
        <animate attributeName="opacity" repeatCount="indefinite" dur="6.667s" keyTimes="0;.48499;.485;.48999;.49;.49499;.495;.49999;.5;.50499;.505;.50999;.51;.51499;.515;.59999;.6;1" values="0;0;.23;.23;.45;.45;.64;.64;.77;.77;.87;.87;.94;.94;.98;.98;1;1" calcMode="discrete"/>
        <g>
          <g id="Layer10_0_FILL">
            <path fill="#294F8E" stroke="none" d="M25.1 8.4Q24.45 10.95 22.9 15.25 19.2 25.75 13.6 34.95 8 44.1 1.8 49.8L0 51.5 1.9 53.1Q3.35 54.35 4.05 55.25 4.9 56.3 6.2 58.65L7.75 61.4 9.8 59Q13.65 54.55 16.25 50.75L16.15 90.25Q16.15 97.95 15.5 103.45L15.25 105.85 28.4 105.85 28.15 103.45Q27.6 97.5 27.6 90.35L27.6 48.1 27.55 48.1 27.55 38.35 27.6 38.35 27.6 33.2Q30.85 26.1 32.3 22.55 33.95 18.4 36.05 12.2L38.95 4 26.6 .85 26.2 3.2Q25.75 6.1 25.1 8.4M51.65 41.7L51.3 43.95Q49.35 57 45.8 66.55 42.25 76.1 36.55 83.65L34.85 85.9 37.45 87Q39.55 87.9 40.6 88.6 41.55 89.15 43.1 90.55L45 92.25 46.4 90.15Q52.05 81.65 55.85 71.45 57.8 66.35 58.95 61.8 60.1 57.35 62.45 45.95L62.9 43.7 51.65 41.7M107.85 19.8L106.75 20Q104.55 20.4 98.15 20.4L59.9 20.4Q62.7 13.95 63.8 10.55 65.1 6.65 65.65 5.25L66.55 2.9 53.95 0 53.7 2.5Q53.25 7.6 49.9 15.6 46.7 23.45 43.05 29.2 39.35 34.95 33.7 41L32.85 41.95 32.85 43.75 34.35 44.5Q36.35 45.45 37.2 46.1 38.05 46.7 39.5 48.15L41.15 49.8 42.7 48.05Q46.85 43.4 49.6 39.55 52.45 35.6 55 30.75L68.3 30.75 68.3 93.35Q67.7 93.45 66.1 93.45 61.3 93.45 54.1 92.15L50.55 91.55 51.6 94.95Q52.25 97.1 52.5 98.35 52.75 99.75 52.8 101.75L52.9 103.75 54.85 103.9Q62 104.45 66.1 104.45 72.95 104.45 75.95 102.45 79.55 100 79.55 93.65L79.55 30.75 98.55 30.75Q96.4 35.15 92.55 39.8L91.8 40.75 83 45.1 84.1 47.1Q87.05 52.45 88.2 54.85 89.6 57.8 92.45 64.8 97.05 76.05 98.25 79.2 99.4 82.3 101.85 89.85L102.65 92.25 113.15 87.1 112.55 85.25Q109.1 75.05 104.35 64.05 99.65 53.1 94.65 43.7 96.3 44.4 98.7 46.15L100.4 47.45 101.75 45.75Q106.45 39.6 110.3 31.05 111.95 27.1 112.35 26.5L113.5 24.95 107.85 19.8Z"/>
          </g>
        </g>
      </g>
      <animate attributeName="display" repeatCount="indefinite" dur="6.667s" keyTimes="0;.48;1" values="none;inline;inline"/>
    </g>
    <g display="none">
      <g id="mandarin2" transform="translate(851.15 482.6)">
        <animateTransform attributeName="transform" additive="replace" type="translate" repeatCount="indefinite" dur="6.667s" keyTimes="0;.60499;.605;.60999;.61;.61499;.615;.61999;.62;1" values="851.15,482.6;851.15,482.6;819.2,482.6;819.2,482.6;796.35,482.6;796.35,482.6;782.65,482.6;782.65,482.6;778.1,482.6;778.1,482.6" calcMode="discrete"/>
        <animate attributeName="opacity" repeatCount="indefinite" dur="6.667s" keyTimes="0;.51499;.515;.51999;.52;.52499;.525;.52999;.53;.53499;.535;.53999;.54;.54499;.545;1" values="0;0;.27;.27;.49;.49;.67;.67;.82;.82;.92;.92;.98;.98;1;1" calcMode="discrete"/>
        <g>
          <g id="Layer9_0_FILL">
            <path fill="#294F8E" stroke="none" d="M47.25 22.45L44.4 22.85Q41.35 23.25 34.65 23.25L27.75 23.25Q28.9 17.7 29.65 12.6 30.65 6.45 31.15 4.3L31.8 1.85 18.35 .55 18.85 3.4 18.9 4.55Q18.9 7.65 18.2 12.8 17.45 18 16.3 23.25L14.1 23.25Q8.9 23.25 4.75 22.65L2.2 22.2 2.2 34.85 4.75 34.45Q8.7 33.8 13.4 33.8L13.9 33.8Q10.1 48.45 4.35 61.4L3.6 63.2 5.25 64.2Q10.8 67.6 13.5 69.45 16.4 71.5 21.05 75.4 17.15 81.1 12.55 85.35 8 89.6 1.4 93.65L-1.15 95.2 1.05 97.15Q3.45 99.3 5.5 102.55L6.75 104.5 8.65 103.15Q16.25 97.8 20.9 93.3 25.5 88.85 29.35 83.05 33.3 87.15 38.2 93.25L39.9 95.4 47.65 86 46.4 84.6Q39.45 76.75 35.35 73.1 38.45 67.3 40.75 59.85 43 51.7 45.05 40.4 45.75 35.8 46.3 30.2 46.6 26.8 46.85 25.35L47.25 22.45M21.6 46.75Q23.2 41.8 25.35 33.8L34.6 33.8Q33.4 44.15 31.5 51.7 29.6 59.3 26.6 65.65 22.9 62.8 17.3 58.95 19.8 52.4 21.6 46.75M105.65 16.1L107.05 14.75 100.85 7.05 99.5 7.35Q97.65 7.85 91.55 7.85L63.3 7.85Q56.55 7.85 52.5 7.2L49.95 6.85 49.95 19.8 52.5 19.4Q56.65 18.75 62.95 18.75L89.65 18.75Q86.45 22.9 83.4 26.05 80.35 29.2 76.25 32.5L70.65 32.5 71 35Q71.75 40.45 71.75 45.5L71.75 47.9 59 47.9Q52.7 47.9 49.55 47.3L48.55 47.1 46.9 53.7 46.9 59.8 49.4 59.4Q53.95 58.8 59.1 58.8L71.75 58.8 71.75 92.35Q71.05 92.45 69.65 92.45 65.7 92.45 55.7 90.95L52.15 90.4 53.3 93.8Q54.05 96.05 54.3 97.25 54.55 98.6 54.7 100.75L54.85 102.6 56.7 102.8Q66.05 103.65 70.1 103.65 77.35 103.65 80.05 101.65 83.2 99.35 83.2 92.55L83.2 58.8 99.15 58.8Q102.7 58.8 104.35 58.9 106.5 59 108.55 59.4L111.15 59.9 111.15 46.75 108.5 47.3Q105.25 47.9 99.15 47.9L83.2 47.9 83.2 40.45Q92.75 32.25 98 25.7 104.85 16.95 105.65 16.1Z"/>
          </g>
        </g>
      </g>
      <animate attributeName="display" repeatCount="indefinite" dur="6.667s" keyTimes="0;.51;1" values="none;inline;inline"/>
    </g>
    <g display="none">
      <g id="icon-tick" transform="translate(938.05 486.95)">
        <animateTransform attributeName="transform" additive="replace" type="translate" repeatCount="indefinite" dur="6.667s" keyTimes="0;.62499;.625;.62999;.63;.63499;.635;.63999;.64;.64499;.645;.64999;.65;1" values="992.25,541.15;992.25,541.15;992.306,541.206;992.306,541.206;992.306,541.156;992.306,541.156;992.321,541.16;992.321,541.16;992.369,541.212;992.369,541.212;992.363,541.205;992.363,541.205;992.25,541.15;992.25,541.15" calcMode="discrete"/>
        <animateTransform attributeName="transform" additive="sum" type="scale" repeatCount="indefinite" dur="6.667s" keyTimes="0;.62499;.625;.62999;.63;.63499;.635;.63999;.64;.64499;.645;.64999;.65;1" values="1,1;1,1;1.074,1.074;1.074,1.074;1.148,1.148;1.148,1.148;1.221,1.221;1.221,1.221;1.148,1.148;1.148,1.148;1.074,1.074;1.074,1.074;1,1;1,1" calcMode="discrete"/>
        <animateTransform attributeName="transform" additive="sum" type="translate" repeatCount="indefinite" dur="6.667s" keyTimes="0;.62499;.625;.62999;.63;.63499;.635;.63999;.64;.64499;.645;.64999;.65;1" values="-54.2,-54.2;-54.2,-54.2;-54.3,-54.3;-54.3,-54.3;-54.25,-54.25;-54.25,-54.25;-54.3,-54.25;-54.3,-54.25;-54.35,-54.3;-54.35,-54.3;-54.4,-54.3;-54.4,-54.3;-54.2,-54.2;-54.2,-54.2" calcMode="discrete"/>
        <g>
          <g id="Layer8_0_FILL">
            <path fill="#294F8E" stroke="none" d="M92.55 92.55Q108.4 76.65 108.4 54.2 108.4 31.75 92.55 15.85 76.65 0 54.2 0 31.75 0 15.85 15.85 0 31.75 0 54.2 0 76.65 15.85 92.55 31.75 108.4 54.2 108.4 76.65 108.4 92.55 92.55M82 29.35Q85.2 29.25 87.6 31.45 89.95 33.6 90.1 36.8 90.2 40.05 88 42.4L53.5 80Q51.25 82.5 47.9 82.5L47.75 82.5Q44.55 82.5 42.25 80.2L22.65 60.6Q20.4 58.35 20.4 55.15 20.4 51.9 22.65 49.65 24.9 47.4 28.1 47.4 31.3 47.4 33.6 49.65L47.55 63.6 76.65 31.9Q78.8 29.5 82 29.35Z"/>
          </g>
        </g>
      </g>
      <animate attributeName="display" repeatCount="indefinite" dur="6.667s" keyTimes="0;.62;1" values="none;inline;inline"/>
    </g>
    <g id="ipad" transform="translate(1243.05 185.65)">
      <g>
        <path id="Layer7_0_1_STROKES" stroke="#294F8E" stroke-width="6" stroke-linejoin="miter" stroke-linecap="butt" stroke-miterlimit="10" fill="none" d="M543.15 442.95L35.5 442.95Q20.8 442.95 10.45 432.6 .05 422.2 .05 407.5L.05 35.5Q.05 20.8 10.45 10.4 20.8 0 35.5 0L543.15 0Q557.85 0 568.25 10.4 578.65 20.8 578.65 35.5L578.65 407.5Q578.65 422.2 568.25 432.6 557.85 442.95 543.15 442.95Z"/>
      </g>
      <g id="bb-shade" transform="translate(29.75 31.95)" opacity=".5">
        <g>
          <g id="Layer16_0_FILL">
            <path fill="#BED3F5" stroke="none" d="M102.45 278.05Q110.05 283.05 120.7 290.75 126.35 294.8 133.6 300.1 137.8 303.15 148 309.45 148.45 312.3 153.75 312.9L155.85 313.05Q162.65 313.25 173.65 310.4 181.85 308.25 184.8 306.85L184.8 306.8Q195.1 310.85 198.45 309.2L198.5 309.3Q207.3 305.1 222.2 301.8 239.05 292.15 244.6 292.15 251.95 292.15 297.15 288.8L299.7 288.3Q301.8 287.75 303.6 286.75L304.75 286Q304.85 285.95 304.95 285.9 305 285.85 305.05 285.8 312.5 280.5 310.4 268.85 308.35 257.25 294.55 250.95 290.25 248.95 285.3 247.75L281.2 246.95 265.15 250.6Q263.45 250.8 261.85 251L261.8 251Q255.95 251.7 253.25 250.9 250.7 250.2 245.7 249.1 241.1 248 225.4 244.55L212.5 241.7Q212.5 241.65 212.55 241.6 212.65 241.25 212.75 240.85 213.2 238.9 212.7 236.95 191.45 234.3 182.15 233.65 176.3 233.25 174.65 238.1 173.8 240.5 174.15 243L174.15 243.15Q161.45 244.25 150.2 248.95 141.75 252.45 143.15 256.15L142.9 256.25Q129.6 251 115.2 263.25 107.65 269.7 102.45 278.05M335.3 54.2Q332.6 54.8 329.25 59.2L323.95 66.8Q324.5 60.15 320.3 49.75L315.95 40.65Q316.75 39.45 317.15 37 318.05 32.1 316.4 26 312.8 12.7 300.05 10.75 296.1 10.1 291.65 10.7L288.05 11.4 264.1 10.95Q262.25 10.05 258.95 10 252.45 9.9 245.5 14.05 238.65 18.2 237.35 27.8 236.65 32.65 237.1 37.55 233.25 39.5 230.55 54.65 229.2 62.25 228.65 69.45L228.15 69.45 227.8 60.15 227.75 60.15Q225.5 60.4 224.15 61.95 222 64.35 222.7 69.45 223.35 74.45 223.1 85.8 223.55 94.7 228 94.7L228.45 94.7Q228.35 110.35 228.9 113.8 229.7 119.45 234 124.6 236.55 127.75 239 132.95 240.55 136.2 243.25 143L245.45 148.45Q248.4 155.6 250.95 159.75 254.4 165.2 258.55 167.85 266.45 172.8 272.6 180.15 275.7 183.8 277.2 186.45 277.55 183.6 278.75 180 281.2 172.8 285.7 169 288.55 166.65 291.8 165.85 302.1 163.1 313.15 150.95 325.05 137.9 325.05 126.6 328.05 108.65 329.55 96.85 331.5 99.55 334.05 96.75 336.45 94.15 338.5 88 343.35 73.4 341 61.45 339.35 53.25 335.3 54.2Z"/>
            <path fill="#35609E" stroke="none" d="M80.4 167.15Q63.35 168.85 48.5 189.45 44.05 195.6 37.6 206.8 31 218.25 28.55 221.7 19.45 234.55 0 270L0 366.7Q12.35 343.95 24.75 322.05 46.35 283.8 51.85 277.5 56.5 272.2 62.85 269.45 69 266.8 75.7 266.9 73.55 250.85 105.9 230.9 115.65 224.85 130.25 217.55 144.35 210.5 145.55 209.7 149.75 207 154.95 190.4 162.2 166.9 163.25 164.5 148.2 164.5 130.05 164.85 96.9 165.55 80.4 167.15M503.85 182.5Q492.8 156.15 488.6 154.55 485.25 153.3 451.35 154.45L418.1 155.85Q419.25 159 419.95 163 421.25 171 418.8 175.15 417.45 177.4 419.45 181 420.6 183.1 424.95 188.7 434.7 201.15 436.05 209.7 437.4 218.05 443 239.55 446.75 258.3 441.4 264.9 436 271.55 428.5 275.85L422.1 278.85Q351.6 286.95 301.85 292.5L302 292.6Q262.6 296.9 253.25 297.45 238.25 298.3 222.2 301.8 207.3 305.1 198.5 309.3 192.85 312 190.1 314.75 188.75 316.05 187.2 320.6 185.9 324.45 185 328.9L184.95 329.05 185.15 329.1Q183.35 340.35 183.1 358.85 182.95 370.05 183.35 381.9L518.05 381.9Q519.05 363.15 518.95 302.15 518.85 237.2 517.15 224.35 515.25 209.55 503.85 182.5Z"/>
            <path fill="#719AD6" stroke="none" d="M168.85 157.2Q166.15 157.8 163.25 164.5 162.2 166.9 154.95 190.4 149.75 207 145.55 209.7 144.35 210.5 130.25 217.55 115.65 224.85 105.9 230.9 73.55 250.85 75.7 266.9 69 266.8 62.85 269.45 56.5 272.2 51.85 277.5 46.35 283.8 24.75 322.05 12.35 343.95 0 366.7L0 381.9 183.35 381.9Q182.95 370.05 183.1 358.85 183.35 340.35 185.15 329.1L184.95 329.05 185 328.9Q185.9 324.45 187.2 320.6 188.75 316.05 190.1 314.75 192.85 312 198.5 309.3L198.45 309.2Q195.1 310.85 184.8 306.8L184.8 306.85Q181.85 308.25 173.65 310.4 162.65 313.25 155.85 313.05L153.75 312.9Q148.45 312.3 148 309.45 137.8 303.15 133.6 300.1 126.35 294.8 120.7 290.75 110.05 283.05 102.45 278.05 107.65 269.7 115.2 263.25 129.6 251 142.9 256.25L143.15 256.15Q141.75 252.45 150.2 248.95 161.45 244.25 174.15 243.15L174.15 243Q173.8 240.5 174.65 238.1 176.3 233.25 182.15 233.65 191.45 234.3 212.7 236.95 213.2 238.9 212.75 240.85 212.65 241.25 212.55 241.6 212.5 241.65 212.5 241.7L225.4 244.55 230 243.6Q232.35 229.2 234.75 214.7 239.45 185.65 239.45 185.1L239.55 185.1Q238 156.9 245.45 148.45L243.25 143 242.6 143.25Q177.5 155.2 168.85 157.2M288.05 11.4L291.65 10.7Q296.1 10.1 300.05 10.75 312.8 12.7 316.4 26 318.05 32.1 317.15 37 316.75 39.45 315.95 40.65L320.3 49.75Q324.5 60.15 323.95 66.8L329.25 59.2Q332.85 23.8 309.7 8.5 298.15 .85 285.85 .3 282 -.15 276.25 .05 264.75 .55 255.35 3.95 225.25 14.95 227.35 51.5L227.75 60.15 227.8 60.15 228.15 69.45 228.65 69.45Q229.2 62.25 230.55 54.65 233.25 39.5 237.1 37.55 236.65 32.65 237.35 27.8 238.65 18.2 245.5 14.05 252.45 9.9 258.95 10 262.25 10.05 264.1 10.95L288.05 11.4M404.55 147.4Q388.75 138.4 377.55 135.9 366.35 133.45 345.55 133.45L327.05 133.95 329.05 141.25Q327.4 149.55 316.1 173.8 310.45 185.95 305.1 196.4L304.15 195.05 303.9 194.75Q303.35 195.55 288.1 213.8 273.5 231.2 270.8 236.2 269.35 238.9 267.8 241.55 265.4 245.6 262.9 249.45L262.35 250.25Q262.1 250.6 261.85 251 263.45 250.8 265.15 250.6L281.2 246.95 285.3 247.75Q290.25 248.95 294.55 250.95 308.35 257.25 310.4 268.85 312.5 280.5 305.05 285.8 305 285.85 304.95 285.9 304.85 285.95 304.75 286L303.6 286.75Q300.5 288.55 297.15 288.8 251.95 292.15 244.6 292.15 239.05 292.15 222.2 301.8 238.25 298.3 253.25 297.45 262.6 296.9 302 292.6L301.85 292.5Q351.6 286.95 422.1 278.85L428.5 275.85Q436 271.55 441.4 264.9 446.75 258.3 443 239.55 437.4 218.05 436.05 209.7 434.7 201.15 424.95 188.7 420.6 183.1 419.45 181 417.45 177.4 418.8 175.15 421.25 171 419.95 163 419.25 159 418.1 155.85 412.45 151.85 404.55 147.4Z"/>
            <path fill="#99B7DE" stroke="none" d="M327.05 133.95L325.05 126.6Q325.05 137.9 313.15 150.95 302.1 163.1 291.8 165.85 288.55 166.65 285.7 169 281.2 172.8 278.75 180 277.55 183.6 277.2 186.45 275.7 183.8 272.6 180.15 266.45 172.8 258.55 167.85 254.4 165.2 250.95 159.75 248.4 155.6 245.45 148.45 238 156.9 239.55 185.1L239.45 185.1Q239.45 185.65 234.75 214.7 232.35 229.2 230 243.6L225.4 244.55Q241.1 248 245.7 249.1 250.7 250.2 253.25 250.9 255.95 251.7 261.8 251 262.05 250.6 262.35 250.25L262.9 249.45Q265.4 245.6 267.8 241.55 269.35 238.9 270.8 236.2 273.5 231.2 288.1 213.8 303.35 195.55 303.9 194.75L303.7 194.45 304.15 195.05 305.1 196.4Q310.45 185.95 316.1 173.8 327.4 149.55 329.05 141.25L327.05 133.95Z"/>
          </g>
        </g>
      </g>
      <g>
        <path id="Layer6_0_1_STROKES" stroke="#294F8E" stroke-width="5" stroke-linejoin="round" stroke-linecap="round" fill="none" d="M258.4 101.45Q258.95 94.25 260.3 86.65 263 71.5 266.85 69.55 266.4 64.65 267.1 59.8 268.4 50.2 275.25 46.05 282.2 41.9 288.7 42 292 42.05 293.85 42.95L317.8 43.4 321.4 42.7Q325.85 42.1 329.8 42.75 342.55 44.7 346.15 58 347.8 64.1 346.9 69 346.5 71.45 345.7 72.65L350.05 81.75Q354.25 92.15 353.7 98.8L359 91.2Q362.6 55.8 339.45 40.5 332.25 35.75 323.2 33.55L315.6 32.3Q311.75 31.85 306 32.05 294.5 32.55 285.1 35.95 255 46.95 257.1 83.5L257.5 92.15 257.9 101.45Q258.3 113.7 258.2 126.7 258.1 142.35 258.65 145.8 259.45 151.45 263.75 156.6 266.3 159.75 268.75 164.95 270.3 168.2 273 175L275.2 180.45Q278.15 187.6 280.7 191.75 284.15 197.2 288.3 199.85 296.2 204.8 302.35 212.15 305.45 215.8 306.95 218.45 307.3 215.6 308.5 212 310.95 204.8 315.45 201L315.5 201Q318.3 198.65 321.55 197.85 331.85 195.15 342.9 182.95 354.8 169.9 354.8 158.6 357.8 140.65 359.3 128.85 360.1 122.6 360.1 120.05M359.3 128.85Q361.25 131.55 363.8 128.75 366.2 126.15 368.25 120 373.1 105.4 370.75 93.45 369.1 85.25 365.05 86.2 362.35 86.8 359 91.2M333.9 226.25Q333.9 226.45 333.7 226.75L334.85 228.4Q340.2 217.95 345.85 205.8 357.15 181.55 358.8 173.25L356.8 165.95 354.8 158.6M356.8 165.95L375.3 165.45Q396.1 165.45 407.3 167.9 418.5 170.4 434.3 179.4 442.2 183.85 447.85 187.85L481.1 186.45Q515 185.3 518.35 186.55 522.55 188.15 533.6 214.5 545 241.55 546.9 256.35 548.6 269.2 548.7 334.15 548.8 395.15 547.8 413.9L213.1 413.9 29.75 413.9 29.75 398.7 29.05 399.9M447.85 187.85L449.7 195Q451 203 448.55 207.15 447.2 209.4 449.2 213 450.35 215.1 454.7 220.7 464.45 233.15 465.8 241.7 467.15 250.05 472.75 271.55 476.5 290.3 471.15 296.9 465.75 303.55 458.25 307.85L451.85 310.85Q381.35 319 331.65 324.65 331.15 324.7 330.7 324.75 292.2 328.9 283 329.45 268 330.3 251.95 333.8 237.05 337.1 228.25 341.3 222.6 344 219.85 346.75 218.5 348.05 216.95 352.6 215.65 356.45 214.7 361.05 213.1 372.35 212.85 390.85 212.7 402.05 213.1 413.9M333.7 226.75L333.65 226.75Q333.1 227.55 317.85 245.8 303.25 263.2 300.55 268.2 296.3 276.1 291.55 283.05 300.25 282.05 310.95 278.95L314.75 276.3Q319.4 273.6 323.55 273.6 335.65 273.6 360.6 272.1 393 270.15 394.7 267.65 395.65 266.25 398.35 252.7 400.95 239.5 404 235.75M251.95 333.8Q268.8 324.15 274.35 324.15 281.7 324.15 326.9 320.8 331.05 320.5 334.8 317.8 342.25 312.5 340.15 300.85 338.1 289.25 324.3 282.95 320 280.95 315.05 279.75L310.95 278.95M326.9 320.8L331.65 324.65M257.5 92.15Q255.25 92.4 253.9 93.95 251.75 96.35 252.45 101.45 253.1 106.45 252.85 117.8 253.3 126.7 257.75 126.7M272.35 175.25Q207.25 187.2 198.6 189.2 195.9 189.8 193.05 196.4 193 196.45 193 196.5 191.95 198.9 184.7 222.4 179.5 239 175.3 241.7 174.1 242.5 160 249.55 145.4 256.85 135.65 262.9 103.3 282.85 105.45 298.9 111.65 299 117.5 301.55 122.95 304 132.2 310.05 137.4 301.7 144.95 295.25 159.35 283 172.65 288.25M282.05 159.95L282.8 161.85Q283.9 164.1 285.75 166.05 291.55 172.25 302.3 172.6 311.45 172.9 317.9 166.45 321.1 163.25 322.5 159.95M29.75 398.7L29.75 302Q49.15 266.6 58.3 253.65 60.75 250.2 67.35 238.8 73.8 227.6 78.25 221.45 93.1 200.85 110.15 199.15 126.65 197.55 159.8 196.85 177.95 196.5 193 196.5M214.7 361.05Q202.95 356.5 183.5 344.9 178.2 344.3 177.75 341.45 167.55 335.15 163.35 332.1 156.1 326.8 150.45 322.75 139.8 315.05 132.2 310.05M105.45 298.9Q98.75 298.8 92.6 301.45 86.25 304.2 81.6 309.5 76.1 315.8 54.5 354.05 42.1 375.95 29.75 398.7M306.95 218.45L305.5 227.95Q303.1 238.3 298.45 242.5 294 246.6 284.7 263.4 280 271.95 275.45 281.1L283 282.9Q285.55 283.65 291.35 283.1 291.45 283.05 291.55 283.05M275.2 180.45Q267.75 188.9 269.3 217.1 269.7 223.7 270.4 228.4L288.3 199.85M269.3 217.1Q269.2 217.65 264.5 246.7 262.1 261.2 259.75 275.6M179.3 292.9Q177.95 292.45 176.5 291.6 173.55 289.95 172.9 288.15 171.5 284.45 179.95 280.95 191.2 276.25 203.9 275.15L203.95 275.15Q203.55 272.5 204.4 270.1 206.05 265.25 211.9 265.65 221.2 266.3 242.45 268.95L242.65 270.45Q242.75 272.2 242.25 273.7L255.15 276.55Q270.85 280 275.45 281.1M240.45 280.95Q236.95 280.3 232.55 279.3 226.1 277.8 221.85 276.3 219.05 275.25 214.4 274.95 209.6 274.65 203.95 275.15M232.55 279.3Q240.55 278.95 242.25 273.7L241.8 273.6M191.95 303.55L195.1 302.8Q198.75 302.3 201.25 303.55 203.25 304.55 212.3 309.75 220.95 314.35 223.85 313.5 227.4 312.45 230.1 309.65 232.8 306.8 231.8 304.85 231.05 303.3 223.45 298.8 213.45 292.9 212.55 292.25 200.8 283.8 187.95 292.9M197.25 306.2Q191.15 306.65 183.65 310.45 176.95 313.8 172 318.15 168.25 321.45 171.4 324.8 173 326.45 175.3 327.45L186.3 324.15Q198.25 320.8 203.25 320.8L219.2 320.8M213.2 321.5L226.65 329.1Q230.55 331.1 231.05 334.55 231.5 337.6 229.3 340.3 228.95 340.8 228.2 341.2 224.85 342.85 214.6 338.8 211.85 340.2 203.4 342.4 192.4 345.25 185.6 345.05L183.5 344.9M188.6 326.15L197.55 330.9Q204.75 334.6 207.75 335.9L214.55 338.8 214.6 338.8M197.4 331.15Q194.1 331.9 190.3 332.95 182.75 335 180.55 336.5 179.2 337.4 178.4 338.75 177.55 340.15 177.75 341.45M333.7 226.75L315.5 201"/>
      </g>
    </g>
    <g display="none">
      <g id="sub5" transform="translate(1330.25 541.2)">
        <animate attributeName="opacity" repeatCount="indefinite" dur="6.667s" keyTimes="0;.69999;.7;.70499;.705;.70999;.71;.71499;.715;.71999;.72;.72499;.725;.72999;.73;.73499;.735;.73999;.74;.74499;.745;1" values="0;0;.19;.19;.36;.36;.51;.51;.64;.64;.75;.75;.84;.84;.91;.91;.96;.96;.99;.99;1;1" calcMode="discrete"/>
        <g transform="matrix(.838 0 0 .838 -1102.85 -450.9)">
          <g id="Layer5_0_FILL">
            <path fill="#FFF" stroke="none" d="M1487.35 567.15L1487.35 546.15Q1487.35 538.15 1479.35 538.15L1324.3 538.15Q1316.3 538.15 1316.3 546.15L1316.3 567.15Q1316.3 575.15 1324.3 575.15L1479.35 575.15Q1487.35 575.15 1487.35 567.15Z"/>
          </g>
        </g>
      </g>
      <animate attributeName="display" repeatCount="indefinite" dur="6.667s" keyTimes="0;.695;1" values="none;inline;inline"/>
    </g>
    <g display="none">
      <g id="sub4" transform="translate(1485.3 541.15)">
        <animate attributeName="opacity" repeatCount="indefinite" dur="6.667s" keyTimes="0;.79999;.8;.80499;.805;.80999;.81;.81499;.815;.81999;.82;.82499;.825;.82999;.83;.83499;.835;.83999;.84;.84499;.845;1" values="0;0;.19;.19;.36;.36;.51;.51;.64;.64;.75;.75;.84;.84;.91;.91;.96;.96;.99;.99;1;1" calcMode="discrete"/>
        <g transform="matrix(.838 0 0 .838 -1216.85 -450.85)">
          <g id="Layer4_0_FILL">
            <path fill="#FFF" stroke="none" d="M1561.35 567.1L1561.35 546.15Q1561.35 538.1 1553.3 538.1L1460.4 538.1Q1452.35 538.1 1452.35 546.15L1452.35 567.1Q1452.35 575.15 1460.4 575.15L1553.3 575.15Q1561.35 575.15 1561.35 567.1Z"/>
          </g>
        </g>
      </g>
      <animate attributeName="display" repeatCount="indefinite" dur="6.667s" keyTimes="0;.795;1" values="none;inline;inline"/>
    </g>
    <g display="none">
      <g id="sub3" transform="translate(1590 541.2)">
        <animate attributeName="opacity" repeatCount="indefinite" dur="6.667s" keyTimes="0;.89999;.9;.90499;.905;.90999;.91;.91499;.915;.91999;.92;.92499;.925;.92999;.93;.93499;.935;.93999;.94;.94499;.945;1" values="0;0;.19;.19;.36;.36;.51;.51;.64;.64;.75;.75;.84;.84;.91;.91;.96;.96;.99;.99;1;1" calcMode="discrete"/>
        <g transform="matrix(.838 0 0 .838 -1102.85 -450.9)">
          <g id="Layer3_0_FILL">
            <path fill="#FFF" stroke="none" d="M1487.35 567.15L1487.35 546.15Q1487.35 538.15 1479.35 538.15L1324.3 538.15Q1316.3 538.15 1316.3 546.15L1316.3 567.15Q1316.3 575.15 1324.3 575.15L1479.35 575.15Q1487.35 575.15 1487.35 567.15Z"/>
          </g>
        </g>
      </g>
      <animate attributeName="display" repeatCount="indefinite" dur="6.667s" keyTimes="0;.895;1" values="none;inline;inline"/>
    </g>
  </g>
</svg>