<?xml version="1.0" encoding="UTF-8"?>
<svg xmlns="http://www.w3.org/2000/svg" viewBox="0 0 1080 1080">
  <g id="Layer_3" data-name="Layer 3">
    <rect x="-3.77" y="-10.54" width="1096.09" height="1101.17" style="fill: #470a72;"/>
  </g>
  <g id="Layer_4" data-name="Layer 4">
    <g>
      <path d="m884.03,572.42c1.9-4.58,2.97-9.6,2.98-14.87l.15-42.06c.02-5.26-1-10.39-2.96-15.14,10.34-10.02,14.78-25.39,10.16-40.03l-16.67-52.86c-4.13-13.11-14.56-22.79-27.36-26.15l14.08-14.45c7.71-7.91,11.88-18.36,11.74-29.41-.14-11.05-4.58-21.39-12.49-29.1l-71.11-69.32c-7.77-7.58-18.03-11.75-28.89-11.75s-21.89,4.55-29.63,12.49l-1.01,1.03c.58-6.85-.74-13.74-3.91-20.04-4.52-8.95-12.25-15.6-21.78-18.74l-52.68-17.33c-3.8-1.25-7.75-1.89-11.74-1.89-16.25,0-30.58,10.38-35.65,25.8l-2.45,7.44c-8.13-13.63-23.02-22.78-40.01-22.78h-49.43c-16.99,0-31.88,9.15-40.01,22.78l-2.45-7.45c-5.08-15.43-19.41-25.8-35.65-25.8-3.99,0-7.94.63-11.73,1.88l-52.69,17.34c-16.87,5.56-27.17,22.01-25.65,38.98l-1.21-1.24c-7.74-7.94-18.54-12.5-29.63-12.5s-21.11,4.17-28.88,11.75l-71.11,69.32c-7.91,7.71-12.35,18.05-12.49,29.1-.14,11.05,4.03,21.5,11.75,29.41l14.08,14.45c-12.8,3.36-23.23,13.04-27.36,26.15l-16.67,52.86c-3.15,10-2.23,20.62,2.61,29.92,1.99,3.82,4.54,7.23,7.55,10.14-1.92,4.65-2.98,9.75-2.96,15.1l.15,42.08c.02,5.25,1.08,10.26,2.98,14.82-3.08,2.94-5.69,6.41-7.71,10.3-4.84,9.3-5.77,19.93-2.61,29.92l16.67,52.85c2.55,8.11,7.52,14.89,13.96,19.69.35,1.27.77,2.53,1.26,3.77l19.91,50.32c5.7,14.41,19.4,23.72,34.9,23.72,4.74,0,9.39-.88,13.81-2.63l25.63-10.14,14.04-5.56v72.61c0,31.89,25.95,57.84,57.84,57.84,17.44,0,33.09-7.75,43.71-20,.52,23.3,19.64,42.1,43.06,42.1h134.67c23.2,0,42.17-18.44,43.04-41.43.93-.6,1.84-1.2,2.76-1.81,10.62,12.89,26.7,21.13,44.66,21.13,31.9,0,57.84-25.95,57.84-57.84v-72.91l22.08,8.74h0s18.35,7.26,18.35,7.26c4.41,1.75,9.06,2.63,13.8,2.63,15.49,0,29.19-9.31,34.9-23.72l19.91-50.32c.49-1.25.91-2.51,1.26-3.77,6.44-4.8,11.41-11.58,13.96-19.69l16.67-52.86c4.64-14.72.13-30.18-10.33-40.19Z" style="fill: #ff1ab3;"/>
      <g>
        <path d="m412.71,424.96l-14.05,3.93c-3.7,1.04-5.83,4.76-4.75,8.32,1.08,3.56,4.95,5.6,8.66,4.57l14.05-3.93c3.7-1.04,5.83-4.76,4.75-8.32-1.08-3.56-4.95-5.6-8.66-4.57Z" style="fill: #ffd710;"/>
        <path d="m680.05,428.89l-14.05-3.93c-3.7-1.04-7.58,1.01-8.66,4.57-1.08,3.56,1.05,7.28,4.75,8.32l14.05,3.93c3.7,1.04,7.58-1.01,8.66-4.57,1.08-3.56-1.05-7.28-4.75-8.32Z" style="fill: #ffd710;"/>
        <path d="m301.33,460.87l-44.69-14.09c-.94-.3-1.95.23-2.25,1.17l-2.81,8.9c-.3.95.23,1.95,1.17,2.25l44.69,14.09c.94.3,1.95-.23,2.25-1.17l2.81-8.9c.3-.94-.23-1.95-1.17-2.25Z" style="fill: #ffd710;"/>
        <path d="m780.32,472.02c.3.94,1.31,1.47,2.25,1.17l44.69-14.09c.94-.3,1.47-1.31,1.17-2.25l-2.81-8.9c-.3-.94-1.31-1.47-2.25-1.17l-44.69,14.09c-.95.3-1.47,1.31-1.17,2.25l2.81,8.9Z" style="fill: #ffd710;"/>
        <g>
          <path d="m299.7,600.92c-.3-.95-1.31-1.47-2.25-1.17l-44.69,14.09c-.95.3-1.47,1.3-1.17,2.25l2.81,8.9c.3.94,1.3,1.47,2.25,1.17l44.69-14.09c.95-.3,1.47-1.31,1.17-2.25l-2.81-8.9Z" style="fill: #ffd710;"/>
          <path d="m284.53,703.41c-1.66.65-3.53-.16-4.18-1.81l-5.77-14.57c-.66-1.65.16-3.53,1.81-4.18l19.85-7.86-7.73-19.54-37.92,15.01c-2.58,1.02-3.84,3.93-2.82,6.51l19.91,50.31c1.02,2.58,3.93,3.84,6.51,2.82l37.92-15.01-7.73-19.54-19.86,7.86Z" style="fill: #ffd710;"/>
          <path d="m827.26,613.84l-44.69-14.09c-.94-.3-1.95.23-2.25,1.17l-2.81,8.9c-.3.94.23,1.95,1.17,2.25l44.69,14.09c.95.3,1.95-.23,2.25-1.17l2.81-8.9c.3-.95-.23-1.95-1.17-2.25Z" style="fill: #ffd710;"/>
          <path d="m829.42,670.46l-37.92-15.01-7.73,19.54,19.86,7.86c1.65.65,2.47,2.53,1.81,4.18l-5.77,14.57c-.66,1.66-2.53,2.47-4.18,1.81l-19.86-7.86-7.73,19.54,37.92,15.01c2.58,1.02,5.49-.24,6.51-2.82l19.91-50.31c1.02-2.58-.24-5.49-2.82-6.51Z" style="fill: #ffd710;"/>
          <g>
            <path d="m541.04,746.97s.1,0,.15,0,.1,0,.15,0h0c14.06.05,30.36.97,46.74,3.78,22.11,4.01,41,2.01,43.63,1.7-1.84-.6-4-1.57-6.4-3.11-35.06-19.48-76.66-23.6-84.28-24.21-7.62.61-49.22,4.73-84.28,24.21-2.37,1.52-4.5,2.48-6.32,3.08,1.44.18,20.92,2.48,43.86-1.67,16.38-2.81,32.68-3.73,46.74-3.77h0Z" style="fill: #ffd710;"/>
            <path d="m858.96,594.38l-98.58-31.09,88.53.32c3.08.01,5.59-2.75,5.6-6.17l.03-7.19-90.56-.32c-2.16,0-3.9-1.95-3.89-4.35l.07-19.02c0-2.39,1.76-4.33,3.92-4.32l90.56.32.03-7.19c.01-3.42-2.47-6.2-5.55-6.21l-86.21-.31,96.06-30.3c3.55-1.12,5.52-4.9,4.4-8.45l-16.67-52.86c-1.12-3.55-4.9-5.52-8.45-4.4l-92.47,29.16,95.37-97.83c3.42-3.51,3.35-9.12-.16-12.54l-71.11-69.33c-3.51-3.42-9.12-3.35-12.54.16l-84.74,86.93c-2.31-1.39-4.68-2.73-7.11-4.02l34.92-106.12c.87-2.64-.57-5.48-3.2-6.35l-52.68-17.34c-2.64-.87-5.48.57-6.35,3.2l-3.04,9.25,13.16,4.33c6.77,2.23,10.45,9.52,8.23,16.29l-11.55,35.09c-2.23,6.77-9.52,10.45-16.29,8.22l-13.16-4.33-12.59,38.25c-7.69-1.04-15.71-1.7-24.05-1.96v-84.09c0-7.76-6.29-14.04-14.04-14.04h-49.43c-7.76,0-14.04,6.29-14.04,14.04v84.14c-8.36.31-16.35,1.01-24.01,2.06l-12.64-38.4-13.16,4.33c-6.77,2.23-14.06-1.45-16.29-8.22l-11.55-35.09c-2.23-6.77,1.46-14.06,8.22-16.29l13.16-4.33-3.04-9.25c-.87-2.64-3.71-4.07-6.35-3.2l-52.68,17.34c-2.64.87-4.07,3.71-3.2,6.35l35.02,106.42c-2.42,1.3-4.77,2.65-7.07,4.05l-85.06-87.26c-3.42-3.51-9.03-3.58-12.54-.16l-71.11,69.33c-3.51,3.42-3.58,9.03-.16,12.54l95.37,97.83-92.47-29.16c-3.55-1.12-7.33.85-8.45,4.4l-16.67,52.86c-1.12,3.55.85,7.33,4.4,8.45l96.07,30.3-86.21.31c-3.08.01-5.56,2.79-5.55,6.21l.03,7.19,90.56-.32c2.15,0,3.91,1.93,3.92,4.32l.07,19.02c0,2.39-1.73,4.34-3.89,4.35l-90.56.32.03,7.19c.01,3.42,2.52,6.18,5.6,6.17l88.53-.32-98.59,31.09c-3.55,1.12-5.52,4.9-4.4,8.45l16.67,52.86c1.12,3.55,4.9,5.52,8.45,4.4l107.03-33.75.3,5.14-49.93,19.76,7.73,19.54,43.48-17.21.02.39c0,7.72.65,15.28,1.9,22.64l-37.26,14.75,7.73,19.54,34.7-13.73c.28.83.56,1.65.86,2.47v117.62c0,13.99,11.34,25.33,25.33,25.33s25.33-11.34,25.33-25.33v-27.37c12.14,18.36,29.69,33.89,50.88,45.09v19.15c0,5.83,4.73,10.56,10.56,10.56h134.67c5.83,0,10.56-4.73,10.56-10.56v-17.27c22.84-11.31,41.73-27.56,54.57-46.98v27.37c0,13.99,11.34,25.33,25.33,25.33s25.33-11.34,25.33-25.33v-110.56c1.23-2.89,2.37-5.84,3.4-8.83l32.92,13.03,7.73-19.54-35.36-13.99c1.31-7.46,1.99-15.15,2.02-22.99l41.48,16.42,7.73-19.54-47.95-18.97.31-5.29,105.04,33.13c3.55,1.12,7.33-.85,8.45-4.4l16.67-52.86c1.12-3.55-.85-7.33-4.4-8.45Zm-90.23-138.97l60.44-19.06c2.1-.66,4.34.5,5.01,2.61l6.48,20.55c.66,2.1-.5,4.34-2.61,5.01l-60.44,19.06c-2.1.66-4.35-.5-5.01-2.61l-6.48-20.55c-.66-2.1.5-4.34,2.61-5.01Zm-454.84,5.01l-6.48,20.55c-.66,2.1-2.91,3.27-5.01,2.61l-60.44-19.06c-2.1-.66-3.27-2.9-2.61-5.01l6.48-20.55c.66-2.1,2.91-3.27,5.01-2.61l60.44,19.06c2.1.66,3.27,2.91,2.61,5.01Zm-2.61,157.11l-60.44,19.06c-2.1.66-4.35-.5-5.01-2.61l-6.48-20.55c-.66-2.1.5-4.34,2.61-5.01l60.44-19.06c2.1-.66,4.34.5,5.01,2.61l6.48,20.55c.66,2.1-.5,4.34-2.61,5.01Zm451.9-255.86l13.55,13.21c1.77,1.72,1.81,4.55.08,6.32l-42.09,43.18c-3.22-9.15-7.49-18.14-12.83-26.77l34.96-35.87c1.72-1.77,4.55-1.8,6.32-.08Zm-41.24-33.96c1.72-1.77,4.55-1.8,6.32-.08l13.56,13.21c1.77,1.72,1.8,4.55.08,6.32l-32.48,33.32c-5.87-6.9-12.53-13.42-20.01-19.4l32.54-33.38Zm-56.33,25.35s4.43,19.46,12.22,24.79c3.82,2.62,14.17,8.8,24.93,16.78,6.7,7.7,11.69,16.81,15.1,24.38-.62-.46-1.26-.92-1.89-1.38-21.84-15.75-56.03-28.1-98.68-30.97l-14.19-53.25s56.44,14.95,62.51,19.64Zm-224.35,171.4l-1.95-.41v-22.33l2.8.4c28.33,4.01,49.7,28.61,49.7,57.23s-21.36,53.22-49.7,57.23l-2.8.4v-22.34l1.95-.41c16.43-3.44,28.36-18.11,28.36-34.88s-11.93-31.45-28.36-34.88Zm99.39-29.32c3.21,0,6.36-.2,9.46-.59l11.99,11.28,8.44,7.95v12.18h-60.29v-11.57l9.09-8.56,11.97-11.27c3.06.37,6.17.57,9.33.57Zm67.35,104.44l-6.81-8.12,16.91-14.19,6.81,8.12-16.91,14.19Zm18.35-12.99l9.18,5.3-11.04,19.12-9.18-5.3,11.04-19.12Zm-27.27,46.3v21.76h-54.79v-114.51h21.69v92.75h33.1Zm-2.66-49.69l-3.62-9.96,20.74-7.55,3.62,9.96-20.74,7.55Zm-5.28-19.36v-10.6h22.08v10.6h-22.08Zm22.4-12.45l-20.74-7.55,3.62-9.96,20.74,7.55-3.62,9.96Zm-78.07-11.25v114.51h-56.06v-21.76h34.36v-92.75h21.69Zm-90.89,100.42c6.75-.84,13.33-2.52,19.61-5v27.66c0,4.59,3.73,8.32,8.32,8.32h134.79c4.59,0,8.32-3.73,8.32-8.32v-28.71c6.27,2.73,12.86,4.65,19.61,5.72v23c0,15.4-12.53,27.93-27.93,27.93h-134.79c-15.4,0-27.93-12.53-27.93-27.93v-22.65Zm188.88-26.29l3.83-21.74,10.44,1.84-3.83,21.74-10.44-1.84Zm3.83-89.73l-3.83-21.74,10.44-1.84,3.83,21.74-10.44,1.84Zm-1.76.64l-9.18,5.3-11.04-19.12,9.18-5.3,11.04,19.12Zm-10.61,6.51l-6.81,8.12-16.91-14.19,6.81-8.12,16.91,14.19Zm-49.56-173.25l4.58,3.5c16.38,12.5,25.78,31.46,25.78,52.04,0,32.48-23.81,59.9-55.72,64.66-1.03.11-2.07.21-3.11.28v-26.97l.15-.03c18.42-3.23,31.79-19.19,31.79-37.94,0-12.12-5.54-23.29-15.2-30.66l-4.58-3.49,16.31-21.38Zm-49.1-108.03c0-2.89,2.34-5.23,5.23-5.23h17.21c2.89,0,5.23,2.34,5.23,5.23v56.89c0,2.89-2.34,5.23-5.23,5.23h-17.21c-2.89,0-5.23-2.34-5.23-5.23v-56.89Zm-7.49,83.46h44.74c4.05,0,6.41,4.57,4.06,7.87l-10.42,14.64-11.96,16.81c-1.99,2.79-6.13,2.79-8.12,0l-11.96-16.81-10.42-14.64c-2.35-3.3.01-7.87,4.06-7.87Zm-18.12,28.06l4.58-3.5,16.31,21.38-4.58,3.49c-9.66,7.37-15.2,18.54-15.2,30.66,0,18.34,13.01,34.24,30.94,37.79l.64.13v26.92c-1.59-.13-3.17-.29-4.74-.5-30.85-5.6-53.73-32.71-53.73-64.35,0-20.57,9.4-39.54,25.78-52.04Zm-85.81-8.88c6.07-4.69,62.51-19.64,62.51-19.64l-15.61,52.87c-42.65,2.87-79.12,17.12-97.26,31.35-.62.48-1.27.92-1.89,1.38,3.42-7.56,8.4-16.68,15.1-24.38,10.76-7.99,21.11-14.17,24.93-16.78,7.79-5.33,12.22-24.79,12.22-24.79Zm-76.63-12.22l13.55-13.21c1.77-1.72,4.6-1.69,6.32.08l32.98,33.84c-7.42,6.07-13.98,12.68-19.72,19.69l-33.22-34.07c-1.72-1.77-1.69-4.6.08-6.32Zm-35,40.36c-1.72-1.77-1.69-4.6.08-6.32l13.55-13.21c1.77-1.72,4.6-1.69,6.32.08l35.99,36.92c-5.19,8.77-9.3,17.92-12.4,27.21l-43.55-44.67Zm36.93,136.45c-.02-.11-.04-.21-.06-.32-.23-1.13-.44-2.27-.64-3.41,0,0,0-.02,0-.02h0c-3.53-20.22-2.85-40.91-2.85-40.91,19.09-57.2,76.24-72.35,126.1-73.89-.91,4.84-1.41,9.81-1.41,14.86,0,14.93,4.23,29.03,11.59,41.07l-15.33,15.33c-87.55-14.48-116.68,50.61-116.68,50.61-.25-1.1-.49-2.21-.72-3.33Zm86.56,76.56l1.95.41v22.34l-2.8-.4c-28.33-4.01-49.7-28.61-49.7-57.23s21.37-53.22,49.7-57.23l2.8-.4v22.33l-1.95.41c-16.43,3.44-28.35,18.11-28.35,34.88s11.92,31.45,28.35,34.88Zm-66.13,47.95l.1.02c-1.98-8.49-2.63-15.86-2.63-15.86l-8.13-31.94-3.28-21.33,21.47,24.32-8.27,8.27c-.8.8-.8,2.1,0,2.89l6.68,6.68c.8.8,2.1.8,2.89,0l7.68-7.68,15.9,18.01s-2.88,5.29-6.6,11.93l-7.5-5.36c-1.45-1.04-3.47-.7-4.51.75l-4.42,6.19c-1.04,1.45-.7,3.47.75,4.51l7.97,5.7c.26.17.5.35.71.51.36.27.65.54.87.82-5.78,4.5-10.68,10.06-14.43,16.39-3.22-11.47-5.25-24.83-5.25-24.83Zm46.51,85.3c-5.14,0-10-1.21-14.31-3.36v92.82c0,4.28-3.47,7.75-7.75,7.75h-2.34c-4.28,0-7.75-3.47-7.75-7.75v-124.16c0-.83.13-1.63.38-2.38,2.37-15.42,15.69-27.23,31.78-27.23,12.93,0,24.05,7.65,29.16,18.66l-11.43,4.53c-3.35-6.22-9.91-10.45-17.47-10.45-10.95,0-19.82,8.88-19.82,19.82s8.88,19.82,19.82,19.82c7.56,0,14.12-4.23,17.47-10.45l11.1,4.4c-5.24,10.64-16.16,17.98-28.83,17.98Zm29.98,71.98c-6.79,0-12.3-5.51-12.3-12.3s5.51-12.3,12.3-12.3,12.3,5.51,12.3,12.3-5.51,12.3-12.3,12.3Zm6.78-46.06l.24-.04c-.15-.02-.24-.03-.24-.03,0,0,44.29-51.68,75.05-51.68,13.96,0,19.85,6.6,22.15,13.18,2.29-6.57,8.18-13.18,22.15-13.18,30.76,0,75.05,51.68,75.05,51.68,0,0-.02,0-.06,0l.37.06s-10.21,23.25-57.58,21.92c-16.51-.46-29.44-.72-39.78-.84-10.33.12-23.26.38-39.78.84-47.36,1.33-57.58-21.92-57.58-21.92Zm173.69,73.95c0,5.83-4.73,10.56-10.56,10.56h-134.67c-5.83,0-10.56-4.73-10.56-10.56v-42.67h.86c5.37.7,10.84,1.06,16.39,1.06h1.12v32.07c0,5.83,4.73,10.56,10.56,10.56h97.92c5.83,0,10.56-4.73,10.56-10.56v-32.07h3.9c4.89,0,9.72-.29,14.48-.84v42.45Zm24.64-27.9c-6.8,0-12.3-5.51-12.3-12.3s5.51-12.3,12.3-12.3,12.3,5.51,12.3,12.3-5.51,12.3-12.3,12.3Zm62.82,17.49c0,4.28-3.47,7.75-7.75,7.75h-2.34c-4.28,0-7.75-3.47-7.75-7.75v-92.82c-4.31,2.15-9.17,3.36-14.31,3.36-12.65,0-23.57-7.33-28.82-17.95l11.15-4.42c3.35,6.22,9.91,10.45,17.47,10.45,10.95,0,19.82-8.88,19.82-19.82s-8.87-19.82-19.82-19.82c-7.56,0-14.12,4.23-17.47,10.45l-11.48-4.55c5.11-11,16.22-18.64,29.15-18.64,16.08,0,29.41,11.81,31.78,27.23.24.75.37,1.55.37,2.38v124.16Zm-32.57-231.55l6.81-8.12,16.91,14.19-6.81,8.12-16.91-14.19Zm9.6,20.32l-9.18,5.3-11.04-19.12,9.18-5.3,11.04,19.12Zm-1.85-30.07l3.62-9.96,20.74,7.55-3.62,9.96-20.74-7.55Zm3.95-11.81v-10.6h22.08v10.6h-22.08Zm-.33-12.45l-3.62-9.96,20.74-7.55,3.62,9.96-20.74,7.55Zm-4.56-11.58l-6.81-8.12,16.91-14.19,6.81,8.12-16.91,14.19Zm-8.25-9.33l-9.18-5.3,11.04-19.12,9.18,5.3-11.04,19.12Zm-10.94-5.94l-10.44-1.84,3.83-21.74,10.44,1.84-3.83,21.74Zm0,67.99l3.83,21.74-10.44,1.84-3.83-21.74,10.44-1.84Zm72.65,1.86l-8.13,31.94s-.65,7.38-2.63,15.86l.1-.02s-2.03,13.37-5.25,24.83c-3.75-6.33-8.66-11.89-14.43-16.39.22-.28.51-.54.87-.82.22-.16.46-.34.71-.51l7.97-5.7c1.45-1.04,1.79-3.06.75-4.51l-4.42-6.19c-1.04-1.45-3.06-1.79-4.51-.75l-7.5,5.36c-3.72-6.64-6.6-11.93-6.6-11.93l15.9-18.01,7.68,7.68c.8.8,2.1.8,2.89,0l6.68-6.68c.8-.8.8-2.1,0-2.89l-8.27-8.27,21.47-24.32-3.28,21.33Zm6.59-80.49h0s0,.02,0,.03c-.2,1.14-.41,2.27-.64,3.4-.02.11-.04.21-.07.32-.22,1.12-.46,2.23-.72,3.33,0,0-29.04-64.88-116.26-50.68l-14.37-14.37c7.66-12.21,12.08-26.61,12.08-41.96,0-5.03-.49-9.98-1.39-14.8,49.41,1.86,105.36,17.35,124.22,73.82,0,0,.68,20.69-2.84,40.91Zm101.37,99.53l-6.48,20.55c-.66,2.1-2.9,3.27-5.01,2.61l-60.44-19.06c-2.1-.66-3.27-2.9-2.61-5.01l6.48-20.55c.66-2.1,2.91-3.27,5.01-2.61l60.44,19.06c2.1.66,3.27,2.91,2.61,5.01Z" style="fill: #ffd710;"/>
          </g>
        </g>
      </g>
    </g>
  </g>
</svg>