<?xml version="1.0" encoding="UTF-8"?>
<svg xmlns="http://www.w3.org/2000/svg" xmlns:xlink="http://www.w3.org/1999/xlink" viewBox="0 0 1080 1080">
  <defs>

    <style>
      @keyframes spin {
          0% { transform: rotate(0deg) }
          100% { transform: rotate(360deg) }
        }

        #C1, #C2, #C3, #O1, #O2, #O3 {
          animation-name: spin;
          animation-iteration-count: infinite;
          animation-fill-mode: forwards;
          
          transform-origin: center;
          transform-box: fill-box;
        }

        #C1 {
          animation-duration: 6s;
        }

        #C3 {
          animation-duration: 5s;
        }

        #C2{
          animation-duration: 7s;
        }

        #O1 {
          animation-duration: 3s;
          animation-direction: reverse;
        }

        #O2 {
          animation-duration: 5s;
          animation-direction: reverse;
        }

        #O3 {
          animation-duration: 6s;
          animation-direction: reverse;
        }

    </style>

    <clipPath id="clippath">
      <polygon id="C2-Mask" points="458.74 624.25 527.8 572 527.8 523.69 311.81 523.69 311.81 737.98 527.8 737.98 527.8 703.98 458.08 649.75 458.74 624.25" style="fill: none;"/>
    </clipPath>
    <clipPath id="clippath-1">
      <polygon id="C1-Mask" points="458.74 208.61 527.8 156.35 527.8 108.04 311.81 108.04 311.81 322.33 527.8 322.33 527.8 288.34 458.08 234.11 458.74 208.61" style="fill: none;"/>
    </clipPath>
    <clipPath id="clippath-2">
      <polygon id="C3-Mask" points="689.58 624.25 758.64 572 758.64 523.69 542.65 523.69 542.65 737.98 758.64 737.98 758.64 703.98 688.92 649.75 689.58 624.25" style="fill: none;"/>
    </clipPath>
  </defs>
  <g id="Layer_3" data-name="Layer 3">
    <rect x="-3.77" y="-10.54" width="1096.09" height="1101.17" style="fill: #470a72;"/>
  </g>
  <g id="Layer_1" data-name="Layer 1">
    <g>
      <g>
        <path d="m693.18,742.73c28.38-9.57,51.59-30.36,64.35-57.1l-5.66-4.45-54.03-42.48c-.3,21.81-18.06,39.4-39.93,39.4s-39.95-17.88-39.95-39.95,17.88-39.95,39.95-39.95,39.67,17.62,39.93,39.46l54.03-42.47,5.68-4.46c-13.01-27.28-36.9-48.37-66.04-57.68,41.72-15.74,71.39-56.03,71.39-103.26,0-50.29-33.65-92.72-79.67-106.01h58.34v-72.12h-105.97v-124.9h-72.05v175.88l.1,1.31v19.83h58.25c-46.01,13.29-79.67,55.72-79.67,106.01s32.23,90.9,76.72,105.11c-41.71,15.75-71.38,56.03-71.38,103.25s28.88,86.44,69.72,102.62c-43.64,14.71-75.07,55.97-75.07,104.58,0,60.94,49.4,110.33,110.33,110.33s110.33-49.4,110.33-110.33c0-46.59-28.88-86.44-69.72-102.62Zm-40.61-352.88c22.06,0,39.95,17.88,39.95,39.95s-17.88,39.95-39.95,39.95-39.95-17.88-39.95-39.95,17.88-39.95,39.95-39.95Zm0,495.45c-22.06,0-39.95-17.88-39.95-39.95s17.88-39.95,39.95-39.95,39.95,17.88,39.95,39.95-17.88,39.95-39.95,39.95Z" style="fill: #ff1ab3;"/>
        <path d="m534.81,432.1c0-47.72-30.3-88.36-72.7-103.74,29.73-9.09,54.12-30.38,67.33-58.05l-5.66-4.45-54.03-42.48c-.3,21.81-18.06,39.39-39.93,39.39s-39.95-17.88-39.95-39.95,17.88-39.95,39.95-39.95,39.67,17.62,39.93,39.46l54.03-42.47,5.68-4.46c-17.74-37.2-55.68-62.9-99.64-62.9-60.94,0-110.33,49.4-110.33,110.33,0,47.72,30.29,88.35,72.69,103.74-45.18,13.81-78.04,55.83-78.04,105.53s30.71,88.9,73.56,104.05c-40.04,16.55-68.22,55.98-68.22,102s28.88,86.44,69.72,102.62c-43.64,14.71-75.07,55.97-75.07,104.58,0,60.94,49.4,110.33,110.33,110.33s110.33-49.4,110.33-110.33c0-46.59-28.88-86.44-69.72-102.62,28.38-9.57,51.59-30.36,64.35-57.1l-5.66-4.45-54.03-42.48c-.3,21.81-18.06,39.4-39.93,39.4s-39.95-17.88-39.95-39.95,17.88-39.95,39.95-39.95,39.67,17.62,39.93,39.46l54.03-42.47,5.68-4.46c-12.54-26.29-35.17-46.82-62.88-56.61,40.05-16.55,68.23-55.98,68.23-102.01Zm-110.33-39.95c22.06,0,39.95,17.88,39.95,39.95s-17.88,39.95-39.95,39.95-39.95-17.88-39.95-39.95,17.88-39.95,39.95-39.95Zm0,493.13c-22.06,0-39.95-17.88-39.95-39.95s17.88-39.95,39.95-39.95,39.95,17.88,39.95,39.95-17.88,39.95-39.95,39.95Z" style="fill: #ff1ab3;"/>
      </g>
      <path id="O4" d="m558.05,846.29c0-51.53,41.92-93.45,93.45-93.45s93.45,41.92,93.45,93.45-41.92,93.45-93.45,93.45-93.45-41.92-93.45-93.45Zm150.08,0c0-31.22-25.4-56.63-56.63-56.63s-56.63,25.4-56.63,56.63,25.4,56.63,56.63,56.63,56.63-25.4,56.63-56.63Z" style="fill: #ffd710;"/>
      <g id="O1">
        <path d="m333.42,419.14c6.43-45.46,45.91-79.74,91.82-79.74s85.39,34.28,91.82,79.74l.63,4.48h-35.83l-.65-3.13c-5.51-26.36-29.05-45.49-55.97-45.49s-50.45,19.13-55.97,45.49l-.65,3.13h-35.83l.63-4.48Z" style="fill: #ffd710;"/>
        <path d="m368.62,440.74l.65,3.13c5.51,26.36,29.05,45.49,55.97,45.49s50.45-19.13,55.96-45.49l.65-3.13h35.83l-.63,4.48c-6.43,45.46-45.9,79.74-91.82,79.74s-85.39-34.28-91.82-79.74l-.63-4.48h35.83Z" style="fill: #ffd710;"/>
      </g>
      <g style="clip-path: url(#clippath);">
        <path id="C2" d="m428.23,544.45c-47.89,0-87.5,36.12-93.03,82.56h40.5c5.14-24.28,26.74-42.56,52.53-42.56,29.61,0,53.69,24.09,53.69,53.69s-24.09,53.69-53.69,53.69c-26.78,0-49.04-19.7-53.05-45.37h-40.27c4.22,47.78,44.46,85.37,93.32,85.37,51.66,0,93.69-42.03,93.69-93.69s-42.03-93.69-93.69-93.69Z" style="fill: #ffd710;"/>
      </g>
      <g style="clip-path: url(#clippath-1);">
        <path id="C1" d="m428.23,129.4c-47.89,0-87.5,36.12-93.03,82.56h40.5c5.14-24.28,26.74-42.56,52.53-42.56,29.61,0,53.69,24.09,53.69,53.69s-24.09,53.69-53.69,53.69c-26.78,0-49.04-19.7-53.05-45.37h-40.27c4.22,47.78,44.46,85.37,93.32,85.37,51.66,0,93.69-42.03,93.69-93.69s-42.03-93.69-93.69-93.69Z" style="fill: #ffd710;"/>
      </g>
      <g style="clip-path: url(#clippath-2);">
        <path id="C3" d="m659.48,544.45c-47.89,0-87.5,36.12-93.03,82.56h40.5c5.14-24.28,26.74-42.56,52.53-42.56,29.61,0,53.69,24.09,53.69,53.69s-24.09,53.69-53.69,53.69c-26.78,0-49.04-19.7-53.05-45.37h-40.27c4.22,47.78,44.46,85.37,93.32,85.37,51.66,0,93.69-42.03,93.69-93.69s-42.03-93.69-93.69-93.69Z" style="fill: #ffd710;"/>
      </g>
      <polygon id="L1" points="579.14 307.55 579.14 303.66 579.05 302.35 579.05 143.64 617.98 143.64 617.98 268.54 723.95 268.54 723.95 307.55 579.14 307.55" style="fill: #ffd710;"/>
      <g id="O2">
        <rect x="642.76" y="334.2" width="17.48" height="36.41" style="fill: #ffd710;"/>
        <rect x="642.76" y="487.57" width="17.48" height="36.41" style="fill: #ffd710;"/>
        <rect x="616.53" y="338.82" width="17.48" height="36.41" transform="translate(-84.4 235.38) rotate(-20)" style="fill: #ffd710;"/>
        <rect x="668.99" y="482.95" width="17.48" height="36.41" transform="translate(-130.53 262) rotate(-20)" style="fill: #ffd710;"/>
        <rect x="593.46" y="352.14" width="17.49" height="36.42" transform="translate(-97.16 473.77) rotate(-40)" style="fill: #ffd710;"/>
        <rect x="692.05" y="469.63" width="17.49" height="36.41" transform="translate(-149.62 564.61) rotate(-40)" style="fill: #ffd710;"/>
        <rect x="576.34" y="372.54" width="17.48" height="36.41" transform="translate(-45.83 702.12) rotate(-60)" style="fill: #ffd710;"/>
        <rect x="709.17" y="449.23" width="17.48" height="36.41" transform="translate(-45.84 855.48) rotate(-60)" style="fill: #ffd710;"/>
        <rect x="567.23" y="397.57" width="17.48" height="36.41" transform="translate(66.52 910.82) rotate(-80)" style="fill: #ffd710;"/>
        <rect x="718.28" y="424.2" width="17.48" height="36.41" transform="translate(165.09 1081.56) rotate(-80)" style="fill: #ffd710;"/>
        <rect x="557.77" y="433.67" width="36.41" height="17.48" transform="translate(-68.01 106.63) rotate(-9.99)" style="fill: #ffd710;"/>
        <rect x="708.82" y="407.03" width="36.41" height="17.48" transform="translate(-61.1 132.43) rotate(-9.99)" style="fill: #ffd710;"/>
        <rect x="566.88" y="458.69" width="36.41" height="17.48" transform="translate(-155.33 355.19) rotate(-30)" style="fill: #ffd710;"/>
        <rect x="699.71" y="382.01" width="36.41" height="17.48" transform="translate(-99.19 411.33) rotate(-30)" style="fill: #ffd710;"/>
        <rect x="584" y="479.1" width="36.42" height="17.49" transform="translate(-158.59 635.56) rotate(-50)" style="fill: #ffd710;"/>
        <rect x="682.59" y="361.6" width="36.41" height="17.49" transform="translate(-33.38 669.12) rotate(-50)" style="fill: #ffd710;"/>
        <rect x="607.06" y="492.41" width="36.41" height="17.48" transform="translate(-59.5 917.34) rotate(-70)" style="fill: #ffd710;"/>
        <rect x="659.52" y="348.29" width="36.41" height="17.48" transform="translate(110.46 871.8) rotate(-70)" style="fill: #ffd710;"/>
      </g>
      <g id="O3">
        <rect x="415.05" y="751.27" width="17.48" height="36.41" style="fill: #ffd710;"/>
        <rect x="415.05" y="904.65" width="17.48" height="36.41" style="fill: #ffd710;"/>
        <rect x="388.82" y="755.89" width="17.48" height="36.41" transform="translate(-240.78 182.65) rotate(-20)" style="fill: #ffd710;"/>
        <rect x="441.28" y="900.02" width="17.48" height="36.41" transform="translate(-286.9 209.28) rotate(-20)" style="fill: #ffd710;"/>
        <rect x="365.76" y="769.21" width="17.49" height="36.42" transform="translate(-418.54 424.98) rotate(-40)" style="fill: #ffd710;"/>
        <rect x="464.35" y="886.7" width="17.49" height="36.41" transform="translate(-470.99 515.83) rotate(-40)" style="fill: #ffd710;"/>
        <rect x="348.64" y="789.61" width="17.48" height="36.41" transform="translate(-520.91 713.47) rotate(-60)" style="fill: #ffd710;"/>
        <rect x="481.47" y="866.3" width="17.48" height="36.41" transform="translate(-520.9 866.82) rotate(-60)" style="fill: #ffd710;"/>
        <rect x="339.53" y="814.64" width="17.48" height="36.41" transform="translate(-532.39 1031.23) rotate(-80)" style="fill: #ffd710;"/>
        <rect x="490.58" y="841.27" width="17.48" height="36.41" transform="translate(-433.81 1201.97) rotate(-80)" style="fill: #ffd710;"/>
        <rect x="330.06" y="850.74" width="36.41" height="17.48" transform="translate(-143.82 73.45) rotate(-9.99)" style="fill: #ffd710;"/>
        <rect x="481.11" y="824.1" width="36.41" height="17.48" transform="translate(-136.91 99.25) rotate(-9.99)" style="fill: #ffd710;"/>
        <rect x="339.17" y="875.77" width="36.41" height="17.48" transform="translate(-394.39 297.22) rotate(-30)" style="fill: #ffd710;"/>
        <rect x="472" y="799.08" width="36.41" height="17.48" transform="translate(-338.25 353.36) rotate(-30)" style="fill: #ffd710;"/>
        <rect x="356.29" y="896.17" width="36.42" height="17.49" transform="translate(-559.42 610.11) rotate(-50)" style="fill: #ffd710;"/>
        <rect x="454.88" y="778.67" width="36.41" height="17.49" transform="translate(-434.2 643.66) rotate(-50)" style="fill: #ffd710;"/>
        <rect x="379.36" y="909.49" width="36.41" height="17.48" transform="translate(-601.26 977.8) rotate(-70)" style="fill: #ffd710;"/>
        <rect x="431.82" y="765.36" width="36.41" height="17.48" transform="translate(-431.3 932.26) rotate(-70)" style="fill: #ffd710;"/>
      </g>
    </g>
  </g>
</svg>