<?xml version="1.0" encoding="utf-8"?>
<svg id="bong_wrapper" image-rendering="auto" baseProfile="basic" version="1.1" preserveAspectRatio="xMidYMid meet" x="0px" y="0px" width="3000" height="3000" xmlns="http://www.w3.org/2000/svg" viewBox="0 0 3000 3000" xmlns:xlink="http://www.w3.org/1999/xlink">
  <circle cx="1500" cy="1500" r="1200" style="fill: #561bb2;"/>
  <g id="bong">
    <defs>
      <style>
        #bong {
          transform: translate(-1750px, -1150px) scale(1.4);
        }
        #bong_water_color {
          opacity: 0;
        }
        #DOT_HIGH ~ #bong #bong_water_color,
        #Scene-1-238-copy-2-copy-copy ~ #bong #bong_water_color {
          animation-duration: 1.5s;
          animation-name: fadeIn;
          animation-fill-mode: forwards;
        }
        @keyframes fadeIn {
          from {
            opacity: 0;
          }
          to {
            opacity: .8;
          }
        }
      </style>
      <filter id="filter7" filterUnits="objectBoundingBox" width="100%" height="100%" x="0%" y="0%">
        <feComponentTransfer in="SourceGraphic" result="colorTrans">
          <feFuncR type="linear" slope="1" intercept="0">
            <animate attributeName="intercept" repeatCount="indefinite" dur="4s" keyTimes="0;.242;.492;.742;.992;1" values="0;.6;1;1;0;0"/>
            <animate attributeName="slope" repeatCount="indefinite" dur="4s" keyTimes="0;.242;.742;.992;1" values="1;0;0;1;1"/>
          </feFuncR>
          <feFuncG type="linear" slope="1" intercept="0">
            <animate attributeName="intercept" repeatCount="indefinite" dur="4s" keyTimes="0;.242;.492;.742;1" values="0;1;.2;0;0"/>
            <animate attributeName="slope" repeatCount="indefinite" dur="4s" keyTimes="0;.242;.742;.992;1" values="1;0;0;1;1"/>
          </feFuncG>
          <feFuncB type="linear" slope="1" intercept="0">
            <animate attributeName="intercept" repeatCount="indefinite" dur="4s" keyTimes="0;.242;.492;.742;1" values="0;0;.8;0;0"/>
            <animate attributeName="slope" repeatCount="indefinite" dur="4s" keyTimes="0;.242;.742;.992;1" values="1;0;0;1;1"/>
          </feFuncB>
        </feComponentTransfer>
      </filter>
      <filter id="filter11" filterUnits="objectBoundingBox" width="100%" height="100%" x="0%" y="0%">
        <feColorMatrix type="matrix" in="SourceGraphic" result="colorTrans" values="1 0 0 0 0 0 1 0 0 0 0 0 1 0 0 0 0 0 0 0"/>
      </filter>
      <g id="bong_smoke_bubble" overflow="visible">
        <g id="bong_smoke_bubble_1">
          <g>
            <g id="Layer10_0_FILL">
              <path fill="#D7DDD8" stroke="none" d="M30.95 5.3Q25.6 0 18.1 0 10.6 0 5.3 5.3 0 10.6 0 18.1 0 25.6 5.3 30.9 10.6 36.2 18.1 36.2 25.6 36.2 30.95 30.9 36.25 25.6 36.25 18.1 36.25 10.6 30.95 5.3Z"/>
            </g>
          </g>
        </g>
      </g>
    </defs>
    <g id="bong_inner" overflow="visible">
      <g id="bong_smoke_bubblesAnim" transform="translate(2431.55 1578)">
        <use xlink:href="#bong_smoke_bubble" transform="matrix(1.829 0 0 1.829 2 103.25)">
          <animateTransform attributeName="transform" additive="replace" type="translate" repeatCount="indefinite" dur="3.1s" keyTimes="0;.183;.66699;.667;.989;1" values="35.323,136.39;35.323,76.39;35.323,76.39;35.1,216.35;35.323,136.39;35.323,136.39"/>
          <animateTransform attributeName="transform" additive="sum" type="scale" repeatCount="indefinite" dur="3.1s" keyTimes="0;.66699;.667;.989;1" values="1.829,1.829;1.829,1.829;1,1;1.829,1.829;1.829,1.829"/>
          <animateTransform attributeName="transform" additive="sum" type="translate" repeatCount="indefinite" dur="3.1s" keyTimes="0;.66699;.667;.989;1" values="-18.25,-18.15;-18.25,-18.15;-18.1,-18.1;-18.25,-18.15;-18.25,-18.15"/>
          <animate attributeName="opacity" repeatCount="indefinite" dur="3.1s" keyTimes="0;.183;.66699;.989;1" values=".75;0;0;.75;.75"/>
        </use>
        <g>
          <use xlink:href="#bong_smoke_bubble" transform="translate(20 160.75)" filter="url(#filter11)">
            <animateTransform attributeName="transform" additive="replace" type="translate" repeatCount="indefinite" dur="3.1s" keyTimes="0;.753;1" values="38.1,178.85;37.823,119.306;37.823,119.306" keySplines=".43 .038 .734 .456;.1 .1 .9 .9" calcMode="spline"/>
            <animateTransform attributeName="transform" additive="sum" type="scale" repeatCount="indefinite" dur="3.1s" keyTimes="0;.753;1" values="1,1;2.38,2.38;2.38,2.38" keySplines=".43 .038 .734 .456;.1 .1 .9 .9" calcMode="spline"/>
            <animateTransform attributeName="transform" additive="sum" type="translate" repeatCount="indefinite" dur="3.1s" keyTimes="0;.753;1" values="-18.1,-18.1;-17.95,-18.3;-17.95,-18.3" keySplines=".43 .038 .734 .456;.1 .1 .9 .9" calcMode="spline"/>
          </use>
          <animate attributeName="display" repeatCount="indefinite" dur="3.1s" keyTimes="0;.763;1" values="inline;none;none"/>
        </g>
        <g display="none">
          <use xlink:href="#bong_smoke_bubble" transform="translate(24.5 200.15)">
            <animateTransform attributeName="transform" additive="replace" type="translate" repeatCount="indefinite" dur="3.1s" keyTimes="0;.183;.43;.785;.989;1" values="42.6,218.25;42.6,218.25;42.522,194.487;42.588,122.33;42.259,58.543;42.259,58.543" keySplines=".34 .194 .674 .53;.34 .194 .674 .53;.344 .234 .677 .57;.34 .295 .673 .629;.1 .1 .9 .9" calcMode="spline"/>
            <animateTransform attributeName="transform" additive="sum" type="scale" repeatCount="indefinite" dur="3.1s" keyTimes="0;.183;.43;.785;.989;1" values="1,1;1,1;1.289,1.289;2.164,2.164;2.936,2.936;2.936,2.936" keySplines=".34 .194 .674 .53;.34 .194 .674 .53;.344 .234 .677 .57;.34 .295 .673 .629;.1 .1 .9 .9" calcMode="spline"/>
            <animateTransform attributeName="transform" additive="sum" type="translate" repeatCount="indefinite" dur="3.1s" keyTimes="0;.183;.43;.785;.989;1" values="-18.1,-18.1;-18.1,-18.1;-18.1,-18.15;-18.2,-18.15;-17.95,-18.2;-17.95,-18.2" keySplines=".34 .194 .674 .53;.34 .194 .674 .53;.344 .234 .677 .57;.34 .295 .673 .629;.1 .1 .9 .9" calcMode="spline"/>
            <animate attributeName="opacity" repeatCount="indefinite" dur="3.1s" keyTimes="0;.183;.43;.785;.989;1" values="0;0;.75;.35;0;0" keySplines=".34 .194 .674 .53;.34 .194 .674 .53;.344 .234 .677 .57;.34 .295 .673 .629;.1 .1 .9 .9" calcMode="spline"/>
          </use>
          <animate attributeName="display" repeatCount="indefinite" dur="3.1s" keyTimes="0;.183;1" values="none;inline;inline"/>
        </g>
        <g display="none">
          <use xlink:href="#bong_smoke_bubble" transform="matrix(1.345 0 0 1.345 -18.45 187.1)">
            <animateTransform attributeName="transform" additive="replace" type="translate" repeatCount="indefinite" dur="3.1s" keyTimes="0;.032;.409;.699;.946;1" values="5.882,211.534;5.882,211.534;5.905,164.65;-4.093,95.162;5.972,11.287;5.972,11.287" keySplines=".342 .175 .675 .512;.342 .175 .675 .512;.341 .267 .674 .602;.34 .293 .673 .627;.1 .1 .9 .9" calcMode="spline"/>
            <animateTransform attributeName="transform" additive="sum" type="scale" repeatCount="indefinite" dur="3.1s" keyTimes="0;.032;.409;.699;.946;1" values="1.345,1.345;1.345,1.345;1.632,1.632;2.056,2.056;2.568,2.568;2.568,2.568" keySplines=".342 .175 .675 .512;.342 .175 .675 .512;.341 .267 .674 .602;.34 .293 .673 .627;.1 .1 .9 .9" calcMode="spline"/>
            <animateTransform attributeName="transform" additive="sum" type="translate" repeatCount="indefinite" dur="3.1s" keyTimes="0;.409;.699;.946;1" values="-18.05,-18.2;-18.05,-18.2;-18.05,-18.15;-18.1,-17.95;-18.1,-17.95" keySplines=".342 .175 .675 .512;.341 .267 .674 .602;.34 .293 .673 .627;.1 .1 .9 .9" calcMode="spline"/>
            <animate attributeName="opacity" repeatCount="indefinite" dur="3.1s" keyTimes="0;.032;.409;.699;.946;1" values="0;0;.75;.41;0;0" keySplines=".342 .175 .675 .512;.342 .175 .675 .512;.341 .267 .674 .602;.34 .293 .673 .627;.1 .1 .9 .9" calcMode="spline"/>
          </use>
          <animate attributeName="display" repeatCount="indefinite" dur="3.1s" keyTimes="0;.032;.957;1" values="none;inline;none;none"/>
        </g>
        <g display="none">
          <use xlink:href="#bong_smoke_bubble" transform="translate(24.5 160)">
            <animateTransform attributeName="transform" additive="replace" type="translate" repeatCount="indefinite" dur="3.1s" keyTimes="0;.097;.312;.527;.774;1" values="42.6,178.1;42.6,178.1;42.652,149.268;42.774,100.345;42.788,18.011;42.788,18.011" keySplines=".338 .226 .671 .56;.338 .226 .671 .56;.338 .268 .671 .602;.339 .281 .672 .615;.1 .1 .9 .9" calcMode="spline"/>
            <animateTransform attributeName="transform" additive="sum" type="scale" repeatCount="indefinite" dur="3.1s" keyTimes="0;.097;.312;.527;.774;1" values="1,1;1,1;1.16,1.16;1.43,1.43;1.884,1.884;1.884,1.884" keySplines=".338 .226 .671 .56;.338 .226 .671 .56;.338 .268 .671 .602;.339 .281 .672 .615;.1 .1 .9 .9" calcMode="spline"/>
            <animateTransform attributeName="transform" additive="sum" type="translate" repeatCount="indefinite" dur="3.1s" keyTimes="0;.097;.312;.527;.774;1" values="-18.1,-18.1;-18.1,-18.1;-18.15,-18.25;-18.2,-18.25;-18.2,-18;-18.2,-18" keySplines=".338 .226 .671 .56;.338 .226 .671 .56;.338 .268 .671 .602;.339 .281 .672 .615;.1 .1 .9 .9" calcMode="spline"/>
            <animate attributeName="opacity" repeatCount="indefinite" dur="3.1s" keyTimes="0;.097;.312;.527;.774;1" values="0;0;.75;.47;0;0" keySplines=".338 .226 .671 .56;.338 .226 .671 .56;.338 .268 .671 .602;.339 .281 .672 .615;.1 .1 .9 .9" calcMode="spline"/>
          </use>
          <animate attributeName="display" repeatCount="indefinite" dur="3.1s" keyTimes="0;.097;.785;1" values="none;inline;none;none"/>
        </g>
      </g>
      <g id="bong_glass" transform="translate(1972 1662.8)" opacity=".54">
        <g>
          <g>
            <g>
              <path fill="#D3F3F7" stroke="none" d="M519.3 180Q514.2 179.45 509.05 179.2 505.65 179.05 502.2 179.05 493.55 179.05 485.15 180 463.5 182.4 443.3 190.95 438.3 193.05 433.55 195.5 432 196.3 430.5 197.1 421.3 202.05 412.9 208.2L412.85 208.25 331.05 160.25Q313.75 161 294.3 158.25 244.6 153.55 200.15 133.5 155.75 113.5 123.55 81.1 113.65 71.95 107 62.55 101.75 56.1 96.95 49.2 92.85 43.85 92.3 36.2 91.85 29.8 93.9 21.1L58.7 .45Q58.3 .35 57.85 .25L55.05 0 46.45 1.7Q45.75 1.95 45.05 2.2 28.55 8.55 14.8 31.75 14.35 32.45 13.95 33.2L.05 78.25Q.05 78.6 .05 78.95 0 79.1 .05 79.3 -.1 83.2 .1 86.6 .1 86.95 .15 87.3 .5 92.95 1.8 97L50.5 127.45Q52.85 126.85 55.2 126.5 65.3 124.1 75.5 127.45 87.75 131.5 95 142.2 95.55 142.95 96.05 143.75 102.4 151.45 105.85 162L351.55 315.65Q350.85 322.95 350.85 330.4 350.85 361.2 362.75 389.3 374.25 416.5 395.2 437.45 416.1 458.35 443.3 469.85 471.4 481.75 502.2 481.75 533 481.75 561.1 469.85 588.3 458.4 609.25 437.45 630.15 416.5 641.65 389.3 653.55 361.2 653.55 330.4 653.55 299.6 641.65 271.5 630.15 244.35 609.25 223.4 588.25 202.45 561.1 190.95 540.9 182.4 519.3 180Z"/>
            </g>
          </g>
        </g>
      </g>
      <g id="bong_water" transform="translate(2325.6 1968.9)" opacity=".5">
        <g>
          <g>
            <path fill="#2E68FF" stroke="none" d="M249.35 47.05Q252.5 42.9 272.8 17.1 274.9 14.45 275.6 12.15 276.5 9.2 274.8 7.35 273.7 6.2 271.65 5.95 270.25 5.75 267.95 6.05L236.6 9.95Q229.75 10.8 226.3 11.05 220.55 11.45 216 11 209.45 10.4 199.65 7.3 186.1 3 183.5 2.35 171.6 -.55 159.3 .15 147.05 .85 135.5 5.15 130.1 7.15 120.55 11.95 110.4 17 105.65 18.9 92.05 24.35 72.05 26.9 59.95 28.45 51.25 28.1 39.75 27.65 30.95 23.9 21.3 18.4 15.85 16.5 6 13.15 2.2 21 -1.1 27.85 .6 40.9 1.45 47.6 4.75 60.95 9.95 81.4 20.2 99.95 32.05 121.15 48.05 139.25 52.45 144.25 55.6 147.3 59.9 151.45 64 154.25 72 159.5 80.7 162.85 105.75 173.15 128.8 176.45 155.15 180.25 178.05 174.7 182.2 173.65 184.75 172.6 188.3 171.1 190.6 168.95 194.25 165.55 196.2 159.3 197.05 156.5 198.6 147.95 204.45 114.75 227.5 78.1 236.3 64.25 249.35 47.05Z"/>
          </g>
        </g>
      </g>
      <g id="bong_water_color" transform="translate(2325.65 1968.8)" opacity=".5">
        <g filter="url(#filter7)">
          <g>
            <g>
              <path fill="#2E68FF" stroke="none" d="M284 34.85Q292.45 32.4 296.3 27.55 297.6 25.9 298.1 24.05 298.65 21.95 297.85 20.35 296.75 18.5 295.05 17.45 287 11.8 275.85 9.5 275.65 8.3 274.8 7.35 273.7 6.2 271.65 5.95 270.25 5.75 267.95 6.05L252.25 8Q251.75 8.05 251.25 8.05 236.1 9.25 228.5 9.7 215.8 10.5 206.8 9.35 203.45 8.5 199.65 7.3 186.1 3 183.5 2.35 171.6 -.55 159.3 .15 147.05 .85 135.5 5.15 130.4 7.05 121.6 11.45 116.15 13.35 109.7 15.85 93.4 22.2 85.65 24.7 79.25 26 72.05 26.9 59.95 28.45 51.25 28.1 39.75 27.65 30.95 23.9 21.3 18.4 15.85 16.5 6 13.15 2.2 21 -1.1 27.85 .6 40.9 1.45 47.6 4.75 60.95 9.95 81.4 20.2 99.95 32.05 121.15 48.05 139.25 52.45 144.25 55.6 147.3 59.9 151.45 64 154.25 72 159.5 80.7 162.85 105.75 173.15 128.8 176.45 155.15 180.25 178.05 174.7 182.2 173.65 184.75 172.6 188.3 171.1 190.6 168.95 194.25 165.55 196.2 159.3 197.05 156.5 198.6 147.95 204.45 114.75 227.5 78.1 236.3 64.25 249.35 47.05 251 44.85 257.4 36.7 259.55 36.95 261.55 37.05 273.9 37.75 284 34.85Z"/>
            </g>
          </g>
        </g>
      </g>
      <g id="bong_water_surface" transform="translate(2324.9 1970.65)" opacity=".05">
        <g>
          <g>
            <path fill="#003" stroke="none" d="M290.9 24.15Q292.2 22.5 292.7 20.65 293.25 18.55 292.45 16.95 291.35 15.1 289.65 14.05 281.6 8.4 270.45 6.1 269.6 5.9 268.75 5.75 259.35 4.05 246.85 4.6 246.35 4.65 245.85 4.65 230.7 5.85 223.1 6.3 210.4 7.1 201.4 5.95 200.9 5.85 200.4 5.8 196.95 5.3 191.65 4.1 184.4 2.5 182.9 2.2 156.6 -2.85 130.5 3.6 124.6 5.1 116.2 8.05 110.75 9.95 104.3 12.45 88 18.8 80.25 21.3 79.15 21.65 78.25 21.9 45.65 31.6 24.4 20.6 19.95 18.05 17.65 16.95 13.7 14.95 10.55 14.6 5.3 13.95 2.05 17.35 -1.4 20.85 1 25.45 3 29.25 9 33.6 12.05 35.8 18.75 39.7 28.65 45.4 39.8 47.8 50.95 50.25 62.3 49.1 73.7 47.9 89.25 42.05 98.05 38.8 115.55 31.9 130.05 27.05 144.25 24.2 156.75 21.6 166.5 20.65 178.6 19.4 188.95 20.35 198.25 21.2 211.35 24.4 218.75 26.25 233.5 30.05 243.7 32.45 252 33.3 254.15 33.55 256.15 33.65 268.5 34.35 278.6 31.45 287.05 29 290.9 24.15Z"/>
          </g>
        </g>
      </g>
      <g id="bong_water_bubbles_anim" transform="translate(1 -3.95)">
        <g mask="url(#mask_bong)">
          <g id="waterBubbles" transform="matrix(1 0 0 1.002 2346.35 1996)">
            <animateTransform attributeName="transform" additive="replace" type="translate" repeatCount="indefinite" dur="1s" keyTimes="0;.967;1" values="2346.35,1995.998;2346.35,1843.398;2346.35,1843.398"/>
            <animateTransform attributeName="transform" additive="sum" type="scale" repeatCount="indefinite" dur="1s" keyTimes="0;1" values="1,1.002;1,1.002"/>
            <g>
              <use xlink:href="#bong_smoke_bubble" transform="matrix(.779 0 0 .779 93.15 14.95)" opacity=".2"/>
              <use xlink:href="#bong_smoke_bubble" transform="matrix(.779 0 0 .779 29.05 40)" opacity=".2"/>
              <use xlink:href="#bong_smoke_bubble" transform="matrix(.779 0 0 .779 100.15 90.05)" opacity=".2"/>
              <use xlink:href="#bong_smoke_bubble" transform="matrix(.779 0 0 .779 145.2 44)" opacity=".2"/>
              <use xlink:href="#bong_smoke_bubble" transform="matrix(.779 0 0 .779 184.25 14.95)" opacity=".2"/>
              <use xlink:href="#bong_smoke_bubble" transform="matrix(.529 0 0 .529 159.2 0)" opacity=".2"/>
              <use xlink:href="#bong_smoke_bubble" transform="matrix(.529 0 0 .529 81.1 62.1)" opacity=".2"/>
              <use xlink:href="#bong_smoke_bubble" transform="matrix(.529 0 0 .529 0 23)" opacity=".2"/>
              <use xlink:href="#bong_smoke_bubble" transform="matrix(.529 0 0 .529 42.1 91.1)" opacity=".2"/>
              <use xlink:href="#bong_smoke_bubble" transform="matrix(.779 0 0 .779 93.15 168.2)" opacity=".2"/>
              <use xlink:href="#bong_smoke_bubble" transform="matrix(.779 0 0 .779 29.05 193.25)" opacity=".2"/>
              <use xlink:href="#bong_smoke_bubble" transform="matrix(.779 0 0 .779 100.15 243.3)" opacity=".2"/>
              <use xlink:href="#bong_smoke_bubble" transform="matrix(.779 0 0 .779 145.2 197.25)" opacity=".2"/>
              <use xlink:href="#bong_smoke_bubble" transform="matrix(.779 0 0 .779 184.25 168.2)" opacity=".2"/>
              <use xlink:href="#bong_smoke_bubble" transform="matrix(.529 0 0 .529 159.2 153.25)" opacity=".2"/>
              <use xlink:href="#bong_smoke_bubble" transform="matrix(.529 0 0 .529 81.1 215.35)" opacity=".2"/>
              <use xlink:href="#bong_smoke_bubble" transform="matrix(.529 0 0 .529 0 176.25)" opacity=".2"/>
              <use xlink:href="#bong_smoke_bubble" transform="matrix(.529 0 0 .529 42.1 244.35)" opacity=".2"/>
            </g>
          </g>
        </g>
        <mask id="mask_bong">
          <g>
            <g>
              <g>
                <path fill="#FFF" stroke="none" d="M2571.7 2007.9Q2572.65 2006.95 2555.45 2002.9 2537.2 1998.6 2525.65 1997.9 2512.1 1997.1 2492.25 1999.65 2470.8 2002.4 2451.55 2007.9 2444.8 2009.85 2434.55 2014.05 2422.65 2018.9 2418.65 2020.3 2400.1 2026.6 2383.45 2022.9 2367.95 2019.45 2347.75 2011.4 2332.35 2005.25 2332.35 2005.9L2332.65 2010.3Q2333.15 2015.9 2334.25 2022.05 2337.75 2041.8 2345.85 2059.45 2371.9 2116 2434.5 2131.05 2460.85 2134.65 2483.3 2133.8 2503.5 2133.1 2515.6 2129.05 2514.9 2129.05 2517.45 2116.45 2520.6 2101.25 2526 2085.35 2542.75 2036.25 2571.7 2007.9Z" fill-opacity="1"/>
              </g>
            </g>
          </g>
        </mask>
      </g>
      <g>
        <g>
          <g>
            <path fill="#66FF5C" stroke="none" d="M2077.85 1824.8Q2074.400 1814.263 2068 1806.55 2073.265 1814.533 2076 1823.65L2077.85 1824.8M2079 1725.35Q2085.665 1734.732 2095.55 1743.85 2086.828 1735.063 2079 1725.35M2017.05 1665Q2017.753 1664.725 2018.4 1664.45 2017.727 1664.717 2017 1665 2001.354 1671.039 1988.15 1692.25 1987.472 1693.367 1986.8 1694.5 1986.358 1695.241 1985.95 1696 1986.370 1695.273 1986.8 1694.55 2000.55 1671.35 2017.05 1665M2303.05 1823L2302.05 1822.45Q2283.832 1822.711 2266.25 1821.05 2285.735 1823.788 2303.05 1823M2383 1869.9L2384.85 1871 2384.9 1871 2383 1869.9Z"/>
            <path fill="#707771" stroke="none" d="M1959 1773.85Q1956.021 1772.132 1953.75 1769.6 1957.864 1774.635 1964.5 1776.25 1965.262 1776.432 1966 1776.55 1962.565 1775.910 1959 1773.85M1997.1 1649.8Q1993.806 1651.983 1990.6 1654.6 1978.95 1664.05 1969.7 1678.2 1963.437 1687.780 1958.9 1698.15 1961.266 1693.356 1964.1 1688.45 1978.513 1663.487 1997.1 1649.8M2030.75 1663.25Q2030.302 1663.132 2029.8 1663.05 2030.276 1663.137 2030.7 1663.25L2037.3 1667.1Q2037.364 1667.148 2037.4 1667.15L2030.75 1663.25M2037.4 1644Q2033.55 1640.9 2029.1 1640.1 2023.55 1639.25 2018.2 1640.7 2007.225 1643.151 1997.1 1649.8 1978.513 1663.487 1964.1 1688.45 1961.266 1693.356 1958.9 1698.15 1956.726 1703.148 1954.95 1708.3 1949.4 1724.25 1947.9 1741.05 1947.2 1749.3 1948.05 1755.35 1949.15 1763.05 1952.85 1768.4 1953.289 1769.025 1953.75 1769.6 1956.021 1772.132 1959 1773.85 1962.565 1775.910 1966 1776.55L1969.75 1776.75Q1974.127 1776.475 1977.45 1773.6 1978.65 1772.55 1979.3 1771.3 1980 1769.85 1979.65 1768.55 1979.15 1767.2 1978.15 1766.15 1976.228 1763.649 1974.85 1760.45L1973.8 1759.8Q1972.500 1755.728 1972.1 1750.1 1971.964 1749.002 1971.85 1747.85 1970 1728.45 1978.8 1708.7 1982.672 1700.080 1988.15 1692.25 2001.354 1671.039 2017 1665 2017.727 1664.717 2018.4 1664.45L2027.05 1662.8 2029.8 1663.05Q2030.302 1663.132 2030.75 1663.25L2037.4 1667.15Q2043.387 1669.310 2045.7 1669.5 2047.35 1660.1 2043.25 1651.25 2041.05 1646.95 2037.4 1644M2501.25 1824.15Q2503.078 1820.587 2503.55 1815.6 2500.607 1813.946 2494.85 1812.55 2483.1 1809.7 2466.5 1809.7 2449.9 1809.7 2438.15 1812.55 2432.066 1814.025 2429.1 1815.8 2431.186 1826.662 2435.35 1833.9L2435.6 1834.4Q2435.938 1834.948 2436.25 1835.45L2436.5 1835.85Q2437.421 1837.233 2438.4 1838.45 2441.5 1842.3 2446.8 1842.5 2449.9 1842.6 2456.75 1841.6 2471.9 1840.45 2486.65 1841.05 2489.75 1841.15 2490.85 1840.2 2492.15 1838.95 2492.7 1836.95 2493.75 1834.35 2496.8 1830.5 2500.2 1826.15 2501.25 1824.15M2484.35 1778.5Q2488.357 1779.011 2492 1779.75 2492.537 1779.855 2493.05 1779.95 2489.734 1779.046 2485.8 1778.65 2485.125 1778.576 2484.35 1778.5M2450.5 1778.3Q2447.740 1778.594 2445.15 1779 2442.322 1779.614 2440 1780.65 2436.05 1782.8 2434 1783.7 2430.45 1785.3 2427.75 1784.85 2426.4 1799 2428.6 1812.7 2428.846 1814.290 2429.1 1815.8 2432.066 1814.025 2438.15 1812.55 2449.9 1809.7 2466.5 1809.7 2483.1 1809.7 2494.85 1812.55 2500.607 1813.946 2503.55 1815.6 2503.575 1815.287 2503.6 1814.95 2503.85 1811.55 2503.45 1805.15L2502.45 1789.15Q2502.45 1786.85 2501.45 1784.7 2499.85 1782.3 2497.05 1781.35 2495.178 1780.550 2493.05 1779.95 2492.537 1779.855 2492 1779.75 2488.357 1779.011 2484.35 1778.5 2480.414 1778.2 2474.05 1778.2L2457.8 1778.15Q2453.391 1778.112 2450.5 1778.3M2445.15 1779Q2447.740 1778.594 2450.5 1778.3 2449.508 1778.361 2448.7 1778.45 2446.838 1778.654 2445.15 1779Z"/>
          </g>
          <path id="Layer2_0_1_STROKES" stroke="#000" stroke-width="13" stroke-linejoin="miter" stroke-linecap="round" stroke-miterlimit="10" fill="none" d="M2503.55 1815.625Q2506.6 1817.360 2506.6 1819.4L2491.3 1842.8Q2512.893 1845.192 2533.1 1853.75 2560.25 1865.25 2581.25 1886.2 2602.15 1907.15 2613.65 1934.3 2625.55 1962.4 2625.55 1993.2 2625.55 2024 2613.65 2052.1 2602.15 2079.3 2581.25 2100.25 2560.3 2121.2 2533.1 2132.65 2505 2144.55 2474.2 2144.55 2443.4 2144.55 2415.3 2132.65 2388.1 2121.15 2367.2 2100.25 2346.25 2079.3 2334.75 2052.1 2322.85 2024 2322.85 1993.2 2322.85 1985.744 2323.55 1978.45 2325.730 1955.599 2334.75 1934.3 2346.25 1907.15 2367.2 1886.2 2375.536 1877.863 2384.85 1871.025L2383.025 1869.925 2305.8 1824.65M2427.25 1785.25Q2430.1 1781.9 2441.05 1779.75 2443.050 1779.344 2445.15 1779M2450.5 1778.3Q2457.915 1777.5 2466.5 1777.5 2476.174 1777.5 2484.35 1778.525M2493.05 1779.975Q2503.089 1782.064 2505.8 1785.25M2445.15 1779Q2447.740 1778.594 2450.5 1778.3M2484.35 1778.525Q2488.357 1779.011 2492 1779.75 2492.537 1779.855 2493.05 1779.975M2503.55 1815.625Q2500.607 1813.946 2494.85 1812.55 2483.1 1809.7 2466.5 1809.7 2449.9 1809.7 2438.15 1812.55 2432.066 1814.025 2429.125 1815.8M2435.35 1833.925L2435.625 1834.4Q2435.938 1834.948 2436.275 1835.475L2436.525 1835.875M2435.35 1833.925L2426.4 1819.4Q2426.4 1817.470 2429.125 1815.8M2426.3 1787.2L2426.3 1815.5M2384.85 1871.025L2384.9 1871Q2393.281 1864.845 2402.475 1859.9 2403.984 1859.084 2405.525 1858.3 2410.304 1855.866 2415.3 1853.75 2435.522 1845.186 2457.15 1842.775 2465.565 1841.85 2474.2 1841.85 2477.645 1841.85 2481.05 1842 2486.216 1842.228 2491.3 1842.8M2266.275 1821.05Q2285.735 1823.788 2303.05 1823.025 2317.332 1822.408 2330.15 1819.4M2506.6 1787.2L2506.6 1815.5M2440.8 1842.85L2436.525 1835.875M2037.425 1667.175L2046.525 1672.525Q2047.796 1659.841 2045.3 1652.7 2042.75 1645.55 2035.5 1641.35 2021.8 1633.4 2000.85 1647.2 1998.956 1648.450 1997.1 1649.825 1978.513 1663.487 1964.1 1688.45 1961.266 1693.356 1958.9 1698.175M1953.75 1769.6Q1956.021 1772.132 1959 1773.85 1962.565 1775.910 1966 1776.55L1969.775 1776.775M1974.875 1760.475L1973.8 1759.8Q1972.500 1755.728 1972.125 1750.1M2018.425 1664.475L2027.05 1662.8 2029.825 1663.05Q2030.302 1663.132 2030.75 1663.25L2037.425 1667.175M2018.425 1664.475Q2017.753 1664.725 2017.05 1665 2000.55 1671.35 1986.8 1694.55 1986.370 1695.273 1985.95 1696 1974.167 1718.525 1972.05 1741.05 1972.035 1741.394 1972.025 1741.725 1972.018 1741.899 1972.025 1742.075 1971.883 1746.007 1972.075 1749.375 1972.100 1749.746 1972.125 1750.1M1953.75 1769.6Q1945.626 1760.504 1946.8 1740.9 1947.990 1720.368 1958.9 1698.175M2016.3 1875.6Q2013.05 1870.35 2010.5 1866.6 2002.65 1855.35 1997.5 1842.35 1991.7 1827.05 1995.3 1814.15 1999.3 1799.45 2014.5 1792.95 2018.510 1791.224 2022.45 1790.225L1987.95 1768.65Q1977.882 1775.353 1972.05 1776.5 1970.915 1776.725 1969.775 1776.775M1974.875 1760.475L1987.95 1768.65M2079 1725.35Q2077.767 1723.634 2076.65 1721.9 2067.65 1708 2066.95 1695.2 2066.75 1691.15 2067.35 1687.75L2068.05 1685.15 2046.525 1672.525M2079 1725.35Q2085.665 1734.732 2095.55 1743.875 2130.602 1776.207 2206.15 1805.4L2217.45 1809.5Q2231.7 1814.25 2246.55 1817.5 2256.668 1819.700 2266.275 1821.05M2078 1825.25Q2077.929 1825.030 2077.85 1824.8M2068.025 1806.55Q2062.264 1799.532 2054.1 1794.85 2041.114 1787.355 2027.175 1789.3M2077.85 1824.8Q2074.400 1814.263 2068.025 1806.55M2081.2 1826.9L2322.875 1978.025"/>
        </g>
        <g>
          <path stroke="#000" stroke-width="13" stroke-linejoin="miter" stroke-linecap="round" stroke-miterlimit="10" fill="none" d="M2474.15 1841.85Q2504.95 1841.85 2533.05 1853.75 2560.2 1865.25 2581.2 1886.2 2602.1 1907.15 2613.6 1934.3 2625.5 1962.4 2625.5 1993.2 2625.5 2024 2613.6 2052.1 2602.1 2079.3 2581.2 2100.25 2560.25 2121.2 2533.05 2132.65 2504.95 2144.55 2474.15 2144.55 2443.35 2144.55 2415.25 2132.65 2388.05 2121.15 2367.15 2100.25 2346.2 2079.3 2334.7 2052.1 2322.8 2024 2322.8 1993.2 2322.8 1962.4 2334.7 1934.3 2346.2 1907.15 2367.15 1886.2 2388.1 1865.25 2415.25 1853.75 2443.35 1841.85 2474.15 1841.85Z"/>
        </g>
      </g>
      <g id="bong_glassLines" transform="translate(1991.4 1682.45)" opacity=".2">
        <g>
          <path id="Layer4_0_1_STROKES" stroke="#000" stroke-width="13" stroke-linejoin="miter" stroke-linecap="round" stroke-miterlimit="10" fill="none" d="M393.5 188.55Q394.1 188.85 403.45 192.35 412.45 195.75 413.6 196.45 427.5 204.5 427.6 226.9 427.7 249.35 414 273.05 406.25 286.55 395.8 296.55 385.7 306.2 375 310.75M467.75 345.7Q467.8 346.3 467.85 349 468.1 351.7 469.35 353.2L469.45 353.3Q477.1 357.1 483.45 352.25 490.285 347.010 490.2 334.75L487.65 159.55M463.75 160.35L467.75 344.95M353 225.55Q358.9 200.4 361.15 174.2M70.8 4.35Q52 20.75 44.4 42.8 35.5 68.6 42.25 101.45M36.75 0Q35.35 8.8 30 21.6 19.4 47.2 0 67.2"/>
        </g>
      </g>
      <g>
        <g>
          <path fill="#707771" stroke="none" d="M2533.55 2160.6Q2526.4 2156.45 2524.4 2144.85 2522.700 2135.376 2524.65 2121.95 2524.084 2125.342 2523.7 2128.65 2522.7 2137.25 2523.4 2143.6 2524.3 2151.65 2528.1 2157.3 2531.3 2162.1 2537.25 2166 2541.2 2168.65 2548.6 2172.15 2553.3 2174.4 2556.35 2175.45 2560.75 2176.9 2564.5 2177.05 2570.85 2177.3 2577.75 2173.9 2583.05 2171.25 2589.4 2166.05 2589.953 2165.594 2590.5 2165.1 2581.494 2171.827 2573.65 2174.7 2562.6 2178.75 2555.45 2174.6L2554.25 2173.8 2533.55 2160.6M2669.8 1975.6L2670.2 1975.85 2670.2 1975.85Q2670.003 1975.737 2669.8 1975.6M2670.2 1975.85L2669.8 1975.6 2669.65 1975.55Q2662.645 1971.896 2652 1975.75 2641.35 1979.65 2628.55 1990.6 2601.4 2013.8 2577.65 2054.95 2553.9 2096.1 2547.4 2131.15 2544.35 2147.7 2546.3 2158.9 2548.125 2169.489 2554.25 2173.8L2555.45 2174.6Q2562.6 2178.75 2573.65 2174.7 2581.494 2171.827 2590.5 2165.1 2602.150 2155.338 2613.75 2141.4 2622.75 2130.6 2634.65 2113.55 2649.2 2092.75 2656.9 2078.15 2676.05 2041.7 2679.55 2000.7 2679.789 1997.491 2679.8 1994.95 2679.635 1993.233 2679.35 1991.6 2677.353 1980.017 2670.2 1975.85M2606.6 1976.6Q2619.45 1965.65 2630.1 1961.75 2641.15 1957.75 2648.3 1961.85L2669.65 1975.55 2669.8 1975.6Q2670.003 1975.737 2670.2 1975.85L2670.2 1975.85Q2677.353 1980.017 2679.35 1991.6 2679.635 1993.233 2679.8 1994.95 2679.830 1993.311 2679.75 1991.95 2679.4 1987.15 2677.8 1983.6 2675.9 1979.4 2671.55 1975.6 2668.8 1973.15 2663.15 1969.4 2652.2 1962.1 2644.75 1960.1 2634.15 1957.25 2625.15 1962.5 2613.35 1969.5 2604.4 1976.6 2594.15 1984.75 2586.35 1994 2577.85 2004.1 2569.5 2017.65 2565.927 2023.418 2561.6 2031.1 2582.857 1996.919 2606.6 1976.6M2630.1 1961.75Q2619.45 1965.65 2606.6 1976.6 2582.857 1996.919 2561.6 2031.1 2558.568 2036.548 2555.15 2042.95 2542.1 2067.55 2535.4 2084.55 2528.086 2102.991 2525.05 2119.7L2524.65 2121.95Q2522.700 2135.376 2524.4 2144.85 2526.4 2156.45 2533.55 2160.6L2554.25 2173.8Q2548.125 2169.489 2546.3 2158.9 2544.35 2147.7 2547.4 2131.15 2553.9 2096.1 2577.65 2054.95 2601.4 2013.8 2628.55 1990.6 2641.35 1979.65 2652 1975.75 2662.645 1971.896 2669.65 1975.55L2648.3 1961.85Q2641.15 1957.75 2630.1 1961.75Z"/>
        </g>
        <path stroke="#000" stroke-width="13" stroke-linejoin="miter" stroke-linecap="round" stroke-miterlimit="10" fill="none" d="M2669.675 1975.55L2648.3 1961.85Q2641.15 1957.75 2630.1 1961.75 2619.45 1965.65 2606.6 1976.6 2582.857 1996.919 2561.625 2031.1M2525.05 2119.7L2524.675 2121.975Q2522.700 2135.376 2524.4 2144.85 2526.4 2156.45 2533.55 2160.6L2554.25 2173.825M2669.8 1975.625L2669.675 1975.55M2561.625 2031.1Q2558.659 2035.869 2555.75 2040.9 2532 2082.05 2525.5 2117.1 2525.253 2118.418 2525.05 2119.7M2670.225 1975.875L2669.8 1975.625"/>
        <path stroke="#000" stroke-width="12.95" stroke-linejoin="miter" stroke-linecap="round" stroke-miterlimit="10" fill="none" d="M2554.25 2173.825Q2548.125 2169.489 2546.3 2158.9 2544.35 2147.7 2547.4 2131.15 2553.9 2096.1 2577.65 2054.95 2601.4 2013.8 2628.55 1990.6 2641.35 1979.65 2652 1975.75 2662.645 1971.896 2669.675 1975.55M2669.8 1975.625Q2670.003 1975.737 2670.2 1975.85L2670.225 1975.875Q2677.353 1980.017 2679.35 1991.6 2679.635 1993.233 2679.825 1994.975 2680.853 2005.182 2678.25 2019.35 2671.75 2054.35 2648 2095.55 2624.25 2136.7 2597.1 2159.85 2593.728 2162.734 2590.5 2165.125 2581.494 2171.827 2573.65 2174.7 2562.6 2178.75 2555.45 2174.6L2554.25 2173.825"/>
      </g>
    </g>
  </g>
</svg>