<?xml version="1.0" encoding="utf-8"?>
<svg id="racing-helmet-red-wrapper" image-rendering="auto" baseProfile="basic" version="1.1" preserveAspectRatio="xMidYMid meet" x="0px" y="0px" width="1000" height="1000" xmlns="http://www.w3.org/2000/svg" viewBox="0 0 3000 3000" xmlns:xlink="http://www.w3.org/1999/xlink">
  <circle cx="1500" cy="1500" r="1200" style="fill: #561bb2;"/>
  <g class="cls-1-130"></g>
  <g id="racing_helmet">
    <defs>
      <style>
        #racing_helmet {
          transform: translate(0px, 300px);
        }

        @keyframes fadeIn {
          0% { opacity: 0; }
          50% { opacity: 0; }
          51% {opacity: 1; }
          100% { opacity: 1;}
        }
        @keyframes fadeOut {
          0% { opacity: 1; }
          50% { opacity: 1; }
          51% {opacity: 0; }
          100% { opacity: 0;}
        }

       #racing-helmet-eye-right, #racing-helmet-eye-left, #PR_visor_black, #PR-helmet-shade, #racing-helmet-teeth1, #racing-helmet-teeth2, #racing-helmet-teeth3, #racing-helmet-teeth4, #racing-helmet-teeth5, #racing-helmet-teeth6, #racing-helmet-teeth7, #racing-helmet-teeth8, #racing-helmet-teeth9, #racing-helmet-teeth10, #racing-helmet-teeth11, #PR_inner_edge, #PR_helmet_red_bg, #PR_mouth, #PR_helmet_dark_red, #PR-helmet-top {
        opacity: 0;
        }

        #helmet-stripes-ferrari, #number-ferrari, #helmet-top-ferrari, #ferrari-badge {
          opacity: 0;
        }

        #FR_SUIT ~ #racing_helmet #helmet-stripes-ferrari {
          animation-duration: 6s;
          animation-name: fadeIn;
          animation-fill-mode: forwards;
          animation-iteration-count: infinite;
          animation-delay: 1s;
        }
        #FR_SUIT ~ #racing_helmet #helmet-top-ferrari {
          animation-duration: 6s;
          animation-name: fadeIn;
          animation-fill-mode: forwards;
          animation-iteration-count: infinite;
          animation-delay: 1.1s;
        }
        #FR_SUIT ~ #racing_helmet #number-ferrari {
          animation-duration: 6s;
          animation-name: fadeIn;
          animation-fill-mode: forwards;
          animation-iteration-count: infinite;
          animation-delay: 1.2s;
        }
        #FR_SUIT ~ #racing_helmet #ferrari-badge {
          animation-duration: 6s;
          animation-name: fadeIn;
          animation-fill-mode: forwards;
          animation-iteration-count: infinite;
          animation-delay: 1.3s;
        }

        .cls-1-130 ~ #racing_helmet #racing-helmet-base {
          animation-duration: 6s;
          animation-name: fadeOut;
          animation-fill-mode: forwards;
          animation-iteration-count: infinite;
          animation-delay: 1s;
        }
        .cls-1-130 ~ #racing_helmet #racing-helmet-top {
          animation-duration: 6s;
          animation-name: fadeOut;
          animation-fill-mode: forwards;
          animation-iteration-count: infinite;
          animation-delay: 1.1s;
        }
        .cls-1-130 ~ #racing_helmet #racing-helmet-circle {
          animation-duration: 6s;
          animation-name: fadeOut;
          animation-fill-mode: forwards;
          animation-iteration-count: infinite;
          animation-delay: 1.2s;
        }
        .cls-1-130 ~ #racing_helmet #racing-helmet-visor-blue {
          animation-duration: 6s;
          animation-name: fadeOut;
          animation-fill-mode: forwards;
          animation-iteration-count: infinite;
          animation-delay: 1.3s;
        }
        .cls-1-130 ~ #racing_helmet #racing-hemlet-hole-edge {
          animation-duration: 6s;
          animation-name: fadeOut;
          animation-fill-mode: forwards;
          animation-iteration-count: infinite;
          animation-delay: 1.4s;
        }
        
        .cls-1-130 ~ #racing_helmet #racing_helmet_red,
        .cls-1-130 ~ #racing_helmet #racing_helmet_red_edge {
          animation-duration: 6s;
          animation-name: fadeOut;
          animation-fill-mode: forwards;
          animation-iteration-count: infinite;
          animation-delay: 1.5s;
        }

        .cls-1-130 ~ #racing_helmet #PR_helmet_red_bg {
          animation-duration: 6s;
          animation-name: fadeIn;
          animation-fill-mode: forwards;
          animation-iteration-count: infinite;
          animation-delay: 1.5s;
        } 
        .cls-1-130 ~ #racing_helmet #racing-helmet-teeth1 {
          animation-duration: 6s;
          animation-name: fadeIn;
          animation-fill-mode: forwards;
          animation-iteration-count: infinite;
          animation-delay: 1.6s;
        } 
        .cls-1-130 ~ #racing_helmet #racing-helmet-teeth2 {
          animation-duration: 6s;
          animation-name: fadeIn;
          animation-fill-mode: forwards;
          animation-iteration-count: infinite;
          animation-delay: 1.7s;
        } 
        .cls-1-130 ~ #racing_helmet #racing-helmet-teeth3 {
          animation-duration: 6s;
          animation-name: fadeIn;
          animation-fill-mode: forwards;
          animation-iteration-count: infinite;
          animation-delay: 1.8s;
        } 
        .cls-1-130 ~ #racing_helmet #racing-helmet-teeth4,
        .cls-1-130 ~ #racing_helmet #PR-helmet-top {
          animation-duration: 6s;
          animation-name: fadeIn;
          animation-fill-mode: forwards;
          animation-iteration-count: infinite;
          animation-delay: 1.9s;
        } 
        .cls-1-130 ~ #racing_helmet #racing-helmet-teeth5,
        .cls-1-130 ~ #racing_helmet #PR-helmet-shade,
        .cls-1-130 ~ #racing_helmet #racing-helmet-eye-right {
          animation-duration: 6s;
          animation-name: fadeIn;
          animation-fill-mode: forwards;
          animation-iteration-count: infinite;
          animation-delay: 2.0s;
        } 
        .cls-1-130 ~ #racing_helmet #racing-helmet-teeth6,
        .cls-1-130 ~ #racing_helmet #racing-helmet-eye-left {
          animation-duration: 6s;
          animation-name: fadeIn;
          animation-fill-mode: forwards;
          animation-iteration-count: infinite;
          animation-delay: 2.1s;
        } 
        .cls-1-130 ~ #racing_helmet #racing-helmet-teeth7,
        .cls-1-130 ~ #racing_helmet #PR_visor_black {
          animation-duration: 6s;
          animation-name: fadeIn;
          animation-fill-mode: forwards;
          animation-iteration-count: infinite;
          animation-delay: 2.2s;
        } 
        .cls-1-130 ~ #racing_helmet #racing-helmet-teeth8 {
          animation-duration: 6s;
          animation-name: fadeIn;
          animation-fill-mode: forwards;
          animation-iteration-count: infinite;
          animation-delay: 2.3s;
        } 
        .cls-1-130 ~ #racing_helmet #racing-helmet-teeth9,
        .cls-1-130 ~ #racing_helmet #PR_mouth {
          animation-duration: 6s;
          animation-name: fadeIn;
          animation-fill-mode: forwards;
          animation-iteration-count: infinite;
          animation-delay: 2.4s;
        }      
        .cls-1-130 ~ #racing_helmet #racing-helmet-teeth10,
        .cls-1-130 ~ #racing_helmet #PR_helmet_dark_red {
          animation-duration: 6s;
          animation-name: fadeIn;
          animation-fill-mode: forwards;
          animation-iteration-count: infinite;
          animation-delay: 2.5s;
        }  
        .cls-1-130 ~ #racing_helmet #racing-helmet-teeth11 {
          animation-duration: 6s;
          animation-name: fadeIn;
          animation-fill-mode: forwards;
          animation-iteration-count: infinite;
          animation-delay: 2.6s;
        }  

        #Layer_36, #Layer_36_copy_6, #Layer_36_copy_5, #Layer_361_copy_2, #Layer_361_copy, #Hair_Dreads_copy_2, #Hair_Dreads_copy_4, #Hair_Dreads_copy_5, #Hair_Dreads_copy_3, #Hair_Dreads, #Hair_Short1, #Hair_FlatTop_copy_2, #Hair_FlatTop_copy, #Hair_FlatTop, #Hair_B_copy_4, #Hair_B_copy_3, #Hair_B, #Hair_B_copy_2, #Hair_B_copy, #Layer_361_copy_3, #Hair_MidPart, #Hair_MidPart_copy_3, #Hair_MidPart_copy_2, #Hair_Cut, #Hair_Cut_copy_2, #Hair_Wave_copy_2, #Hair_Wave_copy, #Hair_Wave, #Hair_Dreads_copy, #Hair_Short1_copy_3, #Hair_MidPart_copy_4, #Hair_Cut_copy, #Hair_Fluf_copy_3, #Hair_Fluf_copy_2, #Hair_Fluf, #Hair_MidPart_copy_5, #Hair_Mohawk_B, #Hair_Mohawk_B_copy_3, #Hair_Mohawk_B_copy_2, #Hair_Fluf_copy, #Horns_copy_8, #Horns_copy_6, #Horns_copy_7, #Layer_36_copy_4, #Hair_Mohawk_B_copy {
              clip-path: url(#racing_helmet_hair_mask);
        }

        path[class$="-351"], path[class$="-352"], path[class$="-353"], path[class$="-354"], path[class$="-339"], path[class$="-340"], path[class$="-341"], path[class$="-342"], path[class$="-293"], path[class$="-355"], path[class$="-356"], path[class$="-357"], path[class$="-370"], path[class$="-371"], path[class$="-372"], path[class$="-327"], path[class$="-293"], path[class$="-327"] {
          clip-path: url(#racing_helmet_hair_mask);
        }

        #racing_helmet_red path {
          transition: fill 1s ease;
          transition-delay: .5s;
          fill: red;
        }

        .cls-5-128 ~ #racing_helmet #racing_helmet_red path {
          fill: #0fa53d;
        }

        .cls-5-129 ~ #racing_helmet #racing_helmet_red path {
          fill: #c54079;
        }

        .cls-5-126 ~ #racing_helmet #racing_helmet_red path {
          fill: #202620;
        }

        .cls-5-127 ~ #racing_helmet #racing_helmet_red path {
          fill: #264b91;
        }

        .cls-5-131 ~ #racing_helmet #racing_helmet_red path {
          fill: #dec522;
        }

        .cls-5-132 ~ #racing_helmet #racing_helmet_red path {
          fill: #0071b1;
        }

        .cls-5-133 ~ #racing_helmet #racing_helmet_red path {
          fill: #597c6e;
        }

        .cls-5-134 ~ #racing_helmet #racing_helmet_red path {
          fill: #4d4d4d;
        }

        #KB_SUIT ~ #racing_helmet #racing_helmet_red path {
          fill: #f1e321;
        }

    </style>

    <clipPath id="racing_helmet_hair_mask">
      <path d="M2173.35,1043.45q-30.6-101.81-97.8-189.1a651.09,651.09,0,0,0-67.55-75,708.52,708.52,0,0,0-92.2-73.85q-94-63.49-207.2-99-115.65-36.4-240.15-40-194.55-5.6-347.65,51.85Q982.15,670.4,885.1,771a605.21,605.21,0,0,0-99.9,137.8,592.08,592.08,0,0,0-42.9,90.85,561.38,561.38,0,0,0-35.2,196.8q0,130.15,14.25,214,16.24,95.4,55.45,162.7Q818,1643.9,892.2,1697.4q74.5,53.65,194.4,98.7,230.51,68.7,419.3,79.45,173.65,9.85,332.9-28.6,71.4-17.25,134.2-61.7,60.64-42.9,105.5-105.45a466.75,466.75,0,0,0,67.25-135.45q6.26-20.36,10.6-40.8a452.09,452.09,0,0,0,7.05-45.3,425.17,425.17,0,0,0,2.15-51.7l-14-3.55q-16,8.8-47,18.1-75.6,22.61-225.1,42.55-161.21,10.9-283.85,12.1-115.24,1.15-201.8-6.2L1289.37,1458c-25.41-194.16,346.94-339.84,419.47-366.3q112-.53,190.31-3.48,127.24-4.8,198-16.9,19.5-3.3,37.25-7.55a286.2,286.2,0,0,0,33.9-10,10,10,0,0,0,1.7-.9,11.28,11.28,0,0,0,1.8-1.55,8.8,8.8,0,0,0,1.4-2.6A8.14,8.14,0,0,0,2173.35,1043.45Z" style="fill: #13ff00"/>
    </clipPath> 

  </defs>
  
    
    <g id="racing_helmet_red" overflow="visible">
      <g>
        <path fill="#FF1D25" stroke="none" d="M1915.8 705.55Q1821.75 642.05 1708.6 606.5 1592.95 570.1 1468.45 566.5 1273.9 560.9 1120.8 618.35 982.15 670.4 885.1 770.95 797 862.25 751.2 984.45 708.85 1097.5 708.85 1219 708.85 1364.45 736.65 1460.2 769 1571.7 846.3 1647.45 929.9 1729.35 1077.15 1781.3 1230.7 1835.5 1468.45 1862.55 1743.35 1893.85 1913.15 1808.75 2107.25 1711.4 2168.1 1460.45 2168.708 1457.942 2169.05 1455.4 2076.788 1502.122 1935.9 1529.85 1786.25 1559.35 1620.3 1559.35 1492.7 1559.35 1366.2 1532.45 1241 1505.8 1141.85 1458.2 1039.2 1408.9 984.4 1346.45 925.6 1279.5 930.8 1206.95 935.65 1139.4 990.7 1108.75 1038.75 1082 1137.85 1077.8 1179.4 1076.05 1238.35 1077.7 1278 1078.85 1353.8 1082.6 1443.95 1087.15 1481.9 1088.6 1557.75 1091.6 1620.3 1091.75 1791.55 1092.25 1899.15 1088.2 2026.4 1083.4 2097.15 1071.3 2116.65 1068 2134.4 1063.75 2155 1058.8 2168.3 1053.75 2169.15 1053.4 2170 1052.85 2172.3 1051.3 2173.2 1048.7 2174.15 1046.1 2173.35 1043.45 2142.75 941.65 2075.55 854.35 2010 769.15 1915.8 705.55Z"/>
      </g>
      <path stroke="#000" stroke-width="13" stroke-linejoin="miter" stroke-linecap="butt" stroke-miterlimit="10" fill="none" d="M2169.05 1455.425Q2076.788 1502.122 1935.9 1529.85 1786.25 1559.35 1620.3 1559.35 1492.7 1559.35 1366.2 1532.45 1241 1505.8 1141.85 1458.2 1039.2 1408.9 984.4 1346.45 925.6 1279.5 930.8 1206.95 935.65 1139.4 990.7 1108.75 1038.75 1082 1137.85 1077.8 1179.4 1076.05 1238.35 1077.7 1278 1078.85 1353.8 1082.6 1443.95 1087.15 1481.9 1088.6 1557.75 1091.6 1620.3 1091.75 1791.55 1092.25 1899.15 1088.2 2026.4 1083.4 2097.15 1071.3 2116.65 1068 2134.4 1063.75 2155 1058.8 2168.3 1053.75 2169.15 1053.4 2170 1052.85 2172.3 1051.3 2173.2 1048.7 2174.15 1046.1 2173.35 1043.45 2142.75 941.65 2075.55 854.35 2010 769.15 1915.8 705.55 1821.75 642.05 1708.6 606.5 1592.95 570.1 1468.45 566.5 1273.9 560.9 1120.8 618.35 982.15 670.4 885.1 770.95 797 862.25 751.2 984.45 708.85 1097.5 708.85 1219 708.85 1364.45 736.65 1460.2 769 1571.7 846.3 1647.45 929.9 1729.35 1077.15 1781.3 1230.7 1835.5 1468.45 1862.55 1743.35 1893.85 1913.15 1808.75 2107.25 1711.4 2168.1 1460.45 2168.708 1457.942 2169.05 1455.425 2170.103 1447.793 2168.75 1440.05 2166.95 1429.8 2161.2 1421.15 2153.25 1411.5 2141.75 1381.35L2131.85 1353.15"/>
    </g>
    <g id="helmet-stripes-ferrari" transform="translate(709.6 718.45)">
      <g>
        <g>
          <g>
            <path fill="#FFF" stroke="none" d="M492.05 861.85L506.35 875.4Q537.25 903.85 571.05 929.2 574.75 931.95 578.4 934.8L631.6 970.65 729.55 1022.55Q730.4 1022.9 731.2 1023.25L731.15 1023.25 746.45 1025.35Q765.8 1027.85 785.8 1029.9 849.9 1036.35 897.2 1035.65 877.3 1028.6 844.25 1014.8 778.1 987.2 712.4 953.5 505.75 847.55 378.85 721.75 421.65 789.15 475.9 845.65L492.05 861.85Z"/>
            <path fill="#232323" stroke="none" d="M232.65 32.55Q234.65 11.65 236.5 0 191.85 32 155.4 71.4 114.4 118.25 83.45 173.1 53.8 225.55 34.25 283.6 -4.7 406.5 .65 554.15 3.65 637.9 18.8 707.1L20.2 713.05Q145.4 816.85 284.95 888.9 396.6 946.55 512.3 981.4 594.9 1006.25 671.35 1017.25 709.5 1022.75 731.15 1023.25L731.2 1023.25Q730.4 1022.9 729.55 1022.55L631.6 970.65 578.4 934.8Q543.05 909.15 511.1 879.9 508.7 877.7 506.35 875.4L492.05 861.85 475.9 845.65Q421.65 789.15 378.85 721.75 372.05 711.05 365.55 700.1 293.25 654.45 256.2 601.5 216.85 545.15 221.1 485.5 224.65 436.4 254.05 407.25 224.75 269.2 227.7 120.8 228.65 74.4 232.65 32.55Z"/>
          </g>
        </g>
      </g>
      <g>
        <g>
          <g>
            <path fill="#FFF" stroke="none" d="M1403.05 878.65Q1388.95 904.05 1337.55 951.5 1311.85 975.2 1288.95 993.85L1336.4 982.55Q1359.45 954.7 1383.55 913.9 1395.6 893.5 1403.05 878.65Z"/>
          </g>
        </g>
      </g>
    </g>
    <g>
      <g id="racing-helmet-base" transform="translate(726.85 1428.7)">
        <g>
              <path fill="#666" stroke="none" d="M1317.85 277.2Q1317.05 277.35 1316.3 277.6 1305.15 281.1 1285.55 286.15 1269.8 290.25 1253.15 294 1242.9 296.55 1234.4 298.5 1186.95 309.55 1146.15 315.3 1071.8 325.45 1015.15 329.3 948.3 333.7 879.65 331.8 814 330 744.15 322.3 708.8 318.85 665.4 310.45 585.5 297.15 508.7 275.15 449.9 260.4 394.15 237.3 390.05 236.15 384.15 233.2 382.55 232.4 381.25 231.75 193 157.05 33.25 27.75L4.05 6.5Q3.55 6.15 3.05 5.8 24.4 95.1 70.7 161.3 120.55 232.55 203.95 284.3 291.25 338.45 421.35 375.05 555.1 412.65 741.6 433.9 932.6 455.65 1072.45 421.35 1227.4 383.3 1321.6 276.15 1319.7 276.65 1317.85 277.2Z"/>
        </g>
        <path stroke="#000" stroke-width="13" stroke-linejoin="miter" stroke-linecap="butt" stroke-miterlimit="10" fill="none" d="M1317.85 277.2Q1317.05 277.35 1316.3 277.6 1305.15 281.1 1285.55 286.15 1269.8 290.25 1253.15 294M665.4 310.45Q585.5 297.15 508.7 275.15M381.25 231.75Q193 157.05 33.25 27.75M1253.15 294Q1250.95 294.5 1248.8 295 1223.1 300.7 1195.4 305.7 1041.1 333.65 881.65 330.35 771.5 328.05 666.6 310.65 666 310.55 665.4 310.45M508.7 275.15Q508.3 275 507.95 274.9 482.05 267.5 456.5 259.05 418.4 246.5 381.4 231.8 381.3 231.75 381.25 231.75M33.25 27.75Q17.5 15 2.1 1.8 1.05 .9 0 0"/>
      </g>
    </g>
    <g id="number-ferrari" transform="translate(712.2 799.45)">
      <g>
        <g>
          <g>
            <path fill="#FFF" stroke="none" d="M153.85 .05Q137.8 18.8 116.45 50.25 73.7 113.25 47.1 177.1 37.7 241.3 33.85 286.55 28.65 347.2 34.25 365.9L1.1 384.95Q-1.05 420.9 1 452.35 2.05 468.05 3.5 476.55L36.7 499.95 95.3 458.95Q93.45 447 91.95 425.75 89 383.2 90.65 336.65 96 187.8 146.05 54.75L153.85 .05M294.6 61Q307.15 29.6 315.95 11.8L239.8 2.05 189 29.35Q178.05 42.8 166.8 67.7 161.2 80.15 157.75 89.9L194.85 95.75Q142.4 247.1 132.15 417.95 128.95 471.35 130.35 520.3 131.05 544.75 132.4 558.55L216.35 593.7Q202.25 491.65 214.6 377.55 224.5 286.25 250.8 191.45 269.55 123.7 294.6 61Z"/>
          </g>
        </g>
      </g>
    </g>
    <g>
      <g id="racing-helmet-top" transform="translate(1180.75 566.05)">
        <g>
          <path fill="#666" stroke="none" d="M659 269.3Q671.9 267.8 684.6 265.9 690.25 265.1 693.7 260.45 694.75 259.1 695.4 257.65 696.3 254.55 695.75 251.15 695.35 248.6 694.2 246.4 661.45 183.9 644.45 152.95 617.45 103.85 593.8 68.55 589.3 64.1 585.1 60.8 517.35 33.9 444.45 18.8 367.45 2.8 287.65 .5 134.9 -3.9 7.55 30.65L7.6 30.65Q7.85 30.7 8.1 30.8L21.4 34.55Q26.15 35.9 30.35 37.1L52.4 43.45Q52.85 43.6 53.25 43.7 78.45 51.3 98.25 58.95 143.8 77.8 174.15 92.2 215.45 111.85 247.35 131.85 321.3 178.2 361.3 237.5 363.4 240.1 365.45 242.75 373.45 253 384.7 259.4 396 265.8 408.9 267.45 452.75 273.15 499.55 275.05L659 269.3Z"/>
        </g>
        <path stroke="#000" stroke-width="13" stroke-linejoin="miter" stroke-linecap="butt" stroke-miterlimit="10" fill="none" d="M659 269.3Q671.9 267.8 684.6 265.9 690.25 265.1 693.7 260.45 694.75 259.1 695.4 257.65M593.8 68.55Q589.3 64.1 585.1 60.8M361.3 237.5Q363.4 240.1 365.45 242.75 373.45 253 384.7 259.4 396 265.8 408.9 267.45 452.75 273.15 499.55 275.05M659 269.3Q592.6 277.15 520.9 275.7 510.15 275.45 499.55 275.05M695.4 257.65Q696.8 254.35 696.35 250.65 696.35 250.4 696.3 250.2 695.95 248.25 695.3 246.8 672.5 193.5 649.15 150.25 618.2 93 594.05 68.8 593.9 68.65 593.8 68.55M0 32.75L10.5 35.15Q24.1 38.4 39.4 42.85 88.3 56.95 135.65 77.15 201.85 105.45 255.4 141.8 319.1 185.05 361.3 237.5"/>
      </g>
    </g>
    <g>
      <g id="racing-helmet-circle" transform="translate(828.45 1004.25)">
        <g>
          <path fill="#666" stroke="none" d="M79.7 25.5Q69.8 2.25 52.2 .2 34.6 -1.9 19.6 18.45 4.6 38.8 .95 69.65 -2.65 100.5 7.25 123.75 17.1 147 34.7 149.05 52.3 151.15 67.3 130.8 82.3 110.5 85.95 79.6 89.6 48.8 79.7 25.5Z"/>
        </g>
        <path stroke="#000" stroke-width="13" stroke-linejoin="miter" stroke-linecap="butt" stroke-miterlimit="10" fill="none" d="M.95 69.65Q4.6 38.8 19.6 18.45 34.6 -1.9 52.2 .2 69.8 2.25 79.7 25.5 89.6 48.8 85.95 79.6 82.3 110.5 67.3 130.8 52.3 151.15 34.7 149.05 17.1 147 7.25 123.75 -2.65 100.5 .95 69.65Z"/>
      </g>
    </g>
    <g>
      <g id="racing-hemlet-hole-edge" transform="translate(928.1 1062.2)">
        <g>
          <path fill="#666" stroke="none" d="M1057.1 481.75Q1061.3 470.4 1064.5 459.65 1011.15 473.85 959.75 480.7L1001.4 587.75Q1015.7 562.5 1031.15 533.35 1047.65 502.2 1056.95 482 1057 481.85 1057.1 481.75M834.55 492.85Q769.8 497.45 704.05 496.95L842.55 609.4 834.55 492.85M959.75 480.7Q930.75 484.6 902.35 486.15 879.45 489.4 840.85 492.35 837.7 492.6 834.55 492.85L842.55 609.4 854.2 609.15Q869.45 608.5 886.9 606.85 942.95 601.6 1001.35 587.8 1001.35 587.75 1001.4 587.75L959.75 480.7M1183.4 325.9L1194.6 342.4Q1198.75 352.6 1194.65 362.8 1190.5 373 1180.4 377.4 1175 379.75 1169.6 382 1169.35 382.65 1169.2 383.15 1168.25 385.9 1166.75 387.6 1165.25 389.35 1162.75 390.75 1161.05 391.65 1158 392.85 1076.5 424.95 970.05 438.1 896.65 447.15 775.35 449.85 725.15 451 692.85 450.7 647.75 450.35 610.5 447.35 610.65 446.35 610.7 445.9 603.05 444.85 595.4 443.8 533.45 438.15 472.35 427.1 346.65 404.45 248.75 363.3 146.3 320.25 92.05 264.2 83.8 255.7 76.85 247.05 59.95 227.35 50.9 209.1 39.75 186.2 37.5 160.9 35.2 135.55 42.15 111.1 48.75 88.15 64.8 68.35 73.75 57.35 98.7 33.95 97.4 33.6 96.05 33.35 93.75 34.15 91.55 35 44.7 52.7 21.35 84.4 5.2 109.6 2.65 144.8 -2.5 217.35 56.25 284.25 87.15 319.45 133.2 350.45 136.9 352.75 140.65 355 171.75 373.65 220.3 395.95 278.1 422.5 330 441.35 342.95 445.7 356.35 449.75 364.1 452.05 372 454.25 403.45 462.95 437 470.05 437.5 470.15 438.05 470.25 438.45 470.35 438.85 470.45 441.75 471.05 444.65 471.65 456.65 474.1 468.8 476.3 472.85 476.95 476.95 477.65 526.5 486.2 579.3 490.95 580.4 490.95 581.45 490.95L581.4 491.15Q631.6 495.6 684.75 496.65 694.4 496.85 704.05 496.95 769.8 497.45 834.55 492.85L834.45 491.75 834.55 492.85Q837.7 492.6 840.85 492.35 879.45 489.4 902.35 486.15 930.75 484.6 959.75 480.7L958.4 477.25 959.75 480.7Q1011.15 473.85 1064.5 459.65 1065.25 457.25 1065.9 454.85 1117.25 442.2 1161.7 426.5 1182.65 419.1 1201.65 411.2L1224.35 399.35Q1229.95 396.45 1232.8 394.1 1237.05 390.6 1238.2 386.35 1238.3 386 1238.35 385.7L1221.15 338.65Q1216.9 330.15 1214.55 324.9 1208.1 310.7 1206 298.9 1195.6 312.7 1182.8 324.15 1183.25 324.2 1183.6 323.95 1183.85 323.7 1184 323.35 1183.7 324.5 1183.4 325.9M1194.6 342.4L1183.4 325.9Q1181.35 334.5 1177.3 350.7 1172.7 368.9 1170.6 378.15 1170 380.55 1169.6 382 1175 379.75 1180.4 377.4 1190.5 373 1194.65 362.8 1198.75 352.6 1194.6 342.4M1199.8 3.95Q1198.65 3.6 1197.35 3.6 1194.2 4.3 1190.95 5 1186.5 6.85 1184.15 7.65 1180.8 8.8 1176.45 9.4 1173.9 9.75 1168.6 10.1 1165.45 10.3 1161.95 11.4 1158.45 12.45 1155.25 12.65 1156.7 16.7 1160.2 25 1163.7 33.25 1165.1 37.3 1166.2 40.3 1167.9 46.2 1169.7 51.05 1173.1 53.25 1175.85 55.05 1180.3 59.3 1185.7 64.55 1185.2 66.3 1194.7 35.45 1199.8 3.95Z"/>
        </g>
        <path stroke="#000" stroke-width="13" stroke-linejoin="miter" stroke-linecap="butt" stroke-miterlimit="10" fill="none" d="M96.05 33.35Q105.9 29.85 116.65 27 118.5 26.5 120.4 26 176.25 11.85 256.15 14L343.15 18.15Q414.3 21.3 481.9 23.5 505.35 24.5 525.5 25.25 531.4 25.5 537.05 25.7 542.75 25.8 548.5 26 568.95 26.65 588.55 27.45 639.45 29 684.25 29.6 685.2 29.6 686.25 29.6 891.45 33.65 980.35 26L1204.4 0Q1204.15 1.05 1203.9 2.1 1192.8 46.5 1189.2 62.55L1187.45 71.7M1200.35 2.95L1189.2 62.55M1169.6 382Q1175 379.75 1180.4 377.4 1190.5 373 1194.65 362.8 1198.75 352.6 1194.6 342.4L1183.4 325.9M595.4 443.8Q533.45 438.15 472.35 427.1 346.65 404.45 248.75 363.3 146.3 320.25 92.05 264.2 83.8 255.7 76.85 247.05M96.05 33.35Q93.75 34.15 91.55 35 44.7 52.7 21.35 84.4M330 441.35Q342.95 445.7 356.35 449.75 364.1 452.05 372 454.25 403.45 462.95 437 470.05M438.85 470.45Q441.75 471.05 444.65 471.65 456.65 474.1 468.8 476.3 472.85 476.95 476.95 477.65 526.5 486.2 579.3 490.95M581.4 491.15Q631.6 495.6 684.75 496.65 694.4 496.85 704.05 496.95 769.8 497.45 834.55 492.85L834.45 491.75M1183.4 325.9L1182.35 324.35M958.4 477.25L959.75 480.7Q1011.15 473.85 1064.5 459.65 1065.5 459.4 1066.5 459.15 1067.2 456.95 1067.75 455.1M1001.4 587.75L959.75 480.7Q930.75 484.6 902.35 486.15 879.45 489.4 840.85 492.35 837.7 492.6 834.55 492.85L842.55 609.4 854.2 609.15Q869.45 608.5 886.9 606.85 942.95 601.6 1001.35 587.8 1001.35 587.75 1001.4 587.75 1015.7 562.5 1031.15 533.35 1047.65 502.2 1056.95 482 1057 481.85 1057.1 481.75M704.05 496.95L842.55 609.4M1240.4 394.1Q1230.65 399.25 1213.2 407.1 1178.25 422.75 1139.65 436.4 1102.65 449.45 1066.5 459.15 1063.5 467.8 1057.1 481.75M595.4 443.8Q660.25 449.7 726.1 449.7 882.55 449.7 990.9 431.95 1087.55 416.1 1169.6 382M120.4 26Q120.1 26.2 119.75 26.3 88.9 40.8 66.1 69.95 41.4 101.65 38.8 135.7 34.4 194.25 76.85 247.05M330 441.35Q293.4 429.05 260.15 414.1 244.25 408.75 220.4 398.2 200.8 389.55 182.55 380.15 156.25 366.55 132.65 351.35 76.6 315.25 44.1 274.85 3.5 224.4 2.1 170.05 -.55 159.8 .15 144.55 1.55 114.05 18.1 89.05 19.65 86.7 21.35 84.4M581.4 491.15Q580.35 491.05 579.3 490.95M438.85 470.45Q437.9 470.25 437 470.05"/>
      </g>
    </g>
    <g id="racing_helmet_red_edge">
      <g>
        <path stroke="#000" stroke-width="13" stroke-linejoin="miter" stroke-linecap="butt" stroke-miterlimit="10" fill="none" d="M2169.1 1455.5Q2076.85 1502.15 1935.95 1529.9 1786.3 1559.4 1620.35 1559.4 1492.75 1559.4 1366.25 1532.5 1241.05 1505.85 1141.9 1458.25 1039.25 1408.95 984.45 1346.5 925.65 1279.55 930.85 1207 935.7 1139.45 990.75 1108.8 1038.8 1082.05 1137.9 1077.85 1179.45 1076.1 1238.4 1077.75 1278.05 1078.9 1353.85 1082.65 1444 1087.2 1481.95 1088.65 1557.8 1091.65 1620.35 1091.8 1791.6 1092.3 1899.2 1088.25 2026.45 1083.45 2097.2 1071.35 2116.7 1068.05 2134.45 1063.8 2155.05 1058.85 2168.35 1053.8 2169.2 1053.45 2170.05 1052.9 2172.35 1051.35 2173.25 1048.75 2174.2 1046.15 2173.4 1043.5 2142.8 941.7 2075.6 854.4 2010.05 769.2 1915.85 705.6 1821.8 642.1 1708.65 606.55 1593 570.15 1468.5 566.55 1273.95 560.95 1120.85 618.4 982.2 670.45 885.15 771 797.05 862.3 751.25 984.5 708.9 1097.55 708.9 1219.05 708.9 1364.5 736.7 1460.25 769.05 1571.75 846.35 1647.5 929.95 1729.4 1077.2 1781.35 1230.75 1835.55 1468.5 1862.6 1743.4 1893.9 1913.2 1808.8 2107.3 1711.45 2168.15 1460.5 2168.75 1458 2169.1 1455.5 2170.15 1447.85 2168.8 1440.1 2167 1429.85 2161.25 1421.2 2153.3 1411.55 2141.8 1381.4L2131.9 1353.2"/>
      </g>
    </g>
    
    <g id="racing-helmet-shade" transform="translate(708.2 566.05)">
      <g>
      <path fill="#000" stroke="none" d="M735.8 10Q747.75 7.25 759.8 3 762.8 1.9 767.1 1.45 769.25 1.25 774.95 1.1L760.25 .55Q612.25 -3.7 488.15 28.6 484 27.4 479.45 26.15 357.15 59.3 261.7 127.05 173.65 189.55 112.75 278.3 56.25 360.6 27.3 459.05 0 551.85 0 648.45 0 793.9 27.8 889.65 60.15 1001.15 137.45 1076.9 221.05 1158.8 368.3 1210.75 521.85 1264.95 759.6 1292 916.05 1309.85 1038.05 1290.05 1171.2 1268.5 1264.6 1201.95 1206.3 1216.3 1147.15 1221.45 1144.15 1221.45 1137.65 1222.45 1131.15 1223.45 1128.15 1223.45 974.5 1230.95 823.4 1217.35 672.5 1203.75 517.15 1168.45 447.65 1152.9 394.8 1134.45 332.8 1112.8 279.15 1082.45 212.15 1043.9 169.75 979.9 130.9 921.15 115.05 844.7 100.35 773.95 106.6 694.9 112.5 620.1 136.15 548.45 136.65 546.95 138.15 543.45 139.65 539.95 140.15 538.45 174.6 423.6 251.3 323.2 320.65 232.35 426.15 151.45 464.3 122.65 500.15 100.15 536.55 77.3 572.45 59.75L577.85 61.95Q653.25 25.55 735.8 10Z" fill-opacity=".13"/>
      </g>
    </g>
    <g id="PR_helmet_red_bg" transform="translate(707.1 566)">
      <g>
          <path fill="#666" stroke="none" d="M1408.1 828.85Q1398.6 834.05 1390.1 837.85 1366.7 848.35 1334.15 855.85 1246.85 875.8 1061.45 885.6 876 895.4 755.55 887.05 635.1 878.7 582.4 870.55L541.2 862.35Q533.7 859.35 511.95 849.35 468.4 829.35 399.9 799.3 331.35 769.25 286.45 733.55 241.5 697.8 232.2 650.9 222.85 604 245.35 556.5 247.8 551.3 250.55 546.2 197.3 572.6 201.5 637.45 206.15 710.15 262.5 751.05 318.85 791.95 397.2 827.05 475.55 862.15 517.95 884.85L686.7 903.55Q773.25 910.9 888.5 909.75 1011.15 908.55 1172.35 897.65 1321.85 877.7 1397.45 855.1 1428.45 845.8 1444.45 837L1409.45 828.15Q1408.75 828.5 1408.1 828.85Z"/>
          <path fill="#FF1D25" stroke="none" d="M1368.45 288.35Q1337.8 248.5 1300.9 213.4 1258.85 173.4 1208.7 139.55 1114.65 76.05 1001.5 40.5 885.85 4.1 761.35 .5 566.8 -5.1 413.7 52.35 275.05 104.4 178 204.95 118.35 266.75 78.1 342.75 52.55 386.85 35.2 433.6 0 528.5 0 630.4 0 760.55 14.25 844.45 30.5 939.85 69.7 1007.15 110.9 1077.9 185.1 1131.4 259.6 1185.05 379.5 1230.1 610 1298.8 798.8 1309.55 972.45 1319.4 1131.7 1280.95 1203.1 1263.7 1265.9 1219.25 1326.55 1176.35 1371.4 1113.8 1416.2 1051.3 1438.65 978.35 1444.9 958 1449.25 937.55 1453.95 914.95 1456.3 892.25 1458.95 866.45 1458.45 840.55L1444.45 837Q1428.45 845.8 1397.45 855.1 1321.85 877.7 1172.35 897.65 1011.15 908.55 888.5 909.75 773.25 910.9 686.7 903.55L517.95 884.85Q475.55 862.15 397.2 827.05 318.85 791.95 262.5 751.05 206.15 710.15 201.5 637.45 197.3 572.6 250.55 546.2 256.95 543 264.25 540.4 331.65 516 430.75 511.8 472.3 510.05 531.25 511.7 570.9 512.85 646.7 516.6 736.85 521.15 774.8 522.6 850.65 525.6 913.2 525.75 1084.45 526.25 1192.05 522.2 1319.3 517.4 1390.05 505.3 1409.55 502 1427.3 497.75 1447.9 492.8 1461.2 487.75 1462.05 487.4 1462.9 486.85 1463.9 486.15 1464.7 485.3 1465.6 484.15 1466.1 482.7 1467.05 480.1 1466.25 477.45 1435.65 375.65 1368.45 288.35Z"/>
      </g>
      <path stroke="#000" stroke-width="13" stroke-linejoin="miter" stroke-linecap="butt" stroke-miterlimit="10" fill="none" d="M1300.9 213.4Q1301.1 212.8 1301.3 212.2M78.1 342.75Q52.55 386.85 35.2 433.6 0 528.5 0 630.4 0 760.55 14.25 844.45 30.5 939.85 69.7 1007.15 110.9 1077.9 185.1 1131.4 259.6 1185.05 379.5 1230.1 610 1298.8 798.8 1309.55 972.45 1319.4 1131.7 1280.95 1203.1 1263.7 1265.9 1219.25 1326.55 1176.35 1371.4 1113.8 1416.2 1051.3 1438.65 978.35 1444.9 958 1449.25 937.55 1453.95 914.95 1456.3 892.25 1458.95 866.45 1458.45 840.55L1444.45 837Q1428.45 845.8 1397.45 855.1 1321.85 877.7 1172.35 897.65 1011.15 908.55 888.5 909.75 773.25 910.9 686.7 903.55L517.95 884.85M250.55 546.2Q247.8 551.3 245.35 556.5 222.85 604 232.2 650.9 241.5 697.8 286.45 733.55 331.35 769.25 399.9 799.3 468.4 829.35 511.95 849.35 533.7 859.35 541.2 862.35L582.4 870.55Q635.1 878.7 755.55 887.05 876 895.4 1061.45 885.6 1246.85 875.8 1334.15 855.85 1366.7 848.35 1390.1 837.85 1398.6 834.05 1408.1 828.85 1408.75 828.5 1409.45 828.15L1403.4 828.3M1444.45 837L1409.45 828.15"/>
      <path stroke="#000" stroke-width="13" stroke-linejoin="miter" stroke-linecap="butt" stroke-miterlimit="10" fill="none" d="M250.55 546.2Q256.95 543 264.25 540.4 331.65 516 430.75 511.8 472.3 510.05 531.25 511.7 570.9 512.85 646.7 516.6 736.85 521.15 774.8 522.6 850.65 525.6 913.2 525.75 1084.45 526.25 1192.05 522.2 1319.3 517.4 1390.05 505.3 1409.55 502 1427.3 497.75 1447.9 492.8 1461.2 487.75 1462.05 487.4 1462.9 486.85 1463.9 486.15 1464.7 485.3 1465.6 484.15 1466.1 482.7 1467.05 480.1 1466.25 477.45 1435.65 375.65 1368.45 288.35 1337.8 248.5 1300.9 213.4 1258.85 173.4 1208.7 139.55 1114.65 76.05 1001.5 40.5 885.85 4.1 761.35 .5 566.8 -5.1 413.7 52.35 275.05 104.4 178 204.95 118.35 266.75 78.1 342.75M517.95 884.85Q475.55 862.15 397.2 827.05 318.85 791.95 262.5 751.05 206.15 710.15 201.5 637.45 197.3 572.6 250.55 546.2"/>
    </g>
    <g id="PR_helmet_dark_red" transform="translate(707.1 566)">
      <g>
        <path fill="#BF271E" stroke="none" d="M1368.45 288.35Q1337.8 248.5 1300.9 213.4 1258.85 173.4 1208.7 139.55 1114.65 76.05 1001.5 40.5 885.85 4.1 761.35 .5 566.8 -5.1 413.7 52.35 275.05 104.4 178 204.95 118.35 266.75 78.1 342.75 52.55 386.85 35.2 433.6 0 528.5 0 630.4 0 760.55 14.25 844.45 30.5 939.85 69.7 1007.15 110.9 1077.9 185.1 1131.4 259.6 1185.05 379.5 1230.1 610 1298.8 798.8 1309.55 972.45 1319.4 1131.7 1280.95 1203.1 1263.7 1265.9 1219.25 1326.55 1176.35 1371.4 1113.8 1416.2 1051.3 1438.65 978.35 1444.9 958 1449.25 937.55 1453.95 914.95 1456.3 892.25 1459.65 859.65 1457.95 826.9 1446.55 840.35 1397.45 855.1 1321.85 877.7 1172.35 897.65 1011.15 908.55 888.5 909.75 773.25 910.9 686.7 903.55L517.95 926.85Q474.3 911.2 434.75 892.2 332.1 842.9 269.15 776.55 206.15 710.15 201.5 637.45 196.8 564.75 264.25 540.4 331.65 516 430.75 511.8 472.3 510.05 531.25 511.7 570.9 512.85 646.7 516.6 736.85 521.15 774.8 522.6 850.65 525.6 913.2 525.75 1084.45 526.25 1192.05 522.2 1319.3 517.4 1390.05 505.3 1409.55 502 1427.3 497.75 1447.9 492.8 1461.2 487.75 1462.05 487.4 1462.9 486.85 1463.9 486.15 1464.7 485.3 1465.6 484.15 1466.1 482.7 1467.05 480.1 1466.25 477.45 1435.65 375.65 1368.45 288.35Z"/>
      </g>
      <path stroke="#000" stroke-width="13" stroke-linejoin="miter" stroke-linecap="butt" stroke-miterlimit="10" fill="none" d="M1300.9 213.4Q1301.1 212.8 1301.3 212.2M78.1 342.75Q52.55 386.85 35.2 433.6 0 528.5 0 630.4 0 760.55 14.25 844.45 30.5 939.85 69.7 1007.15 110.9 1077.9 185.1 1131.4 259.6 1185.05 379.5 1230.1 610 1298.8 798.8 1309.55 972.45 1319.4 1131.7 1280.95 1203.1 1263.7 1265.9 1219.25 1326.55 1176.35 1371.4 1113.8 1416.2 1051.3 1438.65 978.35 1444.9 958 1449.25 937.55 1453.95 914.95 1456.3 892.25 1459.65 859.65 1457.95 826.9 1446.55 840.35 1397.45 855.1 1321.85 877.7 1172.35 897.65 1011.15 908.55 888.5 909.75 773.25 910.9 686.7 903.55L517.95 926.85"/>
      <path stroke="#000" stroke-width="13" stroke-linejoin="miter" stroke-linecap="butt" stroke-miterlimit="10" fill="none" d="M517.95 926.85Q474.3 911.2 434.75 892.2 332.1 842.9 269.15 776.55 206.15 710.15 201.5 637.45 196.8 564.75 264.25 540.4 331.65 516 430.75 511.8 472.3 510.05 531.25 511.7 570.9 512.85 646.7 516.6 736.85 521.15 774.8 522.6 850.65 525.6 913.2 525.75 1084.45 526.25 1192.05 522.2 1319.3 517.4 1390.05 505.3 1409.55 502 1427.3 497.75 1447.9 492.8 1461.2 487.75 1462.05 487.4 1462.9 486.85 1463.9 486.15 1464.7 485.3 1465.6 484.15 1466.1 482.7 1467.05 480.1 1466.25 477.45 1435.65 375.65 1368.45 288.35 1337.8 248.5 1300.9 213.4 1258.85 173.4 1208.7 139.55 1114.65 76.05 1001.5 40.5 885.85 4.1 761.35 .5 566.8 -5.1 413.7 52.35 275.05 104.4 178 204.95 118.35 266.75 78.1 342.75"/>
    </g>
    <g>
      <g id="racing-helmet-teeth1" transform="translate(1515.4 965.6)">
        <g>
          <path fill="#FFF" stroke="none" d="M74.8 31.2Q49.9 27.45 22.8 24L0 119.9Q79.3 122.65 157.25 126.65 118.1 76.6 74.8 31.2M572.35 107.55L540.45 0Q502.1 16.45 462.95 36.25 469.6 78.85 472.25 117.25 531.15 112.6 572.35 107.55Z"/>
        </g>
        <path stroke="#000" stroke-width="13" stroke-linejoin="miter" stroke-linecap="butt" stroke-miterlimit="10" fill="none" d="M572.35 107.55Q531.15 112.6 472.25 117.25 469.6 78.85 462.95 36.25 502.1 16.45 540.45 0L572.35 107.55ZM22.8 24L0 119.9Q79.3 122.65 157.25 126.65 118.1 76.6 74.8 31.2 49.9 27.45 22.8 24Z"/>
      </g>
    </g>
    <g>
      <g id="racing-helmet-teeth2" transform="translate(1365.6 943.25)">
        <g>
          <path fill="#FFF" stroke="none" d="M29.05 32L0 138.45Q69.85 139.5 149.8 142.25L172.6 46.35Q100.5 37.15 29.05 32M761.3 25.4Q751.8 8.25 747.3 0 720.85 9.15 690.25 22.35L722.15 129.9Q774.25 123.45 788.75 117.5 791.9 116.25 793 115.05 792.95 114.65 792.9 114.25 789.3 84.65 774.9 52.6 769.5 40.65 761.3 25.4Z"/>
        </g>
        <path stroke="#000" stroke-width="13" stroke-linejoin="miter" stroke-linecap="butt" stroke-miterlimit="10" fill="none" d="M690.25 22.35Q720.85 9.15 747.3 0 751.8 8.25 761.3 25.4 769.5 40.65 774.9 52.6 789.3 84.65 792.9 114.25 792.95 114.65 793 115.05 791.9 116.25 788.75 117.5 774.25 123.45 722.15 129.9M172.6 46.35Q100.5 37.15 29.05 32L0 138.45Q69.85 139.5 149.8 142.25"/>
      </g>
    </g>
    <g>
      <g id="racing-helmet-teeth3" transform="translate(1237.25 969.15)">
        <g>
          <g>
            <g>
              <path fill="#FFF" stroke="none" d="M128.35 112.55L157.4 6.1Q75.9 .2 0 0L0 112.2Q58.25 111.5 128.35 112.55Z"/>
            </g>
            <path stroke="#000" stroke-width="13" stroke-linejoin="miter" stroke-linecap="butt" stroke-miterlimit="10" fill="none" d="M128.35 112.55Q58.25 111.5 0 112.2L0 0Q75.9 .2 157.4 6.1"/>
          </g>
        </g>
      </g>
    </g>
    <g>
      <g id="racing-helmet-teeth4" transform="translate(1092.75 969.15)">
        <g>
          <g>
            <g>
              <path fill="#FFF" stroke="none" d="M0 5.55L6.8 117.35Q64.75 113.1 144.5 112.2L144.5 0Q68.05 -.15 0 5.55Z"/>
            </g>
            <path stroke="#000" stroke-width="13" stroke-linejoin="miter" stroke-linecap="butt" stroke-miterlimit="10" fill="none" d="M144.5 0Q68.05 -.15 0 5.55L6.8 117.35Q64.75 113.1 144.5 112.2"/>
          </g>
        </g>
      </g>
    </g>
    <g>
      <g id="racing-helmet-teeth5" transform="translate(937.5 974.7)">
        <g>
          <g>
            <g>
              <path fill="#FFF" stroke="none" d="M15.95 19.45Q8.25 20.9 0 23.45L37.65 134 38.9 133.4Q70.15 118.45 162.05 111.8L155.25 0Q83.55 6 21.95 18.45 19.75 18.7 15.95 19.45Z"/>
            </g>
            <path stroke="#000" stroke-width="13" stroke-linejoin="miter" stroke-linecap="butt" stroke-miterlimit="10" fill="none" d="M162.05 111.8Q70.15 118.45 38.9 133.4L37.65 134 0 23.45Q8.25 20.9 15.95 19.45 19.75 18.7 21.95 18.45 83.55 6 155.25 0"/>
          </g>
        </g>
      </g>
    </g>
    <g>
      <g id="racing-helmet-teeth6" transform="translate(822.45 998.15)">
        <g>
          <g>
            <g>
              <path fill="#FFF" stroke="none" d="M119.55 133.4Q133.55 119.9 152.7 110.55L115.05 0Q81.55 10.25 55.05 31.85 16.7 63.1 0 113.25L97.3 165.3Q104.55 147.85 119.55 133.4Z"/>
            </g>
            <path stroke="#000" stroke-width="13" stroke-linejoin="miter" stroke-linecap="butt" stroke-miterlimit="10" fill="none" d="M152.7 110.55Q133.55 119.9 119.55 133.4 104.55 147.85 97.3 165.3L0 113.25Q16.7 63.1 55.05 31.85 81.55 10.25 115.05 0"/>
          </g>
        </g>
      </g>
    </g>
    <g>
      <g id="racing-helmet-teeth7" transform="translate(810.15 1111.4)">
        <g>
          <g>
            <g id="Layer14_0_FILL">
              <path fill="#FFF" stroke="none" d="M103.45 91.45Q101.8 70.75 109.6 52.05L12.3 0Q-1.6 41.75 .2 95.2L1.2 100.85Q2.6 108.15 4.85 116.45 12.1 143.1 24.9 170.1L118.1 137.6Q105.2 113.9 103.45 91.45Z"/>
            </g>
            <path stroke="#000" stroke-width="13" stroke-linejoin="miter" stroke-linecap="butt" stroke-miterlimit="10" fill="none" d="M109.6 52.05Q101.8 70.75 103.45 91.45 105.2 113.9 118.1 137.6L24.9 170.1Q12.1 143.1 4.85 116.45 2.6 108.15 1.2 100.85L.2 95.2Q-1.6 41.75 12.3 0"/>
          </g>
        </g>
      </g>
    </g>
    <g>
      <g id="racing-helmet-teeth8" transform="translate(835.05 1249)">
        <g>
          <g>
            <g>
              <path fill="#FFF" stroke="none" d="M148.95 66.15Q110.9 32.6 93.2 0L0 32.5Q24.4 83.8 63.95 125.6L148.95 66.15Z"/>
            </g>
            <path stroke="#000" stroke-width="13" stroke-linejoin="miter" stroke-linecap="butt" stroke-miterlimit="10" fill="none" d="M93.2 0Q110.9 32.6 148.95 66.15L63.95 125.6Q24.4 83.8 0 32.5"/>
          </g>
        </g>
      </g>
    </g>
    <g>
      <g id="racing-helmet-teeth9" transform="translate(899 1315.15)">
        <g>
          <g>
            <g>
              <path fill="#FFF" stroke="none" d="M121.45 28.9Q101.1 14.2 85 0L0 59.45Q46.5 108.7 111.05 141.5L194.15 72.95Q179 64.4 157.95 51.45 133.95 36.55 121.45 28.9Z"/>
            </g>
            <path stroke="#000" stroke-width="13" stroke-linejoin="miter" stroke-linecap="butt" stroke-miterlimit="10" fill="none" d="M85 0Q101.1 14.2 121.45 28.9 133.95 36.55 157.95 51.45 179 64.4 194.15 72.95L111.05 141.5Q46.5 108.7 0 59.45"/>
          </g>
        </g>
      </g>
    </g>
    <g>
      <g id="racing-helmet-teeth10" transform="translate(1010.05 1388.1)">
        <g>
          <g>
            <g>
              <path fill="#FFF" stroke="none" d="M123.5 21.05Q104.15 11.95 83.1 0L0 68.55Q32.1 84.9 69.15 97.1L169.1 40Q145.9 31.65 123.5 21.05Z"/>
            </g>
            <path stroke="#000" stroke-width="13" stroke-linejoin="miter" stroke-linecap="butt" stroke-miterlimit="10" fill="none" d="M83.1 0Q104.15 11.95 123.5 21.05 145.9 31.65 169.1 40L69.15 97.1Q32.1 84.9 0 68.55"/>
          </g>
        </g>
      </g>
    </g>
    <g>
      <g id="racing-helmet-teeth11" transform="translate(1079.2 1428.1)">
        <g>
          <g>
            <g>
              <path fill="#FFF" stroke="none" d="M302.65 39.8Q238.25 34.3 186.6 23.85 139.65 14.35 99.95 0L0 57.1Q28.75 66.6 59.8 73.3L302.65 39.8Z"/>
            </g>
            <path stroke="#000" stroke-width="13" stroke-linejoin="miter" stroke-linecap="butt" stroke-miterlimit="10" fill="none" d="M99.95 0Q139.65 14.35 186.6 23.85 238.25 34.3 302.65 39.8L59.8 73.3Q28.75 66.6 0 57.1"/>
          </g>
        </g>
      </g>
    </g>
    <g>
      <g id="PR-helmet-top" transform="translate(1141.55 514.4)">
        <g>
          <path fill="#FF1D25" stroke="none" d="M792 493.05Q767.05 368.2 720.15 247.65 685.25 157.9 640.95 77.1L612.4 49.2Q475.15 7.45 314 1.15 225.3 -2.35 155.3 4.75 270.05 87.85 370.9 183.85 533.25 338.45 622.55 493.05L623.85 493.05 626.5 493.05 792 493.05Z"/>
          <path fill="#DE1D25" stroke="none" d="M740.25 174.7L739.85 173.85 640.95 77.1Q685.25 157.9 720.15 247.65 767.05 368.2 792 493.05L626.5 493.05 625.2 493.1 622.55 493.1 622.55 493.05Q533.25 338.45 370.9 183.85 270.05 87.85 155.3 4.75L151.6 5.15 0 92.1Q52.95 111.1 119.4 174.4 152.65 206 175.3 233.85L172.3 243.65Q167.95 255.3 161.15 264.6 236.75 309 305.3 362.25 383 422.6 450.35 493.3 494.15 539.35 532.75 588.8 562.25 626.45 588.7 665.85L623.6 671.1Q666 676.55 703.5 677.35 755.95 678.45 791.15 670.1 835.15 659.65 849.45 635 849.7 630 849.6 620.55 849.4 601.65 847.8 579.4 845 540.5 838.45 498.4 825 412.35 797.4 324.4 778.9 265.1 754 206.15 747 189.65 740.25 174.7Z"/>
        </g>
        <path stroke="#000" stroke-width="13" stroke-linejoin="miter" stroke-linecap="butt" stroke-miterlimit="10" fill="none" d="M640.95 77.1L739.85 173.85 740.25 174.7Q747 189.65 754 206.15 778.9 265.1 797.4 324.4 825 412.35 838.45 498.4 845 540.5 847.8 579.4 849.4 601.65 849.6 620.55 849.7 630 849.45 635 835.15 659.65 791.15 670.1 755.95 678.45 703.5 677.35 666 676.55 623.6 671.1L588.7 665.85Q562.25 626.45 532.75 588.8 494.15 539.35 450.35 493.3 383 422.6 305.3 362.25 236.75 309 161.15 264.6 167.95 255.3 172.3 243.65L175.3 233.85Q152.65 206 119.4 174.4 52.95 111.1 0 92.1L151.6 5.15 155.3 4.75Q225.3 -2.35 314 1.15 475.15 7.45 612.4 49.2L640.95 77.1Q685.25 157.9 720.15 247.65 767.05 368.2 792 493.05L626.5 493.05 625.2 493.1 622.55 493.1 622.55 493.05Q533.25 338.45 370.9 183.85 270.05 87.85 155.3 4.75M625.2 493.1L623.85 493.05 622.55 493.05"/>
      </g>
    </g>
    <g id="PR_visor_black">
      <g>
        <path stroke="#000" stroke-width="13" stroke-linejoin="miter" stroke-linecap="butt" stroke-miterlimit="10" fill="none" d="M2087.35 1077.55Q2139.45 1071.1 2153.95 1065.15 2157.1 1063.9 2158.2 1062.7 2158.5 1062.35 2158.5 1062.05 2183.902 1218.248 2181.225 1291.85 2178.542 1365.453 2169.075 1376.725 2159.609 1387.995 2155.1 1390.55L2154.9 1391.9Q2154.4 1393.6 2152.7 1395.65 2141.3 1409.1 2092.2 1423.85 2016.6 1446.45 1867.1 1466.4 1705.9 1477.3 1583.25 1478.5 1468 1479.65 1381.45 1472.3 1317.05 1466.8 1265.4 1456.35 1218.45 1446.85 1178.75 1432.5 1155.55 1424.15 1133.15 1413.55 1113.8 1404.45 1092.75 1392.5 1077.6 1383.95 1056.55 1371 1032.55 1356.1 1020.05 1348.45 999.7 1333.75 983.6 1319.55 945.55 1286 927.85 1253.4 914.95 1229.7 913.2 1207.25 911.55 1186.55 919.35 1167.85 926.6 1150.4 941.6 1135.95 955.6 1122.45 974.75 1113.1L976 1112.5Q1007.25 1097.55 1099.15 1090.9 1157.1 1086.65 1236.85 1085.75 1295.1 1085.05 1365.2 1086.1 1435.05 1087.15 1515 1089.9 1594.3 1092.65 1672.25 1096.65 1701.95 1134.7 1728.15 1173.75L1763.05 1179Q1805.45 1184.45 1842.95 1185.25 1895.4 1186.3 1930.6 1177.95 1974.6 1167.55 1988.9 1142.85 1989.15 1137.85 1989.05 1128.4 1988.85 1109.5 1987.25 1087.25 2046.15 1082.6 2087.35 1077.55Z"/>
      </g>
      <g id="PR-helmet-edges" transform="translate(912.9 1062.05)">
        <g>
          <path fill="#000" stroke="none" d="M1245.3 .7Q1244.2 1.9 1241.05 3.15 1226.55 9.1 1174.45 15.55 1133.25 20.6 1074.35 25.25 1075.95 47.5 1076.15 66.4 1076.25 75.85 1076 80.85 1061.7 105.55 1017.7 115.95 982.5 124.3 930.05 123.25 892.55 122.45 850.15 117L815.25 111.75Q789.05 72.7 759.35 34.65 681.4 30.65 602.1 27.9 522.15 25.15 452.3 24.1 382.2 23.05 323.95 23.75 244.2 24.65 186.25 28.9 94.35 35.55 63.1 50.5L61.85 51.1Q42.7 60.45 28.7 73.95 13.7 88.4 6.45 105.85 -1.35 124.55 .3 145.25 2.05 167.7 14.95 191.4 32.65 224 70.7 257.55 86.8 271.75 107.15 286.45 119.65 294.1 143.65 309 164.7 321.95 179.85 330.5 200.9 342.45 220.25 351.55 242.65 362.15 265.85 370.5 305.55 384.85 352.5 394.35 404.15 404.8 468.55 410.3 555.1 417.65 670.35 416.5 793 415.3 954.2 404.4 1103.7 384.45 1179.3 361.85 1228.4 347.1 1239.8 333.65 1241.5 331.6 1242 329.9L1242.2 328.55Q1246.7 326 1256.2 314.75 1265.65 303.45 1268.35 229.85 1271 156.25 1245.6 .05 1245.6 .35 1245.3 .7Z"/>
        </g>
      </g>
    </g>
    <g>
      <g id="racing-helmet-eye-right" transform="translate(947.3 597.85)">
        <g>
          <path fill="#FF1D25" stroke="none" d="M366.85 159.2L369.85 149.45Q347.2 121.6 313.95 89.95 247.45 26.65 194.5 7.65 146.45 -9.65 114.05 12.2 84.5 32.1 64.4 52.35L64.85 52.5 59.2 57.7Q28.85 86.6 13.75 113.65 -3.35 144.3 .8 170.15 5.8 201.05 41.2 224 108.2 267.4 181.25 240.15 206.6 230.65 230.8 213.2 246.7 201.75 259.65 188.75 278.7 197.85 291.95 202 306.9 206.65 315.65 205.35 340.1 201.55 355.7 180.15 362.5 170.85 366.85 159.2M240.5 179.15Q227.25 187.3 209.9 193.7 185.9 202.55 161.6 204.9 93.5 211.5 38.65 166.7 35.25 139.75 40.4 122.55 48 97 73.4 98.6 94.6 99.95 147.5 128.1 161.25 135.4 194.15 153.8 224.75 170.9 240.5 179.15Z"/>
          <path fill="#000815" stroke="none" d="M209.9 193.7Q227.25 187.3 240.5 179.15 224.75 170.9 194.15 153.8 161.25 135.4 147.5 128.1 94.6 99.95 73.4 98.6 48 97 40.4 122.55 35.25 139.75 38.65 166.7 93.5 211.5 161.6 204.9 185.9 202.55 209.9 193.7M197 175.3Q201.8 176.2 198.55 178.05 195.45 179.8 186.75 181.45 164.7 185.55 140.35 183.8 109.15 181.6 93.05 169.7 72.75 154.75 79.95 126.3L197 175.3Z"/>
          <path fill="#333" stroke="none" d="M198.55 178.05Q201.8 176.2 197 175.3L79.95 126.3Q72.75 154.75 93.05 169.7 109.15 181.6 140.35 183.8 164.7 185.55 186.75 181.45 195.45 179.8 198.55 178.05Z"/>
        </g>
        <path stroke="#000" stroke-width="13" stroke-linejoin="miter" stroke-linecap="butt" stroke-miterlimit="10" fill="none" d="M64.4 52.35Q84.5 32.1 114.05 12.2 146.45 -9.65 194.5 7.65 247.45 26.65 313.95 89.95 347.2 121.6 369.85 149.45L366.85 159.2Q362.5 170.85 355.7 180.15 340.1 201.55 315.65 205.35 306.9 206.65 291.95 202 278.7 197.85 259.65 188.75 246.7 201.75 230.8 213.2 206.6 230.65 181.25 240.15 108.2 267.4 41.2 224 5.8 201.05 .8 170.15 -3.35 144.3 13.75 113.65 28.85 86.6 59.2 57.7L64.85 52.5 64.4 52.35ZM240.5 179.15Q224.75 170.9 194.15 153.8 161.25 135.4 147.5 128.1 94.6 99.95 73.4 98.6 48 97 40.4 122.55 35.25 139.75 38.65 166.7 93.5 211.5 161.6 204.9 185.9 202.55 209.9 193.7 227.25 187.3 240.5 179.15Z"/>
      </g>
    </g>
    <g>
      <g id="racing-helmet-eye-left" transform="translate(1879 678.2)">
        <g>
          <path fill="#DE1D25" stroke="none" d="M107.6 79.6Q105 87.95 100.2 97.35 90.5 116.6 72.5 138.7 77.25 141.9 83.05 143.15 90.8 144.8 99.75 142.75 108.35 140.75 115.3 135.45 123.1 129.5 125.75 121.45 128.65 112.65 124.85 102.8 120.45 91.5 107.6 79.6Z"/>
          <path fill="#FF1D25" stroke="none" d="M96.2 97.35Q101 87.95 103.6 79.6 114.3 45.9 92.35 27.55 67.6 6.8 39.05 1.65 19.4 -1.9 .4 2.2L0 2.25Q7.75 19.55 13.7 33.7 38.45 92.45 57.15 151.95 63.1 145.3 68.5 138.7 86.5 116.6 96.2 97.35Z"/>
        </g>
        <path stroke="#000" stroke-width="13" stroke-linejoin="miter" stroke-linecap="butt" stroke-miterlimit="10" fill="none" d="M68.5 138.7Q86.5 116.6 96.2 97.35 101 87.95 103.6 79.6 114.3 45.9 92.35 27.55 67.6 6.8 39.05 1.65 19.4 -1.9 .4 2.2L0 2.25Q7.75 19.55 13.7 33.7 38.45 92.45 57.15 151.95 63.1 145.3 68.5 138.7ZM107.6 79.6Q120.45 91.5 124.85 102.8 128.65 112.65 125.75 121.45 123.1 129.5 115.3 135.45 108.35 140.75 99.75 142.75 90.8 144.8 83.05 143.15 77.25 141.9 72.5 138.7"/>
      </g>
    </g>
    <g>
      <g id="PR_mouth" transform="translate(1377.85 1473.45)">
        <g>
          <g>
            <path fill="#FFF" stroke="none" d="M582.8 193.15Q614.7 171.9 639.2 106.9 654.75 65.75 664.7 15.4 588.65 31.4 464.2 47.45 332.9 64.4 153.3 54.2 97.15 51.05 43 45.5L0 40.65Q11.15 120.35 72.85 178.45 126.9 229.3 208.45 254.4 323.55 257 438.25 236.9 488.85 228.05 527 216.45 565.1 204.95 582.8 193.15Z"/>
            <path fill="#BD2D2A" stroke="none" d="M725.1 0Q721.45 1.45 712.1 4.1 693.35 9.45 664.7 15.4 654.75 65.75 639.2 106.9 614.7 171.9 582.8 193.15 565.1 204.95 527 216.45 488.85 228.05 438.25 236.9 323.55 257 208.45 254.4 251.35 267.6 294.8 271.05 398.5 279.45 486.25 263 587.05 244.1 637 196.5 681.45 154.15 707.75 72.85 715.95 47.45 721.35 21.2L725.1 0Z"/>
          </g>
          <path stroke="#000" stroke-width="13" stroke-linejoin="miter" stroke-linecap="butt" stroke-miterlimit="10" fill="none" d="M664.7 15.4Q693.35 9.45 712.1 4.1 721.45 1.45 725.1 0L721.35 21.2Q715.95 47.45 707.75 72.85 681.45 154.15 637 196.5 587.05 244.1 486.25 263 398.5 279.45 294.8 271.05 251.35 267.6 208.45 254.4 126.9 229.3 72.85 178.45 11.15 120.35 0 40.65L43 45.5Q97.15 51.05 153.3 54.2 332.9 64.4 464.2 47.45 588.65 31.4 664.7 15.4 654.75 65.75 639.2 106.9 614.7 171.9 582.8 193.15 565.1 204.95 527 216.45 488.85 228.05 438.25 236.9 323.55 257 208.45 254.4"/>
        </g>
        <g id="PR-mouth_1">
          <g>
            <g>
              <path fill="#BCBCBC" stroke="none" d="M504.15 157.95Q511 149.9 515.6 130.35 464.9 140.45 363 145.7 327.9 147.45 294.65 148.45 288.1 148.6 281.75 148.8L281.6 150.45Q281.25 153.5 282 158.3 284.2 173.9 296.45 179.85 306.2 184.6 332.15 184.7 339.75 184.7 348.65 184.35 362.65 183.7 385.4 181.85 398.2 180.85 423.65 178.8 436.1 177.8 457.5 176.35 474.35 174.75 484.25 171.2 496.5 166.85 504.15 157.95Z"/>
              <path fill="#919191" stroke="none" d="M517.15 122.75Q514.95 121.7 512.45 120.7 490.65 111.35 471.45 108.55 452.6 105.9 440.65 109.75 428.05 115.35 418 117.75 411.15 119.45 406.1 118.95 402.6 118.7 397 116.8 381.65 111.5 366.25 110.45 345.6 109.1 290.65 132.8 273.5 140.25 254.9 149.25L254.75 149.35Q268.1 149.15 281.75 148.8L282.2 143.95 281.75 148.8Q288.1 148.6 294.65 148.45 327.9 147.45 363 145.7 464.9 140.45 515.6 130.35 515.9 129.15 516.1 127.95 516.65 125.4 517.15 122.75Z"/>
            </g>
            <path stroke="#000" stroke-width="13" stroke-linejoin="miter" stroke-linecap="butt" stroke-miterlimit="10" fill="none" d="M517.4 121.25Q517.3 122.05 517.15 122.75 522.8 125.35 527.3 127.75 528.9 128.55 530.4 129.45M281.75 148.8Q268.1 149.15 254.75 149.35L254.9 149.25Q273.5 140.25 290.65 132.8 345.6 109.1 366.25 110.45 381.65 111.5 397 116.8 402.6 118.7 406.1 118.95 411.15 119.45 418 117.75 428.05 115.35 440.65 109.75 452.6 105.9 471.45 108.55 490.65 111.35 512.45 120.7 514.95 121.7 517.15 122.75 516.65 125.4 516.1 127.95 515.9 129.15 515.6 130.35 517.65 129.9 519.65 129.5 523.6 128.6 527.3 127.75M281.75 148.8L281.6 150.45Q281.25 153.5 282 158.3 284.2 173.9 296.45 179.85 306.2 184.6 332.15 184.7 339.75 184.7 348.65 184.35 362.65 183.7 385.4 181.85 398.2 180.85 423.65 178.8 436.1 177.8 457.5 176.35 474.35 174.75 484.25 171.2 496.5 166.85 504.15 157.95 511 149.9 515.6 130.35 464.9 140.45 363 145.7 327.9 147.45 294.65 148.45 288.1 148.6 281.75 148.8L282.2 143.95"/>
          </g>
        </g>
        <g id="PR-mouth-shade" transform="translate(3.7 15.75)" opacity=".2">
          <g>
            <path fill="#000" stroke="none" d="M656.8 34.9Q661.5 16.4 664.7 0 588.65 16 464.2 32.05 332.9 49 153.35 38.8 97.15 35.65 43 30.1L0 25.25Q9.05 90.05 52.05 141.1 90.5 186.75 151.55 216.55 123.7 169.65 118.35 137 110.4 88.35 155.9 82.85 181.2 79.8 254.9 76.1 370.05 70.3 396.4 68.7 588.4 57.05 656.8 34.9Z"/>
          </g>
        </g>
      </g>
    </g>
    <g>
      <g id="PR-helmet-shade" transform="translate(698.85 518.85)">
        <g opacity=".2">
          <g>
            <path fill="#000" stroke="none" d="M665.15 331.65Q717.85 351.95 785.95 386.45 843.35 434.35 895.05 488.55 938.45 534.15 977.5 584.05 1006.75 621.4 1033.4 661.15L1035.15 661.45 1061.3 478.15Q971.45 326.7 811.85 175.55 712.4 81.35 600 .05L596.35 .45 444.7 87.35Q466.1 95 490.8 110.7 533.6 138.05 581.1 186.35 604.85 210.5 620.05 229.15L617.05 238.9Q612.7 250.55 605.9 259.85 600.35 267.5 593.55 272.9 541.8 228.65 495.25 196 423.65 145.65 385.3 138.3 380.2 137.25 375.55 137.1 349.4 136.05 326.8 144.5 304.65 152.8 291.2 168.15 277.3 184 276.15 203.55 274.9 224.7 288.85 246.4 285.45 219.45 290.6 202.25 298.2 176.7 323.55 178.3 334.5 179 352.65 186.2 375.3 195.2 418.75 219.25 485.9 256.35 490.7 258.85 500.3 263.9 509.85 268.45 496.9 281.45 481 292.9 456.8 310.35 431.45 319.85 358.4 347.1 291.4 303.7 256 280.75 251 249.85 246.8 223.95 263.95 193.35 235.45 213.35 204.65 241.75 155.15 287.45 115.95 341.05 64.2 411.65 35.2 489.75 0 584.65 0 686.55 0 816.7 14.25 900.55 30.5 996 69.7 1063.3 110.9 1134.05 185.1 1187.55 259.6 1241.25 379.5 1286.25 506.4 1324.1 619.35 1344.2 728.55 1363.6 827.9 1367 662.85 1338.15 531.6 1275.5 362.25 1194.6 262.6 1063.2 170.95 942.3 154 799.95 146.55 787.25 139.9 773.3 127.1 746.35 119.85 719.65 117.6 711.35 116.2 704.05L115.2 698.4Q114.2 668.35 118.15 642.05 118.3 636.55 118.6 631.2 120.55 597.45 143.2 563.9 161.35 537 192 511.4 216.8 443.5 253.45 380.9 264.95 361.3 276.2 344.65L285.2 331.9Q354 368.95 463.4 341.45 497.6 332.85 531.75 318.8 548.8 311.8 559.05 306.5 593.55 304.1 665.15 331.65Z"/>
          </g>
        </g>
      </g>
    </g>
    <g id="helmet-top-ferrari" transform="translate(1183.15 566.65)">
      <g>
        <g>
          <g >
            <path fill="#333" stroke="none" d="M659 269.3Q671.9 267.8 684.6 265.9 690.25 265.1 693.7 260.45 694.75 259.1 695.4 257.65 696.3 254.55 695.75 251.15 695.35 248.6 694.2 246.4 661.45 183.9 644.45 152.95 617.45 103.85 593.8 68.55 589.3 64.1 585.1 60.8 517.35 33.9 444.45 18.8 367.45 2.8 287.65 .5 134.9 -3.9 7.55 30.65L7.6 30.65Q7.85 30.7 8.1 30.8L21.4 34.55Q26.15 35.9 30.35 37.1L52.4 43.45Q52.85 43.6 53.25 43.7 78.45 51.3 98.25 58.95 143.8 77.8 174.15 92.2 215.45 111.85 247.35 131.85 321.3 178.2 361.3 237.5 363.4 240.1 365.45 242.75 373.45 253 384.7 259.4 396 265.8 408.9 267.45 452.75 273.15 499.55 275.05L659 269.3Z"/>
          </g>
          <path stroke="#000" stroke-width="13" stroke-linejoin="miter" stroke-linecap="butt" stroke-miterlimit="10" fill="none" d="M659 269.3Q671.9 267.8 684.6 265.9 690.25 265.1 693.7 260.45 694.75 259.1 695.4 257.65M593.8 68.55Q589.3 64.1 585.1 60.8M361.3 237.5Q363.4 240.1 365.45 242.75 373.45 253 384.7 259.4 396 265.8 408.9 267.45 452.75 273.15 499.55 275.05M659 269.3Q592.6 277.15 520.9 275.7 510.15 275.45 499.55 275.05M695.4 257.65Q696.8 254.35 696.35 250.65 696.35 250.4 696.3 250.2 695.95 248.25 695.3 246.8 672.5 193.5 649.15 150.25 618.2 93 594.05 68.8 593.9 68.65 593.8 68.55M0 32.75L10.5 35.15Q24.1 38.4 39.4 42.85 88.3 56.95 135.65 77.15 201.85 105.45 255.4 141.8 319.1 185.05 361.3 237.5"/>
        </g>
      </g>
      <g>
        <g>
          <g>
            <path fill="#FFF" stroke="none" d="M345.6 75.85Q406.75 117.75 446.9 161 497.15 215.1 511.5 268.3L628.95 264.9Q624.35 253.2 615.95 234.7 599.15 197.7 580.1 163.85 519.1 55.4 458.4 18.7 431 11.65 386.4 5.7 297.2 -6.15 211.05 -.5 227.2 6.65 252.1 19.75 301.9 45.95 345.6 75.85Z"/>
          </g>
          <path stroke="#000" stroke-width="13" stroke-linejoin="miter" stroke-linecap="butt" stroke-miterlimit="10" fill="none" d="M211.05 -.5Q227.2 6.65 252.1 19.75 301.9 45.95 345.6 75.85 406.75 117.75 446.9 161 497.15 215.1 511.5 268.3L628.95 264.9Q624.35 253.2 615.95 234.7 599.15 197.7 580.1 163.85 519.1 55.4 458.4 18.7 431 11.65 386.4 5.7 297.2 -6.15 211.05 -.5ZM587.1 61.5Q539.397 42.275 459.6 19M209.55 -.5Q85.938 6.591 -2 33.5"/>
        </g>
      </g>
    </g>
    <g id="ferrari-badge" transform="translate(1615.9 794.95)">
      <g>
        <g>
          <g>
            <path fill="#E7DB4C" stroke="none" d="M240.7 158.95Q254.2 120.85 246.05 64.1L131.2 31.2 9.5 62.75 9.55 62.8Q44.45 164.8 104.5 201.85 123.25 213.45 142.3 217.15 151.8 218.95 157.55 218.5 221 214.5 240.7 158.95M171.9 93.4Q166.8 96.35 165 98.45 162.8 101.1 165 106.25 166.2 109.1 168.9 113.75 170 116.3 175.2 118.65 177.9 119.85 189.35 123.8 196.8 126.4 195.45 120.5 192.3 112.45 192 109.2 191.65 104.8 199.2 99.45 205.55 94.9 211.55 93.15 215.45 92 212 98 206.8 106 205.1 109.4 203.15 113.35 203.9 121.9 204.8 132.6 204.6 134.25 204.1 138.65 200 139.55 197.35 140.1 191.95 139.25 188.05 138.6 183.9 144.15 179.8 149.65 180.2 154.6 180.55 158.65 183.75 165.25 185.35 168.55 186.85 171L181.9 181.9Q176.3 193.45 173.35 197 170.4 200.5 163.7 198.45L157.6 195.7 173.95 173.4 168.75 158.2 166.9 165.05Q164.55 172.1 162.2 173.1 160.05 174.05 151.95 173.85 141.6 173.55 138.75 173.8 133.9 174.2 128.9 177.25L124.9 180.2Q124.45 178.6 124.55 176.3 124.85 171.75 127.8 168.2 130.6 164.85 142 164.2 145 164.05 150.75 163.85 155.45 163.6 157.4 163.05 162.15 161.7 160.3 156.45 158.45 151.25 152.2 147.85 147.1 145 136.95 133.45L127.85 122.5Q123.9 122.2 119.35 122.25 110.2 122.35 107.1 124.25 104 126.15 105.65 137.75 106.45 143.6 107.9 149 105.55 148.25 102.8 146.85 97.35 144.05 95.45 140.9 93.55 137.8 92.3 122.9L91.4 108.6 118.85 108.9 126.75 103.65Q135.05 97.7 137.2 94.25 139.6 90.4 131.5 90.5 123.9 90.55 117.55 93.3 112.8 95.35 108 92.5L104.1 89.25 122.4 70.85Q120.1 71.45 101.8 62.65 83.5 53.8 85.7 53.35 88.05 52.9 125.2 60.85 127.75 59 130.2 58.3 134 57.2 140.85 58.35 151.85 60.25 152.6 60.3 159.4 60.85 163.75 62.95 168.8 65.35 166.35 68.25 163.5 71.65 164.6 76.25 165.8 81.4 171.9 87.4 175.35 90.75 171.9 93.4Z"/>
            <path fill="#020202" stroke="none" d="M165 98.45Q166.8 96.35 171.9 93.4 175.35 90.75 171.9 87.4 165.8 81.4 164.6 76.25 163.5 71.65 166.35 68.25 168.8 65.35 163.75 62.95 159.4 60.85 152.6 60.3 151.85 60.25 140.85 58.35 134 57.2 130.2 58.3 127.75 59 125.2 60.85 88.05 52.9 85.7 53.35 83.5 53.8 101.8 62.65 120.1 71.45 122.4 70.85L104.1 89.25 108 92.5Q112.8 95.35 117.55 93.3 123.9 90.55 131.5 90.5 139.6 90.4 137.2 94.25 135.05 97.7 126.75 103.65L118.85 108.9 91.4 108.6 92.3 122.9Q93.55 137.8 95.45 140.9 97.35 144.05 102.8 146.85 105.55 148.25 107.9 149 106.45 143.6 105.65 137.75 104 126.15 107.1 124.25 110.2 122.35 119.35 122.25 123.9 122.2 127.85 122.5L136.95 133.45Q147.1 145 152.2 147.85 158.45 151.25 160.3 156.45 162.15 161.7 157.4 163.05 155.45 163.6 150.75 163.85 145 164.05 142 164.2 130.6 164.85 127.8 168.2 124.85 171.75 124.55 176.3 124.45 178.6 124.9 180.2L128.9 177.25Q133.9 174.2 138.75 173.8 141.6 173.55 151.95 173.85 160.05 174.05 162.2 173.1 164.55 172.1 166.9 165.05L168.75 158.2 173.95 173.4 157.6 195.7 163.7 198.45Q170.4 200.5 173.35 197 176.3 193.45 181.9 181.9L186.85 171Q185.35 168.55 183.75 165.25 180.55 158.65 180.2 154.6 179.8 149.65 183.9 144.15 188.05 138.6 191.95 139.25 197.35 140.1 200 139.55 204.1 138.65 204.6 134.25 204.8 132.6 203.9 121.9 203.15 113.35 205.1 109.4 206.8 106 212 98 215.45 92 211.55 93.15 205.55 94.9 199.2 99.45 191.65 104.8 192 109.2 192.3 112.45 195.45 120.5 196.8 126.4 189.35 123.8 177.9 119.85 175.2 118.65 170 116.3 168.9 113.75 166.2 109.1 165 106.25 162.8 101.1 165 98.45Z"/>
            <path fill="#60AD3D" stroke="none" d="M240.2 33.6L238.9 28.75 123.95 .45 123.85 .45 122 0 0 32.15Q2.6 41.3 4.7 48.05L128.9 15.25 243.1 46.85Q241.75 39.85 240.2 33.6Z"/>
            <path fill="#FFF" stroke="none" d="M244.85 56.2Q243.6 49.25 243.1 46.85L128.9 15.25 4.7 48.05 7.15 55.85 131.2 23.7 244.85 56.2Z"/>
            <path fill="#DA372C" stroke="none" d="M246.05 64.1L244.85 56.2 131.2 23.7 7.15 55.85 9.5 62.75 131.2 31.2 246.05 64.1Z"/>
          </g>
          <path stroke="#000" stroke-width="13" stroke-linejoin="round" stroke-linecap="round" fill="none" d="M244.85 56.2L246.05 64.1M9.55 62.8L9.5 62.75 7.15 55.85 4.7 48.05Q2.6 41.3 0 32.15L122 0 123.85 .45M123.95 .45L238.9 28.75 240.2 33.6Q241.75 39.85 243.1 46.85 243.6 49.25 244.85 56.2"/>
        </g>
      </g>
      <g>
        <g>
          <path stroke="#000" stroke-width="13" stroke-linejoin="round" stroke-linecap="round" fill="none" d="M9.25 61.15Q44.2 163.2 104.25 200.2 123 211.8 142.05 215.5 151.55 217.3 157.3 216.85 220.75 212.85 240.45 157.3 253.95 119.2 245.8 62.45"/>
        </g>
      </g>
    </g>
    <g>
      <g id="racing-helmet-visor-blue" transform="translate(790.75 954)">
        <g id="visor-glass" opacity=".53">
          <g>
            <path fill="#3FA9F5" stroke="none" d="M1401.05 74.75Q1396.9 62.8 1385.6 57.1 1374.3 51.4 1362.25 55.15L1361.55 55.35Q1330.7 64.95 1271.15 72.15 1187.25 82.25 1061.65 85.3 772.95 92.3 487.8 63.9 369.4 52.15 272.15 36 181.8 20.95 129.9 5.65 124.3 3.4 115.4 1.7 97.55 -1.6 81.1 1.45 58 5.7 40.95 22.1 19.55 42.65 8.8 81.05 -4.4 128.15 2.15 161.8 7.75 190.2 28.2 211.6 48.75 233.1 62.85 258.4 77.3 284.3 84.05 312.45 93.15 350.55 125.65 385.15 152.7 413.95 155.9 417.2 177.55 439.3 199.55 457.85 261.65 510.25 341.05 547.35 569.35 654.15 939.65 638.35 1077.65 632.45 1193.9 604.5 1300.7 578.75 1386.5 535.05 1396.3 530.05 1403.2 521.4 1410.05 512.75 1412.75 502.05 1432.95 421.4 1436.45 333.1 1442 192.55 1401.05 74.75Z"/>
          </g>
        </g>
        <g id="visor-blue-sheen" transform="translate(632.05 74.35)" opacity=".28">
          <g>
            <path fill="#F2F2F2" stroke="none" d="M291.3 12.15Q241.25 151.7 163.75 293.05 94.45 419.4 0 552.85 22.85 555.9 49.95 558.5 67.1 534.6 89.45 501.3 115.65 461.95 129.15 441.65 191.15 349.35 242.9 230.65 263.7 183 286.75 122.4 300.35 86.6 327.25 12.25L291.3 12.15M553.65 186.5Q583.05 110.9 618.95 0 539.7 8.3 429.6 10.9 400.95 11.6 376.2 11.9 335.6 121.4 322.85 154.7 292 235.3 265.35 296.45 196.9 453.65 120.4 563.65 208.85 568.2 307.6 564 334.85 562.85 359.5 560.95 387.1 520.15 417.6 466.65 436.85 432.9 471.2 368.7 514.75 286.45 553.65 186.5Z"/>
          </g>
        </g>
        <g id="visor_0.0">
          <g>
            <path stroke="#000" stroke-width="13" stroke-linejoin="miter" stroke-linecap="butt" stroke-miterlimit="10" fill="none" d="M1401.05 74.75Q1442 192.55 1436.45 333.1 1432.95 421.4 1412.75 502.05 1410.05 512.75 1403.2 521.4 1396.3 530.05 1386.5 535.05 1300.7 578.75 1193.9 604.5 1077.65 632.45 939.65 638.35 569.35 654.15 341.05 547.35 261.65 510.25 199.55 457.85 177.55 439.3 155.9 417.2 152.7 413.95 125.65 385.15 93.15 350.55 84.05 312.45 77.3 284.3 62.85 258.4 48.75 233.1 28.2 211.6 7.75 190.2 2.15 161.8 -4.4 128.15 8.8 81.05 19.55 42.6 40.95 22.1 58 5.7 81.1 1.45 97.55 -1.6 115.4 1.7 124.3 3.4 129.9 5.65 181.8 20.95 272.15 36 369.4 52.15 487.8 63.9 772.95 92.3 1061.65 85.3 1187.25 82.25 1271.15 72.15 1330.7 64.95 1361.55 55.35L1362.25 55.15Q1374.3 51.4 1385.6 57.1 1396.9 62.8 1401.05 74.75Z"/>
          </g>
        </g>
      </g>
    </g>
  </g>

</svg>