<?xml version="1.0" encoding="UTF-8"?>
<svg xmlns="http://www.w3.org/2000/svg" viewBox="0 0 1480 1600">
  <g id="bg">
    <rect x="-4.67" y="-7.36" width="1487.43" height="1612.8" style="fill: #ececec;"/>
  </g>
  <g id="post-bg">
    <rect x="274.93" y="231.51" width="930.14" height="1140.14" rx="39.1" ry="39.1" style="fill: #fff;"/>
  </g>
  <g id="icons">
    <path d="m388.08,1294.57c-8.42-5.71-16.28,1.35-16.9,1.93-.62-.58-8.48-7.65-16.9-1.93-7.91,5.36-6.06,17.09,3.11,24.56,8.03,6.55,13.06,10.42,13.75,10.94v.07s.02-.02.04-.03c.02.02.04.03.04.03v-.07c.69-.53,5.71-4.4,13.75-10.94,9.17-7.47,11.01-19.2,3.11-24.56Z" style="fill: none; stroke: #010101; stroke-miterlimit: 10; stroke-width: 3px;"/>
    <g>
      <path d="m472.27,1320.96c1.79-2.92,2.83-6.34,2.83-10.02,0-10.64-8.62-19.26-19.26-19.26s-19.26,8.62-19.26,19.26,8.62,19.26,19.26,19.26c3.65,0,7.04-1.03,9.95-2.79" style="fill: none; stroke: #010101; stroke-miterlimit: 10; stroke-width: 3px;"/>
      <path d="m472.27,1320.96l2.58,8.71s-4.87-1.23-9.06-2.26" style="fill: none; stroke: #010101; stroke-miterlimit: 10; stroke-width: 3px;"/>
    </g>
    <g>
      <path d="m532.88,1310.46s3.2,20.24,3.86,21.55c.66,1.32,1.69-.47,1.69-.47,0,0,20.42-32.75,21.46-35.01,1.04-2.26-1.22-2.07-1.22-2.07,0,0-36.89.47-39.72.47s-1.79,2.07-1.79,2.07l15.72,13.46" style="fill: none; stroke: #010101; stroke-miterlimit: 10; stroke-width: 3px;"/>
      <line x1="532.88" y1="1310.46" x2="559.7" y2="1295.41" style="fill: none; stroke: #010101; stroke-miterlimit: 10; stroke-width: 3px;"/>
    </g>
    <g>
      <path d="m1092.07,1331.93v-41.9c0-.76.62-1.38,1.38-1.38h33.51c.76,0,1.38.62,1.38,1.38v41.9" style="fill: none; stroke: #010101; stroke-miterlimit: 10; stroke-width: 3px;"/>
      <path d="m1092.07,1331.93l16.74-14.49c.77-.77,2.04-.77,2.81,0l16.74,14.49" style="fill: none; stroke: #010101; stroke-miterlimit: 10; stroke-width: 3px;"/>
    </g>
  </g>
  <g id="post">
    <g>
      <path d="m334.06,274.24c.83.6,1.73,1.29,2.58,2.11.86-.82,1.75-1.51,2.59-2.11,2.43-1.76,3.69-3.71,3.66-5.66-.02-1.56-.85-2.63-1.22-2.89-.99-.67-1.86.06-2.19.42-.17.19-.33.4-.48.64l-2.36,3.78-2.36-3.78c-.15-.25-.31-.46-.46-.62h-.01c-.23-.26-.74-.71-1.37-.71-.26,0-.54.08-.83.27-.37.25-1.2,1.33-1.22,2.89-.03,1.95,1.24,3.91,3.67,5.66Z"/>
      <path d="m360.57,260.16c-6.45-6.45-15.03-10.01-24.16-10.01s-17.71,3.55-24.16,10.01c-6.45,6.45-10.01,15.03-10.01,24.16s3.55,17.71,10.01,24.16c6.45,6.45,15.03,10.01,24.16,10.01s17.71-3.55,24.16-10.01c6.45-6.45,10.01-15.03,10.01-24.16s-3.55-17.71-10.01-24.16Zm-35.73,8.33c.05-3.44,1.88-6.19,3.66-7.4,2.52-1.71,5.68-1.59,8.14.15,2.46-1.75,5.62-1.86,8.14-.16h0c1.78,1.21,3.61,3.97,3.66,7.4.04,2.68-.96,6.63-5.96,10.25-1.23.88-2.6,1.98-3.47,3.41l-2.36,3.84-2.36-3.84c-.88-1.43-2.25-2.52-3.47-3.4-5.01-3.62-6.01-7.58-5.97-10.25Zm-2.46,16.06l.05-2.78,5.55.11-.05,2.78c0,.06,0,.12,0,.19,0,4.86,3.95,8.81,8.81,8.81s8.81-3.95,8.81-8.81c0-.06,0-.12,0-.18l-.06-2.78,5.55-.11.06,2.78c0,.1,0,.2,0,.3,0,7.92-6.44,14.36-14.36,14.36s-14.36-6.44-14.36-14.36c0-.1,0-.19,0-.29Zm33.3,18.55c-5.09,5.09-11.85,7.89-19.04,7.89s-13.96-2.8-19.04-7.89c-5.09-5.09-7.89-11.85-7.89-19.04,0-.19,0-.37,0-.55l.06-2.78,5.55.11-.06,2.78c0,.15,0,.29,0,.44,0,11.79,9.59,21.38,21.38,21.38s21.38-9.59,21.38-21.38c0-.15,0-.29,0-.44l-.06-2.78,5.55-.11.06,2.78c0,.18,0,.37,0,.55,0,7.19-2.8,13.96-7.89,19.04Z"/>
    </g>
  </g>
</svg>