<?xml version="1.0" encoding="UTF-8"?>
<svg id="Layer_1" data-name="Layer 1" xmlns="http://www.w3.org/2000/svg" viewBox="0 0 1080 1080">
  <g>
    <rect x="1.76" y="-.38" width="521.61" height="521.61" style="fill: #54c0e8;"/>
    <g>
      <path d="m248.91,219.64c3.67,2.65,7.59,5.66,11.35,9.26,3.77-3.6,7.69-6.62,11.37-9.27,10.67-7.72,16.24-16.33,16.11-24.89-.11-6.84-3.72-11.58-5.37-12.7-4.37-2.95-8.17.28-9.63,1.84-.76.83-1.47,1.77-2.11,2.8l-10.36,16.63-10.36-16.63c-.68-1.09-1.36-2-2.03-2.71l-.06-.06c-1.02-1.1-3.24-3.06-6.01-3.06-1.14,0-2.37.33-3.65,1.2-1.63,1.1-5.26,5.85-5.37,12.7-.13,8.56,5.44,17.17,16.12,24.91Z" style="fill: #410099;"/>
      <path d="m365.44,157.71c-28.37-28.37-66.09-43.99-106.21-43.99s-77.84,15.62-106.21,43.99c-28.37,28.37-43.99,66.09-43.99,106.21s15.62,77.84,43.99,106.21c28.37,28.37,66.09,43.99,106.21,43.99s77.84-15.62,106.21-43.99c28.37-28.37,43.99-66.09,43.99-106.21s-15.62-77.84-43.99-106.21Zm-157.07,36.64c.24-15.11,8.26-27.23,16.1-32.55,11.1-7.5,24.99-7.01,35.79.68,10.8-7.69,24.69-8.18,35.78-.69h.01c7.85,5.32,15.87,17.45,16.1,32.56.18,11.77-4.22,29.14-26.22,45.07-5.39,3.89-11.41,8.7-15.28,14.98l-10.39,16.87-10.4-16.87c-3.86-6.27-9.88-11.09-15.26-14.96-22.02-15.94-26.42-33.31-26.24-45.08Zm-10.81,70.61l.23-12.21,24.42.47-.23,12.21c0,.27-.01.54-.01.82,0,21.35,17.37,38.73,38.73,38.73s38.73-17.37,38.73-38.73c0-.27,0-.53-.01-.8l-.25-12.21,24.41-.5.25,12.21c0,.43.02.87.02,1.3,0,34.82-28.33,63.15-63.15,63.15s-63.15-28.33-63.15-63.15c0-.43,0-.86.02-1.28Zm146.4,81.54c-22.36,22.36-52.1,34.68-83.72,34.68s-61.36-12.32-83.72-34.68c-22.36-22.36-34.68-52.1-34.68-83.72,0-.81.01-1.63.03-2.44l.25-12.21,24.41.5-.25,12.21c-.01.65-.03,1.29-.03,1.94,0,51.82,42.16,93.98,93.98,93.98s93.98-42.16,93.98-93.98c0-.65-.01-1.3-.03-1.94l-.25-12.21,24.41-.5.25,12.21c.02.81.03,1.62.03,2.44,0,31.63-12.32,61.36-34.68,83.72Z" style="fill: #410099;"/>
    </g>
  </g>
  <g>
    <rect x="558.06" y="-.38" width="521.61" height="521.61" style="fill: #a0e2ba;"/>
    <g>
      <path d="m808.07,219.64c3.67,2.65,7.59,5.66,11.35,9.26,3.77-3.6,7.69-6.62,11.37-9.27,10.67-7.72,16.24-16.33,16.11-24.89-.11-6.84-3.72-11.58-5.37-12.7-4.37-2.95-8.17.28-9.63,1.84-.76.83-1.47,1.77-2.11,2.8l-10.36,16.63-10.36-16.63c-.68-1.09-1.36-2-2.03-2.71l-.06-.06c-1.02-1.1-3.24-3.06-6.01-3.06-1.14,0-2.37.33-3.65,1.2-1.63,1.1-5.26,5.85-5.37,12.7-.13,8.56,5.44,17.17,16.12,24.91Z" style="fill: #ce009f;"/>
      <path d="m924.6,157.71c-28.37-28.37-66.09-43.99-106.21-43.99s-77.84,15.62-106.21,43.99c-28.37,28.37-43.99,66.09-43.99,106.21s15.62,77.84,43.99,106.21c28.37,28.37,66.09,43.99,106.21,43.99s77.84-15.62,106.21-43.99c28.37-28.37,43.99-66.09,43.99-106.21s-15.62-77.84-43.99-106.21Zm-157.07,36.64c.24-15.11,8.26-27.23,16.1-32.55,11.1-7.5,24.99-7.01,35.79.68,10.8-7.69,24.69-8.18,35.78-.69h.01c7.85,5.32,15.87,17.45,16.1,32.56.18,11.77-4.22,29.14-26.22,45.07-5.39,3.89-11.41,8.7-15.28,14.98l-10.39,16.87-10.4-16.87c-3.86-6.27-9.88-11.09-15.26-14.96-22.02-15.94-26.42-33.31-26.24-45.08Zm-10.81,70.61l.23-12.21,24.42.47-.23,12.21c0,.27-.01.54-.01.82,0,21.35,17.37,38.73,38.73,38.73s38.73-17.37,38.73-38.73c0-.27,0-.53-.01-.8l-.25-12.21,24.41-.5.25,12.21c0,.43.02.87.02,1.3,0,34.82-28.33,63.15-63.15,63.15s-63.15-28.33-63.15-63.15c0-.43,0-.86.02-1.28Zm146.4,81.54c-22.36,22.36-52.1,34.68-83.72,34.68s-61.36-12.32-83.72-34.68c-22.36-22.36-34.68-52.1-34.68-83.72,0-.81.01-1.63.03-2.44l.25-12.21,24.41.5-.25,12.21c-.01.65-.03,1.29-.03,1.94,0,51.82,42.16,93.98,93.98,93.98s93.98-42.16,93.98-93.98c0-.65-.01-1.3-.03-1.94l-.25-12.21,24.41-.5.25,12.21c.02.81.03,1.62.03,2.44,0,31.63-12.32,61.36-34.68,83.72Z" style="fill: #ce009f;"/>
    </g>
  </g>
  <g>
    <rect x=".83" y="561.16" width="521.61" height="521.61" style="fill: #ce009f;"/>
    <g>
      <path d="m247.44,781.18c3.67,2.65,7.59,5.66,11.35,9.26,3.77-3.6,7.69-6.62,11.37-9.27,10.67-7.72,16.24-16.33,16.11-24.89-.11-6.84-3.72-11.58-5.37-12.7-4.37-2.95-8.17.28-9.63,1.84-.76.83-1.47,1.77-2.11,2.8l-10.36,16.63-10.36-16.63c-.68-1.09-1.36-2-2.03-2.71l-.06-.06c-1.02-1.1-3.24-3.06-6.01-3.06-1.14,0-2.37.33-3.65,1.2-1.63,1.1-5.26,5.85-5.37,12.7-.13,8.56,5.44,17.17,16.12,24.91Z" style="fill: #a0e2ba;"/>
      <path d="m363.97,719.26c-28.37-28.37-66.09-43.99-106.21-43.99s-77.84,15.62-106.21,43.99c-28.37,28.37-43.99,66.09-43.99,106.21s15.62,77.84,43.99,106.21c28.37,28.37,66.09,43.99,106.21,43.99s77.84-15.62,106.21-43.99c28.37-28.37,43.99-66.09,43.99-106.21s-15.62-77.84-43.99-106.21Zm-157.07,36.64c.24-15.11,8.26-27.23,16.1-32.55,11.1-7.5,24.99-7.01,35.79.68,10.8-7.69,24.69-8.18,35.78-.69h.01c7.85,5.32,15.87,17.45,16.1,32.56.18,11.77-4.22,29.14-26.22,45.07-5.39,3.89-11.41,8.7-15.28,14.98l-10.39,16.87-10.4-16.87c-3.86-6.27-9.88-11.09-15.26-14.96-22.02-15.94-26.42-33.31-26.24-45.08Zm-10.81,70.61l.23-12.21,24.42.47-.23,12.21c0,.27-.01.54-.01.82,0,21.35,17.37,38.73,38.73,38.73s38.73-17.37,38.73-38.73c0-.27,0-.53-.01-.8l-.25-12.21,24.41-.5.25,12.21c0,.43.02.87.02,1.3,0,34.82-28.33,63.15-63.15,63.15s-63.15-28.33-63.15-63.15c0-.43,0-.86.02-1.28Zm146.4,81.54c-22.36,22.36-52.1,34.68-83.72,34.68s-61.36-12.32-83.72-34.68c-22.36-22.36-34.68-52.1-34.68-83.72,0-.81.01-1.63.03-2.44l.25-12.21,24.41.5-.25,12.21c-.01.65-.03,1.29-.03,1.94,0,51.82,42.16,93.98,93.98,93.98s93.98-42.16,93.98-93.98c0-.65-.01-1.3-.03-1.94l-.25-12.21,24.41-.5.25,12.21c.02.81.03,1.62.03,2.44,0,31.63-12.32,61.36-34.68,83.72Z" style="fill: #a0e2ba;"/>
    </g>
  </g>
  <g>
    <rect x="557.12" y="561.68" width="521.61" height="521.61" style="fill: #410099;"/>
    <g>
      <path d="m804.92,781.69c3.67,2.65,7.59,5.66,11.35,9.26,3.77-3.6,7.69-6.62,11.37-9.27,10.67-7.72,16.24-16.33,16.11-24.89-.11-6.84-3.72-11.58-5.37-12.7-4.37-2.95-8.17.28-9.63,1.84-.76.83-1.47,1.77-2.11,2.8l-10.36,16.63-10.36-16.63c-.68-1.09-1.36-2-2.03-2.71l-.06-.06c-1.02-1.1-3.24-3.06-6.01-3.06-1.14,0-2.37.33-3.65,1.2-1.63,1.1-5.26,5.85-5.37,12.7-.13,8.56,5.44,17.17,16.12,24.91Z" style="fill: #54c0e8;"/>
      <path d="m921.45,719.77c-28.37-28.37-66.09-43.99-106.21-43.99s-77.84,15.62-106.21,43.99c-28.37,28.37-43.99,66.09-43.99,106.21s15.62,77.84,43.99,106.21c28.37,28.37,66.09,43.99,106.21,43.99s77.84-15.62,106.21-43.99c28.37-28.37,43.99-66.09,43.99-106.21s-15.62-77.84-43.99-106.21Zm-157.07,36.64c.24-15.11,8.26-27.23,16.1-32.55,11.1-7.5,24.99-7.01,35.79.68,10.8-7.69,24.69-8.18,35.78-.69h.01c7.85,5.32,15.87,17.45,16.1,32.56.18,11.77-4.22,29.14-26.22,45.07-5.39,3.89-11.41,8.7-15.28,14.98l-10.39,16.87-10.4-16.87c-3.86-6.27-9.88-11.09-15.26-14.96-22.02-15.94-26.42-33.31-26.24-45.08Zm-10.81,70.61l.23-12.21,24.42.47-.23,12.21c0,.27-.01.54-.01.82,0,21.35,17.37,38.73,38.73,38.73s38.73-17.37,38.73-38.73c0-.27,0-.53-.01-.8l-.25-12.21,24.41-.5.25,12.21c0,.43.02.87.02,1.3,0,34.82-28.33,63.15-63.15,63.15s-63.15-28.33-63.15-63.15c0-.43,0-.86.02-1.28Zm146.4,81.54c-22.36,22.36-52.1,34.68-83.72,34.68s-61.36-12.32-83.72-34.68c-22.36-22.36-34.68-52.1-34.68-83.72,0-.81.01-1.63.03-2.44l.25-12.21,24.41.5-.25,12.21c-.01.65-.03,1.29-.03,1.94,0,51.82,42.16,93.98,93.98,93.98s93.98-42.16,93.98-93.98c0-.65-.01-1.3-.03-1.94l-.25-12.21,24.41-.5.25,12.21c.02.81.03,1.62.03,2.44,0,31.63-12.32,61.36-34.68,83.72Z" style="fill: #54c0e8;"/>
    </g>
  </g>
</svg>