<?xml version="1.0" encoding="UTF-8"?>
<svg id="Layer_1" data-name="Layer 1" xmlns="http://www.w3.org/2000/svg" viewBox="0 0 1800 1800">
  <g>
    <g>
      <path d="m673.91,1477.61c5.73-10.93,17.19-18.42,30.37-18.42,18.9,0,34.28,15.38,34.28,34.28,0,4.44-.86,8.68-2.4,12.58-1.03,4.78-3.04,9.19-5.81,13.03,6.49-6.6,10.5-15.65,10.5-25.61,0-20.16-16.4-36.57-36.57-36.57s-34.89,14.79-36.43,33.55c1.14-4.72,3.23-9.08,6.06-12.84Z" style="fill: #781005;"/>
      <path d="m704.28,1535.49c23.17,0,42.02-18.85,42.02-42.02s-18.85-42.02-42.02-42.02-42.02,18.85-42.02,42.02,18.85,42.02,42.02,42.02Zm0-81.74c21.91,0,39.73,17.82,39.73,39.73,0,20.14-15.06,36.82-34.51,39.38-2.45.54-4.99.84-7.59.84-13.36,0-25-7.52-30.91-18.55-4.07-6.24-6.45-13.68-6.45-21.67,0-21.91,17.82-39.73,39.73-39.73Z" style="fill: #781005;"/>
      <path d="m704.28,1462.35c-4.83,0-9.4,1.11-13.48,3.08,3.49-1.17,7.23-1.82,11.11-1.82,14.61,0,27.15,8.99,32.41,21.72-3.59-13.23-15.69-22.98-30.03-22.98Z" style="fill: #781005;"/>
      <path d="m733.26,1541.46c-8.46,5.13-18.38,8.09-28.98,8.09-27.75,0-50.85-20.26-55.3-46.76.93,12.04,5.9,22.97,13.55,31.43,9.81,10.05,23.21,16.58,38.1,17.5.43.01.85.02,1.28.02,11.72,0,22.56-3.82,31.36-10.28Z" style="fill: #781005;"/>
      <path d="m704.28,1540.94c26.17,0,47.47-21.29,47.47-47.47,0-16.12-8.08-30.39-20.41-38.98-4.65-3.11-9.82-5.5-15.34-7.03-3.75-.96-7.67-1.46-11.72-1.46-26.17,0-47.47,21.29-47.47,47.47s21.29,47.47,47.47,47.47Zm0-92.64c24.91,0,45.18,20.27,45.18,45.18s-20.27,45.18-45.18,45.18-45.18-20.27-45.18-45.18,20.27-45.18,45.18-45.18Z" style="fill: #781005;"/>
      <path d="m704.28,1546.39c20.89,0,38.99-12.17,47.59-29.79,2.02-5.61,3.13-11.65,3.13-17.95,0-1.18-.04-2.34-.12-3.5-.89,27.14-23.24,48.95-50.59,48.95s-50.63-22.71-50.63-50.63c0-14.7,6.3-27.95,16.34-37.21-5.86,4.42-10.77,10.02-14.39,16.45-2.73,6.38-4.24,13.39-4.24,20.76,0,29.18,23.74,52.92,52.92,52.92Z" style="fill: #781005;"/>
    </g>
    <g>
      <path d="m365.44,1527.67h-32.41l-4.36,13.71h-21.81l29.66-87.25h25.43l29.66,87.25h-21.81l-4.36-13.71Zm-5.98-18.7l-10.22-32.03-10.22,32.03h20.44Z" style="fill: #781005;"/>
      <path d="m552.52,1473.33h-22.43v68.05h-19.94v-68.05h-22.43v-19.19h64.81v19.19Z" style="fill: #781005;"/>
      <path d="m943.87,1541.39h-19.94v-50.73l-22.56,37.02h-2.24l-22.56-37.02v50.73h-19.94v-87.25h19.94l23.68,38.76,23.68-38.76h19.94v87.25Z" style="fill: #781005;"/>
      <path d="m1114.75,1522.19v19.19h-54.84v-87.25h54.22v19.19h-34.28v14.46h31.16v18.95h-31.16v15.45h34.9Z" style="fill: #781005;"/>
      <path d="m1222.68,1497.76c0-25.68,19.07-45.37,45.37-45.37,15.83,0,29.79,7.85,37.39,20.19l-17.2,9.97c-3.86-6.73-11.34-10.72-20.19-10.72-15.45,0-25.43,10.34-25.43,25.93s9.97,25.92,25.43,25.92c8.85,0,16.45-3.99,20.19-10.72l17.2,9.97c-7.48,12.34-21.44,20.19-37.39,20.19-26.3,0-45.37-19.69-45.37-45.37Z" style="fill: #781005;"/>
      <path d="m1466.96,1527.67h-32.41l-4.36,13.71h-21.81l29.66-87.25h25.43l29.66,87.25h-21.81l-4.36-13.71Zm-5.98-18.7l-10.22-32.03-10.22,32.03h20.44Z" style="fill: #781005;"/>
    </g>
  </g>
  <g>
    <path d="m587.86,518.37c63.74-121.55,191.11-204.71,337.62-204.71,210.1,0,381.03,170.93,381.03,381.03,0,49.36-9.54,96.51-26.7,139.84-11.47,53.12-33.81,102.2-64.56,144.88,72.13-73.4,116.73-173.93,116.73-284.72,0-224.15-182.36-406.5-406.5-406.5s-387.86,164.44-405,372.92c12.64-52.49,35.86-100.89,67.39-142.74Z" style="fill: #781005;"/>
    <path d="m925.48,1161.77c257.55,0,467.08-209.53,467.08-467.08s-209.53-467.08-467.08-467.08-467.09,209.53-467.09,467.08,209.53,467.08,467.09,467.08Zm0-908.69c243.5,0,441.61,198.1,441.61,441.61,0,223.83-167.39,409.28-383.57,437.79-27.2,6.04-55.42,9.32-84.4,9.32-148.55,0-277.91-83.62-343.58-206.24-45.29-69.32-71.66-152.07-71.66-240.87,0-243.5,198.1-441.61,441.61-441.61Z" style="fill: #781005;"/>
    <path d="m925.48,348.77c-53.66,0-104.51,12.28-149.88,34.19,38.84-13.02,80.35-20.19,123.52-20.19,162.39,0,301.83,99.93,360.22,241.5-39.87-147.01-174.4-255.49-333.85-255.49Z" style="fill: #781005;"/>
    <path d="m1247.67,1228.13c-94.08,57.04-204.37,89.91-322.19,89.91-308.43,0-565.22-225.18-614.69-519.77,10.36,133.85,65.59,255.31,150.61,349.35,109.05,111.71,257.96,184.32,423.49,194.59,4.73.11,9.47.18,14.22.18,130.29,0,250.82-42.47,348.56-114.26Z" style="fill: #781005;"/>
    <path d="m925.48,1222.35c290.95,0,527.66-236.71,527.66-527.66,0-179.24-89.85-337.85-226.85-433.27-51.7-34.57-109.15-61.19-170.57-78.12-41.67-10.62-85.31-16.28-130.24-16.28-290.95,0-527.67,236.71-527.67,527.67s236.71,527.66,527.67,527.66Zm0-1029.84c276.91,0,502.18,225.28,502.18,502.18s-225.28,502.18-502.18,502.18-502.19-225.28-502.19-502.18,225.28-502.18,502.19-502.18Z" style="fill: #781005;"/>
    <path d="m925.48,1282.93c232.2,0,433.39-135.25,528.98-331.1,22.48-62.36,34.76-129.55,34.76-199.55,0-13.09-.48-26.06-1.32-38.94-9.88,301.71-258.36,544.11-562.42,544.11s-562.77-252.46-562.77-562.76c0-163.41,70.03-310.74,181.62-413.65-65.1,49.13-119.72,111.43-159.91,182.89-30.35,70.89-47.18,148.89-47.18,230.76,0,324.36,263.89,588.24,588.24,588.24Z" style="fill: #781005;"/>
  </g>
</svg>