<?xml version="1.0" encoding="UTF-8"?>
<svg id="Layer_1" data-name="Layer 1" xmlns="http://www.w3.org/2000/svg" viewBox="0 0 1920 1080">
  <rect x="-20.54" y="-113.82" width="2020.26" height="1307.35" style="fill: #781005;"/>
  <g>
    <path d="m743.17,375.83c44.28-84.44,132.76-142.2,234.53-142.2,145.95,0,264.69,118.74,264.69,264.69,0,34.29-6.63,67.04-18.55,97.14-7.97,36.9-23.49,71-44.84,100.64,50.11-50.99,81.09-120.82,81.09-197.78,0-155.71-126.68-282.38-282.38-282.38s-269.43,114.23-281.34,259.06c8.78-36.46,24.91-70.08,46.81-99.15Z" style="fill: #f0813c;"/>
    <path d="m977.7,822.77c178.91,0,324.46-145.55,324.46-324.46s-145.55-324.46-324.46-324.46-324.47,145.55-324.47,324.46,145.55,324.46,324.47,324.46Zm0-631.23c169.15,0,306.77,137.61,306.77,306.77,0,155.49-116.28,284.31-266.45,304.12-18.89,4.19-38.5,6.47-58.63,6.47-103.2,0-193.05-58.09-238.67-143.26-31.46-48.15-49.78-105.64-49.78-167.32,0-169.15,137.61-306.77,306.77-306.77Z" style="fill: #f0813c;"/>
    <path d="m977.7,258.01c-37.28,0-72.6,8.53-104.12,23.75,26.98-9.05,55.81-14.02,85.8-14.02,112.81,0,209.67,69.42,250.23,167.76-27.69-102.12-121.15-177.48-231.91-177.48Z" style="fill: #f0813c;"/>
    <path d="m1201.51,868.87c-65.35,39.62-141.97,62.45-223.81,62.45-214.26,0-392.63-156.43-427-361.06,7.2,92.98,45.56,177.35,104.62,242.68,75.75,77.6,179.19,128.04,294.19,135.17,3.28.08,6.58.13,9.88.13,90.51,0,174.24-29.5,242.13-79.37Z" style="fill: #f0813c;"/>
    <path d="m977.7,864.86c202.11,0,366.55-164.43,366.55-366.55,0-124.51-62.41-234.69-157.58-300.97-35.92-24.02-75.82-42.51-118.49-54.27-28.95-7.38-59.26-11.31-90.47-11.31-202.11,0-366.55,164.43-366.55,366.55s164.43,366.55,366.55,366.55Zm0-715.39c192.36,0,348.85,156.49,348.85,348.85s-156.49,348.85-348.85,348.85-348.85-156.49-348.85-348.85,156.49-348.85,348.85-348.85Z" style="fill: #f0813c;"/>
    <path d="m977.7,906.94c161.3,0,301.06-93.95,367.46-230,15.61-43.32,24.15-89.99,24.15-138.62,0-9.09-.33-18.1-.92-27.05-6.86,209.58-179.47,377.97-390.69,377.97s-390.93-175.37-390.93-390.93c0-113.51,48.65-215.86,126.16-287.35-45.22,34.13-83.16,77.41-111.09,127.04-21.08,49.25-32.77,103.43-32.77,160.3,0,225.32,183.31,408.63,408.63,408.63Z" style="fill: #f0813c;"/>
  </g>
</svg>